<?xml version="1.0" encoding="utf-8" standalone="no"?>
<!DOCTYPE svg PUBLIC "-//W3C//DTD SVG 1.1//EN"
  "http://www.w3.org/Graphics/SVG/1.1/DTD/svg11.dtd">
<!-- Created with matplotlib (http://matplotlib.org/) -->
<svg height="345.6pt" version="1.1" viewBox="0 0 460.8 345.6" width="460.8pt" xmlns="http://www.w3.org/2000/svg" xmlns:xlink="http://www.w3.org/1999/xlink">
 <defs>
  <style type="text/css">
*{stroke-linecap:butt;stroke-linejoin:round;}
  </style>
 </defs>
 <g id="figure_1">
  <g id="patch_1">
   <path d="M 0 345.6 
L 460.8 345.6 
L 460.8 0 
L 0 0 
z
" style="fill:#ffffff;"/>
  </g>
  <g id="axes_1">
   <g id="patch_2">
    <path d="M 57.6 307.584 
L 414.72 307.584 
L 414.72 41.472 
L 57.6 41.472 
z
" style="fill:#ffffff;"/>
   </g>
   <g id="matplotlib.axis_1">
    <g id="xtick_1">
     <g id="line2d_1">
      <defs>
       <path d="M 0 0 
L 0 3.5 
" id="m7f3185ebdd" style="stroke:#000000;stroke-width:0.8;"/>
      </defs>
      <g>
       <use style="stroke:#000000;stroke-width:0.8;" x="73.832727" xlink:href="#m7f3185ebdd" y="307.584"/>
      </g>
     </g>
     <g id="text_1">
      <!-- 0 -->
      <defs>
       <path d="M 31.78125 66.40625 
Q 24.171875 66.40625 20.328125 58.90625 
Q 16.5 51.421875 16.5 36.375 
Q 16.5 21.390625 20.328125 13.890625 
Q 24.171875 6.390625 31.78125 6.390625 
Q 39.453125 6.390625 43.28125 13.890625 
Q 47.125 21.390625 47.125 36.375 
Q 47.125 51.421875 43.28125 58.90625 
Q 39.453125 66.40625 31.78125 66.40625 
z
M 31.78125 74.21875 
Q 44.046875 74.21875 50.515625 64.515625 
Q 56.984375 54.828125 56.984375 36.375 
Q 56.984375 17.96875 50.515625 8.265625 
Q 44.046875 -1.421875 31.78125 -1.421875 
Q 19.53125 -1.421875 13.0625 8.265625 
Q 6.59375 17.96875 6.59375 36.375 
Q 6.59375 54.828125 13.0625 64.515625 
Q 19.53125 74.21875 31.78125 74.21875 
z
" id="DejaVuSans-30"/>
      </defs>
      <g transform="translate(70.651477 322.182437)scale(0.1 -0.1)">
       <use xlink:href="#DejaVuSans-30"/>
      </g>
     </g>
    </g>
    <g id="xtick_2">
     <g id="line2d_2">
      <g>
       <use style="stroke:#000000;stroke-width:0.8;" x="155.077609" xlink:href="#m7f3185ebdd" y="307.584"/>
      </g>
     </g>
     <g id="text_2">
      <!-- 250 -->
      <defs>
       <path d="M 19.1875 8.296875 
L 53.609375 8.296875 
L 53.609375 0 
L 7.328125 0 
L 7.328125 8.296875 
Q 12.9375 14.109375 22.625 23.890625 
Q 32.328125 33.6875 34.8125 36.53125 
Q 39.546875 41.84375 41.421875 45.53125 
Q 43.3125 49.21875 43.3125 52.78125 
Q 43.3125 58.59375 39.234375 62.25 
Q 35.15625 65.921875 28.609375 65.921875 
Q 23.96875 65.921875 18.8125 64.3125 
Q 13.671875 62.703125 7.8125 59.421875 
L 7.8125 69.390625 
Q 13.765625 71.78125 18.9375 73 
Q 24.125 74.21875 28.421875 74.21875 
Q 39.75 74.21875 46.484375 68.546875 
Q 53.21875 62.890625 53.21875 53.421875 
Q 53.21875 48.921875 51.53125 44.890625 
Q 49.859375 40.875 45.40625 35.40625 
Q 44.1875 33.984375 37.640625 27.21875 
Q 31.109375 20.453125 19.1875 8.296875 
z
" id="DejaVuSans-32"/>
       <path d="M 10.796875 72.90625 
L 49.515625 72.90625 
L 49.515625 64.59375 
L 19.828125 64.59375 
L 19.828125 46.734375 
Q 21.96875 47.46875 24.109375 47.828125 
Q 26.265625 48.1875 28.421875 48.1875 
Q 40.625 48.1875 47.75 41.5 
Q 54.890625 34.8125 54.890625 23.390625 
Q 54.890625 11.625 47.5625 5.09375 
Q 40.234375 -1.421875 26.90625 -1.421875 
Q 22.3125 -1.421875 17.546875 -0.640625 
Q 12.796875 0.140625 7.71875 1.703125 
L 7.71875 11.625 
Q 12.109375 9.234375 16.796875 8.0625 
Q 21.484375 6.890625 26.703125 6.890625 
Q 35.15625 6.890625 40.078125 11.328125 
Q 45.015625 15.765625 45.015625 23.390625 
Q 45.015625 31 40.078125 35.4375 
Q 35.15625 39.890625 26.703125 39.890625 
Q 22.75 39.890625 18.8125 39.015625 
Q 14.890625 38.140625 10.796875 36.28125 
z
" id="DejaVuSans-35"/>
      </defs>
      <g transform="translate(145.533859 322.182437)scale(0.1 -0.1)">
       <use xlink:href="#DejaVuSans-32"/>
       <use x="63.623047" xlink:href="#DejaVuSans-35"/>
       <use x="127.246094" xlink:href="#DejaVuSans-30"/>
      </g>
     </g>
    </g>
    <g id="xtick_3">
     <g id="line2d_3">
      <g>
       <use style="stroke:#000000;stroke-width:0.8;" x="236.32249" xlink:href="#m7f3185ebdd" y="307.584"/>
      </g>
     </g>
     <g id="text_3">
      <!-- 500 -->
      <g transform="translate(226.77874 322.182437)scale(0.1 -0.1)">
       <use xlink:href="#DejaVuSans-35"/>
       <use x="63.623047" xlink:href="#DejaVuSans-30"/>
       <use x="127.246094" xlink:href="#DejaVuSans-30"/>
      </g>
     </g>
    </g>
    <g id="xtick_4">
     <g id="line2d_4">
      <g>
       <use style="stroke:#000000;stroke-width:0.8;" x="317.567371" xlink:href="#m7f3185ebdd" y="307.584"/>
      </g>
     </g>
     <g id="text_4">
      <!-- 750 -->
      <defs>
       <path d="M 8.203125 72.90625 
L 55.078125 72.90625 
L 55.078125 68.703125 
L 28.609375 0 
L 18.3125 0 
L 43.21875 64.59375 
L 8.203125 64.59375 
z
" id="DejaVuSans-37"/>
      </defs>
      <g transform="translate(308.023621 322.182437)scale(0.1 -0.1)">
       <use xlink:href="#DejaVuSans-37"/>
       <use x="63.623047" xlink:href="#DejaVuSans-35"/>
       <use x="127.246094" xlink:href="#DejaVuSans-30"/>
      </g>
     </g>
    </g>
    <g id="xtick_5">
     <g id="line2d_5">
      <g>
       <use style="stroke:#000000;stroke-width:0.8;" x="398.812252" xlink:href="#m7f3185ebdd" y="307.584"/>
      </g>
     </g>
     <g id="text_5">
      <!-- 1000 -->
      <defs>
       <path d="M 12.40625 8.296875 
L 28.515625 8.296875 
L 28.515625 63.921875 
L 10.984375 60.40625 
L 10.984375 69.390625 
L 28.421875 72.90625 
L 38.28125 72.90625 
L 38.28125 8.296875 
L 54.390625 8.296875 
L 54.390625 0 
L 12.40625 0 
z
" id="DejaVuSans-31"/>
      </defs>
      <g transform="translate(386.087252 322.182437)scale(0.1 -0.1)">
       <use xlink:href="#DejaVuSans-31"/>
       <use x="63.623047" xlink:href="#DejaVuSans-30"/>
       <use x="127.246094" xlink:href="#DejaVuSans-30"/>
       <use x="190.869141" xlink:href="#DejaVuSans-30"/>
      </g>
     </g>
    </g>
    <g id="text_6">
     <!-- Steps -->
     <defs>
      <path d="M 53.515625 70.515625 
L 53.515625 60.890625 
Q 47.90625 63.578125 42.921875 64.890625 
Q 37.9375 66.21875 33.296875 66.21875 
Q 25.25 66.21875 20.875 63.09375 
Q 16.5 59.96875 16.5 54.203125 
Q 16.5 49.359375 19.40625 46.890625 
Q 22.3125 44.4375 30.421875 42.921875 
L 36.375 41.703125 
Q 47.40625 39.59375 52.65625 34.296875 
Q 57.90625 29 57.90625 20.125 
Q 57.90625 9.515625 50.796875 4.046875 
Q 43.703125 -1.421875 29.984375 -1.421875 
Q 24.8125 -1.421875 18.96875 -0.25 
Q 13.140625 0.921875 6.890625 3.21875 
L 6.890625 13.375 
Q 12.890625 10.015625 18.65625 8.296875 
Q 24.421875 6.59375 29.984375 6.59375 
Q 38.421875 6.59375 43.015625 9.90625 
Q 47.609375 13.234375 47.609375 19.390625 
Q 47.609375 24.75 44.3125 27.78125 
Q 41.015625 30.8125 33.5 32.328125 
L 27.484375 33.5 
Q 16.453125 35.6875 11.515625 40.375 
Q 6.59375 45.0625 6.59375 53.421875 
Q 6.59375 63.09375 13.40625 68.65625 
Q 20.21875 74.21875 32.171875 74.21875 
Q 37.3125 74.21875 42.625 73.28125 
Q 47.953125 72.359375 53.515625 70.515625 
z
" id="DejaVuSans-53"/>
      <path d="M 18.3125 70.21875 
L 18.3125 54.6875 
L 36.8125 54.6875 
L 36.8125 47.703125 
L 18.3125 47.703125 
L 18.3125 18.015625 
Q 18.3125 11.328125 20.140625 9.421875 
Q 21.96875 7.515625 27.59375 7.515625 
L 36.8125 7.515625 
L 36.8125 0 
L 27.59375 0 
Q 17.1875 0 13.234375 3.875 
Q 9.28125 7.765625 9.28125 18.015625 
L 9.28125 47.703125 
L 2.6875 47.703125 
L 2.6875 54.6875 
L 9.28125 54.6875 
L 9.28125 70.21875 
z
" id="DejaVuSans-74"/>
      <path d="M 56.203125 29.59375 
L 56.203125 25.203125 
L 14.890625 25.203125 
Q 15.484375 15.921875 20.484375 11.0625 
Q 25.484375 6.203125 34.421875 6.203125 
Q 39.59375 6.203125 44.453125 7.46875 
Q 49.3125 8.734375 54.109375 11.28125 
L 54.109375 2.78125 
Q 49.265625 0.734375 44.1875 -0.34375 
Q 39.109375 -1.421875 33.890625 -1.421875 
Q 20.796875 -1.421875 13.15625 6.1875 
Q 5.515625 13.8125 5.515625 26.8125 
Q 5.515625 40.234375 12.765625 48.109375 
Q 20.015625 56 32.328125 56 
Q 43.359375 56 49.78125 48.890625 
Q 56.203125 41.796875 56.203125 29.59375 
z
M 47.21875 32.234375 
Q 47.125 39.59375 43.09375 43.984375 
Q 39.0625 48.390625 32.421875 48.390625 
Q 24.90625 48.390625 20.390625 44.140625 
Q 15.875 39.890625 15.1875 32.171875 
z
" id="DejaVuSans-65"/>
      <path d="M 18.109375 8.203125 
L 18.109375 -20.796875 
L 9.078125 -20.796875 
L 9.078125 54.6875 
L 18.109375 54.6875 
L 18.109375 46.390625 
Q 20.953125 51.265625 25.265625 53.625 
Q 29.59375 56 35.59375 56 
Q 45.5625 56 51.78125 48.09375 
Q 58.015625 40.1875 58.015625 27.296875 
Q 58.015625 14.40625 51.78125 6.484375 
Q 45.5625 -1.421875 35.59375 -1.421875 
Q 29.59375 -1.421875 25.265625 0.953125 
Q 20.953125 3.328125 18.109375 8.203125 
z
M 48.6875 27.296875 
Q 48.6875 37.203125 44.609375 42.84375 
Q 40.53125 48.484375 33.40625 48.484375 
Q 26.265625 48.484375 22.1875 42.84375 
Q 18.109375 37.203125 18.109375 27.296875 
Q 18.109375 17.390625 22.1875 11.75 
Q 26.265625 6.109375 33.40625 6.109375 
Q 40.53125 6.109375 44.609375 11.75 
Q 48.6875 17.390625 48.6875 27.296875 
z
" id="DejaVuSans-70"/>
      <path d="M 44.28125 53.078125 
L 44.28125 44.578125 
Q 40.484375 46.53125 36.375 47.5 
Q 32.28125 48.484375 27.875 48.484375 
Q 21.1875 48.484375 17.84375 46.4375 
Q 14.5 44.390625 14.5 40.28125 
Q 14.5 37.15625 16.890625 35.375 
Q 19.28125 33.59375 26.515625 31.984375 
L 29.59375 31.296875 
Q 39.15625 29.25 43.1875 25.515625 
Q 47.21875 21.78125 47.21875 15.09375 
Q 47.21875 7.46875 41.1875 3.015625 
Q 35.15625 -1.421875 24.609375 -1.421875 
Q 20.21875 -1.421875 15.453125 -0.5625 
Q 10.6875 0.296875 5.421875 2 
L 5.421875 11.28125 
Q 10.40625 8.6875 15.234375 7.390625 
Q 20.0625 6.109375 24.8125 6.109375 
Q 31.15625 6.109375 34.5625 8.28125 
Q 37.984375 10.453125 37.984375 14.40625 
Q 37.984375 18.0625 35.515625 20.015625 
Q 33.0625 21.96875 24.703125 23.78125 
L 21.578125 24.515625 
Q 13.234375 26.265625 9.515625 29.90625 
Q 5.8125 33.546875 5.8125 39.890625 
Q 5.8125 47.609375 11.28125 51.796875 
Q 16.75 56 26.8125 56 
Q 31.78125 56 36.171875 55.265625 
Q 40.578125 54.546875 44.28125 53.078125 
z
" id="DejaVuSans-73"/>
     </defs>
     <g transform="translate(222.170156 335.860562)scale(0.1 -0.1)">
      <use xlink:href="#DejaVuSans-53"/>
      <use x="63.476562" xlink:href="#DejaVuSans-74"/>
      <use x="102.685547" xlink:href="#DejaVuSans-65"/>
      <use x="164.208984" xlink:href="#DejaVuSans-70"/>
      <use x="227.685547" xlink:href="#DejaVuSans-73"/>
     </g>
    </g>
   </g>
   <g id="matplotlib.axis_2">
    <g id="ytick_1">
     <g id="line2d_6">
      <defs>
       <path d="M 0 0 
L -3.5 0 
" id="mde4d2239b7" style="stroke:#000000;stroke-width:0.8;"/>
      </defs>
      <g>
       <use style="stroke:#000000;stroke-width:0.8;" x="57.6" xlink:href="#mde4d2239b7" y="296.738574"/>
      </g>
     </g>
     <g id="text_7">
      <!-- 0.0 -->
      <defs>
       <path d="M 10.6875 12.40625 
L 21 12.40625 
L 21 0 
L 10.6875 0 
z
" id="DejaVuSans-2e"/>
      </defs>
      <g transform="translate(34.696875 300.537792)scale(0.1 -0.1)">
       <use xlink:href="#DejaVuSans-30"/>
       <use x="63.623047" xlink:href="#DejaVuSans-2e"/>
       <use x="95.410156" xlink:href="#DejaVuSans-30"/>
      </g>
     </g>
    </g>
    <g id="ytick_2">
     <g id="line2d_7">
      <g>
       <use style="stroke:#000000;stroke-width:0.8;" x="57.6" xlink:href="#mde4d2239b7" y="211.82862"/>
      </g>
     </g>
     <g id="text_8">
      <!-- 0.5 -->
      <g transform="translate(34.696875 215.627839)scale(0.1 -0.1)">
       <use xlink:href="#DejaVuSans-30"/>
       <use x="63.623047" xlink:href="#DejaVuSans-2e"/>
       <use x="95.410156" xlink:href="#DejaVuSans-35"/>
      </g>
     </g>
    </g>
    <g id="ytick_3">
     <g id="line2d_8">
      <g>
       <use style="stroke:#000000;stroke-width:0.8;" x="57.6" xlink:href="#mde4d2239b7" y="126.918667"/>
      </g>
     </g>
     <g id="text_9">
      <!-- 1.0 -->
      <g transform="translate(34.696875 130.717886)scale(0.1 -0.1)">
       <use xlink:href="#DejaVuSans-31"/>
       <use x="63.623047" xlink:href="#DejaVuSans-2e"/>
       <use x="95.410156" xlink:href="#DejaVuSans-30"/>
      </g>
     </g>
    </g>
    <g id="ytick_4">
     <g id="line2d_9">
      <g>
       <use style="stroke:#000000;stroke-width:0.8;" x="57.6" xlink:href="#mde4d2239b7" y="42.008714"/>
      </g>
     </g>
     <g id="text_10">
      <!-- 1.5 -->
      <g transform="translate(34.696875 45.807933)scale(0.1 -0.1)">
       <use xlink:href="#DejaVuSans-31"/>
       <use x="63.623047" xlink:href="#DejaVuSans-2e"/>
       <use x="95.410156" xlink:href="#DejaVuSans-35"/>
      </g>
     </g>
    </g>
    <g id="text_11">
     <!-- Average reward -->
     <defs>
      <path d="M 34.1875 63.1875 
L 20.796875 26.90625 
L 47.609375 26.90625 
z
M 28.609375 72.90625 
L 39.796875 72.90625 
L 67.578125 0 
L 57.328125 0 
L 50.6875 18.703125 
L 17.828125 18.703125 
L 11.1875 0 
L 0.78125 0 
z
" id="DejaVuSans-41"/>
      <path d="M 2.984375 54.6875 
L 12.5 54.6875 
L 29.59375 8.796875 
L 46.6875 54.6875 
L 56.203125 54.6875 
L 35.6875 0 
L 23.484375 0 
z
" id="DejaVuSans-76"/>
      <path d="M 41.109375 46.296875 
Q 39.59375 47.171875 37.8125 47.578125 
Q 36.03125 48 33.890625 48 
Q 26.265625 48 22.1875 43.046875 
Q 18.109375 38.09375 18.109375 28.8125 
L 18.109375 0 
L 9.078125 0 
L 9.078125 54.6875 
L 18.109375 54.6875 
L 18.109375 46.1875 
Q 20.953125 51.171875 25.484375 53.578125 
Q 30.03125 56 36.53125 56 
Q 37.453125 56 38.578125 55.875 
Q 39.703125 55.765625 41.0625 55.515625 
z
" id="DejaVuSans-72"/>
      <path d="M 34.28125 27.484375 
Q 23.390625 27.484375 19.1875 25 
Q 14.984375 22.515625 14.984375 16.5 
Q 14.984375 11.71875 18.140625 8.90625 
Q 21.296875 6.109375 26.703125 6.109375 
Q 34.1875 6.109375 38.703125 11.40625 
Q 43.21875 16.703125 43.21875 25.484375 
L 43.21875 27.484375 
z
M 52.203125 31.203125 
L 52.203125 0 
L 43.21875 0 
L 43.21875 8.296875 
Q 40.140625 3.328125 35.546875 0.953125 
Q 30.953125 -1.421875 24.3125 -1.421875 
Q 15.921875 -1.421875 10.953125 3.296875 
Q 6 8.015625 6 15.921875 
Q 6 25.140625 12.171875 29.828125 
Q 18.359375 34.515625 30.609375 34.515625 
L 43.21875 34.515625 
L 43.21875 35.40625 
Q 43.21875 41.609375 39.140625 45 
Q 35.0625 48.390625 27.6875 48.390625 
Q 23 48.390625 18.546875 47.265625 
Q 14.109375 46.140625 10.015625 43.890625 
L 10.015625 52.203125 
Q 14.9375 54.109375 19.578125 55.046875 
Q 24.21875 56 28.609375 56 
Q 40.484375 56 46.34375 49.84375 
Q 52.203125 43.703125 52.203125 31.203125 
z
" id="DejaVuSans-61"/>
      <path d="M 45.40625 27.984375 
Q 45.40625 37.75 41.375 43.109375 
Q 37.359375 48.484375 30.078125 48.484375 
Q 22.859375 48.484375 18.828125 43.109375 
Q 14.796875 37.75 14.796875 27.984375 
Q 14.796875 18.265625 18.828125 12.890625 
Q 22.859375 7.515625 30.078125 7.515625 
Q 37.359375 7.515625 41.375 12.890625 
Q 45.40625 18.265625 45.40625 27.984375 
z
M 54.390625 6.78125 
Q 54.390625 -7.171875 48.1875 -13.984375 
Q 42 -20.796875 29.203125 -20.796875 
Q 24.46875 -20.796875 20.265625 -20.09375 
Q 16.0625 -19.390625 12.109375 -17.921875 
L 12.109375 -9.1875 
Q 16.0625 -11.328125 19.921875 -12.34375 
Q 23.78125 -13.375 27.78125 -13.375 
Q 36.625 -13.375 41.015625 -8.765625 
Q 45.40625 -4.15625 45.40625 5.171875 
L 45.40625 9.625 
Q 42.625 4.78125 38.28125 2.390625 
Q 33.9375 0 27.875 0 
Q 17.828125 0 11.671875 7.65625 
Q 5.515625 15.328125 5.515625 27.984375 
Q 5.515625 40.671875 11.671875 48.328125 
Q 17.828125 56 27.875 56 
Q 33.9375 56 38.28125 53.609375 
Q 42.625 51.21875 45.40625 46.390625 
L 45.40625 54.6875 
L 54.390625 54.6875 
z
" id="DejaVuSans-67"/>
      <path id="DejaVuSans-20"/>
      <path d="M 4.203125 54.6875 
L 13.1875 54.6875 
L 24.421875 12.015625 
L 35.59375 54.6875 
L 46.1875 54.6875 
L 57.421875 12.015625 
L 68.609375 54.6875 
L 77.59375 54.6875 
L 63.28125 0 
L 52.6875 0 
L 40.921875 44.828125 
L 29.109375 0 
L 18.5 0 
z
" id="DejaVuSans-77"/>
      <path d="M 45.40625 46.390625 
L 45.40625 75.984375 
L 54.390625 75.984375 
L 54.390625 0 
L 45.40625 0 
L 45.40625 8.203125 
Q 42.578125 3.328125 38.25 0.953125 
Q 33.9375 -1.421875 27.875 -1.421875 
Q 17.96875 -1.421875 11.734375 6.484375 
Q 5.515625 14.40625 5.515625 27.296875 
Q 5.515625 40.1875 11.734375 48.09375 
Q 17.96875 56 27.875 56 
Q 33.9375 56 38.25 53.625 
Q 42.578125 51.265625 45.40625 46.390625 
z
M 14.796875 27.296875 
Q 14.796875 17.390625 18.875 11.75 
Q 22.953125 6.109375 30.078125 6.109375 
Q 37.203125 6.109375 41.296875 11.75 
Q 45.40625 17.390625 45.40625 27.296875 
Q 45.40625 37.203125 41.296875 42.84375 
Q 37.203125 48.484375 30.078125 48.484375 
Q 22.953125 48.484375 18.875 42.84375 
Q 14.796875 37.203125 14.796875 27.296875 
z
" id="DejaVuSans-64"/>
     </defs>
     <g transform="translate(28.617187 214.452219)rotate(-90)scale(0.1 -0.1)">
      <use xlink:href="#DejaVuSans-41"/>
      <use x="68.330078" xlink:href="#DejaVuSans-76"/>
      <use x="127.509766" xlink:href="#DejaVuSans-65"/>
      <use x="189.033203" xlink:href="#DejaVuSans-72"/>
      <use x="230.146484" xlink:href="#DejaVuSans-61"/>
      <use x="291.425781" xlink:href="#DejaVuSans-67"/>
      <use x="354.902344" xlink:href="#DejaVuSans-65"/>
      <use x="416.425781" xlink:href="#DejaVuSans-20"/>
      <use x="448.212891" xlink:href="#DejaVuSans-72"/>
      <use x="489.294922" xlink:href="#DejaVuSans-65"/>
      <use x="550.818359" xlink:href="#DejaVuSans-77"/>
      <use x="632.605469" xlink:href="#DejaVuSans-61"/>
      <use x="693.884766" xlink:href="#DejaVuSans-72"/>
      <use x="734.982422" xlink:href="#DejaVuSans-64"/>
     </g>
    </g>
   </g>
   <g id="line2d_10">
    <path clip-path="url(#pad7a68a395)" d="M 73.832727 295.488 
L 74.157707 237.278312 
L 74.482686 218.796324 
L 74.807666 208.36709 
L 75.132645 188.308355 
L 75.457625 184.364134 
L 76.107584 160.334254 
L 76.432563 157.317345 
L 76.757543 149.027675 
L 77.082523 153.725564 
L 77.407502 146.145886 
L 77.732482 141.560352 
L 78.057461 146.387924 
L 78.70742 136.769613 
L 79.0324 134.984376 
L 79.357379 134.496261 
L 79.682359 132.408587 
L 80.007338 133.196204 
L 80.332318 134.95562 
L 80.657297 135.035837 
L 80.982277 128.355392 
L 81.307256 136.911778 
L 81.632236 133.446806 
L 81.957215 133.020273 
L 82.282195 128.172861 
L 82.607174 130.681541 
L 82.932154 131.19064 
L 83.257133 130.215481 
L 83.907093 129.99395 
L 84.232072 124.689062 
L 84.557052 131.284694 
L 84.882031 128.659479 
L 85.207011 121.504117 
L 85.53199 132.919943 
L 85.85697 129.722375 
L 86.181949 120.607505 
L 86.506929 128.493558 
L 86.831908 124.580736 
L 87.156888 130.445991 
L 87.481867 126.696853 
L 87.806847 120.156952 
L 88.131826 122.206102 
L 88.456806 125.566705 
L 88.781785 124.374772 
L 89.106765 120.353927 
L 89.431744 122.933351 
L 89.756724 130.409045 
L 90.081704 119.772132 
L 90.406683 124.394348 
L 91.056642 114.919983 
L 91.381622 131.104421 
L 92.031581 119.398345 
L 92.35656 120.370467 
L 92.68154 127.636412 
L 93.006519 118.948946 
L 93.331499 116.920182 
L 93.656478 116.885362 
L 93.981458 120.018543 
L 94.306437 121.918757 
L 94.631417 126.444186 
L 94.956396 125.646689 
L 95.281376 127.155078 
L 95.606355 123.942743 
L 95.931335 123.834335 
L 96.256314 130.61343 
L 96.581294 122.047388 
L 96.906274 125.384548 
L 97.231253 124.938753 
L 97.556233 116.369907 
L 97.881212 123.671917 
L 98.206192 113.760765 
L 98.531171 116.872406 
L 98.856151 125.780301 
L 99.18113 116.05422 
L 99.50611 126.043555 
L 99.831089 120.433487 
L 100.156069 121.859887 
L 100.481048 112.897799 
L 100.806028 118.575827 
L 101.131007 119.785473 
L 101.455987 117.168132 
L 101.780966 122.417005 
L 102.105946 121.031761 
L 102.430925 125.432385 
L 102.755905 119.024699 
L 103.080885 122.06081 
L 103.405864 116.945366 
L 103.730844 122.303719 
L 104.055823 123.089433 
L 104.380803 121.60388 
L 104.705782 115.18842 
L 105.355741 122.92333 
L 105.680721 121.714129 
L 106.0057 124.478665 
L 106.33068 123.298535 
L 106.980639 129.146744 
L 107.305618 120.960239 
L 107.630598 124.955535 
L 108.280557 121.359129 
L 108.605536 121.003257 
L 108.930516 123.607784 
L 109.255495 121.480634 
L 109.580475 116.796228 
L 109.905455 123.522455 
L 110.230434 124.486621 
L 110.555414 119.116587 
L 110.880393 119.621496 
L 111.205373 117.024905 
L 111.530352 117.074037 
L 111.855332 125.411088 
L 112.180311 121.481605 
L 112.505291 112.944381 
L 113.480229 126.733292 
L 113.805209 114.116758 
L 114.130188 121.55914 
L 114.455168 124.067608 
L 114.780147 122.328497 
L 115.105127 124.790283 
L 115.430106 120.226997 
L 115.755086 117.80406 
L 116.080066 121.988781 
L 116.405045 120.86331 
L 116.730025 124.648898 
L 117.055004 124.313716 
L 117.379984 120.752919 
L 117.704963 126.552451 
L 118.029943 120.673562 
L 118.354922 118.785819 
L 118.679902 120.630381 
L 119.004881 126.789895 
L 119.329861 120.100087 
L 119.65484 124.220998 
L 119.97982 123.164842 
L 120.304799 124.52887 
L 120.954758 118.745411 
L 121.279738 121.592705 
L 121.604717 117.91927 
L 121.929697 123.277096 
L 122.254676 120.54155 
L 122.579656 120.444236 
L 122.904636 124.181704 
L 123.229615 125.368333 
L 123.554595 114.225711 
L 123.879574 125.341105 
L 124.204554 120.308095 
L 124.529533 129.15963 
L 124.854513 116.110074 
L 125.179492 116.752601 
L 125.504472 125.802346 
L 125.829451 117.003325 
L 126.154431 121.433708 
L 126.47941 122.246873 
L 126.80439 122.532558 
L 127.129369 126.766735 
L 127.454349 122.279669 
L 127.779328 119.754661 
L 128.429287 128.829317 
L 128.754267 121.027267 
L 129.079247 124.897556 
L 129.404226 117.150054 
L 129.729206 116.8935 
L 130.054185 120.872116 
L 130.379165 117.717092 
L 130.704144 122.630843 
L 131.029124 119.187887 
L 131.354103 122.894361 
L 132.004062 124.397385 
L 132.329042 115.366406 
L 132.654021 121.455045 
L 132.979001 115.297475 
L 133.30398 122.201891 
L 133.62896 119.24121 
L 133.953939 124.410807 
L 134.278919 115.968162 
L 134.603898 116.387135 
L 134.928878 125.568082 
L 135.253857 123.391941 
L 135.578837 116.505461 
L 135.903817 125.344627 
L 136.228796 119.298987 
L 136.553776 120.607323 
L 136.878755 115.149976 
L 137.203735 120.693603 
L 137.528714 119.83001 
L 137.853694 120.946574 
L 138.178673 116.779141 
L 138.503653 118.451507 
L 138.828632 118.098936 
L 139.153612 116.253442 
L 139.478591 121.179563 
L 139.803571 118.263257 
L 140.12855 124.892677 
L 140.778509 119.8275 
L 141.428468 127.316069 
L 141.753448 117.167322 
L 142.078428 126.820463 
L 142.403407 118.287328 
L 142.728387 122.675259 
L 143.053366 123.902518 
L 143.378346 121.310502 
L 143.703325 123.749776 
L 144.028305 122.03848 
L 144.353284 127.522671 
L 145.003243 112.35141 
L 145.328223 114.777039 
L 145.653202 125.057748 
L 145.978182 113.859273 
L 146.303161 118.517665 
L 146.628141 118.667796 
L 146.95312 118.336744 
L 147.2781 116.446672 
L 147.603079 125.792568 
L 147.928059 119.324454 
L 148.253038 120.843936 
L 148.578018 114.617516 
L 149.227977 121.956492 
L 149.552957 120.004777 
L 150.202916 124.936344 
L 150.527895 120.347429 
L 150.852875 122.635459 
L 151.177854 117.826855 
L 151.502834 125.165122 
L 151.827813 115.953222 
L 152.152793 122.128789 
L 152.477772 121.028421 
L 152.802752 122.084333 
L 153.127731 124.007564 
L 153.452711 123.050686 
L 153.77769 124.319081 
L 154.10267 119.380773 
L 154.427649 122.837657 
L 154.752629 118.431931 
L 155.077609 118.602488 
L 155.402588 118.530095 
L 155.727568 116.918846 
L 156.052547 117.674235 
L 156.377527 123.868265 
L 156.702506 122.451238 
L 157.027486 112.740968 
L 157.352465 121.331495 
L 157.677445 126.756006 
L 158.002424 119.205904 
L 158.327404 121.743625 
L 158.652383 119.321316 
L 158.977363 119.221047 
L 159.302342 114.98604 
L 159.627322 120.320687 
L 159.952301 121.753646 
L 160.277281 119.263721 
L 160.60226 124.253004 
L 160.92724 124.076556 
L 161.252219 115.188764 
L 161.577199 125.89053 
L 161.902179 118.476428 
L 162.227158 119.215237 
L 162.552138 112.524153 
L 163.202097 121.018197 
L 163.527076 120.279875 
L 163.852056 109.013622 
L 164.177035 115.40319 
L 164.502015 118.712677 
L 164.826994 127.233797 
L 165.151974 116.390839 
L 165.476953 120.541509 
L 165.801933 122.226467 
L 166.126912 115.320472 
L 166.451892 120.30524 
L 166.776871 118.690752 
L 167.101851 122.54847 
L 167.42683 118.667998 
L 167.75181 118.869143 
L 168.07679 122.207458 
L 168.726749 114.007662 
L 169.051728 126.209557 
L 169.376708 117.155824 
L 169.701687 120.972972 
L 170.026667 119.038425 
L 170.676626 125.793459 
L 171.001605 122.073644 
L 171.326585 129.653545 
L 171.651564 119.818005 
L 171.976544 124.978917 
L 172.301523 133.166364 
L 172.626503 126.149351 
L 172.951482 125.460707 
L 173.276462 114.602596 
L 173.601441 121.773444 
L 173.926421 119.955402 
L 174.57638 125.622984 
L 174.90136 117.952308 
L 175.226339 117.979698 
L 175.876298 121.588292 
L 176.201278 110.402652 
L 176.526257 121.059172 
L 176.851237 114.779003 
L 177.176216 114.805462 
L 177.501196 116.031506 
L 177.826175 125.222231 
L 178.151155 115.818437 
L 178.476134 116.707234 
L 178.801114 121.959144 
L 179.451073 115.110521 
L 179.776052 120.397695 
L 180.101032 121.814621 
L 180.426011 117.799809 
L 180.750991 115.654379 
L 181.075971 117.580748 
L 181.40095 121.331354 
L 181.72593 119.199203 
L 182.050909 119.105979 
L 182.700868 122.641795 
L 183.025848 122.121582 
L 183.350827 124.418844 
L 183.675807 121.934466 
L 184.325766 119.932303 
L 184.650745 121.857518 
L 184.975725 121.521345 
L 185.300704 129.664518 
L 185.950663 115.122465 
L 186.275643 120.986981 
L 186.600622 117.304739 
L 186.925602 115.487506 
L 187.250581 125.244257 
L 187.575561 126.239882 
L 187.900541 124.965779 
L 188.22552 117.465559 
L 188.5505 122.051335 
L 189.200459 126.502853 
L 189.525438 118.396079 
L 189.850418 118.323585 
L 190.175397 111.781863 
L 190.500377 125.498745 
L 190.825356 116.588563 
L 191.475315 121.304226 
L 191.800295 114.950248 
L 192.125274 117.537709 
L 192.450254 118.843029 
L 192.775233 121.204646 
L 193.100213 117.076204 
L 193.425192 124.489738 
L 193.750172 120.384516 
L 194.075152 128.660319 
L 194.400131 122.365463 
L 194.725111 121.150088 
L 195.05009 122.78644 
L 195.37507 121.275318 
L 195.700049 122.421681 
L 196.025029 128.723571 
L 196.674988 120.749254 
L 196.999967 121.433445 
L 197.324947 118.281072 
L 197.974906 123.244665 
L 198.299885 122.970782 
L 198.624865 121.347508 
L 198.949844 123.732791 
L 199.274824 118.579896 
L 199.599803 117.367051 
L 199.924783 124.653938 
L 200.249762 114.825241 
L 200.574742 118.070027 
L 200.899722 114.29608 
L 201.224701 113.500547 
L 201.549681 124.201968 
L 201.87466 116.7823 
L 202.19964 120.607708 
L 202.524619 118.61093 
L 202.849599 123.942297 
L 203.174578 121.388401 
L 203.499558 120.061764 
L 203.824537 121.956897 
L 204.149517 119.820576 
L 204.474496 114.546803 
L 204.799476 123.51045 
L 205.124455 119.781505 
L 205.449435 119.11021 
L 205.774414 114.955754 
L 206.099394 121.853449 
L 206.424373 119.019557 
L 206.749353 125.542189 
L 207.074333 124.03372 
L 207.399312 120.179545 
L 207.724292 121.978942 
L 208.049271 119.568132 
L 208.374251 120.957688 
L 208.69923 118.93931 
L 209.02421 119.642651 
L 209.349189 117.935262 
L 209.674169 113.258164 
L 209.999148 116.15868 
L 210.324128 121.274407 
L 210.649107 120.424519 
L 210.974087 120.589366 
L 211.299066 122.254384 
L 211.624046 122.834985 
L 211.949025 116.610589 
L 212.274005 113.231766 
L 212.598984 122.288333 
L 212.923964 113.967356 
L 213.248943 116.602552 
L 213.573923 113.599338 
L 214.223882 129.763947 
L 214.548862 116.293202 
L 214.873841 115.66772 
L 215.198821 117.287471 
L 215.5238 117.082155 
L 215.84878 113.695275 
L 216.173759 115.110541 
L 216.498739 127.1569 
L 216.823718 113.090118 
L 217.148698 118.88961 
L 217.473677 122.630459 
L 217.798657 118.510033 
L 218.123636 119.906715 
L 218.448616 118.536492 
L 218.773595 117.675065 
L 219.098575 111.622177 
L 219.423554 119.43031 
L 219.748534 111.005157 
L 220.073514 117.677352 
L 220.398493 121.006456 
L 220.723473 122.264688 
L 221.048452 120.414194 
L 221.373432 126.733596 
L 221.698411 121.250013 
L 222.023391 112.622985 
L 222.34837 117.91105 
L 222.67335 117.7576 
L 222.998329 123.816419 
L 223.323309 122.513185 
L 223.648288 122.284446 
L 223.973268 123.076072 
L 224.298247 126.789388 
L 224.623227 121.730527 
L 224.948206 120.224102 
L 225.273186 122.408786 
L 225.598165 122.868671 
L 225.923145 121.878795 
L 226.248124 122.270194 
L 226.573104 118.265322 
L 226.898084 112.490892 
L 227.223063 117.472644 
L 227.548043 113.254156 
L 227.873022 127.859715 
L 228.198002 117.336199 
L 228.522981 114.418233 
L 228.847961 121.752634 
L 229.17294 113.969482 
L 229.49792 124.689507 
L 229.822899 113.769105 
L 230.147879 119.712149 
L 230.472858 121.494724 
L 230.797838 121.791563 
L 231.122817 117.242347 
L 231.447797 120.416583 
L 231.772776 121.419881 
L 232.097756 118.275586 
L 232.422735 123.891606 
L 232.747715 125.154677 
L 233.072695 122.449476 
L 233.397674 123.51049 
L 233.722654 116.808617 
L 234.047633 121.713704 
L 234.697592 115.335493 
L 235.022572 120.289308 
L 235.347551 118.653766 
L 235.99751 116.407925 
L 236.32249 125.83585 
L 236.647469 121.018643 
L 236.972449 118.38539 
L 237.622408 120.848066 
L 237.947387 117.817968 
L 238.272367 119.371744 
L 238.597346 118.602508 
L 238.922326 116.00114 
L 239.247305 114.96116 
L 239.572285 121.431562 
L 240.222244 120.078587 
L 240.872203 117.975366 
L 241.197183 118.101041 
L 241.522162 120.311658 
L 241.847142 128.488487 
L 242.172121 119.453935 
L 242.497101 116.960448 
L 242.82208 121.283942 
L 243.14706 121.360748 
L 243.472039 116.582996 
L 243.797019 119.928882 
L 244.121998 116.721365 
L 244.446978 115.725557 
L 244.771957 119.57044 
L 245.096937 121.793182 
L 245.421916 125.182998 
L 245.746896 123.37781 
L 246.071876 116.748188 
L 246.396855 114.314077 
L 246.721835 122.185331 
L 247.046814 117.799566 
L 247.371794 117.960325 
L 247.696773 119.466992 
L 248.021753 117.086609 
L 248.346732 115.661282 
L 248.671712 120.565175 
L 248.996691 121.867377 
L 249.321671 115.090439 
L 249.64665 119.868656 
L 249.97163 118.050674 
L 250.296609 117.300893 
L 250.621589 125.211805 
L 250.946568 117.501472 
L 251.271548 118.630992 
L 251.596527 116.244333 
L 251.921507 118.278582 
L 252.246486 122.378743 
L 252.571466 115.815157 
L 252.896446 119.632812 
L 253.221425 115.010555 
L 253.546405 117.714966 
L 253.871384 118.782134 
L 254.196364 118.01802 
L 254.521343 124.144354 
L 254.846323 119.381218 
L 255.171302 118.91368 
L 255.496282 120.220377 
L 255.821261 115.405234 
L 256.146241 123.766032 
L 256.47122 121.061338 
L 256.7962 124.29248 
L 257.121179 121.917097 
L 257.446159 128.688205 
L 258.096118 118.55704 
L 258.421097 117.647573 
L 258.746077 117.375614 
L 259.396036 122.628212 
L 259.721016 118.607893 
L 260.045995 120.439277 
L 260.370975 114.32764 
L 260.695954 123.821096 
L 261.020934 114.34501 
L 261.345913 120.043646 
L 261.670893 119.114765 
L 261.995872 123.907761 
L 262.320852 119.301072 
L 262.645831 121.375081 
L 262.970811 119.991497 
L 263.29579 122.004491 
L 263.62077 125.064327 
L 263.945749 116.460135 
L 264.270729 121.858126 
L 264.595708 121.940762 
L 264.920688 119.12426 
L 265.245667 119.450129 
L 265.570647 120.34008 
L 265.895627 119.505315 
L 266.220606 122.538571 
L 266.545586 120.195355 
L 266.870565 121.405326 
L 267.195545 120.896692 
L 267.520524 124.389733 
L 267.845504 118.334638 
L 268.170483 114.551824 
L 268.495463 121.189078 
L 268.820442 124.487674 
L 269.470401 120.123084 
L 269.795381 119.542827 
L 270.12036 118.631741 
L 270.44534 116.822221 
L 270.770319 117.472907 
L 271.095299 118.785232 
L 271.420278 118.957468 
L 271.745258 113.329464 
L 272.070238 125.307884 
L 272.395217 116.975773 
L 272.720197 125.360843 
L 273.370156 116.001788 
L 273.695135 119.267689 
L 274.020115 118.90868 
L 274.345094 119.582384 
L 274.670074 117.667028 
L 274.995053 121.286999 
L 275.320033 122.181991 
L 275.645012 119.31008 
L 275.969992 119.08203 
L 276.94493 113.289603 
L 277.26991 125.842632 
L 277.919869 114.40309 
L 278.244848 120.247848 
L 278.569828 119.966455 
L 278.894808 116.866029 
L 279.544767 121.571287 
L 279.869746 120.806505 
L 280.519705 112.517837 
L 280.844685 114.778214 
L 281.169664 120.357511 
L 281.819623 122.70603 
L 282.144603 116.874876 
L 282.469582 123.668961 
L 282.794562 117.37944 
L 283.119541 120.651718 
L 283.444521 120.415085 
L 283.7695 116.214999 
L 284.09448 124.784553 
L 284.419459 116.322374 
L 284.744439 124.779816 
L 285.069419 119.353848 
L 285.719378 114.467102 
L 286.044357 117.957268 
L 286.369337 118.085858 
L 286.694316 113.828805 
L 287.019296 123.434737 
L 287.344275 121.024048 
L 287.669255 116.318244 
L 288.319214 122.955174 
L 288.644193 120.441746 
L 288.969173 116.417035 
L 289.294152 115.780479 
L 289.619132 116.212549 
L 289.944111 119.135981 
L 290.269091 116.332516 
L 291.244029 123.853405 
L 291.569009 119.117114 
L 291.893989 122.381092 
L 292.543948 114.95126 
L 292.868927 117.58508 
L 293.193907 121.613921 
L 293.518886 120.297507 
L 293.843866 112.86553 
L 294.168845 118.557303 
L 294.493825 116.781024 
L 294.818804 116.034685 
L 295.143784 118.582548 
L 295.468763 124.716088 
L 295.793743 116.2566 
L 296.118722 115.700515 
L 296.443702 119.311012 
L 296.768681 115.317193 
L 297.093661 122.517152 
L 297.41864 118.219024 
L 297.74362 121.31279 
L 298.0686 122.860695 
L 298.393579 123.045564 
L 298.718559 118.322229 
L 299.043538 122.857193 
L 299.368518 112.886118 
L 299.693497 117.083613 
L 300.018477 117.252611 
L 300.343456 118.608217 
L 300.668436 121.718907 
L 301.318395 115.320857 
L 301.643374 126.870183 
L 301.968354 115.265874 
L 302.293333 115.025475 
L 302.618313 121.449296 
L 302.943292 116.21925 
L 303.268272 120.38563 
L 303.918231 126.411471 
L 304.24321 117.123352 
L 304.56819 125.155891 
L 305.218149 116.369846 
L 305.543129 116.065253 
L 305.868108 112.175853 
L 306.193088 119.583052 
L 306.518067 114.543827 
L 306.843047 116.349096 
L 307.168026 120.938436 
L 307.493006 122.955296 
L 307.817985 120.897381 
L 308.467944 113.000113 
L 308.792924 112.627135 
L 309.442883 124.591485 
L 309.767862 117.74766 
L 310.092842 119.452174 
L 310.417821 116.067217 
L 310.742801 118.489202 
L 311.067781 127.318418 
L 311.39276 122.951874 
L 311.71774 129.76752 
L 312.042719 120.185132 
L 312.367699 126.050681 
L 312.692678 122.930456 
L 313.017658 115.565426 
L 313.342637 119.258255 
L 313.667617 115.636442 
L 313.992596 115.768555 
L 314.317576 114.190689 
L 314.642555 125.188788 
L 314.967535 116.451308 
L 315.292514 117.403935 
L 315.617494 121.212662 
L 315.942473 118.927325 
L 316.267453 122.377347 
L 316.917412 118.070574 
L 317.242391 118.950525 
L 317.567371 116.867628 
L 317.892351 119.570055 
L 318.21733 114.278812 
L 318.54231 119.003585 
L 318.867289 125.843867 
L 319.192269 119.792214 
L 319.517248 120.080328 
L 319.842228 122.018925 
L 320.167207 118.918073 
L 320.492187 121.305988 
L 320.817166 120.072231 
L 321.142146 115.662456 
L 321.467125 121.541528 
L 321.792105 122.842556 
L 322.117084 123.449515 
L 322.442064 112.145204 
L 322.767043 131.337896 
L 323.092023 119.721259 
L 323.417002 121.341678 
L 324.066962 112.738397 
L 324.391941 119.701217 
L 325.0419 121.454438 
L 325.36688 123.777591 
L 325.691859 116.911538 
L 326.016839 123.413238 
L 326.341818 119.016014 
L 326.666798 117.087682 
L 326.991777 113.574114 
L 327.316757 116.958525 
L 327.641736 118.509932 
L 327.966716 117.088573 
L 328.291695 114.89067 
L 328.616675 117.12734 
L 328.941654 122.149033 
L 329.266634 114.808033 
L 329.591613 117.606761 
L 329.916593 117.334336 
L 330.241572 120.014474 
L 330.566552 120.187237 
L 330.891532 124.94436 
L 331.216511 113.484777 
L 331.541491 116.441935 
L 331.86647 114.206682 
L 332.19145 121.795774 
L 332.841409 118.730451 
L 333.166388 120.14183 
L 333.491368 116.925425 
L 334.141327 127.109681 
L 334.466306 117.68128 
L 334.791286 118.503555 
L 335.116265 124.351572 
L 335.441245 112.530389 
L 335.766224 117.241821 
L 336.091204 118.756789 
L 336.416183 119.705164 
L 336.741163 123.852332 
L 337.066143 117.980265 
L 337.391122 117.228763 
L 338.041081 115.169755 
L 338.366061 121.409638 
L 338.69104 118.78347 
L 339.01602 122.905394 
L 339.340999 117.410373 
L 339.665979 119.60692 
L 339.990958 115.323205 
L 340.315938 121.322507 
L 340.640917 119.654838 
L 340.965897 113.126942 
L 341.290876 121.670868 
L 341.615856 121.498185 
L 341.940835 117.783351 
L 342.265815 119.05464 
L 342.590794 124.167877 
L 342.915774 122.966693 
L 343.240753 114.885264 
L 343.565733 114.630594 
L 343.890713 119.366845 
L 344.215692 119.210479 
L 344.540672 116.400354 
L 344.865651 118.042151 
L 345.190631 129.984071 
L 345.51561 114.060459 
L 345.84059 121.702489 
L 346.165569 121.715303 
L 346.490549 124.739085 
L 346.815528 123.967521 
L 347.140508 117.199612 
L 347.465487 113.700336 
L 347.790467 122.888935 
L 348.115446 123.16709 
L 348.765405 119.162521 
L 349.090385 112.961973 
L 349.740344 121.20001 
L 350.065324 116.236964 
L 350.390303 122.320461 
L 350.715283 122.339612 
L 351.040262 122.127393 
L 351.365242 119.410997 
L 351.690221 126.055904 
L 352.015201 117.076345 
L 352.34018 124.588327 
L 352.66516 127.994399 
L 352.990139 119.892483 
L 353.315119 126.001832 
L 353.640098 124.700723 
L 353.965078 111.804516 
L 354.290057 121.089477 
L 354.615037 115.329704 
L 355.264996 119.688544 
L 355.589975 124.454919 
L 355.914955 117.374946 
L 356.239934 124.777488 
L 356.564914 123.584402 
L 356.889894 121.091137 
L 357.214873 120.502114 
L 357.539853 121.97208 
L 357.864832 110.532234 
L 358.189812 121.557339 
L 358.514791 118.614574 
L 358.839771 116.92 
L 359.16475 120.267465 
L 359.48973 119.747981 
L 359.814709 118.617712 
L 360.139689 124.036959 
L 360.464668 119.742495 
L 360.789648 117.515865 
L 361.439607 114.694605 
L 362.089566 127.130522 
L 362.414545 111.630882 
L 362.739525 124.619766 
L 363.064505 113.243447 
L 363.389484 116.175057 
L 363.714464 120.858512 
L 364.039443 119.393506 
L 364.364423 115.848236 
L 364.689402 121.980299 
L 365.014382 125.654828 
L 365.339361 118.049156 
L 365.664341 121.545698 
L 365.98932 119.387231 
L 366.3143 123.379106 
L 366.639279 118.413631 
L 366.964259 118.833736 
L 367.289238 117.948725 
L 367.614218 113.147429 
L 367.939197 122.781662 
L 368.264177 118.689052 
L 368.589156 120.916896 
L 368.914136 120.322083 
L 369.239115 120.597444 
L 369.564095 115.533683 
L 369.889075 126.245146 
L 370.214054 113.334748 
L 371.513972 124.667623 
L 371.838952 119.288561 
L 372.488911 120.918394 
L 372.81389 123.039957 
L 373.13887 119.845112 
L 373.463849 119.104927 
L 373.788829 113.207007 
L 374.113808 124.646853 
L 374.438788 116.871191 
L 374.763767 120.364778 
L 375.088747 112.150913 
L 375.413726 122.231144 
L 375.738706 121.124155 
L 376.388665 116.153133 
L 376.713645 120.754882 
L 377.038624 116.631866 
L 377.363604 120.862136 
L 377.688583 116.32709 
L 378.013563 115.179249 
L 378.338542 117.660955 
L 378.663522 110.60483 
L 378.988501 121.797414 
L 379.313481 116.730697 
L 379.63846 122.245942 
L 379.96344 120.011579 
L 380.288419 125.940148 
L 380.613399 119.10517 
L 380.938378 119.939065 
L 381.588337 115.862124 
L 381.913317 112.386028 
L 382.238296 121.43138 
L 382.563276 119.286051 
L 382.888256 121.606673 
L 383.213235 109.435975 
L 383.538215 113.124594 
L 383.863194 127.245407 
L 384.188174 119.815009 
L 384.513153 117.500216 
L 384.838133 125.220713 
L 385.163112 115.999257 
L 385.488092 112.668231 
L 385.813071 115.186274 
L 386.138051 124.734186 
L 386.46303 117.219329 
L 386.78801 123.627825 
L 387.112989 122.930071 
L 387.437969 120.807881 
L 387.762948 116.773615 
L 388.087928 125.849313 
L 388.412907 126.907857 
L 389.062867 115.597877 
L 389.387846 118.286194 
L 389.712826 123.84883 
L 390.037805 111.745869 
L 390.362785 121.22906 
L 390.687764 122.338498 
L 391.012744 111.488384 
L 391.337723 116.357396 
L 391.662703 124.287277 
L 391.987682 117.928622 
L 392.312662 120.098487 
L 392.962621 129.079706 
L 393.2876 120.40804 
L 393.61258 120.719475 
L 393.937559 131.52067 
L 394.262539 119.863372 
L 394.587518 117.738631 
L 394.912498 116.35859 
L 395.237477 127.810441 
L 395.562457 115.101613 
L 395.887437 117.441853 
L 396.212416 115.8502 
L 396.537396 116.296502 
L 396.862375 117.654983 
L 397.187355 121.129155 
L 397.512334 122.47215 
L 398.487273 117.504205 
L 398.487273 117.504205 
" style="fill:none;stroke:#1f77b4;stroke-linecap:square;stroke-width:1.5;"/>
   </g>
   <g id="line2d_11">
    <path clip-path="url(#pad7a68a395)" d="M 73.832727 286.090618 
L 74.482686 215.823659 
L 74.807666 198.047705 
L 75.132645 191.923103 
L 75.457625 179.205945 
L 75.782604 176.49457 
L 76.107584 165.956651 
L 76.757543 153.66632 
L 77.082523 164.84452 
L 77.407502 157.44628 
L 77.732482 144.439702 
L 78.057461 144.52415 
L 78.382441 136.003242 
L 78.70742 142.334891 
L 79.0324 143.016915 
L 79.357379 135.040129 
L 79.682359 134.748077 
L 80.007338 129.687697 
L 80.332318 137.608509 
L 80.657297 140.305217 
L 80.982277 134.633637 
L 81.632236 135.16711 
L 81.957215 133.570831 
L 82.282195 134.21511 
L 82.607174 127.529888 
L 82.932154 128.099233 
L 83.257133 126.332641 
L 83.582113 128.008064 
L 83.907093 125.292073 
L 84.232072 134.845623 
L 84.557052 125.32248 
L 85.207011 130.198233 
L 85.85697 135.569047 
L 86.181949 119.711015 
L 86.506929 127.951097 
L 86.831908 128.276784 
L 87.156888 130.722272 
L 87.481867 123.592317 
L 87.806847 131.681034 
L 88.131826 128.028034 
L 88.456806 121.312243 
L 88.781785 126.578708 
L 89.106765 126.70572 
L 89.431744 131.369274 
L 89.756724 121.796948 
L 90.081704 117.613725 
L 90.406683 124.147694 
L 90.731663 125.591544 
L 91.056642 125.013899 
L 91.381622 126.803175 
L 91.706601 126.096048 
L 92.031581 117.504528 
L 92.35656 119.302205 
L 92.68154 119.728061 
L 93.006519 126.447972 
L 93.331499 123.052123 
L 93.656478 123.279465 
L 93.981458 122.211426 
L 94.306437 119.850436 
L 94.631417 124.456457 
L 94.956396 124.082488 
L 95.281376 121.793405 
L 95.606355 123.857171 
L 95.931335 122.543146 
L 96.256314 117.500257 
L 96.581294 128.281885 
L 97.231253 120.392513 
L 97.556233 120.195902 
L 98.206192 118.507158 
L 98.531171 123.000946 
L 98.856151 115.866517 
L 99.18113 124.894621 
L 99.50611 122.720464 
L 99.831089 122.568674 
L 100.156069 119.032858 
L 100.481048 119.798935 
L 100.806028 116.454811 
L 101.131007 123.471359 
L 101.455987 122.873408 
L 101.780966 128.857881 
L 102.430925 116.133192 
L 102.755905 113.097426 
L 103.080885 129.382892 
L 103.405864 116.949313 
L 104.055823 129.844306 
L 104.380803 119.446951 
L 104.705782 113.705336 
L 105.030762 123.852697 
L 105.355741 120.737574 
L 105.680721 120.833065 
L 106.0057 123.275092 
L 106.33068 119.155456 
L 106.655659 124.838625 
L 106.980639 117.409685 
L 107.305618 120.285624 
L 107.630598 115.697802 
L 107.955577 123.224077 
L 108.605536 118.102742 
L 108.930516 115.779143 
L 109.255495 124.581546 
L 109.580475 121.651231 
L 109.905455 124.755564 
L 110.555414 121.050062 
L 110.880393 121.003055 
L 111.205373 114.599316 
L 111.530352 117.618847 
L 111.855332 119.299695 
L 112.180311 122.579585 
L 112.505291 112.752082 
L 112.83027 118.877302 
L 113.15525 114.28448 
L 113.480229 113.251464 
L 113.805209 109.589304 
L 114.130188 113.505203 
L 114.455168 115.880465 
L 114.780147 117.314193 
L 115.105127 113.092244 
L 115.430106 114.441939 
L 115.755086 121.110835 
L 116.080066 116.486169 
L 116.405045 115.706001 
L 116.730025 112.682422 
L 117.055004 111.400646 
L 117.379984 122.458586 
L 117.704963 115.026649 
L 118.029943 117.448817 
L 118.354922 116.634214 
L 118.679902 113.823967 
L 119.004881 118.073266 
L 119.329861 120.830089 
L 119.97982 118.858171 
L 120.304799 116.883844 
L 120.629779 116.807261 
L 120.954758 109.342913 
L 121.279738 112.452692 
L 121.604717 110.872113 
L 121.929697 118.900036 
L 122.579656 110.044594 
L 122.904636 109.609508 
L 123.229615 115.160746 
L 123.554595 105.571172 
L 123.879574 110.289386 
L 124.204554 116.783899 
L 124.529533 108.434357 
L 124.854513 109.527701 
L 125.179492 111.967137 
L 125.504472 122.327303 
L 125.829451 117.035715 
L 126.154431 117.301318 
L 126.47941 116.895241 
L 126.80439 114.005374 
L 127.454349 111.393823 
L 127.779328 115.431815 
L 128.104308 118.053286 
L 128.429287 103.582917 
L 128.754267 114.904334 
L 129.079247 109.656656 
L 129.404226 117.899471 
L 129.729206 121.879605 
L 130.054185 110.87187 
L 130.379165 114.202431 
L 130.704144 115.553421 
L 131.029124 119.057454 
L 131.354103 116.261864 
L 131.679083 118.192909 
L 132.004062 117.523943 
L 132.329042 118.153555 
L 132.654021 111.827331 
L 132.979001 107.92538 
L 133.30398 116.527892 
L 133.62896 114.790482 
L 133.953939 109.812617 
L 134.278919 107.309493 
L 134.603898 112.688981 
L 134.928878 106.273622 
L 135.253857 110.886567 
L 135.903817 114.927291 
L 136.228796 114.605835 
L 136.553776 107.978683 
L 136.878755 112.113724 
L 137.528714 102.884536 
L 137.853694 112.153423 
L 138.178673 110.949263 
L 138.503653 112.757507 
L 139.153612 120.245682 
L 139.478591 111.584725 
L 139.803571 106.658179 
L 140.12855 110.5062 
L 140.778509 104.429202 
L 141.103489 111.234968 
L 141.428468 106.188131 
L 141.753448 115.658994 
L 142.078428 112.407972 
L 142.403407 111.724835 
L 142.728387 109.700768 
L 143.053366 109.22244 
L 143.378346 106.219854 
L 143.703325 114.771189 
L 144.028305 111.38771 
L 144.353284 102.825362 
L 144.678264 111.636712 
L 145.003243 106.873455 
L 145.328223 113.748112 
L 145.653202 108.805654 
L 145.978182 114.351407 
L 146.303161 109.791259 
L 146.628141 112.099553 
L 146.95312 109.980157 
L 147.2781 109.343075 
L 147.603079 106.257852 
L 147.928059 108.910701 
L 148.253038 106.759096 
L 148.578018 113.582252 
L 148.902998 110.157111 
L 149.227977 111.921932 
L 149.552957 104.368469 
L 149.877936 104.282209 
L 150.202916 109.267888 
L 150.527895 104.561072 
L 150.852875 108.201692 
L 151.177854 107.564549 
L 151.502834 102.677175 
L 151.827813 103.702155 
L 152.152793 112.596222 
L 152.477772 111.127087 
L 153.127731 106.181046 
L 153.452711 105.469729 
L 153.77769 101.670172 
L 154.10267 110.42577 
L 154.427649 112.361735 
L 154.752629 109.732005 
L 155.077609 101.161984 
L 155.402588 112.847391 
L 155.727568 112.331106 
L 156.052547 111.500307 
L 156.377527 107.513817 
L 156.702506 112.184619 
L 157.027486 105.68549 
L 157.352465 109.910315 
L 157.677445 102.557816 
L 158.002424 111.430607 
L 158.327404 111.984486 
L 158.652383 107.371764 
L 158.977363 105.040675 
L 159.302342 109.160797 
L 159.627322 105.523416 
L 159.952301 110.198935 
L 160.277281 102.658348 
L 160.60226 111.566 
L 160.92724 101.829676 
L 161.252219 105.69371 
L 161.577199 102.974318 
L 161.902179 105.9749 
L 162.227158 103.099164 
L 162.552138 110.375363 
L 162.877117 102.653267 
L 163.202097 101.847835 
L 163.527076 108.613437 
L 163.852056 109.860879 
L 164.177035 108.420551 
L 164.826994 97.324349 
L 165.151974 104.451754 
L 165.476953 98.424394 
L 165.801933 104.125682 
L 166.126912 102.770561 
L 166.451892 105.355795 
L 166.776871 112.773905 
L 167.101851 101.277781 
L 167.42683 102.752544 
L 168.07679 108.615157 
L 168.401769 105.512343 
L 168.726749 104.776732 
L 169.051728 101.562069 
L 169.376708 105.491633 
L 169.701687 99.20365 
L 170.026667 105.820964 
L 170.351646 102.59136 
L 170.676626 105.310367 
L 171.001605 110.387388 
L 171.326585 104.479529 
L 171.651564 95.025387 
L 171.976544 98.333963 
L 172.301523 102.902897 
L 172.626503 97.712773 
L 172.951482 107.303177 
L 173.276462 107.636881 
L 173.601441 100.418499 
L 173.926421 103.361811 
L 174.2514 108.145939 
L 174.57638 111.230474 
L 174.90136 101.303025 
L 175.226339 102.045417 
L 175.551319 106.606577 
L 175.876298 98.425507 
L 176.201278 100.355317 
L 176.526257 103.200162 
L 176.851237 108.255318 
L 177.176216 109.337285 
L 177.501196 110.881992 
L 177.826175 102.894475 
L 178.151155 104.338751 
L 178.476134 103.074122 
L 178.801114 102.6046 
L 179.126093 104.861839 
L 179.451073 100.130648 
L 179.776052 104.742176 
L 180.101032 99.273756 
L 180.426011 100.96096 
L 180.750991 100.901625 
L 181.075971 99.211971 
L 181.40095 109.317183 
L 181.72593 105.322898 
L 182.050909 104.567125 
L 182.700868 96.569487 
L 183.025848 97.615459 
L 183.350827 99.386313 
L 183.675807 104.056265 
L 184.000786 93.927671 
L 184.325766 101.33161 
L 184.650745 95.89641 
L 184.975725 103.249112 
L 185.300704 102.0324 
L 185.625684 92.752804 
L 185.950663 103.625774 
L 186.275643 97.493671 
L 186.600622 108.566248 
L 186.925602 99.150165 
L 187.250581 100.191381 
L 187.575561 99.744836 
L 187.900541 105.40764 
L 188.22552 97.789133 
L 188.5505 99.694327 
L 188.875479 105.662999 
L 189.200459 102.190183 
L 189.525438 97.242947 
L 189.850418 99.76421 
L 190.175397 95.594631 
L 190.500377 107.212888 
L 190.825356 92.376911 
L 191.150336 99.336371 
L 191.475315 98.321432 
L 191.800295 102.526073 
L 192.125274 99.348355 
L 192.450254 98.364269 
L 192.775233 105.647917 
L 193.100213 104.388977 
L 193.425192 97.769051 
L 193.750172 98.069555 
L 194.075152 104.110397 
L 194.400131 102.338086 
L 194.725111 102.546337 
L 195.05009 93.803352 
L 195.37507 104.194188 
L 195.700049 96.814339 
L 196.025029 98.706718 
L 196.674988 101.470444 
L 196.999967 97.707955 
L 197.324947 98.530149 
L 197.974906 102.928789 
L 198.299885 94.856045 
L 198.624865 97.814297 
L 198.949844 97.357995 
L 199.274824 99.92845 
L 199.599803 92.919312 
L 199.924783 97.235012 
L 200.249762 97.776542 
L 200.574742 95.77029 
L 200.899722 102.023614 
L 201.224701 101.784633 
L 201.549681 96.924244 
L 201.87466 101.222494 
L 202.19964 96.504827 
L 202.524619 94.88874 
L 202.849599 100.001956 
L 203.174578 102.122264 
L 203.499558 99.171604 
L 203.824537 94.463391 
L 204.149517 102.784671 
L 204.474496 94.577891 
L 205.124455 96.244812 
L 205.449435 103.983082 
L 205.774414 99.143404 
L 206.099394 105.234512 
L 206.424373 104.152121 
L 206.749353 96.33504 
L 207.074333 100.874842 
L 207.399312 89.375924 
L 207.724292 94.643887 
L 208.049271 97.404333 
L 208.374251 98.933148 
L 208.69923 98.124072 
L 209.02421 106.183556 
L 209.349189 96.200032 
L 209.674169 98.829721 
L 209.999148 89.272517 
L 210.324128 102.653631 
L 210.649107 96.12529 
L 210.974087 101.830708 
L 211.299066 87.962622 
L 211.624046 90.724911 
L 211.949025 105.757681 
L 212.274005 97.206751 
L 212.598984 91.940509 
L 212.923964 96.376904 
L 213.248943 98.876141 
L 213.573923 98.536769 
L 213.898903 93.559025 
L 214.223882 95.584995 
L 214.548862 106.164992 
L 215.198821 92.097421 
L 215.5238 97.556974 
L 215.84878 90.683188 
L 216.173759 93.233824 
L 216.498739 97.462049 
L 216.823718 90.194636 
L 217.148698 101.271849 
L 217.473677 93.109647 
L 217.798657 91.128032 
L 218.123636 97.119094 
L 218.773595 89.816719 
L 219.098575 90.371003 
L 219.423554 91.429122 
L 219.748534 86.070486 
L 220.073514 91.796168 
L 220.398493 90.316506 
L 220.723473 96.731338 
L 221.048452 87.830367 
L 221.373432 94.915583 
L 221.698411 95.027391 
L 222.023391 94.028608 
L 222.34837 87.022121 
L 222.67335 98.709208 
L 222.998329 100.622378 
L 223.648288 85.730122 
L 224.298247 95.302489 
L 224.623227 95.075795 
L 224.948206 90.893423 
L 225.598165 98.690604 
L 225.923145 91.062744 
L 226.248124 100.652724 
L 226.573104 91.971725 
L 226.898084 94.245868 
L 227.223063 100.607033 
L 227.548043 93.237468 
L 227.873022 88.844172 
L 228.522981 96.744841 
L 228.847961 94.472055 
L 229.17294 97.637849 
L 229.49792 90.84344 
L 229.822899 100.20788 
L 230.147879 90.240125 
L 230.797838 93.92761 
L 231.122817 92.732236 
L 231.447797 90.364829 
L 231.772776 92.342881 
L 232.422735 91.072907 
L 232.747715 91.729322 
L 233.072695 97.421986 
L 233.397674 91.645208 
L 233.722654 91.573888 
L 234.047633 87.649608 
L 234.372613 98.369289 
L 234.697592 91.211741 
L 235.022572 91.38003 
L 235.347551 87.482007 
L 235.672531 87.887537 
L 235.99751 92.527507 
L 236.32249 85.932259 
L 236.972449 89.100807 
L 237.297428 99.120629 
L 237.622408 90.55731 
L 237.947387 91.808416 
L 238.272367 95.640545 
L 238.597346 90.545447 
L 238.922326 96.478935 
L 239.247305 91.771855 
L 239.572285 81.603583 
L 239.897265 83.136973 
L 240.222244 93.461449 
L 240.872203 88.399591 
L 241.197183 96.071704 
L 241.522162 90.743758 
L 241.847142 92.148436 
L 242.172121 84.212299 
L 242.497101 90.935915 
L 242.82208 90.669665 
L 243.14706 85.53007 
L 243.472039 85.42478 
L 243.797019 91.852123 
L 244.121998 94.148797 
L 244.446978 85.435469 
L 244.771957 95.567201 
L 245.096937 96.411643 
L 245.421916 84.966393 
L 245.746896 97.026275 
L 246.071876 92.122908 
L 246.396855 92.026162 
L 246.721835 89.495385 
L 247.046814 84.248354 
L 247.371794 93.823535 
L 247.696773 87.720867 
L 248.021753 89.253629 
L 248.346732 86.021313 
L 248.671712 88.797165 
L 248.996691 89.767344 
L 249.321671 95.230683 
L 249.64665 84.992791 
L 249.97163 93.916759 
L 250.296609 94.562647 
L 250.621589 88.433196 
L 250.946568 86.853144 
L 251.271548 87.454373 
L 251.596527 86.332647 
L 251.921507 90.195203 
L 252.246486 90.240489 
L 252.571466 81.922832 
L 252.896446 82.880541 
L 253.221425 92.98968 
L 253.546405 95.387858 
L 253.871384 82.931515 
L 254.196364 93.786974 
L 254.521343 82.528617 
L 254.846323 89.80265 
L 255.171302 89.632255 
L 255.496282 87.960517 
L 255.821261 88.054227 
L 256.146241 88.473462 
L 256.47122 82.708162 
L 256.7962 92.719624 
L 257.121179 86.935821 
L 257.771138 90.965694 
L 258.096118 90.744952 
L 258.421097 90.079387 
L 258.746077 82.545642 
L 259.071057 82.503271 
L 259.396036 87.907902 
L 259.721016 89.64428 
L 260.045995 88.817126 
L 260.695954 83.3499 
L 261.020934 87.756497 
L 261.345913 87.250131 
L 261.670893 93.724501 
L 261.995872 91.295673 
L 262.320852 92.370494 
L 262.645831 83.050267 
L 262.970811 89.918325 
L 263.29579 84.457375 
L 263.62077 93.34545 
L 263.945749 84.341153 
L 264.270729 87.402002 
L 264.595708 92.652029 
L 264.920688 79.387318 
L 265.245667 82.095879 
L 265.570647 89.571887 
L 265.895627 88.496075 
L 266.220606 88.693617 
L 266.545586 91.131372 
L 267.195545 77.176945 
L 267.520524 95.092577 
L 267.845504 84.490211 
L 268.170483 86.278535 
L 268.495463 89.785665 
L 268.820442 88.281912 
L 269.145422 88.06283 
L 269.470401 79.875809 
L 269.795381 95.269106 
L 270.12036 87.381495 
L 270.44534 83.337653 
L 270.770319 81.688912 
L 271.095299 89.133238 
L 271.745258 87.084817 
L 272.070238 91.063777 
L 272.720197 86.281247 
L 273.045176 82.524568 
L 273.370156 89.790341 
L 273.695135 90.230752 
L 274.020115 82.026502 
L 274.345094 89.090685 
L 274.670074 83.153472 
L 274.995053 85.126179 
L 275.320033 83.7363 
L 275.645012 80.132079 
L 275.969992 86.46308 
L 276.294971 75.473079 
L 276.619951 84.273457 
L 277.26991 86.454092 
L 277.594889 81.074483 
L 277.919869 80.797604 
L 278.894808 88.500771 
L 279.219787 86.400485 
L 279.869746 90.244477 
L 280.194726 79.508661 
L 280.519705 77.737767 
L 280.844685 87.117633 
L 281.169664 85.211812 
L 281.494644 84.982649 
L 281.819623 87.663596 
L 282.144603 83.790412 
L 282.469582 89.828785 
L 282.794562 93.200543 
L 283.119541 79.804347 
L 283.444521 85.639266 
L 283.7695 86.3403 
L 284.09448 79.141028 
L 284.419459 78.78212 
L 284.744439 86.430568 
L 285.069419 88.43014 
L 285.719378 80.95654 
L 286.044357 82.917608 
L 286.369337 83.926776 
L 286.694316 87.451033 
L 287.019296 94.831449 
L 287.344275 91.716913 
L 287.994234 82.164506 
L 288.319214 82.443733 
L 288.644193 82.560299 
L 288.969173 86.075041 
L 289.294152 86.553187 
L 289.619132 86.788383 
L 289.944111 78.351812 
L 290.269091 87.559845 
L 290.59407 84.516913 
L 290.91905 87.056172 
L 291.569009 82.921535 
L 291.893989 79.062704 
L 292.218968 83.314817 
L 292.543948 84.784742 
L 292.868927 78.18832 
L 293.518886 88.263834 
L 293.843866 87.878994 
L 294.168845 81.023467 
L 294.493825 82.597852 
L 294.818804 77.202614 
L 295.143784 85.980197 
L 295.468763 85.08065 
L 295.793743 85.444194 
L 296.118722 84.391278 
L 296.443702 86.500937 
L 296.768681 86.058279 
L 297.093661 87.445243 
L 297.41864 81.306602 
L 297.74362 79.712094 
L 298.0686 82.613501 
L 298.393579 76.851602 
L 298.718559 81.622045 
L 299.043538 83.527097 
L 299.368518 79.425721 
L 299.693497 85.800308 
L 300.018477 82.64666 
L 300.343456 81.687859 
L 300.668436 86.995946 
L 300.993415 75.842008 
L 301.318395 83.464462 
L 301.643374 83.857157 
L 301.968354 85.372429 
L 302.293333 83.728101 
L 302.618313 80.814204 
L 302.943292 86.824012 
L 303.268272 78.075864 
L 303.593251 87.847615 
L 303.918231 81.305427 
L 304.24321 80.81803 
L 304.56819 86.198753 
L 304.89317 81.486045 
L 305.218149 81.777986 
L 305.543129 81.317513 
L 305.868108 74.256934 
L 306.193088 84.416218 
L 306.518067 86.695037 
L 306.843047 83.715651 
L 307.168026 84.814481 
L 307.493006 79.050436 
L 307.817985 83.378647 
L 308.142965 80.352092 
L 308.467944 81.635528 
L 308.792924 78.428739 
L 309.117903 83.066685 
L 309.442883 82.009092 
L 309.767862 73.323519 
L 310.092842 83.941008 
L 310.417821 75.747346 
L 310.742801 83.565945 
L 311.067781 82.039175 
L 311.39276 86.237702 
L 311.71774 74.991856 
L 312.042719 81.820478 
L 312.367699 85.173753 
L 312.692678 84.117193 
L 313.342637 83.713404 
L 313.667617 81.384298 
L 313.992596 81.365309 
L 314.317576 78.548929 
L 314.642555 86.740829 
L 314.967535 82.969473 
L 315.292514 76.615333 
L 315.617494 85.59068 
L 316.267453 78.640553 
L 316.917412 88.403701 
L 317.242391 85.184826 
L 317.567371 85.404718 
L 317.892351 78.632051 
L 318.21733 85.613657 
L 318.54231 78.397341 
L 318.867289 80.630266 
L 319.192269 77.102689 
L 319.517248 76.975941 
L 319.842228 75.934058 
L 320.167207 81.170885 
L 320.492187 91.521273 
L 320.817166 74.622178 
L 321.142146 83.88481 
L 321.467125 85.992344 
L 321.792105 81.265162 
L 322.117084 88.811721 
L 322.442064 83.877907 
L 322.767043 87.244685 
L 323.092023 80.59241 
L 323.417002 80.422703 
L 323.741982 73.118588 
L 324.391941 84.391116 
L 324.716921 85.579809 
L 325.0419 83.370914 
L 325.36688 73.870596 
L 325.691859 77.10022 
L 326.016839 77.296 
L 326.341818 75.791499 
L 326.666798 81.537202 
L 326.991777 76.259036 
L 327.316757 82.48906 
L 327.641736 73.781218 
L 327.966716 78.371489 
L 328.291695 81.33221 
L 328.616675 81.207142 
L 328.941654 73.512781 
L 329.266634 85.49693 
L 329.591613 81.183254 
L 329.916593 79.157426 
L 330.566552 85.79464 
L 330.891532 84.626069 
L 331.216511 77.451333 
L 331.541491 78.341325 
L 331.86647 81.046363 
L 332.516429 77.930613 
L 332.841409 81.35705 
L 333.166388 75.182961 
L 333.491368 79.303305 
L 333.816347 75.299222 
L 334.141327 79.335696 
L 334.466306 77.645292 
L 334.791286 81.943886 
L 335.116265 72.885335 
L 335.766224 78.663247 
L 336.091204 75.787187 
L 336.416183 78.18334 
L 336.741163 77.730135 
L 337.066143 80.321037 
L 337.391122 87.106418 
L 337.716102 78.635047 
L 338.041081 81.003851 
L 338.366061 79.199068 
L 338.69104 81.086103 
L 339.01602 81.92931 
L 339.340999 77.896198 
L 339.665979 76.821742 
L 339.990958 82.577142 
L 340.640917 77.18405 
L 340.965897 83.617608 
L 341.290876 82.115819 
L 341.615856 81.437621 
L 341.940835 77.559012 
L 342.265815 71.274916 
L 342.590794 79.720658 
L 342.915774 84.564668 
L 343.240753 79.46623 
L 343.565733 82.240341 
L 343.890713 78.097647 
L 344.215692 70.695388 
L 344.540672 77.634198 
L 344.865651 80.891881 
L 345.190631 78.483864 
L 345.51561 80.017153 
L 345.84059 79.404991 
L 346.165569 74.513751 
L 346.490549 74.14709 
L 346.815528 81.776811 
L 347.140508 84.276615 
L 347.465487 80.307858 
L 347.790467 81.063429 
L 348.115446 71.370084 
L 348.765405 76.755665 
L 349.090385 83.456425 
L 349.415364 71.846974 
L 349.740344 84.230863 
L 350.065324 82.068408 
L 350.390303 77.49836 
L 350.715283 75.10743 
L 351.040262 76.423965 
L 351.365242 74.871222 
L 351.690221 78.371408 
L 352.015201 75.383236 
L 352.34018 76.216686 
L 352.66516 72.855738 
L 352.990139 73.794397 
L 353.315119 71.237424 
L 353.640098 84.406866 
L 353.965078 71.065491 
L 354.290057 71.824625 
L 354.615037 79.665027 
L 354.940016 72.479319 
L 355.264996 72.800856 
L 355.589975 71.515861 
L 355.914955 74.186485 
L 356.239934 75.009853 
L 356.564914 79.702661 
L 356.889894 73.921449 
L 357.539853 71.469401 
L 357.864832 74.248918 
L 358.189812 80.073087 
L 358.514791 76.283815 
L 358.839771 78.588202 
L 359.16475 66.356306 
L 359.48973 76.004305 
L 359.814709 72.702591 
L 360.139689 73.061439 
L 360.464668 75.738358 
L 360.789648 76.144961 
L 361.114627 82.725208 
L 361.439607 72.327569 
L 361.764586 83.537523 
L 362.089566 78.878887 
L 362.414545 70.805212 
L 362.739525 71.880114 
L 363.064505 81.100375 
L 363.389484 80.611277 
L 363.714464 73.132738 
L 364.039443 73.438647 
L 364.364423 72.10037 
L 364.689402 75.774939 
L 365.014382 82.6234 
L 365.664341 73.756662 
L 365.98932 71.110412 
L 366.3143 78.634602 
L 366.639279 70.318665 
L 366.964259 75.247843 
L 367.289238 77.450179 
L 367.614218 74.609688 
L 367.939197 75.876989 
L 368.264177 75.627299 
L 368.589156 81.301055 
L 368.914136 73.892479 
L 369.239115 82.560198 
L 369.564095 71.689394 
L 369.889075 75.521037 
L 370.214054 80.921316 
L 370.539034 78.145787 
L 370.864013 77.25784 
L 371.188993 70.671095 
L 371.513972 76.848909 
L 371.838952 70.684841 
L 372.163931 82.701481 
L 372.488911 74.776175 
L 372.81389 73.19505 
L 373.13887 69.095921 
L 373.463849 71.006034 
L 373.788829 75.631489 
L 374.438788 80.529572 
L 374.763767 80.842121 
L 375.088747 74.199421 
L 375.413726 75.968473 
L 375.738706 80.319357 
L 376.063686 73.729332 
L 376.388665 72.312994 
L 376.713645 71.610847 
L 377.038624 73.69103 
L 377.363604 78.09704 
L 378.013563 73.300886 
L 378.338542 72.146324 
L 378.663522 79.213037 
L 378.988501 74.178731 
L 379.313481 76.93857 
L 379.63846 71.136062 
L 379.96344 78.973731 
L 380.288419 69.975588 
L 380.613399 68.393126 
L 380.938378 73.695302 
L 381.263358 68.923279 
L 381.588337 69.845216 
L 381.913317 80.420638 
L 382.238296 73.052632 
L 382.563276 74.555231 
L 382.888256 69.435374 
L 383.213235 72.882278 
L 383.538215 71.76622 
L 383.863194 69.651743 
L 384.188174 73.041275 
L 384.513153 70.126123 
L 384.838133 72.91892 
L 385.163112 72.403647 
L 385.488092 76.828503 
L 385.813071 69.967754 
L 386.138051 76.963491 
L 386.46303 69.941254 
L 386.78801 75.518001 
L 387.112989 66.950066 
L 387.437969 75.719227 
L 387.762948 69.336401 
L 388.087928 68.612026 
L 388.412907 70.398245 
L 388.737887 76.566058 
L 389.062867 68.564331 
L 389.387846 67.043897 
L 389.712826 68.426954 
L 390.362785 75.572963 
L 391.012744 72.150616 
L 391.337723 68.913481 
L 391.987682 78.933405 
L 392.312662 74.198085 
L 392.637641 75.062144 
L 392.962621 64.118724 
L 393.2876 70.601233 
L 393.61258 69.872161 
L 393.937559 66.480443 
L 394.262539 70.688566 
L 394.587518 69.324315 
L 394.912498 74.215353 
L 395.237477 69.218479 
L 395.887437 72.304451 
L 396.212416 67.566661 
L 396.537396 72.456848 
L 396.862375 68.21761 
L 397.187355 72.476283 
L 397.512334 74.536404 
L 397.837314 74.774394 
L 398.162293 76.716857 
L 398.487273 63.293453 
L 398.487273 63.293453 
" style="fill:none;stroke:#ff7f0e;stroke-linecap:square;stroke-width:1.5;"/>
   </g>
   <g id="line2d_12">
    <path clip-path="url(#pad7a68a395)" d="M 73.832727 290.257797 
L 74.157707 245.162851 
L 74.807666 209.713151 
L 75.782604 179.247699 
L 76.107584 177.332403 
L 76.432563 166.163404 
L 76.757543 168.281555 
L 77.082523 153.787329 
L 77.407502 154.940039 
L 77.732482 141.014743 
L 78.057461 152.389068 
L 78.382441 146.782958 
L 78.70742 148.052456 
L 79.0324 142.50813 
L 79.682359 138.200346 
L 80.007338 137.525012 
L 80.332318 134.611389 
L 80.657297 136.858546 
L 80.982277 132.756036 
L 81.307256 139.758089 
L 81.957215 129.51626 
L 82.282195 135.168497 
L 82.607174 127.692215 
L 82.932154 124.366816 
L 83.582113 125.907332 
L 83.907093 125.665152 
L 84.232072 128.209867 
L 84.557052 129.73188 
L 84.882031 119.042656 
L 85.207011 119.204143 
L 85.53199 116.329763 
L 85.85697 122.410608 
L 86.181949 119.87398 
L 86.506929 119.365266 
L 86.831908 121.246753 
L 87.156888 114.029809 
L 87.481867 119.264167 
L 87.806847 114.916866 
L 88.456806 109.058686 
L 88.781785 116.737641 
L 89.106765 120.79948 
L 89.431744 117.375169 
L 89.756724 115.497588 
L 90.081704 114.684787 
L 90.406683 113.288146 
L 90.731663 112.540166 
L 91.056642 124.198244 
L 91.381622 109.614386 
L 91.706601 111.297441 
L 92.031581 111.758744 
L 92.35656 115.098111 
L 92.68154 112.547798 
L 93.006519 103.322679 
L 93.331499 110.539846 
L 93.656478 110.664307 
L 93.981458 107.54892 
L 94.306437 107.09191 
L 94.631417 114.600491 
L 94.956396 104.680451 
L 95.281376 104.639153 
L 95.606355 101.428903 
L 95.931335 101.719082 
L 96.256314 108.36075 
L 96.581294 101.11267 
L 96.906274 103.080438 
L 97.231253 96.515354 
L 97.556233 95.854849 
L 97.881212 101.000538 
L 98.206192 107.939611 
L 98.531171 104.235081 
L 98.856151 111.888306 
L 99.18113 96.244933 
L 99.50611 97.762047 
L 100.156069 112.609745 
L 100.481048 101.772709 
L 100.806028 97.004877 
L 101.131007 89.518038 
L 101.455987 102.38232 
L 101.780966 101.81427 
L 102.105946 92.087704 
L 102.430925 104.256438 
L 102.755905 98.144094 
L 103.080885 95.944429 
L 103.405864 95.296415 
L 103.730844 91.314723 
L 104.055823 99.715644 
L 104.380803 94.881229 
L 104.705782 85.275014 
L 105.030762 92.312757 
L 105.355741 89.730196 
L 106.0057 96.727876 
L 106.33068 97.109923 
L 106.655659 88.165549 
L 106.980639 96.748485 
L 107.305618 86.150207 
L 107.630598 99.559987 
L 107.955577 91.983689 
L 108.280557 96.793144 
L 108.930516 91.986726 
L 109.255495 87.569158 
L 109.580475 95.179931 
L 109.905455 90.494189 
L 110.230434 89.057241 
L 110.555414 82.558679 
L 110.880393 91.119772 
L 111.205373 89.273772 
L 111.530352 89.522552 
L 111.855332 87.206666 
L 112.180311 86.751599 
L 112.505291 95.202159 
L 112.83027 86.5626 
L 113.15525 93.05683 
L 113.480229 89.630494 
L 114.130188 85.335422 
L 114.780147 94.244673 
L 115.105127 88.122996 
L 115.430106 87.829962 
L 115.755086 78.482487 
L 116.080066 88.696451 
L 116.405045 92.941803 
L 116.730025 88.383254 
L 117.055004 86.233654 
L 117.379984 86.079717 
L 117.704963 88.566787 
L 118.029943 86.451258 
L 118.679902 89.282376 
L 119.004881 87.365117 
L 119.329861 87.15638 
L 119.65484 87.082104 
L 119.97982 84.835474 
L 120.304799 98.515492 
L 120.629779 79.450358 
L 120.954758 93.96662 
L 121.279738 90.094023 
L 121.604717 81.218074 
L 122.254676 79.561741 
L 122.579656 78.980492 
L 122.904636 77.627153 
L 123.229615 89.435422 
L 123.554595 90.794368 
L 123.879574 90.617455 
L 124.204554 79.428576 
L 124.529533 88.762528 
L 124.854513 87.397346 
L 125.179492 84.249468 
L 125.504472 83.496346 
L 125.829451 86.543652 
L 126.154431 86.297645 
L 126.47941 82.618035 
L 126.80439 80.615042 
L 127.129369 74.399068 
L 127.454349 79.389707 
L 127.779328 86.376658 
L 128.104308 80.040373 
L 128.429287 80.41084 
L 128.754267 94.185317 
L 129.079247 78.358998 
L 129.404226 84.340262 
L 129.729206 84.853309 
L 130.054185 79.901559 
L 130.379165 85.617099 
L 130.704144 83.013727 
L 131.029124 84.584832 
L 131.679083 80.262775 
L 132.004062 82.047455 
L 132.329042 80.716931 
L 132.654021 85.675483 
L 132.979001 74.034026 
L 133.30398 77.240086 
L 133.62896 78.500849 
L 133.953939 74.42741 
L 134.278919 77.119289 
L 134.603898 82.055755 
L 134.928878 77.937901 
L 135.253857 82.070513 
L 135.578837 80.437562 
L 135.903817 76.086192 
L 136.228796 78.943689 
L 136.553776 73.474621 
L 136.878755 88.512897 
L 137.203735 76.559742 
L 137.528714 81.381849 
L 137.853694 77.932171 
L 138.178673 80.485156 
L 138.503653 80.955852 
L 138.828632 68.468273 
L 139.153612 74.520776 
L 139.478591 85.280115 
L 140.12855 74.170755 
L 140.45353 75.193164 
L 140.778509 67.632596 
L 141.103489 77.007643 
L 141.428468 70.893638 
L 141.753448 80.929251 
L 142.078428 82.787296 
L 142.403407 78.251624 
L 142.728387 80.712174 
L 143.053366 73.453668 
L 143.378346 73.023987 
L 144.028305 83.865781 
L 144.353284 76.327785 
L 144.678264 82.756788 
L 145.003243 85.548836 
L 145.328223 74.239767 
L 145.653202 80.708894 
L 145.978182 70.181491 
L 146.303161 79.913948 
L 146.628141 76.974827 
L 146.95312 77.210024 
L 147.2781 83.929044 
L 147.603079 79.810197 
L 147.928059 71.969188 
L 148.902998 85.202459 
L 149.227977 77.690781 
L 149.552957 72.966554 
L 149.877936 85.795733 
L 150.527895 74.500086 
L 150.852875 73.915133 
L 151.177854 79.144814 
L 151.502834 67.314743 
L 151.827813 75.31311 
L 152.152793 73.769638 
L 152.477772 77.831153 
L 152.802752 77.821963 
L 153.127731 71.014739 
L 153.452711 72.864099 
L 153.77769 81.756648 
L 154.10267 86.216426 
L 154.427649 78.809086 
L 154.752629 82.529427 
L 155.077609 76.299282 
L 155.402588 80.449081 
L 155.727568 78.767747 
L 156.052547 71.290848 
L 156.377527 75.757995 
L 156.702506 89.748881 
L 157.027486 75.33465 
L 157.352465 76.857675 
L 157.677445 72.586836 
L 158.002424 76.639565 
L 158.327404 68.965913 
L 158.652383 78.542511 
L 158.977363 74.16952 
L 159.302342 73.979124 
L 159.627322 72.232422 
L 159.952301 72.294328 
L 160.277281 68.094829 
L 160.60226 75.128241 
L 160.92724 73.481018 
L 161.252219 82.967125 
L 161.902179 68.594636 
L 162.227158 75.270132 
L 162.552138 71.012977 
L 162.877117 71.017816 
L 163.202097 74.412895 
L 163.527076 66.501436 
L 163.852056 67.601197 
L 164.177035 70.828452 
L 164.502015 66.913343 
L 164.826994 70.691562 
L 165.151974 72.391399 
L 165.476953 81.243217 
L 165.801933 76.028112 
L 166.126912 77.744083 
L 166.451892 66.123903 
L 166.776871 70.646964 
L 167.101851 78.769853 
L 167.42683 66.720538 
L 167.75181 75.211323 
L 168.07679 74.747651 
L 168.401769 75.725199 
L 168.726749 67.830462 
L 169.051728 73.729008 
L 169.376708 70.277064 
L 169.701687 74.235131 
L 170.026667 75.475124 
L 170.351646 68.886192 
L 170.676626 72.140271 
L 171.001605 68.735049 
L 171.326585 72.374171 
L 171.651564 64.269948 
L 171.976544 78.933749 
L 172.301523 69.135195 
L 172.626503 74.249707 
L 172.951482 72.689635 
L 173.276462 74.16616 
L 173.601441 74.216891 
L 173.926421 71.052656 
L 174.2514 72.934974 
L 174.57638 70.763611 
L 174.90136 65.204031 
L 175.226339 63.397163 
L 175.551319 74.560839 
L 175.876298 69.447379 
L 176.201278 66.705598 
L 176.526257 75.509336 
L 176.851237 71.916796 
L 177.176216 63.116276 
L 177.501196 74.498953 
L 177.826175 73.803831 
L 178.151155 69.906515 
L 178.476134 75.497878 
L 178.801114 63.969869 
L 179.126093 69.358325 
L 179.451073 71.48924 
L 179.776052 64.468866 
L 180.101032 70.354153 
L 180.426011 66.294136 
L 180.750991 75.531746 
L 181.075971 71.05051 
L 181.40095 79.665816 
L 181.72593 74.413199 
L 182.050909 74.881344 
L 182.375889 68.407763 
L 182.700868 78.160667 
L 183.025848 73.192155 
L 183.350827 75.156056 
L 183.675807 72.091908 
L 184.000786 65.039123 
L 184.325766 72.723261 
L 184.650745 67.332497 
L 184.975725 76.327117 
L 185.300704 68.958544 
L 185.625684 67.373916 
L 185.950663 67.800521 
L 186.275643 72.857803 
L 186.600622 71.745247 
L 186.925602 63.815589 
L 187.250581 63.734855 
L 187.575561 60.662974 
L 187.900541 72.198493 
L 188.22552 75.607196 
L 188.5505 68.518984 
L 188.875479 70.411626 
L 189.200459 76.565107 
L 189.850418 64.593509 
L 190.175397 74.543206 
L 190.500377 68.116734 
L 190.825356 72.738606 
L 191.150336 62.180634 
L 191.475315 66.238121 
L 191.800295 65.925167 
L 192.125274 69.38357 
L 192.450254 75.237377 
L 193.100213 72.517985 
L 193.425192 67.416672 
L 193.750172 72.114014 
L 194.075152 69.31559 
L 194.400131 78.30525 
L 194.725111 67.598282 
L 195.05009 63.361331 
L 195.37507 69.413207 
L 195.700049 72.533917 
L 196.025029 62.923795 
L 196.350008 69.205239 
L 196.674988 67.194533 
L 196.999967 76.643067 
L 197.324947 66.200932 
L 197.649926 64.164071 
L 197.974906 70.064035 
L 198.299885 65.750906 
L 198.624865 66.54245 
L 198.949844 69.682879 
L 199.274824 71.351317 
L 199.599803 70.568235 
L 199.924783 79.838296 
L 200.249762 77.271768 
L 200.574742 69.302249 
L 200.899722 58.340083 
L 201.224701 68.168437 
L 201.549681 69.59178 
L 201.87466 75.564643 
L 202.19964 66.679301 
L 202.524619 65.489271 
L 202.849599 66.696123 
L 203.174578 74.448079 
L 203.499558 60.658986 
L 203.824537 70.702757 
L 204.149517 60.59629 
L 204.474496 67.090519 
L 204.799476 70.400047 
L 205.124455 67.936723 
L 205.449435 71.254166 
L 205.774414 66.927514 
L 206.099394 64.989768 
L 206.424373 73.85604 
L 206.749353 62.875149 
L 207.074333 68.331767 
L 207.399312 63.27248 
L 207.724292 67.736893 
L 208.049271 73.953698 
L 208.374251 63.452329 
L 208.69923 69.459991 
L 209.02421 66.501719 
L 209.349189 67.02179 
L 209.674169 69.550543 
L 209.999148 68.627331 
L 210.324128 72.720609 
L 210.649107 64.044104 
L 210.974087 63.406111 
L 211.299066 73.111118 
L 211.624046 66.519838 
L 211.949025 74.837495 
L 212.274005 71.451991 
L 212.598984 71.895843 
L 212.923964 64.560653 
L 213.248943 69.628928 
L 213.573923 64.342604 
L 214.223882 67.157406 
L 214.548862 66.066511 
L 214.873841 74.759697 
L 215.198821 69.636034 
L 215.5238 61.933858 
L 215.84878 70.53718 
L 216.173759 61.231934 
L 216.498739 69.03863 
L 216.823718 70.461568 
L 217.148698 71.195377 
L 217.473677 60.163875 
L 217.798657 64.850306 
L 218.123636 65.07955 
L 218.448616 62.520512 
L 218.773595 70.735836 
L 219.098575 70.531249 
L 219.423554 67.34685 
L 219.748534 67.053331 
L 220.073514 63.520794 
L 220.398493 72.246694 
L 220.723473 67.4853 
L 221.048452 67.155827 
L 221.373432 65.256403 
L 221.698411 71.37312 
L 222.023391 73.476564 
L 222.34837 63.414837 
L 222.67335 66.867247 
L 222.998329 66.92806 
L 223.323309 66.33175 
L 223.648288 76.208345 
L 224.298247 57.939088 
L 224.623227 69.431487 
L 224.948206 59.804846 
L 225.273186 69.350268 
L 225.598165 65.278833 
L 225.923145 65.067768 
L 226.248124 58.590058 
L 226.573104 67.807424 
L 226.898084 69.098168 
L 227.223063 66.379323 
L 227.548043 67.127363 
L 227.873022 66.829917 
L 228.198002 68.277512 
L 228.522981 67.934658 
L 228.847961 65.989968 
L 229.17294 72.476262 
L 229.49792 72.854119 
L 229.822899 74.95566 
L 230.147879 55.632332 
L 230.472858 70.374438 
L 230.797838 72.22975 
L 231.122817 68.167384 
L 231.447797 68.68531 
L 231.772776 73.00265 
L 232.422735 64.372707 
L 232.747715 70.020004 
L 233.072695 65.319868 
L 233.397674 55.334987 
L 233.722654 69.692211 
L 234.047633 61.75407 
L 234.372613 72.719799 
L 234.697592 64.325194 
L 235.022572 63.59424 
L 235.347551 64.843504 
L 235.672531 63.18124 
L 235.99751 55.149652 
L 236.32249 74.358782 
L 236.647469 65.950836 
L 236.972449 63.961448 
L 237.297428 66.533442 
L 237.622408 65.386694 
L 237.947387 65.839372 
L 238.272367 67.981624 
L 238.597346 69.282329 
L 238.922326 65.572616 
L 239.247305 63.210634 
L 239.572285 65.381714 
L 239.897265 63.802693 
L 240.222244 60.465391 
L 240.547224 63.882759 
L 240.872203 73.669734 
L 241.197183 66.225994 
L 241.522162 71.112194 
L 241.847142 66.248405 
L 242.172121 70.675103 
L 242.497101 71.50084 
L 242.82208 67.970146 
L 243.14706 61.629589 
L 243.472039 66.654562 
L 243.797019 69.45331 
L 244.121998 61.296007 
L 244.446978 65.056998 
L 244.771957 70.319252 
L 245.096937 63.602034 
L 245.421916 62.455367 
L 246.396855 70.794402 
L 246.721835 70.415857 
L 247.046814 65.113742 
L 247.371794 69.032881 
L 247.696773 71.280827 
L 248.021753 64.639889 
L 248.346732 67.573159 
L 248.671712 68.124649 
L 248.996691 64.021957 
L 249.321671 65.867491 
L 249.64665 64.91122 
L 249.97163 67.107686 
L 250.296609 70.505336 
L 250.621589 67.899028 
L 250.946568 63.364368 
L 251.271548 65.872188 
L 251.596527 70.286801 
L 251.921507 63.032101 
L 252.246486 60.754133 
L 252.571466 61.953151 
L 252.896446 57.27911 
L 253.221425 67.107848 
L 253.546405 61.048624 
L 253.871384 66.74477 
L 254.196364 65.155506 
L 254.521343 67.64288 
L 254.846323 72.714495 
L 255.171302 61.673195 
L 255.496282 64.11589 
L 255.821261 63.739147 
L 256.146241 69.17961 
L 256.47122 60.835899 
L 256.7962 73.089821 
L 257.121179 63.514599 
L 257.446159 74.952805 
L 257.771138 70.902161 
L 258.096118 64.023192 
L 258.421097 69.756183 
L 258.746077 68.169834 
L 259.071057 64.512715 
L 259.396036 66.681872 
L 259.721016 66.376347 
L 260.045995 59.96109 
L 260.370975 63.155246 
L 260.695954 65.039204 
L 261.020934 59.118469 
L 261.345913 62.236184 
L 261.670893 71.80679 
L 261.995872 69.814567 
L 262.320852 62.566041 
L 262.645831 69.082357 
L 262.970811 67.02256 
L 263.29579 62.662464 
L 263.62077 74.544684 
L 263.945749 62.564726 
L 264.270729 68.986906 
L 264.595708 64.355985 
L 264.920688 71.5655 
L 265.245667 69.823231 
L 265.895627 57.091042 
L 266.220606 69.413166 
L 266.870565 63.166927 
L 267.195545 68.513903 
L 267.520524 64.601425 
L 267.845504 65.717705 
L 268.170483 61.746398 
L 268.495463 71.565824 
L 268.820442 62.335421 
L 269.145422 68.002233 
L 269.470401 64.959239 
L 270.12036 61.97963 
L 270.44534 65.821153 
L 270.770319 67.689441 
L 271.095299 67.777969 
L 271.420278 63.544702 
L 272.070238 69.978544 
L 272.395217 69.964009 
L 272.720197 67.126108 
L 273.045176 62.130348 
L 273.370156 66.762261 
L 273.695135 67.128902 
L 274.020115 58.521734 
L 274.345094 60.231896 
L 274.670074 65.657641 
L 274.995053 66.784489 
L 275.320033 69.467583 
L 275.645012 66.228646 
L 275.969992 69.798088 
L 276.294971 71.566978 
L 276.94493 61.924587 
L 277.26991 66.988104 
L 277.594889 54.190041 
L 277.919869 71.794744 
L 278.244848 64.445646 
L 278.569828 69.095658 
L 278.894808 65.821254 
L 279.219787 59.702593 
L 279.869746 66.068394 
L 280.194726 60.868816 
L 280.519705 66.88077 
L 280.844685 66.849493 
L 281.169664 59.423892 
L 281.494644 55.510321 
L 281.819623 65.447183 
L 282.144603 71.484868 
L 282.469582 66.985412 
L 282.794562 67.391832 
L 283.119541 59.068608 
L 283.444521 59.212119 
L 283.7695 61.624953 
L 284.09448 72.249589 
L 284.419459 74.148709 
L 284.744439 66.917594 
L 285.069419 69.617227 
L 285.394398 62.745364 
L 285.719378 70.60105 
L 286.044357 61.117029 
L 286.369337 67.057258 
L 286.694316 62.918552 
L 287.019296 65.639927 
L 287.344275 72.255622 
L 287.669255 73.774942 
L 287.994234 65.790665 
L 288.319214 65.787831 
L 288.644193 53.808783 
L 288.969173 66.01665 
L 289.294152 64.199114 
L 289.619132 60.253314 
L 289.944111 67.760336 
L 290.269091 70.043305 
L 290.59407 62.803323 
L 290.91905 68.325572 
L 291.244029 62.880534 
L 291.569009 60.936148 
L 291.893989 68.630833 
L 292.218968 58.285951 
L 292.543948 63.394937 
L 292.868927 62.544927 
L 293.518886 66.325008 
L 293.843866 65.619805 
L 294.168845 66.681325 
L 294.493825 66.48603 
L 294.818804 60.887663 
L 295.143784 64.263935 
L 295.468763 56.344358 
L 295.793743 61.730547 
L 296.443702 68.551618 
L 296.768681 67.555182 
L 297.093661 57.463534 
L 297.41864 64.505832 
L 297.74362 64.788541 
L 298.0686 60.307001 
L 298.393579 60.92884 
L 298.718559 64.88213 
L 299.043538 65.863706 
L 299.368518 73.460936 
L 299.693497 65.826234 
L 300.018477 67.697984 
L 300.343456 70.385086 
L 300.668436 68.485298 
L 300.993415 59.633702 
L 301.318395 57.592914 
L 301.643374 65.469027 
L 301.968354 62.910556 
L 302.293333 62.565394 
L 302.618313 71.13841 
L 302.943292 72.095835 
L 303.268272 60.737695 
L 303.593251 61.98538 
L 303.918231 64.780565 
L 304.24321 61.042449 
L 304.56819 73.834156 
L 304.89317 64.342098 
L 305.218149 67.009826 
L 305.543129 68.245972 
L 305.868108 63.193204 
L 306.193088 63.601244 
L 306.518067 61.299712 
L 307.168026 67.37341 
L 307.493006 66.048595 
L 307.817985 61.803952 
L 308.142965 68.978485 
L 308.467944 62.452452 
L 308.792924 62.747894 
L 309.117903 61.977181 
L 309.442883 64.914439 
L 309.767862 65.191541 
L 310.092842 62.277988 
L 310.417821 67.794002 
L 310.742801 61.087776 
L 311.067781 59.191814 
L 311.39276 66.342013 
L 311.71774 64.663331 
L 312.042719 63.737629 
L 312.367699 69.518112 
L 313.017658 59.398486 
L 313.342637 70.573559 
L 313.667617 67.700677 
L 313.992596 58.240158 
L 314.317576 70.166895 
L 314.642555 62.832009 
L 315.292514 69.77922 
L 315.617494 69.348486 
L 315.942473 67.680817 
L 316.267453 62.030787 
L 316.592432 63.147452 
L 316.917412 70.094907 
L 317.242391 60.897218 
L 317.567371 62.859379 
L 317.892351 71.895904 
L 318.21733 66.279662 
L 318.54231 63.68799 
L 318.867289 70.41029 
L 319.192269 60.470169 
L 319.517248 71.525072 
L 319.842228 65.951039 
L 320.167207 69.76671 
L 320.492187 69.890765 
L 320.817166 73.176972 
L 321.142146 66.371934 
L 321.467125 67.849491 
L 321.792105 70.814221 
L 322.117084 66.63363 
L 322.442064 73.393422 
L 322.767043 62.723905 
L 323.092023 62.338315 
L 323.417002 72.479117 
L 323.741982 56.959233 
L 324.066962 67.026588 
L 324.391941 57.143879 
L 324.716921 67.92656 
L 325.0419 65.109592 
L 325.36688 58.46169 
L 325.691859 71.144605 
L 326.016839 53.881278 
L 326.341818 64.057283 
L 326.666798 69.476713 
L 326.991777 61.362691 
L 327.316757 58.269067 
L 327.641736 65.477853 
L 327.966716 65.983389 
L 328.291695 61.187924 
L 328.616675 66.296505 
L 328.941654 64.501378 
L 329.266634 69.083916 
L 329.591613 70.487137 
L 329.916593 71.284734 
L 330.241572 66.77216 
L 330.566552 68.434222 
L 330.891532 61.591045 
L 331.216511 60.23977 
L 331.541491 70.576757 
L 331.86647 66.278933 
L 332.19145 60.483287 
L 332.516429 61.300238 
L 332.841409 58.353384 
L 333.166388 69.682049 
L 333.491368 56.371708 
L 334.141327 61.318498 
L 334.466306 55.423757 
L 334.791286 61.733685 
L 335.116265 65.105888 
L 335.441245 63.029409 
L 335.766224 69.539267 
L 336.091204 64.636488 
L 336.416183 67.086005 
L 336.741163 70.436243 
L 337.066143 67.325189 
L 337.391122 63.138059 
L 337.716102 66.663753 
L 338.041081 60.287486 
L 338.366061 73.134236 
L 338.69104 70.758104 
L 339.01602 62.049796 
L 339.340999 63.931466 
L 339.665979 67.384261 
L 339.990958 62.150551 
L 340.640917 70.633279 
L 340.965897 59.781727 
L 341.290876 60.020972 
L 341.615856 75.406192 
L 341.940835 62.047286 
L 342.265815 60.662953 
L 342.590794 58.137501 
L 342.915774 62.125327 
L 343.240753 64.644585 
L 343.565733 71.536814 
L 343.890713 70.989919 
L 344.215692 64.169051 
L 344.540672 71.049559 
L 344.865651 57.755474 
L 345.190631 60.411218 
L 345.51561 67.661808 
L 345.84059 65.848948 
L 346.165569 68.806916 
L 346.490549 59.841913 
L 346.815528 61.624771 
L 347.140508 68.731446 
L 347.465487 64.734449 
L 347.790467 68.126471 
L 348.115446 62.077612 
L 348.440426 67.855848 
L 348.765405 65.90051 
L 349.090385 57.351078 
L 349.415364 58.926191 
L 349.740344 72.58882 
L 350.065324 62.922965 
L 350.390303 62.204522 
L 350.715283 58.894043 
L 351.040262 69.486612 
L 351.365242 63.060565 
L 351.690221 62.168103 
L 352.015201 64.267518 
L 352.34018 78.45038 
L 352.66516 66.838298 
L 352.990139 68.409059 
L 353.315119 64.000843 
L 353.640098 69.547931 
L 353.965078 67.313609 
L 354.615037 68.419626 
L 354.940016 61.692407 
L 355.264996 65.298025 
L 355.589975 65.753213 
L 355.914955 63.323029 
L 356.239934 66.716347 
L 356.564914 63.537232 
L 356.889894 65.880367 
L 357.214873 67.162568 
L 357.539853 71.511165 
L 357.864832 61.640906 
L 358.189812 69.14645 
L 358.839771 61.594628 
L 359.16475 61.32283 
L 359.48973 64.152896 
L 359.814709 59.041886 
L 360.139689 65.472893 
L 360.464668 68.106105 
L 360.789648 69.384622 
L 361.114627 65.135221 
L 361.764586 64.903487 
L 362.089566 70.427052 
L 362.414545 61.070305 
L 362.739525 58.154789 
L 363.064505 59.82092 
L 363.389484 64.524052 
L 364.039443 56.145176 
L 364.364423 68.052803 
L 364.689402 61.141261 
L 365.014382 65.963813 
L 365.339361 59.244671 
L 365.664341 67.565729 
L 365.98932 72.888392 
L 366.639279 64.364427 
L 366.964259 70.621112 
L 367.289238 64.115505 
L 367.614218 61.721093 
L 367.939197 63.653535 
L 368.264177 74.563855 
L 368.589156 67.737723 
L 368.914136 68.929838 
L 369.239115 62.514055 
L 369.564095 60.814015 
L 369.889075 65.748294 
L 370.214054 62.421843 
L 370.539034 57.457683 
L 370.864013 64.831033 
L 371.188993 65.894497 
L 371.513972 68.183539 
L 371.838952 69.525703 
L 372.488911 62.360543 
L 372.81389 64.306347 
L 373.13887 63.217618 
L 373.463849 70.051666 
L 373.788829 68.542042 
L 374.113808 61.702266 
L 374.438788 60.110309 
L 374.763767 66.566804 
L 375.088747 62.208227 
L 375.413726 65.009303 
L 375.738706 65.800261 
L 376.063686 63.942256 
L 376.388665 60.78956 
L 376.713645 65.647701 
L 377.038624 73.597462 
L 377.363604 63.257661 
L 377.688583 63.751699 
L 378.013563 66.468863 
L 378.338542 59.83588 
L 378.663522 70.610383 
L 378.988501 68.668426 
L 379.313481 61.74575 
L 379.63846 67.805501 
L 379.96344 62.012345 
L 380.288419 60.088648 
L 380.613399 65.623752 
L 380.938378 68.042741 
L 381.263358 60.454156 
L 381.588337 60.986616 
L 381.913317 65.914519 
L 382.238296 63.57851 
L 382.563276 59.966009 
L 382.888256 60.412311 
L 383.213235 67.467464 
L 383.538215 67.638345 
L 383.863194 53.568 
L 384.188174 64.663696 
L 384.513153 61.287687 
L 385.488092 69.147604 
L 385.813071 70.909915 
L 386.46303 53.957983 
L 386.78801 70.947002 
L 387.112989 67.467667 
L 387.437969 65.381694 
L 387.762948 60.436766 
L 388.087928 63.336188 
L 388.412907 63.81571 
L 388.737887 72.958416 
L 389.062867 56.201981 
L 389.387846 60.051622 
L 389.712826 56.340937 
L 390.037805 59.630929 
L 390.362785 67.38584 
L 390.687764 64.84239 
L 391.012744 68.212913 
L 391.337723 66.370962 
L 391.662703 67.036973 
L 391.987682 64.10678 
L 392.312662 63.61914 
L 392.637641 67.247107 
L 392.962621 63.041414 
L 393.2876 62.272259 
L 393.61258 69.790274 
L 393.937559 66.842772 
L 394.262539 61.428545 
L 394.587518 69.699965 
L 394.912498 71.160334 
L 395.237477 65.30264 
L 395.562457 67.214737 
L 396.212416 62.2972 
L 396.862375 68.38185 
L 397.512334 62.965033 
L 397.837314 58.265605 
L 398.162293 64.534235 
L 398.487273 64.601728 
L 398.487273 64.601728 
" style="fill:none;stroke:#2ca02c;stroke-linecap:square;stroke-width:1.5;"/>
   </g>
   <g id="patch_3">
    <path d="M 57.6 307.584 
L 57.6 41.472 
" style="fill:none;stroke:#000000;stroke-linecap:square;stroke-linejoin:miter;stroke-width:0.8;"/>
   </g>
   <g id="patch_4">
    <path d="M 414.72 307.584 
L 414.72 41.472 
" style="fill:none;stroke:#000000;stroke-linecap:square;stroke-linejoin:miter;stroke-width:0.8;"/>
   </g>
   <g id="patch_5">
    <path d="M 57.6 307.584 
L 414.72 307.584 
" style="fill:none;stroke:#000000;stroke-linecap:square;stroke-linejoin:miter;stroke-width:0.8;"/>
   </g>
   <g id="patch_6">
    <path d="M 57.6 41.472 
L 414.72 41.472 
" style="fill:none;stroke:#000000;stroke-linecap:square;stroke-linejoin:miter;stroke-width:0.8;"/>
   </g>
   <g id="text_12">
    <!-- -greedy agents -->
    <defs>
     <path d="M 19.28125 29.5 
Q 13.8125 30.671875 10.890625 33.84375 
Q 7.953125 36.96875 7.953125 41.5 
Q 7.953125 48.390625 13.53125 52.25 
Q 19.046875 56.0625 28.609375 56.0625 
Q 32.328125 56.0625 36.46875 55.46875 
Q 40.625 54.890625 45.40625 53.71875 
L 45.40625 45.5625 
Q 40.671875 46.96875 36.765625 47.609375 
Q 32.8125 48.25 29.34375 48.25 
Q 23.53125 48.25 20.171875 46 
Q 16.75 43.75 16.75 40.625 
Q 16.75 37.203125 20.0625 35.015625 
Q 23.34375 32.859375 29 32.859375 
L 36.578125 32.859375 
L 36.578125 25.4375 
L 29.34375 25.4375 
Q 22.65625 25.4375 19.140625 22.953125 
Q 15.328125 20.21875 15.328125 15.921875 
Q 15.328125 11.53125 19.4375 8.796875 
Q 23.578125 6.0625 30.953125 6.0625 
Q 35.5 6.0625 39.65625 6.9375 
Q 43.796875 7.859375 47.265625 9.671875 
L 47.265625 1.3125 
Q 42.875 -0.046875 38.765625 -0.734375 
Q 34.625 -1.421875 30.71875 -1.421875 
Q 19.09375 -1.421875 12.796875 3.03125 
Q 6.5 7.46875 6.5 15.921875 
Q 6.5 21.1875 9.859375 24.75 
Q 13.234375 28.328125 19.28125 29.5 
z
" id="DejaVuSans-3b5"/>
     <path d="M 4.890625 31.390625 
L 31.203125 31.390625 
L 31.203125 23.390625 
L 4.890625 23.390625 
z
" id="DejaVuSans-2d"/>
     <path d="M 32.171875 -5.078125 
Q 28.375 -14.84375 24.75 -17.8125 
Q 21.140625 -20.796875 15.09375 -20.796875 
L 7.90625 -20.796875 
L 7.90625 -13.28125 
L 13.1875 -13.28125 
Q 16.890625 -13.28125 18.9375 -11.515625 
Q 21 -9.765625 23.484375 -3.21875 
L 25.09375 0.875 
L 2.984375 54.6875 
L 12.5 54.6875 
L 29.59375 11.921875 
L 46.6875 54.6875 
L 56.203125 54.6875 
z
" id="DejaVuSans-79"/>
     <path d="M 54.890625 33.015625 
L 54.890625 0 
L 45.90625 0 
L 45.90625 32.71875 
Q 45.90625 40.484375 42.875 44.328125 
Q 39.84375 48.1875 33.796875 48.1875 
Q 26.515625 48.1875 22.3125 43.546875 
Q 18.109375 38.921875 18.109375 30.90625 
L 18.109375 0 
L 9.078125 0 
L 9.078125 54.6875 
L 18.109375 54.6875 
L 18.109375 46.1875 
Q 21.34375 51.125 25.703125 53.5625 
Q 30.078125 56 35.796875 56 
Q 45.21875 56 50.046875 50.171875 
Q 54.890625 44.34375 54.890625 33.015625 
z
" id="DejaVuSans-6e"/>
    </defs>
    <g transform="translate(187.369687 35.472)scale(0.12 -0.12)">
     <use xlink:href="#DejaVuSans-3b5"/>
     <use x="54.052734" xlink:href="#DejaVuSans-2d"/>
     <use x="90.136719" xlink:href="#DejaVuSans-67"/>
     <use x="153.613281" xlink:href="#DejaVuSans-72"/>
     <use x="194.695312" xlink:href="#DejaVuSans-65"/>
     <use x="256.21875" xlink:href="#DejaVuSans-65"/>
     <use x="317.742188" xlink:href="#DejaVuSans-64"/>
     <use x="381.21875" xlink:href="#DejaVuSans-79"/>
     <use x="440.398438" xlink:href="#DejaVuSans-20"/>
     <use x="472.185547" xlink:href="#DejaVuSans-61"/>
     <use x="533.464844" xlink:href="#DejaVuSans-67"/>
     <use x="596.941406" xlink:href="#DejaVuSans-65"/>
     <use x="658.464844" xlink:href="#DejaVuSans-6e"/>
     <use x="721.84375" xlink:href="#DejaVuSans-74"/>
     <use x="761.052734" xlink:href="#DejaVuSans-73"/>
    </g>
   </g>
   <g id="legend_1">
    <g id="patch_7">
     <path d="M 339.67 302.584 
L 407.72 302.584 
Q 409.72 302.584 409.72 300.584 
L 409.72 257.549625 
Q 409.72 255.549625 407.72 255.549625 
L 339.67 255.549625 
Q 337.67 255.549625 337.67 257.549625 
L 337.67 300.584 
Q 337.67 302.584 339.67 302.584 
z
" style="fill:#ffffff;opacity:0.8;stroke:#cccccc;stroke-linejoin:miter;"/>
    </g>
    <g id="line2d_13">
     <path d="M 341.67 263.648062 
L 361.67 263.648062 
" style="fill:none;stroke:#1f77b4;stroke-linecap:square;stroke-width:1.5;"/>
    </g>
    <g id="line2d_14"/>
    <g id="text_13">
     <!-- =0, -->
     <defs>
      <path d="M 10.59375 45.40625 
L 73.1875 45.40625 
L 73.1875 37.203125 
L 10.59375 37.203125 
z
M 10.59375 25.484375 
L 73.1875 25.484375 
L 73.1875 17.1875 
L 10.59375 17.1875 
z
" id="DejaVuSans-3d"/>
      <path d="M 11.71875 12.40625 
L 22.015625 12.40625 
L 22.015625 4 
L 14.015625 -11.625 
L 7.71875 -11.625 
L 11.71875 4 
z
" id="DejaVuSans-2c"/>
     </defs>
     <g transform="translate(369.67 267.148062)scale(0.1 -0.1)">
      <use xlink:href="#DejaVuSans-3b5"/>
      <use x="54.052734" xlink:href="#DejaVuSans-3d"/>
      <use x="137.841797" xlink:href="#DejaVuSans-30"/>
      <use x="201.464844" xlink:href="#DejaVuSans-2c"/>
     </g>
    </g>
    <g id="line2d_15">
     <path d="M 341.67 278.326188 
L 361.67 278.326188 
" style="fill:none;stroke:#ff7f0e;stroke-linecap:square;stroke-width:1.5;"/>
    </g>
    <g id="line2d_16"/>
    <g id="text_14">
     <!-- =0.01 -->
     <g transform="translate(369.67 281.826188)scale(0.1 -0.1)">
      <use xlink:href="#DejaVuSans-3b5"/>
      <use x="54.052734" xlink:href="#DejaVuSans-3d"/>
      <use x="137.841797" xlink:href="#DejaVuSans-30"/>
      <use x="201.464844" xlink:href="#DejaVuSans-2e"/>
      <use x="233.251953" xlink:href="#DejaVuSans-30"/>
      <use x="296.875" xlink:href="#DejaVuSans-31"/>
     </g>
    </g>
    <g id="line2d_17">
     <path d="M 341.67 293.004312 
L 361.67 293.004312 
" style="fill:none;stroke:#2ca02c;stroke-linecap:square;stroke-width:1.5;"/>
    </g>
    <g id="line2d_18"/>
    <g id="text_15">
     <!-- =0.1 -->
     <g transform="translate(369.67 296.504312)scale(0.1 -0.1)">
      <use xlink:href="#DejaVuSans-3b5"/>
      <use x="54.052734" xlink:href="#DejaVuSans-3d"/>
      <use x="137.841797" xlink:href="#DejaVuSans-30"/>
      <use x="201.464844" xlink:href="#DejaVuSans-2e"/>
      <use x="233.251953" xlink:href="#DejaVuSans-31"/>
     </g>
    </g>
   </g>
  </g>
 </g>
 <defs>
  <clipPath id="pad7a68a395">
   <rect height="266.112" width="357.12" x="57.6" y="41.472"/>
  </clipPath>
 </defs>
</svg>
