<?xml version="1.0" encoding="utf-8" standalone="no"?>
<!DOCTYPE svg PUBLIC "-//W3C//DTD SVG 1.1//EN"
  "http://www.w3.org/Graphics/SVG/1.1/DTD/svg11.dtd">
<!-- Created with matplotlib (http://matplotlib.org/) -->
<svg height="345.6pt" version="1.1" viewBox="0 0 460.8 345.6" width="460.8pt" xmlns="http://www.w3.org/2000/svg" xmlns:xlink="http://www.w3.org/1999/xlink">
 <defs>
  <style type="text/css">
*{stroke-linecap:butt;stroke-linejoin:round;}
  </style>
 </defs>
 <g id="figure_1">
  <g id="patch_1">
   <path d="M 0 345.6 
L 460.8 345.6 
L 460.8 0 
L 0 0 
z
" style="fill:#ffffff;"/>
  </g>
  <g id="axes_1">
   <g id="patch_2">
    <path d="M 57.6 307.584 
L 414.72 307.584 
L 414.72 41.472 
L 57.6 41.472 
z
" style="fill:#ffffff;"/>
   </g>
   <g id="matplotlib.axis_1">
    <g id="xtick_1">
     <g id="line2d_1">
      <defs>
       <path d="M 0 0 
L 0 3.5 
" id="mf785328b01" style="stroke:#000000;stroke-width:0.8;"/>
      </defs>
      <g>
       <use style="stroke:#000000;stroke-width:0.8;" x="73.832727" xlink:href="#mf785328b01" y="307.584"/>
      </g>
     </g>
     <g id="text_1">
      <!-- 0 -->
      <defs>
       <path d="M 31.78125 66.40625 
Q 24.171875 66.40625 20.328125 58.90625 
Q 16.5 51.421875 16.5 36.375 
Q 16.5 21.390625 20.328125 13.890625 
Q 24.171875 6.390625 31.78125 6.390625 
Q 39.453125 6.390625 43.28125 13.890625 
Q 47.125 21.390625 47.125 36.375 
Q 47.125 51.421875 43.28125 58.90625 
Q 39.453125 66.40625 31.78125 66.40625 
z
M 31.78125 74.21875 
Q 44.046875 74.21875 50.515625 64.515625 
Q 56.984375 54.828125 56.984375 36.375 
Q 56.984375 17.96875 50.515625 8.265625 
Q 44.046875 -1.421875 31.78125 -1.421875 
Q 19.53125 -1.421875 13.0625 8.265625 
Q 6.59375 17.96875 6.59375 36.375 
Q 6.59375 54.828125 13.0625 64.515625 
Q 19.53125 74.21875 31.78125 74.21875 
z
" id="DejaVuSans-30"/>
      </defs>
      <g transform="translate(70.651477 322.182437)scale(0.1 -0.1)">
       <use xlink:href="#DejaVuSans-30"/>
      </g>
     </g>
    </g>
    <g id="xtick_2">
     <g id="line2d_2">
      <g>
       <use style="stroke:#000000;stroke-width:0.8;" x="155.077609" xlink:href="#mf785328b01" y="307.584"/>
      </g>
     </g>
     <g id="text_2">
      <!-- 250 -->
      <defs>
       <path d="M 19.1875 8.296875 
L 53.609375 8.296875 
L 53.609375 0 
L 7.328125 0 
L 7.328125 8.296875 
Q 12.9375 14.109375 22.625 23.890625 
Q 32.328125 33.6875 34.8125 36.53125 
Q 39.546875 41.84375 41.421875 45.53125 
Q 43.3125 49.21875 43.3125 52.78125 
Q 43.3125 58.59375 39.234375 62.25 
Q 35.15625 65.921875 28.609375 65.921875 
Q 23.96875 65.921875 18.8125 64.3125 
Q 13.671875 62.703125 7.8125 59.421875 
L 7.8125 69.390625 
Q 13.765625 71.78125 18.9375 73 
Q 24.125 74.21875 28.421875 74.21875 
Q 39.75 74.21875 46.484375 68.546875 
Q 53.21875 62.890625 53.21875 53.421875 
Q 53.21875 48.921875 51.53125 44.890625 
Q 49.859375 40.875 45.40625 35.40625 
Q 44.1875 33.984375 37.640625 27.21875 
Q 31.109375 20.453125 19.1875 8.296875 
z
" id="DejaVuSans-32"/>
       <path d="M 10.796875 72.90625 
L 49.515625 72.90625 
L 49.515625 64.59375 
L 19.828125 64.59375 
L 19.828125 46.734375 
Q 21.96875 47.46875 24.109375 47.828125 
Q 26.265625 48.1875 28.421875 48.1875 
Q 40.625 48.1875 47.75 41.5 
Q 54.890625 34.8125 54.890625 23.390625 
Q 54.890625 11.625 47.5625 5.09375 
Q 40.234375 -1.421875 26.90625 -1.421875 
Q 22.3125 -1.421875 17.546875 -0.640625 
Q 12.796875 0.140625 7.71875 1.703125 
L 7.71875 11.625 
Q 12.109375 9.234375 16.796875 8.0625 
Q 21.484375 6.890625 26.703125 6.890625 
Q 35.15625 6.890625 40.078125 11.328125 
Q 45.015625 15.765625 45.015625 23.390625 
Q 45.015625 31 40.078125 35.4375 
Q 35.15625 39.890625 26.703125 39.890625 
Q 22.75 39.890625 18.8125 39.015625 
Q 14.890625 38.140625 10.796875 36.28125 
z
" id="DejaVuSans-35"/>
      </defs>
      <g transform="translate(145.533859 322.182437)scale(0.1 -0.1)">
       <use xlink:href="#DejaVuSans-32"/>
       <use x="63.623047" xlink:href="#DejaVuSans-35"/>
       <use x="127.246094" xlink:href="#DejaVuSans-30"/>
      </g>
     </g>
    </g>
    <g id="xtick_3">
     <g id="line2d_3">
      <g>
       <use style="stroke:#000000;stroke-width:0.8;" x="236.32249" xlink:href="#mf785328b01" y="307.584"/>
      </g>
     </g>
     <g id="text_3">
      <!-- 500 -->
      <g transform="translate(226.77874 322.182437)scale(0.1 -0.1)">
       <use xlink:href="#DejaVuSans-35"/>
       <use x="63.623047" xlink:href="#DejaVuSans-30"/>
       <use x="127.246094" xlink:href="#DejaVuSans-30"/>
      </g>
     </g>
    </g>
    <g id="xtick_4">
     <g id="line2d_4">
      <g>
       <use style="stroke:#000000;stroke-width:0.8;" x="317.567371" xlink:href="#mf785328b01" y="307.584"/>
      </g>
     </g>
     <g id="text_4">
      <!-- 750 -->
      <defs>
       <path d="M 8.203125 72.90625 
L 55.078125 72.90625 
L 55.078125 68.703125 
L 28.609375 0 
L 18.3125 0 
L 43.21875 64.59375 
L 8.203125 64.59375 
z
" id="DejaVuSans-37"/>
      </defs>
      <g transform="translate(308.023621 322.182437)scale(0.1 -0.1)">
       <use xlink:href="#DejaVuSans-37"/>
       <use x="63.623047" xlink:href="#DejaVuSans-35"/>
       <use x="127.246094" xlink:href="#DejaVuSans-30"/>
      </g>
     </g>
    </g>
    <g id="xtick_5">
     <g id="line2d_5">
      <g>
       <use style="stroke:#000000;stroke-width:0.8;" x="398.812252" xlink:href="#mf785328b01" y="307.584"/>
      </g>
     </g>
     <g id="text_5">
      <!-- 1000 -->
      <defs>
       <path d="M 12.40625 8.296875 
L 28.515625 8.296875 
L 28.515625 63.921875 
L 10.984375 60.40625 
L 10.984375 69.390625 
L 28.421875 72.90625 
L 38.28125 72.90625 
L 38.28125 8.296875 
L 54.390625 8.296875 
L 54.390625 0 
L 12.40625 0 
z
" id="DejaVuSans-31"/>
      </defs>
      <g transform="translate(386.087252 322.182437)scale(0.1 -0.1)">
       <use xlink:href="#DejaVuSans-31"/>
       <use x="63.623047" xlink:href="#DejaVuSans-30"/>
       <use x="127.246094" xlink:href="#DejaVuSans-30"/>
       <use x="190.869141" xlink:href="#DejaVuSans-30"/>
      </g>
     </g>
    </g>
    <g id="text_6">
     <!-- Steps -->
     <defs>
      <path d="M 53.515625 70.515625 
L 53.515625 60.890625 
Q 47.90625 63.578125 42.921875 64.890625 
Q 37.9375 66.21875 33.296875 66.21875 
Q 25.25 66.21875 20.875 63.09375 
Q 16.5 59.96875 16.5 54.203125 
Q 16.5 49.359375 19.40625 46.890625 
Q 22.3125 44.4375 30.421875 42.921875 
L 36.375 41.703125 
Q 47.40625 39.59375 52.65625 34.296875 
Q 57.90625 29 57.90625 20.125 
Q 57.90625 9.515625 50.796875 4.046875 
Q 43.703125 -1.421875 29.984375 -1.421875 
Q 24.8125 -1.421875 18.96875 -0.25 
Q 13.140625 0.921875 6.890625 3.21875 
L 6.890625 13.375 
Q 12.890625 10.015625 18.65625 8.296875 
Q 24.421875 6.59375 29.984375 6.59375 
Q 38.421875 6.59375 43.015625 9.90625 
Q 47.609375 13.234375 47.609375 19.390625 
Q 47.609375 24.75 44.3125 27.78125 
Q 41.015625 30.8125 33.5 32.328125 
L 27.484375 33.5 
Q 16.453125 35.6875 11.515625 40.375 
Q 6.59375 45.0625 6.59375 53.421875 
Q 6.59375 63.09375 13.40625 68.65625 
Q 20.21875 74.21875 32.171875 74.21875 
Q 37.3125 74.21875 42.625 73.28125 
Q 47.953125 72.359375 53.515625 70.515625 
z
" id="DejaVuSans-53"/>
      <path d="M 18.3125 70.21875 
L 18.3125 54.6875 
L 36.8125 54.6875 
L 36.8125 47.703125 
L 18.3125 47.703125 
L 18.3125 18.015625 
Q 18.3125 11.328125 20.140625 9.421875 
Q 21.96875 7.515625 27.59375 7.515625 
L 36.8125 7.515625 
L 36.8125 0 
L 27.59375 0 
Q 17.1875 0 13.234375 3.875 
Q 9.28125 7.765625 9.28125 18.015625 
L 9.28125 47.703125 
L 2.6875 47.703125 
L 2.6875 54.6875 
L 9.28125 54.6875 
L 9.28125 70.21875 
z
" id="DejaVuSans-74"/>
      <path d="M 56.203125 29.59375 
L 56.203125 25.203125 
L 14.890625 25.203125 
Q 15.484375 15.921875 20.484375 11.0625 
Q 25.484375 6.203125 34.421875 6.203125 
Q 39.59375 6.203125 44.453125 7.46875 
Q 49.3125 8.734375 54.109375 11.28125 
L 54.109375 2.78125 
Q 49.265625 0.734375 44.1875 -0.34375 
Q 39.109375 -1.421875 33.890625 -1.421875 
Q 20.796875 -1.421875 13.15625 6.1875 
Q 5.515625 13.8125 5.515625 26.8125 
Q 5.515625 40.234375 12.765625 48.109375 
Q 20.015625 56 32.328125 56 
Q 43.359375 56 49.78125 48.890625 
Q 56.203125 41.796875 56.203125 29.59375 
z
M 47.21875 32.234375 
Q 47.125 39.59375 43.09375 43.984375 
Q 39.0625 48.390625 32.421875 48.390625 
Q 24.90625 48.390625 20.390625 44.140625 
Q 15.875 39.890625 15.1875 32.171875 
z
" id="DejaVuSans-65"/>
      <path d="M 18.109375 8.203125 
L 18.109375 -20.796875 
L 9.078125 -20.796875 
L 9.078125 54.6875 
L 18.109375 54.6875 
L 18.109375 46.390625 
Q 20.953125 51.265625 25.265625 53.625 
Q 29.59375 56 35.59375 56 
Q 45.5625 56 51.78125 48.09375 
Q 58.015625 40.1875 58.015625 27.296875 
Q 58.015625 14.40625 51.78125 6.484375 
Q 45.5625 -1.421875 35.59375 -1.421875 
Q 29.59375 -1.421875 25.265625 0.953125 
Q 20.953125 3.328125 18.109375 8.203125 
z
M 48.6875 27.296875 
Q 48.6875 37.203125 44.609375 42.84375 
Q 40.53125 48.484375 33.40625 48.484375 
Q 26.265625 48.484375 22.1875 42.84375 
Q 18.109375 37.203125 18.109375 27.296875 
Q 18.109375 17.390625 22.1875 11.75 
Q 26.265625 6.109375 33.40625 6.109375 
Q 40.53125 6.109375 44.609375 11.75 
Q 48.6875 17.390625 48.6875 27.296875 
z
" id="DejaVuSans-70"/>
      <path d="M 44.28125 53.078125 
L 44.28125 44.578125 
Q 40.484375 46.53125 36.375 47.5 
Q 32.28125 48.484375 27.875 48.484375 
Q 21.1875 48.484375 17.84375 46.4375 
Q 14.5 44.390625 14.5 40.28125 
Q 14.5 37.15625 16.890625 35.375 
Q 19.28125 33.59375 26.515625 31.984375 
L 29.59375 31.296875 
Q 39.15625 29.25 43.1875 25.515625 
Q 47.21875 21.78125 47.21875 15.09375 
Q 47.21875 7.46875 41.1875 3.015625 
Q 35.15625 -1.421875 24.609375 -1.421875 
Q 20.21875 -1.421875 15.453125 -0.5625 
Q 10.6875 0.296875 5.421875 2 
L 5.421875 11.28125 
Q 10.40625 8.6875 15.234375 7.390625 
Q 20.0625 6.109375 24.8125 6.109375 
Q 31.15625 6.109375 34.5625 8.28125 
Q 37.984375 10.453125 37.984375 14.40625 
Q 37.984375 18.0625 35.515625 20.015625 
Q 33.0625 21.96875 24.703125 23.78125 
L 21.578125 24.515625 
Q 13.234375 26.265625 9.515625 29.90625 
Q 5.8125 33.546875 5.8125 39.890625 
Q 5.8125 47.609375 11.28125 51.796875 
Q 16.75 56 26.8125 56 
Q 31.78125 56 36.171875 55.265625 
Q 40.578125 54.546875 44.28125 53.078125 
z
" id="DejaVuSans-73"/>
     </defs>
     <g transform="translate(222.170156 335.860562)scale(0.1 -0.1)">
      <use xlink:href="#DejaVuSans-53"/>
      <use x="63.476562" xlink:href="#DejaVuSans-74"/>
      <use x="102.685547" xlink:href="#DejaVuSans-65"/>
      <use x="164.208984" xlink:href="#DejaVuSans-70"/>
      <use x="227.685547" xlink:href="#DejaVuSans-73"/>
     </g>
    </g>
   </g>
   <g id="matplotlib.axis_2">
    <g id="ytick_1">
     <g id="line2d_6">
      <defs>
       <path d="M 0 0 
L -3.5 0 
" id="m3a66d67604" style="stroke:#000000;stroke-width:0.8;"/>
      </defs>
      <g>
       <use style="stroke:#000000;stroke-width:0.8;" x="57.6" xlink:href="#m3a66d67604" y="293.611847"/>
      </g>
     </g>
     <g id="text_7">
      <!-- 0.0 -->
      <defs>
       <path d="M 10.6875 12.40625 
L 21 12.40625 
L 21 0 
L 10.6875 0 
z
" id="DejaVuSans-2e"/>
      </defs>
      <g transform="translate(34.696875 297.411066)scale(0.1 -0.1)">
       <use xlink:href="#DejaVuSans-30"/>
       <use x="63.623047" xlink:href="#DejaVuSans-2e"/>
       <use x="95.410156" xlink:href="#DejaVuSans-30"/>
      </g>
     </g>
    </g>
    <g id="ytick_2">
     <g id="line2d_7">
      <g>
       <use style="stroke:#000000;stroke-width:0.8;" x="57.6" xlink:href="#m3a66d67604" y="211.064345"/>
      </g>
     </g>
     <g id="text_8">
      <!-- 0.5 -->
      <g transform="translate(34.696875 214.863563)scale(0.1 -0.1)">
       <use xlink:href="#DejaVuSans-30"/>
       <use x="63.623047" xlink:href="#DejaVuSans-2e"/>
       <use x="95.410156" xlink:href="#DejaVuSans-35"/>
      </g>
     </g>
    </g>
    <g id="ytick_3">
     <g id="line2d_8">
      <g>
       <use style="stroke:#000000;stroke-width:0.8;" x="57.6" xlink:href="#m3a66d67604" y="128.516842"/>
      </g>
     </g>
     <g id="text_9">
      <!-- 1.0 -->
      <g transform="translate(34.696875 132.31606)scale(0.1 -0.1)">
       <use xlink:href="#DejaVuSans-31"/>
       <use x="63.623047" xlink:href="#DejaVuSans-2e"/>
       <use x="95.410156" xlink:href="#DejaVuSans-30"/>
      </g>
     </g>
    </g>
    <g id="ytick_4">
     <g id="line2d_9">
      <g>
       <use style="stroke:#000000;stroke-width:0.8;" x="57.6" xlink:href="#m3a66d67604" y="45.969339"/>
      </g>
     </g>
     <g id="text_10">
      <!-- 1.5 -->
      <g transform="translate(34.696875 49.768557)scale(0.1 -0.1)">
       <use xlink:href="#DejaVuSans-31"/>
       <use x="63.623047" xlink:href="#DejaVuSans-2e"/>
       <use x="95.410156" xlink:href="#DejaVuSans-35"/>
      </g>
     </g>
    </g>
    <g id="text_11">
     <!-- Average reward -->
     <defs>
      <path d="M 34.1875 63.1875 
L 20.796875 26.90625 
L 47.609375 26.90625 
z
M 28.609375 72.90625 
L 39.796875 72.90625 
L 67.578125 0 
L 57.328125 0 
L 50.6875 18.703125 
L 17.828125 18.703125 
L 11.1875 0 
L 0.78125 0 
z
" id="DejaVuSans-41"/>
      <path d="M 2.984375 54.6875 
L 12.5 54.6875 
L 29.59375 8.796875 
L 46.6875 54.6875 
L 56.203125 54.6875 
L 35.6875 0 
L 23.484375 0 
z
" id="DejaVuSans-76"/>
      <path d="M 41.109375 46.296875 
Q 39.59375 47.171875 37.8125 47.578125 
Q 36.03125 48 33.890625 48 
Q 26.265625 48 22.1875 43.046875 
Q 18.109375 38.09375 18.109375 28.8125 
L 18.109375 0 
L 9.078125 0 
L 9.078125 54.6875 
L 18.109375 54.6875 
L 18.109375 46.1875 
Q 20.953125 51.171875 25.484375 53.578125 
Q 30.03125 56 36.53125 56 
Q 37.453125 56 38.578125 55.875 
Q 39.703125 55.765625 41.0625 55.515625 
z
" id="DejaVuSans-72"/>
      <path d="M 34.28125 27.484375 
Q 23.390625 27.484375 19.1875 25 
Q 14.984375 22.515625 14.984375 16.5 
Q 14.984375 11.71875 18.140625 8.90625 
Q 21.296875 6.109375 26.703125 6.109375 
Q 34.1875 6.109375 38.703125 11.40625 
Q 43.21875 16.703125 43.21875 25.484375 
L 43.21875 27.484375 
z
M 52.203125 31.203125 
L 52.203125 0 
L 43.21875 0 
L 43.21875 8.296875 
Q 40.140625 3.328125 35.546875 0.953125 
Q 30.953125 -1.421875 24.3125 -1.421875 
Q 15.921875 -1.421875 10.953125 3.296875 
Q 6 8.015625 6 15.921875 
Q 6 25.140625 12.171875 29.828125 
Q 18.359375 34.515625 30.609375 34.515625 
L 43.21875 34.515625 
L 43.21875 35.40625 
Q 43.21875 41.609375 39.140625 45 
Q 35.0625 48.390625 27.6875 48.390625 
Q 23 48.390625 18.546875 47.265625 
Q 14.109375 46.140625 10.015625 43.890625 
L 10.015625 52.203125 
Q 14.9375 54.109375 19.578125 55.046875 
Q 24.21875 56 28.609375 56 
Q 40.484375 56 46.34375 49.84375 
Q 52.203125 43.703125 52.203125 31.203125 
z
" id="DejaVuSans-61"/>
      <path d="M 45.40625 27.984375 
Q 45.40625 37.75 41.375 43.109375 
Q 37.359375 48.484375 30.078125 48.484375 
Q 22.859375 48.484375 18.828125 43.109375 
Q 14.796875 37.75 14.796875 27.984375 
Q 14.796875 18.265625 18.828125 12.890625 
Q 22.859375 7.515625 30.078125 7.515625 
Q 37.359375 7.515625 41.375 12.890625 
Q 45.40625 18.265625 45.40625 27.984375 
z
M 54.390625 6.78125 
Q 54.390625 -7.171875 48.1875 -13.984375 
Q 42 -20.796875 29.203125 -20.796875 
Q 24.46875 -20.796875 20.265625 -20.09375 
Q 16.0625 -19.390625 12.109375 -17.921875 
L 12.109375 -9.1875 
Q 16.0625 -11.328125 19.921875 -12.34375 
Q 23.78125 -13.375 27.78125 -13.375 
Q 36.625 -13.375 41.015625 -8.765625 
Q 45.40625 -4.15625 45.40625 5.171875 
L 45.40625 9.625 
Q 42.625 4.78125 38.28125 2.390625 
Q 33.9375 0 27.875 0 
Q 17.828125 0 11.671875 7.65625 
Q 5.515625 15.328125 5.515625 27.984375 
Q 5.515625 40.671875 11.671875 48.328125 
Q 17.828125 56 27.875 56 
Q 33.9375 56 38.28125 53.609375 
Q 42.625 51.21875 45.40625 46.390625 
L 45.40625 54.6875 
L 54.390625 54.6875 
z
" id="DejaVuSans-67"/>
      <path id="DejaVuSans-20"/>
      <path d="M 4.203125 54.6875 
L 13.1875 54.6875 
L 24.421875 12.015625 
L 35.59375 54.6875 
L 46.1875 54.6875 
L 57.421875 12.015625 
L 68.609375 54.6875 
L 77.59375 54.6875 
L 63.28125 0 
L 52.6875 0 
L 40.921875 44.828125 
L 29.109375 0 
L 18.5 0 
z
" id="DejaVuSans-77"/>
      <path d="M 45.40625 46.390625 
L 45.40625 75.984375 
L 54.390625 75.984375 
L 54.390625 0 
L 45.40625 0 
L 45.40625 8.203125 
Q 42.578125 3.328125 38.25 0.953125 
Q 33.9375 -1.421875 27.875 -1.421875 
Q 17.96875 -1.421875 11.734375 6.484375 
Q 5.515625 14.40625 5.515625 27.296875 
Q 5.515625 40.1875 11.734375 48.09375 
Q 17.96875 56 27.875 56 
Q 33.9375 56 38.25 53.625 
Q 42.578125 51.265625 45.40625 46.390625 
z
M 14.796875 27.296875 
Q 14.796875 17.390625 18.875 11.75 
Q 22.953125 6.109375 30.078125 6.109375 
Q 37.203125 6.109375 41.296875 11.75 
Q 45.40625 17.390625 45.40625 27.296875 
Q 45.40625 37.203125 41.296875 42.84375 
Q 37.203125 48.484375 30.078125 48.484375 
Q 22.953125 48.484375 18.875 42.84375 
Q 14.796875 37.203125 14.796875 27.296875 
z
" id="DejaVuSans-64"/>
     </defs>
     <g transform="translate(28.617187 214.452219)rotate(-90)scale(0.1 -0.1)">
      <use xlink:href="#DejaVuSans-41"/>
      <use x="68.330078" xlink:href="#DejaVuSans-76"/>
      <use x="127.509766" xlink:href="#DejaVuSans-65"/>
      <use x="189.033203" xlink:href="#DejaVuSans-72"/>
      <use x="230.146484" xlink:href="#DejaVuSans-61"/>
      <use x="291.425781" xlink:href="#DejaVuSans-67"/>
      <use x="354.902344" xlink:href="#DejaVuSans-65"/>
      <use x="416.425781" xlink:href="#DejaVuSans-20"/>
      <use x="448.212891" xlink:href="#DejaVuSans-72"/>
      <use x="489.294922" xlink:href="#DejaVuSans-65"/>
      <use x="550.818359" xlink:href="#DejaVuSans-77"/>
      <use x="632.605469" xlink:href="#DejaVuSans-61"/>
      <use x="693.884766" xlink:href="#DejaVuSans-72"/>
      <use x="734.982422" xlink:href="#DejaVuSans-64"/>
     </g>
    </g>
   </g>
   <g id="line2d_10">
    <path clip-path="url(#pdf950a2a79)" d="M 73.832727 294.936108 
L 74.157707 242.947616 
L 74.482686 218.235926 
L 75.782604 167.17483 
L 76.107584 167.755356 
L 76.432563 162.848712 
L 76.757543 153.968285 
L 77.082523 156.214235 
L 77.407502 150.803574 
L 77.732482 149.650443 
L 78.057461 142.81592 
L 78.382441 142.494128 
L 78.70742 139.769658 
L 79.0324 148.637872 
L 79.357379 141.211487 
L 79.682359 136.979876 
L 80.007338 135.432577 
L 80.332318 135.080457 
L 80.657297 138.171306 
L 80.982277 138.719389 
L 81.307256 135.402603 
L 81.632236 136.970036 
L 81.957215 128.627714 
L 82.282195 128.785475 
L 82.607174 129.627393 
L 82.932154 127.09793 
L 83.257133 127.564701 
L 83.582113 136.722431 
L 83.907093 129.263957 
L 84.232072 129.896411 
L 84.557052 125.089873 
L 85.207011 128.616456 
L 85.53199 127.178838 
L 85.85697 126.791716 
L 86.181949 132.409312 
L 86.831908 129.875519 
L 87.156888 132.699673 
L 87.481867 131.40673 
L 87.806847 122.736928 
L 88.131826 134.111627 
L 88.456806 140.324195 
L 88.781785 134.036634 
L 89.106765 133.654569 
L 89.756724 125.125633 
L 90.081704 131.180892 
L 90.406683 123.36764 
L 90.731663 126.59969 
L 91.056642 126.339351 
L 91.381622 131.039967 
L 91.706601 129.554367 
L 92.031581 126.791204 
L 92.35656 128.556528 
L 92.68154 124.840772 
L 93.006519 125.240392 
L 93.331499 128.677605 
L 93.656478 120.235884 
L 93.981458 124.871533 
L 94.306437 123.661771 
L 94.631417 124.103665 
L 94.956396 120.779962 
L 95.281376 129.211064 
L 95.606355 123.977963 
L 95.931335 128.315684 
L 96.256314 118.843995 
L 96.581294 131.019174 
L 96.906274 127.635848 
L 97.231253 121.157637 
L 97.556233 136.150171 
L 97.881212 128.512295 
L 98.206192 124.581969 
L 98.531171 127.320147 
L 98.856151 127.868554 
L 99.18113 128.83456 
L 99.50611 125.211933 
L 99.831089 127.243588 
L 100.156069 128.420405 
L 100.481048 126.519353 
L 100.806028 132.429691 
L 101.131007 121.640409 
L 101.455987 124.743549 
L 101.780966 123.558328 
L 102.105946 128.013346 
L 102.430925 127.257936 
L 102.755905 119.286676 
L 103.080885 129.925263 
L 103.405864 122.822166 
L 103.730844 127.324418 
L 104.055823 121.295029 
L 104.380803 126.975752 
L 104.705782 121.030558 
L 105.030762 124.088609 
L 105.355741 128.517324 
L 105.680721 126.903759 
L 106.0057 128.36459 
L 106.33068 120.225965 
L 106.655659 124.905286 
L 106.980639 127.156009 
L 107.305618 125.939968 
L 107.630598 123.417236 
L 108.280557 130.440153 
L 108.605536 127.710399 
L 108.930516 122.13367 
L 109.255495 127.057368 
L 109.580475 126.412269 
L 109.905455 127.244828 
L 110.230434 126.800907 
L 110.555414 124.210276 
L 110.880393 131.869663 
L 111.205373 126.090526 
L 111.530352 126.053034 
L 111.855332 118.640534 
L 112.180311 122.212197 
L 112.505291 124.2187 
L 112.83027 117.558422 
L 113.480229 127.161815 
L 114.130188 128.341308 
L 114.780147 125.070782 
L 115.105127 129.779408 
L 115.430106 122.315383 
L 115.755086 126.036424 
L 116.080066 121.104263 
L 116.405045 123.877296 
L 116.730025 129.908121 
L 117.055004 121.733401 
L 117.379984 124.900563 
L 117.704963 121.354505 
L 118.029943 123.616997 
L 118.354922 127.32117 
L 118.679902 123.235326 
L 119.004881 122.543918 
L 119.329861 125.130533 
L 119.65484 130.049046 
L 119.97982 126.31229 
L 120.304799 127.194583 
L 120.629779 123.026532 
L 120.954758 123.150954 
L 121.279738 128.98004 
L 121.604717 126.336399 
L 121.929697 124.99139 
L 122.254676 123.055266 
L 122.579656 127.482593 
L 122.904636 126.603252 
L 123.229615 126.765344 
L 123.554595 124.446742 
L 123.879574 126.168955 
L 124.204554 123.992468 
L 124.529533 131.520121 
L 124.854513 123.581886 
L 125.179492 127.023202 
L 125.504472 129.159244 
L 125.829451 120.646486 
L 126.154431 120.562823 
L 126.47941 128.231804 
L 126.80439 129.373107 
L 127.129369 126.934048 
L 127.454349 119.917802 
L 127.779328 124.204333 
L 128.104308 123.701644 
L 128.429287 118.813037 
L 128.754267 126.984018 
L 129.079247 114.685489 
L 129.404226 126.497428 
L 129.729206 128.93014 
L 130.054185 126.570602 
L 130.379165 127.11584 
L 130.704144 129.485957 
L 131.029124 122.288932 
L 131.354103 125.445624 
L 131.679083 129.910345 
L 132.004062 121.080567 
L 132.329042 126.986281 
L 132.654021 129.462448 
L 132.979001 124.5899 
L 133.30398 126.462928 
L 133.62896 129.775373 
L 133.953939 124.181188 
L 134.278919 125.762072 
L 134.603898 123.766453 
L 134.928878 122.960778 
L 135.253857 135.262357 
L 135.578837 127.804847 
L 135.903817 124.710623 
L 136.228796 122.867412 
L 136.553776 129.273384 
L 136.878755 125.659516 
L 137.203735 126.766603 
L 137.528714 127.241345 
L 137.853694 123.118343 
L 138.178673 128.338238 
L 138.503653 124.560595 
L 138.828632 124.023072 
L 139.153612 125.319844 
L 139.478591 128.62549 
L 139.803571 122.452972 
L 140.12855 127.252799 
L 140.45353 126.425495 
L 140.778509 131.435454 
L 141.103489 126.8297 
L 141.428468 128.299486 
L 141.753448 125.631608 
L 142.078428 129.966465 
L 142.403407 129.167018 
L 142.728387 132.035071 
L 143.378346 123.709359 
L 144.028305 129.351418 
L 144.353284 120.221222 
L 144.678264 126.926727 
L 145.003243 128.128302 
L 145.328223 123.780643 
L 145.653202 123.859445 
L 145.978182 127.918583 
L 146.303161 124.866849 
L 146.628141 125.952937 
L 146.95312 122.746749 
L 147.2781 126.786835 
L 147.928059 122.286453 
L 148.253038 125.350644 
L 148.578018 122.875737 
L 148.902998 123.59584 
L 149.227977 123.720361 
L 149.877936 126.476921 
L 150.202916 124.908533 
L 150.527895 130.327028 
L 150.852875 122.480152 
L 151.177854 126.272299 
L 151.827813 128.262132 
L 152.152793 124.290672 
L 152.477772 123.890541 
L 152.802752 126.984746 
L 153.127731 127.675839 
L 153.77769 120.911233 
L 154.10267 125.804406 
L 154.427649 119.36046 
L 154.752629 120.600452 
L 155.077609 124.295396 
L 155.402588 126.428525 
L 155.727568 115.773092 
L 156.052547 129.109157 
L 156.377527 125.286681 
L 156.702506 125.423995 
L 157.027486 124.800052 
L 157.352465 123.497613 
L 157.677445 121.085743 
L 158.002424 133.763532 
L 158.327404 124.66146 
L 158.652383 130.929548 
L 158.977363 124.402952 
L 159.302342 123.290039 
L 159.627322 124.215551 
L 159.952301 126.51396 
L 160.277281 126.49731 
L 160.60226 117.625573 
L 160.92724 126.045005 
L 161.252219 123.390706 
L 161.577199 124.040981 
L 161.902179 128.358824 
L 162.227158 123.560572 
L 162.552138 126.710198 
L 162.877117 126.030244 
L 163.202097 124.679468 
L 163.527076 127.312334 
L 163.852056 122.677826 
L 164.177035 127.371986 
L 164.502015 122.2539 
L 164.826994 121.310105 
L 165.151974 124.770433 
L 165.476953 125.140886 
L 165.801933 124.653548 
L 166.126912 134.594566 
L 166.451892 125.526788 
L 166.776871 126.820804 
L 167.101851 126.195465 
L 167.75181 128.512551 
L 168.07679 124.240467 
L 168.401769 125.648986 
L 169.051728 120.166253 
L 169.376708 123.321922 
L 169.701687 131.007474 
L 170.026667 120.862877 
L 170.351646 130.100423 
L 170.676626 125.853903 
L 171.001605 124.852718 
L 171.326585 124.772873 
L 171.651564 129.687961 
L 171.976544 122.328707 
L 172.301523 129.571066 
L 172.626503 126.350786 
L 172.951482 121.577883 
L 173.276462 127.671588 
L 173.601441 121.914839 
L 173.926421 127.055813 
L 174.2514 122.490327 
L 174.57638 129.583987 
L 174.90136 125.523796 
L 175.226339 125.357769 
L 175.551319 128.51509 
L 175.876298 125.59449 
L 176.201278 125.543536 
L 176.526257 124.008075 
L 176.851237 124.393466 
L 177.176216 118.555966 
L 177.501196 125.545544 
L 177.826175 124.279789 
L 178.151155 123.633548 
L 178.476134 129.377732 
L 178.801114 121.014557 
L 179.126093 118.741674 
L 179.451073 126.365291 
L 179.776052 119.221395 
L 180.101032 127.023143 
L 180.426011 126.227663 
L 180.750991 120.862582 
L 181.40095 127.045009 
L 181.72593 126.851506 
L 182.050909 120.628399 
L 182.375889 128.261089 
L 182.700868 124.255916 
L 183.025848 126.546552 
L 183.350827 124.522533 
L 183.675807 129.947197 
L 184.000786 125.902417 
L 184.325766 129.235449 
L 184.650745 123.838406 
L 184.975725 124.012621 
L 185.300704 128.841044 
L 185.625684 128.670756 
L 185.950663 125.095462 
L 186.275643 126.510103 
L 186.600622 126.974413 
L 186.925602 124.414741 
L 187.575561 122.114009 
L 187.900541 127.258428 
L 188.22552 130.197056 
L 188.5505 123.149576 
L 188.875479 129.392069 
L 189.200459 124.553373 
L 189.525438 123.049224 
L 189.850418 127.320127 
L 190.175397 121.107845 
L 190.500377 127.438488 
L 190.825356 128.110393 
L 191.150336 123.755983 
L 191.475315 122.623743 
L 192.125274 126.527737 
L 192.450254 125.666364 
L 192.775233 121.132013 
L 193.100213 130.384378 
L 193.750172 119.861259 
L 194.075152 130.185365 
L 194.400131 118.07097 
L 194.725111 124.047299 
L 195.05009 132.086654 
L 195.37507 125.170427 
L 195.700049 121.155866 
L 196.025029 129.172608 
L 196.350008 129.559238 
L 196.674988 128.679425 
L 196.999967 129.73922 
L 197.324947 126.049452 
L 197.649926 124.987749 
L 197.974906 128.048929 
L 198.299885 120.300182 
L 198.624865 129.065485 
L 198.949844 126.537026 
L 199.274824 134.071488 
L 199.599803 127.975244 
L 199.924783 128.584298 
L 200.249762 124.507831 
L 200.574742 123.915024 
L 200.899722 127.613589 
L 201.224701 127.473638 
L 201.549681 128.849438 
L 201.87466 127.144141 
L 202.19964 124.190871 
L 202.524619 123.116926 
L 202.849599 131.511314 
L 203.174578 124.395552 
L 203.499558 130.055235 
L 203.824537 129.4 
L 204.149517 126.225931 
L 204.474496 130.067782 
L 204.799476 125.679531 
L 205.124455 127.621933 
L 205.449435 125.272531 
L 205.774414 130.926428 
L 206.099394 129.932909 
L 206.424373 127.864087 
L 206.749353 128.485844 
L 207.074333 129.482867 
L 207.724292 121.597977 
L 208.049271 128.340875 
L 208.374251 126.003576 
L 208.69923 122.666214 
L 209.02421 127.111805 
L 209.349189 124.883047 
L 209.674169 132.00794 
L 209.999148 118.234597 
L 210.324128 127.137036 
L 210.649107 128.0692 
L 210.974087 128.04151 
L 211.299066 124.003804 
L 211.624046 126.254448 
L 211.949025 125.605078 
L 212.274005 126.570109 
L 212.598984 121.566842 
L 213.248943 126.49979 
L 213.573923 120.896846 
L 213.898903 119.92471 
L 214.223882 126.189423 
L 214.548862 124.850534 
L 214.873841 127.295802 
L 215.198821 123.708847 
L 215.84878 130.019141 
L 216.173759 122.494499 
L 216.498739 128.095061 
L 216.823718 130.441492 
L 217.148698 123.713059 
L 217.473677 132.232204 
L 217.798657 124.398917 
L 218.123636 125.154977 
L 218.448616 122.77381 
L 218.773595 123.469548 
L 219.098575 124.524028 
L 219.423554 122.526028 
L 220.073514 133.509019 
L 220.398493 122.470685 
L 220.723473 123.592179 
L 221.048452 126.578297 
L 221.373432 127.930824 
L 221.698411 125.688132 
L 222.023391 130.326093 
L 222.34837 123.174118 
L 222.67335 124.308464 
L 222.998329 123.29734 
L 223.323309 125.916311 
L 223.648288 125.917335 
L 224.298247 129.4549 
L 224.623227 122.306999 
L 225.273186 128.249497 
L 225.598165 126.453579 
L 225.923145 119.72367 
L 226.573104 125.571562 
L 226.898084 120.547452 
L 227.223063 122.54008 
L 227.548043 120.40453 
L 227.873022 126.393277 
L 228.198002 121.534919 
L 228.522981 122.885302 
L 228.847961 121.269228 
L 229.17294 127.157445 
L 229.49792 127.179055 
L 229.822899 130.004124 
L 230.147879 123.49842 
L 230.472858 123.002403 
L 230.797838 128.148514 
L 231.122817 126.028158 
L 231.447797 118.255045 
L 231.772776 121.171256 
L 232.097756 131.64226 
L 232.747715 122.597764 
L 233.072695 134.522967 
L 233.397674 119.446859 
L 233.722654 131.608665 
L 234.047633 121.878724 
L 234.372613 116.304515 
L 235.022572 126.529783 
L 235.347551 120.044449 
L 235.672531 118.932854 
L 235.99751 127.497531 
L 236.32249 127.682294 
L 236.647469 122.535042 
L 236.972449 125.17576 
L 237.297428 120.521611 
L 237.622408 130.385598 
L 237.947387 123.384743 
L 238.272367 123.28376 
L 238.597346 129.610989 
L 238.922326 117.258544 
L 239.247305 126.606598 
L 239.572285 114.432137 
L 239.897265 131.332789 
L 240.222244 128.435028 
L 240.547224 120.880078 
L 240.872203 125.982223 
L 241.197183 122.975224 
L 241.522162 129.00471 
L 241.847142 126.199775 
L 242.172121 129.19962 
L 242.497101 126.66938 
L 242.82208 127.276534 
L 243.14706 128.336073 
L 243.797019 119.459986 
L 244.121998 124.477031 
L 244.446978 124.316572 
L 244.771957 123.40098 
L 245.096937 120.041004 
L 245.421916 123.488008 
L 245.746896 122.761883 
L 246.071876 118.026354 
L 246.396855 126.425632 
L 246.721835 122.401723 
L 247.046814 127.586901 
L 247.371794 126.087673 
L 247.696773 120.627415 
L 248.021753 124.19463 
L 248.346732 132.504233 
L 248.671712 122.562654 
L 249.321671 126.290818 
L 249.64665 122.941904 
L 249.97163 128.524822 
L 250.296609 124.115277 
L 250.621589 126.865421 
L 250.946568 121.337264 
L 251.271548 126.908778 
L 251.596527 127.527465 
L 251.921507 122.237467 
L 252.246486 120.920148 
L 252.571466 121.431831 
L 252.896446 126.553046 
L 253.546405 121.952232 
L 253.871384 125.670399 
L 254.196364 126.002632 
L 254.521343 125.434524 
L 254.846323 124.28221 
L 255.171302 120.301284 
L 255.496282 119.226571 
L 255.821261 126.664322 
L 256.146241 121.39615 
L 256.7962 124.673131 
L 257.121179 124.759293 
L 257.446159 126.926687 
L 257.771138 124.198172 
L 258.096118 126.638067 
L 258.421097 131.636956 
L 258.746077 121.067184 
L 259.071057 129.770621 
L 259.396036 130.905006 
L 260.045995 124.428596 
L 260.370975 128.338198 
L 260.695954 119.985268 
L 261.020934 121.345452 
L 261.345913 129.051817 
L 261.670893 115.876436 
L 261.995872 125.113883 
L 262.320852 127.20281 
L 262.645831 125.029748 
L 262.970811 120.260348 
L 263.29579 123.727997 
L 263.62077 129.273777 
L 263.945749 129.567544 
L 264.270729 121.631001 
L 264.595708 120.27133 
L 264.920688 127.296412 
L 265.245667 125.289791 
L 265.570647 126.522049 
L 265.895627 129.787477 
L 266.220606 124.527709 
L 266.545586 123.242037 
L 266.870565 126.142956 
L 267.195545 122.899747 
L 267.520524 131.84267 
L 267.845504 121.152619 
L 268.170483 126.940031 
L 268.495463 122.094466 
L 268.820442 123.909002 
L 269.145422 119.039564 
L 269.470401 120.775041 
L 269.795381 126.593884 
L 270.44534 121.304496 
L 270.770319 124.621035 
L 271.095299 124.153182 
L 271.420278 130.49708 
L 272.070238 119.074989 
L 272.720197 124.512554 
L 273.045176 119.263178 
L 273.370156 124.755928 
L 273.695135 123.78082 
L 274.020115 123.823961 
L 274.670074 129.794267 
L 274.995053 121.334529 
L 275.645012 128.246328 
L 275.969992 123.773538 
L 276.294971 127.918799 
L 276.619951 128.070263 
L 276.94493 125.828791 
L 277.26991 120.710685 
L 277.594889 126.998129 
L 277.919869 122.309952 
L 278.244848 126.855698 
L 278.569828 118.127277 
L 278.894808 130.188416 
L 279.219787 129.460834 
L 279.544767 116.252341 
L 279.869746 128.176087 
L 280.519705 122.373973 
L 280.844685 125.722081 
L 281.169664 124.889502 
L 281.494644 121.549582 
L 281.819623 128.989615 
L 282.144603 128.431505 
L 282.469582 120.272707 
L 282.794562 123.667695 
L 283.119541 125.059781 
L 283.444521 125.152615 
L 283.7695 131.049985 
L 284.09448 126.731138 
L 284.744439 124.075285 
L 285.069419 123.411706 
L 285.394398 126.545115 
L 285.719378 126.229749 
L 286.044357 119.922782 
L 286.369337 122.552105 
L 286.694316 118.207988 
L 287.019296 126.706636 
L 287.344275 125.317305 
L 287.669255 125.109475 
L 287.994234 128.919 
L 288.319214 121.391544 
L 288.644193 116.851249 
L 288.969173 129.617031 
L 289.294152 117.936511 
L 289.619132 127.222884 
L 289.944111 119.260855 
L 290.269091 126.261868 
L 290.59407 119.266799 
L 290.91905 125.738869 
L 291.244029 125.193965 
L 291.569009 121.574911 
L 291.893989 122.492334 
L 292.218968 131.356091 
L 292.543948 122.861055 
L 292.868927 119.385711 
L 293.193907 122.162562 
L 293.518886 123.166069 
L 293.843866 128.788605 
L 294.168845 115.175089 
L 294.493825 128.361658 
L 294.818804 125.670675 
L 295.143784 125.182963 
L 295.468763 122.433075 
L 295.793743 121.405537 
L 296.118722 130.545869 
L 296.443702 128.672222 
L 296.768681 127.46488 
L 297.093661 130.0457 
L 297.41864 122.245989 
L 297.74362 121.831903 
L 298.0686 124.991587 
L 298.393579 130.644588 
L 298.718559 116.443344 
L 299.043538 124.690686 
L 299.368518 125.68577 
L 299.693497 118.559882 
L 300.018477 125.873309 
L 300.343456 125.063579 
L 300.668436 125.809759 
L 300.993415 119.717451 
L 301.318395 127.0332 
L 301.643374 126.275526 
L 301.968354 121.758199 
L 302.293333 122.989827 
L 302.618313 121.779848 
L 302.943292 127.482927 
L 303.268272 123.893336 
L 303.593251 122.344098 
L 303.918231 128.565906 
L 304.24321 117.85948 
L 304.56819 128.264297 
L 304.89317 124.465694 
L 305.218149 127.697252 
L 305.543129 127.841257 
L 306.193088 120.813557 
L 306.518067 122.306704 
L 306.843047 120.660066 
L 307.168026 123.148887 
L 307.493006 127.028733 
L 307.817985 123.128537 
L 308.142965 126.479341 
L 308.467944 123.379527 
L 308.792924 122.144298 
L 309.117903 123.386888 
L 309.442883 131.525189 
L 309.767862 127.246501 
L 310.092842 127.952808 
L 310.417821 123.060265 
L 310.742801 123.288326 
L 311.067781 118.739096 
L 311.39276 128.544277 
L 311.71774 124.205887 
L 312.042719 126.017668 
L 312.367699 120.319134 
L 312.692678 125.642669 
L 313.017658 123.462738 
L 313.342637 125.732079 
L 313.667617 124.358335 
L 313.992596 129.640825 
L 314.317576 132.718105 
L 314.642555 121.237325 
L 314.967535 126.616911 
L 315.617494 118.974873 
L 315.942473 120.602184 
L 316.267453 120.79608 
L 316.592432 121.645368 
L 316.917412 126.027823 
L 317.242391 118.329124 
L 317.567371 123.376221 
L 317.892351 121.755187 
L 318.21733 122.182164 
L 318.54231 123.447977 
L 318.867289 120.900625 
L 319.192269 127.634726 
L 319.517248 129.501721 
L 319.842228 120.461998 
L 320.167207 119.922349 
L 320.492187 124.594722 
L 320.817166 119.840181 
L 321.142146 123.981919 
L 321.467125 126.373813 
L 321.792105 123.142688 
L 322.117084 127.105291 
L 322.442064 129.125236 
L 322.767043 121.178263 
L 323.092023 128.538559 
L 323.417002 125.79059 
L 323.741982 120.135512 
L 324.066962 122.932634 
L 324.391941 127.86574 
L 324.716921 124.809224 
L 325.0419 128.805894 
L 325.36688 122.774066 
L 326.016839 128.903029 
L 326.341818 118.786783 
L 326.666798 129.327073 
L 326.991777 115.614583 
L 327.316757 119.588837 
L 327.641736 117.445867 
L 327.966716 124.737133 
L 328.291695 125.544343 
L 328.616675 128.983986 
L 328.941654 127.007084 
L 329.266634 121.63106 
L 329.591613 131.984343 
L 329.916593 128.583825 
L 330.241572 121.899232 
L 330.566552 120.26206 
L 330.891532 117.951704 
L 331.541491 127.507115 
L 331.86647 119.709894 
L 332.19145 127.6844 
L 332.516429 123.29673 
L 332.841409 123.481376 
L 333.166388 121.804586 
L 333.491368 124.900484 
L 333.816347 121.128175 
L 334.141327 125.506713 
L 334.466306 125.094183 
L 334.791286 115.960552 
L 335.441245 127.321249 
L 336.091204 115.732077 
L 336.416183 125.432536 
L 336.741163 123.082976 
L 337.066143 132.734469 
L 337.391122 121.393197 
L 337.716102 120.08692 
L 338.041081 126.929659 
L 338.366061 123.754841 
L 338.69104 124.148085 
L 339.01602 123.009901 
L 339.340999 124.292778 
L 339.665979 124.926108 
L 339.990958 127.182046 
L 340.315938 126.064272 
L 340.640917 128.732731 
L 340.965897 125.146121 
L 341.290876 129.649308 
L 341.615856 123.318792 
L 341.940835 123.728528 
L 342.265815 124.730323 
L 342.590794 128.80678 
L 342.915774 126.034908 
L 343.240753 126.50717 
L 343.565733 125.676972 
L 343.890713 125.65737 
L 344.215692 124.115631 
L 344.540672 124.173945 
L 344.865651 122.454822 
L 345.190631 129.445817 
L 345.51561 129.949214 
L 345.84059 123.226627 
L 346.165569 120.846266 
L 346.490549 124.685707 
L 347.140508 128.898296 
L 347.465487 124.814852 
L 347.790467 129.408463 
L 348.115446 115.478745 
L 348.765405 129.758172 
L 349.090385 119.519107 
L 349.415364 128.928811 
L 349.740344 120.948016 
L 350.390303 127.294975 
L 350.715283 121.093379 
L 351.040262 126.873057 
L 351.365242 130.359757 
L 351.690221 125.016247 
L 352.015201 122.048491 
L 352.34018 130.890097 
L 352.66516 119.150249 
L 352.990139 124.573388 
L 353.315119 120.625546 
L 353.640098 132.306922 
L 353.965078 121.886813 
L 354.290057 120.461821 
L 354.615037 118.482713 
L 354.940016 129.990062 
L 355.264996 129.824723 
L 355.589975 133.241251 
L 356.239934 122.032648 
L 356.564914 128.435028 
L 356.889894 127.50619 
L 357.214873 120.714228 
L 357.539853 123.979971 
L 357.864832 123.73583 
L 358.189812 122.059178 
L 358.514791 118.072407 
L 358.839771 125.684156 
L 359.16475 125.837529 
L 359.48973 122.679696 
L 359.814709 122.16205 
L 360.139689 123.290176 
L 360.464668 120.275423 
L 360.789648 129.562387 
L 361.114627 120.857288 
L 361.439607 121.771109 
L 361.764586 116.242855 
L 362.089566 130.473542 
L 362.414545 129.221269 
L 362.739525 131.965085 
L 363.064505 125.968781 
L 363.389484 124.609935 
L 363.714464 127.154296 
L 364.039443 124.809362 
L 364.364423 128.698545 
L 364.689402 129.181179 
L 365.014382 128.253964 
L 365.339361 131.040233 
L 365.664341 122.480152 
L 365.98932 128.451304 
L 366.3143 119.545991 
L 366.639279 116.250412 
L 366.964259 124.493956 
L 367.289238 127.503179 
L 367.614218 124.58378 
L 367.939197 124.085795 
L 368.264177 125.362413 
L 368.589156 130.907594 
L 368.914136 120.281091 
L 369.239115 127.706069 
L 369.564095 123.460219 
L 369.889075 128.871825 
L 370.214054 119.592163 
L 370.539034 120.107782 
L 370.864013 132.406734 
L 371.188993 130.068038 
L 371.513972 122.55854 
L 371.838952 121.027704 
L 372.163931 122.454448 
L 372.488911 130.298254 
L 372.81389 123.533609 
L 373.13887 124.241667 
L 373.463849 123.279234 
L 373.788829 123.198326 
L 374.113808 124.202384 
L 374.438788 124.012661 
L 374.763767 119.918511 
L 375.088747 122.659188 
L 375.413726 129.368068 
L 375.738706 114.820539 
L 376.063686 126.795928 
L 376.388665 127.101827 
L 376.713645 124.961101 
L 377.038624 130.669396 
L 377.363604 127.671549 
L 377.688583 122.958829 
L 378.013563 125.947092 
L 378.338542 126.679594 
L 378.988501 121.253837 
L 379.313481 128.033204 
L 379.63846 121.838339 
L 379.96344 123.898905 
L 380.288419 124.431587 
L 380.613399 123.586491 
L 380.938378 120.990586 
L 381.263358 131.002495 
L 381.588337 120.565499 
L 381.913317 123.384487 
L 382.238296 124.670907 
L 382.563276 123.730752 
L 383.213235 125.254936 
L 383.538215 118.667103 
L 383.863194 123.617489 
L 384.513153 123.180475 
L 384.838133 127.133139 
L 385.163112 127.523608 
L 385.488092 123.191398 
L 385.813071 130.406489 
L 386.138051 131.255984 
L 386.46303 126.923578 
L 386.78801 125.739341 
L 387.112989 121.025776 
L 387.437969 123.107833 
L 387.762948 127.120249 
L 388.087928 119.644415 
L 388.412907 126.309476 
L 389.062867 120.907868 
L 389.387846 124.806291 
L 389.712826 124.603362 
L 390.037805 124.768701 
L 390.362785 116.721139 
L 390.687764 127.365767 
L 391.012744 123.362346 
L 391.662703 119.186225 
L 392.312662 125.968662 
L 392.962621 119.219427 
L 393.937559 133.170125 
L 394.262539 125.141712 
L 394.587518 131.439951 
L 394.912498 125.000384 
L 395.237477 127.094821 
L 395.562457 124.038069 
L 395.887437 119.629556 
L 396.212416 122.929052 
L 396.862375 121.046263 
L 397.187355 128.293523 
L 397.512334 124.516983 
L 397.837314 127.633958 
L 398.162293 120.816489 
L 398.487273 122.792585 
L 398.487273 122.792585 
" style="fill:none;stroke:#1f77b4;stroke-linecap:square;stroke-width:1.5;"/>
   </g>
   <g id="line2d_11">
    <path clip-path="url(#pdf950a2a79)" d="M 73.832727 292.204082 
L 74.157707 245.138671 
L 74.807666 205.695731 
L 75.457625 179.358324 
L 75.782604 176.875791 
L 76.107584 165.19527 
L 76.432563 158.386785 
L 76.757543 159.125831 
L 77.082523 150.831934 
L 77.407502 150.356513 
L 77.732482 154.874097 
L 78.057461 150.015119 
L 78.382441 151.857798 
L 78.70742 148.963551 
L 79.0324 136.232712 
L 79.357379 144.248578 
L 79.682359 142.106268 
L 80.332318 136.966503 
L 80.657297 129.330124 
L 80.982277 131.575582 
L 81.307256 126.554483 
L 81.632236 137.836387 
L 81.957215 139.74667 
L 82.282195 134.717729 
L 82.607174 136.565486 
L 82.932154 127.212276 
L 83.582113 133.734257 
L 83.907093 133.701282 
L 84.232072 132.701878 
L 84.557052 134.60233 
L 84.882031 128.636373 
L 85.207011 134.241187 
L 85.53199 133.19754 
L 85.85697 133.969305 
L 86.181949 126.637575 
L 86.506929 130.541047 
L 86.831908 122.17994 
L 87.481867 133.55028 
L 87.806847 125.902417 
L 88.131826 130.313714 
L 88.456806 128.482144 
L 88.781785 125.950261 
L 89.106765 127.299029 
L 89.431744 126.416126 
L 89.756724 129.225451 
L 90.406683 131.717618 
L 90.731663 125.052774 
L 91.056642 115.78557 
L 91.381622 118.239576 
L 91.706601 124.274357 
L 92.031581 127.413454 
L 92.35656 122.748382 
L 92.68154 125.049763 
L 93.006519 123.383601 
L 93.331499 120.106483 
L 93.656478 121.421991 
L 93.981458 122.061953 
L 94.306437 123.811424 
L 94.631417 123.377067 
L 94.956396 121.857292 
L 95.281376 125.35458 
L 95.606355 116.555524 
L 95.931335 122.742871 
L 96.256314 121.016742 
L 96.581294 126.172792 
L 96.906274 121.997046 
L 97.231253 119.659274 
L 97.556233 125.601516 
L 97.881212 119.989185 
L 98.206192 127.275471 
L 98.531171 120.863212 
L 98.856151 118.257938 
L 99.18113 122.996302 
L 99.50611 123.04757 
L 99.831089 126.401405 
L 100.481048 116.688095 
L 100.806028 123.408734 
L 101.131007 122.342996 
L 101.455987 125.681637 
L 101.780966 121.504453 
L 102.105946 122.647478 
L 102.430925 112.68363 
L 102.755905 121.579339 
L 103.080885 114.596964 
L 103.405864 117.451043 
L 103.730844 122.912481 
L 104.055823 118.546361 
L 104.380803 117.564975 
L 104.705782 118.189055 
L 105.030762 117.699592 
L 105.355741 122.600933 
L 105.680721 122.90085 
L 106.0057 114.587813 
L 106.33068 125.645345 
L 106.655659 118.860389 
L 106.980639 120.875138 
L 107.305618 113.67895 
L 107.630598 119.88033 
L 107.955577 119.484548 
L 108.280557 124.435228 
L 108.605536 115.942289 
L 108.930516 122.281021 
L 109.255495 119.946339 
L 109.905455 120.903931 
L 110.230434 118.195511 
L 110.555414 118.343353 
L 110.880393 119.829376 
L 111.205373 116.226992 
L 111.530352 114.65886 
L 111.855332 117.347403 
L 112.180311 116.941309 
L 112.505291 120.265858 
L 113.15525 110.297897 
L 113.480229 114.581711 
L 113.805209 120.435763 
L 114.130188 113.526857 
L 114.455168 110.423933 
L 114.780147 118.071147 
L 115.105127 119.72119 
L 115.430106 115.836406 
L 115.755086 116.751624 
L 116.080066 115.300574 
L 116.730025 123.286929 
L 117.055004 112.473104 
L 117.379984 113.469566 
L 117.704963 115.300181 
L 118.029943 118.542366 
L 118.679902 108.879832 
L 119.004881 113.671964 
L 119.329861 111.234608 
L 119.97982 117.556847 
L 120.304799 109.994851 
L 120.629779 116.272415 
L 120.954758 112.148842 
L 121.279738 110.38896 
L 121.604717 111.61742 
L 121.929697 117.241914 
L 122.254676 107.473379 
L 122.579656 116.30355 
L 122.904636 113.339082 
L 123.229615 112.165178 
L 123.879574 117.571726 
L 124.204554 120.232716 
L 124.529533 112.13727 
L 125.179492 108.310622 
L 125.829451 114.288427 
L 126.154431 111.200323 
L 126.80439 117.661471 
L 127.129369 106.501341 
L 127.454349 115.623439 
L 127.779328 112.500874 
L 128.104308 112.27415 
L 128.429287 108.067367 
L 128.754267 115.271112 
L 129.079247 117.06083 
L 129.404226 120.429524 
L 130.054185 107.662847 
L 130.379165 110.547037 
L 130.704144 111.092827 
L 131.029124 114.072154 
L 131.354103 105.905051 
L 131.679083 114.982276 
L 132.004062 112.211211 
L 132.329042 111.846171 
L 132.654021 111.897026 
L 132.979001 110.638317 
L 133.30398 111.430767 
L 133.62896 111.56871 
L 133.953939 111.20857 
L 134.278919 119.097012 
L 134.603898 114.872201 
L 134.928878 114.715915 
L 135.253857 109.275299 
L 135.578837 113.317039 
L 135.903817 109.834098 
L 136.228796 111.028313 
L 136.553776 113.34349 
L 136.878755 105.026241 
L 137.203735 112.097751 
L 137.528714 106.649007 
L 137.853694 114.454967 
L 138.178673 110.062553 
L 138.503653 114.407831 
L 138.828632 115.190224 
L 139.153612 109.288269 
L 139.478591 113.827482 
L 139.803571 112.654641 
L 140.12855 115.505413 
L 140.45353 115.463985 
L 141.103489 110.881454 
L 141.428468 115.589844 
L 141.753448 107.315224 
L 142.078428 106.950793 
L 142.403407 108.255122 
L 142.728387 104.764348 
L 143.053366 113.615381 
L 143.703325 112.366611 
L 144.028305 112.883863 
L 144.353284 109.305844 
L 145.003243 117.804373 
L 145.653202 105.502656 
L 145.978182 113.236977 
L 146.303161 114.399486 
L 146.628141 107.772941 
L 146.95312 109.096125 
L 147.2781 113.360239 
L 147.603079 112.606737 
L 148.253038 104.958894 
L 148.578018 105.754748 
L 148.902998 107.551945 
L 149.227977 107.702661 
L 149.552957 109.001184 
L 149.877936 108.649684 
L 150.202916 106.975276 
L 150.527895 106.18631 
L 150.852875 111.085742 
L 151.177854 105.651148 
L 151.502834 105.068929 
L 151.827813 115.926229 
L 152.152793 110.295004 
L 152.477772 107.246833 
L 152.802752 105.744908 
L 153.127731 109.290316 
L 153.452711 108.900674 
L 153.77769 108.136821 
L 154.10267 105.892672 
L 154.427649 101.776381 
L 154.752629 107.803466 
L 155.077609 110.933668 
L 155.727568 103.704691 
L 156.052547 108.54817 
L 156.377527 102.322702 
L 156.702506 109.732171 
L 157.027486 110.774036 
L 157.352465 113.49767 
L 157.677445 97.068719 
L 158.002424 102.47574 
L 158.652383 108.053925 
L 158.977363 114.065935 
L 159.302342 104.087543 
L 159.627322 105.573232 
L 159.952301 107.966503 
L 160.277281 100.465813 
L 160.60226 109.991348 
L 160.92724 103.037254 
L 161.252219 109.027321 
L 161.577199 105.117344 
L 161.902179 106.700827 
L 162.227158 107.361159 
L 162.552138 102.548874 
L 162.877117 106.996512 
L 163.527076 105.047064 
L 163.852056 102.948671 
L 164.177035 111.34362 
L 164.826994 104.057353 
L 165.151974 102.489576 
L 165.476953 107.67127 
L 166.126912 101.314274 
L 166.451892 106.027446 
L 166.776871 100.82302 
L 167.101851 103.467832 
L 167.42683 103.150498 
L 167.75181 99.606605 
L 168.07679 108.579896 
L 168.401769 100.186462 
L 168.726749 104.242235 
L 169.051728 99.836911 
L 169.701687 102.489497 
L 170.026667 105.061254 
L 170.351646 106.658355 
L 170.676626 101.065449 
L 171.001605 101.624622 
L 171.326585 102.974256 
L 171.651564 99.725911 
L 171.976544 109.025412 
L 172.301523 100.52088 
L 172.626503 109.499484 
L 172.951482 101.631667 
L 173.601441 97.30855 
L 174.2514 103.170809 
L 174.57638 104.246801 
L 174.90136 103.748403 
L 175.226339 107.693352 
L 175.551319 108.710715 
L 175.876298 101.985805 
L 176.201278 102.588373 
L 176.526257 99.489839 
L 176.851237 101.310574 
L 177.176216 101.607204 
L 177.501196 105.845654 
L 177.826175 101.142578 
L 178.151155 102.858513 
L 178.476134 97.814152 
L 178.801114 102.936056 
L 179.126093 93.426816 
L 179.451073 103.927794 
L 179.776052 104.446935 
L 180.101032 102.518703 
L 180.426011 106.524644 
L 180.750991 105.440346 
L 181.075971 99.985049 
L 181.40095 98.046386 
L 181.72593 100.216043 
L 182.050909 104.116966 
L 182.375889 94.139538 
L 183.025848 101.331082 
L 183.350827 97.731767 
L 183.675807 97.90429 
L 184.325766 100.480868 
L 184.650745 99.41019 
L 184.975725 95.419129 
L 185.300704 97.038175 
L 185.625684 100.692615 
L 185.950663 93.185312 
L 186.275643 94.461498 
L 186.600622 98.286217 
L 187.250581 103.112731 
L 187.575561 106.034944 
L 187.900541 100.207324 
L 188.22552 99.171068 
L 188.5505 93.953141 
L 188.875479 99.902389 
L 189.200459 98.125975 
L 189.525438 105.90881 
L 189.850418 99.224442 
L 190.175397 95.857973 
L 190.500377 97.576525 
L 191.150336 98.545177 
L 191.475315 98.300564 
L 191.800295 102.24018 
L 192.125274 104.28073 
L 192.450254 102.449623 
L 192.775233 108.475312 
L 193.100213 96.769373 
L 193.425192 98.377575 
L 193.750172 100.638611 
L 194.075152 99.028283 
L 194.725111 88.309478 
L 195.05009 99.133123 
L 195.37507 95.886274 
L 195.700049 99.859308 
L 196.025029 98.357737 
L 196.674988 90.574508 
L 196.999967 98.86814 
L 197.324947 96.884251 
L 197.649926 101.089302 
L 197.974906 100.64172 
L 198.299885 102.521203 
L 198.624865 99.535735 
L 198.949844 98.542698 
L 199.274824 92.352418 
L 199.599803 103.371849 
L 199.924783 97.200089 
L 200.249762 95.67189 
L 200.574742 102.278853 
L 200.899722 102.325969 
L 201.224701 91.568726 
L 201.549681 98.04304 
L 201.87466 94.48907 
L 202.19964 95.532294 
L 202.524619 100.623122 
L 202.849599 96.112623 
L 203.174578 98.579265 
L 203.499558 95.340582 
L 203.824537 98.044969 
L 204.149517 92.986949 
L 204.474496 90.663013 
L 204.799476 97.016782 
L 205.124455 99.175437 
L 205.449435 93.164372 
L 205.774414 99.880366 
L 206.099394 95.500293 
L 206.424373 96.644498 
L 206.749353 101.307819 
L 207.074333 94.825908 
L 207.399312 97.232425 
L 207.724292 103.803942 
L 208.049271 94.862554 
L 208.374251 101.103374 
L 208.69923 97.539682 
L 209.349189 105.772658 
L 209.674169 97.244174 
L 209.999148 94.611171 
L 210.324128 98.070475 
L 210.649107 94.749429 
L 210.974087 96.7591 
L 211.299066 91.423482 
L 211.624046 96.70484 
L 211.949025 94.98922 
L 212.274005 95.766653 
L 212.598984 100.958877 
L 212.923964 95.99131 
L 213.248943 94.627702 
L 213.573923 99.292637 
L 214.223882 87.622655 
L 214.548862 100.281285 
L 214.873841 97.020206 
L 215.198821 98.263052 
L 215.5238 93.763359 
L 215.84878 91.300949 
L 216.173759 95.463667 
L 216.498739 87.941347 
L 216.823718 96.286799 
L 217.148698 94.240245 
L 217.473677 89.433471 
L 217.798657 95.114863 
L 218.123636 94.007696 
L 218.448616 91.26387 
L 218.773595 93.222863 
L 219.098575 91.582542 
L 219.423554 93.82126 
L 219.748534 87.975395 
L 220.073514 96.106109 
L 220.398493 95.78352 
L 220.723473 97.545173 
L 221.048452 90.925162 
L 221.373432 97.402093 
L 221.698411 95.987492 
L 222.023391 93.305956 
L 222.34837 91.923553 
L 222.67335 91.351469 
L 222.998329 94.285196 
L 223.323309 93.678337 
L 223.648288 99.481514 
L 223.973268 91.44887 
L 224.298247 86.271879 
L 224.623227 90.120668 
L 224.948206 91.473589 
L 225.273186 91.232735 
L 225.598165 90.445185 
L 226.248124 84.668086 
L 226.573104 86.490376 
L 226.898084 94.204879 
L 227.223063 91.871477 
L 227.548043 88.015328 
L 227.873022 93.418727 
L 228.198002 93.933736 
L 228.522981 91.299728 
L 228.847961 85.964759 
L 229.17294 96.699762 
L 229.49792 87.658691 
L 229.822899 93.319752 
L 230.147879 95.514424 
L 230.472858 92.548951 
L 230.797838 87.004007 
L 231.447797 97.593214 
L 231.772776 94.030251 
L 232.097756 87.657963 
L 232.422735 89.321546 
L 232.747715 93.052328 
L 233.072695 90.744846 
L 233.397674 86.927704 
L 233.722654 91.150351 
L 234.047633 92.031935 
L 234.372613 84.084529 
L 235.022572 90.494289 
L 235.347551 97.291841 
L 235.672531 90.252175 
L 235.99751 93.017356 
L 236.32249 90.307774 
L 236.647469 91.421671 
L 236.972449 91.242733 
L 237.297428 85.370417 
L 237.947387 93.238234 
L 238.272367 92.440411 
L 238.597346 90.780154 
L 238.922326 92.806318 
L 239.247305 88.376708 
L 239.572285 94.693948 
L 239.897265 88.006334 
L 240.222244 87.924225 
L 240.547224 87.672526 
L 240.872203 86.084537 
L 241.197183 89.082896 
L 241.522162 85.982098 
L 241.847142 93.695853 
L 242.172121 87.56501 
L 242.497101 89.316626 
L 242.82208 89.799889 
L 243.14706 86.376404 
L 243.472039 85.39925 
L 243.797019 89.444355 
L 244.121998 85.754902 
L 244.771957 89.926575 
L 245.096937 88.806852 
L 245.421916 88.533721 
L 245.746896 90.472483 
L 246.071876 89.574032 
L 246.396855 94.580173 
L 246.721835 95.230389 
L 247.046814 90.917487 
L 247.371794 89.398459 
L 247.696773 97.054018 
L 248.021753 84.478795 
L 248.996691 92.04394 
L 249.321671 86.596968 
L 249.64665 90.359298 
L 249.97163 88.227507 
L 250.296609 88.530986 
L 250.621589 95.315135 
L 250.946568 89.908862 
L 251.271548 92.814348 
L 251.596527 91.425391 
L 251.921507 96.224351 
L 252.246486 90.158672 
L 252.571466 87.289478 
L 252.896446 93.978903 
L 253.221425 92.107352 
L 253.546405 89.364746 
L 253.871384 93.990791 
L 254.196364 88.501524 
L 254.521343 88.882368 
L 254.846323 92.444584 
L 255.171302 82.491383 
L 255.496282 81.165543 
L 256.146241 89.571906 
L 256.7962 88.319633 
L 257.121179 92.849734 
L 257.446159 84.531422 
L 257.771138 82.879234 
L 258.096118 94.635299 
L 258.746077 87.382962 
L 259.071057 93.214085 
L 259.721016 80.582517 
L 260.045995 84.930294 
L 260.370975 85.235938 
L 260.695954 91.474455 
L 261.020934 85.047238 
L 261.345913 91.158833 
L 261.670893 90.344203 
L 261.995872 85.582596 
L 262.320852 83.79276 
L 262.645831 90.28026 
L 262.970811 90.443414 
L 263.29579 87.035182 
L 263.62077 85.190652 
L 263.945749 87.074917 
L 264.270729 83.016114 
L 264.595708 85.077389 
L 264.920688 85.892806 
L 265.245667 87.207783 
L 265.570647 83.422307 
L 265.895627 86.381502 
L 266.220606 87.832611 
L 266.545586 79.482573 
L 266.870565 86.462587 
L 267.195545 79.102182 
L 267.520524 86.203823 
L 267.845504 82.873113 
L 268.170483 80.965605 
L 268.495463 74.554427 
L 268.820442 82.848335 
L 269.145422 85.588186 
L 269.470401 82.418131 
L 269.795381 89.114956 
L 270.12036 88.894846 
L 270.44534 82.586776 
L 270.770319 87.502937 
L 271.095299 83.27598 
L 271.420278 88.039417 
L 271.745258 87.11485 
L 272.395217 80.738645 
L 272.720197 89.016788 
L 273.045176 93.485327 
L 273.370156 87.337007 
L 273.695135 90.598401 
L 274.020115 81.677284 
L 274.345094 83.349134 
L 274.670074 79.959362 
L 274.995053 88.272832 
L 275.320033 81.713477 
L 275.645012 77.663019 
L 275.969992 79.881308 
L 276.294971 88.75275 
L 276.619951 83.211584 
L 276.94493 82.858293 
L 277.26991 84.119069 
L 277.594889 84.257169 
L 277.919869 85.10752 
L 278.244848 80.915222 
L 278.894808 83.715513 
L 279.219787 84.363879 
L 279.544767 84.125288 
L 279.869746 82.142835 
L 280.194726 81.119549 
L 280.519705 80.754724 
L 280.844685 77.203353 
L 281.169664 80.399662 
L 281.494644 82.084481 
L 281.819623 86.031674 
L 282.144603 84.976091 
L 282.469582 82.621926 
L 282.794562 82.791575 
L 283.119541 87.74078 
L 283.444521 83.686247 
L 283.7695 87.852036 
L 284.419459 81.088295 
L 284.744439 78.339037 
L 285.069419 85.263294 
L 285.394398 81.491477 
L 285.719378 90.990227 
L 286.044357 86.078141 
L 286.369337 74.35815 
L 286.694316 83.244156 
L 287.019296 77.409687 
L 287.344275 83.22975 
L 287.669255 83.707385 
L 287.994234 86.742291 
L 288.319214 83.8421 
L 288.644193 87.125162 
L 288.969173 85.763916 
L 289.619132 81.205436 
L 289.944111 78.27041 
L 290.269091 83.00092 
L 290.59407 83.246931 
L 290.91905 79.33296 
L 291.244029 79.829901 
L 291.569009 86.518677 
L 291.893989 83.003381 
L 292.218968 85.107323 
L 292.543948 78.971442 
L 292.868927 79.425637 
L 293.193907 83.699414 
L 293.518886 80.225506 
L 293.843866 89.97808 
L 294.168845 78.69711 
L 294.493825 83.583021 
L 294.818804 79.599497 
L 295.143784 85.137061 
L 295.468763 81.832409 
L 295.793743 91.298941 
L 296.118722 86.958997 
L 296.443702 85.957871 
L 296.768681 79.535672 
L 297.093661 86.807848 
L 297.41864 81.866417 
L 297.74362 80.271559 
L 298.393579 83.689888 
L 298.718559 77.61177 
L 299.043538 78.279522 
L 299.368518 80.261621 
L 299.693497 79.032728 
L 300.018477 80.40409 
L 300.343456 86.489805 
L 300.668436 85.461421 
L 300.993415 82.917001 
L 301.318395 81.498307 
L 301.643374 76.633868 
L 301.968354 80.579132 
L 302.293333 79.857927 
L 302.618313 86.065151 
L 302.943292 83.570445 
L 303.268272 85.720225 
L 303.593251 80.227061 
L 303.918231 81.377604 
L 304.24321 82.10001 
L 304.56819 77.80169 
L 304.89317 80.455812 
L 305.218149 87.050513 
L 305.868108 79.558227 
L 306.193088 84.128535 
L 306.518067 86.918651 
L 306.843047 83.949931 
L 307.168026 83.956879 
L 307.493006 79.32987 
L 307.817985 84.843974 
L 308.142965 82.024041 
L 308.467944 82.024868 
L 308.792924 76.73178 
L 309.117903 80.500054 
L 309.442883 79.315621 
L 309.767862 71.726957 
L 310.092842 87.072162 
L 310.417821 81.742566 
L 310.742801 85.930908 
L 311.067781 80.670057 
L 311.39276 82.055472 
L 311.71774 86.312776 
L 312.042719 84.113381 
L 312.367699 78.068366 
L 312.692678 89.991975 
L 313.017658 83.872842 
L 313.342637 83.361021 
L 313.667617 77.688762 
L 313.992596 81.690254 
L 314.317576 82.860045 
L 314.642555 84.816499 
L 314.967535 83.089661 
L 315.292514 85.199056 
L 315.617494 78.209183 
L 315.942473 85.532056 
L 316.592432 78.902421 
L 316.917412 80.726345 
L 317.242391 79.30025 
L 317.567371 81.615801 
L 317.892351 73.663869 
L 318.21733 83.269013 
L 318.54231 83.777862 
L 318.867289 75.696764 
L 319.192269 86.318838 
L 319.517248 80.282049 
L 319.842228 79.727758 
L 320.167207 81.345308 
L 320.492187 79.781545 
L 320.817166 86.204374 
L 321.142146 84.578912 
L 321.467125 82.18385 
L 321.792105 75.576533 
L 322.117084 80.16546 
L 322.442064 76.886491 
L 322.767043 82.934379 
L 323.092023 84.787628 
L 323.417002 83.091669 
L 323.741982 78.531988 
L 324.066962 77.83068 
L 324.391941 80.134699 
L 324.716921 80.261069 
L 325.0419 79.427093 
L 325.36688 79.439354 
L 325.691859 83.714903 
L 326.016839 80.674348 
L 326.341818 81.718594 
L 326.666798 88.435967 
L 326.991777 76.637292 
L 327.316757 91.417341 
L 327.641736 82.76721 
L 327.966716 77.18442 
L 328.291695 79.635159 
L 328.616675 79.90955 
L 328.941654 81.375774 
L 329.266634 76.363807 
L 329.591613 82.681953 
L 329.916593 76.470379 
L 330.241572 84.454785 
L 330.566552 78.630707 
L 330.891532 80.138477 
L 331.216511 74.618804 
L 331.541491 80.644571 
L 331.86647 72.884822 
L 332.19145 82.089835 
L 332.516429 84.158057 
L 332.841409 83.977819 
L 333.166388 76.138835 
L 333.491368 80.151014 
L 333.816347 78.398945 
L 334.141327 83.79152 
L 334.466306 76.946242 
L 334.791286 81.32175 
L 335.116265 76.540777 
L 335.441245 80.173824 
L 335.766224 79.051878 
L 336.091204 82.075034 
L 336.416183 79.225463 
L 336.741163 77.456016 
L 337.066143 84.588398 
L 337.391122 80.692651 
L 338.366061 78.649345 
L 338.69104 81.784014 
L 339.01602 76.006796 
L 339.340999 79.1516 
L 339.990958 77.733398 
L 340.315938 79.374939 
L 340.640917 73.028826 
L 340.965897 73.090723 
L 341.290876 81.262609 
L 341.615856 75.155756 
L 341.940835 76.833746 
L 342.265815 88.02692 
L 342.590794 75.461833 
L 342.915774 82.290934 
L 343.240753 79.527643 
L 343.565733 78.268796 
L 343.890713 79.121528 
L 344.215692 75.635871 
L 344.540672 78.601481 
L 344.865651 79.99957 
L 345.190631 70.988118 
L 345.51561 85.641363 
L 345.84059 88.682824 
L 346.165569 78.306701 
L 346.490549 81.450856 
L 346.815528 73.065905 
L 347.140508 74.784949 
L 347.465487 80.354573 
L 347.790467 74.861193 
L 348.115446 79.275531 
L 348.440426 80.853896 
L 348.765405 73.701006 
L 349.090385 81.250052 
L 349.740344 68.514884 
L 350.065324 77.030161 
L 350.390303 79.530693 
L 350.715283 79.105213 
L 351.040262 79.507804 
L 351.365242 76.949982 
L 351.690221 73.200443 
L 352.015201 74.251933 
L 352.34018 82.242401 
L 352.66516 79.914647 
L 352.990139 73.616083 
L 353.315119 82.352849 
L 353.640098 73.720195 
L 353.965078 69.910296 
L 354.290057 83.171258 
L 354.615037 72.969154 
L 354.940016 75.804831 
L 355.264996 72.252554 
L 355.589975 75.896111 
L 355.914955 85.018012 
L 356.239934 83.658773 
L 356.564914 65.432979 
L 356.889894 73.883035 
L 357.214873 75.37508 
L 357.539853 80.061545 
L 357.864832 72.595041 
L 358.189812 74.320166 
L 358.514791 74.623724 
L 358.839771 76.912017 
L 359.16475 74.868632 
L 359.48973 78.899961 
L 359.814709 73.677921 
L 360.464668 74.387061 
L 360.789648 76.951713 
L 361.439607 83.56647 
L 361.764586 82.549776 
L 362.089566 74.709729 
L 362.414545 78.120343 
L 362.739525 70.92014 
L 363.064505 81.577502 
L 363.389484 75.585567 
L 363.714464 77.097804 
L 364.039443 83.936056 
L 364.364423 84.200134 
L 364.689402 80.387401 
L 365.014382 74.049771 
L 365.339361 79.771843 
L 365.664341 77.238936 
L 365.98932 79.255082 
L 366.3143 69.253723 
L 366.639279 75.389093 
L 366.964259 78.126306 
L 367.289238 70.181754 
L 367.614218 76.112049 
L 367.939197 76.801509 
L 368.264177 78.371097 
L 368.589156 73.721494 
L 368.914136 75.794007 
L 369.239115 75.467914 
L 369.564095 79.593495 
L 369.889075 68.524035 
L 370.214054 74.926041 
L 370.539034 75.86411 
L 370.864013 78.406719 
L 371.188993 82.625252 
L 371.513972 73.594808 
L 371.838952 77.499392 
L 372.163931 78.198712 
L 372.488911 69.522426 
L 372.81389 79.492434 
L 373.13887 74.664286 
L 373.463849 74.217491 
L 373.788829 78.135793 
L 374.113808 75.92825 
L 374.438788 69.350041 
L 374.763767 73.018848 
L 375.088747 80.795543 
L 375.413726 73.913481 
L 375.738706 76.737192 
L 376.063686 81.294196 
L 376.713645 72.335037 
L 377.038624 73.643341 
L 377.363604 76.358473 
L 377.688583 76.16503 
L 378.013563 76.78976 
L 378.663522 73.63848 
L 378.988501 81.894089 
L 379.313481 77.311184 
L 379.63846 80.355892 
L 379.96344 69.863652 
L 380.288419 74.0381 
L 380.613399 74.127707 
L 380.938378 80.126374 
L 381.263358 74.990378 
L 381.588337 74.201727 
L 381.913317 69.359724 
L 382.238296 78.344114 
L 382.888256 74.01222 
L 383.213235 78.71628 
L 383.538215 77.04445 
L 383.863194 78.222546 
L 384.188174 74.463344 
L 384.513153 73.628778 
L 384.838133 79.598533 
L 385.163112 73.918106 
L 385.488092 77.072554 
L 385.813071 72.919047 
L 386.138051 81.859864 
L 386.46303 67.827884 
L 386.78801 76.503856 
L 387.112989 78.722833 
L 387.437969 72.787913 
L 387.762948 74.477023 
L 388.087928 72.990901 
L 388.412907 80.085123 
L 388.737887 75.160342 
L 389.062867 76.24212 
L 389.387846 80.875644 
L 389.712826 79.878808 
L 390.037805 71.300001 
L 390.362785 78.545292 
L 390.687764 78.825626 
L 391.012744 77.125554 
L 391.337723 77.440527 
L 391.662703 72.102271 
L 391.987682 73.304142 
L 392.312662 76.988359 
L 392.637641 84.14798 
L 392.962621 73.150257 
L 393.2876 71.746855 
L 393.61258 83.475859 
L 393.937559 74.778218 
L 394.262539 78.789965 
L 394.587518 74.717326 
L 394.912498 75.684384 
L 395.237477 69.90262 
L 395.562457 80.057038 
L 395.887437 73.892167 
L 396.212416 73.799411 
L 396.537396 81.372408 
L 397.187355 76.512063 
L 397.512334 76.432139 
L 397.837314 68.647415 
L 398.162293 78.645015 
L 398.487273 76.238105 
L 398.487273 76.238105 
" style="fill:none;stroke:#ff7f0e;stroke-linecap:square;stroke-width:1.5;"/>
   </g>
   <g id="line2d_12">
    <path clip-path="url(#pdf950a2a79)" d="M 73.832727 295.488 
L 74.157707 250.970183 
L 74.482686 224.662248 
L 74.807666 219.421063 
L 75.457625 186.383535 
L 75.782604 181.721464 
L 76.107584 171.830593 
L 76.432563 173.878839 
L 76.757543 162.271413 
L 77.082523 170.82678 
L 77.407502 156.710262 
L 77.732482 151.199976 
L 78.057461 155.798733 
L 78.382441 148.712217 
L 78.70742 148.232732 
L 79.357379 150.801517 
L 79.682359 143.40056 
L 80.007338 140.66615 
L 80.332318 143.085007 
L 80.657297 136.305964 
L 80.982277 139.024403 
L 81.307256 126.562375 
L 81.632236 140.918715 
L 81.957215 133.48987 
L 82.282195 136.05404 
L 82.607174 125.871872 
L 82.932154 125.515963 
L 83.257133 128.319698 
L 83.582113 127.166676 
L 83.907093 128.444554 
L 84.232072 126.727379 
L 84.557052 127.578143 
L 85.53199 120.625526 
L 85.85697 120.341216 
L 86.181949 125.496204 
L 86.506929 125.555542 
L 86.831908 118.150697 
L 87.156888 118.850844 
L 87.481867 120.807338 
L 87.806847 116.940108 
L 88.131826 116.628245 
L 88.456806 119.786767 
L 88.781785 121.082122 
L 89.106765 126.837789 
L 89.431744 119.074969 
L 89.756724 122.569759 
L 90.081704 104.357466 
L 90.406683 115.674904 
L 90.731663 113.360494 
L 91.056642 104.883103 
L 91.381622 120.129962 
L 91.706601 107.858002 
L 92.031581 120.960415 
L 92.35656 112.680816 
L 92.68154 118.129481 
L 93.006519 107.295661 
L 93.331499 111.269836 
L 93.656478 111.225574 
L 93.981458 110.624816 
L 94.306437 107.902166 
L 94.631417 109.622647 
L 94.956396 112.350532 
L 95.281376 107.978488 
L 95.606355 107.550056 
L 95.931335 114.732408 
L 96.256314 100.465498 
L 96.581294 112.499654 
L 96.906274 106.989033 
L 97.231253 108.722346 
L 97.556233 103.048669 
L 97.881212 93.864065 
L 98.206192 107.5436 
L 98.531171 101.021718 
L 98.856151 101.159799 
L 99.18113 104.680862 
L 99.50611 104.844292 
L 100.156069 100.124743 
L 100.481048 96.424703 
L 100.806028 105.206183 
L 101.131007 101.871183 
L 101.455987 101.145826 
L 101.780966 92.409847 
L 102.105946 105.844178 
L 102.430925 107.823816 
L 102.755905 97.581366 
L 103.080885 98.554959 
L 103.405864 107.324808 
L 103.730844 91.100479 
L 104.055823 100.606236 
L 104.380803 94.024897 
L 104.705782 93.124931 
L 105.030762 97.536002 
L 105.355741 91.356311 
L 105.680721 97.33632 
L 106.0057 93.010999 
L 106.33068 97.190268 
L 106.655659 94.746595 
L 106.980639 96.923219 
L 107.305618 100.892297 
L 107.630598 102.085803 
L 107.955577 97.251614 
L 108.280557 94.200903 
L 108.605536 92.726965 
L 108.930516 101.331101 
L 109.255495 87.897124 
L 109.580475 92.421419 
L 109.905455 94.419262 
L 110.230434 93.766015 
L 110.555414 89.313379 
L 110.880393 86.73741 
L 111.205373 96.123979 
L 111.530352 96.877933 
L 111.855332 87.105816 
L 112.180311 95.987 
L 112.505291 90.518536 
L 112.83027 97.554817 
L 113.15525 89.890461 
L 113.480229 93.716774 
L 113.805209 81.740302 
L 114.130188 95.505666 
L 114.455168 89.473207 
L 114.780147 86.995977 
L 115.105127 85.68537 
L 115.430106 88.782271 
L 115.755086 88.763653 
L 116.080066 85.659647 
L 116.405045 92.425454 
L 117.055004 88.057878 
L 117.379984 87.880179 
L 117.704963 91.723044 
L 118.029943 81.178689 
L 118.354922 90.48685 
L 119.004881 85.546088 
L 119.329861 90.902667 
L 119.65484 84.307178 
L 119.97982 92.701753 
L 120.304799 81.673269 
L 120.629779 82.603269 
L 120.954758 82.511851 
L 121.279738 82.161925 
L 121.604717 88.285959 
L 121.929697 82.865359 
L 122.254676 84.008994 
L 122.579656 92.655366 
L 122.904636 81.102899 
L 123.229615 90.50163 
L 123.554595 92.115913 
L 123.879574 80.125901 
L 124.204554 81.270284 
L 124.529533 80.811543 
L 124.854513 90.74089 
L 125.179492 87.3251 
L 125.504472 82.136832 
L 125.829451 82.189971 
L 126.154431 92.142915 
L 126.47941 84.997209 
L 126.80439 84.985558 
L 127.129369 82.333739 
L 127.454349 83.772725 
L 127.779328 80.366342 
L 128.104308 87.79008 
L 128.429287 81.692596 
L 128.754267 85.362191 
L 129.079247 86.852189 
L 129.404226 77.797006 
L 129.729206 86.09361 
L 130.054185 79.581076 
L 130.379165 79.502077 
L 131.029124 86.289336 
L 131.354103 84.259275 
L 131.679083 85.034268 
L 132.004062 83.609787 
L 132.654021 83.061813 
L 132.979001 81.439795 
L 133.30398 85.192187 
L 133.953939 78.932867 
L 134.278919 79.036467 
L 134.603898 74.317391 
L 134.928878 81.680118 
L 135.253857 81.01213 
L 135.578837 78.079269 
L 135.903817 83.816574 
L 136.228796 81.426314 
L 136.553776 75.829767 
L 136.878755 84.097459 
L 137.203735 83.74527 
L 137.528714 81.917706 
L 137.853694 80.850255 
L 138.178673 82.464342 
L 138.503653 82.157556 
L 138.828632 78.423901 
L 139.153612 80.373546 
L 139.478591 75.70005 
L 139.803571 76.554081 
L 140.12855 80.10565 
L 140.45353 71.362822 
L 140.778509 76.910246 
L 141.103489 77.368692 
L 141.428468 79.708195 
L 142.078428 74.261084 
L 142.728387 80.088901 
L 143.053366 76.115356 
L 143.378346 82.306166 
L 143.703325 79.681685 
L 144.028305 71.795663 
L 144.678264 80.054676 
L 145.003243 77.416772 
L 145.328223 77.727789 
L 145.653202 78.487923 
L 145.978182 81.946361 
L 146.303161 76.545186 
L 146.628141 85.100533 
L 146.95312 83.062738 
L 147.603079 73.126483 
L 147.928059 79.312098 
L 148.253038 77.18501 
L 148.578018 72.460089 
L 148.902998 80.128913 
L 149.227977 69.993526 
L 149.552957 70.888946 
L 149.877936 79.83494 
L 150.202916 75.451068 
L 150.527895 80.53117 
L 150.852875 79.026489 
L 151.177854 83.230301 
L 151.502834 83.702248 
L 151.827813 80.703338 
L 152.152793 75.360988 
L 152.477772 74.408632 
L 152.802752 78.190564 
L 153.127731 70.566436 
L 153.452711 70.318379 
L 153.77769 80.156859 
L 154.10267 83.660387 
L 154.752629 73.378673 
L 155.402588 80.48549 
L 155.727568 74.23979 
L 156.052547 81.757031 
L 156.377527 76.773031 
L 156.702506 70.074021 
L 157.027486 77.881555 
L 157.352465 65.820279 
L 157.677445 69.546102 
L 158.002424 70.801307 
L 158.327404 84.605088 
L 158.652383 82.604824 
L 158.977363 74.485544 
L 159.302342 73.530472 
L 159.627322 80.048693 
L 159.952301 79.973571 
L 160.277281 78.892679 
L 160.60226 69.285468 
L 161.252219 79.501565 
L 161.577199 68.554501 
L 161.902179 77.401086 
L 162.227158 69.249826 
L 162.552138 67.494569 
L 162.877117 74.083169 
L 163.202097 74.356851 
L 163.527076 73.055907 
L 163.852056 76.692812 
L 164.177035 75.310546 
L 164.502015 71.425525 
L 164.826994 76.890388 
L 165.151974 73.97707 
L 165.476953 78.389735 
L 165.801933 74.089113 
L 166.126912 74.322233 
L 166.451892 71.951595 
L 166.776871 72.38664 
L 167.101851 70.566889 
L 167.42683 72.574041 
L 167.75181 72.50132 
L 168.07679 72.286228 
L 168.401769 71.69348 
L 168.726749 72.286996 
L 169.051728 70.637366 
L 169.376708 68.125045 
L 169.701687 66.961119 
L 170.026667 76.194158 
L 170.351646 67.034194 
L 171.001605 78.115423 
L 171.651564 66.344872 
L 171.976544 81.126968 
L 172.301523 76.043324 
L 172.626503 73.819485 
L 172.951482 82.497307 
L 173.276462 70.333375 
L 173.601441 78.774653 
L 173.926421 72.536175 
L 174.57638 70.877335 
L 174.90136 62.869685 
L 175.226339 71.177428 
L 175.551319 74.240321 
L 175.876298 69.024972 
L 176.201278 71.189945 
L 176.526257 77.174422 
L 177.176216 74.220306 
L 177.501196 66.158947 
L 177.826175 63.904013 
L 178.151155 74.227036 
L 178.476134 73.093813 
L 178.801114 74.073782 
L 179.126093 74.241029 
L 179.776052 66.015572 
L 180.101032 63.510986 
L 180.426011 77.267316 
L 181.075971 66.704855 
L 181.40095 83.527147 
L 182.050909 65.845569 
L 182.375889 65.733388 
L 182.700868 70.594304 
L 183.025848 73.300324 
L 183.350827 70.543331 
L 183.675807 72.318741 
L 184.000786 81.723062 
L 184.325766 69.930311 
L 184.650745 68.323507 
L 184.975725 64.453955 
L 185.300704 77.204317 
L 185.625684 74.847889 
L 185.950663 74.151816 
L 186.275643 71.562484 
L 186.600622 67.897298 
L 186.925602 75.655079 
L 187.250581 70.078528 
L 187.575561 67.80842 
L 187.900541 67.765319 
L 188.22552 66.600546 
L 188.5505 71.14462 
L 188.875479 69.011609 
L 189.200459 60.4625 
L 189.525438 75.754527 
L 189.850418 70.011318 
L 190.175397 69.846589 
L 190.500377 73.948946 
L 190.825356 76.234523 
L 191.150336 74.159905 
L 191.475315 64.989235 
L 191.800295 75.36028 
L 192.125274 75.618119 
L 192.450254 70.362168 
L 192.775233 76.263946 
L 193.100213 62.262728 
L 193.425192 66.237179 
L 193.750172 68.657314 
L 194.075152 66.392598 
L 194.400131 73.096824 
L 194.725111 71.568467 
L 195.05009 74.571235 
L 195.37507 69.666804 
L 195.700049 74.255849 
L 196.025029 68.911729 
L 196.350008 67.101168 
L 196.674988 71.099571 
L 196.999967 66.058417 
L 197.324947 71.671044 
L 197.649926 63.439919 
L 197.974906 67.674413 
L 198.299885 66.628178 
L 198.624865 75.178035 
L 199.274824 64.657829 
L 199.599803 67.697006 
L 199.924783 68.603585 
L 200.249762 63.006211 
L 200.574742 68.525256 
L 200.899722 72.069798 
L 201.224701 73.80931 
L 201.87466 65.534808 
L 202.19964 64.886954 
L 202.524619 69.686859 
L 202.849599 78.524864 
L 203.174578 68.378554 
L 203.499558 69.352481 
L 203.824537 80.27894 
L 204.149517 69.312943 
L 204.474496 71.939904 
L 205.124455 62.125473 
L 205.449435 67.41372 
L 205.774414 68.729071 
L 206.099394 68.097709 
L 206.424373 65.283582 
L 206.749353 70.325365 
L 207.074333 63.817594 
L 207.399312 69.348959 
L 207.724292 69.678042 
L 208.049271 69.7485 
L 208.374251 67.461367 
L 208.69923 72.791613 
L 209.02421 66.677262 
L 209.349189 74.066401 
L 209.674169 68.548558 
L 209.999148 70.070892 
L 210.649107 66.717766 
L 210.974087 71.57756 
L 211.299066 67.077138 
L 211.624046 71.174338 
L 211.949025 70.010314 
L 212.274005 73.024556 
L 212.598984 62.581164 
L 212.923964 64.185567 
L 213.248943 69.5672 
L 213.573923 62.35326 
L 213.898903 75.670155 
L 214.223882 69.401349 
L 214.873841 77.330688 
L 215.198821 68.966992 
L 215.5238 78.596049 
L 215.84878 66.094551 
L 216.173759 68.265665 
L 216.498739 62.5839 
L 216.823718 65.218183 
L 217.148698 72.468729 
L 217.473677 71.722982 
L 217.798657 65.86218 
L 218.123636 64.50115 
L 218.448616 65.583499 
L 218.773595 61.030135 
L 219.098575 68.167044 
L 219.423554 71.905187 
L 219.748534 60.299975 
L 220.073514 71.039092 
L 220.398493 71.025453 
L 220.723473 72.864727 
L 221.373432 69.091533 
L 221.698411 64.468735 
L 222.34837 72.001564 
L 222.998329 61.941024 
L 223.323309 74.404322 
L 223.648288 66.680765 
L 223.973268 68.356473 
L 224.298247 66.365183 
L 224.623227 59.38454 
L 224.948206 60.970522 
L 225.273186 66.576359 
L 225.598165 65.98054 
L 225.923145 73.478101 
L 226.248124 71.47457 
L 226.573104 71.13232 
L 226.898084 65.777572 
L 227.223063 63.4127 
L 227.548043 60.046998 
L 227.873022 68.67113 
L 228.198002 72.909206 
L 228.522981 66.068081 
L 228.847961 66.971511 
L 229.17294 60.790659 
L 229.49792 65.06355 
L 229.822899 72.167789 
L 230.147879 65.911992 
L 230.472858 73.092159 
L 230.797838 63.245472 
L 231.122817 76.777066 
L 231.447797 70.311018 
L 231.772776 67.669552 
L 232.097756 71.224879 
L 232.422735 64.642852 
L 232.747715 65.958124 
L 233.072695 66.204371 
L 233.397674 64.831532 
L 233.722654 71.240112 
L 234.047633 67.096779 
L 234.372613 67.488429 
L 234.697592 63.088969 
L 235.022572 71.483308 
L 235.347551 66.544535 
L 235.672531 68.472412 
L 235.99751 72.989366 
L 236.32249 67.601908 
L 236.647469 69.568302 
L 236.972449 64.890181 
L 237.297428 72.248106 
L 237.622408 60.358368 
L 237.947387 69.41117 
L 238.272367 56.736362 
L 238.597346 68.172378 
L 238.922326 67.081527 
L 239.247305 56.25611 
L 239.897265 67.789034 
L 240.222244 68.960419 
L 240.547224 71.922703 
L 240.872203 64.579224 
L 241.197183 65.580212 
L 241.522162 67.840696 
L 241.847142 60.725003 
L 242.497101 69.621834 
L 242.82208 66.955195 
L 243.14706 66.300886 
L 243.472039 62.390083 
L 243.797019 69.685954 
L 244.121998 63.401285 
L 244.446978 64.577334 
L 244.771957 68.701773 
L 245.096937 74.576923 
L 245.421916 71.119311 
L 245.746896 64.053273 
L 246.071876 67.905505 
L 246.396855 66.997057 
L 246.721835 65.199151 
L 247.046814 62.320904 
L 247.371794 70.275789 
L 247.696773 64.662553 
L 248.021753 64.59922 
L 248.346732 67.548691 
L 248.671712 68.522815 
L 248.996691 68.088281 
L 249.321671 71.176543 
L 249.64665 65.567931 
L 249.97163 64.41542 
L 250.296609 64.021724 
L 250.621589 66.301102 
L 250.946568 69.719057 
L 251.271548 65.861353 
L 251.596527 72.891631 
L 251.921507 68.194834 
L 252.246486 65.260969 
L 252.571466 72.983147 
L 252.896446 66.939352 
L 253.221425 69.337052 
L 253.546405 66.551679 
L 253.871384 59.990769 
L 254.196364 61.162765 
L 254.521343 59.034319 
L 254.846323 67.400888 
L 255.171302 71.905226 
L 255.496282 64.093185 
L 256.146241 76.004001 
L 256.47122 65.886171 
L 256.7962 69.854973 
L 257.121179 63.903422 
L 257.446159 70.735003 
L 257.771138 74.837753 
L 258.096118 69.855445 
L 258.421097 68.837099 
L 258.746077 60.194447 
L 259.071057 62.825462 
L 259.396036 61.61198 
L 259.721016 73.572215 
L 260.045995 69.10222 
L 260.370975 70.726914 
L 260.695954 77.317344 
L 261.020934 64.369327 
L 261.345913 66.930929 
L 261.670893 71.975664 
L 261.995872 67.629521 
L 262.320852 69.680581 
L 262.970811 63.068285 
L 263.29579 62.296559 
L 263.62077 68.531455 
L 263.945749 64.464248 
L 264.270729 67.565755 
L 264.595708 74.931375 
L 264.920688 63.571721 
L 265.245667 69.534569 
L 265.570647 65.739804 
L 265.895627 59.38576 
L 266.545586 66.804243 
L 266.870565 56.733705 
L 267.195545 69.750192 
L 267.520524 68.793899 
L 267.845504 63.682406 
L 268.170483 67.19849 
L 268.495463 72.410473 
L 268.820442 72.419566 
L 269.795381 63.260232 
L 270.12036 63.949751 
L 270.44534 66.716093 
L 271.095299 58.597542 
L 271.420278 63.535686 
L 271.745258 72.820682 
L 272.070238 62.871102 
L 272.395217 74.777825 
L 273.045176 57.344934 
L 273.370156 68.968528 
L 273.695135 70.089569 
L 274.020115 61.062845 
L 274.345094 68.128745 
L 274.670074 70.28006 
L 274.995053 61.04153 
L 275.320033 65.930039 
L 275.645012 66.859684 
L 275.969992 57.306851 
L 276.294971 64.158978 
L 276.619951 68.089384 
L 276.94493 70.669682 
L 277.26991 70.507787 
L 278.244848 58.061553 
L 278.569828 65.742107 
L 278.894808 64.073524 
L 279.219787 70.605798 
L 279.544767 65.591922 
L 279.869746 56.745809 
L 280.194726 65.462579 
L 280.844685 67.78931 
L 281.169664 67.196699 
L 281.494644 73.52073 
L 282.144603 64.241048 
L 282.469582 71.249027 
L 282.794562 68.580618 
L 283.119541 68.116248 
L 283.444521 65.851453 
L 283.7695 69.68619 
L 284.09448 59.580443 
L 284.419459 64.882565 
L 284.744439 63.163717 
L 285.069419 69.93596 
L 285.394398 69.608333 
L 285.719378 72.68266 
L 286.044357 62.3816 
L 286.369337 75.087287 
L 287.019296 64.68062 
L 287.344275 60.788317 
L 287.669255 60.059003 
L 287.994234 61.139876 
L 288.319214 65.426878 
L 288.644193 76.114982 
L 288.969173 65.132217 
L 289.294152 74.287004 
L 289.619132 66.194471 
L 289.944111 67.841346 
L 290.269091 67.115929 
L 290.59407 65.584207 
L 290.91905 68.669123 
L 291.244029 64.598924 
L 291.569009 63.828242 
L 291.893989 70.101555 
L 292.218968 64.240516 
L 292.543948 66.910382 
L 292.868927 74.751472 
L 293.193907 67.187016 
L 293.518886 72.642806 
L 293.843866 59.113712 
L 294.168845 64.845388 
L 294.493825 66.711231 
L 294.818804 65.927973 
L 295.143784 71.540717 
L 295.468763 63.646607 
L 295.793743 73.545528 
L 296.118722 67.153598 
L 296.443702 63.880927 
L 296.768681 64.661608 
L 297.093661 70.961136 
L 297.41864 70.607746 
L 298.0686 65.202103 
L 298.393579 73.121641 
L 298.718559 67.327813 
L 299.043538 66.429264 
L 299.368518 73.34309 
L 299.693497 64.690499 
L 300.018477 63.073796 
L 300.343456 63.760894 
L 300.668436 71.193114 
L 300.993415 63.133645 
L 301.318395 75.475157 
L 301.643374 64.201706 
L 301.968354 75.104527 
L 302.293333 70.740769 
L 302.618313 68.060098 
L 303.268272 60.126902 
L 303.593251 61.324679 
L 303.918231 70.596075 
L 304.24321 65.274253 
L 304.56819 71.921266 
L 304.89317 64.442422 
L 305.218149 71.003115 
L 305.543129 65.161423 
L 305.868108 62.367312 
L 306.193088 63.956384 
L 306.518067 64.898565 
L 307.168026 69.113339 
L 307.493006 57.398485 
L 307.817985 73.071337 
L 308.467944 60.935293 
L 308.792924 64.097397 
L 309.117903 68.72234 
L 309.442883 62.985153 
L 309.767862 69.602783 
L 310.092842 62.90084 
L 310.417821 59.688491 
L 311.067781 67.541587 
L 311.39276 60.369941 
L 311.71774 74.581784 
L 312.042719 68.940305 
L 312.692678 72.810546 
L 313.017658 64.977958 
L 313.342637 71.755022 
L 313.667617 71.137771 
L 313.992596 67.525547 
L 314.317576 73.217054 
L 314.642555 63.325415 
L 314.967535 59.258779 
L 315.617494 72.309412 
L 315.942473 59.733186 
L 316.267453 61.320526 
L 316.592432 76.05592 
L 316.917412 73.126994 
L 317.242391 64.161773 
L 317.567371 66.301004 
L 317.892351 66.760768 
L 318.21733 74.856765 
L 318.54231 68.504748 
L 318.867289 67.415216 
L 319.192269 69.926493 
L 319.842228 65.727169 
L 320.167207 70.458723 
L 320.492187 63.871244 
L 320.817166 67.514584 
L 321.142146 72.677995 
L 321.467125 61.498087 
L 321.792105 61.189668 
L 322.117084 63.724189 
L 322.442064 63.981555 
L 322.767043 60.046565 
L 323.092023 77.436532 
L 323.417002 66.982001 
L 323.741982 65.932539 
L 324.066962 71.718258 
L 324.716921 61.756477 
L 325.0419 62.148776 
L 325.36688 70.37134 
L 325.691859 58.566328 
L 326.016839 69.795714 
L 326.341818 59.797995 
L 326.666798 68.326459 
L 326.991777 62.676656 
L 327.316757 64.791934 
L 327.641736 63.013041 
L 327.966716 62.317775 
L 328.291695 71.732606 
L 328.616675 67.826506 
L 328.941654 60.136329 
L 329.266634 64.510675 
L 329.591613 59.644268 
L 329.916593 65.905143 
L 330.241572 69.389304 
L 330.566552 61.294292 
L 330.891532 62.581597 
L 331.216511 58.846052 
L 331.541491 68.326164 
L 331.86647 73.092671 
L 332.19145 66.744158 
L 332.516429 68.242363 
L 332.841409 75.614753 
L 333.166388 62.128406 
L 333.491368 62.027581 
L 333.816347 65.011612 
L 334.141327 60.666886 
L 334.466306 65.358389 
L 334.791286 66.063889 
L 335.116265 61.385394 
L 335.441245 68.147541 
L 335.766224 65.998568 
L 336.091204 69.442187 
L 336.416183 61.477619 
L 336.741163 66.802649 
L 337.066143 62.899423 
L 337.391122 62.6998 
L 337.716102 70.967788 
L 338.041081 69.647694 
L 338.366061 61.172388 
L 338.69104 62.619424 
L 339.340999 73.725293 
L 339.665979 68.072891 
L 339.990958 56.057156 
L 340.315938 70.969559 
L 340.640917 69.859834 
L 340.965897 61.015316 
L 341.290876 63.887875 
L 341.615856 63.935483 
L 341.940835 62.674865 
L 342.265815 72.695275 
L 342.590794 69.118909 
L 342.915774 62.811351 
L 343.240753 61.558133 
L 343.565733 70.288287 
L 343.890713 67.751975 
L 344.215692 68.11489 
L 344.540672 62.091799 
L 344.865651 64.831454 
L 345.190631 69.47222 
L 345.51561 53.605787 
L 345.84059 62.167433 
L 346.165569 67.57038 
L 346.490549 65.863203 
L 346.815528 66.329069 
L 347.140508 66.358491 
L 347.465487 53.568 
L 347.790467 69.029794 
L 348.115446 68.879944 
L 348.440426 69.026271 
L 348.765405 59.316484 
L 349.090385 58.299259 
L 349.415364 63.57424 
L 349.740344 65.250951 
L 350.065324 69.661766 
L 350.390303 64.110052 
L 350.715283 68.812537 
L 351.040262 62.503897 
L 351.365242 66.842424 
L 351.690221 68.144254 
L 352.015201 67.456172 
L 352.34018 68.866817 
L 352.66516 61.322927 
L 352.990139 63.318389 
L 353.315119 63.34919 
L 353.640098 62.376798 
L 353.965078 63.547415 
L 354.290057 64.006196 
L 354.615037 71.09839 
L 354.940016 64.150142 
L 355.264996 71.196657 
L 355.589975 64.783019 
L 355.914955 67.79297 
L 356.239934 67.07889 
L 356.564914 57.274339 
L 356.889894 60.961469 
L 357.214873 65.948165 
L 357.539853 65.965071 
L 357.864832 61.905107 
L 358.189812 62.074382 
L 358.514791 64.382376 
L 358.839771 72.830679 
L 359.16475 67.346411 
L 359.48973 67.248637 
L 359.814709 67.766913 
L 360.139689 65.450495 
L 360.464668 66.126277 
L 360.789648 63.686362 
L 361.114627 64.418156 
L 361.439607 66.291675 
L 361.764586 64.351634 
L 362.089566 66.553076 
L 362.414545 64.144611 
L 362.739525 66.955609 
L 363.064505 58.552355 
L 363.389484 70.112536 
L 363.714464 70.955094 
L 364.689402 56.551284 
L 365.014382 62.268061 
L 365.339361 71.599386 
L 365.664341 70.998077 
L 365.98932 64.735017 
L 366.3143 68.746094 
L 366.639279 68.436062 
L 366.964259 64.303219 
L 367.289238 66.644553 
L 367.614218 67.19235 
L 367.939197 64.965854 
L 368.264177 71.409722 
L 368.589156 62.246038 
L 368.914136 71.100693 
L 369.239115 74.08435 
L 369.564095 65.903313 
L 369.889075 62.9946 
L 370.214054 63.058031 
L 370.539034 65.883317 
L 370.864013 65.416861 
L 371.513972 67.017151 
L 372.163931 67.886533 
L 372.488911 65.006043 
L 372.81389 67.134311 
L 373.13887 72.599075 
L 373.463849 66.861278 
L 373.788829 65.46191 
L 374.113808 63.328249 
L 374.763767 69.797859 
L 375.088747 63.358952 
L 375.413726 67.042913 
L 375.738706 68.070392 
L 376.063686 70.62845 
L 376.388665 72.234645 
L 376.713645 58.238032 
L 377.038624 71.178117 
L 377.363604 58.244546 
L 378.013563 70.842913 
L 378.338542 68.053151 
L 378.663522 62.917923 
L 378.988501 60.808135 
L 379.313481 67.993439 
L 379.63846 69.761627 
L 379.96344 70.488382 
L 380.288419 65.626659 
L 380.613399 67.390713 
L 380.938378 65.60623 
L 381.263358 66.750652 
L 381.588337 58.726491 
L 381.913317 70.83567 
L 382.238296 66.481989 
L 382.563276 60.123753 
L 382.888256 64.734407 
L 383.213235 61.116908 
L 383.538215 66.526586 
L 383.863194 69.869202 
L 384.188174 60.13995 
L 384.513153 64.458856 
L 384.838133 66.590627 
L 385.163112 64.051245 
L 385.488092 70.932598 
L 385.813071 64.915333 
L 386.138051 65.184331 
L 386.46303 67.597342 
L 386.78801 63.936152 
L 387.112989 61.549041 
L 387.437969 73.25122 
L 387.762948 57.817452 
L 388.412907 72.873781 
L 388.737887 68.651075 
L 389.062867 67.497108 
L 389.387846 62.754041 
L 389.712826 69.222627 
L 390.037805 62.608284 
L 390.362785 60.932951 
L 390.687764 61.861258 
L 391.012744 63.755048 
L 391.337723 70.839823 
L 391.662703 56.780644 
L 392.312662 74.717031 
L 392.637641 58.857034 
L 392.962621 66.492518 
L 393.2876 59.627126 
L 393.61258 70.771196 
L 393.937559 63.340786 
L 394.262539 65.967413 
L 394.587518 60.966448 
L 394.912498 67.471227 
L 395.237477 64.376531 
L 395.562457 63.899998 
L 395.887437 64.859558 
L 396.212416 64.335575 
L 396.862375 73.816218 
L 397.187355 66.497556 
L 397.512334 62.369398 
L 397.837314 66.390473 
L 398.162293 67.576205 
L 398.487273 64.241402 
L 398.487273 64.241402 
" style="fill:none;stroke:#2ca02c;stroke-linecap:square;stroke-width:1.5;"/>
   </g>
   <g id="patch_3">
    <path d="M 57.6 307.584 
L 57.6 41.472 
" style="fill:none;stroke:#000000;stroke-linecap:square;stroke-linejoin:miter;stroke-width:0.8;"/>
   </g>
   <g id="patch_4">
    <path d="M 414.72 307.584 
L 414.72 41.472 
" style="fill:none;stroke:#000000;stroke-linecap:square;stroke-linejoin:miter;stroke-width:0.8;"/>
   </g>
   <g id="patch_5">
    <path d="M 57.6 307.584 
L 414.72 307.584 
" style="fill:none;stroke:#000000;stroke-linecap:square;stroke-linejoin:miter;stroke-width:0.8;"/>
   </g>
   <g id="patch_6">
    <path d="M 57.6 41.472 
L 414.72 41.472 
" style="fill:none;stroke:#000000;stroke-linecap:square;stroke-linejoin:miter;stroke-width:0.8;"/>
   </g>
   <g id="text_12">
    <!-- -greedy bandits -->
    <defs>
     <path d="M 19.28125 29.5 
Q 13.8125 30.671875 10.890625 33.84375 
Q 7.953125 36.96875 7.953125 41.5 
Q 7.953125 48.390625 13.53125 52.25 
Q 19.046875 56.0625 28.609375 56.0625 
Q 32.328125 56.0625 36.46875 55.46875 
Q 40.625 54.890625 45.40625 53.71875 
L 45.40625 45.5625 
Q 40.671875 46.96875 36.765625 47.609375 
Q 32.8125 48.25 29.34375 48.25 
Q 23.53125 48.25 20.171875 46 
Q 16.75 43.75 16.75 40.625 
Q 16.75 37.203125 20.0625 35.015625 
Q 23.34375 32.859375 29 32.859375 
L 36.578125 32.859375 
L 36.578125 25.4375 
L 29.34375 25.4375 
Q 22.65625 25.4375 19.140625 22.953125 
Q 15.328125 20.21875 15.328125 15.921875 
Q 15.328125 11.53125 19.4375 8.796875 
Q 23.578125 6.0625 30.953125 6.0625 
Q 35.5 6.0625 39.65625 6.9375 
Q 43.796875 7.859375 47.265625 9.671875 
L 47.265625 1.3125 
Q 42.875 -0.046875 38.765625 -0.734375 
Q 34.625 -1.421875 30.71875 -1.421875 
Q 19.09375 -1.421875 12.796875 3.03125 
Q 6.5 7.46875 6.5 15.921875 
Q 6.5 21.1875 9.859375 24.75 
Q 13.234375 28.328125 19.28125 29.5 
z
" id="DejaVuSans-3b5"/>
     <path d="M 4.890625 31.390625 
L 31.203125 31.390625 
L 31.203125 23.390625 
L 4.890625 23.390625 
z
" id="DejaVuSans-2d"/>
     <path d="M 32.171875 -5.078125 
Q 28.375 -14.84375 24.75 -17.8125 
Q 21.140625 -20.796875 15.09375 -20.796875 
L 7.90625 -20.796875 
L 7.90625 -13.28125 
L 13.1875 -13.28125 
Q 16.890625 -13.28125 18.9375 -11.515625 
Q 21 -9.765625 23.484375 -3.21875 
L 25.09375 0.875 
L 2.984375 54.6875 
L 12.5 54.6875 
L 29.59375 11.921875 
L 46.6875 54.6875 
L 56.203125 54.6875 
z
" id="DejaVuSans-79"/>
     <path d="M 48.6875 27.296875 
Q 48.6875 37.203125 44.609375 42.84375 
Q 40.53125 48.484375 33.40625 48.484375 
Q 26.265625 48.484375 22.1875 42.84375 
Q 18.109375 37.203125 18.109375 27.296875 
Q 18.109375 17.390625 22.1875 11.75 
Q 26.265625 6.109375 33.40625 6.109375 
Q 40.53125 6.109375 44.609375 11.75 
Q 48.6875 17.390625 48.6875 27.296875 
z
M 18.109375 46.390625 
Q 20.953125 51.265625 25.265625 53.625 
Q 29.59375 56 35.59375 56 
Q 45.5625 56 51.78125 48.09375 
Q 58.015625 40.1875 58.015625 27.296875 
Q 58.015625 14.40625 51.78125 6.484375 
Q 45.5625 -1.421875 35.59375 -1.421875 
Q 29.59375 -1.421875 25.265625 0.953125 
Q 20.953125 3.328125 18.109375 8.203125 
L 18.109375 0 
L 9.078125 0 
L 9.078125 75.984375 
L 18.109375 75.984375 
z
" id="DejaVuSans-62"/>
     <path d="M 54.890625 33.015625 
L 54.890625 0 
L 45.90625 0 
L 45.90625 32.71875 
Q 45.90625 40.484375 42.875 44.328125 
Q 39.84375 48.1875 33.796875 48.1875 
Q 26.515625 48.1875 22.3125 43.546875 
Q 18.109375 38.921875 18.109375 30.90625 
L 18.109375 0 
L 9.078125 0 
L 9.078125 54.6875 
L 18.109375 54.6875 
L 18.109375 46.1875 
Q 21.34375 51.125 25.703125 53.5625 
Q 30.078125 56 35.796875 56 
Q 45.21875 56 50.046875 50.171875 
Q 54.890625 44.34375 54.890625 33.015625 
z
" id="DejaVuSans-6e"/>
     <path d="M 9.421875 54.6875 
L 18.40625 54.6875 
L 18.40625 0 
L 9.421875 0 
z
M 9.421875 75.984375 
L 18.40625 75.984375 
L 18.40625 64.59375 
L 9.421875 64.59375 
z
" id="DejaVuSans-69"/>
    </defs>
    <g transform="translate(185.585625 35.472)scale(0.12 -0.12)">
     <use xlink:href="#DejaVuSans-3b5"/>
     <use x="54.052734" xlink:href="#DejaVuSans-2d"/>
     <use x="90.136719" xlink:href="#DejaVuSans-67"/>
     <use x="153.613281" xlink:href="#DejaVuSans-72"/>
     <use x="194.695312" xlink:href="#DejaVuSans-65"/>
     <use x="256.21875" xlink:href="#DejaVuSans-65"/>
     <use x="317.742188" xlink:href="#DejaVuSans-64"/>
     <use x="381.21875" xlink:href="#DejaVuSans-79"/>
     <use x="440.398438" xlink:href="#DejaVuSans-20"/>
     <use x="472.185547" xlink:href="#DejaVuSans-62"/>
     <use x="535.662109" xlink:href="#DejaVuSans-61"/>
     <use x="596.941406" xlink:href="#DejaVuSans-6e"/>
     <use x="660.320312" xlink:href="#DejaVuSans-64"/>
     <use x="723.796875" xlink:href="#DejaVuSans-69"/>
     <use x="751.580078" xlink:href="#DejaVuSans-74"/>
     <use x="790.789062" xlink:href="#DejaVuSans-73"/>
    </g>
   </g>
   <g id="legend_1">
    <g id="patch_7">
     <path d="M 339.67 302.584 
L 407.72 302.584 
Q 409.72 302.584 409.72 300.584 
L 409.72 257.549625 
Q 409.72 255.549625 407.72 255.549625 
L 339.67 255.549625 
Q 337.67 255.549625 337.67 257.549625 
L 337.67 300.584 
Q 337.67 302.584 339.67 302.584 
z
" style="fill:#ffffff;opacity:0.8;stroke:#cccccc;stroke-linejoin:miter;"/>
    </g>
    <g id="line2d_13">
     <path d="M 341.67 263.648062 
L 361.67 263.648062 
" style="fill:none;stroke:#1f77b4;stroke-linecap:square;stroke-width:1.5;"/>
    </g>
    <g id="line2d_14"/>
    <g id="text_13">
     <!-- =0, -->
     <defs>
      <path d="M 10.59375 45.40625 
L 73.1875 45.40625 
L 73.1875 37.203125 
L 10.59375 37.203125 
z
M 10.59375 25.484375 
L 73.1875 25.484375 
L 73.1875 17.1875 
L 10.59375 17.1875 
z
" id="DejaVuSans-3d"/>
      <path d="M 11.71875 12.40625 
L 22.015625 12.40625 
L 22.015625 4 
L 14.015625 -11.625 
L 7.71875 -11.625 
L 11.71875 4 
z
" id="DejaVuSans-2c"/>
     </defs>
     <g transform="translate(369.67 267.148062)scale(0.1 -0.1)">
      <use xlink:href="#DejaVuSans-3b5"/>
      <use x="54.052734" xlink:href="#DejaVuSans-3d"/>
      <use x="137.841797" xlink:href="#DejaVuSans-30"/>
      <use x="201.464844" xlink:href="#DejaVuSans-2c"/>
     </g>
    </g>
    <g id="line2d_15">
     <path d="M 341.67 278.326188 
L 361.67 278.326188 
" style="fill:none;stroke:#ff7f0e;stroke-linecap:square;stroke-width:1.5;"/>
    </g>
    <g id="line2d_16"/>
    <g id="text_14">
     <!-- =0.01 -->
     <g transform="translate(369.67 281.826188)scale(0.1 -0.1)">
      <use xlink:href="#DejaVuSans-3b5"/>
      <use x="54.052734" xlink:href="#DejaVuSans-3d"/>
      <use x="137.841797" xlink:href="#DejaVuSans-30"/>
      <use x="201.464844" xlink:href="#DejaVuSans-2e"/>
      <use x="233.251953" xlink:href="#DejaVuSans-30"/>
      <use x="296.875" xlink:href="#DejaVuSans-31"/>
     </g>
    </g>
    <g id="line2d_17">
     <path d="M 341.67 293.004312 
L 361.67 293.004312 
" style="fill:none;stroke:#2ca02c;stroke-linecap:square;stroke-width:1.5;"/>
    </g>
    <g id="line2d_18"/>
    <g id="text_15">
     <!-- =0.1 -->
     <g transform="translate(369.67 296.504312)scale(0.1 -0.1)">
      <use xlink:href="#DejaVuSans-3b5"/>
      <use x="54.052734" xlink:href="#DejaVuSans-3d"/>
      <use x="137.841797" xlink:href="#DejaVuSans-30"/>
      <use x="201.464844" xlink:href="#DejaVuSans-2e"/>
      <use x="233.251953" xlink:href="#DejaVuSans-31"/>
     </g>
    </g>
   </g>
  </g>
 </g>
 <defs>
  <clipPath id="pdf950a2a79">
   <rect height="266.112" width="357.12" x="57.6" y="41.472"/>
  </clipPath>
 </defs>
</svg>
