<?xml version="1.0" encoding="utf-8" standalone="no"?>
<!DOCTYPE svg PUBLIC "-//W3C//DTD SVG 1.1//EN"
  "http://www.w3.org/Graphics/SVG/1.1/DTD/svg11.dtd">
<!-- Created with matplotlib (http://matplotlib.org/) -->
<svg height="288pt" version="1.1" viewBox="0 0 432 288" width="432pt" xmlns="http://www.w3.org/2000/svg" xmlns:xlink="http://www.w3.org/1999/xlink">
 <defs>
  <style type="text/css">
*{stroke-linecap:butt;stroke-linejoin:round;}
  </style>
 </defs>
 <g id="figure_1">
  <g id="patch_1">
   <path d="M 0 288 
L 432 288 
L 432 0 
L 0 0 
z
" style="fill:#ffffff;"/>
  </g>
  <g id="axes_1">
   <g id="patch_2">
    <path d="M 54 256.32 
L 388.8 256.32 
L 388.8 34.56 
L 54 34.56 
z
" style="fill:#ffffff;"/>
   </g>
   <g id="matplotlib.axis_1">
    <g id="xtick_1">
     <g id="line2d_1">
      <defs>
       <path d="M 0 0 
L 0 3.5 
" id="mfa428a2d71" style="stroke:#000000;stroke-width:0.8;"/>
      </defs>
      <g>
       <use style="stroke:#000000;stroke-width:0.8;" x="69.218182" xlink:href="#mfa428a2d71" y="256.32"/>
      </g>
     </g>
     <g id="text_1">
      <!-- 0 -->
      <defs>
       <path d="M 31.78125 66.40625 
Q 24.171875 66.40625 20.328125 58.90625 
Q 16.5 51.421875 16.5 36.375 
Q 16.5 21.390625 20.328125 13.890625 
Q 24.171875 6.390625 31.78125 6.390625 
Q 39.453125 6.390625 43.28125 13.890625 
Q 47.125 21.390625 47.125 36.375 
Q 47.125 51.421875 43.28125 58.90625 
Q 39.453125 66.40625 31.78125 66.40625 
z
M 31.78125 74.21875 
Q 44.046875 74.21875 50.515625 64.515625 
Q 56.984375 54.828125 56.984375 36.375 
Q 56.984375 17.96875 50.515625 8.265625 
Q 44.046875 -1.421875 31.78125 -1.421875 
Q 19.53125 -1.421875 13.0625 8.265625 
Q 6.59375 17.96875 6.59375 36.375 
Q 6.59375 54.828125 13.0625 64.515625 
Q 19.53125 74.21875 31.78125 74.21875 
z
" id="DejaVuSans-30"/>
      </defs>
      <g transform="translate(66.036932 270.918437)scale(0.1 -0.1)">
       <use xlink:href="#DejaVuSans-30"/>
      </g>
     </g>
    </g>
    <g id="xtick_2">
     <g id="line2d_2">
      <g>
       <use style="stroke:#000000;stroke-width:0.8;" x="145.385258" xlink:href="#mfa428a2d71" y="256.32"/>
      </g>
     </g>
     <g id="text_2">
      <!-- 250 -->
      <defs>
       <path d="M 19.1875 8.296875 
L 53.609375 8.296875 
L 53.609375 0 
L 7.328125 0 
L 7.328125 8.296875 
Q 12.9375 14.109375 22.625 23.890625 
Q 32.328125 33.6875 34.8125 36.53125 
Q 39.546875 41.84375 41.421875 45.53125 
Q 43.3125 49.21875 43.3125 52.78125 
Q 43.3125 58.59375 39.234375 62.25 
Q 35.15625 65.921875 28.609375 65.921875 
Q 23.96875 65.921875 18.8125 64.3125 
Q 13.671875 62.703125 7.8125 59.421875 
L 7.8125 69.390625 
Q 13.765625 71.78125 18.9375 73 
Q 24.125 74.21875 28.421875 74.21875 
Q 39.75 74.21875 46.484375 68.546875 
Q 53.21875 62.890625 53.21875 53.421875 
Q 53.21875 48.921875 51.53125 44.890625 
Q 49.859375 40.875 45.40625 35.40625 
Q 44.1875 33.984375 37.640625 27.21875 
Q 31.109375 20.453125 19.1875 8.296875 
z
" id="DejaVuSans-32"/>
       <path d="M 10.796875 72.90625 
L 49.515625 72.90625 
L 49.515625 64.59375 
L 19.828125 64.59375 
L 19.828125 46.734375 
Q 21.96875 47.46875 24.109375 47.828125 
Q 26.265625 48.1875 28.421875 48.1875 
Q 40.625 48.1875 47.75 41.5 
Q 54.890625 34.8125 54.890625 23.390625 
Q 54.890625 11.625 47.5625 5.09375 
Q 40.234375 -1.421875 26.90625 -1.421875 
Q 22.3125 -1.421875 17.546875 -0.640625 
Q 12.796875 0.140625 7.71875 1.703125 
L 7.71875 11.625 
Q 12.109375 9.234375 16.796875 8.0625 
Q 21.484375 6.890625 26.703125 6.890625 
Q 35.15625 6.890625 40.078125 11.328125 
Q 45.015625 15.765625 45.015625 23.390625 
Q 45.015625 31 40.078125 35.4375 
Q 35.15625 39.890625 26.703125 39.890625 
Q 22.75 39.890625 18.8125 39.015625 
Q 14.890625 38.140625 10.796875 36.28125 
z
" id="DejaVuSans-35"/>
      </defs>
      <g transform="translate(135.841508 270.918437)scale(0.1 -0.1)">
       <use xlink:href="#DejaVuSans-32"/>
       <use x="63.623047" xlink:href="#DejaVuSans-35"/>
       <use x="127.246094" xlink:href="#DejaVuSans-30"/>
      </g>
     </g>
    </g>
    <g id="xtick_3">
     <g id="line2d_3">
      <g>
       <use style="stroke:#000000;stroke-width:0.8;" x="221.552334" xlink:href="#mfa428a2d71" y="256.32"/>
      </g>
     </g>
     <g id="text_3">
      <!-- 500 -->
      <g transform="translate(212.008584 270.918437)scale(0.1 -0.1)">
       <use xlink:href="#DejaVuSans-35"/>
       <use x="63.623047" xlink:href="#DejaVuSans-30"/>
       <use x="127.246094" xlink:href="#DejaVuSans-30"/>
      </g>
     </g>
    </g>
    <g id="xtick_4">
     <g id="line2d_4">
      <g>
       <use style="stroke:#000000;stroke-width:0.8;" x="297.71941" xlink:href="#mfa428a2d71" y="256.32"/>
      </g>
     </g>
     <g id="text_4">
      <!-- 750 -->
      <defs>
       <path d="M 8.203125 72.90625 
L 55.078125 72.90625 
L 55.078125 68.703125 
L 28.609375 0 
L 18.3125 0 
L 43.21875 64.59375 
L 8.203125 64.59375 
z
" id="DejaVuSans-37"/>
      </defs>
      <g transform="translate(288.17566 270.918437)scale(0.1 -0.1)">
       <use xlink:href="#DejaVuSans-37"/>
       <use x="63.623047" xlink:href="#DejaVuSans-35"/>
       <use x="127.246094" xlink:href="#DejaVuSans-30"/>
      </g>
     </g>
    </g>
    <g id="xtick_5">
     <g id="line2d_5">
      <g>
       <use style="stroke:#000000;stroke-width:0.8;" x="373.886486" xlink:href="#mfa428a2d71" y="256.32"/>
      </g>
     </g>
     <g id="text_5">
      <!-- 1000 -->
      <defs>
       <path d="M 12.40625 8.296875 
L 28.515625 8.296875 
L 28.515625 63.921875 
L 10.984375 60.40625 
L 10.984375 69.390625 
L 28.421875 72.90625 
L 38.28125 72.90625 
L 38.28125 8.296875 
L 54.390625 8.296875 
L 54.390625 0 
L 12.40625 0 
z
" id="DejaVuSans-31"/>
      </defs>
      <g transform="translate(361.161486 270.918437)scale(0.1 -0.1)">
       <use xlink:href="#DejaVuSans-31"/>
       <use x="63.623047" xlink:href="#DejaVuSans-30"/>
       <use x="127.246094" xlink:href="#DejaVuSans-30"/>
       <use x="190.869141" xlink:href="#DejaVuSans-30"/>
      </g>
     </g>
    </g>
    <g id="text_6">
     <!-- Steps -->
     <defs>
      <path d="M 53.515625 70.515625 
L 53.515625 60.890625 
Q 47.90625 63.578125 42.921875 64.890625 
Q 37.9375 66.21875 33.296875 66.21875 
Q 25.25 66.21875 20.875 63.09375 
Q 16.5 59.96875 16.5 54.203125 
Q 16.5 49.359375 19.40625 46.890625 
Q 22.3125 44.4375 30.421875 42.921875 
L 36.375 41.703125 
Q 47.40625 39.59375 52.65625 34.296875 
Q 57.90625 29 57.90625 20.125 
Q 57.90625 9.515625 50.796875 4.046875 
Q 43.703125 -1.421875 29.984375 -1.421875 
Q 24.8125 -1.421875 18.96875 -0.25 
Q 13.140625 0.921875 6.890625 3.21875 
L 6.890625 13.375 
Q 12.890625 10.015625 18.65625 8.296875 
Q 24.421875 6.59375 29.984375 6.59375 
Q 38.421875 6.59375 43.015625 9.90625 
Q 47.609375 13.234375 47.609375 19.390625 
Q 47.609375 24.75 44.3125 27.78125 
Q 41.015625 30.8125 33.5 32.328125 
L 27.484375 33.5 
Q 16.453125 35.6875 11.515625 40.375 
Q 6.59375 45.0625 6.59375 53.421875 
Q 6.59375 63.09375 13.40625 68.65625 
Q 20.21875 74.21875 32.171875 74.21875 
Q 37.3125 74.21875 42.625 73.28125 
Q 47.953125 72.359375 53.515625 70.515625 
z
" id="DejaVuSans-53"/>
      <path d="M 18.3125 70.21875 
L 18.3125 54.6875 
L 36.8125 54.6875 
L 36.8125 47.703125 
L 18.3125 47.703125 
L 18.3125 18.015625 
Q 18.3125 11.328125 20.140625 9.421875 
Q 21.96875 7.515625 27.59375 7.515625 
L 36.8125 7.515625 
L 36.8125 0 
L 27.59375 0 
Q 17.1875 0 13.234375 3.875 
Q 9.28125 7.765625 9.28125 18.015625 
L 9.28125 47.703125 
L 2.6875 47.703125 
L 2.6875 54.6875 
L 9.28125 54.6875 
L 9.28125 70.21875 
z
" id="DejaVuSans-74"/>
      <path d="M 56.203125 29.59375 
L 56.203125 25.203125 
L 14.890625 25.203125 
Q 15.484375 15.921875 20.484375 11.0625 
Q 25.484375 6.203125 34.421875 6.203125 
Q 39.59375 6.203125 44.453125 7.46875 
Q 49.3125 8.734375 54.109375 11.28125 
L 54.109375 2.78125 
Q 49.265625 0.734375 44.1875 -0.34375 
Q 39.109375 -1.421875 33.890625 -1.421875 
Q 20.796875 -1.421875 13.15625 6.1875 
Q 5.515625 13.8125 5.515625 26.8125 
Q 5.515625 40.234375 12.765625 48.109375 
Q 20.015625 56 32.328125 56 
Q 43.359375 56 49.78125 48.890625 
Q 56.203125 41.796875 56.203125 29.59375 
z
M 47.21875 32.234375 
Q 47.125 39.59375 43.09375 43.984375 
Q 39.0625 48.390625 32.421875 48.390625 
Q 24.90625 48.390625 20.390625 44.140625 
Q 15.875 39.890625 15.1875 32.171875 
z
" id="DejaVuSans-65"/>
      <path d="M 18.109375 8.203125 
L 18.109375 -20.796875 
L 9.078125 -20.796875 
L 9.078125 54.6875 
L 18.109375 54.6875 
L 18.109375 46.390625 
Q 20.953125 51.265625 25.265625 53.625 
Q 29.59375 56 35.59375 56 
Q 45.5625 56 51.78125 48.09375 
Q 58.015625 40.1875 58.015625 27.296875 
Q 58.015625 14.40625 51.78125 6.484375 
Q 45.5625 -1.421875 35.59375 -1.421875 
Q 29.59375 -1.421875 25.265625 0.953125 
Q 20.953125 3.328125 18.109375 8.203125 
z
M 48.6875 27.296875 
Q 48.6875 37.203125 44.609375 42.84375 
Q 40.53125 48.484375 33.40625 48.484375 
Q 26.265625 48.484375 22.1875 42.84375 
Q 18.109375 37.203125 18.109375 27.296875 
Q 18.109375 17.390625 22.1875 11.75 
Q 26.265625 6.109375 33.40625 6.109375 
Q 40.53125 6.109375 44.609375 11.75 
Q 48.6875 17.390625 48.6875 27.296875 
z
" id="DejaVuSans-70"/>
      <path d="M 44.28125 53.078125 
L 44.28125 44.578125 
Q 40.484375 46.53125 36.375 47.5 
Q 32.28125 48.484375 27.875 48.484375 
Q 21.1875 48.484375 17.84375 46.4375 
Q 14.5 44.390625 14.5 40.28125 
Q 14.5 37.15625 16.890625 35.375 
Q 19.28125 33.59375 26.515625 31.984375 
L 29.59375 31.296875 
Q 39.15625 29.25 43.1875 25.515625 
Q 47.21875 21.78125 47.21875 15.09375 
Q 47.21875 7.46875 41.1875 3.015625 
Q 35.15625 -1.421875 24.609375 -1.421875 
Q 20.21875 -1.421875 15.453125 -0.5625 
Q 10.6875 0.296875 5.421875 2 
L 5.421875 11.28125 
Q 10.40625 8.6875 15.234375 7.390625 
Q 20.0625 6.109375 24.8125 6.109375 
Q 31.15625 6.109375 34.5625 8.28125 
Q 37.984375 10.453125 37.984375 14.40625 
Q 37.984375 18.0625 35.515625 20.015625 
Q 33.0625 21.96875 24.703125 23.78125 
L 21.578125 24.515625 
Q 13.234375 26.265625 9.515625 29.90625 
Q 5.8125 33.546875 5.8125 39.890625 
Q 5.8125 47.609375 11.28125 51.796875 
Q 16.75 56 26.8125 56 
Q 31.78125 56 36.171875 55.265625 
Q 40.578125 54.546875 44.28125 53.078125 
z
" id="DejaVuSans-73"/>
     </defs>
     <g transform="translate(207.410156 284.596563)scale(0.1 -0.1)">
      <use xlink:href="#DejaVuSans-53"/>
      <use x="63.476562" xlink:href="#DejaVuSans-74"/>
      <use x="102.685547" xlink:href="#DejaVuSans-65"/>
      <use x="164.208984" xlink:href="#DejaVuSans-70"/>
      <use x="227.685547" xlink:href="#DejaVuSans-73"/>
     </g>
    </g>
   </g>
   <g id="matplotlib.axis_2">
    <g id="ytick_1">
     <g id="line2d_6">
      <defs>
       <path d="M 0 0 
L -3.5 0 
" id="m5f881f8ead" style="stroke:#000000;stroke-width:0.8;"/>
      </defs>
      <g>
       <use style="stroke:#000000;stroke-width:0.8;" x="54" xlink:href="#m5f881f8ead" y="157.069864"/>
      </g>
     </g>
     <g id="text_7">
      <!-- 0.0 -->
      <defs>
       <path d="M 10.6875 12.40625 
L 21 12.40625 
L 21 0 
L 10.6875 0 
z
" id="DejaVuSans-2e"/>
      </defs>
      <g transform="translate(31.096875 160.869082)scale(0.1 -0.1)">
       <use xlink:href="#DejaVuSans-30"/>
       <use x="63.623047" xlink:href="#DejaVuSans-2e"/>
       <use x="95.410156" xlink:href="#DejaVuSans-30"/>
      </g>
     </g>
    </g>
    <g id="ytick_2">
     <g id="line2d_7">
      <g>
       <use style="stroke:#000000;stroke-width:0.8;" x="54" xlink:href="#m5f881f8ead" y="144.361395"/>
      </g>
     </g>
     <g id="text_8">
      <!-- 0.5 -->
      <g transform="translate(31.096875 148.160613)scale(0.1 -0.1)">
       <use xlink:href="#DejaVuSans-30"/>
       <use x="63.623047" xlink:href="#DejaVuSans-2e"/>
       <use x="95.410156" xlink:href="#DejaVuSans-35"/>
      </g>
     </g>
    </g>
    <g id="ytick_3">
     <g id="line2d_8">
      <g>
       <use style="stroke:#000000;stroke-width:0.8;" x="54" xlink:href="#m5f881f8ead" y="131.652926"/>
      </g>
     </g>
     <g id="text_9">
      <!-- 1.0 -->
      <g transform="translate(31.096875 135.452144)scale(0.1 -0.1)">
       <use xlink:href="#DejaVuSans-31"/>
       <use x="63.623047" xlink:href="#DejaVuSans-2e"/>
       <use x="95.410156" xlink:href="#DejaVuSans-30"/>
      </g>
     </g>
    </g>
    <g id="ytick_4">
     <g id="line2d_9">
      <g>
       <use style="stroke:#000000;stroke-width:0.8;" x="54" xlink:href="#m5f881f8ead" y="118.944457"/>
      </g>
     </g>
     <g id="text_10">
      <!-- 1.5 -->
      <g transform="translate(31.096875 122.743675)scale(0.1 -0.1)">
       <use xlink:href="#DejaVuSans-31"/>
       <use x="63.623047" xlink:href="#DejaVuSans-2e"/>
       <use x="95.410156" xlink:href="#DejaVuSans-35"/>
      </g>
     </g>
    </g>
    <g id="text_11">
     <!-- Average reward -->
     <defs>
      <path d="M 34.1875 63.1875 
L 20.796875 26.90625 
L 47.609375 26.90625 
z
M 28.609375 72.90625 
L 39.796875 72.90625 
L 67.578125 0 
L 57.328125 0 
L 50.6875 18.703125 
L 17.828125 18.703125 
L 11.1875 0 
L 0.78125 0 
z
" id="DejaVuSans-41"/>
      <path d="M 2.984375 54.6875 
L 12.5 54.6875 
L 29.59375 8.796875 
L 46.6875 54.6875 
L 56.203125 54.6875 
L 35.6875 0 
L 23.484375 0 
z
" id="DejaVuSans-76"/>
      <path d="M 41.109375 46.296875 
Q 39.59375 47.171875 37.8125 47.578125 
Q 36.03125 48 33.890625 48 
Q 26.265625 48 22.1875 43.046875 
Q 18.109375 38.09375 18.109375 28.8125 
L 18.109375 0 
L 9.078125 0 
L 9.078125 54.6875 
L 18.109375 54.6875 
L 18.109375 46.1875 
Q 20.953125 51.171875 25.484375 53.578125 
Q 30.03125 56 36.53125 56 
Q 37.453125 56 38.578125 55.875 
Q 39.703125 55.765625 41.0625 55.515625 
z
" id="DejaVuSans-72"/>
      <path d="M 34.28125 27.484375 
Q 23.390625 27.484375 19.1875 25 
Q 14.984375 22.515625 14.984375 16.5 
Q 14.984375 11.71875 18.140625 8.90625 
Q 21.296875 6.109375 26.703125 6.109375 
Q 34.1875 6.109375 38.703125 11.40625 
Q 43.21875 16.703125 43.21875 25.484375 
L 43.21875 27.484375 
z
M 52.203125 31.203125 
L 52.203125 0 
L 43.21875 0 
L 43.21875 8.296875 
Q 40.140625 3.328125 35.546875 0.953125 
Q 30.953125 -1.421875 24.3125 -1.421875 
Q 15.921875 -1.421875 10.953125 3.296875 
Q 6 8.015625 6 15.921875 
Q 6 25.140625 12.171875 29.828125 
Q 18.359375 34.515625 30.609375 34.515625 
L 43.21875 34.515625 
L 43.21875 35.40625 
Q 43.21875 41.609375 39.140625 45 
Q 35.0625 48.390625 27.6875 48.390625 
Q 23 48.390625 18.546875 47.265625 
Q 14.109375 46.140625 10.015625 43.890625 
L 10.015625 52.203125 
Q 14.9375 54.109375 19.578125 55.046875 
Q 24.21875 56 28.609375 56 
Q 40.484375 56 46.34375 49.84375 
Q 52.203125 43.703125 52.203125 31.203125 
z
" id="DejaVuSans-61"/>
      <path d="M 45.40625 27.984375 
Q 45.40625 37.75 41.375 43.109375 
Q 37.359375 48.484375 30.078125 48.484375 
Q 22.859375 48.484375 18.828125 43.109375 
Q 14.796875 37.75 14.796875 27.984375 
Q 14.796875 18.265625 18.828125 12.890625 
Q 22.859375 7.515625 30.078125 7.515625 
Q 37.359375 7.515625 41.375 12.890625 
Q 45.40625 18.265625 45.40625 27.984375 
z
M 54.390625 6.78125 
Q 54.390625 -7.171875 48.1875 -13.984375 
Q 42 -20.796875 29.203125 -20.796875 
Q 24.46875 -20.796875 20.265625 -20.09375 
Q 16.0625 -19.390625 12.109375 -17.921875 
L 12.109375 -9.1875 
Q 16.0625 -11.328125 19.921875 -12.34375 
Q 23.78125 -13.375 27.78125 -13.375 
Q 36.625 -13.375 41.015625 -8.765625 
Q 45.40625 -4.15625 45.40625 5.171875 
L 45.40625 9.625 
Q 42.625 4.78125 38.28125 2.390625 
Q 33.9375 0 27.875 0 
Q 17.828125 0 11.671875 7.65625 
Q 5.515625 15.328125 5.515625 27.984375 
Q 5.515625 40.671875 11.671875 48.328125 
Q 17.828125 56 27.875 56 
Q 33.9375 56 38.28125 53.609375 
Q 42.625 51.21875 45.40625 46.390625 
L 45.40625 54.6875 
L 54.390625 54.6875 
z
" id="DejaVuSans-67"/>
      <path id="DejaVuSans-20"/>
      <path d="M 4.203125 54.6875 
L 13.1875 54.6875 
L 24.421875 12.015625 
L 35.59375 54.6875 
L 46.1875 54.6875 
L 57.421875 12.015625 
L 68.609375 54.6875 
L 77.59375 54.6875 
L 63.28125 0 
L 52.6875 0 
L 40.921875 44.828125 
L 29.109375 0 
L 18.5 0 
z
" id="DejaVuSans-77"/>
      <path d="M 45.40625 46.390625 
L 45.40625 75.984375 
L 54.390625 75.984375 
L 54.390625 0 
L 45.40625 0 
L 45.40625 8.203125 
Q 42.578125 3.328125 38.25 0.953125 
Q 33.9375 -1.421875 27.875 -1.421875 
Q 17.96875 -1.421875 11.734375 6.484375 
Q 5.515625 14.40625 5.515625 27.296875 
Q 5.515625 40.1875 11.734375 48.09375 
Q 17.96875 56 27.875 56 
Q 33.9375 56 38.25 53.625 
Q 42.578125 51.265625 45.40625 46.390625 
z
M 14.796875 27.296875 
Q 14.796875 17.390625 18.875 11.75 
Q 22.953125 6.109375 30.078125 6.109375 
Q 37.203125 6.109375 41.296875 11.75 
Q 45.40625 17.390625 45.40625 27.296875 
Q 45.40625 37.203125 41.296875 42.84375 
Q 37.203125 48.484375 30.078125 48.484375 
Q 22.953125 48.484375 18.875 42.84375 
Q 14.796875 37.203125 14.796875 27.296875 
z
" id="DejaVuSans-64"/>
     </defs>
     <g transform="translate(25.017187 185.364219)rotate(-90)scale(0.1 -0.1)">
      <use xlink:href="#DejaVuSans-41"/>
      <use x="68.330078" xlink:href="#DejaVuSans-76"/>
      <use x="127.509766" xlink:href="#DejaVuSans-65"/>
      <use x="189.033203" xlink:href="#DejaVuSans-72"/>
      <use x="230.146484" xlink:href="#DejaVuSans-61"/>
      <use x="291.425781" xlink:href="#DejaVuSans-67"/>
      <use x="354.902344" xlink:href="#DejaVuSans-65"/>
      <use x="416.425781" xlink:href="#DejaVuSans-20"/>
      <use x="448.212891" xlink:href="#DejaVuSans-72"/>
      <use x="489.294922" xlink:href="#DejaVuSans-65"/>
      <use x="550.818359" xlink:href="#DejaVuSans-77"/>
      <use x="632.605469" xlink:href="#DejaVuSans-61"/>
      <use x="693.884766" xlink:href="#DejaVuSans-72"/>
      <use x="734.982422" xlink:href="#DejaVuSans-64"/>
     </g>
    </g>
   </g>
   <g id="line2d_10">
    <path clip-path="url(#pbced541874)" d="M 69.218182 167.86542 
L 69.52285 135.235101 
L 69.827518 141.383906 
L 70.132187 136.053797 
L 70.436855 134.272173 
L 70.741523 118.753301 
L 71.046192 147.080451 
L 71.35086 124.267041 
L 71.655528 139.407328 
L 71.960197 161.415816 
L 72.264865 207.894614 
L 72.569533 121.383473 
L 72.874201 123.505712 
L 73.17887 175.45995 
L 73.483538 131.229635 
L 73.788206 150.044348 
L 74.092875 202.054462 
L 74.397543 130.478438 
L 74.702211 149.08977 
L 75.00688 150.016534 
L 75.311548 155.367749 
L 75.616216 86.939858 
L 75.920885 181.428529 
L 76.225553 161.44369 
L 76.530221 113.5458 
L 76.834889 140.137688 
L 77.139558 135.249637 
L 77.748894 156.747569 
L 78.053563 145.173437 
L 78.358231 153.831076 
L 78.662899 170.919414 
L 78.967568 131.749394 
L 79.272236 126.239583 
L 79.576904 172.004023 
L 79.881572 159.547343 
L 80.186241 155.429803 
L 80.490909 139.614191 
L 80.795577 144.603549 
L 81.100246 130.646087 
L 81.404914 99.18894 
L 81.709582 207.154022 
L 82.014251 131.821996 
L 82.318919 173.72565 
L 82.623587 147.627326 
L 82.928256 148.652791 
L 83.232924 150.128866 
L 83.537592 134.688742 
L 83.84226 139.422602 
L 84.146929 135.264475 
L 84.451597 150.910782 
L 84.756265 101.710682 
L 85.060934 119.017896 
L 85.365602 93.574355 
L 85.67027 93.491965 
L 85.974939 164.57294 
L 86.279607 139.885288 
L 86.584275 147.309528 
L 86.888943 136.656963 
L 87.193612 148.287233 
L 87.49828 128.176045 
L 87.802948 131.937203 
L 88.107617 190.274577 
L 88.412285 148.276918 
L 88.716953 146.683071 
L 89.021622 153.917344 
L 89.32629 138.209852 
L 89.630958 167.887636 
L 89.935627 166.800887 
L 90.544963 145.019763 
L 90.849631 155.153361 
L 91.1543 66.584251 
L 91.458968 169.73324 
L 91.763636 152.67741 
L 92.068305 127.94071 
L 92.372973 138.132581 
L 92.677641 122.24055 
L 92.98231 192.907627 
L 93.286978 124.082051 
L 93.591646 154.546638 
L 93.896314 122.031636 
L 94.200983 148.211741 
L 94.505651 163.748639 
L 94.810319 158.863214 
L 95.114988 138.0544 
L 95.419656 151.876608 
L 95.724324 155.869966 
L 96.028993 151.783574 
L 96.333661 120.809566 
L 96.638329 116.812443 
L 96.942998 147.648652 
L 97.247666 162.667162 
L 97.552334 121.967186 
L 97.857002 133.971443 
L 98.161671 164.359104 
L 98.466339 146.199068 
L 98.771007 142.220383 
L 99.075676 66.149643 
L 99.380344 147.224103 
L 99.685012 144.835458 
L 99.989681 190.103001 
L 100.294349 130.48478 
L 100.599017 123.380479 
L 100.903686 158.886592 
L 101.208354 120.612172 
L 101.513022 170.358097 
L 101.81769 178.930043 
L 102.122359 133.314792 
L 102.427027 171.669517 
L 102.731695 148.335846 
L 103.036364 162.025725 
L 103.341032 139.395846 
L 103.6457 147.166718 
L 103.950369 142.546709 
L 104.255037 110.344483 
L 104.864373 142.284997 
L 105.47371 147.816027 
L 105.778378 95.41512 
L 106.387715 163.849644 
L 106.692383 127.507093 
L 106.997052 135.292367 
L 107.30172 151.061587 
L 107.606388 156.563875 
L 107.911057 124.733354 
L 108.215725 177.984032 
L 108.520393 133.035777 
L 108.825061 166.146467 
L 109.12973 128.87406 
L 109.434398 141.489052 
L 109.739066 127.695485 
L 110.043735 172.39215 
L 110.348403 143.65575 
L 110.653071 97.976996 
L 111.262408 151.586777 
L 111.567076 127.40709 
L 111.871744 191.594381 
L 112.176413 142.761854 
L 112.481081 150.511881 
L 112.785749 189.789985 
L 113.395086 84.923345 
L 114.004423 170.417435 
L 114.309091 137.443956 
L 114.613759 142.442353 
L 114.918428 138.976414 
L 115.223096 138.379868 
L 115.527764 151.231614 
L 115.832432 114.333262 
L 116.137101 123.010848 
L 116.441769 102.901429 
L 116.746437 199.280138 
L 117.355774 128.374469 
L 117.660442 141.936689 
L 117.965111 114.93531 
L 118.269779 144.823213 
L 118.574447 146.513202 
L 118.879115 152.006231 
L 119.79312 128.483338 
L 120.097789 112.972251 
L 120.402457 148.551242 
L 120.707125 163.571382 
L 121.011794 134.616002 
L 121.316462 157.53601 
L 121.62113 128.302066 
L 121.925799 134.018594 
L 122.230467 145.357447 
L 122.535135 107.142814 
L 122.839803 139.145664 
L 123.144472 99.577887 
L 123.44914 127.996476 
L 123.753808 114.282735 
L 124.058477 165.640331 
L 124.363145 174.402788 
L 124.667813 119.74439 
L 124.972482 103.903022 
L 125.27715 193.923043 
L 125.581818 115.18145 
L 125.886486 118.292133 
L 126.800491 151.83789 
L 127.10516 138.514109 
L 127.409828 93.729639 
L 127.714496 164.26734 
L 128.019165 156.524721 
L 128.323833 109.560969 
L 128.93317 168.354528 
L 129.237838 105.777249 
L 129.542506 156.046166 
L 129.847174 178.466082 
L 130.151843 143.202449 
L 130.456511 146.451973 
L 130.761179 182.639544 
L 131.065848 145.197135 
L 131.370516 124.022379 
L 131.675184 136.422227 
L 131.979853 180.3156 
L 132.284521 92.924755 
L 132.589189 146.915469 
L 132.893857 142.798175 
L 133.198526 149.543071 
L 133.503194 125.937098 
L 133.807862 130.929844 
L 134.112531 178.89447 
L 134.417199 101.476687 
L 134.721867 118.134 
L 135.026536 123.815065 
L 135.331204 131.875761 
L 135.635872 149.206723 
L 136.245209 127.172145 
L 136.549877 135.821298 
L 136.854545 128.342976 
L 137.159214 141.464571 
L 137.463882 172.434678 
L 137.76855 178.536413 
L 138.073219 177.949969 
L 138.377887 81.293125 
L 138.682555 183.148106 
L 139.291892 108.653327 
L 139.59656 159.024924 
L 139.901229 141.421103 
L 140.205897 174.344896 
L 140.510565 156.650109 
L 140.815233 161.944371 
L 141.119902 122.088287 
L 141.42457 122.681509 
L 141.729238 150.677606 
L 142.033907 152.32199 
L 142.338575 160.487243 
L 142.643243 147.274896 
L 142.947912 145.386018 
L 143.25258 98.566676 
L 143.557248 115.181595 
L 143.861916 170.192966 
L 144.166585 131.305268 
L 144.471253 165.251313 
L 144.775921 108.433203 
L 145.08059 186.132544 
L 145.385258 121.174668 
L 145.689926 142.721126 
L 145.994595 150.965161 
L 146.299263 116.081947 
L 146.603931 118.469826 
L 146.9086 181.214627 
L 147.213268 153.807777 
L 147.517936 138.522237 
L 148.127273 178.364995 
L 148.431941 159.31916 
L 148.736609 63.058103 
L 149.041278 177.59647 
L 149.650614 91.40754 
L 149.955283 155.386175 
L 150.259951 142.19558 
L 150.564619 178.935336 
L 150.869287 107.178522 
L 151.173956 101.956604 
L 151.478624 180.904044 
L 152.087961 102.501302 
L 152.392629 103.529019 
L 152.697297 134.300118 
L 153.001966 130.459749 
L 153.306634 175.400858 
L 153.611302 144.545162 
L 153.915971 138.480454 
L 154.220639 126.09421 
L 154.525307 160.066494 
L 154.829975 132.889313 
L 155.134644 139.740922 
L 155.439312 117.101786 
L 155.74398 122.791077 
L 156.048649 98.902569 
L 156.353317 147.601944 
L 156.657985 103.69346 
L 156.962654 104.444975 
L 157.267322 164.829281 
L 157.57199 112.405417 
L 157.876658 122.852521 
L 158.181327 161.485712 
L 158.485995 131.703809 
L 158.790663 124.63795 
L 159.095332 144.716232 
L 159.4 153.154695 
L 159.704668 103.228941 
L 160.009337 159.128014 
L 160.314005 168.098019 
L 160.618673 105.824492 
L 160.923342 155.842388 
L 161.22801 126.338971 
L 161.532678 184.977899 
L 161.837346 153.361518 
L 162.142015 134.18819 
L 162.446683 144.689484 
L 162.751351 117.434116 
L 163.05602 179.612826 
L 163.360688 131.595066 
L 163.665356 198.243646 
L 163.970025 154.18784 
L 164.274693 132.384802 
L 164.579361 159.576897 
L 164.884029 142.800828 
L 165.188698 109.903203 
L 165.493366 165.615162 
L 165.798034 90.209691 
L 166.102703 167.984908 
L 166.407371 145.001882 
L 166.712039 159.315012 
L 167.016708 158.967715 
L 167.321376 116.552299 
L 167.626044 159.63662 
L 167.930713 132.647209 
L 168.235381 206.549771 
L 168.540049 122.363511 
L 168.844717 164.586851 
L 169.149386 140.205931 
L 169.454054 137.168723 
L 169.758722 122.952879 
L 170.063391 122.714587 
L 170.368059 143.680677 
L 170.672727 152.048142 
L 170.977396 169.771384 
L 171.282064 138.255381 
L 171.586732 126.281302 
L 171.8914 191.619896 
L 172.196069 107.569423 
L 172.500737 130.818548 
L 172.805405 141.969753 
L 173.110074 142.840676 
L 173.414742 164.572861 
L 173.71941 128.468346 
L 174.024079 161.217234 
L 174.328747 124.609175 
L 174.633415 128.683874 
L 174.938084 202.016294 
L 175.54742 116.807034 
L 175.852088 160.958965 
L 176.156757 161.812771 
L 176.461425 179.925232 
L 176.766093 142.545982 
L 177.37543 138.128589 
L 177.680098 169.05673 
L 177.984767 91.220708 
L 178.289435 120.262345 
L 178.594103 172.717124 
L 178.898771 138.199094 
L 179.20344 148.74334 
L 179.508108 118.218975 
L 179.812776 107.198483 
L 180.117445 113.913395 
L 180.422113 130.332704 
L 180.726781 158.136141 
L 181.03145 157.567471 
L 181.336118 166.308017 
L 181.640786 168.528094 
L 181.945455 175.909558 
L 182.250123 114.903987 
L 182.554791 159.421937 
L 182.859459 176.26663 
L 183.468796 126.753857 
L 183.773464 118.620614 
L 184.382801 216.835213 
L 184.687469 151.10677 
L 184.992138 151.749059 
L 185.296806 120.111478 
L 185.601474 156.71833 
L 185.906143 117.007352 
L 186.210811 126.724469 
L 186.515479 118.254992 
L 186.820147 164.542693 
L 187.429484 146.567346 
L 187.734152 99.318627 
L 188.038821 193.101328 
L 188.343489 168.550892 
L 188.648157 174.535979 
L 188.952826 140.913919 
L 189.257494 183.547191 
L 189.86683 145.018822 
L 190.171499 164.274683 
L 190.476167 123.755369 
L 190.780835 126.723594 
L 191.085504 139.627848 
L 191.390172 175.397835 
L 191.999509 92.282991 
L 192.304177 191.590684 
L 192.608845 119.287557 
L 192.913514 179.318147 
L 193.218182 164.435485 
L 193.52285 158.576185 
L 193.827518 110.310302 
L 194.132187 175.383002 
L 194.436855 140.358596 
L 194.741523 134.310289 
L 195.046192 131.129704 
L 195.35086 139.9736 
L 195.655528 102.262688 
L 195.960197 132.000744 
L 196.264865 136.537608 
L 196.569533 123.793686 
L 196.874201 150.660693 
L 197.17887 151.243478 
L 197.483538 140.582711 
L 197.788206 65.757036 
L 198.092875 134.644187 
L 198.397543 119.715778 
L 198.702211 135.05713 
L 199.00688 129.314207 
L 199.311548 186.980559 
L 199.616216 127.512643 
L 199.920885 183.72779 
L 200.225553 142.959356 
L 200.834889 198.505314 
L 201.444226 108.1335 
L 201.748894 163.749686 
L 202.053563 89.100402 
L 202.358231 178.319832 
L 202.662899 121.88266 
L 202.967568 155.643089 
L 203.272236 105.751355 
L 203.881572 141.139293 
L 204.186241 162.963895 
L 204.490909 159.527892 
L 204.795577 133.411167 
L 205.404914 157.980756 
L 205.709582 150.520245 
L 206.014251 104.875928 
L 206.318919 122.735693 
L 206.623587 128.151996 
L 206.928256 107.789305 
L 207.232924 147.179521 
L 207.537592 106.826752 
L 207.84226 154.17484 
L 208.146929 97.515786 
L 208.451597 105.989896 
L 208.756265 137.272007 
L 209.060934 154.653606 
L 209.365602 130.852268 
L 209.67027 188.094996 
L 209.974939 160.715818 
L 210.279607 163.394807 
L 210.584275 146.394888 
L 210.888943 103.375032 
L 211.193612 138.759491 
L 211.49828 127.771306 
L 211.802948 125.012365 
L 212.107617 135.922904 
L 212.412285 118.170199 
L 212.716953 125.002675 
L 213.021622 143.163498 
L 213.32629 119.531394 
L 213.630958 159.21228 
L 213.935627 113.825024 
L 214.240295 142.864628 
L 214.544963 146.706524 
L 214.849631 116.504568 
L 215.1543 150.483361 
L 215.458968 157.813013 
L 215.763636 131.434531 
L 216.068305 161.337115 
L 216.372973 102.75824 
L 216.677641 129.52925 
L 216.98231 170.800266 
L 217.286978 171.30892 
L 217.591646 121.066196 
L 217.896314 132.912697 
L 218.200983 160.220973 
L 218.505651 135.446851 
L 218.810319 154.214269 
L 219.114988 148.514937 
L 219.419656 126.907087 
L 219.724324 124.431057 
L 220.028993 119.368151 
L 220.638329 163.280784 
L 220.942998 151.47367 
L 221.247666 115.348696 
L 221.552334 144.690133 
L 221.857002 108.937393 
L 222.466339 175.341669 
L 222.771007 132.135056 
L 223.075676 144.725255 
L 223.380344 163.664382 
L 223.685012 148.141998 
L 223.989681 153.992914 
L 224.294349 195.538347 
L 224.599017 135.03287 
L 224.903686 154.115297 
L 225.208354 147.018939 
L 225.513022 119.866284 
L 225.81769 152.932941 
L 226.122359 120.116281 
L 226.427027 155.424491 
L 226.731695 147.583611 
L 227.036364 143.064672 
L 227.341032 131.860305 
L 227.6457 137.702114 
L 227.950369 115.112189 
L 228.255037 190.896162 
L 228.559705 130.74186 
L 228.864373 112.682314 
L 229.169042 116.769778 
L 229.778378 160.324682 
L 230.083047 110.447967 
L 230.387715 144.337051 
L 230.692383 165.01765 
L 230.997052 162.15829 
L 231.30172 124.923315 
L 231.606388 141.391589 
L 231.911057 182.846243 
L 232.215725 191.32887 
L 232.520393 162.786619 
L 233.12973 68.860005 
L 233.434398 172.234487 
L 233.739066 139.772844 
L 234.043735 135.01542 
L 234.348403 159.96648 
L 234.95774 119.189772 
L 235.262408 139.938474 
L 235.567076 134.131461 
L 235.871744 154.624001 
L 236.176413 137.030461 
L 236.481081 129.770948 
L 236.785749 116.152129 
L 237.090418 166.260373 
L 237.395086 188.014421 
L 237.699754 131.945389 
L 238.004423 130.786558 
L 238.309091 131.524965 
L 238.613759 138.196223 
L 238.918428 131.541639 
L 239.223096 188.574732 
L 239.527764 107.925019 
L 240.441769 165.377205 
L 240.746437 145.19279 
L 241.051106 150.252207 
L 241.355774 131.551535 
L 241.660442 133.52889 
L 241.965111 104.413797 
L 242.269779 149.414386 
L 242.574447 127.985616 
L 243.488452 138.144068 
L 243.79312 145.520217 
L 244.402457 119.216114 
L 244.707125 150.08148 
L 245.011794 128.800302 
L 245.316462 128.931738 
L 245.62113 162.374371 
L 245.925799 152.501657 
L 246.230467 137.453292 
L 246.535135 140.001115 
L 246.839803 122.43137 
L 247.144472 111.582308 
L 247.44914 117.148441 
L 247.753808 136.478935 
L 248.058477 121.094256 
L 248.363145 149.203039 
L 248.667813 129.022727 
L 248.972482 186.400605 
L 249.27715 118.231007 
L 249.581818 129.200711 
L 249.886486 163.080558 
L 250.191155 132.747611 
L 250.495823 120.441629 
L 250.800491 170.949771 
L 251.10516 134.567375 
L 251.409828 117.442281 
L 251.714496 119.549819 
L 252.019165 177.342479 
L 252.323833 166.998838 
L 252.628501 150.719041 
L 252.93317 103.675662 
L 253.237838 113.085029 
L 253.542506 136.167315 
L 253.847174 141.422451 
L 254.151843 115.998899 
L 254.456511 145.080153 
L 254.761179 145.294086 
L 255.065848 145.143527 
L 255.370516 145.252871 
L 255.675184 139.673591 
L 255.979853 99.190007 
L 256.284521 173.466833 
L 256.589189 145.939843 
L 256.893857 160.613916 
L 257.198526 150.72679 
L 257.503194 170.50502 
L 257.807862 167.788389 
L 258.417199 126.483547 
L 258.721867 148.245688 
L 259.026536 137.101764 
L 259.331204 160.16625 
L 259.635872 143.783583 
L 259.940541 173.951155 
L 260.549877 154.951414 
L 261.159214 174.758345 
L 261.463882 142.867065 
L 261.76855 165.778309 
L 262.073219 113.679535 
L 262.377887 160.58866 
L 262.682555 113.616585 
L 262.987224 106.964157 
L 263.59656 170.250766 
L 263.901229 156.648683 
L 264.205897 160.294196 
L 264.510565 198.920997 
L 265.119902 129.826962 
L 265.42457 155.118081 
L 265.729238 114.982953 
L 266.033907 170.935763 
L 266.338575 110.929203 
L 266.643243 111.247564 
L 266.947912 206.744908 
L 267.25258 118.115312 
L 267.557248 131.667804 
L 267.861916 169.461644 
L 268.166585 150.032248 
L 268.471253 120.490054 
L 269.08059 156.546 
L 269.385258 157.049502 
L 269.689926 116.133995 
L 269.994595 167.335121 
L 270.299263 103.245545 
L 270.603931 142.726423 
L 270.9086 148.032856 
L 271.517936 96.76112 
L 271.822604 162.293264 
L 272.127273 140.201683 
L 272.431941 127.807389 
L 273.041278 174.221295 
L 273.345946 175.834846 
L 273.955283 138.221166 
L 274.259951 137.82674 
L 274.564619 144.15204 
L 274.869287 164.244245 
L 275.173956 121.02285 
L 275.478624 137.789761 
L 275.783292 124.932226 
L 276.087961 153.915763 
L 276.392629 128.669667 
L 276.697297 172.884948 
L 277.001966 89.243766 
L 277.306634 138.059119 
L 277.611302 103.238012 
L 277.915971 128.947918 
L 278.220639 144.000252 
L 278.525307 92.133058 
L 278.829975 198.651163 
L 279.134644 120.248419 
L 279.439312 177.432912 
L 279.74398 106.584136 
L 280.048649 132.491289 
L 280.353317 140.801203 
L 280.657985 166.812699 
L 280.962654 148.515199 
L 281.267322 148.506308 
L 281.57199 187.978753 
L 281.876658 146.059004 
L 282.181327 135.012905 
L 282.485995 167.079982 
L 282.790663 116.793878 
L 283.095332 115.417067 
L 283.4 144.431222 
L 283.704668 130.628289 
L 284.009337 130.259092 
L 284.618673 112.000448 
L 284.923342 116.62708 
L 285.22801 189.1649 
L 285.532678 151.46588 
L 285.837346 173.926167 
L 286.142015 106.28583 
L 286.446683 170.712751 
L 286.751351 155.943169 
L 287.05602 180.476706 
L 287.360688 149.732533 
L 287.665356 174.483372 
L 287.970025 146.077569 
L 288.274693 139.969475 
L 288.579361 136.684506 
L 288.884029 127.035089 
L 289.188698 121.108188 
L 289.493366 159.154449 
L 289.798034 118.642587 
L 290.102703 160.572251 
L 290.407371 130.966054 
L 290.712039 130.045642 
L 291.016708 131.6136 
L 291.321376 182.036506 
L 291.626044 147.292686 
L 291.930713 155.529669 
L 292.235381 141.213648 
L 292.540049 161.115711 
L 292.844717 117.789827 
L 293.454054 192.277589 
L 294.063391 119.251356 
L 294.368059 120.86206 
L 294.977396 180.732042 
L 295.282064 114.654553 
L 295.586732 122.542935 
L 296.196069 151.549442 
L 296.500737 159.465527 
L 296.805405 130.309201 
L 297.110074 72.312161 
L 297.71941 194.180627 
L 298.328747 162.260194 
L 298.633415 97.946121 
L 298.938084 120.281034 
L 299.242752 171.217888 
L 299.54742 103.798471 
L 300.156757 144.374613 
L 300.461425 125.266107 
L 300.766093 135.612702 
L 301.070762 165.065014 
L 301.37543 107.027816 
L 301.680098 115.504171 
L 301.984767 106.291275 
L 302.289435 168.650182 
L 302.594103 119.551613 
L 302.898771 171.990622 
L 303.20344 164.11683 
L 303.508108 115.903168 
L 303.812776 159.440247 
L 304.117445 149.359847 
L 304.726781 117.563727 
L 305.03145 203.575938 
L 305.336118 177.357384 
L 305.640786 116.807534 
L 305.945455 154.374304 
L 306.250123 97.857181 
L 306.554791 166.689555 
L 306.859459 91.087391 
L 307.164128 154.318418 
L 307.468796 135.997563 
L 307.773464 153.379597 
L 308.078133 139.189401 
L 308.382801 132.245799 
L 308.687469 116.424181 
L 308.992138 143.58879 
L 309.296806 129.821727 
L 309.601474 128.967715 
L 309.906143 137.8514 
L 310.210811 132.730227 
L 310.515479 139.802316 
L 310.820147 152.302697 
L 311.124816 148.270873 
L 311.429484 167.477119 
L 311.734152 178.525174 
L 312.038821 136.898186 
L 312.343489 140.149424 
L 312.648157 157.134576 
L 312.952826 107.899761 
L 313.257494 116.621411 
L 313.562162 114.346482 
L 314.171499 159.180261 
L 314.476167 151.94256 
L 314.780835 163.162842 
L 315.085504 131.836756 
L 315.69484 166.350649 
L 315.999509 214.076233 
L 316.304177 109.562105 
L 316.608845 104.757131 
L 316.913514 120.598325 
L 317.218182 97.525639 
L 317.52285 155.16887 
L 317.827518 154.584874 
L 318.132187 90.983209 
L 318.741523 135.951248 
L 319.046192 181.330441 
L 319.655528 99.932668 
L 319.960197 164.278352 
L 320.569533 134.055191 
L 320.874201 105.472341 
L 321.17887 126.568628 
L 321.483538 131.698259 
L 321.788206 128.090894 
L 322.092875 106.591599 
L 322.397543 116.957571 
L 322.702211 173.938808 
L 323.00688 148.581843 
L 323.311548 140.134023 
L 323.616216 109.312469 
L 323.920885 109.668168 
L 324.225553 179.664729 
L 324.530221 142.425278 
L 324.834889 168.039132 
L 325.444226 131.751736 
L 325.748894 144.589776 
L 326.053563 116.586434 
L 326.358231 220.425153 
L 326.662899 135.190588 
L 326.967568 159.110483 
L 327.272236 199.837137 
L 327.576904 182.568483 
L 327.881572 180.836179 
L 328.186241 157.374392 
L 328.490909 111.424609 
L 328.795577 158.108956 
L 329.100246 105.255846 
L 329.404914 121.983409 
L 329.709582 93.039396 
L 330.014251 204.73374 
L 330.318919 112.42586 
L 330.623587 115.603441 
L 330.928256 210.390607 
L 331.232924 175.536767 
L 331.537592 123.500149 
L 331.84226 118.493075 
L 332.451597 189.955774 
L 332.756265 159.789417 
L 333.060934 85.434483 
L 333.67027 158.835252 
L 333.974939 139.114058 
L 334.279607 172.26144 
L 334.584275 87.603704 
L 334.888943 126.956511 
L 335.193612 181.615523 
L 335.49828 153.404953 
L 335.802948 152.723114 
L 336.107617 150.60949 
L 336.412285 154.378248 
L 336.716953 110.11794 
L 337.021622 146.095104 
L 337.32629 156.86069 
L 337.630958 87.521472 
L 337.935627 153.854838 
L 338.240295 168.141188 
L 338.544963 88.462982 
L 338.849631 153.864191 
L 339.1543 177.119196 
L 339.763636 66.137953 
L 340.372973 164.607076 
L 340.677641 125.724194 
L 340.98231 154.85689 
L 341.286978 107.743508 
L 341.591646 148.777991 
L 341.896314 173.259958 
L 342.200983 172.375226 
L 342.505651 112.638356 
L 342.810319 146.839808 
L 343.114988 121.780421 
L 343.419656 186.644451 
L 343.724324 149.873095 
L 344.028993 139.575408 
L 344.333661 168.882864 
L 344.638329 134.666007 
L 344.942998 127.204987 
L 345.247666 122.705254 
L 345.552334 164.871278 
L 345.857002 140.819172 
L 346.161671 133.774829 
L 346.466339 120.841414 
L 346.771007 115.06068 
L 347.075676 128.009329 
L 347.380344 147.812023 
L 347.685012 136.632857 
L 347.989681 165.650512 
L 348.599017 110.178324 
L 348.903686 195.417907 
L 349.208354 85.232992 
L 349.513022 156.441318 
L 349.81769 117.830195 
L 350.122359 130.750217 
L 350.427027 155.723405 
L 350.731695 166.501396 
L 351.036364 161.333199 
L 351.950369 123.290926 
L 352.559705 164.495938 
L 353.169042 105.663263 
L 353.47371 134.322161 
L 353.778378 176.458565 
L 354.083047 169.251335 
L 354.387715 107.906324 
L 354.692383 198.066422 
L 354.997052 118.881979 
L 355.30172 152.764439 
L 355.606388 155.511499 
L 355.911057 129.356804 
L 356.215725 88.103014 
L 356.520393 147.531945 
L 356.825061 171.800111 
L 357.12973 155.019602 
L 357.434398 156.788374 
L 357.739066 128.971078 
L 358.043735 165.244779 
L 358.348403 159.536869 
L 358.653071 146.171972 
L 358.95774 110.02703 
L 359.262408 158.541407 
L 359.567076 158.470703 
L 359.871744 109.42374 
L 360.176413 154.710571 
L 360.481081 172.674872 
L 360.785749 200.96763 
L 361.090418 144.907113 
L 361.395086 193.363996 
L 361.699754 152.990163 
L 362.004423 163.61115 
L 362.309091 130.557507 
L 362.613759 139.049511 
L 363.223096 201.269718 
L 363.527764 80.126515 
L 363.832432 130.286334 
L 364.441769 116.188488 
L 364.746437 174.81749 
L 365.051106 122.822268 
L 365.355774 165.460873 
L 365.660442 114.40675 
L 365.965111 164.571068 
L 366.269779 135.499643 
L 366.574447 135.4317 
L 366.879115 160.123918 
L 367.183784 141.982344 
L 367.488452 93.346062 
L 367.79312 107.379503 
L 368.097789 159.503922 
L 368.402457 90.189578 
L 368.707125 135.178499 
L 369.011794 104.745944 
L 369.316462 138.214861 
L 369.62113 141.276628 
L 369.925799 156.290473 
L 370.230467 151.290524 
L 370.535135 159.758276 
L 370.839803 126.718082 
L 371.144472 125.845234 
L 371.44914 185.42423 
L 371.753808 144.828103 
L 372.058477 126.446073 
L 372.363145 193.478203 
L 372.667813 167.578615 
L 372.972482 161.076268 
L 373.27715 119.505534 
L 373.581818 132.028987 
L 373.581818 132.028987 
" style="fill:none;stroke:#1f77b4;stroke-linecap:square;stroke-width:1.5;"/>
   </g>
   <g id="line2d_11">
    <path clip-path="url(#pbced541874)" d="M 69.218182 203.167178 
L 69.52285 123.915814 
L 69.827518 130.482674 
L 70.132187 134.637425 
L 70.741523 118.329362 
L 71.046192 161.852478 
L 71.35086 140.137112 
L 71.655528 146.636257 
L 71.960197 133.739836 
L 72.264865 182.726415 
L 72.569533 131.055522 
L 72.874201 124.438817 
L 73.17887 122.555409 
L 73.483538 176.859141 
L 73.788206 150.834497 
L 74.092875 173.901994 
L 74.397543 186.768912 
L 74.702211 133.098709 
L 75.00688 137.535142 
L 75.311548 139.789109 
L 75.616216 154.768147 
L 75.920885 156.64981 
L 76.225553 156.343491 
L 76.530221 147.090509 
L 76.834889 149.556702 
L 77.139558 174.597285 
L 77.444226 149.449556 
L 77.748894 135.694664 
L 78.053563 136.497752 
L 78.358231 95.501285 
L 78.662899 116.196351 
L 78.967568 118.567836 
L 79.272236 166.058437 
L 79.576904 147.164076 
L 79.881572 92.264211 
L 80.186241 164.796318 
L 80.490909 162.667228 
L 80.795577 69.35789 
L 81.404914 169.120702 
L 81.709582 128.865452 
L 82.014251 160.272395 
L 82.318919 94.094086 
L 82.623587 161.51662 
L 82.928256 150.415675 
L 83.232924 120.201071 
L 83.537592 151.867813 
L 84.146929 186.522806 
L 84.451597 119.261236 
L 84.756265 142.807527 
L 85.060934 111.415925 
L 85.365602 152.006985 
L 85.67027 165.681941 
L 85.974939 167.281748 
L 86.279607 125.016495 
L 86.584275 132.030103 
L 86.888943 165.548614 
L 87.193612 186.634522 
L 87.49828 143.756423 
L 87.802948 137.360207 
L 88.107617 96.751418 
L 88.412285 115.711761 
L 88.716953 168.497315 
L 89.021622 94.013732 
L 89.32629 113.628502 
L 89.630958 141.763922 
L 89.935627 129.779465 
L 90.240295 166.806955 
L 90.544963 166.22235 
L 90.849631 166.083797 
L 91.1543 178.044882 
L 91.458968 136.972405 
L 91.763636 168.930792 
L 92.068305 118.494938 
L 92.372973 148.222397 
L 92.677641 145.38779 
L 92.98231 105.182109 
L 93.286978 139.854977 
L 93.591646 93.675579 
L 93.896314 150.179524 
L 94.200983 127.834477 
L 94.505651 154.310306 
L 94.810319 163.584201 
L 95.114988 147.615271 
L 95.724324 137.18902 
L 96.028993 87.928332 
L 96.333661 180.295178 
L 97.247666 117.615882 
L 97.552334 105.20561 
L 97.857002 131.102689 
L 98.466339 146.468636 
L 98.771007 162.65633 
L 99.075676 122.53313 
L 99.380344 165.207869 
L 99.685012 120.912627 
L 99.989681 160.652073 
L 100.599017 124.078988 
L 100.903686 91.03933 
L 101.208354 170.469075 
L 101.513022 159.457556 
L 101.81769 144.123584 
L 102.122359 109.616925 
L 102.427027 109.930254 
L 102.731695 127.683901 
L 103.036364 95.872216 
L 103.341032 119.928134 
L 103.6457 113.188268 
L 103.950369 147.450537 
L 104.255037 124.469361 
L 104.559705 156.344333 
L 104.864373 144.260937 
L 105.169042 116.03571 
L 105.47371 155.390674 
L 105.778378 176.535318 
L 106.083047 112.228951 
L 106.387715 99.856205 
L 106.692383 143.948186 
L 106.997052 136.468391 
L 107.30172 158.282472 
L 107.606388 167.709497 
L 107.911057 145.917849 
L 108.215725 177.128217 
L 108.520393 135.9941 
L 108.825061 128.162571 
L 109.12973 196.714926 
L 109.434398 176.644861 
L 109.739066 182.384257 
L 110.043735 181.464486 
L 110.348403 127.158038 
L 110.653071 148.429215 
L 110.95774 151.111577 
L 111.262408 109.124276 
L 111.567076 183.224255 
L 111.871744 119.940033 
L 112.176413 147.631124 
L 112.481081 118.594081 
L 112.785749 116.579029 
L 113.090418 133.346646 
L 113.395086 124.867601 
L 113.699754 122.301231 
L 114.004423 161.76334 
L 114.309091 176.931288 
L 114.613759 133.224977 
L 114.918428 141.055535 
L 115.223096 158.535478 
L 115.527764 124.255536 
L 115.832432 71.902023 
L 116.137101 134.791111 
L 116.441769 138.083328 
L 116.746437 106.108567 
L 117.051106 196.127106 
L 117.355774 146.688057 
L 117.660442 183.364577 
L 117.965111 88.901795 
L 118.269779 108.476773 
L 118.574447 165.051419 
L 118.879115 124.948264 
L 119.488452 90.660218 
L 119.79312 114.835665 
L 120.097789 162.375769 
L 120.402457 171.563655 
L 120.707125 111.079984 
L 121.011794 173.346874 
L 121.316462 129.502884 
L 121.62113 126.501796 
L 121.925799 103.525801 
L 122.230467 136.401114 
L 122.535135 141.684838 
L 122.839803 100.038801 
L 123.144472 118.557031 
L 123.44914 204.043875 
L 123.753808 146.791844 
L 124.058477 174.098163 
L 124.667813 116.500181 
L 124.972482 141.841507 
L 125.27715 118.39226 
L 125.581818 138.494642 
L 125.886486 118.867723 
L 126.191155 120.975931 
L 126.495823 118.662673 
L 126.800491 163.691891 
L 127.10516 174.931883 
L 127.409828 136.360462 
L 127.714496 134.615705 
L 128.019165 112.919258 
L 128.323833 106.305958 
L 128.628501 134.072462 
L 128.93317 128.047845 
L 129.237838 111.007981 
L 129.542506 197.00659 
L 129.847174 150.204543 
L 130.151843 130.358334 
L 130.456511 163.274093 
L 131.065848 146.425235 
L 131.370516 139.918857 
L 131.675184 202.119778 
L 131.979853 148.368778 
L 132.284521 141.895443 
L 132.589189 138.046328 
L 132.893857 117.101214 
L 133.198526 118.38087 
L 133.503194 170.205073 
L 133.807862 139.883884 
L 134.112531 158.959424 
L 134.417199 149.531696 
L 134.721867 121.619901 
L 135.026536 171.846232 
L 135.331204 142.236183 
L 135.635872 175.591592 
L 136.245209 113.338568 
L 136.549877 145.554927 
L 136.854545 146.991046 
L 137.159214 129.603896 
L 137.463882 125.233702 
L 137.76855 132.736129 
L 138.073219 162.196046 
L 138.377887 143.522384 
L 138.682555 144.798776 
L 138.987224 166.713763 
L 139.291892 100.733013 
L 139.59656 116.60421 
L 139.901229 146.405959 
L 140.205897 141.291761 
L 140.510565 140.067904 
L 140.815233 128.899102 
L 141.119902 136.542085 
L 141.729238 120.342432 
L 142.033907 141.549554 
L 142.338575 170.516778 
L 142.643243 172.065408 
L 142.947912 171.868377 
L 143.25258 146.366909 
L 143.557248 137.899997 
L 143.861916 118.070772 
L 144.166585 125.770555 
L 144.471253 149.000239 
L 144.775921 136.868948 
L 145.08059 172.644307 
L 145.385258 126.375015 
L 145.689926 116.548763 
L 145.994595 182.520731 
L 146.299263 141.26463 
L 146.603931 155.037159 
L 146.9086 154.058654 
L 147.213268 151.308439 
L 147.517936 97.95006 
L 147.822604 161.541976 
L 148.127273 147.591686 
L 148.431941 169.173139 
L 148.736609 105.637836 
L 149.041278 160.54205 
L 149.345946 150.047846 
L 149.650614 186.687013 
L 149.955283 137.148302 
L 150.259951 172.825379 
L 150.564619 90.998044 
L 150.869287 150.661705 
L 151.173956 133.652096 
L 151.478624 174.413974 
L 151.783292 176.908318 
L 152.087961 115.105456 
L 152.392629 157.484554 
L 152.697297 89.167012 
L 153.001966 158.251423 
L 153.306634 168.800333 
L 153.611302 173.545642 
L 153.915971 119.037527 
L 154.220639 99.964719 
L 154.525307 200.06068 
L 154.829975 144.533473 
L 155.134644 152.965147 
L 155.439312 108.240199 
L 156.048649 164.505152 
L 156.353317 105.293072 
L 156.657985 157.273746 
L 156.962654 118.546384 
L 157.267322 130.951196 
L 157.57199 107.304606 
L 157.876658 141.930967 
L 158.181327 114.004359 
L 158.485995 161.946286 
L 158.790663 108.240729 
L 159.095332 192.392617 
L 159.4 82.366068 
L 159.704668 155.095085 
L 160.009337 133.638972 
L 160.314005 139.757493 
L 160.618673 118.687291 
L 160.923342 136.017029 
L 161.22801 129.778971 
L 161.532678 149.842268 
L 161.837346 145.677626 
L 162.142015 96.107629 
L 162.446683 127.838413 
L 162.751351 143.915159 
L 163.05602 106.547589 
L 163.360688 115.794775 
L 163.665356 163.484323 
L 163.970025 130.349557 
L 164.274693 157.971768 
L 164.579361 156.579169 
L 164.884029 162.181324 
L 165.188698 132.930266 
L 165.493366 80.370165 
L 165.798034 110.445328 
L 166.102703 175.528831 
L 166.407371 176.16544 
L 166.712039 142.967253 
L 167.016708 141.57341 
L 167.321376 195.266614 
L 167.626044 128.053284 
L 167.930713 172.386325 
L 168.235381 169.942741 
L 168.540049 160.062819 
L 168.844717 165.025049 
L 169.149386 178.167008 
L 169.454054 172.514797 
L 169.758722 137.938706 
L 170.063391 139.548694 
L 170.368059 118.756888 
L 170.672727 148.039725 
L 170.977396 139.865224 
L 171.282064 159.392163 
L 171.586732 154.211002 
L 171.8914 123.825294 
L 172.196069 127.963395 
L 172.500737 139.120987 
L 172.805405 123.044789 
L 173.110074 88.459916 
L 173.414742 172.969545 
L 173.71941 166.652653 
L 174.024079 146.294539 
L 174.328747 151.288488 
L 174.938084 98.361762 
L 175.242752 174.9159 
L 175.54742 143.568236 
L 175.852088 145.507966 
L 176.156757 142.015542 
L 176.461425 164.223811 
L 176.766093 161.448499 
L 177.070762 125.72483 
L 177.37543 165.401103 
L 177.680098 140.191052 
L 177.984767 153.326139 
L 178.289435 157.553061 
L 178.594103 114.141206 
L 178.898771 131.920186 
L 179.20344 168.355598 
L 179.812776 118.390618 
L 180.117445 130.352241 
L 180.422113 127.223994 
L 180.726781 135.801164 
L 181.03145 149.678574 
L 181.336118 154.72493 
L 181.640786 88.911012 
L 182.250123 156.814633 
L 182.554791 172.681692 
L 182.859459 102.685619 
L 183.164128 175.436 
L 183.468796 93.915435 
L 184.078133 177.879646 
L 184.687469 108.730912 
L 184.992138 146.558793 
L 185.296806 143.604502 
L 185.601474 124.355303 
L 185.906143 119.83799 
L 186.515479 173.071798 
L 187.124816 140.133429 
L 187.429484 139.210499 
L 187.734152 141.81275 
L 188.038821 196.48026 
L 188.343489 139.671058 
L 188.648157 146.727134 
L 188.952826 160.682225 
L 189.257494 92.506497 
L 189.562162 131.984101 
L 189.86683 115.679371 
L 190.171499 118.033461 
L 190.476167 114.265879 
L 190.780835 148.506583 
L 191.085504 167.743352 
L 191.390172 172.53654 
L 191.69484 133.066154 
L 191.999509 157.116414 
L 192.304177 113.299721 
L 192.608845 142.441293 
L 192.913514 142.924678 
L 193.218182 164.703508 
L 193.52285 173.853729 
L 193.827518 140.724779 
L 194.132187 121.60989 
L 194.436855 148.858649 
L 194.741523 89.978525 
L 195.046192 118.294408 
L 195.655528 135.55965 
L 195.960197 133.990961 
L 196.264865 145.987212 
L 196.569533 120.867084 
L 196.874201 109.981505 
L 197.17887 159.771183 
L 197.483538 136.390517 
L 197.788206 132.158546 
L 198.092875 160.618521 
L 198.397543 109.928424 
L 198.702211 117.789833 
L 199.00688 91.469544 
L 199.311548 154.65275 
L 199.616216 153.483233 
L 199.920885 92.499092 
L 200.225553 120.479882 
L 200.530221 137.684978 
L 200.834889 166.490293 
L 201.139558 130.513006 
L 201.444226 125.655648 
L 201.748894 89.272514 
L 202.053563 160.353771 
L 202.358231 132.470396 
L 202.662899 174.771345 
L 202.967568 137.69776 
L 203.272236 177.791849 
L 203.576904 132.588157 
L 203.881572 105.443866 
L 204.490909 177.490324 
L 204.795577 157.617996 
L 205.404914 92.351946 
L 205.709582 110.639959 
L 206.014251 168.130057 
L 206.623587 125.180496 
L 206.928256 158.896565 
L 207.232924 145.118681 
L 207.537592 144.755198 
L 207.84226 130.971611 
L 208.451597 169.589118 
L 208.756265 142.111951 
L 209.060934 137.50298 
L 209.365602 175.458022 
L 209.67027 130.195618 
L 209.974939 178.051355 
L 210.279607 124.696019 
L 210.584275 161.785068 
L 210.888943 116.586119 
L 211.193612 155.00122 
L 211.49828 97.133765 
L 211.802948 189.664067 
L 212.107617 111.90552 
L 212.412285 120.771962 
L 212.716953 133.597524 
L 213.021622 176.20393 
L 213.630958 127.087292 
L 214.240295 160.194628 
L 214.849631 116.115043 
L 215.1543 135.525877 
L 215.458968 177.284805 
L 215.763636 151.730093 
L 216.068305 155.681502 
L 216.372973 143.814706 
L 216.677641 108.757957 
L 216.98231 168.657835 
L 217.286978 141.230644 
L 217.591646 166.372876 
L 217.896314 132.326421 
L 218.200983 145.540195 
L 218.505651 118.471753 
L 218.810319 109.4006 
L 219.114988 168.274294 
L 219.419656 151.487819 
L 219.724324 144.857092 
L 220.028993 147.536054 
L 220.638329 98.137734 
L 220.942998 136.985763 
L 221.247666 142.513492 
L 221.857002 178.889952 
L 222.161671 116.218645 
L 222.466339 113.389698 
L 222.771007 112.788771 
L 223.075676 156.715227 
L 223.380344 127.360859 
L 223.685012 192.681915 
L 223.989681 131.110964 
L 224.294349 135.942326 
L 224.903686 173.454814 
L 225.208354 193.207854 
L 225.513022 196.108666 
L 225.81769 160.386573 
L 226.122359 109.818513 
L 226.427027 160.555601 
L 226.731695 180.265749 
L 227.036364 120.238942 
L 227.341032 148.913449 
L 227.6457 192.13973 
L 228.255037 120.910954 
L 228.559705 142.125053 
L 228.864373 121.564502 
L 229.169042 126.155454 
L 229.47371 148.807129 
L 229.778378 136.293152 
L 230.387715 178.500586 
L 230.692383 95.916556 
L 230.997052 208.605121 
L 231.30172 128.053547 
L 231.606388 197.635071 
L 232.215725 116.973887 
L 232.520393 173.785354 
L 232.825061 163.464569 
L 233.434398 119.056128 
L 233.739066 119.884003 
L 234.043735 156.462554 
L 234.348403 138.720614 
L 234.653071 224.157906 
L 234.95774 195.335236 
L 235.262408 135.889376 
L 235.567076 110.196907 
L 235.871744 164.060202 
L 236.176413 140.024182 
L 236.481081 132.978301 
L 237.090418 153.192479 
L 237.395086 174.537221 
L 237.699754 162.098823 
L 238.004423 164.065428 
L 238.309091 192.37981 
L 238.613759 157.235543 
L 238.918428 167.366515 
L 239.223096 138.417251 
L 239.527764 141.279186 
L 239.832432 146.418766 
L 240.137101 94.422695 
L 240.441769 138.681587 
L 240.746437 162.627842 
L 241.051106 132.885927 
L 241.660442 183.98678 
L 241.965111 122.878833 
L 242.269779 161.937551 
L 242.574447 106.107936 
L 242.879115 122.235524 
L 243.183784 159.180923 
L 243.488452 168.795038 
L 244.097789 100.742158 
L 244.402457 114.661246 
L 244.707125 160.618214 
L 245.011794 138.844766 
L 245.316462 140.264392 
L 245.62113 62.33587 
L 245.925799 164.967549 
L 246.230467 107.535448 
L 246.535135 114.314907 
L 246.839803 125.923779 
L 247.144472 109.808172 
L 247.44914 120.077389 
L 247.753808 150.035086 
L 248.058477 146.931638 
L 248.363145 112.911789 
L 248.667813 160.263375 
L 248.972482 174.767334 
L 249.27715 171.184407 
L 249.581818 141.88165 
L 249.886486 130.584237 
L 250.191155 151.29578 
L 250.495823 143.946472 
L 250.800491 144.872608 
L 251.10516 139.366521 
L 251.409828 171.218518 
L 251.714496 180.851605 
L 252.019165 115.379365 
L 252.323833 165.524173 
L 252.628501 146.262068 
L 252.93317 142.685166 
L 253.542506 103.661585 
L 253.847174 155.356827 
L 254.151843 156.705181 
L 254.456511 135.919515 
L 254.761179 155.340999 
L 255.065848 145.255907 
L 255.370516 186.636995 
L 255.675184 148.044652 
L 255.979853 131.462773 
L 256.284521 121.302604 
L 256.589189 115.624226 
L 256.893857 139.779771 
L 257.198526 116.783919 
L 257.503194 108.180624 
L 257.807862 166.953426 
L 258.112531 101.660689 
L 258.417199 130.779432 
L 258.721867 177.095426 
L 259.026536 117.893284 
L 259.331204 155.001144 
L 259.635872 84.786701 
L 260.245209 129.792448 
L 260.549877 153.445987 
L 260.854545 143.177753 
L 261.159214 101.322748 
L 261.463882 145.113987 
L 261.76855 102.125184 
L 262.073219 205.343978 
L 262.377887 119.428583 
L 262.682555 131.92643 
L 262.987224 132.848864 
L 263.291892 142.084107 
L 263.59656 183.342667 
L 263.901229 146.989717 
L 264.205897 94.54574 
L 264.510565 163.688539 
L 264.815233 138.167044 
L 265.42457 155.194916 
L 265.729238 103.935309 
L 266.033907 144.238147 
L 266.338575 137.15215 
L 266.643243 148.283087 
L 266.947912 145.410994 
L 267.25258 105.592241 
L 267.557248 135.082617 
L 267.861916 148.994381 
L 268.166585 123.270253 
L 268.471253 173.618486 
L 268.775921 126.571867 
L 269.08059 120.298722 
L 269.385258 137.676631 
L 269.689926 168.804802 
L 269.994595 142.227734 
L 270.299263 128.804438 
L 270.603931 106.614884 
L 270.9086 157.884795 
L 271.213268 150.544677 
L 271.517936 181.915689 
L 271.822604 144.269372 
L 272.127273 166.7097 
L 272.431941 131.280471 
L 272.736609 80.952736 
L 273.041278 178.549721 
L 273.345946 140.273732 
L 273.650614 147.082635 
L 273.955283 168.139997 
L 274.259951 167.070486 
L 274.564619 138.359835 
L 274.869287 164.749775 
L 275.173956 113.109256 
L 275.478624 120.088863 
L 275.783292 209.152661 
L 276.087961 153.355216 
L 276.697297 111.636841 
L 277.001966 169.926577 
L 277.306634 131.566085 
L 277.611302 162.018867 
L 278.220639 137.81327 
L 278.525307 168.456567 
L 279.134644 134.169144 
L 279.439312 189.642763 
L 279.74398 119.732088 
L 280.048649 135.618947 
L 280.353317 143.528429 
L 280.657985 123.023319 
L 280.962654 123.008318 
L 281.57199 158.733245 
L 281.876658 143.839319 
L 282.181327 206.605831 
L 282.790663 132.114539 
L 283.095332 168.602967 
L 283.4 95.93639 
L 283.704668 120.835027 
L 284.314005 153.116976 
L 284.618673 182.831266 
L 284.923342 132.834544 
L 285.22801 144.672274 
L 285.532678 150.002869 
L 285.837346 157.460508 
L 286.142015 144.431853 
L 287.360688 161.997786 
L 287.970025 182.692053 
L 288.274693 177.103919 
L 288.579361 115.444933 
L 288.884029 135.534795 
L 289.188698 147.102168 
L 289.493366 164.023 
L 289.798034 145.65547 
L 290.102703 197.816807 
L 290.407371 123.670671 
L 291.016708 139.981563 
L 291.321376 108.169822 
L 291.626044 108.147065 
L 291.930713 181.420949 
L 292.235381 188.034298 
L 292.540049 101.595702 
L 292.844717 159.572642 
L 293.149386 137.374584 
L 293.454054 127.277902 
L 294.368059 172.206221 
L 294.672727 129.52562 
L 294.977396 165.720359 
L 295.282064 150.438878 
L 295.586732 191.098535 
L 295.8914 194.115914 
L 296.196069 108.98286 
L 296.500737 71.612149 
L 296.805405 138.11227 
L 297.110074 101.293054 
L 297.414742 164.665088 
L 297.71941 136.535007 
L 298.024079 138.593636 
L 298.328747 134.351069 
L 298.633415 148.157674 
L 298.938084 117.284413 
L 299.242752 121.088363 
L 299.54742 137.805498 
L 299.852088 166.509096 
L 300.156757 150.0053 
L 300.766093 130.475232 
L 301.070762 118.131331 
L 301.37543 87.906765 
L 301.680098 177.051612 
L 301.984767 158.672297 
L 302.289435 127.664146 
L 302.594103 111.288589 
L 303.20344 134.089752 
L 303.508108 165.259895 
L 303.812776 173.027176 
L 304.117445 136.648928 
L 304.422113 131.481062 
L 304.726781 92.214878 
L 305.03145 159.742071 
L 305.336118 159.260985 
L 305.640786 172.011402 
L 305.945455 149.137609 
L 306.250123 143.846242 
L 306.554791 147.913882 
L 306.859459 149.492328 
L 307.164128 165.519491 
L 307.468796 114.221491 
L 307.773464 125.679605 
L 308.382801 174.910378 
L 308.687469 172.525675 
L 308.992138 162.479943 
L 309.296806 108.094101 
L 309.601474 153.72401 
L 309.906143 182.284734 
L 310.515479 120.16483 
L 310.820147 148.699019 
L 311.124816 44.64 
L 311.734152 144.130612 
L 312.038821 140.794147 
L 312.343489 133.563 
L 312.648157 138.508563 
L 313.257494 140.009297 
L 313.562162 126.264983 
L 313.86683 103.500302 
L 314.171499 134.930626 
L 314.476167 102.651835 
L 314.780835 120.23759 
L 315.085504 173.465423 
L 315.390172 162.368082 
L 315.999509 97.106599 
L 316.304177 130.208501 
L 316.608845 146.641299 
L 317.218182 117.242421 
L 317.52285 183.413198 
L 317.827518 126.043228 
L 318.132187 100.842327 
L 318.436855 137.483949 
L 318.741523 150.641671 
L 319.046192 116.738555 
L 319.655528 170.655099 
L 319.960197 97.824657 
L 320.264865 160.595119 
L 320.569533 162.535183 
L 320.874201 141.39911 
L 321.17887 161.305886 
L 321.483538 149.393799 
L 321.788206 128.446182 
L 322.092875 131.372226 
L 322.397543 130.396793 
L 323.00688 141.439281 
L 323.311548 143.73708 
L 323.616216 164.005419 
L 323.920885 153.911372 
L 324.225553 103.413954 
L 324.530221 109.440247 
L 324.834889 89.929961 
L 325.444226 173.359675 
L 326.053563 117.23604 
L 326.358231 111.050076 
L 326.662899 129.078617 
L 326.967568 163.987798 
L 327.272236 142.947165 
L 327.576904 161.356789 
L 328.186241 127.697379 
L 328.490909 143.217018 
L 328.795577 100.930159 
L 329.404914 159.316453 
L 329.709582 152.892865 
L 330.014251 175.289498 
L 330.623587 124.441804 
L 330.928256 140.45503 
L 331.232924 102.490739 
L 331.537592 134.529154 
L 331.84226 98.479281 
L 332.146929 153.480574 
L 332.451597 122.899043 
L 332.756265 167.705078 
L 333.060934 150.882185 
L 333.365602 163.243985 
L 333.67027 187.298436 
L 333.974939 144.107238 
L 334.279607 172.274113 
L 334.584275 151.037943 
L 334.888943 101.904459 
L 335.193612 153.162128 
L 335.49828 96.389541 
L 335.802948 180.286801 
L 336.107617 126.051306 
L 336.412285 164.422327 
L 336.716953 146.677597 
L 337.021622 110.022691 
L 337.32629 141.926374 
L 337.630958 132.023429 
L 337.935627 127.550915 
L 338.240295 115.680056 
L 338.544963 152.117352 
L 338.849631 145.288336 
L 339.1543 141.347221 
L 339.458968 160.486203 
L 339.763636 133.42065 
L 340.068305 145.01883 
L 340.372973 122.478167 
L 340.677641 173.591695 
L 340.98231 136.856777 
L 341.286978 154.975503 
L 341.591646 141.877308 
L 341.896314 143.1966 
L 342.200983 139.871072 
L 342.505651 158.334094 
L 342.810319 138.644224 
L 343.114988 177.727018 
L 343.419656 147.14001 
L 343.724324 160.488579 
L 344.028993 149.102217 
L 344.333661 119.662097 
L 344.638329 168.969941 
L 344.942998 171.942711 
L 345.247666 129.802311 
L 345.552334 171.983066 
L 345.857002 164.714716 
L 346.161671 129.953171 
L 346.466339 160.242612 
L 346.771007 144.073017 
L 347.380344 131.574999 
L 347.685012 164.664296 
L 347.989681 114.162701 
L 348.294349 119.182097 
L 348.599017 117.000365 
L 348.903686 151.834554 
L 349.208354 173.733209 
L 349.513022 131.264951 
L 350.122359 149.784744 
L 350.427027 115.221906 
L 350.731695 179.443788 
L 351.036364 131.960356 
L 351.341032 121.043414 
L 351.6457 182.720334 
L 351.950369 138.941716 
L 352.255037 124.102697 
L 352.559705 144.103217 
L 352.864373 156.718854 
L 353.169042 147.983133 
L 353.47371 246.24 
L 353.778378 109.395504 
L 354.083047 162.037476 
L 354.387715 153.564556 
L 354.692383 157.037709 
L 354.997052 172.89857 
L 355.30172 196.722785 
L 355.606388 172.487196 
L 355.911057 177.668585 
L 356.215725 114.147718 
L 356.520393 123.665405 
L 356.825061 159.110667 
L 357.12973 136.044835 
L 357.434398 134.521521 
L 357.739066 144.249187 
L 358.043735 130.971869 
L 358.348403 158.979357 
L 358.653071 125.940646 
L 358.95774 173.222328 
L 359.262408 154.420784 
L 359.567076 86.855517 
L 359.871744 142.282505 
L 360.176413 140.751792 
L 360.481081 150.991687 
L 360.785749 147.809086 
L 361.090418 126.155493 
L 361.395086 137.995055 
L 361.699754 183.064322 
L 362.004423 135.983577 
L 362.309091 129.629726 
L 362.613759 158.955684 
L 362.918428 124.477879 
L 363.223096 156.333345 
L 363.527764 203.353423 
L 363.832432 134.720489 
L 364.137101 98.111992 
L 364.441769 141.060924 
L 364.746437 152.499247 
L 365.051106 139.289933 
L 365.355774 148.182829 
L 365.660442 166.773243 
L 365.965111 146.709252 
L 366.269779 174.526086 
L 366.574447 176.170875 
L 366.879115 163.423572 
L 367.183784 131.033116 
L 367.488452 123.875809 
L 367.79312 136.95958 
L 368.097789 156.735553 
L 368.402457 100.623754 
L 368.707125 141.716828 
L 369.011794 128.265276 
L 369.316462 138.183778 
L 369.62113 105.743829 
L 369.925799 153.504295 
L 370.230467 142.789087 
L 370.535135 75.091072 
L 370.839803 194.041432 
L 371.144472 116.897966 
L 371.44914 197.453063 
L 371.753808 95.187081 
L 372.363145 177.801766 
L 372.667813 124.136399 
L 372.972482 213.736007 
L 373.27715 162.67691 
L 373.581818 161.891745 
L 373.581818 161.891745 
" style="fill:none;stroke:#ff7f0e;stroke-linecap:square;stroke-width:1.5;"/>
   </g>
   <g id="line2d_12">
    <path clip-path="url(#pbced541874)" d="M 69.218182 178.562313 
L 69.52285 103.883285 
L 69.827518 175.700574 
L 70.132187 149.081522 
L 70.436855 91.649274 
L 70.741523 190.29885 
L 71.35086 100.360652 
L 71.655528 101.38634 
L 71.960197 132.543016 
L 72.264865 116.444436 
L 72.569533 164.90447 
L 72.874201 145.639267 
L 73.17887 165.247996 
L 73.483538 134.448341 
L 73.788206 133.788086 
L 74.092875 106.040217 
L 74.397543 132.202041 
L 74.702211 126.593322 
L 75.00688 141.3602 
L 75.311548 135.489543 
L 75.616216 133.678096 
L 75.920885 113.762022 
L 76.225553 203.042433 
L 76.530221 158.031472 
L 77.139558 104.428468 
L 77.444226 151.66866 
L 77.748894 126.361847 
L 78.053563 128.891837 
L 78.358231 162.469087 
L 78.662899 146.335635 
L 78.967568 169.473692 
L 79.272236 163.472306 
L 79.576904 199.76078 
L 79.881572 119.242423 
L 80.186241 132.448649 
L 80.490909 169.67352 
L 80.795577 120.493596 
L 81.404914 155.728723 
L 81.709582 161.608808 
L 82.014251 111.809774 
L 82.623587 168.808472 
L 82.928256 126.962695 
L 83.232924 165.409723 
L 83.537592 137.110402 
L 83.84226 135.101869 
L 84.146929 121.535378 
L 84.451597 117.164945 
L 84.756265 155.582898 
L 85.060934 155.988 
L 85.67027 98.898563 
L 86.279607 155.560999 
L 86.584275 192.749786 
L 86.888943 161.559227 
L 87.193612 163.101383 
L 87.49828 188.317182 
L 87.802948 134.018663 
L 88.107617 101.63448 
L 88.412285 109.658987 
L 88.716953 96.299758 
L 89.021622 163.935649 
L 89.32629 125.349645 
L 89.630958 139.427763 
L 89.935627 116.176935 
L 90.240295 211.231808 
L 90.544963 173.610813 
L 90.849631 154.153059 
L 91.1543 154.106691 
L 91.458968 79.537787 
L 91.763636 141.659803 
L 92.068305 144.786776 
L 92.372973 163.58437 
L 92.677641 109.843165 
L 92.98231 147.695305 
L 93.286978 159.79447 
L 93.591646 181.07788 
L 93.896314 171.590853 
L 94.200983 123.178724 
L 94.505651 123.316817 
L 94.810319 120.853785 
L 95.114988 162.673079 
L 95.419656 121.974328 
L 96.028993 171.791428 
L 96.333661 151.665875 
L 96.638329 105.768384 
L 96.942998 123.567344 
L 97.247666 209.402067 
L 97.552334 152.044966 
L 97.857002 127.527581 
L 98.161671 127.140649 
L 98.466339 134.77955 
L 98.771007 137.839082 
L 99.075676 157.693003 
L 99.380344 134.155164 
L 99.685012 170.753446 
L 100.294349 135.714907 
L 100.599017 155.919316 
L 100.903686 212.38565 
L 101.208354 73.063228 
L 101.513022 154.651666 
L 101.81769 171.356883 
L 102.122359 173.119424 
L 102.427027 208.135451 
L 102.731695 140.400826 
L 103.036364 163.886534 
L 103.341032 142.616105 
L 103.6457 167.337417 
L 103.950369 151.185528 
L 104.255037 178.36081 
L 104.559705 108.367144 
L 104.864373 143.060525 
L 105.169042 135.52313 
L 105.47371 89.760636 
L 105.778378 206.861557 
L 106.083047 95.904666 
L 106.387715 135.560225 
L 106.692383 132.360059 
L 106.997052 180.511741 
L 107.606388 108.943786 
L 107.911057 116.022042 
L 108.215725 167.147118 
L 108.520393 88.720114 
L 108.825061 150.738322 
L 109.434398 106.662109 
L 109.739066 170.132547 
L 110.043735 133.355648 
L 110.653071 125.459441 
L 110.95774 178.49403 
L 111.262408 187.024496 
L 111.567076 132.580316 
L 111.871744 163.992798 
L 112.176413 147.989172 
L 112.481081 116.291745 
L 112.785749 140.951153 
L 113.090418 221.392411 
L 113.395086 157.812233 
L 113.699754 136.259331 
L 114.004423 101.517621 
L 114.613759 148.855869 
L 114.918428 137.951058 
L 115.223096 101.207895 
L 115.527764 127.685371 
L 115.832432 130.890979 
L 116.137101 154.632048 
L 116.441769 213.189807 
L 116.746437 129.262379 
L 117.051106 228.544391 
L 117.355774 153.157961 
L 117.660442 156.041277 
L 117.965111 150.328717 
L 118.269779 139.350371 
L 118.574447 155.541524 
L 118.879115 125.303624 
L 119.183784 122.765753 
L 119.488452 167.246126 
L 119.79312 155.650815 
L 120.097789 123.387638 
L 120.707125 136.595041 
L 121.011794 159.860109 
L 121.316462 149.754872 
L 121.62113 187.125702 
L 121.925799 128.788434 
L 122.535135 194.459593 
L 122.839803 138.837838 
L 123.144472 183.083717 
L 123.44914 150.387805 
L 123.753808 134.817952 
L 124.363145 184.322882 
L 124.667813 163.452697 
L 124.972482 160.450718 
L 125.27715 132.566153 
L 125.581818 210.387002 
L 125.886486 143.030749 
L 126.191155 170.825681 
L 126.495823 150.146429 
L 126.800491 164.252635 
L 127.10516 91.876483 
L 127.409828 125.456057 
L 127.714496 124.030672 
L 128.019165 107.558375 
L 128.323833 115.66207 
L 128.628501 165.100567 
L 128.93317 92.56569 
L 129.237838 153.079261 
L 129.542506 133.0515 
L 129.847174 142.926864 
L 130.151843 112.096706 
L 130.456511 154.596086 
L 130.761179 115.797796 
L 131.065848 141.776475 
L 131.370516 104.829655 
L 131.675184 140.531707 
L 131.979853 162.576965 
L 132.284521 138.853415 
L 132.589189 165.584937 
L 132.893857 125.118998 
L 133.198526 172.237317 
L 133.503194 124.62347 
L 133.807862 148.625962 
L 134.112531 160.527002 
L 134.417199 135.828856 
L 134.721867 168.427965 
L 135.026536 117.767021 
L 135.331204 146.708148 
L 135.635872 137.314003 
L 135.940541 159.338077 
L 136.245209 120.930758 
L 136.549877 162.042588 
L 136.854545 167.242844 
L 137.159214 73.593248 
L 137.76855 157.49886 
L 138.073219 135.545597 
L 138.377887 132.088776 
L 138.682555 116.611497 
L 138.987224 173.544003 
L 139.291892 117.164412 
L 139.901229 171.600561 
L 140.205897 135.574028 
L 140.510565 112.857402 
L 140.815233 158.988387 
L 141.119902 184.69314 
L 141.42457 122.549443 
L 141.729238 140.019011 
L 142.033907 127.105214 
L 142.338575 119.969429 
L 142.643243 120.803746 
L 142.947912 126.515777 
L 143.25258 172.039264 
L 143.557248 103.793951 
L 143.861916 172.934321 
L 144.166585 147.679054 
L 144.471253 172.187333 
L 144.775921 126.458996 
L 145.08059 164.066275 
L 145.385258 128.111374 
L 145.689926 191.699441 
L 145.994595 176.310774 
L 146.299263 125.144752 
L 146.603931 130.866103 
L 146.9086 176.024583 
L 147.213268 193.217159 
L 147.517936 127.213568 
L 147.822604 209.601188 
L 148.127273 129.843027 
L 148.431941 146.826395 
L 148.736609 95.815913 
L 149.041278 127.636944 
L 149.345946 144.011895 
L 149.650614 123.461463 
L 149.955283 90.984621 
L 150.259951 118.331973 
L 150.564619 98.316513 
L 150.869287 155.858754 
L 151.173956 132.706411 
L 151.478624 101.020239 
L 152.087961 167.200419 
L 152.392629 131.004607 
L 152.697297 125.907323 
L 153.001966 113.9167 
L 153.306634 153.795779 
L 153.611302 148.829737 
L 153.915971 93.406988 
L 154.220639 132.35882 
L 154.525307 201.756777 
L 155.134644 108.88196 
L 155.439312 109.509623 
L 155.74398 116.355332 
L 156.048649 140.747483 
L 156.353317 143.773102 
L 156.657985 151.340485 
L 156.962654 76.356803 
L 157.267322 178.973343 
L 157.876658 99.554302 
L 158.181327 147.2976 
L 158.485995 168.818933 
L 158.790663 128.794585 
L 159.095332 141.170387 
L 159.4 167.189886 
L 159.704668 149.735276 
L 160.009337 189.639912 
L 160.314005 128.849733 
L 160.618673 129.734471 
L 160.923342 199.364313 
L 161.22801 178.547572 
L 161.532678 187.16177 
L 161.837346 118.2372 
L 162.142015 153.124211 
L 162.751351 165.47804 
L 163.05602 85.729987 
L 163.360688 142.992826 
L 163.665356 129.8925 
L 163.970025 130.031198 
L 164.274693 97.467907 
L 164.884029 171.095336 
L 165.188698 148.14088 
L 165.493366 145.010272 
L 165.798034 148.488013 
L 166.102703 166.482148 
L 166.407371 157.513552 
L 166.712039 186.934437 
L 167.016708 109.978751 
L 167.321376 220.51336 
L 167.626044 195.174467 
L 167.930713 179.622256 
L 168.235381 211.986656 
L 168.540049 120.840526 
L 168.844717 111.018252 
L 169.454054 176.125001 
L 169.758722 155.30627 
L 170.063391 146.123096 
L 170.368059 155.821332 
L 170.672727 160.835032 
L 170.977396 126.116752 
L 171.282064 163.550029 
L 171.586732 183.657853 
L 171.8914 149.685185 
L 172.196069 145.777814 
L 172.805405 103.39709 
L 173.110074 150.177535 
L 173.71941 134.717513 
L 174.024079 139.423068 
L 174.328747 165.370425 
L 174.633415 172.222177 
L 174.938084 148.114662 
L 175.242752 183.913792 
L 175.54742 149.825437 
L 175.852088 182.59983 
L 176.156757 102.107555 
L 176.461425 122.031457 
L 176.766093 174.058887 
L 177.070762 150.396328 
L 177.37543 116.85574 
L 177.680098 148.052774 
L 177.984767 142.036474 
L 178.289435 162.178601 
L 178.594103 172.415056 
L 178.898771 88.373259 
L 179.20344 197.723861 
L 179.508108 143.964715 
L 179.812776 162.785287 
L 180.117445 156.450857 
L 180.422113 103.322529 
L 180.726781 146.291832 
L 181.03145 155.952551 
L 181.336118 104.211948 
L 181.640786 103.210991 
L 181.945455 136.759889 
L 182.250123 156.340744 
L 182.554791 115.022945 
L 182.859459 141.621435 
L 183.164128 201.444103 
L 183.468796 158.066096 
L 183.773464 145.901156 
L 184.078133 191.284421 
L 184.687469 130.69243 
L 184.992138 94.677652 
L 185.296806 194.89791 
L 185.601474 136.060039 
L 185.906143 103.392236 
L 186.210811 152.01684 
L 186.820147 100.86827 
L 187.124816 123.614608 
L 187.734152 148.038795 
L 188.038821 166.780329 
L 188.343489 129.946699 
L 188.648157 112.446633 
L 188.952826 152.265527 
L 189.257494 129.840106 
L 189.562162 123.540417 
L 189.86683 135.619353 
L 190.171499 99.593103 
L 190.476167 128.392646 
L 190.780835 113.651202 
L 191.085504 171.163692 
L 191.390172 75.045714 
L 191.69484 156.963114 
L 191.999509 84.745482 
L 192.304177 87.128186 
L 192.608845 171.583624 
L 193.218182 100.066155 
L 193.52285 125.003206 
L 193.827518 140.347729 
L 194.132187 127.945648 
L 194.436855 164.771606 
L 194.741523 176.121971 
L 195.046192 105.184315 
L 195.35086 65.59854 
L 195.655528 140.097371 
L 196.264865 166.686267 
L 196.569533 102.504804 
L 196.874201 157.902258 
L 197.483538 91.694462 
L 197.788206 139.995488 
L 198.092875 169.107356 
L 198.397543 136.640414 
L 198.702211 141.071037 
L 199.00688 120.72594 
L 199.311548 131.282101 
L 199.616216 111.318628 
L 199.920885 145.794109 
L 200.225553 161.728705 
L 200.530221 63.570005 
L 200.834889 119.753673 
L 201.139558 133.279954 
L 201.444226 115.722902 
L 201.748894 163.60272 
L 202.053563 114.254408 
L 202.358231 117.161143 
L 202.662899 104.748598 
L 202.967568 127.625003 
L 203.272236 182.868128 
L 203.576904 120.945571 
L 203.881572 140.401656 
L 204.186241 152.248257 
L 204.490909 218.395387 
L 204.795577 108.989577 
L 205.404914 144.112208 
L 205.709582 112.810932 
L 206.318919 160.235105 
L 206.623587 153.005026 
L 206.928256 114.723066 
L 207.232924 180.312393 
L 207.537592 138.731986 
L 207.84226 153.655473 
L 208.146929 91.596662 
L 208.451597 115.838052 
L 208.756265 113.172051 
L 209.060934 149.309082 
L 209.365602 156.871971 
L 209.67027 59.700286 
L 209.974939 99.332395 
L 210.279607 159.353358 
L 210.584275 157.705629 
L 210.888943 113.833126 
L 211.193612 123.437759 
L 211.49828 153.170873 
L 211.802948 146.245687 
L 212.107617 143.397151 
L 212.412285 148.392421 
L 212.716953 145.414874 
L 213.021622 165.919289 
L 213.32629 141.485524 
L 213.630958 134.485124 
L 214.240295 155.971051 
L 214.544963 203.244645 
L 214.849631 132.413936 
L 215.1543 174.554527 
L 215.458968 143.120907 
L 215.763636 90.130167 
L 216.372973 145.582498 
L 216.98231 105.340757 
L 217.286978 179.506433 
L 217.591646 153.486918 
L 217.896314 104.969081 
L 218.200983 148.073145 
L 218.505651 99.281014 
L 218.810319 114.663267 
L 219.114988 90.150238 
L 219.419656 167.480315 
L 219.724324 103.594042 
L 220.028993 130.532056 
L 220.333661 54.299954 
L 220.638329 128.028687 
L 220.942998 118.441348 
L 221.247666 161.703037 
L 221.552334 108.327476 
L 221.857002 151.994387 
L 222.161671 114.286307 
L 222.466339 111.234638 
L 222.771007 145.147955 
L 223.075676 96.026591 
L 223.685012 162.533508 
L 223.989681 123.120146 
L 224.294349 151.797308 
L 224.599017 111.474757 
L 224.903686 144.853738 
L 225.208354 125.736102 
L 225.513022 127.7211 
L 225.81769 114.786258 
L 226.122359 150.800663 
L 226.427027 125.715846 
L 226.731695 128.80625 
L 227.036364 142.437474 
L 227.341032 112.344091 
L 227.6457 145.729189 
L 227.950369 160.985388 
L 228.255037 155.63459 
L 229.169042 103.809615 
L 229.47371 152.048906 
L 230.083047 143.644164 
L 230.387715 87.975241 
L 230.692383 123.980554 
L 231.30172 97.265246 
L 231.606388 132.930664 
L 231.911057 128.028969 
L 232.215725 112.141189 
L 232.520393 153.642624 
L 232.825061 173.375161 
L 233.12973 120.648007 
L 233.434398 133.087676 
L 234.043735 122.829567 
L 234.348403 139.203956 
L 234.653071 125.095688 
L 234.95774 133.58833 
L 235.262408 189.891351 
L 235.567076 112.957965 
L 236.176413 166.639533 
L 236.481081 106.502098 
L 237.090418 181.52141 
L 237.395086 135.936037 
L 237.699754 141.72803 
L 238.004423 100.64303 
L 238.309091 149.787237 
L 238.613759 149.017012 
L 238.918428 128.8183 
L 239.223096 85.11328 
L 239.527764 107.186221 
L 239.832432 147.900979 
L 240.137101 165.194681 
L 240.441769 149.483668 
L 240.746437 151.748072 
L 241.051106 158.606901 
L 241.355774 146.789366 
L 241.660442 189.020351 
L 241.965111 90.519332 
L 242.269779 176.111502 
L 242.574447 113.829853 
L 242.879115 141.414248 
L 243.183784 126.587835 
L 243.488452 167.95103 
L 243.79312 89.927853 
L 244.097789 167.979648 
L 244.402457 88.472278 
L 244.707125 158.80873 
L 245.011794 116.557228 
L 245.62113 120.956818 
L 245.925799 166.163398 
L 246.230467 172.518639 
L 246.535135 115.86194 
L 246.839803 118.117387 
L 247.144472 141.691937 
L 247.44914 118.184715 
L 247.753808 123.613232 
L 248.058477 147.690082 
L 248.363145 113.137949 
L 248.667813 136.185293 
L 248.972482 143.63556 
L 249.27715 106.075322 
L 249.886486 86.224854 
L 250.191155 120.82621 
L 250.800491 146.40051 
L 251.10516 117.094636 
L 251.409828 173.711455 
L 251.714496 176.832306 
L 252.019165 152.655687 
L 252.323833 105.98646 
L 252.628501 83.378587 
L 252.93317 148.244225 
L 253.237838 139.369157 
L 253.542506 153.38253 
L 253.847174 113.580196 
L 254.151843 140.870061 
L 254.456511 136.357938 
L 254.761179 118.794344 
L 255.065848 137.514888 
L 255.370516 114.077763 
L 255.675184 145.449023 
L 255.979853 97.858459 
L 256.284521 158.014055 
L 256.589189 69.830172 
L 256.893857 139.462308 
L 257.198526 70.457786 
L 257.503194 96.866998 
L 257.807862 96.10649 
L 258.112531 161.46991 
L 258.417199 131.792736 
L 258.721867 156.835203 
L 259.026536 154.103843 
L 259.331204 148.09123 
L 259.635872 159.688012 
L 259.940541 166.157156 
L 260.245209 147.348294 
L 260.549877 105.716463 
L 260.854545 113.774063 
L 261.159214 110.136793 
L 261.463882 139.280634 
L 261.76855 132.384132 
L 262.073219 178.250677 
L 262.377887 117.044684 
L 262.682555 100.216276 
L 262.987224 125.388695 
L 263.291892 124.463132 
L 263.59656 161.013195 
L 263.901229 138.425534 
L 264.205897 141.95389 
L 264.510565 124.736502 
L 264.815233 145.720732 
L 265.119902 184.829287 
L 265.42457 96.338111 
L 265.729238 154.33032 
L 266.033907 156.387405 
L 266.338575 92.987275 
L 266.947912 142.129161 
L 267.25258 103.88071 
L 267.557248 118.942902 
L 267.861916 106.150949 
L 268.166585 190.06233 
L 268.471253 185.864876 
L 268.775921 146.680654 
L 269.08059 193.966811 
L 269.385258 129.069085 
L 269.689926 161.228015 
L 269.994595 118.828489 
L 270.299263 96.121319 
L 270.603931 185.827541 
L 270.9086 205.79099 
L 271.213268 103.359937 
L 271.517936 161.05491 
L 271.822604 117.742109 
L 272.127273 143.458172 
L 272.431941 137.916839 
L 272.736609 173.14496 
L 273.345946 112.636768 
L 273.650614 137.999326 
L 274.259951 119.209127 
L 274.564619 152.584512 
L 274.869287 139.08196 
L 275.173956 139.346591 
L 275.478624 91.434882 
L 275.783292 111.037956 
L 276.087961 154.561358 
L 276.697297 79.937272 
L 277.001966 107.883206 
L 277.306634 111.278536 
L 277.611302 172.210542 
L 277.915971 123.366411 
L 278.220639 148.317687 
L 278.525307 138.342748 
L 278.829975 111.425297 
L 279.134644 146.558932 
L 279.439312 111.545964 
L 280.048649 177.753669 
L 280.353317 179.937901 
L 280.657985 128.052148 
L 281.267322 196.03246 
L 281.57199 178.270803 
L 281.876658 114.305335 
L 282.181327 101.672499 
L 282.485995 149.598733 
L 282.790663 109.534851 
L 283.095332 137.504901 
L 283.704668 144.40399 
L 284.009337 123.407657 
L 284.314005 78.608857 
L 284.618673 129.432883 
L 284.923342 103.680631 
L 285.22801 138.969561 
L 285.532678 137.03426 
L 285.837346 128.969912 
L 286.142015 103.310155 
L 286.751351 119.305049 
L 287.05602 100.766827 
L 287.360688 167.952598 
L 287.970025 88.139888 
L 288.274693 155.501049 
L 288.579361 133.113003 
L 288.884029 170.144661 
L 289.188698 110.821649 
L 289.493366 140.335652 
L 289.798034 127.444524 
L 290.102703 165.191556 
L 290.407371 122.472159 
L 291.016708 168.807537 
L 291.321376 145.774755 
L 291.626044 162.004048 
L 291.930713 103.390454 
L 292.235381 116.483734 
L 292.540049 122.153318 
L 292.844717 98.103769 
L 293.149386 170.310604 
L 293.454054 116.9105 
L 293.758722 83.413504 
L 294.063391 131.529962 
L 294.368059 142.624072 
L 294.672727 132.057545 
L 294.977396 139.110635 
L 295.282064 131.161313 
L 295.586732 128.362637 
L 295.8914 150.877948 
L 296.196069 150.198094 
L 296.500737 90.612163 
L 296.805405 155.926602 
L 297.110074 144.707153 
L 297.414742 148.328411 
L 297.71941 127.04141 
L 298.024079 145.499421 
L 298.328747 145.18993 
L 298.633415 117.786424 
L 298.938084 134.56331 
L 299.242752 140.038426 
L 299.54742 119.969308 
L 299.852088 150.588737 
L 300.156757 140.871574 
L 300.461425 123.046871 
L 300.766093 116.77925 
L 301.070762 103.411882 
L 301.37543 121.37378 
L 301.680098 156.814435 
L 301.984767 145.032896 
L 302.289435 158.784859 
L 302.594103 190.66666 
L 302.898771 155.44324 
L 303.20344 140.080799 
L 303.508108 117.47422 
L 303.812776 154.666265 
L 304.117445 150.809703 
L 304.422113 181.041682 
L 304.726781 114.388004 
L 305.03145 182.005456 
L 305.336118 140.97345 
L 305.640786 160.557356 
L 305.945455 65.565308 
L 306.250123 138.12986 
L 306.554791 165.148816 
L 306.859459 161.638745 
L 307.164128 132.258278 
L 307.773464 103.706943 
L 308.078133 151.00425 
L 308.382801 96.690268 
L 308.687469 134.585167 
L 308.992138 111.346094 
L 309.296806 130.633289 
L 309.601474 136.249378 
L 309.906143 136.350554 
L 310.210811 118.161261 
L 310.515479 133.106672 
L 310.820147 113.674675 
L 311.124816 134.378323 
L 311.429484 164.045091 
L 311.734152 164.622006 
L 312.038821 115.92855 
L 312.343489 116.266194 
L 312.648157 112.226899 
L 312.952826 154.719042 
L 313.257494 134.813877 
L 313.562162 138.982005 
L 313.86683 113.788089 
L 314.171499 157.291965 
L 314.780835 114.176932 
L 315.085504 166.828788 
L 315.69484 123.435539 
L 315.999509 114.260889 
L 316.304177 152.275721 
L 316.608845 152.823457 
L 316.913514 153.677458 
L 317.218182 147.600189 
L 317.52285 123.89121 
L 317.827518 129.168261 
L 318.132187 131.472199 
L 318.436855 165.03286 
L 318.741523 114.23281 
L 319.046192 126.195425 
L 319.35086 143.76732 
L 319.655528 132.262612 
L 319.960197 133.2238 
L 320.264865 85.194324 
L 320.569533 140.325921 
L 320.874201 175.296863 
L 321.17887 123.025246 
L 321.483538 146.03441 
L 321.788206 124.874294 
L 322.092875 139.699373 
L 322.397543 105.653676 
L 322.702211 169.307745 
L 323.00688 127.402611 
L 323.311548 119.925128 
L 323.616216 102.836122 
L 323.920885 230.225296 
L 324.225553 159.232824 
L 324.530221 183.849221 
L 324.834889 180.244176 
L 325.139558 182.3115 
L 325.444226 104.635836 
L 325.748894 164.548446 
L 326.358231 123.467201 
L 326.662899 86.568806 
L 326.967568 123.919256 
L 327.272236 100.425772 
L 327.576904 155.618227 
L 327.881572 131.37738 
L 328.186241 127.725103 
L 328.490909 151.183744 
L 328.795577 131.22628 
L 329.100246 145.121081 
L 329.404914 171.119985 
L 329.709582 118.898695 
L 330.014251 114.468255 
L 330.318919 107.467468 
L 330.623587 96.815943 
L 330.928256 127.290004 
L 331.232924 110.804239 
L 331.537592 131.838889 
L 331.84226 136.791808 
L 332.146929 151.47668 
L 332.451597 145.013144 
L 332.756265 100.879662 
L 333.060934 134.091761 
L 333.365602 151.906049 
L 333.67027 100.023833 
L 333.974939 120.541514 
L 334.279607 127.378148 
L 334.584275 92.119393 
L 334.888943 156.671527 
L 335.193612 73.404247 
L 335.49828 128.142612 
L 335.802948 134.229951 
L 336.107617 154.42732 
L 336.412285 85.101323 
L 336.716953 135.355294 
L 337.021622 107.874925 
L 337.32629 118.561149 
L 337.630958 173.035445 
L 337.935627 143.673339 
L 338.240295 84.909135 
L 338.544963 137.355294 
L 338.849631 130.234849 
L 339.1543 137.488008 
L 339.458968 160.629625 
L 339.763636 124.874009 
L 340.068305 174.832092 
L 340.372973 121.922062 
L 340.677641 130.698151 
L 340.98231 81.440659 
L 341.286978 138.680757 
L 341.591646 166.955305 
L 341.896314 159.389682 
L 342.200983 136.71164 
L 342.505651 163.364352 
L 342.810319 171.169706 
L 343.114988 205.280834 
L 343.419656 117.291572 
L 343.724324 142.885404 
L 344.028993 150.403356 
L 344.333661 143.281801 
L 344.638329 125.969728 
L 344.942998 121.155609 
L 345.247666 118.598335 
L 345.552334 76.313633 
L 345.857002 134.162301 
L 346.161671 127.374203 
L 346.466339 89.910176 
L 346.771007 134.508309 
L 347.075676 122.869895 
L 347.380344 167.614594 
L 347.685012 113.152736 
L 347.989681 133.721182 
L 348.294349 201.191318 
L 348.599017 159.69332 
L 348.903686 162.174701 
L 349.208354 123.542698 
L 349.513022 119.489403 
L 349.81769 146.490233 
L 350.122359 147.782338 
L 350.427027 132.87395 
L 350.731695 212.03156 
L 351.341032 92.748243 
L 351.6457 112.312859 
L 351.950369 121.510084 
L 352.255037 105.699053 
L 352.559705 143.381176 
L 352.864373 137.023589 
L 353.169042 109.203003 
L 353.47371 117.234585 
L 353.778378 108.238802 
L 354.083047 158.886861 
L 354.387715 141.458836 
L 354.692383 192.64891 
L 354.997052 149.572401 
L 355.30172 179.950869 
L 355.606388 136.012283 
L 355.911057 109.985966 
L 356.215725 163.002591 
L 356.520393 147.887356 
L 356.825061 140.163777 
L 357.12973 142.416419 
L 357.434398 150.479977 
L 357.739066 103.842951 
L 358.043735 91.898625 
L 358.348403 101.169966 
L 358.653071 135.985927 
L 358.95774 110.168349 
L 359.262408 111.421749 
L 359.567076 159.123429 
L 359.871744 112.469634 
L 360.176413 159.953642 
L 360.481081 113.432477 
L 360.785749 140.121784 
L 361.090418 114.921424 
L 361.395086 143.930647 
L 361.699754 154.126458 
L 362.004423 140.88493 
L 362.309091 140.496143 
L 362.613759 156.894746 
L 362.918428 193.064293 
L 363.223096 86.172078 
L 363.527764 154.52542 
L 363.832432 91.96286 
L 364.137101 144.693805 
L 364.441769 109.618307 
L 364.746437 118.497235 
L 365.051106 137.463019 
L 365.355774 148.039675 
L 365.660442 121.653197 
L 365.965111 151.129178 
L 366.574447 118.861894 
L 366.879115 172.004877 
L 367.183784 141.674107 
L 367.488452 139.408679 
L 367.79312 114.820394 
L 368.097789 138.918536 
L 368.402457 129.797875 
L 368.707125 147.690344 
L 369.011794 126.705817 
L 369.316462 187.551102 
L 369.62113 144.257794 
L 370.230467 161.320285 
L 370.535135 161.183768 
L 370.839803 102.172572 
L 371.144472 148.716941 
L 371.44914 147.838498 
L 371.753808 148.569333 
L 372.058477 129.921424 
L 372.363145 151.173891 
L 372.667813 215.313319 
L 372.972482 111.984005 
L 373.27715 72.113094 
L 373.581818 133.056448 
L 373.581818 133.056448 
" style="fill:none;stroke:#2ca02c;stroke-linecap:square;stroke-width:1.5;"/>
   </g>
   <g id="patch_3">
    <path d="M 54 256.32 
L 54 34.56 
" style="fill:none;stroke:#000000;stroke-linecap:square;stroke-linejoin:miter;stroke-width:0.8;"/>
   </g>
   <g id="patch_4">
    <path d="M 388.8 256.32 
L 388.8 34.56 
" style="fill:none;stroke:#000000;stroke-linecap:square;stroke-linejoin:miter;stroke-width:0.8;"/>
   </g>
   <g id="patch_5">
    <path d="M 54 256.32 
L 388.8 256.32 
" style="fill:none;stroke:#000000;stroke-linecap:square;stroke-linejoin:miter;stroke-width:0.8;"/>
   </g>
   <g id="patch_6">
    <path d="M 54 34.56 
L 388.8 34.56 
" style="fill:none;stroke:#000000;stroke-linecap:square;stroke-linejoin:miter;stroke-width:0.8;"/>
   </g>
   <g id="text_12">
    <!-- -greedy bandits -->
    <defs>
     <path d="M 19.28125 29.5 
Q 13.8125 30.671875 10.890625 33.84375 
Q 7.953125 36.96875 7.953125 41.5 
Q 7.953125 48.390625 13.53125 52.25 
Q 19.046875 56.0625 28.609375 56.0625 
Q 32.328125 56.0625 36.46875 55.46875 
Q 40.625 54.890625 45.40625 53.71875 
L 45.40625 45.5625 
Q 40.671875 46.96875 36.765625 47.609375 
Q 32.8125 48.25 29.34375 48.25 
Q 23.53125 48.25 20.171875 46 
Q 16.75 43.75 16.75 40.625 
Q 16.75 37.203125 20.0625 35.015625 
Q 23.34375 32.859375 29 32.859375 
L 36.578125 32.859375 
L 36.578125 25.4375 
L 29.34375 25.4375 
Q 22.65625 25.4375 19.140625 22.953125 
Q 15.328125 20.21875 15.328125 15.921875 
Q 15.328125 11.53125 19.4375 8.796875 
Q 23.578125 6.0625 30.953125 6.0625 
Q 35.5 6.0625 39.65625 6.9375 
Q 43.796875 7.859375 47.265625 9.671875 
L 47.265625 1.3125 
Q 42.875 -0.046875 38.765625 -0.734375 
Q 34.625 -1.421875 30.71875 -1.421875 
Q 19.09375 -1.421875 12.796875 3.03125 
Q 6.5 7.46875 6.5 15.921875 
Q 6.5 21.1875 9.859375 24.75 
Q 13.234375 28.328125 19.28125 29.5 
z
" id="DejaVuSans-3b5"/>
     <path d="M 4.890625 31.390625 
L 31.203125 31.390625 
L 31.203125 23.390625 
L 4.890625 23.390625 
z
" id="DejaVuSans-2d"/>
     <path d="M 32.171875 -5.078125 
Q 28.375 -14.84375 24.75 -17.8125 
Q 21.140625 -20.796875 15.09375 -20.796875 
L 7.90625 -20.796875 
L 7.90625 -13.28125 
L 13.1875 -13.28125 
Q 16.890625 -13.28125 18.9375 -11.515625 
Q 21 -9.765625 23.484375 -3.21875 
L 25.09375 0.875 
L 2.984375 54.6875 
L 12.5 54.6875 
L 29.59375 11.921875 
L 46.6875 54.6875 
L 56.203125 54.6875 
z
" id="DejaVuSans-79"/>
     <path d="M 48.6875 27.296875 
Q 48.6875 37.203125 44.609375 42.84375 
Q 40.53125 48.484375 33.40625 48.484375 
Q 26.265625 48.484375 22.1875 42.84375 
Q 18.109375 37.203125 18.109375 27.296875 
Q 18.109375 17.390625 22.1875 11.75 
Q 26.265625 6.109375 33.40625 6.109375 
Q 40.53125 6.109375 44.609375 11.75 
Q 48.6875 17.390625 48.6875 27.296875 
z
M 18.109375 46.390625 
Q 20.953125 51.265625 25.265625 53.625 
Q 29.59375 56 35.59375 56 
Q 45.5625 56 51.78125 48.09375 
Q 58.015625 40.1875 58.015625 27.296875 
Q 58.015625 14.40625 51.78125 6.484375 
Q 45.5625 -1.421875 35.59375 -1.421875 
Q 29.59375 -1.421875 25.265625 0.953125 
Q 20.953125 3.328125 18.109375 8.203125 
L 18.109375 0 
L 9.078125 0 
L 9.078125 75.984375 
L 18.109375 75.984375 
z
" id="DejaVuSans-62"/>
     <path d="M 54.890625 33.015625 
L 54.890625 0 
L 45.90625 0 
L 45.90625 32.71875 
Q 45.90625 40.484375 42.875 44.328125 
Q 39.84375 48.1875 33.796875 48.1875 
Q 26.515625 48.1875 22.3125 43.546875 
Q 18.109375 38.921875 18.109375 30.90625 
L 18.109375 0 
L 9.078125 0 
L 9.078125 54.6875 
L 18.109375 54.6875 
L 18.109375 46.1875 
Q 21.34375 51.125 25.703125 53.5625 
Q 30.078125 56 35.796875 56 
Q 45.21875 56 50.046875 50.171875 
Q 54.890625 44.34375 54.890625 33.015625 
z
" id="DejaVuSans-6e"/>
     <path d="M 9.421875 54.6875 
L 18.40625 54.6875 
L 18.40625 0 
L 9.421875 0 
z
M 9.421875 75.984375 
L 18.40625 75.984375 
L 18.40625 64.59375 
L 9.421875 64.59375 
z
" id="DejaVuSans-69"/>
    </defs>
    <g transform="translate(170.825625 28.56)scale(0.12 -0.12)">
     <use xlink:href="#DejaVuSans-3b5"/>
     <use x="54.052734" xlink:href="#DejaVuSans-2d"/>
     <use x="90.136719" xlink:href="#DejaVuSans-67"/>
     <use x="153.613281" xlink:href="#DejaVuSans-72"/>
     <use x="194.695312" xlink:href="#DejaVuSans-65"/>
     <use x="256.21875" xlink:href="#DejaVuSans-65"/>
     <use x="317.742188" xlink:href="#DejaVuSans-64"/>
     <use x="381.21875" xlink:href="#DejaVuSans-79"/>
     <use x="440.398438" xlink:href="#DejaVuSans-20"/>
     <use x="472.185547" xlink:href="#DejaVuSans-62"/>
     <use x="535.662109" xlink:href="#DejaVuSans-61"/>
     <use x="596.941406" xlink:href="#DejaVuSans-6e"/>
     <use x="660.320312" xlink:href="#DejaVuSans-64"/>
     <use x="723.796875" xlink:href="#DejaVuSans-69"/>
     <use x="751.580078" xlink:href="#DejaVuSans-74"/>
     <use x="790.789062" xlink:href="#DejaVuSans-73"/>
    </g>
   </g>
   <g id="legend_1">
    <g id="patch_7">
     <path d="M 187.375 251.32 
L 255.425 251.32 
Q 257.425 251.32 257.425 249.32 
L 257.425 206.285625 
Q 257.425 204.285625 255.425 204.285625 
L 187.375 204.285625 
Q 185.375 204.285625 185.375 206.285625 
L 185.375 249.32 
Q 185.375 251.32 187.375 251.32 
z
" style="fill:#ffffff;opacity:0.8;stroke:#cccccc;stroke-linejoin:miter;"/>
    </g>
    <g id="line2d_13">
     <path d="M 189.375 212.384062 
L 209.375 212.384062 
" style="fill:none;stroke:#1f77b4;stroke-linecap:square;stroke-width:1.5;"/>
    </g>
    <g id="line2d_14"/>
    <g id="text_13">
     <!-- =0, -->
     <defs>
      <path d="M 10.59375 45.40625 
L 73.1875 45.40625 
L 73.1875 37.203125 
L 10.59375 37.203125 
z
M 10.59375 25.484375 
L 73.1875 25.484375 
L 73.1875 17.1875 
L 10.59375 17.1875 
z
" id="DejaVuSans-3d"/>
      <path d="M 11.71875 12.40625 
L 22.015625 12.40625 
L 22.015625 4 
L 14.015625 -11.625 
L 7.71875 -11.625 
L 11.71875 4 
z
" id="DejaVuSans-2c"/>
     </defs>
     <g transform="translate(217.375 215.884062)scale(0.1 -0.1)">
      <use xlink:href="#DejaVuSans-3b5"/>
      <use x="54.052734" xlink:href="#DejaVuSans-3d"/>
      <use x="137.841797" xlink:href="#DejaVuSans-30"/>
      <use x="201.464844" xlink:href="#DejaVuSans-2c"/>
     </g>
    </g>
    <g id="line2d_15">
     <path d="M 189.375 227.062187 
L 209.375 227.062187 
" style="fill:none;stroke:#ff7f0e;stroke-linecap:square;stroke-width:1.5;"/>
    </g>
    <g id="line2d_16"/>
    <g id="text_14">
     <!-- =0.01 -->
     <g transform="translate(217.375 230.562187)scale(0.1 -0.1)">
      <use xlink:href="#DejaVuSans-3b5"/>
      <use x="54.052734" xlink:href="#DejaVuSans-3d"/>
      <use x="137.841797" xlink:href="#DejaVuSans-30"/>
      <use x="201.464844" xlink:href="#DejaVuSans-2e"/>
      <use x="233.251953" xlink:href="#DejaVuSans-30"/>
      <use x="296.875" xlink:href="#DejaVuSans-31"/>
     </g>
    </g>
    <g id="line2d_17">
     <path d="M 189.375 241.740313 
L 209.375 241.740313 
" style="fill:none;stroke:#2ca02c;stroke-linecap:square;stroke-width:1.5;"/>
    </g>
    <g id="line2d_18"/>
    <g id="text_15">
     <!-- =0.1 -->
     <g transform="translate(217.375 245.240313)scale(0.1 -0.1)">
      <use xlink:href="#DejaVuSans-3b5"/>
      <use x="54.052734" xlink:href="#DejaVuSans-3d"/>
      <use x="137.841797" xlink:href="#DejaVuSans-30"/>
      <use x="201.464844" xlink:href="#DejaVuSans-2e"/>
      <use x="233.251953" xlink:href="#DejaVuSans-31"/>
     </g>
    </g>
   </g>
  </g>
 </g>
 <defs>
  <clipPath id="pbced541874">
   <rect height="221.76" width="334.8" x="54" y="34.56"/>
  </clipPath>
 </defs>
</svg>
