<?xml version="1.0" encoding="utf-8" standalone="no"?>
<!DOCTYPE svg PUBLIC "-//W3C//DTD SVG 1.1//EN"
  "http://www.w3.org/Graphics/SVG/1.1/DTD/svg11.dtd">
<!-- Created with matplotlib (http://matplotlib.org/) -->
<svg height="345.6pt" version="1.1" viewBox="0 0 460.8 345.6" width="460.8pt" xmlns="http://www.w3.org/2000/svg" xmlns:xlink="http://www.w3.org/1999/xlink">
 <defs>
  <style type="text/css">
*{stroke-linecap:butt;stroke-linejoin:round;}
  </style>
 </defs>
 <g id="figure_1">
  <g id="patch_1">
   <path d="M 0 345.6 
L 460.8 345.6 
L 460.8 0 
L 0 0 
z
" style="fill:#ffffff;"/>
  </g>
  <g id="axes_1">
   <g id="patch_2">
    <path d="M 57.6 307.584 
L 414.72 307.584 
L 414.72 41.472 
L 57.6 41.472 
z
" style="fill:#ffffff;"/>
   </g>
   <g id="matplotlib.axis_1">
    <g id="xtick_1">
     <g id="line2d_1">
      <defs>
       <path d="M 0 0 
L 0 3.5 
" id="m450dee7f47" style="stroke:#000000;stroke-width:0.8;"/>
      </defs>
      <g>
       <use style="stroke:#000000;stroke-width:0.8;" x="73.832727" xlink:href="#m450dee7f47" y="307.584"/>
      </g>
     </g>
     <g id="text_1">
      <!-- 0 -->
      <defs>
       <path d="M 31.78125 66.40625 
Q 24.171875 66.40625 20.328125 58.90625 
Q 16.5 51.421875 16.5 36.375 
Q 16.5 21.390625 20.328125 13.890625 
Q 24.171875 6.390625 31.78125 6.390625 
Q 39.453125 6.390625 43.28125 13.890625 
Q 47.125 21.390625 47.125 36.375 
Q 47.125 51.421875 43.28125 58.90625 
Q 39.453125 66.40625 31.78125 66.40625 
z
M 31.78125 74.21875 
Q 44.046875 74.21875 50.515625 64.515625 
Q 56.984375 54.828125 56.984375 36.375 
Q 56.984375 17.96875 50.515625 8.265625 
Q 44.046875 -1.421875 31.78125 -1.421875 
Q 19.53125 -1.421875 13.0625 8.265625 
Q 6.59375 17.96875 6.59375 36.375 
Q 6.59375 54.828125 13.0625 64.515625 
Q 19.53125 74.21875 31.78125 74.21875 
z
" id="DejaVuSans-30"/>
      </defs>
      <g transform="translate(70.651477 322.182437)scale(0.1 -0.1)">
       <use xlink:href="#DejaVuSans-30"/>
      </g>
     </g>
    </g>
    <g id="xtick_2">
     <g id="line2d_2">
      <g>
       <use style="stroke:#000000;stroke-width:0.8;" x="155.077609" xlink:href="#m450dee7f47" y="307.584"/>
      </g>
     </g>
     <g id="text_2">
      <!-- 250 -->
      <defs>
       <path d="M 19.1875 8.296875 
L 53.609375 8.296875 
L 53.609375 0 
L 7.328125 0 
L 7.328125 8.296875 
Q 12.9375 14.109375 22.625 23.890625 
Q 32.328125 33.6875 34.8125 36.53125 
Q 39.546875 41.84375 41.421875 45.53125 
Q 43.3125 49.21875 43.3125 52.78125 
Q 43.3125 58.59375 39.234375 62.25 
Q 35.15625 65.921875 28.609375 65.921875 
Q 23.96875 65.921875 18.8125 64.3125 
Q 13.671875 62.703125 7.8125 59.421875 
L 7.8125 69.390625 
Q 13.765625 71.78125 18.9375 73 
Q 24.125 74.21875 28.421875 74.21875 
Q 39.75 74.21875 46.484375 68.546875 
Q 53.21875 62.890625 53.21875 53.421875 
Q 53.21875 48.921875 51.53125 44.890625 
Q 49.859375 40.875 45.40625 35.40625 
Q 44.1875 33.984375 37.640625 27.21875 
Q 31.109375 20.453125 19.1875 8.296875 
z
" id="DejaVuSans-32"/>
       <path d="M 10.796875 72.90625 
L 49.515625 72.90625 
L 49.515625 64.59375 
L 19.828125 64.59375 
L 19.828125 46.734375 
Q 21.96875 47.46875 24.109375 47.828125 
Q 26.265625 48.1875 28.421875 48.1875 
Q 40.625 48.1875 47.75 41.5 
Q 54.890625 34.8125 54.890625 23.390625 
Q 54.890625 11.625 47.5625 5.09375 
Q 40.234375 -1.421875 26.90625 -1.421875 
Q 22.3125 -1.421875 17.546875 -0.640625 
Q 12.796875 0.140625 7.71875 1.703125 
L 7.71875 11.625 
Q 12.109375 9.234375 16.796875 8.0625 
Q 21.484375 6.890625 26.703125 6.890625 
Q 35.15625 6.890625 40.078125 11.328125 
Q 45.015625 15.765625 45.015625 23.390625 
Q 45.015625 31 40.078125 35.4375 
Q 35.15625 39.890625 26.703125 39.890625 
Q 22.75 39.890625 18.8125 39.015625 
Q 14.890625 38.140625 10.796875 36.28125 
z
" id="DejaVuSans-35"/>
      </defs>
      <g transform="translate(145.533859 322.182437)scale(0.1 -0.1)">
       <use xlink:href="#DejaVuSans-32"/>
       <use x="63.623047" xlink:href="#DejaVuSans-35"/>
       <use x="127.246094" xlink:href="#DejaVuSans-30"/>
      </g>
     </g>
    </g>
    <g id="xtick_3">
     <g id="line2d_3">
      <g>
       <use style="stroke:#000000;stroke-width:0.8;" x="236.32249" xlink:href="#m450dee7f47" y="307.584"/>
      </g>
     </g>
     <g id="text_3">
      <!-- 500 -->
      <g transform="translate(226.77874 322.182437)scale(0.1 -0.1)">
       <use xlink:href="#DejaVuSans-35"/>
       <use x="63.623047" xlink:href="#DejaVuSans-30"/>
       <use x="127.246094" xlink:href="#DejaVuSans-30"/>
      </g>
     </g>
    </g>
    <g id="xtick_4">
     <g id="line2d_4">
      <g>
       <use style="stroke:#000000;stroke-width:0.8;" x="317.567371" xlink:href="#m450dee7f47" y="307.584"/>
      </g>
     </g>
     <g id="text_4">
      <!-- 750 -->
      <defs>
       <path d="M 8.203125 72.90625 
L 55.078125 72.90625 
L 55.078125 68.703125 
L 28.609375 0 
L 18.3125 0 
L 43.21875 64.59375 
L 8.203125 64.59375 
z
" id="DejaVuSans-37"/>
      </defs>
      <g transform="translate(308.023621 322.182437)scale(0.1 -0.1)">
       <use xlink:href="#DejaVuSans-37"/>
       <use x="63.623047" xlink:href="#DejaVuSans-35"/>
       <use x="127.246094" xlink:href="#DejaVuSans-30"/>
      </g>
     </g>
    </g>
    <g id="xtick_5">
     <g id="line2d_5">
      <g>
       <use style="stroke:#000000;stroke-width:0.8;" x="398.812252" xlink:href="#m450dee7f47" y="307.584"/>
      </g>
     </g>
     <g id="text_5">
      <!-- 1000 -->
      <defs>
       <path d="M 12.40625 8.296875 
L 28.515625 8.296875 
L 28.515625 63.921875 
L 10.984375 60.40625 
L 10.984375 69.390625 
L 28.421875 72.90625 
L 38.28125 72.90625 
L 38.28125 8.296875 
L 54.390625 8.296875 
L 54.390625 0 
L 12.40625 0 
z
" id="DejaVuSans-31"/>
      </defs>
      <g transform="translate(386.087252 322.182437)scale(0.1 -0.1)">
       <use xlink:href="#DejaVuSans-31"/>
       <use x="63.623047" xlink:href="#DejaVuSans-30"/>
       <use x="127.246094" xlink:href="#DejaVuSans-30"/>
       <use x="190.869141" xlink:href="#DejaVuSans-30"/>
      </g>
     </g>
    </g>
    <g id="text_6">
     <!-- Steps -->
     <defs>
      <path d="M 53.515625 70.515625 
L 53.515625 60.890625 
Q 47.90625 63.578125 42.921875 64.890625 
Q 37.9375 66.21875 33.296875 66.21875 
Q 25.25 66.21875 20.875 63.09375 
Q 16.5 59.96875 16.5 54.203125 
Q 16.5 49.359375 19.40625 46.890625 
Q 22.3125 44.4375 30.421875 42.921875 
L 36.375 41.703125 
Q 47.40625 39.59375 52.65625 34.296875 
Q 57.90625 29 57.90625 20.125 
Q 57.90625 9.515625 50.796875 4.046875 
Q 43.703125 -1.421875 29.984375 -1.421875 
Q 24.8125 -1.421875 18.96875 -0.25 
Q 13.140625 0.921875 6.890625 3.21875 
L 6.890625 13.375 
Q 12.890625 10.015625 18.65625 8.296875 
Q 24.421875 6.59375 29.984375 6.59375 
Q 38.421875 6.59375 43.015625 9.90625 
Q 47.609375 13.234375 47.609375 19.390625 
Q 47.609375 24.75 44.3125 27.78125 
Q 41.015625 30.8125 33.5 32.328125 
L 27.484375 33.5 
Q 16.453125 35.6875 11.515625 40.375 
Q 6.59375 45.0625 6.59375 53.421875 
Q 6.59375 63.09375 13.40625 68.65625 
Q 20.21875 74.21875 32.171875 74.21875 
Q 37.3125 74.21875 42.625 73.28125 
Q 47.953125 72.359375 53.515625 70.515625 
z
" id="DejaVuSans-53"/>
      <path d="M 18.3125 70.21875 
L 18.3125 54.6875 
L 36.8125 54.6875 
L 36.8125 47.703125 
L 18.3125 47.703125 
L 18.3125 18.015625 
Q 18.3125 11.328125 20.140625 9.421875 
Q 21.96875 7.515625 27.59375 7.515625 
L 36.8125 7.515625 
L 36.8125 0 
L 27.59375 0 
Q 17.1875 0 13.234375 3.875 
Q 9.28125 7.765625 9.28125 18.015625 
L 9.28125 47.703125 
L 2.6875 47.703125 
L 2.6875 54.6875 
L 9.28125 54.6875 
L 9.28125 70.21875 
z
" id="DejaVuSans-74"/>
      <path d="M 56.203125 29.59375 
L 56.203125 25.203125 
L 14.890625 25.203125 
Q 15.484375 15.921875 20.484375 11.0625 
Q 25.484375 6.203125 34.421875 6.203125 
Q 39.59375 6.203125 44.453125 7.46875 
Q 49.3125 8.734375 54.109375 11.28125 
L 54.109375 2.78125 
Q 49.265625 0.734375 44.1875 -0.34375 
Q 39.109375 -1.421875 33.890625 -1.421875 
Q 20.796875 -1.421875 13.15625 6.1875 
Q 5.515625 13.8125 5.515625 26.8125 
Q 5.515625 40.234375 12.765625 48.109375 
Q 20.015625 56 32.328125 56 
Q 43.359375 56 49.78125 48.890625 
Q 56.203125 41.796875 56.203125 29.59375 
z
M 47.21875 32.234375 
Q 47.125 39.59375 43.09375 43.984375 
Q 39.0625 48.390625 32.421875 48.390625 
Q 24.90625 48.390625 20.390625 44.140625 
Q 15.875 39.890625 15.1875 32.171875 
z
" id="DejaVuSans-65"/>
      <path d="M 18.109375 8.203125 
L 18.109375 -20.796875 
L 9.078125 -20.796875 
L 9.078125 54.6875 
L 18.109375 54.6875 
L 18.109375 46.390625 
Q 20.953125 51.265625 25.265625 53.625 
Q 29.59375 56 35.59375 56 
Q 45.5625 56 51.78125 48.09375 
Q 58.015625 40.1875 58.015625 27.296875 
Q 58.015625 14.40625 51.78125 6.484375 
Q 45.5625 -1.421875 35.59375 -1.421875 
Q 29.59375 -1.421875 25.265625 0.953125 
Q 20.953125 3.328125 18.109375 8.203125 
z
M 48.6875 27.296875 
Q 48.6875 37.203125 44.609375 42.84375 
Q 40.53125 48.484375 33.40625 48.484375 
Q 26.265625 48.484375 22.1875 42.84375 
Q 18.109375 37.203125 18.109375 27.296875 
Q 18.109375 17.390625 22.1875 11.75 
Q 26.265625 6.109375 33.40625 6.109375 
Q 40.53125 6.109375 44.609375 11.75 
Q 48.6875 17.390625 48.6875 27.296875 
z
" id="DejaVuSans-70"/>
      <path d="M 44.28125 53.078125 
L 44.28125 44.578125 
Q 40.484375 46.53125 36.375 47.5 
Q 32.28125 48.484375 27.875 48.484375 
Q 21.1875 48.484375 17.84375 46.4375 
Q 14.5 44.390625 14.5 40.28125 
Q 14.5 37.15625 16.890625 35.375 
Q 19.28125 33.59375 26.515625 31.984375 
L 29.59375 31.296875 
Q 39.15625 29.25 43.1875 25.515625 
Q 47.21875 21.78125 47.21875 15.09375 
Q 47.21875 7.46875 41.1875 3.015625 
Q 35.15625 -1.421875 24.609375 -1.421875 
Q 20.21875 -1.421875 15.453125 -0.5625 
Q 10.6875 0.296875 5.421875 2 
L 5.421875 11.28125 
Q 10.40625 8.6875 15.234375 7.390625 
Q 20.0625 6.109375 24.8125 6.109375 
Q 31.15625 6.109375 34.5625 8.28125 
Q 37.984375 10.453125 37.984375 14.40625 
Q 37.984375 18.0625 35.515625 20.015625 
Q 33.0625 21.96875 24.703125 23.78125 
L 21.578125 24.515625 
Q 13.234375 26.265625 9.515625 29.90625 
Q 5.8125 33.546875 5.8125 39.890625 
Q 5.8125 47.609375 11.28125 51.796875 
Q 16.75 56 26.8125 56 
Q 31.78125 56 36.171875 55.265625 
Q 40.578125 54.546875 44.28125 53.078125 
z
" id="DejaVuSans-73"/>
     </defs>
     <g transform="translate(222.170156 335.860562)scale(0.1 -0.1)">
      <use xlink:href="#DejaVuSans-53"/>
      <use x="63.476562" xlink:href="#DejaVuSans-74"/>
      <use x="102.685547" xlink:href="#DejaVuSans-65"/>
      <use x="164.208984" xlink:href="#DejaVuSans-70"/>
      <use x="227.685547" xlink:href="#DejaVuSans-73"/>
     </g>
    </g>
   </g>
   <g id="matplotlib.axis_2">
    <g id="ytick_1">
     <g id="line2d_6">
      <defs>
       <path d="M 0 0 
L -3.5 0 
" id="ma3b72afb95" style="stroke:#000000;stroke-width:0.8;"/>
      </defs>
      <g>
       <use style="stroke:#000000;stroke-width:0.8;" x="57.6" xlink:href="#ma3b72afb95" y="295.200246"/>
      </g>
     </g>
     <g id="text_7">
      <!-- 0.0 -->
      <defs>
       <path d="M 10.6875 12.40625 
L 21 12.40625 
L 21 0 
L 10.6875 0 
z
" id="DejaVuSans-2e"/>
      </defs>
      <g transform="translate(34.696875 298.999465)scale(0.1 -0.1)">
       <use xlink:href="#DejaVuSans-30"/>
       <use x="63.623047" xlink:href="#DejaVuSans-2e"/>
       <use x="95.410156" xlink:href="#DejaVuSans-30"/>
      </g>
     </g>
    </g>
    <g id="ytick_2">
     <g id="line2d_7">
      <g>
       <use style="stroke:#000000;stroke-width:0.8;" x="57.6" xlink:href="#ma3b72afb95" y="211.81186"/>
      </g>
     </g>
     <g id="text_8">
      <!-- 0.5 -->
      <g transform="translate(34.696875 215.611079)scale(0.1 -0.1)">
       <use xlink:href="#DejaVuSans-30"/>
       <use x="63.623047" xlink:href="#DejaVuSans-2e"/>
       <use x="95.410156" xlink:href="#DejaVuSans-35"/>
      </g>
     </g>
    </g>
    <g id="ytick_3">
     <g id="line2d_8">
      <g>
       <use style="stroke:#000000;stroke-width:0.8;" x="57.6" xlink:href="#ma3b72afb95" y="128.423474"/>
      </g>
     </g>
     <g id="text_9">
      <!-- 1.0 -->
      <g transform="translate(34.696875 132.222693)scale(0.1 -0.1)">
       <use xlink:href="#DejaVuSans-31"/>
       <use x="63.623047" xlink:href="#DejaVuSans-2e"/>
       <use x="95.410156" xlink:href="#DejaVuSans-30"/>
      </g>
     </g>
    </g>
    <g id="ytick_4">
     <g id="line2d_9">
      <g>
       <use style="stroke:#000000;stroke-width:0.8;" x="57.6" xlink:href="#ma3b72afb95" y="45.035088"/>
      </g>
     </g>
     <g id="text_10">
      <!-- 1.5 -->
      <g transform="translate(34.696875 48.834306)scale(0.1 -0.1)">
       <use xlink:href="#DejaVuSans-31"/>
       <use x="63.623047" xlink:href="#DejaVuSans-2e"/>
       <use x="95.410156" xlink:href="#DejaVuSans-35"/>
      </g>
     </g>
    </g>
    <g id="text_11">
     <!-- Average reward -->
     <defs>
      <path d="M 34.1875 63.1875 
L 20.796875 26.90625 
L 47.609375 26.90625 
z
M 28.609375 72.90625 
L 39.796875 72.90625 
L 67.578125 0 
L 57.328125 0 
L 50.6875 18.703125 
L 17.828125 18.703125 
L 11.1875 0 
L 0.78125 0 
z
" id="DejaVuSans-41"/>
      <path d="M 2.984375 54.6875 
L 12.5 54.6875 
L 29.59375 8.796875 
L 46.6875 54.6875 
L 56.203125 54.6875 
L 35.6875 0 
L 23.484375 0 
z
" id="DejaVuSans-76"/>
      <path d="M 41.109375 46.296875 
Q 39.59375 47.171875 37.8125 47.578125 
Q 36.03125 48 33.890625 48 
Q 26.265625 48 22.1875 43.046875 
Q 18.109375 38.09375 18.109375 28.8125 
L 18.109375 0 
L 9.078125 0 
L 9.078125 54.6875 
L 18.109375 54.6875 
L 18.109375 46.1875 
Q 20.953125 51.171875 25.484375 53.578125 
Q 30.03125 56 36.53125 56 
Q 37.453125 56 38.578125 55.875 
Q 39.703125 55.765625 41.0625 55.515625 
z
" id="DejaVuSans-72"/>
      <path d="M 34.28125 27.484375 
Q 23.390625 27.484375 19.1875 25 
Q 14.984375 22.515625 14.984375 16.5 
Q 14.984375 11.71875 18.140625 8.90625 
Q 21.296875 6.109375 26.703125 6.109375 
Q 34.1875 6.109375 38.703125 11.40625 
Q 43.21875 16.703125 43.21875 25.484375 
L 43.21875 27.484375 
z
M 52.203125 31.203125 
L 52.203125 0 
L 43.21875 0 
L 43.21875 8.296875 
Q 40.140625 3.328125 35.546875 0.953125 
Q 30.953125 -1.421875 24.3125 -1.421875 
Q 15.921875 -1.421875 10.953125 3.296875 
Q 6 8.015625 6 15.921875 
Q 6 25.140625 12.171875 29.828125 
Q 18.359375 34.515625 30.609375 34.515625 
L 43.21875 34.515625 
L 43.21875 35.40625 
Q 43.21875 41.609375 39.140625 45 
Q 35.0625 48.390625 27.6875 48.390625 
Q 23 48.390625 18.546875 47.265625 
Q 14.109375 46.140625 10.015625 43.890625 
L 10.015625 52.203125 
Q 14.9375 54.109375 19.578125 55.046875 
Q 24.21875 56 28.609375 56 
Q 40.484375 56 46.34375 49.84375 
Q 52.203125 43.703125 52.203125 31.203125 
z
" id="DejaVuSans-61"/>
      <path d="M 45.40625 27.984375 
Q 45.40625 37.75 41.375 43.109375 
Q 37.359375 48.484375 30.078125 48.484375 
Q 22.859375 48.484375 18.828125 43.109375 
Q 14.796875 37.75 14.796875 27.984375 
Q 14.796875 18.265625 18.828125 12.890625 
Q 22.859375 7.515625 30.078125 7.515625 
Q 37.359375 7.515625 41.375 12.890625 
Q 45.40625 18.265625 45.40625 27.984375 
z
M 54.390625 6.78125 
Q 54.390625 -7.171875 48.1875 -13.984375 
Q 42 -20.796875 29.203125 -20.796875 
Q 24.46875 -20.796875 20.265625 -20.09375 
Q 16.0625 -19.390625 12.109375 -17.921875 
L 12.109375 -9.1875 
Q 16.0625 -11.328125 19.921875 -12.34375 
Q 23.78125 -13.375 27.78125 -13.375 
Q 36.625 -13.375 41.015625 -8.765625 
Q 45.40625 -4.15625 45.40625 5.171875 
L 45.40625 9.625 
Q 42.625 4.78125 38.28125 2.390625 
Q 33.9375 0 27.875 0 
Q 17.828125 0 11.671875 7.65625 
Q 5.515625 15.328125 5.515625 27.984375 
Q 5.515625 40.671875 11.671875 48.328125 
Q 17.828125 56 27.875 56 
Q 33.9375 56 38.28125 53.609375 
Q 42.625 51.21875 45.40625 46.390625 
L 45.40625 54.6875 
L 54.390625 54.6875 
z
" id="DejaVuSans-67"/>
      <path id="DejaVuSans-20"/>
      <path d="M 4.203125 54.6875 
L 13.1875 54.6875 
L 24.421875 12.015625 
L 35.59375 54.6875 
L 46.1875 54.6875 
L 57.421875 12.015625 
L 68.609375 54.6875 
L 77.59375 54.6875 
L 63.28125 0 
L 52.6875 0 
L 40.921875 44.828125 
L 29.109375 0 
L 18.5 0 
z
" id="DejaVuSans-77"/>
      <path d="M 45.40625 46.390625 
L 45.40625 75.984375 
L 54.390625 75.984375 
L 54.390625 0 
L 45.40625 0 
L 45.40625 8.203125 
Q 42.578125 3.328125 38.25 0.953125 
Q 33.9375 -1.421875 27.875 -1.421875 
Q 17.96875 -1.421875 11.734375 6.484375 
Q 5.515625 14.40625 5.515625 27.296875 
Q 5.515625 40.1875 11.734375 48.09375 
Q 17.96875 56 27.875 56 
Q 33.9375 56 38.25 53.625 
Q 42.578125 51.265625 45.40625 46.390625 
z
M 14.796875 27.296875 
Q 14.796875 17.390625 18.875 11.75 
Q 22.953125 6.109375 30.078125 6.109375 
Q 37.203125 6.109375 41.296875 11.75 
Q 45.40625 17.390625 45.40625 27.296875 
Q 45.40625 37.203125 41.296875 42.84375 
Q 37.203125 48.484375 30.078125 48.484375 
Q 22.953125 48.484375 18.875 42.84375 
Q 14.796875 37.203125 14.796875 27.296875 
z
" id="DejaVuSans-64"/>
     </defs>
     <g transform="translate(28.617187 214.452219)rotate(-90)scale(0.1 -0.1)">
      <use xlink:href="#DejaVuSans-41"/>
      <use x="68.330078" xlink:href="#DejaVuSans-76"/>
      <use x="127.509766" xlink:href="#DejaVuSans-65"/>
      <use x="189.033203" xlink:href="#DejaVuSans-72"/>
      <use x="230.146484" xlink:href="#DejaVuSans-61"/>
      <use x="291.425781" xlink:href="#DejaVuSans-67"/>
      <use x="354.902344" xlink:href="#DejaVuSans-65"/>
      <use x="416.425781" xlink:href="#DejaVuSans-20"/>
      <use x="448.212891" xlink:href="#DejaVuSans-72"/>
      <use x="489.294922" xlink:href="#DejaVuSans-65"/>
      <use x="550.818359" xlink:href="#DejaVuSans-77"/>
      <use x="632.605469" xlink:href="#DejaVuSans-61"/>
      <use x="693.884766" xlink:href="#DejaVuSans-72"/>
      <use x="734.982422" xlink:href="#DejaVuSans-64"/>
     </g>
    </g>
   </g>
   <g id="line2d_10">
    <path clip-path="url(#p9ab4704785)" d="M 73.832727 289.961134 
L 74.157707 250.867898 
L 74.482686 231.100115 
L 74.807666 199.824366 
L 75.132645 194.896467 
L 75.782604 173.573024 
L 76.107584 169.208026 
L 76.432563 158.521845 
L 76.757543 157.18072 
L 77.082523 153.49615 
L 77.407502 147.765781 
L 77.732482 145.074037 
L 78.057461 138.879349 
L 78.382441 145.295426 
L 79.0324 137.801035 
L 79.357379 136.763855 
L 79.682359 130.55029 
L 80.007338 143.326686 
L 80.332318 139.588586 
L 80.657297 131.381867 
L 80.982277 135.378613 
L 81.307256 137.846374 
L 81.632236 127.819141 
L 81.957215 130.622479 
L 82.282195 136.584814 
L 82.607174 136.15318 
L 83.257133 126.373549 
L 83.582113 132.794715 
L 83.907093 134.686722 
L 84.557052 128.464459 
L 84.882031 127.986343 
L 85.207011 131.709641 
L 85.53199 125.453699 
L 85.85697 126.623477 
L 86.181949 130.583571 
L 86.831908 133.669056 
L 87.481867 125.483779 
L 87.806847 131.389253 
L 88.131826 129.558271 
L 88.456806 128.86977 
L 88.781785 132.704473 
L 89.106765 123.848658 
L 89.431744 126.734594 
L 89.756724 127.620109 
L 90.081704 126.318099 
L 90.406683 120.017166 
L 90.731663 129.284654 
L 91.056642 125.467874 
L 91.381622 125.227369 
L 91.706601 123.519423 
L 92.031581 130.314825 
L 92.35656 125.262659 
L 92.68154 126.562779 
L 93.006519 130.518003 
L 93.331499 130.348753 
L 93.656478 123.659626 
L 93.981458 128.928649 
L 94.306437 128.274781 
L 94.631417 127.190612 
L 94.956396 124.73131 
L 95.281376 130.683714 
L 95.606355 124.499394 
L 95.931335 134.24139 
L 96.256314 121.9618 
L 96.581294 126.697356 
L 96.906274 133.594272 
L 97.231253 126.699801 
L 97.556233 123.559146 
L 97.881212 127.370816 
L 98.206192 127.822302 
L 98.531171 122.903937 
L 98.856151 122.29678 
L 99.18113 125.981449 
L 99.50611 124.300362 
L 99.831089 126.633437 
L 100.156069 120.434575 
L 100.481048 126.620654 
L 100.806028 129.03729 
L 101.131007 126.561407 
L 101.455987 126.778213 
L 101.780966 126.200263 
L 102.105946 127.350677 
L 102.430925 126.48554 
L 102.755905 133.057496 
L 103.080885 122.820276 
L 103.405864 126.867878 
L 104.055823 121.545584 
L 104.380803 122.654287 
L 104.705782 124.936366 
L 105.030762 119.492597 
L 105.355741 126.677534 
L 105.680721 129.313571 
L 106.0057 128.495573 
L 106.33068 123.523777 
L 106.655659 122.251848 
L 106.980639 129.547078 
L 107.305618 126.817519 
L 107.630598 133.266986 
L 107.955577 125.463281 
L 108.280557 122.557027 
L 108.605536 125.56746 
L 108.930516 118.924945 
L 109.255495 129.764212 
L 109.580475 129.15633 
L 109.905455 129.224742 
L 110.555414 122.531718 
L 110.880393 122.106496 
L 111.205373 127.85449 
L 111.530352 120.113034 
L 111.855332 129.185655 
L 112.180311 129.900439 
L 112.83027 123.752989 
L 113.15525 127.43229 
L 113.480229 126.639978 
L 113.805209 128.977278 
L 114.130188 130.106678 
L 114.455168 127.709097 
L 114.780147 127.182162 
L 115.105127 121.932594 
L 115.430106 121.423592 
L 115.755086 124.857318 
L 116.080066 123.914724 
L 116.405045 131.857618 
L 116.730025 123.679249 
L 117.055004 126.939193 
L 117.379984 125.198303 
L 117.704963 125.147924 
L 118.029943 126.862769 
L 118.354922 123.361764 
L 118.679902 122.458634 
L 119.004881 122.732679 
L 119.329861 120.755042 
L 119.65484 129.655103 
L 119.97982 122.96191 
L 120.304799 125.690346 
L 120.629779 117.307041 
L 120.954758 130.739431 
L 121.279738 127.367437 
L 121.604717 120.902204 
L 121.929697 118.26397 
L 122.254676 113.560363 
L 122.904636 127.070628 
L 123.229615 126.971122 
L 123.554595 120.012553 
L 123.879574 122.850953 
L 124.204554 128.25494 
L 124.529533 123.973095 
L 124.854513 128.408682 
L 125.179492 125.7517 
L 125.504472 125.662731 
L 125.829451 126.487687 
L 126.154431 126.556099 
L 126.47941 125.922421 
L 126.80439 125.847508 
L 127.129369 128.026861 
L 127.454349 124.749879 
L 127.779328 126.688727 
L 128.104308 125.521693 
L 128.429287 130.667202 
L 128.754267 124.979171 
L 129.079247 121.857502 
L 129.404226 125.958088 
L 129.729206 123.528509 
L 130.054185 124.743796 
L 130.379165 117.361734 
L 130.704144 126.126085 
L 131.029124 128.902266 
L 131.354103 126.520114 
L 131.679083 128.027676 
L 132.004062 118.316536 
L 132.329042 129.687848 
L 132.654021 122.372469 
L 132.979001 122.048323 
L 133.30398 124.563372 
L 133.62896 129.974556 
L 133.953939 123.82655 
L 134.278919 121.96673 
L 134.603898 127.993261 
L 134.928878 122.390282 
L 135.253857 121.967724 
L 135.578837 124.117494 
L 135.903817 124.150019 
L 136.228796 120.719176 
L 136.553776 125.400436 
L 136.878755 126.704891 
L 137.203735 128.654266 
L 137.528714 131.43992 
L 137.853694 124.345334 
L 138.178673 120.969363 
L 138.503653 125.419562 
L 138.828632 122.889065 
L 139.153612 126.695885 
L 139.478591 126.94297 
L 139.803571 127.942127 
L 140.12855 121.731912 
L 140.45353 133.817262 
L 140.778509 124.601743 
L 141.428468 121.17921 
L 141.753448 129.210119 
L 142.078428 123.257327 
L 142.403407 129.563162 
L 142.728387 132.023557 
L 143.053366 124.206045 
L 143.378346 127.244331 
L 143.703325 125.562807 
L 144.028305 128.094438 
L 144.353284 128.57826 
L 145.003243 119.899448 
L 145.328223 131.288276 
L 145.653202 127.786774 
L 145.978182 125.814565 
L 146.303161 127.378292 
L 146.628141 118.447156 
L 146.95312 128.561977 
L 147.2781 124.035483 
L 147.603079 126.221218 
L 147.928059 125.949698 
L 148.253038 126.762467 
L 148.578018 121.494687 
L 148.902998 127.163355 
L 149.227977 122.165921 
L 149.877936 129.944436 
L 150.202916 118.362223 
L 150.527895 132.024621 
L 150.852875 120.019035 
L 151.177854 123.839115 
L 151.502834 130.290312 
L 151.827813 119.006021 
L 152.152793 123.011256 
L 152.477772 119.468163 
L 152.802752 122.520227 
L 153.127731 124.02085 
L 153.452711 123.3558 
L 153.77769 113.464534 
L 154.10267 125.263832 
L 154.427649 121.310169 
L 154.752629 130.53529 
L 155.077609 129.230805 
L 155.402588 130.384102 
L 155.727568 123.748317 
L 156.052547 122.142422 
L 156.377527 129.002906 
L 156.702506 121.379634 
L 157.027486 131.301676 
L 157.352465 119.828194 
L 157.677445 127.374654 
L 158.002424 128.376315 
L 158.327404 127.554242 
L 158.652383 126.059543 
L 158.977363 121.563437 
L 159.302342 125.412345 
L 159.952301 119.207777 
L 160.277281 120.490501 
L 160.60226 126.662126 
L 160.92724 118.213968 
L 161.252219 124.731906 
L 161.577199 118.822556 
L 161.902179 129.621364 
L 162.227158 123.618432 
L 162.552138 125.758022 
L 162.877117 124.760734 
L 163.202097 126.375378 
L 163.527076 126.39681 
L 163.852056 124.864515 
L 164.177035 125.786134 
L 164.502015 123.17981 
L 164.826994 123.431806 
L 165.151974 127.175443 
L 165.476953 126.085607 
L 165.801933 124.049857 
L 166.126912 125.720804 
L 166.451892 125.44682 
L 166.776871 123.316872 
L 167.101851 125.214944 
L 167.42683 122.914633 
L 168.07679 120.245245 
L 168.401769 127.851845 
L 168.726749 120.653249 
L 169.051728 133.082914 
L 169.376708 123.428645 
L 169.701687 121.947982 
L 170.026667 119.622283 
L 170.351646 126.846406 
L 170.676626 121.845454 
L 171.001605 124.534922 
L 171.326585 125.476025 
L 171.651564 133.729436 
L 171.976544 129.424529 
L 172.301523 127.424993 
L 172.626503 123.55517 
L 172.951482 125.022651 
L 173.276462 121.642267 
L 173.601441 130.974369 
L 174.57638 117.827196 
L 174.90136 123.500576 
L 175.226339 123.646147 
L 175.551319 123.162195 
L 175.876298 125.115954 
L 176.201278 122.741566 
L 176.851237 130.509404 
L 177.176216 128.28168 
L 177.501196 122.411237 
L 177.826175 126.029243 
L 178.151155 120.09685 
L 178.476134 124.276962 
L 178.801114 122.738603 
L 179.126093 120.6313 
L 179.451073 129.650898 
L 180.101032 121.362238 
L 180.426011 124.030254 
L 180.750991 124.52693 
L 181.075971 130.416668 
L 181.40095 120.802101 
L 182.050909 125.722315 
L 182.375889 126.826843 
L 182.700868 125.852518 
L 183.025848 122.33364 
L 183.350827 126.31474 
L 183.675807 124.75314 
L 184.000786 126.263306 
L 184.325766 126.226407 
L 184.650745 118.482943 
L 184.975725 127.659513 
L 185.300704 128.444319 
L 185.625684 126.477806 
L 185.950663 130.670035 
L 186.275643 127.395072 
L 186.600622 126.333527 
L 186.925602 127.238069 
L 187.575561 120.56098 
L 187.900541 126.436115 
L 188.22552 126.71686 
L 188.5505 130.405136 
L 188.875479 120.300634 
L 189.200459 118.813907 
L 189.525438 125.262341 
L 189.850418 127.00325 
L 190.175397 119.559219 
L 190.500377 134.793237 
L 191.150336 126.409613 
L 191.800295 117.614824 
L 192.125274 121.226071 
L 192.450254 119.134892 
L 192.775233 124.61741 
L 193.100213 127.962604 
L 193.425192 124.701428 
L 193.750172 123.702789 
L 194.075152 117.610808 
L 194.400131 119.112088 
L 194.725111 122.107589 
L 195.05009 126.329432 
L 195.37507 121.319592 
L 195.700049 121.414108 
L 196.025029 130.453915 
L 196.350008 127.737846 
L 196.674988 122.261252 
L 196.999967 128.470622 
L 197.324947 128.477809 
L 197.649926 133.193564 
L 197.974906 124.228332 
L 198.299885 128.035171 
L 198.624865 122.622476 
L 198.949844 127.894352 
L 199.599803 124.821949 
L 199.924783 124.959647 
L 200.249762 119.372434 
L 200.574742 124.35609 
L 200.899722 124.085067 
L 201.224701 125.594677 
L 201.549681 119.447387 
L 201.87466 127.735878 
L 202.19964 120.01144 
L 202.524619 125.80359 
L 202.849599 120.865185 
L 203.174578 121.556757 
L 203.499558 120.208842 
L 203.824537 128.562136 
L 204.149517 127.96495 
L 204.474496 119.933664 
L 204.799476 121.832869 
L 205.124455 126.347882 
L 205.449435 123.678732 
L 205.774414 126.601349 
L 206.099394 127.050826 
L 206.424373 127.243834 
L 206.749353 124.435873 
L 207.074333 123.487116 
L 207.399312 125.519526 
L 207.724292 124.400107 
L 208.049271 134.334495 
L 208.374251 123.788895 
L 208.69923 122.383602 
L 209.349189 135.913441 
L 209.674169 128.992408 
L 209.999148 129.080532 
L 210.324128 124.104074 
L 210.649107 125.265681 
L 210.974087 125.919001 
L 211.299066 122.309703 
L 211.624046 124.075604 
L 211.949025 115.995469 
L 212.274005 132.060079 
L 212.598984 122.760194 
L 212.923964 122.546132 
L 213.248943 127.759715 
L 213.573923 127.458811 
L 213.898903 125.72158 
L 214.223882 125.038517 
L 214.548862 126.017911 
L 214.873841 120.509488 
L 215.198821 132.404991 
L 215.5238 124.638802 
L 215.84878 128.42571 
L 216.173759 123.368941 
L 216.823718 129.224473 
L 217.148698 123.221183 
L 217.473677 123.562307 
L 217.798657 128.067677 
L 218.123636 122.259821 
L 218.448616 123.947349 
L 218.773595 132.677693 
L 219.098575 123.731656 
L 219.423554 125.210132 
L 219.748534 125.188581 
L 220.398493 117.6189 
L 220.723473 119.64956 
L 221.373432 129.585608 
L 221.698411 120.931747 
L 222.023391 121.916132 
L 222.34837 126.334084 
L 222.67335 127.158802 
L 222.998329 125.603664 
L 223.323309 131.054461 
L 223.648288 114.369434 
L 223.973268 125.86053 
L 224.298247 125.199038 
L 224.623227 125.008257 
L 224.948206 127.761922 
L 225.273186 123.90526 
L 225.598165 128.183705 
L 226.248124 122.866063 
L 226.573104 123.873967 
L 226.898084 127.350239 
L 227.223063 129.554464 
L 227.548043 130.693983 
L 227.873022 124.97265 
L 228.198002 127.538058 
L 228.522981 126.476733 
L 228.847961 133.783742 
L 229.17294 124.305869 
L 229.49792 125.686171 
L 229.822899 130.585321 
L 230.147879 125.027244 
L 230.472858 128.478814 
L 230.797838 125.808859 
L 231.122817 128.475682 
L 231.447797 116.615071 
L 232.097756 127.363818 
L 232.747715 121.395619 
L 233.397674 125.276099 
L 233.722654 118.554535 
L 234.047633 126.780162 
L 234.372613 125.78514 
L 234.697592 123.592765 
L 235.347551 128.598678 
L 235.672531 123.967429 
L 235.99751 126.5426 
L 236.32249 117.446787 
L 237.297428 127.48086 
L 237.622408 125.176453 
L 237.947387 125.844665 
L 238.272367 129.215696 
L 238.597346 125.290373 
L 238.922326 119.38307 
L 239.247305 127.279323 
L 239.572285 119.703498 
L 239.897265 126.012165 
L 240.222244 120.784009 
L 240.547224 122.435572 
L 240.872203 131.618684 
L 241.197183 125.212816 
L 241.522162 121.777758 
L 241.847142 127.338549 
L 242.172121 120.750191 
L 242.497101 123.356297 
L 242.82208 123.758039 
L 243.14706 121.688312 
L 243.472039 122.572395 
L 243.797019 127.880355 
L 244.446978 119.011568 
L 244.771957 125.521355 
L 245.096937 123.898043 
L 245.421916 123.273749 
L 245.746896 116.710521 
L 246.071876 126.808612 
L 246.396855 128.366534 
L 246.721835 129.300161 
L 247.046814 121.180065 
L 247.371794 123.750027 
L 248.021753 114.934919 
L 248.346732 120.873117 
L 248.671712 124.415912 
L 248.996691 124.844475 
L 249.321671 129.936315 
L 249.64665 130.090276 
L 249.97163 129.799948 
L 250.296609 124.304338 
L 250.621589 121.753383 
L 250.946568 126.234459 
L 251.271548 128.500355 
L 251.596527 121.063541 
L 251.921507 123.326435 
L 252.246486 131.798699 
L 253.221425 120.606906 
L 253.546405 128.94692 
L 253.871384 124.754949 
L 254.196364 125.408906 
L 254.521343 127.870017 
L 254.846323 125.312104 
L 255.171302 129.757273 
L 255.821261 121.184578 
L 256.146241 122.558618 
L 256.47122 122.212463 
L 256.7962 125.8589 
L 257.121179 124.602101 
L 257.446159 128.527354 
L 257.771138 127.22785 
L 258.096118 118.426599 
L 258.421097 119.951677 
L 259.071057 127.935824 
L 259.396036 120.822738 
L 259.721016 120.119933 
L 260.045995 122.662637 
L 260.370975 126.801534 
L 260.695954 129.137144 
L 261.020934 124.03598 
L 261.345913 127.744128 
L 261.670893 126.057316 
L 261.995872 126.586319 
L 262.320852 121.625447 
L 262.645831 122.35046 
L 262.970811 126.044711 
L 263.29579 121.882135 
L 263.62077 124.684887 
L 263.945749 123.103724 
L 264.270729 127.123393 
L 264.595708 128.698542 
L 264.920688 126.43188 
L 265.245667 122.663929 
L 265.570647 129.626683 
L 265.895627 129.393773 
L 266.220606 127.805045 
L 266.545586 120.267333 
L 266.870565 123.498289 
L 267.195545 119.135369 
L 267.520524 124.643633 
L 267.845504 128.243408 
L 268.170483 128.87825 
L 268.495463 121.91808 
L 268.820442 131.041757 
L 269.145422 124.255768 
L 269.470401 121.821099 
L 269.795381 129.169263 
L 270.12036 118.051458 
L 270.44534 119.641607 
L 270.770319 128.532453 
L 271.095299 124.194852 
L 271.420278 126.387664 
L 271.745258 125.66128 
L 272.070238 124.64594 
L 272.395217 121.09885 
L 272.720197 123.905499 
L 273.045176 121.583259 
L 273.370156 124.640114 
L 273.695135 124.023415 
L 274.020115 120.664105 
L 274.345094 131.638217 
L 274.670074 126.23092 
L 274.995053 124.557806 
L 275.320033 121.135094 
L 275.645012 126.096363 
L 275.969992 124.884019 
L 276.294971 119.673895 
L 276.619951 125.164664 
L 276.94493 127.064266 
L 277.26991 126.789466 
L 277.919869 123.522763 
L 278.244848 127.847233 
L 278.569828 122.38738 
L 278.894808 121.381165 
L 279.219787 117.283064 
L 279.544767 131.529277 
L 279.869746 124.529594 
L 280.194726 127.456247 
L 280.519705 120.295922 
L 280.844685 121.652804 
L 281.169664 127.00661 
L 281.494644 118.443061 
L 281.819623 122.385212 
L 282.144603 121.616779 
L 282.794562 125.486543 
L 283.119541 117.551641 
L 283.444521 129.969924 
L 283.7695 120.138343 
L 284.09448 127.272046 
L 284.419459 126.187678 
L 284.744439 123.258659 
L 285.069419 122.253002 
L 285.394398 118.350533 
L 285.719378 125.992423 
L 286.044357 121.393392 
L 286.369337 125.966379 
L 286.694316 124.880341 
L 287.019296 128.149787 
L 287.344275 121.862055 
L 287.669255 122.327557 
L 287.994234 127.404734 
L 288.319214 127.961948 
L 288.644193 119.863563 
L 288.969173 125.493521 
L 289.294152 135.031326 
L 289.619132 122.502691 
L 289.944111 128.282793 
L 290.269091 117.529672 
L 290.59407 124.23366 
L 290.91905 120.324591 
L 291.244029 127.742876 
L 291.569009 125.804684 
L 291.893989 118.354907 
L 292.218968 127.53436 
L 292.543948 123.926116 
L 292.868927 118.656507 
L 293.193907 125.429026 
L 293.518886 123.239593 
L 293.843866 122.222961 
L 294.493825 124.732543 
L 294.818804 132.221148 
L 295.143784 116.568568 
L 295.468763 119.324003 
L 295.793743 120.879499 
L 296.118722 123.259773 
L 296.443702 121.808216 
L 296.768681 125.315881 
L 297.093661 125.296 
L 297.41864 126.611389 
L 297.74362 124.261753 
L 298.0686 124.122166 
L 298.393579 126.541029 
L 298.718559 125.658934 
L 299.043538 121.142947 
L 299.368518 130.676238 
L 300.343456 121.696642 
L 300.668436 123.327827 
L 300.993415 121.248775 
L 301.318395 124.405713 
L 301.643374 119.68976 
L 301.968354 118.529127 
L 302.293333 127.100033 
L 302.618313 127.316163 
L 302.943292 128.332815 
L 303.268272 126.647434 
L 303.593251 123.265956 
L 303.918231 121.327048 
L 304.24321 129.334656 
L 304.56819 123.165376 
L 304.89317 129.470405 
L 305.218149 127.797192 
L 305.543129 124.399411 
L 305.868108 126.214498 
L 306.193088 128.798963 
L 306.843047 123.641872 
L 307.168026 123.241939 
L 307.493006 126.124813 
L 307.817985 121.664931 
L 308.142965 123.725036 
L 308.467944 122.623192 
L 309.117903 129.33394 
L 309.767862 118.49519 
L 310.092842 121.727021 
L 310.417821 120.191366 
L 310.742801 123.730245 
L 311.067781 129.831182 
L 311.39276 129.982221 
L 311.71774 128.691534 
L 312.042719 125.043467 
L 312.367699 115.185125 
L 312.692678 119.738827 
L 313.017658 127.133294 
L 313.342637 122.865884 
L 313.667617 125.755517 
L 313.992596 121.158295 
L 314.317576 118.611833 
L 314.967535 123.233211 
L 315.617494 116.468168 
L 315.942473 127.564302 
L 316.267453 122.594404 
L 316.592432 128.506727 
L 316.917412 122.237931 
L 317.242391 123.879673 
L 317.567371 130.449402 
L 317.892351 126.325555 
L 318.21733 118.277449 
L 318.54231 121.429695 
L 318.867289 131.204814 
L 319.192269 119.722226 
L 319.517248 124.455735 
L 319.842228 124.360006 
L 320.167207 129.126637 
L 320.817166 117.816381 
L 321.142146 129.815197 
L 321.467125 121.925755 
L 321.792105 128.841857 
L 322.117084 128.864134 
L 322.442064 132.444276 
L 322.767043 126.521923 
L 323.092023 127.246558 
L 323.417002 129.065731 
L 323.741982 118.983416 
L 324.066962 120.009969 
L 324.391941 125.762496 
L 324.716921 123.430613 
L 325.36688 130.775973 
L 325.691859 125.522667 
L 326.016839 127.671701 
L 326.341818 123.574216 
L 326.666798 123.880587 
L 326.991777 122.799062 
L 327.316757 118.595531 
L 327.641736 126.380905 
L 327.966716 120.301111 
L 328.291695 129.955192 
L 328.616675 122.161826 
L 328.941654 128.866022 
L 329.266634 124.477902 
L 329.591613 126.630058 
L 329.916593 124.951158 
L 330.241572 130.881285 
L 330.566552 129.463944 
L 330.891532 123.608849 
L 331.216511 125.838065 
L 331.541491 124.918095 
L 331.86647 121.231041 
L 332.19145 121.827243 
L 332.841409 125.416163 
L 333.491368 119.716202 
L 333.816347 120.442289 
L 334.141327 124.076876 
L 334.466306 130.527128 
L 335.116265 120.312782 
L 335.441245 127.031919 
L 335.766224 121.422995 
L 336.091204 122.690351 
L 336.741163 129.378037 
L 337.391122 118.279358 
L 337.716102 125.119115 
L 338.041081 125.580939 
L 338.366061 118.433438 
L 338.69104 120.338786 
L 339.01602 124.948534 
L 339.340999 125.603683 
L 339.665979 122.749777 
L 339.990958 130.87028 
L 340.315938 122.416327 
L 340.640917 128.202334 
L 340.965897 129.964785 
L 341.615856 125.431869 
L 341.940835 124.384043 
L 342.265815 127.843953 
L 342.590794 125.427734 
L 342.915774 124.365633 
L 343.240753 117.288074 
L 343.565733 125.833313 
L 343.890713 115.093592 
L 344.215692 123.825814 
L 344.540672 120.846933 
L 344.865651 120.59788 
L 345.190631 120.003269 
L 345.51561 130.754382 
L 345.84059 120.433223 
L 346.165569 126.432059 
L 346.815528 118.693705 
L 347.140508 130.960671 
L 347.465487 122.857971 
L 348.115446 128.005131 
L 348.440426 124.32414 
L 348.765405 125.803769 
L 349.090385 124.314856 
L 349.415364 123.751001 
L 349.740344 126.316966 
L 350.065324 126.388957 
L 350.390303 133.919621 
L 350.715283 131.8622 
L 351.040262 126.006281 
L 351.365242 125.952303 
L 351.690221 126.376889 
L 352.015201 120.639014 
L 352.34018 130.156858 
L 352.66516 123.889156 
L 352.990139 124.421777 
L 353.315119 124.353843 
L 353.640098 113.878484 
L 353.965078 120.693052 
L 354.290057 120.348349 
L 354.615037 124.37953 
L 354.940016 126.717575 
L 355.264996 120.37499 
L 355.589975 116.78285 
L 355.914955 122.675898 
L 356.239934 121.33335 
L 356.564914 118.599149 
L 356.889894 124.788111 
L 357.214873 125.132257 
L 357.539853 124.519554 
L 357.864832 124.616118 
L 358.189812 123.659189 
L 358.514791 125.633128 
L 358.839771 124.992213 
L 359.16475 128.419955 
L 359.48973 121.731216 
L 359.814709 123.387252 
L 360.139689 124.207735 
L 360.464668 123.419281 
L 360.789648 122.001184 
L 361.114627 126.715368 
L 361.439607 117.32559 
L 361.764586 120.625634 
L 362.089566 129.138655 
L 362.414545 123.884206 
L 363.064505 122.768664 
L 363.389484 133.727368 
L 364.039443 123.328423 
L 364.364423 124.699639 
L 364.689402 125.124185 
L 365.014382 126.065825 
L 365.339361 117.645044 
L 365.664341 127.490522 
L 365.98932 124.891812 
L 366.3143 127.560822 
L 366.639279 131.488481 
L 366.964259 125.081003 
L 367.289238 129.125504 
L 367.614218 126.94303 
L 367.939197 120.312463 
L 368.264177 131.588842 
L 368.589156 118.071478 
L 368.914136 121.702348 
L 369.239115 119.066321 
L 369.564095 121.255634 
L 369.889075 120.983538 
L 370.214054 124.038803 
L 370.539034 121.846667 
L 370.864013 123.754719 
L 371.188993 121.745968 
L 371.513972 124.989867 
L 371.838952 122.172263 
L 372.163931 120.463979 
L 372.488911 117.737054 
L 372.81389 127.028838 
L 373.13887 120.49394 
L 373.463849 130.794334 
L 373.788829 121.442419 
L 374.113808 123.754222 
L 374.438788 121.488644 
L 374.763767 124.925988 
L 375.088747 120.387734 
L 375.413726 129.808289 
L 376.063686 121.032407 
L 376.388665 127.965447 
L 376.713645 123.480078 
L 377.038624 124.348137 
L 377.363604 131.058109 
L 377.688583 124.849425 
L 378.013563 127.673311 
L 378.338542 121.351204 
L 378.663522 126.372316 
L 379.313481 123.705035 
L 379.63846 124.57878 
L 379.96344 124.39627 
L 380.288419 122.839919 
L 380.613399 122.721426 
L 380.938378 128.635677 
L 381.263358 122.604007 
L 381.913317 127.335865 
L 382.238296 127.398968 
L 382.563276 121.117022 
L 382.888256 124.096399 
L 383.538215 115.450104 
L 383.863194 116.861321 
L 384.188174 117.62882 
L 384.513153 125.315384 
L 384.838133 128.960717 
L 385.163112 126.524428 
L 385.488092 120.562173 
L 385.813071 120.211248 
L 386.46303 127.763751 
L 386.78801 128.740959 
L 387.112989 127.9298 
L 387.762948 127.93992 
L 388.087928 126.65817 
L 388.412907 123.019109 
L 388.737887 128.103185 
L 389.062867 121.716265 
L 389.387846 121.771237 
L 389.712826 124.413726 
L 390.037805 129.799034 
L 390.362785 122.130632 
L 390.687764 123.519463 
L 391.012744 119.190778 
L 391.337723 123.775972 
L 391.662703 119.985057 
L 391.987682 126.91619 
L 392.312662 122.696236 
L 392.637641 121.922792 
L 392.962621 128.508665 
L 393.2876 124.3745 
L 393.61258 128.381862 
L 393.937559 129.771319 
L 394.262539 119.709184 
L 394.587518 124.112344 
L 394.912498 122.415154 
L 395.237477 123.399201 
L 395.562457 123.558152 
L 395.887437 122.80622 
L 396.212416 114.461584 
L 396.537396 121.671452 
L 396.862375 125.206275 
L 397.187355 124.142643 
L 397.512334 128.564234 
L 397.837314 119.871376 
L 398.487273 116.641752 
L 398.487273 116.641752 
" style="fill:none;stroke:#1f77b4;stroke-linecap:square;stroke-width:1.5;"/>
   </g>
   <g id="line2d_11">
    <path clip-path="url(#p9ab4704785)" d="M 73.832727 294.825327 
L 74.482686 226.050841 
L 75.132645 191.154272 
L 75.457625 179.442105 
L 75.782604 174.782366 
L 76.107584 173.879246 
L 76.432563 170.742189 
L 77.082523 156.076122 
L 77.407502 156.399989 
L 77.732482 152.646661 
L 78.057461 141.444708 
L 78.382441 137.615015 
L 78.70742 146.376513 
L 79.357379 135.723325 
L 79.682359 136.835259 
L 80.007338 133.887353 
L 80.332318 134.33691 
L 80.657297 129.192126 
L 80.982277 137.637352 
L 81.307256 138.281666 
L 81.632236 135.995262 
L 81.957215 135.884851 
L 82.282195 130.353803 
L 82.607174 132.547818 
L 82.932154 131.472695 
L 83.257133 126.792428 
L 83.907093 130.058873 
L 84.232072 122.607446 
L 84.557052 137.384541 
L 84.882031 131.489196 
L 85.207011 129.40588 
L 85.53199 122.454698 
L 85.85697 129.309357 
L 86.181949 127.713392 
L 86.831908 131.206663 
L 87.156888 131.536564 
L 87.481867 129.01899 
L 87.806847 123.850805 
L 88.131826 126.368002 
L 88.456806 131.491761 
L 88.781785 124.916783 
L 89.106765 122.533706 
L 89.431744 124.001983 
L 89.756724 121.915993 
L 90.081704 122.762421 
L 90.406683 124.693436 
L 90.731663 123.69587 
L 91.056642 117.860199 
L 91.706601 127.756952 
L 92.031581 120.856695 
L 92.35656 123.334566 
L 92.68154 123.69754 
L 93.006519 125.039451 
L 93.331499 120.30139 
L 93.656478 120.385965 
L 93.981458 118.386876 
L 94.631417 121.051433 
L 94.956396 123.23683 
L 95.281376 126.547212 
L 95.606355 120.155103 
L 95.931335 126.133799 
L 96.256314 123.521888 
L 96.906274 125.518392 
L 97.231253 121.637933 
L 97.556233 119.728409 
L 97.881212 114.076741 
L 98.206192 127.950457 
L 98.531171 122.442053 
L 98.856151 120.839359 
L 99.18113 120.853991 
L 99.50611 122.521718 
L 99.831089 126.7871 
L 100.156069 119.370605 
L 100.481048 120.801703 
L 100.806028 125.900253 
L 101.131007 115.065201 
L 101.455987 115.217293 
L 101.780966 128.915269 
L 102.105946 113.567321 
L 102.755905 120.93121 
L 103.080885 119.506335 
L 103.405864 115.671622 
L 103.730844 121.213943 
L 104.055823 120.060726 
L 104.380803 128.055629 
L 104.705782 120.871169 
L 105.030762 124.749144 
L 105.355741 116.617974 
L 105.680721 117.739341 
L 106.0057 120.798503 
L 106.33068 117.248451 
L 106.655659 121.800204 
L 106.980639 119.454564 
L 107.305618 116.11096 
L 107.630598 120.425588 
L 107.955577 120.712118 
L 108.280557 109.19116 
L 108.605536 116.923609 
L 108.930516 118.352839 
L 109.255495 118.264089 
L 109.580475 117.032758 
L 109.905455 111.77466 
L 110.230434 121.052785 
L 110.555414 119.456731 
L 110.880393 123.552088 
L 111.205373 117.097551 
L 111.530352 119.764872 
L 111.855332 120.98318 
L 112.180311 120.166992 
L 112.505291 111.467971 
L 112.83027 115.431415 
L 113.15525 126.549141 
L 113.805209 119.563593 
L 114.130188 112.735247 
L 114.455168 122.412708 
L 114.780147 119.394045 
L 115.105127 115.298628 
L 115.430106 123.19327 
L 116.080066 110.740592 
L 116.405045 109.87643 
L 116.730025 116.883489 
L 117.055004 120.168145 
L 117.379984 113.5608 
L 117.704963 121.022585 
L 118.029943 111.220488 
L 118.354922 122.959227 
L 118.679902 112.861553 
L 119.004881 117.163696 
L 119.329861 111.229733 
L 119.65484 115.189082 
L 119.97982 109.820205 
L 120.304799 119.240462 
L 120.629779 113.258126 
L 120.954758 110.654963 
L 121.279738 116.63032 
L 121.604717 117.295013 
L 121.929697 111.346198 
L 122.254676 113.067007 
L 122.579656 113.311667 
L 122.904636 117.795366 
L 123.229615 118.21198 
L 123.554595 109.716226 
L 123.879574 119.251158 
L 124.204554 108.109058 
L 124.529533 112.075425 
L 124.854513 119.405337 
L 125.179492 119.448062 
L 125.504472 121.133424 
L 125.829451 111.950889 
L 126.154431 108.575852 
L 126.80439 115.71041 
L 127.454349 105.549256 
L 128.104308 115.043849 
L 128.429287 110.711585 
L 128.754267 119.659063 
L 129.079247 108.277095 
L 129.404226 113.545809 
L 129.729206 121.321183 
L 130.054185 119.483113 
L 130.379165 116.195873 
L 130.704144 114.319233 
L 131.029124 110.847236 
L 131.354103 116.560357 
L 131.679083 114.467866 
L 132.004062 117.179522 
L 132.329042 110.944754 
L 132.654021 113.963178 
L 132.979001 104.31544 
L 133.30398 114.318975 
L 133.62896 109.615746 
L 133.953939 120.399743 
L 134.603898 110.576969 
L 134.928878 110.271194 
L 135.253857 105.166043 
L 135.578837 114.371501 
L 135.903817 112.989211 
L 136.228796 110.12594 
L 136.553776 113.214149 
L 136.878755 113.340395 
L 137.203735 117.465137 
L 137.528714 111.070583 
L 137.853694 107.980446 
L 138.178673 108.108124 
L 138.503653 110.479053 
L 138.828632 105.611465 
L 139.153612 108.782081 
L 139.478591 108.642435 
L 139.803571 106.100725 
L 140.12855 101.995665 
L 140.45353 106.147287 
L 140.778509 112.786104 
L 141.103489 112.233601 
L 141.753448 110.316682 
L 142.078428 113.889538 
L 142.403407 109.548427 
L 142.728387 107.608048 
L 143.053366 112.76994 
L 143.378346 107.109166 
L 144.028305 113.663189 
L 144.353284 112.760477 
L 144.678264 111.513638 
L 145.003243 112.683118 
L 145.328223 107.455121 
L 145.653202 116.067181 
L 145.978182 115.418771 
L 146.303161 109.576241 
L 146.95312 112.486373 
L 147.2781 110.341395 
L 147.603079 112.372035 
L 147.928059 98.535477 
L 148.253038 113.610742 
L 148.578018 114.152966 
L 148.902998 108.603268 
L 149.227977 113.474058 
L 149.552957 106.589547 
L 149.877936 106.647263 
L 150.202916 110.708484 
L 150.527895 109.522085 
L 150.852875 112.214972 
L 151.177854 111.916295 
L 151.502834 99.844325 
L 151.827813 118.237348 
L 152.152793 109.177024 
L 152.477772 112.352849 
L 152.802752 107.023437 
L 153.127731 107.048687 
L 153.452711 106.748677 
L 153.77769 108.788602 
L 154.10267 106.709432 
L 154.427649 108.249043 
L 154.752629 109.106684 
L 155.077609 114.556557 
L 155.402588 105.605679 
L 155.727568 101.262024 
L 156.377527 107.723499 
L 156.702506 104.073225 
L 157.027486 112.715127 
L 157.352465 107.084076 
L 157.677445 105.322768 
L 158.002424 108.187172 
L 158.327404 105.574207 
L 158.652383 115.401295 
L 158.977363 106.942341 
L 159.302342 106.082553 
L 159.627322 108.651063 
L 159.952301 106.984033 
L 160.277281 100.836484 
L 160.60226 108.327315 
L 160.92724 100.889368 
L 161.252219 100.234974 
L 161.577199 101.933536 
L 161.902179 108.654721 
L 162.227158 109.479658 
L 162.552138 105.438875 
L 162.877117 104.554294 
L 163.202097 107.219945 
L 163.527076 98.583291 
L 163.852056 107.264658 
L 164.177035 106.585849 
L 164.502015 104.252674 
L 164.826994 100.623654 
L 165.151974 107.081829 
L 165.476953 104.916453 
L 165.801933 107.234259 
L 166.126912 106.916734 
L 166.451892 103.193098 
L 166.776871 105.098466 
L 167.101851 108.433442 
L 167.42683 97.719706 
L 167.75181 106.500518 
L 168.07679 108.085419 
L 168.401769 106.035335 
L 168.726749 105.302489 
L 169.051728 110.460027 
L 169.376708 106.907151 
L 169.701687 104.950191 
L 170.026667 113.615851 
L 170.351646 107.452815 
L 170.676626 106.884189 
L 171.001605 99.718516 
L 171.326585 105.546154 
L 171.651564 106.219953 
L 171.976544 110.253599 
L 172.301523 101.896875 
L 172.626503 104.018472 
L 172.951482 97.736684 
L 173.276462 104.42429 
L 173.601441 100.427942 
L 173.926421 102.16241 
L 174.57638 107.93945 
L 174.90136 105.140535 
L 175.226339 99.461927 
L 175.551319 101.965545 
L 175.876298 99.604735 
L 176.201278 100.641189 
L 176.526257 97.67038 
L 177.176216 106.737623 
L 177.501196 114.05006 
L 177.826175 106.92423 
L 178.476134 101.375328 
L 178.801114 100.986409 
L 179.126093 104.451587 
L 179.451073 101.042414 
L 180.101032 108.608895 
L 180.426011 108.993301 
L 181.075971 99.101518 
L 181.72593 107.414742 
L 182.050909 98.267635 
L 182.375889 97.627635 
L 182.700868 100.323008 
L 183.025848 105.946525 
L 183.350827 101.792319 
L 183.675807 102.730678 
L 184.000786 103.25644 
L 184.325766 107.525978 
L 184.975725 96.118463 
L 185.300704 107.624013 
L 185.625684 97.723145 
L 185.950663 96.581439 
L 186.275643 97.721555 
L 186.600622 106.773072 
L 186.925602 97.70384 
L 187.250581 99.06277 
L 187.900541 105.544524 
L 188.22552 105.249604 
L 188.5505 98.741129 
L 188.875479 105.754352 
L 189.200459 108.088719 
L 189.525438 97.47942 
L 189.850418 92.249375 
L 190.175397 105.263442 
L 190.500377 108.59126 
L 190.825356 93.930064 
L 191.150336 105.72115 
L 191.475315 101.485808 
L 191.800295 100.93587 
L 192.125274 102.293507 
L 192.450254 99.452603 
L 192.775233 100.419751 
L 193.100213 95.234478 
L 193.425192 97.827602 
L 193.750172 98.235885 
L 194.075152 108.280057 
L 194.400131 101.902004 
L 194.725111 100.103498 
L 195.05009 99.376636 
L 195.37507 95.554369 
L 195.700049 97.011811 
L 196.025029 99.024717 
L 196.350008 102.667794 
L 196.674988 93.851632 
L 196.999967 92.564395 
L 197.649926 98.674288 
L 197.974906 98.448516 
L 198.299885 105.366845 
L 198.624865 94.873294 
L 198.949844 94.2155 
L 199.274824 95.033657 
L 199.599803 98.766279 
L 199.924783 91.557743 
L 200.249762 99.049767 
L 200.574742 94.095795 
L 200.899722 94.276933 
L 201.224701 98.493229 
L 201.549681 96.456803 
L 201.87466 100.792625 
L 202.19964 91.795185 
L 202.524619 96.546766 
L 202.849599 95.632085 
L 203.174578 101.371073 
L 203.824537 90.565366 
L 204.149517 98.077172 
L 204.474496 96.980736 
L 204.799476 97.440969 
L 205.124455 97.589582 
L 205.449435 99.809851 
L 205.774414 98.818269 
L 206.099394 100.228572 
L 206.424373 98.261432 
L 206.749353 94.699352 
L 207.074333 102.273865 
L 207.399312 100.042661 
L 207.724292 101.340217 
L 208.049271 90.52771 
L 208.69923 99.765237 
L 209.02421 97.146149 
L 209.349189 91.71908 
L 209.674169 96.989305 
L 209.999148 98.271393 
L 210.324128 97.801299 
L 210.649107 98.314714 
L 210.974087 105.610331 
L 211.624046 95.027593 
L 211.949025 100.737673 
L 212.274005 98.018999 
L 212.598984 99.371348 
L 212.923964 97.519202 
L 213.248943 94.85731 
L 213.573923 96.55955 
L 214.223882 93.605461 
L 214.548862 98.140852 
L 214.873841 100.058467 
L 215.198821 100.368536 
L 215.5238 94.266277 
L 215.84878 95.632066 
L 216.173759 86.314198 
L 216.498739 98.873877 
L 216.823718 99.214942 
L 217.148698 100.748668 
L 217.473677 96.306083 
L 217.798657 96.222959 
L 218.448616 94.983536 
L 218.773595 93.525777 
L 219.098575 98.293024 
L 219.423554 91.554422 
L 219.748534 95.723957 
L 220.073514 92.586145 
L 220.398493 92.620858 
L 220.723473 98.653254 
L 221.048452 99.742453 
L 221.373432 89.497042 
L 221.698411 95.247322 
L 222.023391 93.65095 
L 222.34837 95.471464 
L 222.67335 90.212014 
L 222.998329 95.021271 
L 223.323309 93.606873 
L 223.648288 93.595461 
L 223.973268 94.96282 
L 224.298247 92.472642 
L 224.623227 96.634463 
L 224.948206 92.10098 
L 225.273186 97.008908 
L 225.598165 88.654351 
L 225.923145 96.249441 
L 226.248124 96.713431 
L 226.898084 91.461775 
L 227.223063 89.843096 
L 227.548043 102.566458 
L 227.873022 100.369212 
L 228.198002 94.815598 
L 228.522981 86.319248 
L 228.847961 94.311467 
L 229.17294 93.192526 
L 229.49792 91.270119 
L 229.822899 99.614954 
L 230.147879 94.087166 
L 230.472858 96.317634 
L 230.797838 88.376609 
L 231.122817 94.998586 
L 231.447797 93.020671 
L 231.772776 96.703908 
L 232.097756 94.373239 
L 232.422735 93.140814 
L 232.747715 92.741577 
L 233.072695 98.649635 
L 233.397674 93.694529 
L 233.722654 92.179074 
L 234.047633 97.53298 
L 234.372613 99.372541 
L 234.697592 95.303228 
L 235.022572 98.431497 
L 235.347551 90.73885 
L 235.672531 93.98098 
L 235.99751 86.814333 
L 236.32249 93.913125 
L 236.647469 94.501692 
L 236.972449 99.120028 
L 237.297428 93.431996 
L 237.622408 90.872035 
L 237.947387 91.001483 
L 238.272367 90.427091 
L 238.597346 96.114765 
L 238.922326 92.403694 
L 239.247305 92.671853 
L 239.572285 95.469874 
L 239.897265 90.725689 
L 240.222244 97.47779 
L 240.872203 88.112962 
L 241.197183 95.461841 
L 241.522162 94.84721 
L 241.847142 95.027593 
L 242.172121 97.126049 
L 242.82208 91.64858 
L 243.14706 90.207163 
L 243.472039 95.661112 
L 243.797019 95.871139 
L 244.121998 93.2136 
L 244.446978 88.863085 
L 244.771957 92.284942 
L 245.096937 89.005177 
L 245.421916 96.33173 
L 245.746896 89.403063 
L 246.071876 94.155737 
L 246.396855 90.79078 
L 246.721835 95.572859 
L 247.046814 85.485723 
L 247.371794 93.530151 
L 247.696773 86.863361 
L 248.021753 90.958897 
L 248.346732 90.614353 
L 248.671712 96.506546 
L 248.996691 93.010333 
L 249.321671 94.7148 
L 249.64665 88.368159 
L 249.97163 84.673888 
L 250.296609 91.620071 
L 250.621589 87.110525 
L 250.946568 92.686645 
L 251.271548 92.405165 
L 251.596527 88.677254 
L 251.921507 92.852952 
L 252.246486 89.085756 
L 252.571466 92.11444 
L 252.896446 93.01582 
L 253.221425 89.262581 
L 253.546405 88.626239 
L 253.871384 101.448093 
L 254.196364 89.228087 
L 254.521343 92.101974 
L 254.846323 90.038232 
L 255.171302 93.229445 
L 255.496282 89.66317 
L 255.821261 97.4626 
L 256.146241 88.534009 
L 256.47122 90.560674 
L 256.7962 94.028616 
L 257.121179 86.260101 
L 257.771138 98.974377 
L 258.096118 91.698244 
L 258.746077 86.051566 
L 259.071057 97.294285 
L 259.396036 89.461593 
L 260.045995 93.624527 
L 260.370975 92.97399 
L 260.695954 92.643323 
L 261.020934 91.755423 
L 261.345913 84.642018 
L 261.670893 89.942841 
L 261.995872 93.257816 
L 262.320852 88.595105 
L 262.970811 88.892132 
L 263.29579 88.476095 
L 263.62077 94.409979 
L 263.945749 92.283551 
L 264.270729 94.658993 
L 264.595708 90.004095 
L 264.920688 90.020299 
L 265.245667 87.800646 
L 265.570647 88.361241 
L 265.895627 88.467347 
L 266.545586 85.519839 
L 266.870565 87.378705 
L 267.195545 95.86581 
L 267.520524 86.563391 
L 267.845504 87.092413 
L 268.170483 89.128124 
L 268.495463 88.926785 
L 268.820442 95.208275 
L 269.145422 92.112869 
L 269.470401 93.967938 
L 269.795381 85.361425 
L 270.12036 83.307523 
L 270.44534 87.420972 
L 270.770319 89.040407 
L 271.095299 85.133147 
L 271.420278 84.151426 
L 271.745258 85.219512 
L 272.070238 80.493538 
L 272.395217 90.120859 
L 272.720197 86.655302 
L 273.045176 90.789925 
L 273.370156 84.1358 
L 273.695135 91.137252 
L 274.020115 85.686862 
L 274.345094 92.228619 
L 274.670074 87.964469 
L 274.995053 88.288793 
L 275.320033 84.859182 
L 275.645012 88.246923 
L 275.969992 84.25801 
L 276.294971 84.286103 
L 276.619951 97.774757 
L 277.26991 91.493625 
L 277.594889 81.975931 
L 277.919869 88.370724 
L 278.244848 85.646404 
L 278.569828 88.476731 
L 278.894808 89.790311 
L 279.219787 93.572557 
L 279.544767 81.523531 
L 279.869746 90.377566 
L 280.194726 90.281877 
L 280.519705 94.876813 
L 280.844685 86.154531 
L 281.169664 91.336304 
L 281.494644 94.420258 
L 281.819623 88.986867 
L 282.144603 91.140433 
L 282.794562 82.598733 
L 283.119541 91.443186 
L 283.444521 80.729231 
L 283.7695 89.162379 
L 284.09448 88.427843 
L 284.419459 83.294123 
L 284.744439 89.017305 
L 285.069419 89.062714 
L 285.394398 90.267285 
L 285.719378 88.602481 
L 286.044357 80.523141 
L 286.369337 88.717474 
L 286.694316 83.960844 
L 287.019296 92.975163 
L 287.344275 87.920213 
L 287.669255 87.596962 
L 287.994234 79.452014 
L 288.319214 88.172467 
L 288.644193 88.755169 
L 288.969173 88.574627 
L 289.294152 82.533781 
L 289.619132 90.214639 
L 289.944111 85.569304 
L 290.269091 87.704679 
L 290.59407 88.751531 
L 290.91905 83.377287 
L 291.244029 87.774999 
L 291.569009 86.073435 
L 291.893989 86.67073 
L 292.218968 78.720262 
L 292.543948 88.26585 
L 292.868927 91.354953 
L 293.193907 86.26692 
L 293.518886 93.448498 
L 293.843866 89.501694 
L 294.168845 91.060391 
L 294.493825 81.658644 
L 294.818804 86.786499 
L 295.143784 84.593866 
L 295.468763 88.580969 
L 295.793743 86.208648 
L 296.118722 84.973977 
L 296.443702 80.834185 
L 297.093661 89.887471 
L 297.41864 90.257324 
L 297.74362 84.429725 
L 298.0686 88.502557 
L 298.393579 82.295463 
L 298.718559 86.275092 
L 299.043538 84.513326 
L 299.368518 83.62638 
L 299.693497 89.279977 
L 300.018477 87.434452 
L 300.343456 84.704545 
L 300.668436 91.457799 
L 300.993415 86.842386 
L 301.318395 94.985445 
L 301.643374 94.539526 
L 301.968354 87.067761 
L 302.293333 84.788524 
L 302.618313 80.623482 
L 302.943292 86.996884 
L 303.268272 79.37571 
L 303.593251 83.705826 
L 303.918231 86.307598 
L 304.24321 85.326215 
L 304.56819 86.433367 
L 304.89317 88.366708 
L 305.218149 83.327901 
L 305.543129 82.372881 
L 305.868108 79.091208 
L 306.193088 88.209606 
L 306.518067 83.507211 
L 307.168026 83.114595 
L 307.493006 82.846336 
L 307.817985 90.375797 
L 308.142965 94.002571 
L 308.467944 86.303581 
L 308.792924 81.732901 
L 309.117903 82.872201 
L 309.442883 84.834052 
L 309.767862 87.655751 
L 310.092842 83.11712 
L 310.417821 84.9099 
L 310.742801 90.09209 
L 311.067781 81.313524 
L 311.39276 77.592592 
L 311.71774 78.720898 
L 312.042719 83.706542 
L 312.367699 80.616305 
L 312.692678 87.328067 
L 313.017658 82.666887 
L 313.342637 83.558764 
L 313.667617 83.613358 
L 313.992596 87.042869 
L 314.317576 78.506517 
L 314.642555 80.398903 
L 315.292514 80.936971 
L 315.617494 82.754424 
L 315.942473 82.770429 
L 316.267453 84.463583 
L 316.592432 79.576611 
L 316.917412 80.896394 
L 317.242391 84.064247 
L 317.567371 91.036991 
L 317.892351 92.499124 
L 318.21733 85.193606 
L 318.54231 83.756503 
L 318.867289 90.650796 
L 319.192269 83.994066 
L 319.517248 87.343455 
L 319.842228 79.87666 
L 320.167207 85.312755 
L 320.492187 85.215038 
L 320.817166 89.399047 
L 321.142146 86.798706 
L 321.467125 85.20474 
L 321.792105 75.971368 
L 322.117084 84.032118 
L 322.442064 86.768407 
L 322.767043 78.80263 
L 323.092023 78.06871 
L 323.417002 82.791284 
L 324.066962 84.58142 
L 324.391941 78.748473 
L 324.716921 81.97265 
L 325.0419 88.165151 
L 325.36688 86.979825 
L 325.691859 86.255827 
L 326.016839 82.42004 
L 326.341818 83.788652 
L 326.666798 83.729425 
L 326.991777 79.588201 
L 327.316757 81.669738 
L 327.641736 74.964895 
L 328.291695 89.367018 
L 328.616675 78.273369 
L 328.941654 86.907974 
L 329.591613 85.506658 
L 329.916593 74.725265 
L 330.241572 86.878629 
L 330.566552 78.472321 
L 330.891532 77.81914 
L 331.216511 80.123169 
L 331.541491 83.996769 
L 331.86647 83.746881 
L 332.19145 82.957015 
L 332.516429 80.565648 
L 332.841409 85.463814 
L 333.166388 79.225069 
L 333.491368 79.61697 
L 333.816347 84.481457 
L 334.141327 81.943425 
L 334.466306 83.401045 
L 334.791286 81.924398 
L 335.116265 73.158715 
L 335.441245 81.159006 
L 335.766224 85.45777 
L 336.091204 86.156957 
L 336.416183 85.733762 
L 336.741163 76.12358 
L 337.066143 75.966636 
L 337.391122 76.978139 
L 337.716102 81.382135 
L 338.041081 79.945409 
L 338.366061 89.109276 
L 338.69104 74.994001 
L 339.01602 83.633418 
L 339.340999 79.70914 
L 339.665979 81.19193 
L 339.990958 79.872226 
L 340.315938 81.584666 
L 340.965897 76.271795 
L 341.290876 77.988509 
L 341.615856 81.642103 
L 341.940835 82.311667 
L 342.265815 77.572929 
L 342.590794 76.141771 
L 342.915774 82.931507 
L 343.240753 85.212175 
L 343.565733 84.875306 
L 343.890713 84.218725 
L 344.215692 74.121926 
L 344.540672 75.678039 
L 344.865651 73.752948 
L 345.190631 74.507803 
L 345.51561 83.074892 
L 346.165569 85.158635 
L 346.490549 82.497935 
L 346.815528 82.389562 
L 347.140508 80.36759 
L 347.465487 76.345515 
L 347.790467 77.349344 
L 348.115446 79.364636 
L 348.440426 82.854865 
L 348.765405 75.479563 
L 349.090385 85.83466 
L 349.415364 83.764873 
L 349.740344 88.266387 
L 350.065324 80.064399 
L 350.390303 83.818792 
L 350.715283 82.789873 
L 351.365242 79.501221 
L 351.690221 72.704188 
L 352.015201 79.232445 
L 352.34018 73.155713 
L 352.66516 80.234027 
L 352.990139 76.507091 
L 353.315119 79.836599 
L 353.640098 81.31245 
L 353.965078 77.018439 
L 354.290057 85.120562 
L 354.615037 79.571958 
L 354.940016 79.882406 
L 355.264996 78.089844 
L 355.589975 81.882409 
L 355.914955 82.551138 
L 356.239934 84.60317 
L 356.564914 77.177132 
L 356.889894 77.205443 
L 357.214873 75.110844 
L 357.539853 77.130172 
L 357.864832 78.013062 
L 358.189812 84.568219 
L 358.514791 78.598528 
L 358.839771 81.337382 
L 359.16475 82.683925 
L 359.48973 81.789742 
L 359.814709 76.744454 
L 360.139689 81.010095 
L 360.464668 80.529364 
L 360.789648 85.789172 
L 361.439607 80.344508 
L 361.764586 82.481672 
L 362.414545 75.293096 
L 362.739525 80.872655 
L 363.064505 73.504571 
L 363.389484 74.976585 
L 364.039443 80.883033 
L 364.364423 79.940896 
L 364.689402 78.243109 
L 365.014382 78.017277 
L 365.339361 84.974076 
L 365.664341 73.679368 
L 365.98932 81.237637 
L 366.3143 75.975981 
L 366.639279 77.142876 
L 366.964259 81.784076 
L 367.289238 79.254871 
L 367.614218 83.494925 
L 367.939197 79.571243 
L 368.264177 73.627954 
L 368.589156 76.569558 
L 368.914136 84.040091 
L 369.239115 81.064649 
L 369.564095 72.022596 
L 369.889075 84.41547 
L 370.214054 75.769771 
L 370.539034 74.451877 
L 370.864013 83.242929 
L 371.188993 82.810589 
L 371.513972 76.09499 
L 371.838952 81.793996 
L 372.163931 74.228908 
L 372.488911 78.727916 
L 372.81389 80.301942 
L 373.463849 76.493174 
L 373.788829 80.590042 
L 374.113808 81.573333 
L 374.438788 77.844747 
L 374.763767 84.424178 
L 375.088747 73.565229 
L 375.738706 81.402453 
L 376.063686 80.519602 
L 376.388665 76.092127 
L 376.713645 81.878035 
L 377.038624 76.199069 
L 377.363604 73.017955 
L 377.688583 72.456148 
L 378.013563 67.003909 
L 378.338542 79.113992 
L 378.663522 83.036183 
L 378.988501 75.292579 
L 379.313481 76.588008 
L 379.63846 81.964717 
L 379.96344 80.964527 
L 380.288419 81.370584 
L 380.938378 74.969627 
L 381.263358 80.534116 
L 381.588337 80.193032 
L 381.913317 81.766023 
L 382.238296 79.788506 
L 382.563276 80.424848 
L 382.888256 64.999194 
L 383.213235 78.641213 
L 383.538215 73.695432 
L 383.863194 74.935292 
L 384.188174 80.455107 
L 384.513153 73.869572 
L 384.838133 70.127129 
L 385.163112 80.210925 
L 385.488092 78.735033 
L 385.813071 76.253266 
L 386.138051 81.037611 
L 386.46303 79.028025 
L 386.78801 78.63843 
L 387.112989 74.498181 
L 387.437969 75.982899 
L 387.762948 75.849555 
L 388.087928 69.750855 
L 388.412907 81.495617 
L 388.737887 72.634941 
L 389.387846 77.651858 
L 389.712826 83.648886 
L 390.037805 76.221535 
L 390.687764 82.488591 
L 391.012744 76.492756 
L 391.337723 77.361193 
L 391.662703 72.166795 
L 391.987682 83.665208 
L 392.312662 75.268066 
L 392.637641 75.561673 
L 392.962621 74.313582 
L 393.2876 83.678429 
L 393.61258 85.428783 
L 393.937559 70.139296 
L 394.262539 78.544312 
L 394.587518 79.202782 
L 395.237477 71.840145 
L 395.562457 65.209718 
L 395.887437 72.015578 
L 396.212416 76.152129 
L 396.537396 76.667951 
L 396.862375 78.249134 
L 397.187355 68.991188 
L 397.837314 75.136829 
L 398.162293 77.676133 
L 398.487273 72.933579 
L 398.487273 72.933579 
" style="fill:none;stroke:#ff7f0e;stroke-linecap:square;stroke-width:1.5;"/>
   </g>
   <g id="line2d_12">
    <path clip-path="url(#p9ab4704785)" d="M 73.832727 295.488 
L 74.157707 246.417654 
L 74.482686 234.036182 
L 75.132645 206.174267 
L 75.457625 190.85808 
L 76.107584 174.857319 
L 76.432563 174.793768 
L 77.082523 163.492807 
L 77.407502 148.998693 
L 77.732482 158.06029 
L 78.057461 142.31054 
L 78.382441 150.697076 
L 78.70742 140.025916 
L 79.0324 138.291995 
L 79.357379 146.997427 
L 80.007338 139.957405 
L 80.332318 134.077777 
L 80.657297 149.360643 
L 80.982277 138.452417 
L 81.307256 131.311775 
L 81.632236 140.016124 
L 82.282195 124.933483 
L 82.607174 133.779746 
L 82.932154 134.753842 
L 83.257133 125.692096 
L 83.582113 126.95975 
L 83.907093 126.666381 
L 84.557052 128.995838 
L 84.882031 128.742967 
L 85.207011 120.035616 
L 85.53199 127.340756 
L 85.85697 119.582759 
L 86.181949 128.870555 
L 86.506929 123.655869 
L 86.831908 124.473091 
L 87.156888 122.943659 
L 87.481867 123.268521 
L 87.806847 119.709582 
L 88.131826 121.006998 
L 88.456806 119.508064 
L 88.781785 115.622376 
L 89.106765 109.098135 
L 89.431744 115.817272 
L 89.756724 107.301895 
L 90.406683 123.122671 
L 90.731663 122.341891 
L 91.056642 104.508746 
L 91.381622 112.267777 
L 91.706601 107.658925 
L 92.031581 105.614924 
L 92.35656 104.977946 
L 92.68154 116.025728 
L 93.331499 109.842711 
L 93.656478 113.345743 
L 94.306437 109.94007 
L 94.631417 112.922808 
L 94.956396 101.112854 
L 95.281376 108.22431 
L 95.606355 103.982328 
L 95.931335 105.877477 
L 96.256314 109.066265 
L 96.906274 103.684386 
L 97.231253 108.01665 
L 97.556233 107.53739 
L 97.881212 103.121307 
L 98.206192 109.772729 
L 98.531171 103.0454 
L 98.856151 103.577365 
L 99.18113 103.447937 
L 99.50611 105.552278 
L 99.831089 103.494022 
L 100.156069 105.22849 
L 100.481048 98.087829 
L 101.131007 104.178298 
L 101.455987 99.484055 
L 102.105946 105.575539 
L 102.430925 90.81434 
L 102.755905 93.932609 
L 103.080885 95.959849 
L 103.405864 99.413298 
L 103.730844 90.010119 
L 104.055823 100.376986 
L 104.380803 95.22257 
L 104.705782 96.901449 
L 105.355741 97.242931 
L 105.680721 95.451324 
L 106.0057 96.486884 
L 106.33068 95.463273 
L 106.655659 93.303066 
L 106.980639 90.161277 
L 107.305618 90.40377 
L 107.630598 86.60546 
L 107.955577 101.003984 
L 108.280557 87.429402 
L 108.605536 99.87872 
L 108.930516 89.67331 
L 109.255495 103.092857 
L 109.580475 94.50545 
L 109.905455 95.083301 
L 110.230434 96.135839 
L 110.555414 98.373861 
L 110.880393 94.974669 
L 111.205373 89.645774 
L 111.530352 81.268175 
L 111.855332 93.787415 
L 112.180311 92.284107 
L 112.505291 93.836204 
L 112.83027 92.788676 
L 113.15525 92.210845 
L 113.480229 95.361162 
L 113.805209 96.807987 
L 114.130188 91.055142 
L 114.455168 97.783425 
L 114.780147 87.772813 
L 115.105127 96.239162 
L 115.430106 87.595113 
L 115.755086 92.764282 
L 116.080066 85.521231 
L 116.405045 89.886895 
L 116.730025 95.925256 
L 117.055004 86.476311 
L 117.379984 88.762824 
L 117.704963 84.048123 
L 118.029943 94.066609 
L 118.679902 89.903436 
L 119.004881 87.147942 
L 119.329861 90.88973 
L 119.65484 84.247751 
L 119.97982 91.455155 
L 120.304799 89.099455 
L 120.629779 79.010171 
L 120.954758 87.819395 
L 121.279738 83.196744 
L 121.604717 94.102276 
L 122.254676 86.145147 
L 122.904636 87.336 
L 123.229615 73.99898 
L 123.554595 77.022753 
L 123.879574 88.377961 
L 124.204554 86.70095 
L 124.529533 81.860897 
L 125.179492 89.244012 
L 125.504472 85.760761 
L 125.829451 84.180036 
L 126.154431 85.77768 
L 126.47941 89.182797 
L 126.80439 78.848854 
L 127.129369 81.900958 
L 127.454349 83.094117 
L 127.779328 91.905109 
L 128.104308 77.983062 
L 128.429287 75.568453 
L 128.754267 76.727177 
L 129.079247 80.517078 
L 129.404226 79.700451 
L 129.729206 82.312979 
L 130.054185 83.489417 
L 130.704144 79.411735 
L 131.029124 78.16098 
L 131.354103 81.182924 
L 131.679083 88.775747 
L 132.004062 77.970159 
L 132.329042 80.214921 
L 132.654021 75.734323 
L 132.979001 80.843509 
L 133.30398 80.450912 
L 133.62896 79.856699 
L 133.953939 91.071723 
L 134.278919 81.536175 
L 134.603898 80.85512 
L 134.928878 81.159523 
L 135.253857 85.081953 
L 135.578837 80.174522 
L 135.903817 78.621272 
L 136.228796 78.738354 
L 136.553776 81.732941 
L 136.878755 80.003105 
L 137.203735 85.343372 
L 137.528714 81.760357 
L 137.853694 89.115161 
L 138.503653 73.07911 
L 138.828632 80.751558 
L 139.153612 77.372724 
L 139.478591 83.895454 
L 139.803571 83.990586 
L 140.12855 77.559589 
L 140.45353 81.088467 
L 140.778509 77.704643 
L 141.103489 78.580158 
L 141.428468 85.900746 
L 141.753448 88.036399 
L 142.078428 79.647746 
L 142.728387 76.846684 
L 143.053366 81.345712 
L 143.378346 77.999682 
L 143.703325 78.492958 
L 144.028305 75.954409 
L 144.353284 79.566789 
L 144.678264 76.997225 
L 145.003243 79.297516 
L 145.328223 78.924861 
L 145.653202 75.738836 
L 145.978182 86.886323 
L 146.303161 76.600374 
L 146.628141 75.670126 
L 146.95312 80.604893 
L 147.2781 72.187213 
L 147.603079 73.691754 
L 147.928059 78.853407 
L 148.253038 75.070505 
L 148.578018 77.532789 
L 148.902998 74.309149 
L 149.227977 79.890239 
L 149.552957 72.793912 
L 149.877936 74.405693 
L 150.202916 73.688612 
L 150.527895 76.823522 
L 150.852875 77.165223 
L 151.177854 78.411325 
L 151.502834 76.669382 
L 151.827813 83.821476 
L 152.152793 73.912993 
L 152.477772 73.038393 
L 152.802752 88.061629 
L 153.127731 76.413469 
L 153.452711 77.064762 
L 153.77769 68.927489 
L 154.10267 79.351892 
L 154.427649 82.495828 
L 154.752629 81.638982 
L 155.077609 78.513098 
L 155.402588 77.763512 
L 155.727568 78.382836 
L 156.052547 68.202893 
L 156.377527 78.267941 
L 156.702506 70.531416 
L 157.027486 75.590561 
L 157.352465 70.049095 
L 157.677445 75.915323 
L 158.002424 71.327425 
L 158.327404 76.314361 
L 158.652383 76.318934 
L 158.977363 75.278245 
L 159.302342 79.660351 
L 159.627322 80.154104 
L 159.952301 77.22101 
L 160.277281 76.706719 
L 160.60226 72.217234 
L 160.92724 73.760702 
L 161.252219 84.727051 
L 161.577199 74.345969 
L 161.902179 82.100507 
L 162.227158 76.103102 
L 162.552138 73.505982 
L 162.877117 81.532656 
L 163.527076 70.104325 
L 163.852056 75.668138 
L 164.177035 78.309215 
L 164.502015 84.811547 
L 164.826994 74.26201 
L 165.151974 78.523735 
L 165.476953 70.30954 
L 165.801933 83.270603 
L 166.126912 73.649804 
L 166.451892 75.118856 
L 166.776871 72.347835 
L 167.101851 79.285906 
L 167.42683 71.385975 
L 167.75181 75.56386 
L 168.07679 74.172127 
L 168.401769 74.29388 
L 168.726749 78.44741 
L 169.051728 78.77585 
L 169.376708 73.721576 
L 169.701687 80.160406 
L 170.026667 72.564362 
L 170.351646 76.41166 
L 170.676626 76.37985 
L 171.001605 76.688587 
L 171.326585 73.300211 
L 171.651564 66.905835 
L 171.976544 67.983165 
L 172.301523 76.140101 
L 172.626503 73.859075 
L 172.951482 72.897514 
L 173.276462 75.05788 
L 173.601441 67.064766 
L 173.926421 73.662429 
L 174.2514 77.79727 
L 174.57638 64.648527 
L 174.90136 73.128257 
L 175.226339 66.496876 
L 175.551319 75.338784 
L 176.526257 72.204391 
L 176.851237 72.340578 
L 177.176216 81.30591 
L 177.501196 74.468518 
L 177.826175 75.274567 
L 178.151155 70.531316 
L 178.476134 73.51316 
L 178.801114 72.694466 
L 179.451073 75.298842 
L 179.776052 73.105533 
L 180.101032 73.678811 
L 180.426011 74.507923 
L 180.750991 70.639292 
L 181.075971 78.793783 
L 181.40095 77.920793 
L 181.72593 70.75687 
L 182.050909 73.836331 
L 182.375889 65.271986 
L 182.700868 67.582417 
L 183.025848 75.526483 
L 183.350827 68.072233 
L 183.675807 73.886551 
L 184.000786 68.449919 
L 184.325766 69.914259 
L 184.650745 71.89953 
L 184.975725 76.115627 
L 185.300704 74.206342 
L 185.625684 69.302232 
L 185.950663 73.175893 
L 186.275643 69.675484 
L 186.600622 70.854826 
L 186.925602 78.339077 
L 187.250581 71.186327 
L 187.575561 69.235749 
L 187.900541 63.973476 
L 188.22552 67.092123 
L 188.5505 76.754554 
L 188.875479 78.596719 
L 189.200459 76.043358 
L 189.525438 68.932022 
L 190.175397 73.620877 
L 190.500377 74.54852 
L 190.825356 69.119443 
L 191.150336 71.051253 
L 191.475315 77.998012 
L 192.125274 67.69403 
L 192.775233 78.909592 
L 193.100213 68.23025 
L 193.425192 83.878416 
L 193.750172 80.871979 
L 194.075152 66.545128 
L 194.400131 70.14705 
L 194.725111 67.919008 
L 195.05009 67.79304 
L 195.37507 66.311363 
L 195.700049 75.092712 
L 196.025029 69.08644 
L 196.350008 75.745516 
L 196.674988 70.759634 
L 196.999967 76.631091 
L 197.324947 70.751502 
L 197.649926 70.618098 
L 197.974906 65.087249 
L 198.624865 78.231896 
L 198.949844 63.529287 
L 199.274824 73.265339 
L 199.924783 69.941298 
L 200.249762 76.499138 
L 200.574742 77.863634 
L 200.899722 64.134595 
L 201.87466 72.538576 
L 202.19964 72.120392 
L 202.524619 73.696147 
L 202.849599 70.89427 
L 203.174578 66.630816 
L 203.499558 68.979021 
L 203.824537 65.783076 
L 204.149517 70.103907 
L 204.474496 69.336468 
L 204.799476 72.61508 
L 205.124455 77.203455 
L 205.449435 75.874725 
L 205.774414 63.096928 
L 206.099394 68.267726 
L 206.424373 64.341182 
L 206.749353 77.240275 
L 207.074333 70.939759 
L 207.724292 78.684257 
L 208.049271 69.64602 
L 208.69923 73.158974 
L 209.02421 77.677465 
L 209.349189 74.432453 
L 209.674169 66.557176 
L 209.999148 70.449405 
L 210.324128 71.863008 
L 210.649107 70.168263 
L 210.974087 70.684621 
L 211.299066 76.548543 
L 211.624046 76.027573 
L 212.598984 62.610551 
L 212.923964 74.557944 
L 213.248943 71.018429 
L 213.573923 65.37193 
L 213.898903 70.729156 
L 214.223882 70.085855 
L 214.548862 68.547616 
L 214.873841 66.166706 
L 215.198821 77.405031 
L 215.5238 69.332293 
L 215.84878 66.390133 
L 216.173759 72.990241 
L 216.498739 77.13544 
L 216.823718 63.992542 
L 217.148698 64.357842 
L 217.473677 74.31392 
L 217.798657 61.74943 
L 218.123636 74.594367 
L 218.448616 66.586898 
L 218.773595 72.665022 
L 219.098575 66.792929 
L 219.748534 63.544357 
L 220.073514 66.394208 
L 220.398493 65.714346 
L 220.723473 70.556884 
L 221.048452 69.060554 
L 221.373432 66.280507 
L 221.698411 65.515831 
L 222.023391 72.573408 
L 222.34837 73.658035 
L 222.67335 68.425962 
L 222.998329 74.718824 
L 223.323309 72.806835 
L 223.648288 65.551239 
L 223.973268 69.415496 
L 224.298247 74.727671 
L 224.623227 65.472072 
L 225.273186 78.575426 
L 225.598165 67.282586 
L 225.923145 68.026108 
L 226.248124 69.444344 
L 226.573104 72.726694 
L 226.898084 69.54894 
L 227.223063 67.77113 
L 227.548043 63.793053 
L 227.873022 77.118899 
L 228.198002 68.4966 
L 228.522981 68.85689 
L 229.17294 78.919473 
L 229.49792 67.473049 
L 229.822899 80.418267 
L 230.147879 65.569053 
L 230.472858 64.614132 
L 230.797838 70.322284 
L 231.122817 70.116254 
L 231.447797 73.037459 
L 231.772776 73.339039 
L 232.422735 66.010797 
L 232.747715 70.523026 
L 233.072695 65.296281 
L 233.397674 62.365493 
L 233.722654 70.366083 
L 234.047633 70.966698 
L 234.372613 74.347242 
L 234.697592 64.796584 
L 235.022572 77.047863 
L 235.347551 66.347905 
L 235.672531 73.036683 
L 235.99751 73.348224 
L 236.647469 67.759301 
L 236.972449 62.315492 
L 237.297428 75.022531 
L 237.622408 71.691969 
L 237.947387 62.727214 
L 238.272367 67.699955 
L 238.597346 78.282574 
L 238.922326 61.715393 
L 239.572285 74.551582 
L 239.897265 66.932933 
L 240.222244 75.587956 
L 240.547224 67.35569 
L 240.872203 66.874044 
L 241.522162 72.912962 
L 241.847142 61.686565 
L 242.172121 72.891947 
L 242.497101 66.93852 
L 242.82208 73.553479 
L 243.14706 64.889986 
L 243.472039 72.329882 
L 243.797019 77.199796 
L 244.121998 74.135088 
L 244.446978 69.292609 
L 244.771957 73.011673 
L 245.096937 65.842461 
L 245.421916 67.686197 
L 245.746896 67.868509 
L 246.071876 65.5378 
L 246.396855 68.146828 
L 246.721835 74.12634 
L 247.046814 65.002852 
L 247.371794 71.621251 
L 247.696773 66.387309 
L 248.021753 72.600248 
L 248.346732 68.620401 
L 248.671712 70.418907 
L 248.996691 67.188965 
L 249.321671 70.425746 
L 249.64665 76.757715 
L 249.97163 67.122422 
L 250.296609 72.139498 
L 250.946568 64.297701 
L 251.596527 77.699832 
L 251.921507 69.141312 
L 252.246486 68.687541 
L 252.571466 80.557556 
L 252.896446 71.138075 
L 253.221425 70.931866 
L 253.546405 76.998359 
L 253.871384 64.71503 
L 254.196364 71.133661 
L 254.521343 69.279408 
L 254.846323 70.492031 
L 255.171302 75.447018 
L 255.821261 67.857038 
L 256.146241 65.77735 
L 256.47122 75.407653 
L 256.7962 69.295333 
L 257.121179 66.900844 
L 257.446159 65.555971 
L 257.771138 73.290807 
L 258.096118 63.474454 
L 258.421097 67.856024 
L 258.746077 68.78659 
L 259.071057 63.897867 
L 259.396036 66.106307 
L 259.721016 64.110697 
L 260.045995 71.914879 
L 260.370975 70.03985 
L 260.695954 75.436123 
L 261.020934 67.69586 
L 261.345913 70.00621 
L 261.670893 65.613528 
L 261.995872 58.619749 
L 262.320852 68.708158 
L 262.645831 70.194646 
L 262.970811 68.0979 
L 263.29579 71.415499 
L 263.62077 73.253569 
L 264.270729 68.057899 
L 264.595708 66.198457 
L 264.920688 69.780339 
L 265.245667 68.775536 
L 265.570647 68.380076 
L 265.895627 66.892017 
L 266.220606 74.907458 
L 266.545586 75.005413 
L 266.870565 72.729318 
L 267.195545 67.67735 
L 267.520524 68.106966 
L 267.845504 55.469432 
L 268.170483 72.317476 
L 268.495463 61.860825 
L 268.820442 68.418049 
L 269.145422 70.516624 
L 269.470401 73.683165 
L 269.795381 67.037211 
L 270.12036 74.72614 
L 270.44534 67.544682 
L 270.770319 66.767639 
L 271.420278 67.769082 
L 271.745258 73.157443 
L 272.070238 60.665519 
L 272.395217 67.984099 
L 272.720197 69.422196 
L 273.045176 75.329519 
L 273.370156 64.985019 
L 273.695135 68.271066 
L 274.020115 67.646534 
L 274.345094 59.288299 
L 275.320033 73.573977 
L 275.645012 65.28809 
L 275.969992 72.921491 
L 276.294971 72.938191 
L 276.619951 67.87845 
L 276.94493 72.785165 
L 277.26991 75.716947 
L 277.594889 68.945839 
L 277.919869 67.128406 
L 278.244848 63.817328 
L 278.569828 67.991316 
L 278.894808 67.343423 
L 279.219787 67.359765 
L 279.544767 65.10037 
L 279.869746 65.32487 
L 280.194726 64.204298 
L 280.519705 68.701776 
L 280.844685 71.40204 
L 281.169664 65.161008 
L 281.494644 73.481588 
L 281.819623 71.364007 
L 282.144603 68.295978 
L 282.469582 71.259133 
L 282.794562 63.975762 
L 283.119541 73.749151 
L 283.444521 65.126256 
L 283.7695 70.252003 
L 284.09448 62.195866 
L 284.419459 64.99158 
L 284.744439 60.724229 
L 285.069419 70.019929 
L 285.394398 65.499608 
L 286.044357 75.067582 
L 286.369337 71.087099 
L 286.694316 76.261119 
L 287.019296 62.704927 
L 287.344275 63.408289 
L 287.994234 72.033869 
L 288.319214 69.740715 
L 288.644193 64.405478 
L 288.969173 68.483479 
L 289.294152 69.186205 
L 289.619132 62.86527 
L 290.269091 72.806179 
L 290.59407 72.913439 
L 290.91905 62.601544 
L 291.244029 73.481548 
L 291.569009 60.975151 
L 291.893989 69.183004 
L 292.218968 59.712746 
L 292.543948 72.300557 
L 292.868927 63.237688 
L 293.518886 72.459528 
L 293.843866 66.448683 
L 294.168845 64.32633 
L 294.493825 69.363129 
L 294.818804 64.79388 
L 295.143784 73.596025 
L 295.468763 69.424323 
L 295.793743 62.333047 
L 296.118722 65.154547 
L 296.443702 71.395558 
L 296.768681 69.418041 
L 297.093661 65.591539 
L 297.41864 70.699373 
L 297.74362 68.460834 
L 298.0686 72.604006 
L 298.393579 73.119708 
L 298.718559 69.560133 
L 299.043538 67.992628 
L 299.368518 76.772208 
L 300.018477 66.111694 
L 300.343456 71.704156 
L 300.668436 67.572257 
L 300.993415 61.510218 
L 301.318395 68.347987 
L 301.643374 70.125141 
L 301.968354 56.075176 
L 302.293333 67.638899 
L 302.618313 64.289848 
L 302.943292 75.520022 
L 303.268272 66.607018 
L 303.593251 66.231718 
L 303.918231 71.194459 
L 304.24321 63.750348 
L 304.56819 63.966796 
L 304.89317 68.775595 
L 305.218149 64.857917 
L 305.543129 73.150285 
L 305.868108 72.175126 
L 306.193088 64.212828 
L 306.518067 64.095746 
L 306.843047 69.846961 
L 307.168026 64.724931 
L 307.493006 64.519875 
L 307.817985 73.103167 
L 308.142965 68.819672 
L 308.467944 80.747224 
L 308.792924 64.403688 
L 309.117903 70.385944 
L 309.442883 66.717121 
L 309.767862 57.440428 
L 310.092842 68.37598 
L 310.417821 70.834924 
L 310.742801 63.151562 
L 311.067781 67.408793 
L 311.39276 69.236922 
L 311.71774 75.035613 
L 312.042719 67.866819 
L 312.367699 66.722926 
L 312.692678 73.003661 
L 313.342637 63.53722 
L 313.667617 66.373174 
L 313.992596 67.777015 
L 314.317576 62.269009 
L 314.642555 69.652104 
L 314.967535 72.470145 
L 315.292514 79.99056 
L 315.617494 72.328769 
L 315.942473 73.924604 
L 316.267453 65.56452 
L 316.592432 66.143902 
L 316.917412 74.694966 
L 317.242391 61.965978 
L 317.567371 62.638325 
L 317.892351 67.85165 
L 318.21733 64.62127 
L 318.54231 71.204896 
L 318.867289 67.796121 
L 319.192269 66.793923 
L 319.517248 60.768862 
L 319.842228 62.593174 
L 320.167207 70.132795 
L 320.492187 70.183274 
L 320.817166 64.130479 
L 321.142146 66.593121 
L 321.467125 64.239091 
L 321.792105 60.093672 
L 322.117084 66.43413 
L 322.442064 66.342139 
L 322.767043 64.715468 
L 323.092023 64.344184 
L 323.741982 66.142471 
L 324.066962 63.679093 
L 324.391941 56.182893 
L 324.716921 74.103178 
L 325.0419 66.086843 
L 325.36688 65.885306 
L 325.691859 59.37862 
L 326.016839 68.652132 
L 326.341818 67.73604 
L 326.666798 70.271408 
L 326.991777 75.212617 
L 327.316757 64.19235 
L 327.641736 69.149424 
L 327.966716 69.397941 
L 328.291695 62.761569 
L 328.616675 72.70375 
L 328.941654 65.476883 
L 329.266634 69.826205 
L 329.591613 53.568 
L 329.916593 70.519765 
L 330.566552 62.039061 
L 330.891532 55.705801 
L 331.541491 74.768805 
L 331.86647 68.142196 
L 332.19145 65.745321 
L 332.516429 68.789711 
L 332.841409 67.067569 
L 333.166388 66.53636 
L 333.491368 67.110931 
L 333.816347 69.366827 
L 334.141327 63.950334 
L 334.466306 63.274965 
L 334.791286 64.325575 
L 335.116265 68.429063 
L 335.441245 64.134634 
L 335.766224 68.24862 
L 336.091204 65.526726 
L 336.416183 66.372418 
L 336.741163 69.210758 
L 337.066143 68.135714 
L 337.391122 68.805258 
L 337.716102 66.65034 
L 338.366061 71.932056 
L 338.69104 64.643418 
L 339.01602 60.873438 
L 339.665979 71.050299 
L 339.990958 73.564513 
L 340.315938 64.726522 
L 340.640917 63.954847 
L 340.965897 64.817976 
L 341.290876 66.082469 
L 341.615856 73.495167 
L 341.940835 74.23851 
L 342.265815 74.409311 
L 342.590794 65.040985 
L 342.915774 66.741038 
L 343.240753 69.832189 
L 343.565733 63.2759 
L 343.890713 69.621129 
L 344.215692 68.987013 
L 344.540672 60.273718 
L 345.190631 72.496587 
L 345.51561 68.40618 
L 345.84059 69.49524 
L 346.165569 76.942949 
L 346.490549 62.448657 
L 346.815528 64.960783 
L 347.465487 66.888796 
L 347.790467 68.845279 
L 348.115446 74.922727 
L 348.440426 70.943516 
L 348.765405 69.16857 
L 349.090385 73.003939 
L 349.415364 62.858511 
L 349.740344 68.566722 
L 350.065324 68.447672 
L 350.390303 69.634171 
L 350.715283 67.289545 
L 351.040262 62.663057 
L 351.690221 69.082623 
L 352.015201 61.794521 
L 352.34018 67.487682 
L 352.66516 68.034697 
L 353.315119 60.102758 
L 353.640098 73.717381 
L 353.965078 67.328214 
L 354.290057 64.813542 
L 354.615037 68.355224 
L 355.264996 65.68516 
L 355.589975 70.357474 
L 355.914955 63.969003 
L 356.239934 71.518624 
L 356.564914 63.204665 
L 356.889894 63.780229 
L 357.214873 68.986318 
L 357.539853 63.335404 
L 357.864832 63.180688 
L 358.514791 65.447837 
L 358.839771 68.057879 
L 359.16475 73.75776 
L 359.48973 65.725658 
L 359.814709 64.024671 
L 360.139689 57.163083 
L 360.464668 68.61905 
L 360.789648 70.443421 
L 361.114627 70.600702 
L 361.439607 61.347807 
L 361.764586 70.757825 
L 362.414545 61.112333 
L 363.064505 74.459869 
L 363.389484 67.832047 
L 363.714464 67.600668 
L 364.039443 68.911544 
L 364.364423 64.501843 
L 364.689402 66.240327 
L 365.014382 61.696566 
L 365.339361 64.302473 
L 365.98932 77.447498 
L 366.3143 67.974059 
L 366.639279 62.730853 
L 367.289238 69.94269 
L 367.614218 67.386864 
L 367.939197 63.378766 
L 368.589156 71.930128 
L 368.914136 74.722641 
L 369.239115 63.712076 
L 369.564095 73.903868 
L 369.889075 66.052627 
L 370.214054 68.544972 
L 370.539034 63.646368 
L 370.864013 64.418003 
L 371.188993 70.441711 
L 371.513972 70.506902 
L 371.838952 72.294115 
L 372.163931 70.406859 
L 372.488911 57.310145 
L 372.81389 59.807659 
L 373.13887 67.720393 
L 373.788829 70.820252 
L 374.113808 67.074647 
L 374.438788 66.156467 
L 374.763767 58.375567 
L 375.088747 67.195983 
L 375.738706 69.985951 
L 376.063686 63.364411 
L 376.388665 66.671533 
L 376.713645 80.129988 
L 377.038624 62.828052 
L 377.688583 69.097275 
L 378.013563 69.547627 
L 378.338542 71.71187 
L 378.663522 63.71144 
L 378.988501 63.191463 
L 379.313481 70.026032 
L 379.63846 58.772239 
L 379.96344 71.18241 
L 380.613399 60.170156 
L 380.938378 60.303917 
L 381.263358 60.784867 
L 381.588337 64.666619 
L 381.913317 65.56128 
L 382.238296 69.371996 
L 382.563276 62.61737 
L 382.888256 67.54506 
L 383.213235 55.685144 
L 383.863194 74.536989 
L 384.513153 62.620133 
L 384.838133 65.3166 
L 385.163112 62.908214 
L 385.488092 67.60363 
L 385.813071 74.850339 
L 386.138051 61.485704 
L 386.46303 70.263753 
L 386.78801 68.465168 
L 387.112989 72.524202 
L 387.437969 71.223406 
L 387.762948 65.618995 
L 388.087928 67.774908 
L 388.412907 73.761994 
L 388.737887 66.808635 
L 389.062867 65.538615 
L 389.387846 69.594011 
L 389.712826 71.131216 
L 390.037805 68.993694 
L 390.362785 63.403299 
L 390.687764 63.113489 
L 391.012744 63.692771 
L 391.337723 71.719425 
L 391.662703 63.244646 
L 391.987682 65.953956 
L 392.312662 62.181969 
L 392.637641 72.104408 
L 392.962621 59.029265 
L 393.2876 67.440126 
L 393.937559 62.239326 
L 394.262539 63.092693 
L 394.587518 68.925381 
L 394.912498 65.513584 
L 395.237477 72.34694 
L 395.887437 57.686758 
L 396.212416 67.872465 
L 396.537396 64.243445 
L 396.862375 63.827348 
L 397.512334 67.023055 
L 397.837314 66.818834 
L 398.162293 67.706218 
L 398.487273 73.21325 
L 398.487273 73.21325 
" style="fill:none;stroke:#2ca02c;stroke-linecap:square;stroke-width:1.5;"/>
   </g>
   <g id="patch_3">
    <path d="M 57.6 307.584 
L 57.6 41.472 
" style="fill:none;stroke:#000000;stroke-linecap:square;stroke-linejoin:miter;stroke-width:0.8;"/>
   </g>
   <g id="patch_4">
    <path d="M 414.72 307.584 
L 414.72 41.472 
" style="fill:none;stroke:#000000;stroke-linecap:square;stroke-linejoin:miter;stroke-width:0.8;"/>
   </g>
   <g id="patch_5">
    <path d="M 57.6 307.584 
L 414.72 307.584 
" style="fill:none;stroke:#000000;stroke-linecap:square;stroke-linejoin:miter;stroke-width:0.8;"/>
   </g>
   <g id="patch_6">
    <path d="M 57.6 41.472 
L 414.72 41.472 
" style="fill:none;stroke:#000000;stroke-linecap:square;stroke-linejoin:miter;stroke-width:0.8;"/>
   </g>
   <g id="text_12">
    <!-- -greedy bandits -->
    <defs>
     <path d="M 19.28125 29.5 
Q 13.8125 30.671875 10.890625 33.84375 
Q 7.953125 36.96875 7.953125 41.5 
Q 7.953125 48.390625 13.53125 52.25 
Q 19.046875 56.0625 28.609375 56.0625 
Q 32.328125 56.0625 36.46875 55.46875 
Q 40.625 54.890625 45.40625 53.71875 
L 45.40625 45.5625 
Q 40.671875 46.96875 36.765625 47.609375 
Q 32.8125 48.25 29.34375 48.25 
Q 23.53125 48.25 20.171875 46 
Q 16.75 43.75 16.75 40.625 
Q 16.75 37.203125 20.0625 35.015625 
Q 23.34375 32.859375 29 32.859375 
L 36.578125 32.859375 
L 36.578125 25.4375 
L 29.34375 25.4375 
Q 22.65625 25.4375 19.140625 22.953125 
Q 15.328125 20.21875 15.328125 15.921875 
Q 15.328125 11.53125 19.4375 8.796875 
Q 23.578125 6.0625 30.953125 6.0625 
Q 35.5 6.0625 39.65625 6.9375 
Q 43.796875 7.859375 47.265625 9.671875 
L 47.265625 1.3125 
Q 42.875 -0.046875 38.765625 -0.734375 
Q 34.625 -1.421875 30.71875 -1.421875 
Q 19.09375 -1.421875 12.796875 3.03125 
Q 6.5 7.46875 6.5 15.921875 
Q 6.5 21.1875 9.859375 24.75 
Q 13.234375 28.328125 19.28125 29.5 
z
" id="DejaVuSans-3b5"/>
     <path d="M 4.890625 31.390625 
L 31.203125 31.390625 
L 31.203125 23.390625 
L 4.890625 23.390625 
z
" id="DejaVuSans-2d"/>
     <path d="M 32.171875 -5.078125 
Q 28.375 -14.84375 24.75 -17.8125 
Q 21.140625 -20.796875 15.09375 -20.796875 
L 7.90625 -20.796875 
L 7.90625 -13.28125 
L 13.1875 -13.28125 
Q 16.890625 -13.28125 18.9375 -11.515625 
Q 21 -9.765625 23.484375 -3.21875 
L 25.09375 0.875 
L 2.984375 54.6875 
L 12.5 54.6875 
L 29.59375 11.921875 
L 46.6875 54.6875 
L 56.203125 54.6875 
z
" id="DejaVuSans-79"/>
     <path d="M 48.6875 27.296875 
Q 48.6875 37.203125 44.609375 42.84375 
Q 40.53125 48.484375 33.40625 48.484375 
Q 26.265625 48.484375 22.1875 42.84375 
Q 18.109375 37.203125 18.109375 27.296875 
Q 18.109375 17.390625 22.1875 11.75 
Q 26.265625 6.109375 33.40625 6.109375 
Q 40.53125 6.109375 44.609375 11.75 
Q 48.6875 17.390625 48.6875 27.296875 
z
M 18.109375 46.390625 
Q 20.953125 51.265625 25.265625 53.625 
Q 29.59375 56 35.59375 56 
Q 45.5625 56 51.78125 48.09375 
Q 58.015625 40.1875 58.015625 27.296875 
Q 58.015625 14.40625 51.78125 6.484375 
Q 45.5625 -1.421875 35.59375 -1.421875 
Q 29.59375 -1.421875 25.265625 0.953125 
Q 20.953125 3.328125 18.109375 8.203125 
L 18.109375 0 
L 9.078125 0 
L 9.078125 75.984375 
L 18.109375 75.984375 
z
" id="DejaVuSans-62"/>
     <path d="M 54.890625 33.015625 
L 54.890625 0 
L 45.90625 0 
L 45.90625 32.71875 
Q 45.90625 40.484375 42.875 44.328125 
Q 39.84375 48.1875 33.796875 48.1875 
Q 26.515625 48.1875 22.3125 43.546875 
Q 18.109375 38.921875 18.109375 30.90625 
L 18.109375 0 
L 9.078125 0 
L 9.078125 54.6875 
L 18.109375 54.6875 
L 18.109375 46.1875 
Q 21.34375 51.125 25.703125 53.5625 
Q 30.078125 56 35.796875 56 
Q 45.21875 56 50.046875 50.171875 
Q 54.890625 44.34375 54.890625 33.015625 
z
" id="DejaVuSans-6e"/>
     <path d="M 9.421875 54.6875 
L 18.40625 54.6875 
L 18.40625 0 
L 9.421875 0 
z
M 9.421875 75.984375 
L 18.40625 75.984375 
L 18.40625 64.59375 
L 9.421875 64.59375 
z
" id="DejaVuSans-69"/>
    </defs>
    <g transform="translate(185.585625 35.472)scale(0.12 -0.12)">
     <use xlink:href="#DejaVuSans-3b5"/>
     <use x="54.052734" xlink:href="#DejaVuSans-2d"/>
     <use x="90.136719" xlink:href="#DejaVuSans-67"/>
     <use x="153.613281" xlink:href="#DejaVuSans-72"/>
     <use x="194.695312" xlink:href="#DejaVuSans-65"/>
     <use x="256.21875" xlink:href="#DejaVuSans-65"/>
     <use x="317.742188" xlink:href="#DejaVuSans-64"/>
     <use x="381.21875" xlink:href="#DejaVuSans-79"/>
     <use x="440.398438" xlink:href="#DejaVuSans-20"/>
     <use x="472.185547" xlink:href="#DejaVuSans-62"/>
     <use x="535.662109" xlink:href="#DejaVuSans-61"/>
     <use x="596.941406" xlink:href="#DejaVuSans-6e"/>
     <use x="660.320312" xlink:href="#DejaVuSans-64"/>
     <use x="723.796875" xlink:href="#DejaVuSans-69"/>
     <use x="751.580078" xlink:href="#DejaVuSans-74"/>
     <use x="790.789062" xlink:href="#DejaVuSans-73"/>
    </g>
   </g>
   <g id="legend_1">
    <g id="patch_7">
     <path d="M 339.67 302.584 
L 407.72 302.584 
Q 409.72 302.584 409.72 300.584 
L 409.72 257.549625 
Q 409.72 255.549625 407.72 255.549625 
L 339.67 255.549625 
Q 337.67 255.549625 337.67 257.549625 
L 337.67 300.584 
Q 337.67 302.584 339.67 302.584 
z
" style="fill:#ffffff;opacity:0.8;stroke:#cccccc;stroke-linejoin:miter;"/>
    </g>
    <g id="line2d_13">
     <path d="M 341.67 263.648062 
L 361.67 263.648062 
" style="fill:none;stroke:#1f77b4;stroke-linecap:square;stroke-width:1.5;"/>
    </g>
    <g id="line2d_14"/>
    <g id="text_13">
     <!-- =0, -->
     <defs>
      <path d="M 10.59375 45.40625 
L 73.1875 45.40625 
L 73.1875 37.203125 
L 10.59375 37.203125 
z
M 10.59375 25.484375 
L 73.1875 25.484375 
L 73.1875 17.1875 
L 10.59375 17.1875 
z
" id="DejaVuSans-3d"/>
      <path d="M 11.71875 12.40625 
L 22.015625 12.40625 
L 22.015625 4 
L 14.015625 -11.625 
L 7.71875 -11.625 
L 11.71875 4 
z
" id="DejaVuSans-2c"/>
     </defs>
     <g transform="translate(369.67 267.148062)scale(0.1 -0.1)">
      <use xlink:href="#DejaVuSans-3b5"/>
      <use x="54.052734" xlink:href="#DejaVuSans-3d"/>
      <use x="137.841797" xlink:href="#DejaVuSans-30"/>
      <use x="201.464844" xlink:href="#DejaVuSans-2c"/>
     </g>
    </g>
    <g id="line2d_15">
     <path d="M 341.67 278.326188 
L 361.67 278.326188 
" style="fill:none;stroke:#ff7f0e;stroke-linecap:square;stroke-width:1.5;"/>
    </g>
    <g id="line2d_16"/>
    <g id="text_14">
     <!-- =0.01 -->
     <g transform="translate(369.67 281.826188)scale(0.1 -0.1)">
      <use xlink:href="#DejaVuSans-3b5"/>
      <use x="54.052734" xlink:href="#DejaVuSans-3d"/>
      <use x="137.841797" xlink:href="#DejaVuSans-30"/>
      <use x="201.464844" xlink:href="#DejaVuSans-2e"/>
      <use x="233.251953" xlink:href="#DejaVuSans-30"/>
      <use x="296.875" xlink:href="#DejaVuSans-31"/>
     </g>
    </g>
    <g id="line2d_17">
     <path d="M 341.67 293.004312 
L 361.67 293.004312 
" style="fill:none;stroke:#2ca02c;stroke-linecap:square;stroke-width:1.5;"/>
    </g>
    <g id="line2d_18"/>
    <g id="text_15">
     <!-- =0.1 -->
     <g transform="translate(369.67 296.504312)scale(0.1 -0.1)">
      <use xlink:href="#DejaVuSans-3b5"/>
      <use x="54.052734" xlink:href="#DejaVuSans-3d"/>
      <use x="137.841797" xlink:href="#DejaVuSans-30"/>
      <use x="201.464844" xlink:href="#DejaVuSans-2e"/>
      <use x="233.251953" xlink:href="#DejaVuSans-31"/>
     </g>
    </g>
   </g>
  </g>
 </g>
 <defs>
  <clipPath id="p9ab4704785">
   <rect height="266.112" width="357.12" x="57.6" y="41.472"/>
  </clipPath>
 </defs>
</svg>
