<?xml version="1.0" encoding="utf-8" standalone="no"?>
<!DOCTYPE svg PUBLIC "-//W3C//DTD SVG 1.1//EN"
  "http://www.w3.org/Graphics/SVG/1.1/DTD/svg11.dtd">
<!-- Created with matplotlib (http://matplotlib.org/) -->
<svg height="345.6pt" version="1.1" viewBox="0 0 460.8 345.6" width="460.8pt" xmlns="http://www.w3.org/2000/svg" xmlns:xlink="http://www.w3.org/1999/xlink">
 <defs>
  <style type="text/css">
*{stroke-linecap:butt;stroke-linejoin:round;}
  </style>
 </defs>
 <g id="figure_1">
  <g id="patch_1">
   <path d="M 0 345.6 
L 460.8 345.6 
L 460.8 0 
L 0 0 
z
" style="fill:#ffffff;"/>
  </g>
  <g id="axes_1">
   <g id="patch_2">
    <path d="M 57.6 307.584 
L 414.72 307.584 
L 414.72 41.472 
L 57.6 41.472 
z
" style="fill:#ffffff;"/>
   </g>
   <g id="matplotlib.axis_1">
    <g id="xtick_1">
     <g id="line2d_1">
      <defs>
       <path d="M 0 0 
L 0 3.5 
" id="m736b163021" style="stroke:#000000;stroke-width:0.8;"/>
      </defs>
      <g>
       <use style="stroke:#000000;stroke-width:0.8;" x="73.832727" xlink:href="#m736b163021" y="307.584"/>
      </g>
     </g>
     <g id="text_1">
      <!-- 0 -->
      <defs>
       <path d="M 31.78125 66.40625 
Q 24.171875 66.40625 20.328125 58.90625 
Q 16.5 51.421875 16.5 36.375 
Q 16.5 21.390625 20.328125 13.890625 
Q 24.171875 6.390625 31.78125 6.390625 
Q 39.453125 6.390625 43.28125 13.890625 
Q 47.125 21.390625 47.125 36.375 
Q 47.125 51.421875 43.28125 58.90625 
Q 39.453125 66.40625 31.78125 66.40625 
z
M 31.78125 74.21875 
Q 44.046875 74.21875 50.515625 64.515625 
Q 56.984375 54.828125 56.984375 36.375 
Q 56.984375 17.96875 50.515625 8.265625 
Q 44.046875 -1.421875 31.78125 -1.421875 
Q 19.53125 -1.421875 13.0625 8.265625 
Q 6.59375 17.96875 6.59375 36.375 
Q 6.59375 54.828125 13.0625 64.515625 
Q 19.53125 74.21875 31.78125 74.21875 
z
" id="DejaVuSans-30"/>
      </defs>
      <g transform="translate(70.651477 322.182437)scale(0.1 -0.1)">
       <use xlink:href="#DejaVuSans-30"/>
      </g>
     </g>
    </g>
    <g id="xtick_2">
     <g id="line2d_2">
      <g>
       <use style="stroke:#000000;stroke-width:0.8;" x="155.077609" xlink:href="#m736b163021" y="307.584"/>
      </g>
     </g>
     <g id="text_2">
      <!-- 250 -->
      <defs>
       <path d="M 19.1875 8.296875 
L 53.609375 8.296875 
L 53.609375 0 
L 7.328125 0 
L 7.328125 8.296875 
Q 12.9375 14.109375 22.625 23.890625 
Q 32.328125 33.6875 34.8125 36.53125 
Q 39.546875 41.84375 41.421875 45.53125 
Q 43.3125 49.21875 43.3125 52.78125 
Q 43.3125 58.59375 39.234375 62.25 
Q 35.15625 65.921875 28.609375 65.921875 
Q 23.96875 65.921875 18.8125 64.3125 
Q 13.671875 62.703125 7.8125 59.421875 
L 7.8125 69.390625 
Q 13.765625 71.78125 18.9375 73 
Q 24.125 74.21875 28.421875 74.21875 
Q 39.75 74.21875 46.484375 68.546875 
Q 53.21875 62.890625 53.21875 53.421875 
Q 53.21875 48.921875 51.53125 44.890625 
Q 49.859375 40.875 45.40625 35.40625 
Q 44.1875 33.984375 37.640625 27.21875 
Q 31.109375 20.453125 19.1875 8.296875 
z
" id="DejaVuSans-32"/>
       <path d="M 10.796875 72.90625 
L 49.515625 72.90625 
L 49.515625 64.59375 
L 19.828125 64.59375 
L 19.828125 46.734375 
Q 21.96875 47.46875 24.109375 47.828125 
Q 26.265625 48.1875 28.421875 48.1875 
Q 40.625 48.1875 47.75 41.5 
Q 54.890625 34.8125 54.890625 23.390625 
Q 54.890625 11.625 47.5625 5.09375 
Q 40.234375 -1.421875 26.90625 -1.421875 
Q 22.3125 -1.421875 17.546875 -0.640625 
Q 12.796875 0.140625 7.71875 1.703125 
L 7.71875 11.625 
Q 12.109375 9.234375 16.796875 8.0625 
Q 21.484375 6.890625 26.703125 6.890625 
Q 35.15625 6.890625 40.078125 11.328125 
Q 45.015625 15.765625 45.015625 23.390625 
Q 45.015625 31 40.078125 35.4375 
Q 35.15625 39.890625 26.703125 39.890625 
Q 22.75 39.890625 18.8125 39.015625 
Q 14.890625 38.140625 10.796875 36.28125 
z
" id="DejaVuSans-35"/>
      </defs>
      <g transform="translate(145.533859 322.182437)scale(0.1 -0.1)">
       <use xlink:href="#DejaVuSans-32"/>
       <use x="63.623047" xlink:href="#DejaVuSans-35"/>
       <use x="127.246094" xlink:href="#DejaVuSans-30"/>
      </g>
     </g>
    </g>
    <g id="xtick_3">
     <g id="line2d_3">
      <g>
       <use style="stroke:#000000;stroke-width:0.8;" x="236.32249" xlink:href="#m736b163021" y="307.584"/>
      </g>
     </g>
     <g id="text_3">
      <!-- 500 -->
      <g transform="translate(226.77874 322.182437)scale(0.1 -0.1)">
       <use xlink:href="#DejaVuSans-35"/>
       <use x="63.623047" xlink:href="#DejaVuSans-30"/>
       <use x="127.246094" xlink:href="#DejaVuSans-30"/>
      </g>
     </g>
    </g>
    <g id="xtick_4">
     <g id="line2d_4">
      <g>
       <use style="stroke:#000000;stroke-width:0.8;" x="317.567371" xlink:href="#m736b163021" y="307.584"/>
      </g>
     </g>
     <g id="text_4">
      <!-- 750 -->
      <defs>
       <path d="M 8.203125 72.90625 
L 55.078125 72.90625 
L 55.078125 68.703125 
L 28.609375 0 
L 18.3125 0 
L 43.21875 64.59375 
L 8.203125 64.59375 
z
" id="DejaVuSans-37"/>
      </defs>
      <g transform="translate(308.023621 322.182437)scale(0.1 -0.1)">
       <use xlink:href="#DejaVuSans-37"/>
       <use x="63.623047" xlink:href="#DejaVuSans-35"/>
       <use x="127.246094" xlink:href="#DejaVuSans-30"/>
      </g>
     </g>
    </g>
    <g id="xtick_5">
     <g id="line2d_5">
      <g>
       <use style="stroke:#000000;stroke-width:0.8;" x="398.812252" xlink:href="#m736b163021" y="307.584"/>
      </g>
     </g>
     <g id="text_5">
      <!-- 1000 -->
      <defs>
       <path d="M 12.40625 8.296875 
L 28.515625 8.296875 
L 28.515625 63.921875 
L 10.984375 60.40625 
L 10.984375 69.390625 
L 28.421875 72.90625 
L 38.28125 72.90625 
L 38.28125 8.296875 
L 54.390625 8.296875 
L 54.390625 0 
L 12.40625 0 
z
" id="DejaVuSans-31"/>
      </defs>
      <g transform="translate(386.087252 322.182437)scale(0.1 -0.1)">
       <use xlink:href="#DejaVuSans-31"/>
       <use x="63.623047" xlink:href="#DejaVuSans-30"/>
       <use x="127.246094" xlink:href="#DejaVuSans-30"/>
       <use x="190.869141" xlink:href="#DejaVuSans-30"/>
      </g>
     </g>
    </g>
    <g id="text_6">
     <!-- Steps -->
     <defs>
      <path d="M 53.515625 70.515625 
L 53.515625 60.890625 
Q 47.90625 63.578125 42.921875 64.890625 
Q 37.9375 66.21875 33.296875 66.21875 
Q 25.25 66.21875 20.875 63.09375 
Q 16.5 59.96875 16.5 54.203125 
Q 16.5 49.359375 19.40625 46.890625 
Q 22.3125 44.4375 30.421875 42.921875 
L 36.375 41.703125 
Q 47.40625 39.59375 52.65625 34.296875 
Q 57.90625 29 57.90625 20.125 
Q 57.90625 9.515625 50.796875 4.046875 
Q 43.703125 -1.421875 29.984375 -1.421875 
Q 24.8125 -1.421875 18.96875 -0.25 
Q 13.140625 0.921875 6.890625 3.21875 
L 6.890625 13.375 
Q 12.890625 10.015625 18.65625 8.296875 
Q 24.421875 6.59375 29.984375 6.59375 
Q 38.421875 6.59375 43.015625 9.90625 
Q 47.609375 13.234375 47.609375 19.390625 
Q 47.609375 24.75 44.3125 27.78125 
Q 41.015625 30.8125 33.5 32.328125 
L 27.484375 33.5 
Q 16.453125 35.6875 11.515625 40.375 
Q 6.59375 45.0625 6.59375 53.421875 
Q 6.59375 63.09375 13.40625 68.65625 
Q 20.21875 74.21875 32.171875 74.21875 
Q 37.3125 74.21875 42.625 73.28125 
Q 47.953125 72.359375 53.515625 70.515625 
z
" id="DejaVuSans-53"/>
      <path d="M 18.3125 70.21875 
L 18.3125 54.6875 
L 36.8125 54.6875 
L 36.8125 47.703125 
L 18.3125 47.703125 
L 18.3125 18.015625 
Q 18.3125 11.328125 20.140625 9.421875 
Q 21.96875 7.515625 27.59375 7.515625 
L 36.8125 7.515625 
L 36.8125 0 
L 27.59375 0 
Q 17.1875 0 13.234375 3.875 
Q 9.28125 7.765625 9.28125 18.015625 
L 9.28125 47.703125 
L 2.6875 47.703125 
L 2.6875 54.6875 
L 9.28125 54.6875 
L 9.28125 70.21875 
z
" id="DejaVuSans-74"/>
      <path d="M 56.203125 29.59375 
L 56.203125 25.203125 
L 14.890625 25.203125 
Q 15.484375 15.921875 20.484375 11.0625 
Q 25.484375 6.203125 34.421875 6.203125 
Q 39.59375 6.203125 44.453125 7.46875 
Q 49.3125 8.734375 54.109375 11.28125 
L 54.109375 2.78125 
Q 49.265625 0.734375 44.1875 -0.34375 
Q 39.109375 -1.421875 33.890625 -1.421875 
Q 20.796875 -1.421875 13.15625 6.1875 
Q 5.515625 13.8125 5.515625 26.8125 
Q 5.515625 40.234375 12.765625 48.109375 
Q 20.015625 56 32.328125 56 
Q 43.359375 56 49.78125 48.890625 
Q 56.203125 41.796875 56.203125 29.59375 
z
M 47.21875 32.234375 
Q 47.125 39.59375 43.09375 43.984375 
Q 39.0625 48.390625 32.421875 48.390625 
Q 24.90625 48.390625 20.390625 44.140625 
Q 15.875 39.890625 15.1875 32.171875 
z
" id="DejaVuSans-65"/>
      <path d="M 18.109375 8.203125 
L 18.109375 -20.796875 
L 9.078125 -20.796875 
L 9.078125 54.6875 
L 18.109375 54.6875 
L 18.109375 46.390625 
Q 20.953125 51.265625 25.265625 53.625 
Q 29.59375 56 35.59375 56 
Q 45.5625 56 51.78125 48.09375 
Q 58.015625 40.1875 58.015625 27.296875 
Q 58.015625 14.40625 51.78125 6.484375 
Q 45.5625 -1.421875 35.59375 -1.421875 
Q 29.59375 -1.421875 25.265625 0.953125 
Q 20.953125 3.328125 18.109375 8.203125 
z
M 48.6875 27.296875 
Q 48.6875 37.203125 44.609375 42.84375 
Q 40.53125 48.484375 33.40625 48.484375 
Q 26.265625 48.484375 22.1875 42.84375 
Q 18.109375 37.203125 18.109375 27.296875 
Q 18.109375 17.390625 22.1875 11.75 
Q 26.265625 6.109375 33.40625 6.109375 
Q 40.53125 6.109375 44.609375 11.75 
Q 48.6875 17.390625 48.6875 27.296875 
z
" id="DejaVuSans-70"/>
      <path d="M 44.28125 53.078125 
L 44.28125 44.578125 
Q 40.484375 46.53125 36.375 47.5 
Q 32.28125 48.484375 27.875 48.484375 
Q 21.1875 48.484375 17.84375 46.4375 
Q 14.5 44.390625 14.5 40.28125 
Q 14.5 37.15625 16.890625 35.375 
Q 19.28125 33.59375 26.515625 31.984375 
L 29.59375 31.296875 
Q 39.15625 29.25 43.1875 25.515625 
Q 47.21875 21.78125 47.21875 15.09375 
Q 47.21875 7.46875 41.1875 3.015625 
Q 35.15625 -1.421875 24.609375 -1.421875 
Q 20.21875 -1.421875 15.453125 -0.5625 
Q 10.6875 0.296875 5.421875 2 
L 5.421875 11.28125 
Q 10.40625 8.6875 15.234375 7.390625 
Q 20.0625 6.109375 24.8125 6.109375 
Q 31.15625 6.109375 34.5625 8.28125 
Q 37.984375 10.453125 37.984375 14.40625 
Q 37.984375 18.0625 35.515625 20.015625 
Q 33.0625 21.96875 24.703125 23.78125 
L 21.578125 24.515625 
Q 13.234375 26.265625 9.515625 29.90625 
Q 5.8125 33.546875 5.8125 39.890625 
Q 5.8125 47.609375 11.28125 51.796875 
Q 16.75 56 26.8125 56 
Q 31.78125 56 36.171875 55.265625 
Q 40.578125 54.546875 44.28125 53.078125 
z
" id="DejaVuSans-73"/>
     </defs>
     <g transform="translate(222.170156 335.860562)scale(0.1 -0.1)">
      <use xlink:href="#DejaVuSans-53"/>
      <use x="63.476562" xlink:href="#DejaVuSans-74"/>
      <use x="102.685547" xlink:href="#DejaVuSans-65"/>
      <use x="164.208984" xlink:href="#DejaVuSans-70"/>
      <use x="227.685547" xlink:href="#DejaVuSans-73"/>
     </g>
    </g>
   </g>
   <g id="matplotlib.axis_2">
    <g id="ytick_1">
     <g id="line2d_6">
      <defs>
       <path d="M 0 0 
L -3.5 0 
" id="mefb5995d53" style="stroke:#000000;stroke-width:0.8;"/>
      </defs>
      <g>
       <use style="stroke:#000000;stroke-width:0.8;" x="57.6" xlink:href="#mefb5995d53" y="307.584"/>
      </g>
     </g>
     <g id="text_7">
      <!-- 0 -->
      <g transform="translate(44.2375 311.383219)scale(0.1 -0.1)">
       <use xlink:href="#DejaVuSans-30"/>
      </g>
     </g>
    </g>
    <g id="ytick_2">
     <g id="line2d_7">
      <g>
       <use style="stroke:#000000;stroke-width:0.8;" x="57.6" xlink:href="#mefb5995d53" y="254.3616"/>
      </g>
     </g>
     <g id="text_8">
      <!-- 20 -->
      <g transform="translate(37.875 258.160819)scale(0.1 -0.1)">
       <use xlink:href="#DejaVuSans-32"/>
       <use x="63.623047" xlink:href="#DejaVuSans-30"/>
      </g>
     </g>
    </g>
    <g id="ytick_3">
     <g id="line2d_8">
      <g>
       <use style="stroke:#000000;stroke-width:0.8;" x="57.6" xlink:href="#mefb5995d53" y="201.1392"/>
      </g>
     </g>
     <g id="text_9">
      <!-- 40 -->
      <defs>
       <path d="M 37.796875 64.3125 
L 12.890625 25.390625 
L 37.796875 25.390625 
z
M 35.203125 72.90625 
L 47.609375 72.90625 
L 47.609375 25.390625 
L 58.015625 25.390625 
L 58.015625 17.1875 
L 47.609375 17.1875 
L 47.609375 0 
L 37.796875 0 
L 37.796875 17.1875 
L 4.890625 17.1875 
L 4.890625 26.703125 
z
" id="DejaVuSans-34"/>
      </defs>
      <g transform="translate(37.875 204.938419)scale(0.1 -0.1)">
       <use xlink:href="#DejaVuSans-34"/>
       <use x="63.623047" xlink:href="#DejaVuSans-30"/>
      </g>
     </g>
    </g>
    <g id="ytick_4">
     <g id="line2d_9">
      <g>
       <use style="stroke:#000000;stroke-width:0.8;" x="57.6" xlink:href="#mefb5995d53" y="147.9168"/>
      </g>
     </g>
     <g id="text_10">
      <!-- 60 -->
      <defs>
       <path d="M 33.015625 40.375 
Q 26.375 40.375 22.484375 35.828125 
Q 18.609375 31.296875 18.609375 23.390625 
Q 18.609375 15.53125 22.484375 10.953125 
Q 26.375 6.390625 33.015625 6.390625 
Q 39.65625 6.390625 43.53125 10.953125 
Q 47.40625 15.53125 47.40625 23.390625 
Q 47.40625 31.296875 43.53125 35.828125 
Q 39.65625 40.375 33.015625 40.375 
z
M 52.59375 71.296875 
L 52.59375 62.3125 
Q 48.875 64.0625 45.09375 64.984375 
Q 41.3125 65.921875 37.59375 65.921875 
Q 27.828125 65.921875 22.671875 59.328125 
Q 17.53125 52.734375 16.796875 39.40625 
Q 19.671875 43.65625 24.015625 45.921875 
Q 28.375 48.1875 33.59375 48.1875 
Q 44.578125 48.1875 50.953125 41.515625 
Q 57.328125 34.859375 57.328125 23.390625 
Q 57.328125 12.15625 50.6875 5.359375 
Q 44.046875 -1.421875 33.015625 -1.421875 
Q 20.359375 -1.421875 13.671875 8.265625 
Q 6.984375 17.96875 6.984375 36.375 
Q 6.984375 53.65625 15.1875 63.9375 
Q 23.390625 74.21875 37.203125 74.21875 
Q 40.921875 74.21875 44.703125 73.484375 
Q 48.484375 72.75 52.59375 71.296875 
z
" id="DejaVuSans-36"/>
      </defs>
      <g transform="translate(37.875 151.716019)scale(0.1 -0.1)">
       <use xlink:href="#DejaVuSans-36"/>
       <use x="63.623047" xlink:href="#DejaVuSans-30"/>
      </g>
     </g>
    </g>
    <g id="ytick_5">
     <g id="line2d_10">
      <g>
       <use style="stroke:#000000;stroke-width:0.8;" x="57.6" xlink:href="#mefb5995d53" y="94.6944"/>
      </g>
     </g>
     <g id="text_11">
      <!-- 80 -->
      <defs>
       <path d="M 31.78125 34.625 
Q 24.75 34.625 20.71875 30.859375 
Q 16.703125 27.09375 16.703125 20.515625 
Q 16.703125 13.921875 20.71875 10.15625 
Q 24.75 6.390625 31.78125 6.390625 
Q 38.8125 6.390625 42.859375 10.171875 
Q 46.921875 13.96875 46.921875 20.515625 
Q 46.921875 27.09375 42.890625 30.859375 
Q 38.875 34.625 31.78125 34.625 
z
M 21.921875 38.8125 
Q 15.578125 40.375 12.03125 44.71875 
Q 8.5 49.078125 8.5 55.328125 
Q 8.5 64.0625 14.71875 69.140625 
Q 20.953125 74.21875 31.78125 74.21875 
Q 42.671875 74.21875 48.875 69.140625 
Q 55.078125 64.0625 55.078125 55.328125 
Q 55.078125 49.078125 51.53125 44.71875 
Q 48 40.375 41.703125 38.8125 
Q 48.828125 37.15625 52.796875 32.3125 
Q 56.78125 27.484375 56.78125 20.515625 
Q 56.78125 9.90625 50.3125 4.234375 
Q 43.84375 -1.421875 31.78125 -1.421875 
Q 19.734375 -1.421875 13.25 4.234375 
Q 6.78125 9.90625 6.78125 20.515625 
Q 6.78125 27.484375 10.78125 32.3125 
Q 14.796875 37.15625 21.921875 38.8125 
z
M 18.3125 54.390625 
Q 18.3125 48.734375 21.84375 45.5625 
Q 25.390625 42.390625 31.78125 42.390625 
Q 38.140625 42.390625 41.71875 45.5625 
Q 45.3125 48.734375 45.3125 54.390625 
Q 45.3125 60.0625 41.71875 63.234375 
Q 38.140625 66.40625 31.78125 66.40625 
Q 25.390625 66.40625 21.84375 63.234375 
Q 18.3125 60.0625 18.3125 54.390625 
z
" id="DejaVuSans-38"/>
      </defs>
      <g transform="translate(37.875 98.493619)scale(0.1 -0.1)">
       <use xlink:href="#DejaVuSans-38"/>
       <use x="63.623047" xlink:href="#DejaVuSans-30"/>
      </g>
     </g>
    </g>
    <g id="ytick_6">
     <g id="line2d_11">
      <g>
       <use style="stroke:#000000;stroke-width:0.8;" x="57.6" xlink:href="#mefb5995d53" y="41.472"/>
      </g>
     </g>
     <g id="text_12">
      <!-- 100 -->
      <g transform="translate(31.5125 45.271219)scale(0.1 -0.1)">
       <use xlink:href="#DejaVuSans-31"/>
       <use x="63.623047" xlink:href="#DejaVuSans-30"/>
       <use x="127.246094" xlink:href="#DejaVuSans-30"/>
      </g>
     </g>
    </g>
    <g id="text_13">
     <!-- Optimal action (%) -->
     <defs>
      <path d="M 39.40625 66.21875 
Q 28.65625 66.21875 22.328125 58.203125 
Q 16.015625 50.203125 16.015625 36.375 
Q 16.015625 22.609375 22.328125 14.59375 
Q 28.65625 6.59375 39.40625 6.59375 
Q 50.140625 6.59375 56.421875 14.59375 
Q 62.703125 22.609375 62.703125 36.375 
Q 62.703125 50.203125 56.421875 58.203125 
Q 50.140625 66.21875 39.40625 66.21875 
z
M 39.40625 74.21875 
Q 54.734375 74.21875 63.90625 63.9375 
Q 73.09375 53.65625 73.09375 36.375 
Q 73.09375 19.140625 63.90625 8.859375 
Q 54.734375 -1.421875 39.40625 -1.421875 
Q 24.03125 -1.421875 14.8125 8.828125 
Q 5.609375 19.09375 5.609375 36.375 
Q 5.609375 53.65625 14.8125 63.9375 
Q 24.03125 74.21875 39.40625 74.21875 
z
" id="DejaVuSans-4f"/>
      <path d="M 9.421875 54.6875 
L 18.40625 54.6875 
L 18.40625 0 
L 9.421875 0 
z
M 9.421875 75.984375 
L 18.40625 75.984375 
L 18.40625 64.59375 
L 9.421875 64.59375 
z
" id="DejaVuSans-69"/>
      <path d="M 52 44.1875 
Q 55.375 50.25 60.0625 53.125 
Q 64.75 56 71.09375 56 
Q 79.640625 56 84.28125 50.015625 
Q 88.921875 44.046875 88.921875 33.015625 
L 88.921875 0 
L 79.890625 0 
L 79.890625 32.71875 
Q 79.890625 40.578125 77.09375 44.375 
Q 74.3125 48.1875 68.609375 48.1875 
Q 61.625 48.1875 57.5625 43.546875 
Q 53.515625 38.921875 53.515625 30.90625 
L 53.515625 0 
L 44.484375 0 
L 44.484375 32.71875 
Q 44.484375 40.625 41.703125 44.40625 
Q 38.921875 48.1875 33.109375 48.1875 
Q 26.21875 48.1875 22.15625 43.53125 
Q 18.109375 38.875 18.109375 30.90625 
L 18.109375 0 
L 9.078125 0 
L 9.078125 54.6875 
L 18.109375 54.6875 
L 18.109375 46.1875 
Q 21.1875 51.21875 25.484375 53.609375 
Q 29.78125 56 35.6875 56 
Q 41.65625 56 45.828125 52.96875 
Q 50 49.953125 52 44.1875 
z
" id="DejaVuSans-6d"/>
      <path d="M 34.28125 27.484375 
Q 23.390625 27.484375 19.1875 25 
Q 14.984375 22.515625 14.984375 16.5 
Q 14.984375 11.71875 18.140625 8.90625 
Q 21.296875 6.109375 26.703125 6.109375 
Q 34.1875 6.109375 38.703125 11.40625 
Q 43.21875 16.703125 43.21875 25.484375 
L 43.21875 27.484375 
z
M 52.203125 31.203125 
L 52.203125 0 
L 43.21875 0 
L 43.21875 8.296875 
Q 40.140625 3.328125 35.546875 0.953125 
Q 30.953125 -1.421875 24.3125 -1.421875 
Q 15.921875 -1.421875 10.953125 3.296875 
Q 6 8.015625 6 15.921875 
Q 6 25.140625 12.171875 29.828125 
Q 18.359375 34.515625 30.609375 34.515625 
L 43.21875 34.515625 
L 43.21875 35.40625 
Q 43.21875 41.609375 39.140625 45 
Q 35.0625 48.390625 27.6875 48.390625 
Q 23 48.390625 18.546875 47.265625 
Q 14.109375 46.140625 10.015625 43.890625 
L 10.015625 52.203125 
Q 14.9375 54.109375 19.578125 55.046875 
Q 24.21875 56 28.609375 56 
Q 40.484375 56 46.34375 49.84375 
Q 52.203125 43.703125 52.203125 31.203125 
z
" id="DejaVuSans-61"/>
      <path d="M 9.421875 75.984375 
L 18.40625 75.984375 
L 18.40625 0 
L 9.421875 0 
z
" id="DejaVuSans-6c"/>
      <path id="DejaVuSans-20"/>
      <path d="M 48.78125 52.59375 
L 48.78125 44.1875 
Q 44.96875 46.296875 41.140625 47.34375 
Q 37.3125 48.390625 33.40625 48.390625 
Q 24.65625 48.390625 19.8125 42.84375 
Q 14.984375 37.3125 14.984375 27.296875 
Q 14.984375 17.28125 19.8125 11.734375 
Q 24.65625 6.203125 33.40625 6.203125 
Q 37.3125 6.203125 41.140625 7.25 
Q 44.96875 8.296875 48.78125 10.40625 
L 48.78125 2.09375 
Q 45.015625 0.34375 40.984375 -0.53125 
Q 36.96875 -1.421875 32.421875 -1.421875 
Q 20.0625 -1.421875 12.78125 6.34375 
Q 5.515625 14.109375 5.515625 27.296875 
Q 5.515625 40.671875 12.859375 48.328125 
Q 20.21875 56 33.015625 56 
Q 37.15625 56 41.109375 55.140625 
Q 45.0625 54.296875 48.78125 52.59375 
z
" id="DejaVuSans-63"/>
      <path d="M 30.609375 48.390625 
Q 23.390625 48.390625 19.1875 42.75 
Q 14.984375 37.109375 14.984375 27.296875 
Q 14.984375 17.484375 19.15625 11.84375 
Q 23.34375 6.203125 30.609375 6.203125 
Q 37.796875 6.203125 41.984375 11.859375 
Q 46.1875 17.53125 46.1875 27.296875 
Q 46.1875 37.015625 41.984375 42.703125 
Q 37.796875 48.390625 30.609375 48.390625 
z
M 30.609375 56 
Q 42.328125 56 49.015625 48.375 
Q 55.71875 40.765625 55.71875 27.296875 
Q 55.71875 13.875 49.015625 6.21875 
Q 42.328125 -1.421875 30.609375 -1.421875 
Q 18.84375 -1.421875 12.171875 6.21875 
Q 5.515625 13.875 5.515625 27.296875 
Q 5.515625 40.765625 12.171875 48.375 
Q 18.84375 56 30.609375 56 
z
" id="DejaVuSans-6f"/>
      <path d="M 54.890625 33.015625 
L 54.890625 0 
L 45.90625 0 
L 45.90625 32.71875 
Q 45.90625 40.484375 42.875 44.328125 
Q 39.84375 48.1875 33.796875 48.1875 
Q 26.515625 48.1875 22.3125 43.546875 
Q 18.109375 38.921875 18.109375 30.90625 
L 18.109375 0 
L 9.078125 0 
L 9.078125 54.6875 
L 18.109375 54.6875 
L 18.109375 46.1875 
Q 21.34375 51.125 25.703125 53.5625 
Q 30.078125 56 35.796875 56 
Q 45.21875 56 50.046875 50.171875 
Q 54.890625 44.34375 54.890625 33.015625 
z
" id="DejaVuSans-6e"/>
      <path d="M 31 75.875 
Q 24.46875 64.65625 21.28125 53.65625 
Q 18.109375 42.671875 18.109375 31.390625 
Q 18.109375 20.125 21.3125 9.0625 
Q 24.515625 -2 31 -13.1875 
L 23.1875 -13.1875 
Q 15.875 -1.703125 12.234375 9.375 
Q 8.59375 20.453125 8.59375 31.390625 
Q 8.59375 42.28125 12.203125 53.3125 
Q 15.828125 64.359375 23.1875 75.875 
z
" id="DejaVuSans-28"/>
      <path d="M 72.703125 32.078125 
Q 68.453125 32.078125 66.03125 28.46875 
Q 63.625 24.859375 63.625 18.40625 
Q 63.625 12.0625 66.03125 8.421875 
Q 68.453125 4.78125 72.703125 4.78125 
Q 76.859375 4.78125 79.265625 8.421875 
Q 81.6875 12.0625 81.6875 18.40625 
Q 81.6875 24.8125 79.265625 28.4375 
Q 76.859375 32.078125 72.703125 32.078125 
z
M 72.703125 38.28125 
Q 80.421875 38.28125 84.953125 32.90625 
Q 89.5 27.546875 89.5 18.40625 
Q 89.5 9.28125 84.9375 3.921875 
Q 80.375 -1.421875 72.703125 -1.421875 
Q 64.890625 -1.421875 60.34375 3.921875 
Q 55.8125 9.28125 55.8125 18.40625 
Q 55.8125 27.59375 60.375 32.9375 
Q 64.9375 38.28125 72.703125 38.28125 
z
M 22.3125 68.015625 
Q 18.109375 68.015625 15.6875 64.375 
Q 13.28125 60.75 13.28125 54.390625 
Q 13.28125 47.953125 15.671875 44.328125 
Q 18.0625 40.71875 22.3125 40.71875 
Q 26.5625 40.71875 28.96875 44.328125 
Q 31.390625 47.953125 31.390625 54.390625 
Q 31.390625 60.6875 28.953125 64.34375 
Q 26.515625 68.015625 22.3125 68.015625 
z
M 66.40625 74.21875 
L 74.21875 74.21875 
L 28.609375 -1.421875 
L 20.796875 -1.421875 
z
M 22.3125 74.21875 
Q 30.03125 74.21875 34.609375 68.875 
Q 39.203125 63.53125 39.203125 54.390625 
Q 39.203125 45.171875 34.640625 39.84375 
Q 30.078125 34.515625 22.3125 34.515625 
Q 14.546875 34.515625 10.03125 39.859375 
Q 5.515625 45.21875 5.515625 54.390625 
Q 5.515625 63.484375 10.046875 68.84375 
Q 14.59375 74.21875 22.3125 74.21875 
z
" id="DejaVuSans-25"/>
      <path d="M 8.015625 75.875 
L 15.828125 75.875 
Q 23.140625 64.359375 26.78125 53.3125 
Q 30.421875 42.28125 30.421875 31.390625 
Q 30.421875 20.453125 26.78125 9.375 
Q 23.140625 -1.703125 15.828125 -13.1875 
L 8.015625 -13.1875 
Q 14.5 -2 17.703125 9.0625 
Q 20.90625 20.125 20.90625 31.390625 
Q 20.90625 42.671875 17.703125 53.65625 
Q 14.5 64.65625 8.015625 75.875 
z
" id="DejaVuSans-29"/>
     </defs>
     <g transform="translate(25.432812 221.531906)rotate(-90)scale(0.1 -0.1)">
      <use xlink:href="#DejaVuSans-4f"/>
      <use x="78.710938" xlink:href="#DejaVuSans-70"/>
      <use x="142.1875" xlink:href="#DejaVuSans-74"/>
      <use x="181.396484" xlink:href="#DejaVuSans-69"/>
      <use x="209.179688" xlink:href="#DejaVuSans-6d"/>
      <use x="306.591797" xlink:href="#DejaVuSans-61"/>
      <use x="367.871094" xlink:href="#DejaVuSans-6c"/>
      <use x="395.654297" xlink:href="#DejaVuSans-20"/>
      <use x="427.441406" xlink:href="#DejaVuSans-61"/>
      <use x="488.720703" xlink:href="#DejaVuSans-63"/>
      <use x="543.701172" xlink:href="#DejaVuSans-74"/>
      <use x="582.910156" xlink:href="#DejaVuSans-69"/>
      <use x="610.693359" xlink:href="#DejaVuSans-6f"/>
      <use x="671.875" xlink:href="#DejaVuSans-6e"/>
      <use x="735.253906" xlink:href="#DejaVuSans-20"/>
      <use x="767.041016" xlink:href="#DejaVuSans-28"/>
      <use x="806.054688" xlink:href="#DejaVuSans-25"/>
      <use x="901.074219" xlink:href="#DejaVuSans-29"/>
     </g>
    </g>
   </g>
   <g id="line2d_12">
    <path clip-path="url(#p0f0a414ad4)" d="M 73.832727 280.839743 
L 74.482686 259.816894 
L 75.132645 250.902146 
L 75.457625 247.841854 
L 76.432563 236.399035 
L 76.757543 234.935426 
L 78.057461 227.351233 
L 78.70742 225.08928 
L 79.0324 224.557054 
L 79.682359 223.226494 
L 80.657297 222.028988 
L 81.307256 222.028988 
L 81.957215 221.0976 
L 82.282195 221.363708 
L 82.607174 220.964536 
L 82.932154 220.166212 
L 83.582113 219.900094 
L 84.232072 219.234824 
L 84.557052 218.835652 
L 84.882031 218.835652 
L 85.207011 218.702598 
L 85.53199 217.904254 
L 85.85697 217.904254 
L 86.181949 217.7712 
L 86.506929 217.904254 
L 87.156888 217.638146 
L 87.481867 217.238974 
L 88.131826 216.972866 
L 88.456806 216.573694 
L 88.781785 216.44064 
L 89.106765 216.44064 
L 89.431744 216.307586 
L 89.756724 216.307586 
L 90.406683 216.573694 
L 90.731663 216.44064 
L 91.056642 216.44064 
L 91.381622 216.174532 
L 91.706601 216.174532 
L 92.031581 216.041468 
L 94.956396 216.041468 
L 95.606355 215.77536 
L 95.931335 215.77536 
L 96.256314 215.642306 
L 96.581294 215.77536 
L 96.906274 215.642306 
L 97.556233 215.642306 
L 97.881212 215.509252 
L 100.156069 215.509252 
L 100.481048 215.376188 
L 100.806028 215.509252 
L 102.105946 215.509252 
L 102.430925 215.376188 
L 105.680721 215.376188 
L 106.0057 215.243134 
L 106.33068 215.243134 
L 106.655659 215.11008 
L 112.83027 215.11008 
L 113.15525 214.977026 
L 118.679902 214.977026 
L 119.004881 214.843962 
L 121.279738 214.843962 
L 121.604717 214.710908 
L 121.929697 214.843962 
L 122.904636 214.843962 
L 123.229615 214.577854 
L 132.979001 214.577854 
L 133.30398 214.4448 
L 166.126912 214.4448 
L 166.451892 214.311746 
L 174.57638 214.311746 
L 174.90136 214.178682 
L 199.924783 214.178682 
L 200.249762 214.045628 
L 244.446978 214.045628 
L 244.771957 213.912574 
L 398.487273 213.912574 
L 398.487273 213.912574 
" style="fill:none;stroke:#1f77b4;stroke-linecap:square;stroke-width:1.5;"/>
   </g>
   <g id="line2d_13">
    <path clip-path="url(#p0f0a414ad4)" d="M 73.832727 280.839743 
L 74.482686 259.417732 
L 74.807666 253.962433 
L 75.132645 250.902146 
L 75.782604 242.519619 
L 76.107584 239.06016 
L 76.432563 238.128767 
L 77.082523 232.540414 
L 77.407502 231.875134 
L 77.732482 230.278466 
L 78.057461 230.145407 
L 78.70742 226.952061 
L 79.0324 225.75456 
L 79.357379 225.75456 
L 79.682359 223.492602 
L 80.007338 223.359548 
L 80.332318 223.359548 
L 80.982277 221.496762 
L 81.307256 221.76288 
L 81.957215 220.166212 
L 82.607174 218.702598 
L 83.257133 218.43648 
L 83.582113 218.702598 
L 83.907093 218.303426 
L 84.232072 218.569534 
L 84.882031 217.638146 
L 85.207011 218.037318 
L 85.85697 217.505092 
L 86.506929 216.307586 
L 86.831908 216.706748 
L 87.156888 216.44064 
L 87.481867 216.44064 
L 87.806847 216.041468 
L 88.131826 216.839812 
L 88.456806 216.174532 
L 88.781785 215.243134 
L 89.106765 215.509252 
L 89.431744 215.376188 
L 89.756724 215.509252 
L 90.081704 214.843962 
L 90.406683 215.509252 
L 90.731663 214.843962 
L 91.056642 215.77536 
L 91.381622 214.710908 
L 91.706601 214.577854 
L 92.031581 213.77952 
L 93.006519 214.577854 
L 93.331499 214.311746 
L 93.656478 213.513402 
L 94.306437 213.11424 
L 94.631417 212.981176 
L 94.956396 212.315906 
L 95.281376 212.848122 
L 95.606355 212.981176 
L 95.931335 213.247294 
L 96.256314 212.049788 
L 96.581294 212.44896 
L 96.906274 211.916734 
L 97.231253 212.315906 
L 97.556233 211.916734 
L 97.881212 211.78368 
L 98.206192 211.916734 
L 98.531171 211.1184 
L 98.856151 211.78368 
L 99.50611 211.384518 
L 99.831089 211.384518 
L 100.156069 211.916734 
L 100.481048 211.251464 
L 100.806028 211.251464 
L 101.131007 211.78368 
L 101.455987 211.650626 
L 101.780966 210.985346 
L 102.105946 211.251464 
L 102.430925 211.251464 
L 103.080885 211.916734 
L 103.405864 211.78368 
L 103.730844 210.187012 
L 104.055823 210.187012 
L 104.380803 210.053958 
L 104.705782 210.187012 
L 105.030762 209.255614 
L 105.680721 210.053958 
L 106.0057 210.053958 
L 106.33068 209.78784 
L 106.655659 209.78784 
L 106.980639 210.187012 
L 107.305618 209.78784 
L 107.630598 209.654786 
L 107.955577 209.12256 
L 108.280557 208.989506 
L 108.605536 209.255614 
L 108.930516 208.723398 
L 109.255495 209.255614 
L 109.580475 209.12256 
L 109.905455 208.590334 
L 110.230434 208.989506 
L 110.555414 209.654786 
L 111.205373 208.45728 
L 111.530352 208.324226 
L 111.855332 208.590334 
L 112.180311 207.792 
L 112.505291 207.792 
L 112.83027 208.324226 
L 113.15525 208.45728 
L 113.480229 207.658946 
L 113.805209 207.259774 
L 114.455168 207.658946 
L 114.780147 207.259774 
L 115.105127 207.658946 
L 115.430106 206.860602 
L 115.755086 207.392828 
L 116.080066 207.525892 
L 116.405045 207.259774 
L 116.730025 206.594494 
L 117.055004 206.727548 
L 117.379984 206.594494 
L 117.704963 206.993666 
L 118.354922 205.929214 
L 118.679902 206.328386 
L 119.004881 205.663106 
L 119.65484 205.396988 
L 119.97982 204.997816 
L 120.304799 205.530042 
L 120.629779 204.997816 
L 120.954758 205.79616 
L 121.279738 205.663106 
L 121.604717 204.598654 
L 121.929697 205.13088 
L 122.254676 205.396988 
L 122.579656 205.929214 
L 123.229615 204.997816 
L 123.554595 205.396988 
L 123.879574 204.4656 
L 124.204554 204.731708 
L 124.529533 205.263934 
L 124.854513 204.332536 
L 125.179492 204.4656 
L 125.504472 204.332536 
L 125.829451 204.997816 
L 126.154431 205.13088 
L 126.47941 204.997816 
L 126.80439 204.199482 
L 127.454349 203.534212 
L 128.104308 204.4656 
L 128.429287 203.534212 
L 128.754267 203.13504 
L 129.079247 204.598654 
L 129.729206 203.80032 
L 130.054185 203.933374 
L 130.379165 203.268094 
L 131.354103 202.46976 
L 131.679083 202.602824 
L 132.004062 202.868932 
L 132.329042 202.868932 
L 133.30398 203.667266 
L 133.62896 203.001986 
L 134.278919 202.46976 
L 134.603898 202.46976 
L 135.578837 201.1392 
L 135.903817 202.070598 
L 136.553776 201.006146 
L 136.878755 201.006146 
L 137.203735 200.873092 
L 137.528714 201.272254 
L 137.853694 201.1392 
L 138.178673 199.941694 
L 138.503653 201.538372 
L 138.828632 200.47392 
L 139.153612 200.606974 
L 139.478591 199.409468 
L 139.803571 200.074748 
L 140.45353 199.409468 
L 140.778509 200.207812 
L 141.103489 199.941694 
L 141.428468 200.207812 
L 141.753448 199.675586 
L 142.078428 199.542532 
L 142.403407 198.744188 
L 142.728387 199.941694 
L 143.053366 198.877252 
L 143.703325 199.542532 
L 144.028305 198.611134 
L 144.353284 198.078908 
L 144.678264 198.877252 
L 145.003243 198.47808 
L 145.328223 199.14336 
L 145.653202 198.611134 
L 145.978182 198.611134 
L 146.303161 197.945854 
L 146.628141 198.877252 
L 146.95312 197.8128 
L 147.2781 197.413628 
L 147.928059 197.945854 
L 148.253038 196.881402 
L 148.578018 197.945854 
L 148.902998 197.280574 
L 149.227977 197.679746 
L 149.552957 197.14752 
L 149.877936 197.280574 
L 150.202916 196.349176 
L 150.527895 196.615294 
L 150.852875 197.14752 
L 151.177854 196.615294 
L 151.502834 196.881402 
L 151.827813 195.15168 
L 152.152793 195.950014 
L 152.477772 196.216122 
L 152.802752 197.679746 
L 153.127731 195.81696 
L 153.452711 195.81696 
L 154.10267 196.216122 
L 154.427649 196.083068 
L 154.752629 196.083068 
L 156.702506 194.4864 
L 157.027486 195.018626 
L 157.352465 194.885572 
L 157.677445 195.417788 
L 158.327404 195.018626 
L 158.977363 194.752518 
L 159.302342 195.018626 
L 159.627322 194.220292 
L 159.952301 195.018626 
L 160.277281 195.417788 
L 160.60226 195.018626 
L 160.92724 194.885572 
L 161.252219 195.284734 
L 161.577199 193.555012 
L 161.902179 194.353346 
L 162.552138 195.018626 
L 162.877117 194.4864 
L 163.202097 194.220292 
L 163.527076 193.688066 
L 163.852056 194.087238 
L 164.177035 193.82112 
L 164.502015 194.752518 
L 164.826994 194.885572 
L 165.151974 195.15168 
L 165.476953 193.555012 
L 165.801933 193.555012 
L 166.126912 193.954184 
L 166.451892 193.15584 
L 166.776871 193.421958 
L 167.101851 192.623614 
L 167.42683 193.421958 
L 167.75181 193.555012 
L 168.401769 191.958334 
L 168.726749 192.49056 
L 169.051728 192.623614 
L 169.376708 192.357506 
L 169.701687 192.357506 
L 170.026667 192.756678 
L 170.351646 191.958334 
L 170.676626 192.091398 
L 171.001605 192.091398 
L 171.326585 191.692226 
L 171.651564 191.958334 
L 171.976544 191.559172 
L 172.301523 192.357506 
L 172.626503 191.559172 
L 172.951482 192.091398 
L 173.276462 191.293054 
L 173.601441 191.82528 
L 173.926421 191.958334 
L 174.2514 191.559172 
L 174.57638 192.357506 
L 175.226339 191.426108 
L 175.551319 191.426108 
L 175.876298 191.559172 
L 176.201278 191.293054 
L 176.526257 190.49472 
L 176.851237 191.16 
L 177.176216 190.760828 
L 178.151155 190.760828 
L 178.476134 191.16 
L 178.801114 190.627774 
L 179.126093 190.627774 
L 179.451073 190.760828 
L 179.776052 190.228602 
L 180.101032 190.760828 
L 181.075971 189.962494 
L 181.40095 190.760828 
L 181.72593 189.563322 
L 182.050909 189.297214 
L 182.700868 189.297214 
L 183.025848 188.365816 
L 183.350827 188.49888 
L 184.000786 187.966654 
L 184.325766 187.966654 
L 184.650745 188.099708 
L 184.975725 188.49888 
L 185.300704 188.099708 
L 185.625684 187.966654 
L 185.950663 188.099708 
L 186.275643 187.8336 
L 186.600622 188.49888 
L 186.925602 188.099708 
L 187.250581 187.434428 
L 187.900541 188.232762 
L 188.22552 187.301374 
L 188.5505 187.966654 
L 188.875479 188.365816 
L 189.200459 187.700536 
L 189.525438 187.700536 
L 189.850418 187.966654 
L 190.175397 187.567482 
L 190.500377 187.966654 
L 190.825356 187.8336 
L 191.150336 188.099708 
L 191.800295 187.434428 
L 192.125274 188.232762 
L 192.450254 186.769148 
L 192.775233 186.769148 
L 193.100213 187.16832 
L 193.425192 187.301374 
L 193.750172 187.035266 
L 194.075152 187.434428 
L 194.400131 187.567482 
L 194.725111 187.301374 
L 195.05009 187.567482 
L 195.37507 186.902212 
L 196.025029 186.50304 
L 196.350008 186.902212 
L 196.674988 186.902212 
L 197.324947 186.236932 
L 197.649926 186.236932 
L 197.974906 186.50304 
L 198.299885 185.571652 
L 198.949844 186.103878 
L 199.599803 186.103878 
L 199.924783 185.970824 
L 200.574742 185.970824 
L 200.899722 185.305534 
L 201.549681 185.83776 
L 201.87466 185.305534 
L 202.524619 186.236932 
L 203.174578 185.438598 
L 203.499558 185.438598 
L 203.824537 185.039426 
L 204.149517 185.83776 
L 204.799476 185.17248 
L 205.124455 184.906372 
L 205.449435 185.571652 
L 205.774414 185.305534 
L 206.099394 184.640254 
L 206.424373 185.17248 
L 207.074333 184.5072 
L 207.399312 186.50304 
L 208.049271 185.039426 
L 208.374251 184.241092 
L 208.69923 184.773318 
L 209.349189 183.84192 
L 209.674169 185.039426 
L 209.999148 183.974974 
L 210.324128 183.442748 
L 210.649107 183.708866 
L 210.974087 183.442748 
L 211.299066 183.575812 
L 211.624046 182.51136 
L 211.949025 182.777468 
L 212.274005 182.644414 
L 212.598984 182.378306 
L 212.923964 182.51136 
L 213.248943 182.910532 
L 213.573923 182.910532 
L 214.223882 182.112188 
L 214.873841 182.51136 
L 215.5238 182.112188 
L 215.84878 182.51136 
L 216.173759 181.446908 
L 216.498739 181.446908 
L 216.823718 181.1808 
L 217.473677 182.378306 
L 217.798657 181.446908 
L 218.123636 182.245252 
L 218.448616 181.979134 
L 218.773595 181.979134 
L 219.098575 182.245252 
L 219.423554 181.1808 
L 219.748534 181.047746 
L 220.398493 181.979134 
L 220.723473 182.51136 
L 221.048452 181.446908 
L 221.373432 181.313854 
L 221.698411 180.648574 
L 222.023391 181.047746 
L 222.34837 180.781628 
L 222.67335 180.249402 
L 222.998329 180.914682 
L 223.648288 180.51552 
L 223.973268 180.51552 
L 224.298247 180.382466 
L 224.623227 179.85024 
L 224.948206 180.648574 
L 225.273186 180.648574 
L 225.598165 180.116348 
L 225.923145 179.85024 
L 226.248124 180.382466 
L 226.898084 179.451068 
L 227.223063 180.116348 
L 227.548043 179.717176 
L 227.873022 179.983294 
L 228.198002 180.51552 
L 228.847961 179.451068 
L 229.822899 178.785788 
L 230.147879 179.717176 
L 230.472858 179.451068 
L 230.797838 179.983294 
L 231.122817 178.785788 
L 231.447797 178.253572 
L 231.772776 178.652734 
L 232.097756 178.120518 
L 232.422735 178.253572 
L 232.747715 178.120518 
L 233.072695 177.721346 
L 233.397674 178.120518 
L 233.722654 178.120518 
L 234.047633 177.721346 
L 234.697592 178.386626 
L 235.022572 177.721346 
L 235.347551 178.120518 
L 235.672531 177.056066 
L 235.99751 177.987464 
L 236.32249 177.056066 
L 236.647469 177.721346 
L 236.972449 176.656894 
L 237.297428 176.52384 
L 237.622408 177.18912 
L 237.947387 176.257732 
L 238.272367 175.991614 
L 238.597346 176.52384 
L 238.922326 176.124678 
L 239.572285 176.124678 
L 239.897265 177.056066 
L 240.222244 176.257732 
L 240.547224 176.656894 
L 240.872203 175.85856 
L 241.197183 175.592452 
L 241.522162 176.656894 
L 241.847142 175.326334 
L 242.172121 175.326334 
L 242.497101 176.390786 
L 242.82208 175.725506 
L 243.14706 175.85856 
L 243.472039 176.124678 
L 243.797019 176.124678 
L 244.121998 175.459398 
L 244.446978 174.394936 
L 244.771957 174.394936 
L 245.096937 174.661054 
L 245.421916 174.394936 
L 245.746896 174.661054 
L 246.071876 174.528 
L 246.396855 174.528 
L 246.721835 175.459398 
L 247.046814 173.995784 
L 247.371794 174.528 
L 247.696773 174.528 
L 248.346732 174.261892 
L 248.671712 174.661054 
L 248.996691 174.661054 
L 249.321671 175.459398 
L 249.64665 174.794108 
L 249.97163 175.326334 
L 250.621589 173.729656 
L 251.271548 174.927172 
L 251.596527 174.128828 
L 251.921507 174.261892 
L 252.246486 173.330504 
L 252.571466 173.596612 
L 252.896446 173.330504 
L 253.221425 173.729656 
L 253.546405 173.729656 
L 253.871384 174.128828 
L 254.196364 174.261892 
L 254.521343 173.064376 
L 254.846323 173.064376 
L 255.171302 173.330504 
L 255.496282 173.19744 
L 255.821261 173.995784 
L 256.146241 173.86272 
L 256.47122 173.19744 
L 256.7962 172.798268 
L 257.121179 173.729656 
L 257.771138 172.266052 
L 258.096118 173.064376 
L 258.746077 172.399096 
L 259.071057 172.53216 
L 259.396036 172.399096 
L 259.721016 173.463548 
L 260.045995 172.132988 
L 260.370975 172.266052 
L 260.695954 171.999924 
L 261.020934 172.132988 
L 261.345913 172.53216 
L 261.670893 172.53216 
L 261.995872 172.665204 
L 262.645831 172.399096 
L 262.970811 171.600772 
L 263.29579 171.733816 
L 263.62077 171.733816 
L 263.945749 171.86688 
L 264.270729 171.334654 
L 264.595708 172.132988 
L 265.245667 171.600772 
L 265.570647 172.266052 
L 265.895627 171.467708 
L 266.220606 171.467708 
L 266.545586 171.999924 
L 266.870565 171.2016 
L 267.195545 171.999924 
L 267.520524 171.999924 
L 267.845504 171.600772 
L 268.170483 171.600772 
L 268.495463 172.266052 
L 268.820442 171.467708 
L 269.145422 171.334654 
L 269.470401 171.467708 
L 269.795381 171.86688 
L 270.12036 170.802428 
L 270.44534 171.334654 
L 270.770319 170.270212 
L 271.095299 171.334654 
L 271.420278 170.802428 
L 272.070238 171.334654 
L 272.395217 170.935492 
L 272.720197 170.137148 
L 273.045176 170.935492 
L 273.695135 170.935492 
L 274.020115 170.802428 
L 274.345094 171.467708 
L 274.670074 170.935492 
L 274.995053 171.068536 
L 275.320033 170.53632 
L 275.645012 169.338814 
L 275.969992 169.604932 
L 276.619951 169.072706 
L 276.94493 170.137148 
L 277.26991 170.004094 
L 277.594889 169.604932 
L 277.919869 170.270212 
L 278.569828 169.471878 
L 278.894808 169.471878 
L 279.219787 169.072706 
L 279.544767 170.137148 
L 279.869746 170.004094 
L 280.194726 168.939642 
L 280.519705 169.338814 
L 280.844685 169.338814 
L 281.169664 169.604932 
L 281.494644 169.072706 
L 281.819623 169.072706 
L 282.144603 168.939642 
L 282.469582 168.939642 
L 282.794562 169.072706 
L 283.119541 169.604932 
L 283.444521 169.20576 
L 283.7695 170.137148 
L 284.09448 168.939642 
L 284.419459 168.806598 
L 284.744439 168.806598 
L 285.069419 168.54049 
L 285.394398 169.072706 
L 285.719378 168.673534 
L 286.044357 168.939642 
L 286.369337 168.141318 
L 286.694316 169.072706 
L 287.019296 168.939642 
L 287.344275 169.20576 
L 287.669255 168.673534 
L 287.994234 168.673534 
L 288.319214 169.20576 
L 288.644193 169.20576 
L 288.969173 168.806598 
L 289.294152 168.008254 
L 289.619132 168.54049 
L 290.269091 168.008254 
L 290.59407 168.274362 
L 291.244029 168.008254 
L 291.569009 167.742146 
L 291.893989 168.008254 
L 292.218968 167.609082 
L 292.543948 167.609082 
L 292.868927 168.54049 
L 293.193907 168.008254 
L 293.518886 168.673534 
L 293.843866 168.141318 
L 294.168845 168.407426 
L 294.493825 168.274362 
L 294.818804 168.407426 
L 295.143784 167.87521 
L 295.468763 168.274362 
L 295.793743 167.20993 
L 296.118722 168.008254 
L 296.443702 167.342974 
L 296.768681 167.742146 
L 297.093661 167.87521 
L 297.41864 167.342974 
L 297.74362 167.87521 
L 298.718559 166.943802 
L 299.043538 167.609082 
L 299.693497 166.677694 
L 300.018477 167.609082 
L 300.343456 167.076866 
L 300.668436 166.278522 
L 300.993415 166.677694 
L 301.318395 166.810758 
L 301.968354 167.476038 
L 302.293333 167.476038 
L 302.618313 166.943802 
L 302.943292 167.20993 
L 303.268272 166.943802 
L 303.593251 166.411586 
L 303.918231 166.677694 
L 304.24321 166.677694 
L 304.56819 166.943802 
L 304.89317 166.677694 
L 305.218149 166.943802 
L 305.543129 165.87935 
L 305.868108 167.076866 
L 306.193088 166.943802 
L 307.168026 166.012414 
L 307.493006 166.411586 
L 307.817985 167.076866 
L 308.142965 166.677694 
L 308.467944 166.677694 
L 308.792924 166.54465 
L 309.117903 166.677694 
L 309.442883 165.613242 
L 309.767862 166.012414 
L 310.092842 165.613242 
L 310.417821 166.145478 
L 310.742801 165.87935 
L 311.067781 165.081026 
L 311.39276 165.613242 
L 312.042719 165.87935 
L 312.367699 166.278522 
L 312.692678 165.480198 
L 313.017658 165.87935 
L 313.342637 164.814918 
L 313.667617 165.480198 
L 313.992596 165.480198 
L 314.317576 165.21407 
L 314.967535 165.613242 
L 315.292514 165.746306 
L 315.617494 164.947962 
L 315.942473 164.947962 
L 316.267453 165.613242 
L 316.592432 164.415746 
L 317.242391 166.012414 
L 317.567371 165.21407 
L 317.892351 165.347134 
L 318.21733 165.746306 
L 319.192269 164.947962 
L 319.842228 165.347134 
L 320.167207 164.814918 
L 320.492187 165.081026 
L 321.467125 164.016574 
L 321.792105 164.415746 
L 322.117084 164.415746 
L 322.442064 164.282682 
L 322.767043 163.617402 
L 323.092023 164.282682 
L 323.417002 164.149638 
L 323.741982 164.814918 
L 324.066962 163.88351 
L 324.391941 164.415746 
L 324.716921 164.415746 
L 325.0419 164.149638 
L 325.36688 163.617402 
L 325.691859 164.282682 
L 326.016839 163.88351 
L 326.341818 164.016574 
L 326.666798 162.819068 
L 326.991777 163.750466 
L 327.316757 163.351294 
L 327.641736 163.351294 
L 327.966716 163.617402 
L 328.291695 163.351294 
L 328.616675 163.617402 
L 328.941654 163.351294 
L 329.266634 163.750466 
L 329.591613 163.484358 
L 329.916593 164.016574 
L 330.241572 162.686014 
L 330.566552 163.750466 
L 330.891532 164.415746 
L 331.216511 163.21824 
L 331.541491 162.55296 
L 331.86647 163.88351 
L 332.19145 163.617402 
L 332.516429 163.617402 
L 332.841409 163.351294 
L 333.166388 162.819068 
L 333.491368 163.750466 
L 333.816347 163.484358 
L 334.141327 162.686014 
L 334.466306 163.21824 
L 335.116265 162.55296 
L 335.766224 163.21824 
L 336.091204 162.153788 
L 336.416183 163.21824 
L 336.741163 162.55296 
L 337.391122 162.55296 
L 337.716102 162.153788 
L 338.041081 162.286852 
L 338.366061 162.020734 
L 339.01602 162.020734 
L 339.340999 162.286852 
L 339.990958 162.286852 
L 340.315938 162.153788 
L 340.640917 162.286852 
L 340.965897 161.754626 
L 341.290876 162.020734 
L 341.615856 162.020734 
L 341.940835 161.621572 
L 342.265815 160.956292 
L 342.590794 161.2224 
L 343.240753 161.2224 
L 343.565733 160.956292 
L 343.890713 161.2224 
L 344.215692 161.2224 
L 344.540672 161.089346 
L 344.865651 160.55712 
L 345.190631 160.55712 
L 345.51561 162.020734 
L 345.84059 160.956292 
L 346.165569 160.956292 
L 346.490549 161.2224 
L 346.815528 161.089346 
L 347.140508 160.55712 
L 347.465487 160.424076 
L 347.790467 162.020734 
L 348.115446 160.823228 
L 348.440426 161.355464 
L 348.765405 160.291012 
L 349.090385 160.424076 
L 349.415364 160.024904 
L 349.740344 160.424076 
L 350.065324 160.157948 
L 350.390303 160.823228 
L 351.040262 160.157948 
L 351.690221 160.157948 
L 352.015201 160.55712 
L 352.66516 160.157948 
L 352.990139 160.157948 
L 353.640098 159.492668 
L 353.965078 160.157948 
L 354.290057 159.89184 
L 354.940016 160.823228 
L 355.589975 159.492668 
L 355.914955 160.024904 
L 356.239934 159.89184 
L 356.564914 160.823228 
L 356.889894 159.625732 
L 357.214873 159.625732 
L 357.864832 158.960452 
L 358.189812 159.093496 
L 358.514791 159.625732 
L 358.839771 158.960452 
L 359.48973 158.56128 
L 359.814709 157.896 
L 360.139689 158.694344 
L 360.464668 158.56128 
L 360.789648 158.827388 
L 361.114627 158.827388 
L 361.439607 159.093496 
L 361.764586 159.093496 
L 362.089566 158.029064 
L 362.414545 158.827388 
L 362.739525 157.762936 
L 363.064505 157.363784 
L 363.389484 158.162108 
L 363.714464 157.097656 
L 364.039443 158.960452 
L 364.364423 158.295172 
L 364.689402 158.029064 
L 365.339361 157.097656 
L 365.664341 157.097656 
L 366.3143 157.896 
L 366.639279 157.629892 
L 366.964259 157.896 
L 367.289238 157.363784 
L 367.614218 157.762936 
L 367.939197 156.964612 
L 368.264177 156.831548 
L 368.589156 156.831548 
L 368.914136 157.762936 
L 369.239115 157.23072 
L 369.889075 156.964612 
L 370.214054 156.432376 
L 370.864013 157.363784 
L 371.188993 157.496828 
L 371.513972 156.432376 
L 371.838952 156.166268 
L 372.163931 156.698504 
L 372.488911 156.964612 
L 372.81389 156.299332 
L 373.13887 155.90016 
L 373.463849 156.299332 
L 373.788829 156.299332 
L 374.113808 157.23072 
L 374.438788 156.432376 
L 374.763767 156.033204 
L 375.088747 156.831548 
L 375.413726 155.500988 
L 375.738706 156.698504 
L 376.063686 157.23072 
L 376.388665 156.432376 
L 376.713645 156.698504 
L 377.038624 156.166268 
L 377.363604 157.097656 
L 378.013563 156.698504 
L 378.338542 157.097656 
L 378.663522 156.964612 
L 378.988501 156.56544 
L 379.313481 156.964612 
L 379.63846 157.097656 
L 379.96344 157.363784 
L 380.613399 156.432376 
L 380.938378 157.496828 
L 381.263358 156.698504 
L 381.588337 156.299332 
L 381.913317 156.432376 
L 382.238296 155.767096 
L 382.563276 156.166268 
L 382.888256 155.767096 
L 383.213235 156.56544 
L 383.538215 155.367924 
L 383.863194 155.767096 
L 384.513153 154.835708 
L 384.838133 155.101816 
L 385.163112 154.835708 
L 385.488092 155.101816 
L 385.813071 154.835708 
L 386.138051 154.835708 
L 386.46303 154.170428 
L 386.78801 154.5696 
L 387.112989 153.638212 
L 387.437969 155.101816 
L 387.762948 153.771266 
L 388.087928 154.037374 
L 388.412907 153.505148 
L 388.737887 153.90432 
L 389.062867 152.440706 
L 389.387846 153.372094 
L 390.037805 152.440706 
L 390.362785 153.23904 
L 390.687764 152.57376 
L 391.012744 152.174598 
L 391.337723 152.972932 
L 391.987682 152.174598 
L 392.312662 152.174598 
L 392.637641 152.706814 
L 392.962621 152.041534 
L 393.2876 151.775426 
L 393.61258 152.041534 
L 393.937559 151.90849 
L 394.262539 152.041534 
L 394.587518 151.509318 
L 395.237477 152.440706 
L 395.562457 152.440706 
L 396.212416 151.509318 
L 396.537396 151.642362 
L 396.862375 151.509318 
L 397.187355 151.775426 
L 397.512334 152.706814 
L 397.837314 152.839878 
L 398.162293 152.307642 
L 398.487273 152.57376 
L 398.487273 152.57376 
" style="fill:none;stroke:#ff7f0e;stroke-linecap:square;stroke-width:1.5;"/>
   </g>
   <g id="line2d_14">
    <path clip-path="url(#p0f0a414ad4)" d="M 73.832727 279.775294 
L 74.482686 261.147454 
L 75.132645 251.567426 
L 75.457625 243.584061 
L 76.107584 237.995713 
L 76.432563 231.609026 
L 76.757543 232.806532 
L 77.732482 224.290946 
L 78.057461 224.690108 
L 78.382441 221.363708 
L 78.70742 216.839812 
L 79.0324 214.710908 
L 79.682359 215.642306 
L 80.332318 211.650626 
L 80.657297 211.384518 
L 81.632236 209.388678 
L 81.957215 205.530042 
L 82.282195 206.594494 
L 82.607174 204.997816 
L 82.932154 208.191172 
L 83.257133 204.066428 
L 83.582113 203.933374 
L 83.907093 202.602824 
L 84.232072 202.602824 
L 84.557052 205.263934 
L 84.882031 200.074748 
L 85.207011 201.405318 
L 85.53199 199.542532 
L 86.181949 203.001986 
L 86.506929 196.748348 
L 86.831908 199.010306 
L 87.156888 196.615294 
L 87.481867 195.550852 
L 87.806847 196.615294 
L 88.131826 193.555012 
L 88.456806 192.357506 
L 88.781785 192.623614 
L 89.106765 193.288894 
L 89.431744 190.893892 
L 89.756724 191.026946 
L 90.081704 187.301374 
L 90.406683 188.099708 
L 90.731663 187.567482 
L 91.056642 188.365816 
L 91.381622 184.773318 
L 92.031581 183.309694 
L 92.35656 182.51136 
L 92.68154 182.378306 
L 93.006519 179.584122 
L 93.331499 181.047746 
L 93.656478 180.116348 
L 93.981458 180.914682 
L 94.306437 179.318014 
L 94.631417 179.717176 
L 94.956396 182.112188 
L 95.281376 179.983294 
L 95.606355 176.390786 
L 95.931335 178.918852 
L 96.256314 176.124678 
L 96.581294 175.459398 
L 96.906274 175.85856 
L 97.231253 175.459398 
L 97.556233 172.53216 
L 97.881212 172.931332 
L 98.206192 175.060226 
L 98.531171 172.798268 
L 98.856151 173.729656 
L 99.18113 173.330504 
L 99.831089 169.471878 
L 100.156069 171.733816 
L 100.481048 171.733816 
L 100.806028 167.87521 
L 101.131007 168.141318 
L 101.455987 167.87521 
L 101.780966 168.008254 
L 102.105946 164.415746 
L 102.430925 165.87935 
L 102.755905 166.411586 
L 103.080885 166.677694 
L 103.405864 164.016574 
L 103.730844 163.88351 
L 104.055823 164.415746 
L 104.380803 164.149638 
L 104.705782 162.419906 
L 105.030762 161.355464 
L 105.355741 160.823228 
L 105.680721 162.952122 
L 106.0057 162.286852 
L 106.33068 164.54879 
L 106.655659 159.093496 
L 107.305618 161.754626 
L 107.630598 161.621572 
L 107.955577 158.295172 
L 108.605536 161.089346 
L 108.930516 159.89184 
L 109.255495 156.56544 
L 109.580475 158.960452 
L 109.905455 158.960452 
L 110.230434 158.428216 
L 110.555414 158.162108 
L 110.880393 156.698504 
L 111.205373 157.762936 
L 111.530352 154.170428 
L 111.855332 154.037374 
L 112.505291 154.303492 
L 112.83027 151.110146 
L 113.15525 154.303492 
L 113.805209 149.91265 
L 114.130188 152.440706 
L 114.455168 151.775426 
L 114.780147 151.376254 
L 115.105127 147.91679 
L 115.430106 151.24321 
L 115.755086 150.844038 
L 116.080066 152.307642 
L 116.405045 150.444866 
L 116.730025 153.372094 
L 117.379984 148.981242 
L 117.704963 151.90849 
L 118.029943 152.440706 
L 118.679902 148.449026 
L 119.004881 151.110146 
L 119.329861 148.58207 
L 119.65484 148.848198 
L 119.97982 147.517638 
L 120.304799 150.444866 
L 120.629779 149.380414 
L 120.954758 150.178758 
L 121.279738 148.715134 
L 121.604717 145.25568 
L 121.929697 147.384574 
L 122.254676 145.654852 
L 122.579656 145.521788 
L 122.904636 145.92096 
L 123.229615 148.449026 
L 123.554595 146.58624 
L 123.879574 146.985402 
L 124.204554 144.989572 
L 124.529533 148.58207 
L 125.179492 142.727624 
L 125.504472 144.856508 
L 125.829451 143.525948 
L 126.154431 143.392904 
L 126.47941 145.787906 
L 126.80439 143.392904 
L 127.129369 144.457346 
L 127.454349 144.989572 
L 127.779328 144.5904 
L 128.429287 139.93344 
L 128.754267 145.25568 
L 129.079247 147.650682 
L 129.404226 145.25568 
L 129.729206 140.864828 
L 130.054185 141.130936 
L 130.379165 141.663172 
L 130.704144 141.130936 
L 131.029124 143.525948 
L 131.354103 144.723464 
L 132.004062 142.062344 
L 132.329042 143.659012 
L 132.654021 143.25984 
L 133.62896 140.332612 
L 133.953939 141.264 
L 134.278919 140.066504 
L 134.603898 139.93344 
L 134.928878 139.534268 
L 135.253857 137.405374 
L 135.578837 140.864828 
L 135.903817 139.135096 
L 136.228796 138.203708 
L 136.553776 139.002052 
L 136.878755 141.397064 
L 137.203735 136.873148 
L 137.528714 138.203708 
L 137.853694 140.199548 
L 138.178673 137.671492 
L 138.503653 137.804536 
L 138.828632 137.27232 
L 139.153612 139.135096 
L 139.478591 138.60288 
L 139.803571 136.873148 
L 140.12855 139.002052 
L 140.45353 138.868988 
L 140.778509 134.078964 
L 141.103489 135.542588 
L 141.428468 134.6112 
L 141.753448 137.27232 
L 142.078428 137.006212 
L 142.403407 135.010352 
L 142.728387 137.139256 
L 143.053366 133.546748 
L 143.378346 133.014532 
L 143.703325 136.340932 
L 144.028305 136.473976 
L 144.353284 132.881468 
L 145.003243 136.074804 
L 145.328223 133.014532 
L 145.653202 134.078964 
L 145.978182 132.61536 
L 146.303161 135.808696 
L 146.628141 135.27648 
L 146.95312 135.27648 
L 147.2781 134.744244 
L 147.928059 131.683972 
L 148.253038 133.014532 
L 148.578018 132.881468 
L 148.902998 131.817036 
L 149.227977 128.889788 
L 149.552957 130.885648 
L 149.877936 130.885648 
L 150.202916 130.220368 
L 150.527895 129.95424 
L 150.852875 131.151756 
L 151.502834 129.28896 
L 151.827813 128.224508 
L 152.152793 130.61952 
L 152.477772 128.490636 
L 152.802752 131.018692 
L 153.127731 125.164216 
L 153.77769 131.417864 
L 154.427649 128.889788 
L 154.752629 129.155916 
L 155.077609 128.756744 
L 155.727568 127.29312 
L 156.052547 124.632 
L 156.377527 128.889788 
L 157.027486 127.29312 
L 157.352465 127.559228 
L 157.677445 127.027012 
L 158.002424 126.893948 
L 158.327404 128.357572 
L 158.652383 125.96256 
L 158.977363 127.160076 
L 159.302342 124.632 
L 159.627322 125.164216 
L 159.952301 128.224508 
L 160.277281 123.700612 
L 160.60226 125.829496 
L 160.92724 126.361732 
L 161.252219 124.765064 
L 161.577199 124.898108 
L 161.902179 124.898108 
L 162.227158 126.095624 
L 162.552138 125.563388 
L 162.877117 122.63616 
L 163.202097 121.172536 
L 163.527076 121.704772 
L 163.852056 121.97088 
L 164.177035 121.837816 
L 164.502015 121.172536 
L 164.826994 121.571708 
L 165.151974 121.704772 
L 165.476953 122.236988 
L 165.801933 122.503096 
L 166.126912 125.29728 
L 166.451892 121.97088 
L 166.776871 123.168376 
L 167.101851 120.64032 
L 167.42683 121.172536 
L 167.75181 122.236988 
L 168.401769 120.374212 
L 168.726749 120.906428 
L 169.051728 120.773364 
L 169.376708 122.370052 
L 169.701687 119.841976 
L 170.026667 120.241148 
L 170.351646 117.846136 
L 170.676626 121.039492 
L 171.001605 117.446964 
L 171.326585 121.837816 
L 171.651564 118.910588 
L 171.976544 119.176696 
L 172.301523 116.781704 
L 172.951482 119.30976 
L 173.276462 121.571708 
L 173.601441 119.442804 
L 173.926421 116.515576 
L 174.57638 118.910588 
L 174.90136 119.442804 
L 175.226339 115.98336 
L 175.551319 120.108084 
L 175.876298 119.97504 
L 176.201278 117.9792 
L 176.526257 119.043632 
L 176.851237 119.708932 
L 177.176216 117.180856 
L 177.501196 117.180856 
L 177.826175 118.64448 
L 178.151155 117.713072 
L 178.476134 120.241148 
L 178.801114 116.914748 
L 179.126093 115.451144 
L 179.451073 119.30976 
L 179.776052 119.043632 
L 180.101032 116.249468 
L 180.426011 118.64448 
L 180.750991 116.64864 
L 181.075971 118.511416 
L 181.40095 116.914748 
L 181.72593 117.713072 
L 182.050909 115.717252 
L 182.375889 117.846136 
L 182.700868 118.910588 
L 183.675807 115.850296 
L 184.000786 114.519756 
L 184.325766 117.047812 
L 184.650745 116.116424 
L 184.975725 113.854476 
L 185.300704 113.588368 
L 185.625684 115.850296 
L 185.950663 114.386692 
L 186.275643 115.31808 
L 186.600622 116.64864 
L 186.925602 115.584188 
L 187.250581 111.858636 
L 187.575561 115.584188 
L 187.900541 114.785864 
L 188.22552 116.249468 
L 188.5505 116.64864 
L 188.875479 113.721412 
L 189.200459 113.721412 
L 189.525438 113.854476 
L 189.850418 115.850296 
L 190.175397 114.519756 
L 190.500377 117.580028 
L 191.150336 112.390852 
L 191.475315 113.721412 
L 191.800295 115.850296 
L 192.125274 113.189196 
L 192.450254 113.721412 
L 193.100213 116.914748 
L 193.425192 112.790024 
L 193.750172 116.249468 
L 194.075152 116.781704 
L 194.725111 112.65696 
L 195.05009 113.056132 
L 195.37507 115.451144 
L 196.025029 113.189196 
L 196.350008 113.32224 
L 196.674988 114.519756 
L 196.999967 113.189196 
L 197.324947 112.790024 
L 197.649926 114.785864 
L 197.974906 113.32224 
L 198.299885 113.32224 
L 198.624865 111.060292 
L 198.949844 114.6528 
L 199.274824 111.99168 
L 199.599803 114.6528 
L 199.924783 114.386692 
L 200.249762 114.519756 
L 200.899722 108.798344 
L 201.224701 111.592508 
L 201.549681 111.060292 
L 201.87466 116.64864 
L 202.19964 110.261948 
L 202.524619 111.060292 
L 202.849599 114.519756 
L 203.174578 114.519756 
L 203.499558 113.056132 
L 203.824537 109.862796 
L 204.149517 112.923068 
L 204.474496 110.66112 
L 204.799476 111.592508 
L 205.124455 114.386692 
L 205.449435 112.390852 
L 205.774414 113.588368 
L 206.099394 111.99168 
L 206.424373 112.790024 
L 206.749353 111.459464 
L 207.074333 109.197496 
L 207.399312 111.3264 
L 207.724292 111.3264 
L 208.049271 111.858636 
L 208.374251 113.32224 
L 208.69923 111.459464 
L 209.02421 111.725572 
L 209.349189 112.257788 
L 209.674169 112.124744 
L 209.999148 108.66528 
L 210.324128 111.459464 
L 210.649107 109.463624 
L 210.974087 109.33056 
L 211.299066 112.257788 
L 211.624046 109.99584 
L 211.949025 112.257788 
L 212.274005 110.128904 
L 212.598984 110.528076 
L 213.248943 111.99168 
L 213.573923 107.467784 
L 214.223882 111.3264 
L 214.548862 110.128904 
L 214.873841 109.99584 
L 215.198821 109.729732 
L 215.84878 108.532216 
L 216.173759 109.197496 
L 216.498739 111.592508 
L 216.823718 109.99584 
L 217.148698 110.128904 
L 217.473677 109.99584 
L 217.798657 107.068612 
L 218.123636 105.604988 
L 218.448616 108.133064 
L 218.773595 107.866936 
L 219.098575 106.403332 
L 219.423554 110.261948 
L 220.073514 104.6736 
L 220.398493 108.399172 
L 220.723473 110.128904 
L 221.048452 108.798344 
L 221.373432 108 
L 221.698411 108.266108 
L 222.023391 108.798344 
L 222.34837 107.068612 
L 222.67335 108.66528 
L 222.998329 107.600828 
L 223.323309 110.927228 
L 223.648288 111.193356 
L 223.973268 107.733892 
L 224.298247 106.536376 
L 224.623227 109.064452 
L 224.948206 107.600828 
L 225.273186 108.798344 
L 225.598165 107.733892 
L 225.923145 108.133064 
L 226.248124 106.66944 
L 226.573104 106.66944 
L 226.898084 110.261948 
L 227.223063 109.064452 
L 227.548043 108.399172 
L 227.873022 107.467784 
L 228.198002 106.137204 
L 228.522981 107.733892 
L 228.847961 107.733892 
L 229.17294 108.133064 
L 229.49792 108.133064 
L 229.822899 107.467784 
L 230.147879 107.33472 
L 230.472858 108.266108 
L 230.797838 109.99584 
L 231.122817 107.201656 
L 231.447797 106.935548 
L 231.772776 108.532216 
L 232.097756 108.931388 
L 232.422735 105.072772 
L 232.747715 109.197496 
L 233.397674 103.742212 
L 233.722654 106.403332 
L 234.047633 105.871096 
L 234.372613 106.66944 
L 234.697592 104.6736 
L 235.022572 107.33472 
L 235.347551 107.866936 
L 235.672531 107.33472 
L 235.99751 104.540536 
L 236.647469 106.66944 
L 237.297428 109.729732 
L 237.622408 106.270268 
L 237.947387 108.266108 
L 238.272367 104.806644 
L 238.597346 104.806644 
L 238.922326 104.540536 
L 239.247305 108.798344 
L 239.572285 105.604988 
L 239.897265 105.205816 
L 240.222244 106.270268 
L 240.547224 103.076932 
L 240.872203 107.866936 
L 241.197183 106.270268 
L 241.522162 106.536376 
L 241.847142 107.068612 
L 242.172121 109.463624 
L 242.497101 105.604988 
L 242.82208 105.072772 
L 243.14706 103.476084 
L 243.472039 107.467784 
L 244.121998 103.209976 
L 244.446978 105.072772 
L 244.771957 107.733892 
L 245.096937 105.072772 
L 245.421916 106.137204 
L 245.746896 109.33056 
L 246.071876 109.197496 
L 246.396855 108.266108 
L 246.721835 104.6736 
L 247.371794 108.399172 
L 248.021753 104.407492 
L 248.346732 104.274428 
L 248.671712 105.871096 
L 248.996691 104.806644 
L 249.321671 106.270268 
L 249.64665 102.67776 
L 250.296609 106.536376 
L 250.621589 103.609148 
L 250.946568 102.278588 
L 251.596527 106.270268 
L 251.921507 103.609148 
L 252.246486 104.00832 
L 252.571466 103.34304 
L 252.896446 103.742212 
L 253.221425 104.407492 
L 253.546405 108.133064 
L 253.871384 105.205816 
L 254.196364 104.806644 
L 254.521343 105.33888 
L 254.846323 104.939708 
L 255.171302 105.604988 
L 255.496282 101.214136 
L 256.146241 104.00832 
L 256.7962 108.133064 
L 257.121179 104.407492 
L 257.446159 108.133064 
L 257.771138 104.00832 
L 258.096118 106.403332 
L 258.421097 105.072772 
L 258.746077 105.205816 
L 259.071057 104.407492 
L 259.396036 105.072772 
L 259.721016 102.943868 
L 260.045995 103.076932 
L 260.370975 102.67776 
L 260.695954 105.604988 
L 261.020934 102.810804 
L 261.345913 101.081072 
L 261.670893 104.540536 
L 261.995872 103.34304 
L 262.320852 100.948028 
L 262.645831 103.34304 
L 262.970811 103.34304 
L 263.29579 101.879416 
L 263.62077 105.604988 
L 263.945749 102.01248 
L 264.270729 102.411632 
L 264.595708 101.480244 
L 265.245667 105.33888 
L 265.895627 100.415812 
L 266.220606 104.407492 
L 266.545586 102.01248 
L 266.870565 104.407492 
L 267.520524 100.68192 
L 267.845504 102.145524 
L 268.170483 99.617468 
L 268.495463 104.274428 
L 268.820442 102.145524 
L 269.145422 102.411632 
L 269.470401 105.33888 
L 269.795381 104.540536 
L 270.44534 102.145524 
L 270.770319 104.939708 
L 271.095299 106.536376 
L 271.420278 103.742212 
L 271.745258 104.806644 
L 272.070238 101.613308 
L 272.395217 104.00832 
L 272.720197 103.209976 
L 273.045176 100.948028 
L 273.370156 103.209976 
L 273.695135 104.00832 
L 274.020115 100.814964 
L 274.345094 103.34304 
L 274.670074 100.68192 
L 275.320033 103.34304 
L 275.645012 101.3472 
L 275.969992 103.742212 
L 276.294971 100.948028 
L 276.619951 102.544696 
L 276.94493 100.68192 
L 277.26991 101.480244 
L 277.594889 99.750532 
L 277.919869 105.738052 
L 278.244848 103.476084 
L 278.569828 104.6736 
L 278.894808 103.742212 
L 279.219787 101.214136 
L 279.544767 101.613308 
L 279.869746 103.076932 
L 280.194726 102.544696 
L 280.844685 100.282748 
L 281.169664 101.613308 
L 281.494644 99.750532 
L 281.819623 99.218296 
L 282.144603 102.544696 
L 282.469582 101.081072 
L 282.794562 101.613308 
L 283.119541 100.548856 
L 283.444521 100.01664 
L 283.7695 103.476084 
L 284.09448 103.34304 
L 284.419459 103.742212 
L 284.744439 102.810804 
L 285.069419 105.205816 
L 285.394398 100.282748 
L 285.719378 102.67776 
L 286.044357 103.34304 
L 286.369337 102.01248 
L 286.694316 102.544696 
L 287.019296 102.01248 
L 287.344275 103.742212 
L 287.669255 102.810804 
L 287.994234 104.939708 
L 288.319214 100.415812 
L 288.644193 100.01664 
L 288.969173 103.609148 
L 289.294152 103.209976 
L 289.619132 99.35136 
L 289.944111 103.076932 
L 290.269091 101.480244 
L 290.59407 100.68192 
L 290.91905 104.407492 
L 291.569009 99.750532 
L 291.893989 102.411632 
L 292.218968 102.01248 
L 292.543948 100.01664 
L 292.868927 102.67776 
L 293.193907 103.34304 
L 293.518886 102.810804 
L 293.843866 100.814964 
L 294.168845 100.149704 
L 294.493825 100.68192 
L 294.818804 100.814964 
L 295.143784 100.68192 
L 295.468763 101.214136 
L 295.793743 101.480244 
L 296.118722 100.548856 
L 296.443702 101.081072 
L 296.768681 100.548856 
L 297.093661 99.617468 
L 297.41864 101.879416 
L 297.74362 100.01664 
L 298.0686 100.948028 
L 298.393579 101.081072 
L 298.718559 100.415812 
L 299.043538 102.411632 
L 299.368518 102.01248 
L 299.693497 98.286928 
L 300.018477 101.081072 
L 300.343456 100.68192 
L 300.668436 103.209976 
L 300.993415 98.553036 
L 301.318395 99.750532 
L 301.643374 102.943868 
L 301.968354 100.814964 
L 302.293333 101.081072 
L 302.618313 102.01248 
L 302.943292 100.548856 
L 303.268272 96.291068 
L 303.593251 101.613308 
L 303.918231 102.145524 
L 304.24321 102.145524 
L 304.56819 101.746352 
L 304.89317 100.814964 
L 305.218149 97.222476 
L 305.543129 102.544696 
L 305.868108 101.3472 
L 306.193088 101.879416 
L 306.518067 100.68192 
L 306.843047 101.746352 
L 307.168026 100.282748 
L 307.493006 98.0208 
L 307.817985 100.149704 
L 308.142965 100.01664 
L 308.467944 101.879416 
L 308.792924 100.282748 
L 309.117903 100.948028 
L 309.442883 103.076932 
L 309.767862 99.750532 
L 310.092842 99.617468 
L 310.417821 100.814964 
L 310.742801 95.758852 
L 311.067781 98.952188 
L 311.39276 97.621648 
L 311.71774 102.411632 
L 312.042719 98.68608 
L 312.367699 99.35136 
L 313.017658 98.68608 
L 313.342637 102.01248 
L 313.667617 97.488584 
L 313.992596 96.424132 
L 314.317576 97.35552 
L 314.642555 100.948028 
L 314.967535 99.218296 
L 315.292514 102.01248 
L 315.617494 100.282748 
L 315.942473 101.3472 
L 316.267453 99.218296 
L 316.592432 101.081072 
L 316.917412 101.879416 
L 317.242391 100.548856 
L 317.567371 100.01664 
L 317.892351 99.750532 
L 318.21733 98.153864 
L 318.54231 99.484424 
L 318.867289 99.883576 
L 319.192269 97.621648 
L 319.517248 100.948028 
L 319.842228 101.746352 
L 320.167207 98.153864 
L 320.492187 99.883576 
L 320.817166 99.218296 
L 321.142146 97.089412 
L 321.467125 98.153864 
L 321.792105 100.282748 
L 322.117084 98.819144 
L 322.442064 98.419972 
L 322.767043 95.758852 
L 323.092023 99.085252 
L 323.417002 101.081072 
L 323.741982 96.424132 
L 324.066962 100.01664 
L 324.391941 99.484424 
L 324.716921 99.35136 
L 325.0419 102.943868 
L 325.36688 98.952188 
L 325.691859 98.0208 
L 326.016839 98.952188 
L 326.341818 96.956368 
L 326.666798 96.69024 
L 326.991777 96.956368 
L 327.316757 99.218296 
L 327.641736 98.419972 
L 327.966716 97.222476 
L 328.291695 99.883576 
L 328.616675 98.952188 
L 328.941654 99.218296 
L 329.266634 98.68608 
L 329.591613 100.548856 
L 329.916593 98.68608 
L 330.241572 100.415812 
L 330.566552 100.548856 
L 330.891532 98.819144 
L 331.216511 99.085252 
L 331.541491 98.419972 
L 331.86647 98.952188 
L 332.516429 96.02496 
L 332.841409 96.02496 
L 333.166388 97.887756 
L 333.491368 94.6944 
L 333.816347 95.492744 
L 334.141327 98.553036 
L 334.466306 96.424132 
L 334.791286 97.887756 
L 335.116265 96.158024 
L 335.441245 98.153864 
L 335.766224 98.952188 
L 336.091204 96.956368 
L 336.416183 98.419972 
L 336.741163 97.621648 
L 337.391122 98.286928 
L 337.716102 99.218296 
L 338.041081 97.621648 
L 338.366061 97.887756 
L 338.69104 99.35136 
L 339.01602 95.35968 
L 339.340999 100.68192 
L 339.990958 96.424132 
L 340.315938 98.553036 
L 340.640917 98.419972 
L 340.965897 99.218296 
L 341.290876 98.153864 
L 341.615856 100.68192 
L 341.940835 96.557196 
L 342.265815 96.69024 
L 342.590794 97.488584 
L 342.915774 94.960508 
L 343.565733 102.278588 
L 343.890713 98.419972 
L 344.215692 96.823304 
L 344.540672 100.415812 
L 344.865651 94.6944 
L 345.190631 97.222476 
L 345.51561 98.0208 
L 345.84059 101.746352 
L 346.490549 96.291068 
L 346.815528 97.089412 
L 347.140508 99.750532 
L 347.465487 98.0208 
L 347.790467 98.553036 
L 348.115446 93.896076 
L 348.440426 98.153864 
L 348.765405 95.35968 
L 349.090385 96.291068 
L 349.415364 99.085252 
L 349.740344 98.819144 
L 350.065324 98.952188 
L 350.390303 96.291068 
L 350.715283 96.291068 
L 351.040262 97.621648 
L 351.365242 97.35552 
L 351.690221 94.02912 
L 352.34018 100.814964 
L 352.66516 96.557196 
L 352.990139 98.952188 
L 353.315119 92.432452 
L 353.640098 98.153864 
L 353.965078 95.492744 
L 354.290057 95.492744 
L 354.615037 98.952188 
L 354.940016 94.162184 
L 355.264996 96.956368 
L 355.589975 95.625788 
L 355.914955 96.956368 
L 356.239934 98.952188 
L 356.564914 94.561356 
L 356.889894 97.887756 
L 357.214873 95.891916 
L 357.539853 97.35552 
L 357.864832 95.625788 
L 358.189812 98.419972 
L 358.514791 96.823304 
L 358.839771 96.02496 
L 359.16475 91.900216 
L 359.48973 94.827464 
L 360.464668 96.158024 
L 360.789648 99.883576 
L 361.114627 94.960508 
L 361.439607 94.428292 
L 361.764586 94.960508 
L 362.089566 98.419972 
L 362.414545 97.621648 
L 363.064505 93.230796 
L 363.389484 96.158024 
L 363.714464 95.492744 
L 364.364423 98.286928 
L 365.339361 93.629948 
L 365.664341 96.158024 
L 365.98932 97.35552 
L 366.639279 93.629948 
L 366.964259 95.891916 
L 367.289238 93.763012 
L 367.614218 96.158024 
L 367.939197 95.226636 
L 368.264177 94.960508 
L 368.589156 97.621648 
L 368.914136 96.02496 
L 369.239115 95.226636 
L 369.564095 92.831624 
L 369.889075 94.960508 
L 370.214054 95.758852 
L 370.539034 95.093572 
L 370.864013 93.230796 
L 371.188993 94.428292 
L 371.513972 94.295228 
L 371.838952 93.896076 
L 372.163931 94.02912 
L 372.488911 93.230796 
L 372.81389 96.557196 
L 373.13887 96.02496 
L 373.463849 94.827464 
L 373.788829 97.35552 
L 374.113808 95.35968 
L 374.438788 95.891916 
L 375.088747 95.625788 
L 375.413726 96.69024 
L 376.063686 92.299388 
L 376.388665 95.492744 
L 376.713645 96.158024 
L 377.038624 94.295228 
L 377.363604 91.767172 
L 377.688583 94.162184 
L 378.013563 94.6944 
L 378.338542 94.162184 
L 378.663522 94.295228 
L 379.313481 95.625788 
L 379.63846 97.754692 
L 380.288419 95.093572 
L 380.613399 94.162184 
L 380.938378 95.093572 
L 381.263358 94.02912 
L 381.588337 94.02912 
L 381.913317 92.831624 
L 382.238296 94.6944 
L 382.563276 92.964668 
L 382.888256 94.02912 
L 383.213235 95.625788 
L 383.538215 94.162184 
L 383.863194 89.771332 
L 384.188174 96.956368 
L 384.513153 92.831624 
L 384.838133 93.763012 
L 385.163112 97.089412 
L 385.813071 94.6944 
L 386.138051 95.35968 
L 386.46303 92.69856 
L 386.78801 94.960508 
L 387.112989 96.158024 
L 387.437969 96.02496 
L 387.762948 91.234936 
L 388.412907 96.424132 
L 388.737887 95.891916 
L 389.387846 92.03328 
L 390.037805 93.097732 
L 390.362785 97.089412 
L 390.687764 95.226636 
L 391.012744 94.6944 
L 391.337723 95.492744 
L 391.662703 93.36384 
L 391.987682 94.6944 
L 392.312662 94.295228 
L 392.637641 92.565496 
L 392.962621 95.492744 
L 393.2876 93.763012 
L 393.61258 93.496904 
L 393.937559 92.166344 
L 394.262539 92.432452 
L 394.587518 94.6944 
L 394.912498 94.827464 
L 395.237477 94.561356 
L 395.562457 90.968828 
L 395.887437 94.162184 
L 396.537396 95.093572 
L 396.862375 94.561356 
L 397.187355 93.629948 
L 397.512334 95.226636 
L 397.837314 90.835784 
L 398.162293 94.561356 
L 398.487273 93.496904 
L 398.487273 93.496904 
" style="fill:none;stroke:#2ca02c;stroke-linecap:square;stroke-width:1.5;"/>
   </g>
   <g id="patch_3">
    <path d="M 57.6 307.584 
L 57.6 41.472 
" style="fill:none;stroke:#000000;stroke-linecap:square;stroke-linejoin:miter;stroke-width:0.8;"/>
   </g>
   <g id="patch_4">
    <path d="M 414.72 307.584 
L 414.72 41.472 
" style="fill:none;stroke:#000000;stroke-linecap:square;stroke-linejoin:miter;stroke-width:0.8;"/>
   </g>
   <g id="patch_5">
    <path d="M 57.6 307.584 
L 414.72 307.584 
" style="fill:none;stroke:#000000;stroke-linecap:square;stroke-linejoin:miter;stroke-width:0.8;"/>
   </g>
   <g id="patch_6">
    <path d="M 57.6 41.472 
L 414.72 41.472 
" style="fill:none;stroke:#000000;stroke-linecap:square;stroke-linejoin:miter;stroke-width:0.8;"/>
   </g>
   <g id="text_14">
    <!-- -greedy agents -->
    <defs>
     <path d="M 19.28125 29.5 
Q 13.8125 30.671875 10.890625 33.84375 
Q 7.953125 36.96875 7.953125 41.5 
Q 7.953125 48.390625 13.53125 52.25 
Q 19.046875 56.0625 28.609375 56.0625 
Q 32.328125 56.0625 36.46875 55.46875 
Q 40.625 54.890625 45.40625 53.71875 
L 45.40625 45.5625 
Q 40.671875 46.96875 36.765625 47.609375 
Q 32.8125 48.25 29.34375 48.25 
Q 23.53125 48.25 20.171875 46 
Q 16.75 43.75 16.75 40.625 
Q 16.75 37.203125 20.0625 35.015625 
Q 23.34375 32.859375 29 32.859375 
L 36.578125 32.859375 
L 36.578125 25.4375 
L 29.34375 25.4375 
Q 22.65625 25.4375 19.140625 22.953125 
Q 15.328125 20.21875 15.328125 15.921875 
Q 15.328125 11.53125 19.4375 8.796875 
Q 23.578125 6.0625 30.953125 6.0625 
Q 35.5 6.0625 39.65625 6.9375 
Q 43.796875 7.859375 47.265625 9.671875 
L 47.265625 1.3125 
Q 42.875 -0.046875 38.765625 -0.734375 
Q 34.625 -1.421875 30.71875 -1.421875 
Q 19.09375 -1.421875 12.796875 3.03125 
Q 6.5 7.46875 6.5 15.921875 
Q 6.5 21.1875 9.859375 24.75 
Q 13.234375 28.328125 19.28125 29.5 
z
" id="DejaVuSans-3b5"/>
     <path d="M 4.890625 31.390625 
L 31.203125 31.390625 
L 31.203125 23.390625 
L 4.890625 23.390625 
z
" id="DejaVuSans-2d"/>
     <path d="M 45.40625 27.984375 
Q 45.40625 37.75 41.375 43.109375 
Q 37.359375 48.484375 30.078125 48.484375 
Q 22.859375 48.484375 18.828125 43.109375 
Q 14.796875 37.75 14.796875 27.984375 
Q 14.796875 18.265625 18.828125 12.890625 
Q 22.859375 7.515625 30.078125 7.515625 
Q 37.359375 7.515625 41.375 12.890625 
Q 45.40625 18.265625 45.40625 27.984375 
z
M 54.390625 6.78125 
Q 54.390625 -7.171875 48.1875 -13.984375 
Q 42 -20.796875 29.203125 -20.796875 
Q 24.46875 -20.796875 20.265625 -20.09375 
Q 16.0625 -19.390625 12.109375 -17.921875 
L 12.109375 -9.1875 
Q 16.0625 -11.328125 19.921875 -12.34375 
Q 23.78125 -13.375 27.78125 -13.375 
Q 36.625 -13.375 41.015625 -8.765625 
Q 45.40625 -4.15625 45.40625 5.171875 
L 45.40625 9.625 
Q 42.625 4.78125 38.28125 2.390625 
Q 33.9375 0 27.875 0 
Q 17.828125 0 11.671875 7.65625 
Q 5.515625 15.328125 5.515625 27.984375 
Q 5.515625 40.671875 11.671875 48.328125 
Q 17.828125 56 27.875 56 
Q 33.9375 56 38.28125 53.609375 
Q 42.625 51.21875 45.40625 46.390625 
L 45.40625 54.6875 
L 54.390625 54.6875 
z
" id="DejaVuSans-67"/>
     <path d="M 41.109375 46.296875 
Q 39.59375 47.171875 37.8125 47.578125 
Q 36.03125 48 33.890625 48 
Q 26.265625 48 22.1875 43.046875 
Q 18.109375 38.09375 18.109375 28.8125 
L 18.109375 0 
L 9.078125 0 
L 9.078125 54.6875 
L 18.109375 54.6875 
L 18.109375 46.1875 
Q 20.953125 51.171875 25.484375 53.578125 
Q 30.03125 56 36.53125 56 
Q 37.453125 56 38.578125 55.875 
Q 39.703125 55.765625 41.0625 55.515625 
z
" id="DejaVuSans-72"/>
     <path d="M 45.40625 46.390625 
L 45.40625 75.984375 
L 54.390625 75.984375 
L 54.390625 0 
L 45.40625 0 
L 45.40625 8.203125 
Q 42.578125 3.328125 38.25 0.953125 
Q 33.9375 -1.421875 27.875 -1.421875 
Q 17.96875 -1.421875 11.734375 6.484375 
Q 5.515625 14.40625 5.515625 27.296875 
Q 5.515625 40.1875 11.734375 48.09375 
Q 17.96875 56 27.875 56 
Q 33.9375 56 38.25 53.625 
Q 42.578125 51.265625 45.40625 46.390625 
z
M 14.796875 27.296875 
Q 14.796875 17.390625 18.875 11.75 
Q 22.953125 6.109375 30.078125 6.109375 
Q 37.203125 6.109375 41.296875 11.75 
Q 45.40625 17.390625 45.40625 27.296875 
Q 45.40625 37.203125 41.296875 42.84375 
Q 37.203125 48.484375 30.078125 48.484375 
Q 22.953125 48.484375 18.875 42.84375 
Q 14.796875 37.203125 14.796875 27.296875 
z
" id="DejaVuSans-64"/>
     <path d="M 32.171875 -5.078125 
Q 28.375 -14.84375 24.75 -17.8125 
Q 21.140625 -20.796875 15.09375 -20.796875 
L 7.90625 -20.796875 
L 7.90625 -13.28125 
L 13.1875 -13.28125 
Q 16.890625 -13.28125 18.9375 -11.515625 
Q 21 -9.765625 23.484375 -3.21875 
L 25.09375 0.875 
L 2.984375 54.6875 
L 12.5 54.6875 
L 29.59375 11.921875 
L 46.6875 54.6875 
L 56.203125 54.6875 
z
" id="DejaVuSans-79"/>
    </defs>
    <g transform="translate(187.369687 35.472)scale(0.12 -0.12)">
     <use xlink:href="#DejaVuSans-3b5"/>
     <use x="54.052734" xlink:href="#DejaVuSans-2d"/>
     <use x="90.136719" xlink:href="#DejaVuSans-67"/>
     <use x="153.613281" xlink:href="#DejaVuSans-72"/>
     <use x="194.695312" xlink:href="#DejaVuSans-65"/>
     <use x="256.21875" xlink:href="#DejaVuSans-65"/>
     <use x="317.742188" xlink:href="#DejaVuSans-64"/>
     <use x="381.21875" xlink:href="#DejaVuSans-79"/>
     <use x="440.398438" xlink:href="#DejaVuSans-20"/>
     <use x="472.185547" xlink:href="#DejaVuSans-61"/>
     <use x="533.464844" xlink:href="#DejaVuSans-67"/>
     <use x="596.941406" xlink:href="#DejaVuSans-65"/>
     <use x="658.464844" xlink:href="#DejaVuSans-6e"/>
     <use x="721.84375" xlink:href="#DejaVuSans-74"/>
     <use x="761.052734" xlink:href="#DejaVuSans-73"/>
    </g>
   </g>
   <g id="legend_1">
    <g id="patch_7">
     <path d="M 64.6 93.506375 
L 132.65 93.506375 
Q 134.65 93.506375 134.65 91.506375 
L 134.65 48.472 
Q 134.65 46.472 132.65 46.472 
L 64.6 46.472 
Q 62.6 46.472 62.6 48.472 
L 62.6 91.506375 
Q 62.6 93.506375 64.6 93.506375 
z
" style="fill:#ffffff;opacity:0.8;stroke:#cccccc;stroke-linejoin:miter;"/>
    </g>
    <g id="line2d_15">
     <path d="M 66.6 54.570438 
L 86.6 54.570438 
" style="fill:none;stroke:#1f77b4;stroke-linecap:square;stroke-width:1.5;"/>
    </g>
    <g id="line2d_16"/>
    <g id="text_15">
     <!-- =0, -->
     <defs>
      <path d="M 10.59375 45.40625 
L 73.1875 45.40625 
L 73.1875 37.203125 
L 10.59375 37.203125 
z
M 10.59375 25.484375 
L 73.1875 25.484375 
L 73.1875 17.1875 
L 10.59375 17.1875 
z
" id="DejaVuSans-3d"/>
      <path d="M 11.71875 12.40625 
L 22.015625 12.40625 
L 22.015625 4 
L 14.015625 -11.625 
L 7.71875 -11.625 
L 11.71875 4 
z
" id="DejaVuSans-2c"/>
     </defs>
     <g transform="translate(94.6 58.070438)scale(0.1 -0.1)">
      <use xlink:href="#DejaVuSans-3b5"/>
      <use x="54.052734" xlink:href="#DejaVuSans-3d"/>
      <use x="137.841797" xlink:href="#DejaVuSans-30"/>
      <use x="201.464844" xlink:href="#DejaVuSans-2c"/>
     </g>
    </g>
    <g id="line2d_17">
     <path d="M 66.6 69.248563 
L 86.6 69.248563 
" style="fill:none;stroke:#ff7f0e;stroke-linecap:square;stroke-width:1.5;"/>
    </g>
    <g id="line2d_18"/>
    <g id="text_16">
     <!-- =0.01 -->
     <defs>
      <path d="M 10.6875 12.40625 
L 21 12.40625 
L 21 0 
L 10.6875 0 
z
" id="DejaVuSans-2e"/>
     </defs>
     <g transform="translate(94.6 72.748563)scale(0.1 -0.1)">
      <use xlink:href="#DejaVuSans-3b5"/>
      <use x="54.052734" xlink:href="#DejaVuSans-3d"/>
      <use x="137.841797" xlink:href="#DejaVuSans-30"/>
      <use x="201.464844" xlink:href="#DejaVuSans-2e"/>
      <use x="233.251953" xlink:href="#DejaVuSans-30"/>
      <use x="296.875" xlink:href="#DejaVuSans-31"/>
     </g>
    </g>
    <g id="line2d_19">
     <path d="M 66.6 83.926688 
L 86.6 83.926688 
" style="fill:none;stroke:#2ca02c;stroke-linecap:square;stroke-width:1.5;"/>
    </g>
    <g id="line2d_20"/>
    <g id="text_17">
     <!-- =0.1 -->
     <g transform="translate(94.6 87.426688)scale(0.1 -0.1)">
      <use xlink:href="#DejaVuSans-3b5"/>
      <use x="54.052734" xlink:href="#DejaVuSans-3d"/>
      <use x="137.841797" xlink:href="#DejaVuSans-30"/>
      <use x="201.464844" xlink:href="#DejaVuSans-2e"/>
      <use x="233.251953" xlink:href="#DejaVuSans-31"/>
     </g>
    </g>
   </g>
  </g>
 </g>
 <defs>
  <clipPath id="p0f0a414ad4">
   <rect height="266.112" width="357.12" x="57.6" y="41.472"/>
  </clipPath>
 </defs>
</svg>
