<?xml version="1.0" encoding="utf-8" standalone="no"?>
<!DOCTYPE svg PUBLIC "-//W3C//DTD SVG 1.1//EN"
  "http://www.w3.org/Graphics/SVG/1.1/DTD/svg11.dtd">
<!-- Created with matplotlib (http://matplotlib.org/) -->
<svg height="345.6pt" version="1.1" viewBox="0 0 460.8 345.6" width="460.8pt" xmlns="http://www.w3.org/2000/svg" xmlns:xlink="http://www.w3.org/1999/xlink">
 <defs>
  <style type="text/css">
*{stroke-linecap:butt;stroke-linejoin:round;}
  </style>
 </defs>
 <g id="figure_1">
  <g id="patch_1">
   <path d="M 0 345.6 
L 460.8 345.6 
L 460.8 0 
L 0 0 
z
" style="fill:#ffffff;"/>
  </g>
  <g id="axes_1">
   <g id="patch_2">
    <path d="M 57.6 307.584 
L 414.72 307.584 
L 414.72 41.472 
L 57.6 41.472 
z
" style="fill:#ffffff;"/>
   </g>
   <g id="matplotlib.axis_1">
    <g id="xtick_1">
     <g id="line2d_1">
      <defs>
       <path d="M 0 0 
L 0 3.5 
" id="mf0b07ec70f" style="stroke:#000000;stroke-width:0.8;"/>
      </defs>
      <g>
       <use style="stroke:#000000;stroke-width:0.8;" x="73.832727" xlink:href="#mf0b07ec70f" y="307.584"/>
      </g>
     </g>
     <g id="text_1">
      <!-- 0 -->
      <defs>
       <path d="M 31.78125 66.40625 
Q 24.171875 66.40625 20.328125 58.90625 
Q 16.5 51.421875 16.5 36.375 
Q 16.5 21.390625 20.328125 13.890625 
Q 24.171875 6.390625 31.78125 6.390625 
Q 39.453125 6.390625 43.28125 13.890625 
Q 47.125 21.390625 47.125 36.375 
Q 47.125 51.421875 43.28125 58.90625 
Q 39.453125 66.40625 31.78125 66.40625 
z
M 31.78125 74.21875 
Q 44.046875 74.21875 50.515625 64.515625 
Q 56.984375 54.828125 56.984375 36.375 
Q 56.984375 17.96875 50.515625 8.265625 
Q 44.046875 -1.421875 31.78125 -1.421875 
Q 19.53125 -1.421875 13.0625 8.265625 
Q 6.59375 17.96875 6.59375 36.375 
Q 6.59375 54.828125 13.0625 64.515625 
Q 19.53125 74.21875 31.78125 74.21875 
z
" id="DejaVuSans-30"/>
      </defs>
      <g transform="translate(70.651477 322.182437)scale(0.1 -0.1)">
       <use xlink:href="#DejaVuSans-30"/>
      </g>
     </g>
    </g>
    <g id="xtick_2">
     <g id="line2d_2">
      <g>
       <use style="stroke:#000000;stroke-width:0.8;" x="155.077609" xlink:href="#mf0b07ec70f" y="307.584"/>
      </g>
     </g>
     <g id="text_2">
      <!-- 250 -->
      <defs>
       <path d="M 19.1875 8.296875 
L 53.609375 8.296875 
L 53.609375 0 
L 7.328125 0 
L 7.328125 8.296875 
Q 12.9375 14.109375 22.625 23.890625 
Q 32.328125 33.6875 34.8125 36.53125 
Q 39.546875 41.84375 41.421875 45.53125 
Q 43.3125 49.21875 43.3125 52.78125 
Q 43.3125 58.59375 39.234375 62.25 
Q 35.15625 65.921875 28.609375 65.921875 
Q 23.96875 65.921875 18.8125 64.3125 
Q 13.671875 62.703125 7.8125 59.421875 
L 7.8125 69.390625 
Q 13.765625 71.78125 18.9375 73 
Q 24.125 74.21875 28.421875 74.21875 
Q 39.75 74.21875 46.484375 68.546875 
Q 53.21875 62.890625 53.21875 53.421875 
Q 53.21875 48.921875 51.53125 44.890625 
Q 49.859375 40.875 45.40625 35.40625 
Q 44.1875 33.984375 37.640625 27.21875 
Q 31.109375 20.453125 19.1875 8.296875 
z
" id="DejaVuSans-32"/>
       <path d="M 10.796875 72.90625 
L 49.515625 72.90625 
L 49.515625 64.59375 
L 19.828125 64.59375 
L 19.828125 46.734375 
Q 21.96875 47.46875 24.109375 47.828125 
Q 26.265625 48.1875 28.421875 48.1875 
Q 40.625 48.1875 47.75 41.5 
Q 54.890625 34.8125 54.890625 23.390625 
Q 54.890625 11.625 47.5625 5.09375 
Q 40.234375 -1.421875 26.90625 -1.421875 
Q 22.3125 -1.421875 17.546875 -0.640625 
Q 12.796875 0.140625 7.71875 1.703125 
L 7.71875 11.625 
Q 12.109375 9.234375 16.796875 8.0625 
Q 21.484375 6.890625 26.703125 6.890625 
Q 35.15625 6.890625 40.078125 11.328125 
Q 45.015625 15.765625 45.015625 23.390625 
Q 45.015625 31 40.078125 35.4375 
Q 35.15625 39.890625 26.703125 39.890625 
Q 22.75 39.890625 18.8125 39.015625 
Q 14.890625 38.140625 10.796875 36.28125 
z
" id="DejaVuSans-35"/>
      </defs>
      <g transform="translate(145.533859 322.182437)scale(0.1 -0.1)">
       <use xlink:href="#DejaVuSans-32"/>
       <use x="63.623047" xlink:href="#DejaVuSans-35"/>
       <use x="127.246094" xlink:href="#DejaVuSans-30"/>
      </g>
     </g>
    </g>
    <g id="xtick_3">
     <g id="line2d_3">
      <g>
       <use style="stroke:#000000;stroke-width:0.8;" x="236.32249" xlink:href="#mf0b07ec70f" y="307.584"/>
      </g>
     </g>
     <g id="text_3">
      <!-- 500 -->
      <g transform="translate(226.77874 322.182437)scale(0.1 -0.1)">
       <use xlink:href="#DejaVuSans-35"/>
       <use x="63.623047" xlink:href="#DejaVuSans-30"/>
       <use x="127.246094" xlink:href="#DejaVuSans-30"/>
      </g>
     </g>
    </g>
    <g id="xtick_4">
     <g id="line2d_4">
      <g>
       <use style="stroke:#000000;stroke-width:0.8;" x="317.567371" xlink:href="#mf0b07ec70f" y="307.584"/>
      </g>
     </g>
     <g id="text_4">
      <!-- 750 -->
      <defs>
       <path d="M 8.203125 72.90625 
L 55.078125 72.90625 
L 55.078125 68.703125 
L 28.609375 0 
L 18.3125 0 
L 43.21875 64.59375 
L 8.203125 64.59375 
z
" id="DejaVuSans-37"/>
      </defs>
      <g transform="translate(308.023621 322.182437)scale(0.1 -0.1)">
       <use xlink:href="#DejaVuSans-37"/>
       <use x="63.623047" xlink:href="#DejaVuSans-35"/>
       <use x="127.246094" xlink:href="#DejaVuSans-30"/>
      </g>
     </g>
    </g>
    <g id="xtick_5">
     <g id="line2d_5">
      <g>
       <use style="stroke:#000000;stroke-width:0.8;" x="398.812252" xlink:href="#mf0b07ec70f" y="307.584"/>
      </g>
     </g>
     <g id="text_5">
      <!-- 1000 -->
      <defs>
       <path d="M 12.40625 8.296875 
L 28.515625 8.296875 
L 28.515625 63.921875 
L 10.984375 60.40625 
L 10.984375 69.390625 
L 28.421875 72.90625 
L 38.28125 72.90625 
L 38.28125 8.296875 
L 54.390625 8.296875 
L 54.390625 0 
L 12.40625 0 
z
" id="DejaVuSans-31"/>
      </defs>
      <g transform="translate(386.087252 322.182437)scale(0.1 -0.1)">
       <use xlink:href="#DejaVuSans-31"/>
       <use x="63.623047" xlink:href="#DejaVuSans-30"/>
       <use x="127.246094" xlink:href="#DejaVuSans-30"/>
       <use x="190.869141" xlink:href="#DejaVuSans-30"/>
      </g>
     </g>
    </g>
    <g id="text_6">
     <!-- Steps -->
     <defs>
      <path d="M 53.515625 70.515625 
L 53.515625 60.890625 
Q 47.90625 63.578125 42.921875 64.890625 
Q 37.9375 66.21875 33.296875 66.21875 
Q 25.25 66.21875 20.875 63.09375 
Q 16.5 59.96875 16.5 54.203125 
Q 16.5 49.359375 19.40625 46.890625 
Q 22.3125 44.4375 30.421875 42.921875 
L 36.375 41.703125 
Q 47.40625 39.59375 52.65625 34.296875 
Q 57.90625 29 57.90625 20.125 
Q 57.90625 9.515625 50.796875 4.046875 
Q 43.703125 -1.421875 29.984375 -1.421875 
Q 24.8125 -1.421875 18.96875 -0.25 
Q 13.140625 0.921875 6.890625 3.21875 
L 6.890625 13.375 
Q 12.890625 10.015625 18.65625 8.296875 
Q 24.421875 6.59375 29.984375 6.59375 
Q 38.421875 6.59375 43.015625 9.90625 
Q 47.609375 13.234375 47.609375 19.390625 
Q 47.609375 24.75 44.3125 27.78125 
Q 41.015625 30.8125 33.5 32.328125 
L 27.484375 33.5 
Q 16.453125 35.6875 11.515625 40.375 
Q 6.59375 45.0625 6.59375 53.421875 
Q 6.59375 63.09375 13.40625 68.65625 
Q 20.21875 74.21875 32.171875 74.21875 
Q 37.3125 74.21875 42.625 73.28125 
Q 47.953125 72.359375 53.515625 70.515625 
z
" id="DejaVuSans-53"/>
      <path d="M 18.3125 70.21875 
L 18.3125 54.6875 
L 36.8125 54.6875 
L 36.8125 47.703125 
L 18.3125 47.703125 
L 18.3125 18.015625 
Q 18.3125 11.328125 20.140625 9.421875 
Q 21.96875 7.515625 27.59375 7.515625 
L 36.8125 7.515625 
L 36.8125 0 
L 27.59375 0 
Q 17.1875 0 13.234375 3.875 
Q 9.28125 7.765625 9.28125 18.015625 
L 9.28125 47.703125 
L 2.6875 47.703125 
L 2.6875 54.6875 
L 9.28125 54.6875 
L 9.28125 70.21875 
z
" id="DejaVuSans-74"/>
      <path d="M 56.203125 29.59375 
L 56.203125 25.203125 
L 14.890625 25.203125 
Q 15.484375 15.921875 20.484375 11.0625 
Q 25.484375 6.203125 34.421875 6.203125 
Q 39.59375 6.203125 44.453125 7.46875 
Q 49.3125 8.734375 54.109375 11.28125 
L 54.109375 2.78125 
Q 49.265625 0.734375 44.1875 -0.34375 
Q 39.109375 -1.421875 33.890625 -1.421875 
Q 20.796875 -1.421875 13.15625 6.1875 
Q 5.515625 13.8125 5.515625 26.8125 
Q 5.515625 40.234375 12.765625 48.109375 
Q 20.015625 56 32.328125 56 
Q 43.359375 56 49.78125 48.890625 
Q 56.203125 41.796875 56.203125 29.59375 
z
M 47.21875 32.234375 
Q 47.125 39.59375 43.09375 43.984375 
Q 39.0625 48.390625 32.421875 48.390625 
Q 24.90625 48.390625 20.390625 44.140625 
Q 15.875 39.890625 15.1875 32.171875 
z
" id="DejaVuSans-65"/>
      <path d="M 18.109375 8.203125 
L 18.109375 -20.796875 
L 9.078125 -20.796875 
L 9.078125 54.6875 
L 18.109375 54.6875 
L 18.109375 46.390625 
Q 20.953125 51.265625 25.265625 53.625 
Q 29.59375 56 35.59375 56 
Q 45.5625 56 51.78125 48.09375 
Q 58.015625 40.1875 58.015625 27.296875 
Q 58.015625 14.40625 51.78125 6.484375 
Q 45.5625 -1.421875 35.59375 -1.421875 
Q 29.59375 -1.421875 25.265625 0.953125 
Q 20.953125 3.328125 18.109375 8.203125 
z
M 48.6875 27.296875 
Q 48.6875 37.203125 44.609375 42.84375 
Q 40.53125 48.484375 33.40625 48.484375 
Q 26.265625 48.484375 22.1875 42.84375 
Q 18.109375 37.203125 18.109375 27.296875 
Q 18.109375 17.390625 22.1875 11.75 
Q 26.265625 6.109375 33.40625 6.109375 
Q 40.53125 6.109375 44.609375 11.75 
Q 48.6875 17.390625 48.6875 27.296875 
z
" id="DejaVuSans-70"/>
      <path d="M 44.28125 53.078125 
L 44.28125 44.578125 
Q 40.484375 46.53125 36.375 47.5 
Q 32.28125 48.484375 27.875 48.484375 
Q 21.1875 48.484375 17.84375 46.4375 
Q 14.5 44.390625 14.5 40.28125 
Q 14.5 37.15625 16.890625 35.375 
Q 19.28125 33.59375 26.515625 31.984375 
L 29.59375 31.296875 
Q 39.15625 29.25 43.1875 25.515625 
Q 47.21875 21.78125 47.21875 15.09375 
Q 47.21875 7.46875 41.1875 3.015625 
Q 35.15625 -1.421875 24.609375 -1.421875 
Q 20.21875 -1.421875 15.453125 -0.5625 
Q 10.6875 0.296875 5.421875 2 
L 5.421875 11.28125 
Q 10.40625 8.6875 15.234375 7.390625 
Q 20.0625 6.109375 24.8125 6.109375 
Q 31.15625 6.109375 34.5625 8.28125 
Q 37.984375 10.453125 37.984375 14.40625 
Q 37.984375 18.0625 35.515625 20.015625 
Q 33.0625 21.96875 24.703125 23.78125 
L 21.578125 24.515625 
Q 13.234375 26.265625 9.515625 29.90625 
Q 5.8125 33.546875 5.8125 39.890625 
Q 5.8125 47.609375 11.28125 51.796875 
Q 16.75 56 26.8125 56 
Q 31.78125 56 36.171875 55.265625 
Q 40.578125 54.546875 44.28125 53.078125 
z
" id="DejaVuSans-73"/>
     </defs>
     <g transform="translate(222.170156 335.860562)scale(0.1 -0.1)">
      <use xlink:href="#DejaVuSans-53"/>
      <use x="63.476562" xlink:href="#DejaVuSans-74"/>
      <use x="102.685547" xlink:href="#DejaVuSans-65"/>
      <use x="164.208984" xlink:href="#DejaVuSans-70"/>
      <use x="227.685547" xlink:href="#DejaVuSans-73"/>
     </g>
    </g>
   </g>
   <g id="matplotlib.axis_2">
    <g id="ytick_1">
     <g id="line2d_6">
      <defs>
       <path d="M 0 0 
L -3.5 0 
" id="m27b6fcc001" style="stroke:#000000;stroke-width:0.8;"/>
      </defs>
      <g>
       <use style="stroke:#000000;stroke-width:0.8;" x="57.6" xlink:href="#m27b6fcc001" y="307.584"/>
      </g>
     </g>
     <g id="text_7">
      <!-- 0 -->
      <g transform="translate(44.2375 311.383219)scale(0.1 -0.1)">
       <use xlink:href="#DejaVuSans-30"/>
      </g>
     </g>
    </g>
    <g id="ytick_2">
     <g id="line2d_7">
      <g>
       <use style="stroke:#000000;stroke-width:0.8;" x="57.6" xlink:href="#m27b6fcc001" y="254.3616"/>
      </g>
     </g>
     <g id="text_8">
      <!-- 20 -->
      <g transform="translate(37.875 258.160819)scale(0.1 -0.1)">
       <use xlink:href="#DejaVuSans-32"/>
       <use x="63.623047" xlink:href="#DejaVuSans-30"/>
      </g>
     </g>
    </g>
    <g id="ytick_3">
     <g id="line2d_8">
      <g>
       <use style="stroke:#000000;stroke-width:0.8;" x="57.6" xlink:href="#m27b6fcc001" y="201.1392"/>
      </g>
     </g>
     <g id="text_9">
      <!-- 40 -->
      <defs>
       <path d="M 37.796875 64.3125 
L 12.890625 25.390625 
L 37.796875 25.390625 
z
M 35.203125 72.90625 
L 47.609375 72.90625 
L 47.609375 25.390625 
L 58.015625 25.390625 
L 58.015625 17.1875 
L 47.609375 17.1875 
L 47.609375 0 
L 37.796875 0 
L 37.796875 17.1875 
L 4.890625 17.1875 
L 4.890625 26.703125 
z
" id="DejaVuSans-34"/>
      </defs>
      <g transform="translate(37.875 204.938419)scale(0.1 -0.1)">
       <use xlink:href="#DejaVuSans-34"/>
       <use x="63.623047" xlink:href="#DejaVuSans-30"/>
      </g>
     </g>
    </g>
    <g id="ytick_4">
     <g id="line2d_9">
      <g>
       <use style="stroke:#000000;stroke-width:0.8;" x="57.6" xlink:href="#m27b6fcc001" y="147.9168"/>
      </g>
     </g>
     <g id="text_10">
      <!-- 60 -->
      <defs>
       <path d="M 33.015625 40.375 
Q 26.375 40.375 22.484375 35.828125 
Q 18.609375 31.296875 18.609375 23.390625 
Q 18.609375 15.53125 22.484375 10.953125 
Q 26.375 6.390625 33.015625 6.390625 
Q 39.65625 6.390625 43.53125 10.953125 
Q 47.40625 15.53125 47.40625 23.390625 
Q 47.40625 31.296875 43.53125 35.828125 
Q 39.65625 40.375 33.015625 40.375 
z
M 52.59375 71.296875 
L 52.59375 62.3125 
Q 48.875 64.0625 45.09375 64.984375 
Q 41.3125 65.921875 37.59375 65.921875 
Q 27.828125 65.921875 22.671875 59.328125 
Q 17.53125 52.734375 16.796875 39.40625 
Q 19.671875 43.65625 24.015625 45.921875 
Q 28.375 48.1875 33.59375 48.1875 
Q 44.578125 48.1875 50.953125 41.515625 
Q 57.328125 34.859375 57.328125 23.390625 
Q 57.328125 12.15625 50.6875 5.359375 
Q 44.046875 -1.421875 33.015625 -1.421875 
Q 20.359375 -1.421875 13.671875 8.265625 
Q 6.984375 17.96875 6.984375 36.375 
Q 6.984375 53.65625 15.1875 63.9375 
Q 23.390625 74.21875 37.203125 74.21875 
Q 40.921875 74.21875 44.703125 73.484375 
Q 48.484375 72.75 52.59375 71.296875 
z
" id="DejaVuSans-36"/>
      </defs>
      <g transform="translate(37.875 151.716019)scale(0.1 -0.1)">
       <use xlink:href="#DejaVuSans-36"/>
       <use x="63.623047" xlink:href="#DejaVuSans-30"/>
      </g>
     </g>
    </g>
    <g id="ytick_5">
     <g id="line2d_10">
      <g>
       <use style="stroke:#000000;stroke-width:0.8;" x="57.6" xlink:href="#m27b6fcc001" y="94.6944"/>
      </g>
     </g>
     <g id="text_11">
      <!-- 80 -->
      <defs>
       <path d="M 31.78125 34.625 
Q 24.75 34.625 20.71875 30.859375 
Q 16.703125 27.09375 16.703125 20.515625 
Q 16.703125 13.921875 20.71875 10.15625 
Q 24.75 6.390625 31.78125 6.390625 
Q 38.8125 6.390625 42.859375 10.171875 
Q 46.921875 13.96875 46.921875 20.515625 
Q 46.921875 27.09375 42.890625 30.859375 
Q 38.875 34.625 31.78125 34.625 
z
M 21.921875 38.8125 
Q 15.578125 40.375 12.03125 44.71875 
Q 8.5 49.078125 8.5 55.328125 
Q 8.5 64.0625 14.71875 69.140625 
Q 20.953125 74.21875 31.78125 74.21875 
Q 42.671875 74.21875 48.875 69.140625 
Q 55.078125 64.0625 55.078125 55.328125 
Q 55.078125 49.078125 51.53125 44.71875 
Q 48 40.375 41.703125 38.8125 
Q 48.828125 37.15625 52.796875 32.3125 
Q 56.78125 27.484375 56.78125 20.515625 
Q 56.78125 9.90625 50.3125 4.234375 
Q 43.84375 -1.421875 31.78125 -1.421875 
Q 19.734375 -1.421875 13.25 4.234375 
Q 6.78125 9.90625 6.78125 20.515625 
Q 6.78125 27.484375 10.78125 32.3125 
Q 14.796875 37.15625 21.921875 38.8125 
z
M 18.3125 54.390625 
Q 18.3125 48.734375 21.84375 45.5625 
Q 25.390625 42.390625 31.78125 42.390625 
Q 38.140625 42.390625 41.71875 45.5625 
Q 45.3125 48.734375 45.3125 54.390625 
Q 45.3125 60.0625 41.71875 63.234375 
Q 38.140625 66.40625 31.78125 66.40625 
Q 25.390625 66.40625 21.84375 63.234375 
Q 18.3125 60.0625 18.3125 54.390625 
z
" id="DejaVuSans-38"/>
      </defs>
      <g transform="translate(37.875 98.493619)scale(0.1 -0.1)">
       <use xlink:href="#DejaVuSans-38"/>
       <use x="63.623047" xlink:href="#DejaVuSans-30"/>
      </g>
     </g>
    </g>
    <g id="ytick_6">
     <g id="line2d_11">
      <g>
       <use style="stroke:#000000;stroke-width:0.8;" x="57.6" xlink:href="#m27b6fcc001" y="41.472"/>
      </g>
     </g>
     <g id="text_12">
      <!-- 100 -->
      <g transform="translate(31.5125 45.271219)scale(0.1 -0.1)">
       <use xlink:href="#DejaVuSans-31"/>
       <use x="63.623047" xlink:href="#DejaVuSans-30"/>
       <use x="127.246094" xlink:href="#DejaVuSans-30"/>
      </g>
     </g>
    </g>
    <g id="text_13">
     <!-- Optimal action (%) -->
     <defs>
      <path d="M 39.40625 66.21875 
Q 28.65625 66.21875 22.328125 58.203125 
Q 16.015625 50.203125 16.015625 36.375 
Q 16.015625 22.609375 22.328125 14.59375 
Q 28.65625 6.59375 39.40625 6.59375 
Q 50.140625 6.59375 56.421875 14.59375 
Q 62.703125 22.609375 62.703125 36.375 
Q 62.703125 50.203125 56.421875 58.203125 
Q 50.140625 66.21875 39.40625 66.21875 
z
M 39.40625 74.21875 
Q 54.734375 74.21875 63.90625 63.9375 
Q 73.09375 53.65625 73.09375 36.375 
Q 73.09375 19.140625 63.90625 8.859375 
Q 54.734375 -1.421875 39.40625 -1.421875 
Q 24.03125 -1.421875 14.8125 8.828125 
Q 5.609375 19.09375 5.609375 36.375 
Q 5.609375 53.65625 14.8125 63.9375 
Q 24.03125 74.21875 39.40625 74.21875 
z
" id="DejaVuSans-4f"/>
      <path d="M 9.421875 54.6875 
L 18.40625 54.6875 
L 18.40625 0 
L 9.421875 0 
z
M 9.421875 75.984375 
L 18.40625 75.984375 
L 18.40625 64.59375 
L 9.421875 64.59375 
z
" id="DejaVuSans-69"/>
      <path d="M 52 44.1875 
Q 55.375 50.25 60.0625 53.125 
Q 64.75 56 71.09375 56 
Q 79.640625 56 84.28125 50.015625 
Q 88.921875 44.046875 88.921875 33.015625 
L 88.921875 0 
L 79.890625 0 
L 79.890625 32.71875 
Q 79.890625 40.578125 77.09375 44.375 
Q 74.3125 48.1875 68.609375 48.1875 
Q 61.625 48.1875 57.5625 43.546875 
Q 53.515625 38.921875 53.515625 30.90625 
L 53.515625 0 
L 44.484375 0 
L 44.484375 32.71875 
Q 44.484375 40.625 41.703125 44.40625 
Q 38.921875 48.1875 33.109375 48.1875 
Q 26.21875 48.1875 22.15625 43.53125 
Q 18.109375 38.875 18.109375 30.90625 
L 18.109375 0 
L 9.078125 0 
L 9.078125 54.6875 
L 18.109375 54.6875 
L 18.109375 46.1875 
Q 21.1875 51.21875 25.484375 53.609375 
Q 29.78125 56 35.6875 56 
Q 41.65625 56 45.828125 52.96875 
Q 50 49.953125 52 44.1875 
z
" id="DejaVuSans-6d"/>
      <path d="M 34.28125 27.484375 
Q 23.390625 27.484375 19.1875 25 
Q 14.984375 22.515625 14.984375 16.5 
Q 14.984375 11.71875 18.140625 8.90625 
Q 21.296875 6.109375 26.703125 6.109375 
Q 34.1875 6.109375 38.703125 11.40625 
Q 43.21875 16.703125 43.21875 25.484375 
L 43.21875 27.484375 
z
M 52.203125 31.203125 
L 52.203125 0 
L 43.21875 0 
L 43.21875 8.296875 
Q 40.140625 3.328125 35.546875 0.953125 
Q 30.953125 -1.421875 24.3125 -1.421875 
Q 15.921875 -1.421875 10.953125 3.296875 
Q 6 8.015625 6 15.921875 
Q 6 25.140625 12.171875 29.828125 
Q 18.359375 34.515625 30.609375 34.515625 
L 43.21875 34.515625 
L 43.21875 35.40625 
Q 43.21875 41.609375 39.140625 45 
Q 35.0625 48.390625 27.6875 48.390625 
Q 23 48.390625 18.546875 47.265625 
Q 14.109375 46.140625 10.015625 43.890625 
L 10.015625 52.203125 
Q 14.9375 54.109375 19.578125 55.046875 
Q 24.21875 56 28.609375 56 
Q 40.484375 56 46.34375 49.84375 
Q 52.203125 43.703125 52.203125 31.203125 
z
" id="DejaVuSans-61"/>
      <path d="M 9.421875 75.984375 
L 18.40625 75.984375 
L 18.40625 0 
L 9.421875 0 
z
" id="DejaVuSans-6c"/>
      <path id="DejaVuSans-20"/>
      <path d="M 48.78125 52.59375 
L 48.78125 44.1875 
Q 44.96875 46.296875 41.140625 47.34375 
Q 37.3125 48.390625 33.40625 48.390625 
Q 24.65625 48.390625 19.8125 42.84375 
Q 14.984375 37.3125 14.984375 27.296875 
Q 14.984375 17.28125 19.8125 11.734375 
Q 24.65625 6.203125 33.40625 6.203125 
Q 37.3125 6.203125 41.140625 7.25 
Q 44.96875 8.296875 48.78125 10.40625 
L 48.78125 2.09375 
Q 45.015625 0.34375 40.984375 -0.53125 
Q 36.96875 -1.421875 32.421875 -1.421875 
Q 20.0625 -1.421875 12.78125 6.34375 
Q 5.515625 14.109375 5.515625 27.296875 
Q 5.515625 40.671875 12.859375 48.328125 
Q 20.21875 56 33.015625 56 
Q 37.15625 56 41.109375 55.140625 
Q 45.0625 54.296875 48.78125 52.59375 
z
" id="DejaVuSans-63"/>
      <path d="M 30.609375 48.390625 
Q 23.390625 48.390625 19.1875 42.75 
Q 14.984375 37.109375 14.984375 27.296875 
Q 14.984375 17.484375 19.15625 11.84375 
Q 23.34375 6.203125 30.609375 6.203125 
Q 37.796875 6.203125 41.984375 11.859375 
Q 46.1875 17.53125 46.1875 27.296875 
Q 46.1875 37.015625 41.984375 42.703125 
Q 37.796875 48.390625 30.609375 48.390625 
z
M 30.609375 56 
Q 42.328125 56 49.015625 48.375 
Q 55.71875 40.765625 55.71875 27.296875 
Q 55.71875 13.875 49.015625 6.21875 
Q 42.328125 -1.421875 30.609375 -1.421875 
Q 18.84375 -1.421875 12.171875 6.21875 
Q 5.515625 13.875 5.515625 27.296875 
Q 5.515625 40.765625 12.171875 48.375 
Q 18.84375 56 30.609375 56 
z
" id="DejaVuSans-6f"/>
      <path d="M 54.890625 33.015625 
L 54.890625 0 
L 45.90625 0 
L 45.90625 32.71875 
Q 45.90625 40.484375 42.875 44.328125 
Q 39.84375 48.1875 33.796875 48.1875 
Q 26.515625 48.1875 22.3125 43.546875 
Q 18.109375 38.921875 18.109375 30.90625 
L 18.109375 0 
L 9.078125 0 
L 9.078125 54.6875 
L 18.109375 54.6875 
L 18.109375 46.1875 
Q 21.34375 51.125 25.703125 53.5625 
Q 30.078125 56 35.796875 56 
Q 45.21875 56 50.046875 50.171875 
Q 54.890625 44.34375 54.890625 33.015625 
z
" id="DejaVuSans-6e"/>
      <path d="M 31 75.875 
Q 24.46875 64.65625 21.28125 53.65625 
Q 18.109375 42.671875 18.109375 31.390625 
Q 18.109375 20.125 21.3125 9.0625 
Q 24.515625 -2 31 -13.1875 
L 23.1875 -13.1875 
Q 15.875 -1.703125 12.234375 9.375 
Q 8.59375 20.453125 8.59375 31.390625 
Q 8.59375 42.28125 12.203125 53.3125 
Q 15.828125 64.359375 23.1875 75.875 
z
" id="DejaVuSans-28"/>
      <path d="M 72.703125 32.078125 
Q 68.453125 32.078125 66.03125 28.46875 
Q 63.625 24.859375 63.625 18.40625 
Q 63.625 12.0625 66.03125 8.421875 
Q 68.453125 4.78125 72.703125 4.78125 
Q 76.859375 4.78125 79.265625 8.421875 
Q 81.6875 12.0625 81.6875 18.40625 
Q 81.6875 24.8125 79.265625 28.4375 
Q 76.859375 32.078125 72.703125 32.078125 
z
M 72.703125 38.28125 
Q 80.421875 38.28125 84.953125 32.90625 
Q 89.5 27.546875 89.5 18.40625 
Q 89.5 9.28125 84.9375 3.921875 
Q 80.375 -1.421875 72.703125 -1.421875 
Q 64.890625 -1.421875 60.34375 3.921875 
Q 55.8125 9.28125 55.8125 18.40625 
Q 55.8125 27.59375 60.375 32.9375 
Q 64.9375 38.28125 72.703125 38.28125 
z
M 22.3125 68.015625 
Q 18.109375 68.015625 15.6875 64.375 
Q 13.28125 60.75 13.28125 54.390625 
Q 13.28125 47.953125 15.671875 44.328125 
Q 18.0625 40.71875 22.3125 40.71875 
Q 26.5625 40.71875 28.96875 44.328125 
Q 31.390625 47.953125 31.390625 54.390625 
Q 31.390625 60.6875 28.953125 64.34375 
Q 26.515625 68.015625 22.3125 68.015625 
z
M 66.40625 74.21875 
L 74.21875 74.21875 
L 28.609375 -1.421875 
L 20.796875 -1.421875 
z
M 22.3125 74.21875 
Q 30.03125 74.21875 34.609375 68.875 
Q 39.203125 63.53125 39.203125 54.390625 
Q 39.203125 45.171875 34.640625 39.84375 
Q 30.078125 34.515625 22.3125 34.515625 
Q 14.546875 34.515625 10.03125 39.859375 
Q 5.515625 45.21875 5.515625 54.390625 
Q 5.515625 63.484375 10.046875 68.84375 
Q 14.59375 74.21875 22.3125 74.21875 
z
" id="DejaVuSans-25"/>
      <path d="M 8.015625 75.875 
L 15.828125 75.875 
Q 23.140625 64.359375 26.78125 53.3125 
Q 30.421875 42.28125 30.421875 31.390625 
Q 30.421875 20.453125 26.78125 9.375 
Q 23.140625 -1.703125 15.828125 -13.1875 
L 8.015625 -13.1875 
Q 14.5 -2 17.703125 9.0625 
Q 20.90625 20.125 20.90625 31.390625 
Q 20.90625 42.671875 17.703125 53.65625 
Q 14.5 64.65625 8.015625 75.875 
z
" id="DejaVuSans-29"/>
     </defs>
     <g transform="translate(25.432812 221.531906)rotate(-90)scale(0.1 -0.1)">
      <use xlink:href="#DejaVuSans-4f"/>
      <use x="78.710938" xlink:href="#DejaVuSans-70"/>
      <use x="142.1875" xlink:href="#DejaVuSans-74"/>
      <use x="181.396484" xlink:href="#DejaVuSans-69"/>
      <use x="209.179688" xlink:href="#DejaVuSans-6d"/>
      <use x="306.591797" xlink:href="#DejaVuSans-61"/>
      <use x="367.871094" xlink:href="#DejaVuSans-6c"/>
      <use x="395.654297" xlink:href="#DejaVuSans-20"/>
      <use x="427.441406" xlink:href="#DejaVuSans-61"/>
      <use x="488.720703" xlink:href="#DejaVuSans-63"/>
      <use x="543.701172" xlink:href="#DejaVuSans-74"/>
      <use x="582.910156" xlink:href="#DejaVuSans-69"/>
      <use x="610.693359" xlink:href="#DejaVuSans-6f"/>
      <use x="671.875" xlink:href="#DejaVuSans-6e"/>
      <use x="735.253906" xlink:href="#DejaVuSans-20"/>
      <use x="767.041016" xlink:href="#DejaVuSans-28"/>
      <use x="806.054688" xlink:href="#DejaVuSans-25"/>
      <use x="901.074219" xlink:href="#DejaVuSans-29"/>
     </g>
    </g>
   </g>
   <g id="line2d_12">
    <path clip-path="url(#p516f21aa55)" d="M 73.832727 283.90003 
L 74.157707 272.72333 
L 74.807666 258.752447 
L 75.457625 250.103807 
L 76.757543 237.197379 
L 77.732482 230.943746 
L 78.057461 231.209854 
L 79.682359 227.484287 
L 80.007338 227.218179 
L 80.332318 226.153732 
L 80.657297 225.488452 
L 80.982277 225.488452 
L 81.307256 224.823172 
L 81.632236 224.823172 
L 82.282195 224.157892 
L 82.607174 223.625666 
L 82.932154 223.492602 
L 83.257133 222.827327 
L 84.882031 221.629816 
L 85.53199 221.363708 
L 85.85697 221.363708 
L 86.181949 220.964536 
L 86.506929 220.831482 
L 86.831908 220.964536 
L 87.481867 220.964536 
L 88.131826 220.698428 
L 88.456806 220.831482 
L 88.781785 220.831482 
L 89.106765 220.698428 
L 89.431744 220.299266 
L 89.756724 220.43232 
L 91.056642 219.900094 
L 91.706601 219.900094 
L 92.031581 219.76704 
L 92.35656 219.900094 
L 93.006519 219.633986 
L 93.656478 219.633986 
L 93.981458 219.500932 
L 94.306437 219.633986 
L 94.631417 219.500932 
L 94.956396 219.500932 
L 95.281376 219.633986 
L 95.606355 219.500932 
L 96.256314 219.500932 
L 96.906274 219.234824 
L 97.231253 219.367878 
L 98.856151 219.367878 
L 99.18113 219.234824 
L 99.50611 219.234824 
L 99.831089 219.367878 
L 100.156069 219.234824 
L 101.780966 219.234824 
L 102.105946 219.10176 
L 102.430925 219.10176 
L 102.755905 218.968706 
L 103.405864 218.968706 
L 103.730844 218.835652 
L 106.33068 218.835652 
L 106.655659 218.702598 
L 109.580475 218.702598 
L 109.905455 218.569534 
L 110.880393 218.569534 
L 111.205373 218.43648 
L 111.530352 218.43648 
L 111.855332 218.569534 
L 115.755086 218.569534 
L 116.080066 218.43648 
L 116.405045 218.43648 
L 116.730025 218.569534 
L 124.529533 218.569534 
L 124.854513 218.43648 
L 126.47941 218.43648 
L 126.80439 218.303426 
L 128.754267 218.303426 
L 129.079247 218.170372 
L 129.404226 218.303426 
L 135.903817 218.303426 
L 136.228796 218.170372 
L 145.328223 218.170372 
L 145.653202 218.037318 
L 149.877936 218.037318 
L 150.202916 218.170372 
L 150.527895 218.037318 
L 162.877117 218.037318 
L 163.202097 217.904254 
L 163.527076 218.037318 
L 195.05009 218.037318 
L 195.37507 217.904254 
L 195.700049 218.037318 
L 260.045995 218.037318 
L 260.370975 217.904254 
L 363.714464 217.904254 
L 364.039443 217.7712 
L 398.487273 217.7712 
L 398.487273 217.7712 
" style="fill:none;stroke:#1f77b4;stroke-linecap:square;stroke-width:1.5;"/>
   </g>
   <g id="line2d_13">
    <path clip-path="url(#p516f21aa55)" d="M 73.832727 283.500866 
L 74.157707 269.796094 
L 74.807666 258.752447 
L 75.457625 249.305473 
L 76.107584 243.184894 
L 76.432563 239.991548 
L 78.057461 231.875134 
L 78.382441 229.480127 
L 78.70742 228.681793 
L 79.0324 228.415675 
L 79.357379 227.08512 
L 80.332318 224.690108 
L 80.657297 223.359548 
L 80.982277 224.424 
L 81.307256 224.024828 
L 81.632236 223.359548 
L 81.957215 222.162042 
L 82.282195 221.629816 
L 82.607174 221.629816 
L 83.582113 220.964536 
L 83.907093 219.900094 
L 84.232072 220.166212 
L 84.557052 219.633986 
L 85.207011 219.900094 
L 86.181949 218.702598 
L 86.506929 218.968706 
L 86.831908 218.968706 
L 87.156888 219.633986 
L 87.481867 218.170372 
L 87.806847 218.303426 
L 88.456806 217.638146 
L 88.781785 217.238974 
L 89.106765 217.7712 
L 89.431744 217.10592 
L 89.756724 216.706748 
L 90.081704 216.573694 
L 90.406683 215.642306 
L 90.731663 215.243134 
L 91.056642 215.77536 
L 91.381622 215.376188 
L 91.706601 213.912574 
L 92.031581 214.843962 
L 92.35656 213.646466 
L 92.68154 214.045628 
L 93.006519 213.912574 
L 93.331499 214.311746 
L 93.981458 213.247294 
L 94.306437 213.912574 
L 94.631417 212.582014 
L 94.956396 212.315906 
L 95.281376 212.848122 
L 95.606355 212.049788 
L 95.931335 211.650626 
L 96.256314 212.315906 
L 96.906274 211.916734 
L 97.231253 211.251464 
L 97.556233 211.78368 
L 97.881212 211.251464 
L 98.206192 211.1184 
L 98.531171 211.1184 
L 98.856151 210.586184 
L 99.18113 209.78784 
L 99.50611 209.78784 
L 99.831089 210.320066 
L 100.156069 209.255614 
L 100.481048 208.723398 
L 101.131007 208.723398 
L 101.780966 208.058108 
L 102.105946 208.590334 
L 102.430925 208.058108 
L 102.755905 208.45728 
L 103.405864 207.525892 
L 103.730844 207.925054 
L 104.055823 207.259774 
L 104.380803 207.12672 
L 105.030762 206.727548 
L 105.355741 207.525892 
L 105.680721 206.46144 
L 106.0057 206.195322 
L 106.33068 206.993666 
L 106.655659 206.594494 
L 106.980639 206.727548 
L 107.305618 206.993666 
L 107.630598 205.929214 
L 107.955577 205.929214 
L 108.280557 206.195322 
L 108.605536 205.530042 
L 108.930516 206.062268 
L 109.255495 206.195322 
L 109.580475 205.530042 
L 109.905455 206.195322 
L 110.230434 206.195322 
L 110.555414 206.062268 
L 111.205373 204.066428 
L 111.530352 204.731708 
L 111.855332 204.199482 
L 112.180311 204.4656 
L 112.83027 203.933374 
L 113.15525 203.268094 
L 113.480229 203.667266 
L 113.805209 203.534212 
L 114.130188 203.13504 
L 114.455168 203.534212 
L 114.780147 203.268094 
L 115.105127 202.735878 
L 115.430106 202.46976 
L 115.755086 203.001986 
L 116.080066 202.868932 
L 116.405045 203.001986 
L 116.730025 202.735878 
L 117.055004 202.735878 
L 117.379984 202.868932 
L 117.704963 202.735878 
L 118.029943 202.070598 
L 118.354922 202.735878 
L 118.679902 202.070598 
L 119.004881 201.937534 
L 119.329861 201.937534 
L 119.65484 202.336706 
L 119.97982 202.070598 
L 120.304799 202.336706 
L 120.629779 202.203652 
L 120.954758 203.001986 
L 121.279738 201.937534 
L 121.604717 202.735878 
L 121.929697 202.070598 
L 122.254676 202.336706 
L 122.579656 202.070598 
L 122.904636 202.203652 
L 123.229615 202.868932 
L 123.554595 201.671426 
L 123.879574 201.538372 
L 124.204554 202.203652 
L 124.529533 201.1392 
L 124.854513 200.606974 
L 125.179492 200.47392 
L 125.829451 201.671426 
L 126.154431 201.538372 
L 126.80439 200.207812 
L 127.129369 200.207812 
L 127.454349 199.409468 
L 127.779328 199.542532 
L 128.104308 198.611134 
L 128.754267 200.207812 
L 129.079247 199.675586 
L 129.404226 200.47392 
L 129.729206 199.542532 
L 130.054185 199.409468 
L 130.704144 199.409468 
L 131.029124 198.744188 
L 131.354103 198.345026 
L 132.004062 198.078908 
L 132.329042 198.345026 
L 132.654021 197.679746 
L 132.979001 198.211962 
L 133.62896 197.280574 
L 133.953939 198.47808 
L 134.278919 197.8128 
L 134.603898 197.679746 
L 134.928878 197.280574 
L 135.253857 197.280574 
L 135.578837 197.413628 
L 135.903817 197.014466 
L 136.228796 197.14752 
L 136.553776 197.14752 
L 136.878755 196.748348 
L 137.528714 196.48224 
L 137.853694 196.48224 
L 138.178673 197.280574 
L 138.503653 196.748348 
L 138.828632 197.679746 
L 139.153612 196.48224 
L 139.478591 197.679746 
L 139.803571 197.413628 
L 140.12855 195.950014 
L 140.45353 196.349176 
L 140.778509 196.48224 
L 141.428468 195.81696 
L 141.753448 196.748348 
L 142.078428 195.81696 
L 142.403407 195.683906 
L 142.728387 195.018626 
L 143.378346 195.683906 
L 143.703325 195.683906 
L 144.028305 194.752518 
L 144.353284 195.284734 
L 144.678264 194.353346 
L 145.003243 194.619464 
L 145.653202 194.353346 
L 145.978182 194.087238 
L 146.303161 195.15168 
L 146.628141 193.82112 
L 146.95312 194.4864 
L 147.2781 194.220292 
L 147.603079 194.752518 
L 147.928059 194.087238 
L 148.253038 193.82112 
L 148.578018 193.954184 
L 148.902998 193.82112 
L 149.227977 193.15584 
L 149.552957 192.889732 
L 149.877936 192.889732 
L 150.202916 193.288894 
L 150.527895 193.022786 
L 150.852875 193.421958 
L 151.177854 192.623614 
L 151.827813 193.15584 
L 152.152793 192.49056 
L 152.477772 192.889732 
L 152.802752 192.49056 
L 153.127731 192.756678 
L 153.77769 191.958334 
L 154.10267 192.49056 
L 154.427649 191.82528 
L 154.752629 192.49056 
L 155.077609 192.357506 
L 155.402588 192.357506 
L 155.727568 191.559172 
L 156.052547 191.426108 
L 156.377527 190.893892 
L 156.702506 191.559172 
L 157.027486 191.293054 
L 157.352465 191.426108 
L 157.677445 191.692226 
L 158.002424 191.559172 
L 158.327404 191.559172 
L 158.977363 192.224452 
L 159.302342 190.760828 
L 159.627322 190.228602 
L 159.952301 190.627774 
L 160.277281 190.228602 
L 160.60226 190.893892 
L 160.92724 190.893892 
L 161.577199 190.095548 
L 161.902179 190.49472 
L 162.227158 190.228602 
L 162.552138 191.16 
L 162.877117 190.893892 
L 163.202097 190.095548 
L 163.527076 190.893892 
L 163.852056 190.49472 
L 164.502015 191.16 
L 164.826994 190.49472 
L 165.151974 190.361666 
L 165.476953 190.760828 
L 165.801933 190.095548 
L 166.126912 190.228602 
L 166.451892 189.696386 
L 166.776871 190.095548 
L 167.101851 189.696386 
L 167.42683 189.82944 
L 167.75181 189.297214 
L 168.07679 189.563322 
L 168.401769 188.898042 
L 168.726749 189.16416 
L 169.051728 189.16416 
L 169.376708 188.898042 
L 169.701687 189.430268 
L 170.351646 188.49888 
L 170.676626 188.365816 
L 171.001605 187.434428 
L 171.326585 187.966654 
L 171.651564 187.301374 
L 171.976544 187.700536 
L 172.301523 187.035266 
L 172.626503 187.16832 
L 172.951482 186.902212 
L 173.276462 187.966654 
L 173.601441 187.035266 
L 174.2514 187.700536 
L 174.57638 187.035266 
L 174.90136 187.700536 
L 175.226339 187.301374 
L 175.551319 187.434428 
L 175.876298 186.902212 
L 176.201278 187.16832 
L 176.526257 186.236932 
L 176.851237 186.236932 
L 177.176216 186.369986 
L 177.501196 187.035266 
L 177.826175 187.16832 
L 178.801114 185.438598 
L 179.126093 185.438598 
L 179.451073 186.103878 
L 179.776052 186.50304 
L 180.101032 185.17248 
L 180.426011 185.039426 
L 180.750991 185.704706 
L 181.075971 185.17248 
L 181.40095 185.83776 
L 181.72593 183.84192 
L 182.050909 184.241092 
L 182.375889 183.17664 
L 182.700868 183.84192 
L 183.025848 183.708866 
L 183.350827 184.241092 
L 183.675807 183.974974 
L 184.000786 184.640254 
L 184.325766 183.043586 
L 184.650745 184.108038 
L 184.975725 183.442748 
L 185.625684 184.241092 
L 186.600622 183.84192 
L 186.925602 183.442748 
L 187.250581 184.108038 
L 187.575561 183.043586 
L 187.900541 183.84192 
L 188.22552 183.708866 
L 188.5505 182.777468 
L 188.875479 182.644414 
L 189.525438 181.979134 
L 189.850418 181.713026 
L 190.500377 181.979134 
L 190.825356 181.313854 
L 191.150336 182.112188 
L 191.475315 182.245252 
L 191.800295 181.1808 
L 192.125274 182.378306 
L 192.450254 181.446908 
L 192.775233 181.446908 
L 193.100213 181.313854 
L 193.425192 180.51552 
L 193.750172 180.51552 
L 194.400131 181.713026 
L 194.725111 181.84608 
L 195.05009 181.84608 
L 195.37507 180.648574 
L 195.700049 180.648574 
L 196.025029 180.781628 
L 196.674988 181.1808 
L 196.999967 180.249402 
L 197.324947 180.249402 
L 197.649926 181.047746 
L 197.974906 180.51552 
L 198.299885 181.1808 
L 198.624865 181.313854 
L 198.949844 180.51552 
L 199.274824 180.51552 
L 199.599803 179.584122 
L 199.924783 180.382466 
L 200.249762 180.116348 
L 200.574742 180.51552 
L 200.899722 179.983294 
L 201.87466 179.983294 
L 202.19964 179.85024 
L 202.524619 180.249402 
L 202.849599 179.318014 
L 203.499558 179.717176 
L 203.824537 179.584122 
L 204.149517 179.584122 
L 204.474496 179.717176 
L 204.799476 179.051906 
L 205.124455 179.18496 
L 205.449435 179.051906 
L 205.774414 180.51552 
L 206.099394 180.648574 
L 206.424373 179.717176 
L 206.749353 179.451068 
L 207.074333 178.918852 
L 207.724292 178.652734 
L 208.049271 177.8544 
L 208.374251 178.386626 
L 208.69923 177.987464 
L 209.02421 177.8544 
L 209.349189 177.322184 
L 209.674169 177.8544 
L 209.999148 177.987464 
L 210.324128 178.51968 
L 210.649107 178.253572 
L 210.974087 178.386626 
L 211.299066 177.455238 
L 211.624046 177.987464 
L 211.949025 176.390786 
L 212.274005 177.322184 
L 212.598984 176.923012 
L 212.923964 176.789958 
L 213.573923 177.322184 
L 213.898903 176.789958 
L 214.223882 176.923012 
L 214.548862 176.257732 
L 214.873841 175.85856 
L 215.198821 176.52384 
L 215.5238 175.326334 
L 215.84878 176.390786 
L 216.498739 175.725506 
L 216.823718 175.991614 
L 217.148698 175.85856 
L 217.798657 175.459398 
L 218.123636 175.85856 
L 218.448616 175.19328 
L 218.773595 175.459398 
L 219.098575 174.394936 
L 219.423554 175.459398 
L 219.748534 175.060226 
L 220.073514 174.261892 
L 220.398493 174.528 
L 220.723473 175.592452 
L 221.048452 174.528 
L 221.373432 174.528 
L 221.698411 174.661054 
L 222.023391 174.927172 
L 222.34837 174.794108 
L 222.67335 174.927172 
L 222.998329 174.394936 
L 223.323309 174.927172 
L 223.648288 174.528 
L 223.973268 174.394936 
L 224.298247 174.794108 
L 224.623227 173.995784 
L 224.948206 173.86272 
L 225.273186 173.596612 
L 225.598165 173.729656 
L 225.923145 174.128828 
L 226.248124 173.729656 
L 226.573104 174.927172 
L 226.898084 174.128828 
L 227.223063 173.86272 
L 227.548043 174.128828 
L 227.873022 174.128828 
L 228.522981 173.596612 
L 229.17294 174.394936 
L 229.49792 173.995784 
L 229.822899 174.261892 
L 230.147879 172.931332 
L 230.797838 174.128828 
L 231.122817 172.665204 
L 231.447797 172.931332 
L 231.772776 172.798268 
L 232.097756 172.53216 
L 232.422735 171.86688 
L 232.747715 172.399096 
L 233.072695 172.53216 
L 233.397674 173.86272 
L 233.722654 172.665204 
L 234.047633 173.064376 
L 234.372613 172.665204 
L 234.697592 172.798268 
L 235.022572 171.999924 
L 235.347551 172.665204 
L 235.672531 172.132988 
L 235.99751 172.798268 
L 236.32249 172.266052 
L 236.647469 172.53216 
L 236.972449 172.399096 
L 237.297428 172.399096 
L 237.622408 172.132988 
L 237.947387 171.467708 
L 238.272367 171.600772 
L 238.597346 171.600772 
L 238.922326 171.467708 
L 239.247305 171.733816 
L 239.572285 172.266052 
L 239.897265 170.935492 
L 240.222244 171.86688 
L 240.547224 171.334654 
L 240.872203 172.132988 
L 241.197183 171.467708 
L 241.522162 171.334654 
L 241.847142 171.068536 
L 242.497101 171.733816 
L 242.82208 171.999924 
L 243.14706 171.467708 
L 243.472039 171.334654 
L 243.797019 171.733816 
L 244.121998 171.334654 
L 244.446978 171.334654 
L 245.096937 170.53632 
L 245.421916 171.600772 
L 246.071876 170.270212 
L 246.396855 170.270212 
L 246.721835 170.137148 
L 247.046814 169.604932 
L 247.371794 170.935492 
L 247.696773 170.403266 
L 248.021753 170.270212 
L 248.346732 170.270212 
L 248.671712 169.338814 
L 248.996691 170.53632 
L 249.321671 169.737986 
L 249.64665 169.338814 
L 250.296609 170.137148 
L 250.621589 169.072706 
L 250.946568 168.806598 
L 251.271548 169.737986 
L 251.596527 169.072706 
L 251.921507 168.939642 
L 252.571466 169.338814 
L 252.896446 168.54049 
L 253.546405 169.737986 
L 253.871384 168.673534 
L 254.196364 168.939642 
L 254.521343 168.54049 
L 254.846323 168.806598 
L 255.171302 169.471878 
L 255.496282 169.604932 
L 255.821261 168.274362 
L 256.146241 168.141318 
L 256.47122 168.939642 
L 256.7962 168.939642 
L 257.121179 168.54049 
L 257.446159 167.609082 
L 257.771138 168.54049 
L 258.096118 168.407426 
L 258.421097 168.141318 
L 258.746077 168.806598 
L 259.396036 167.342974 
L 260.045995 168.008254 
L 260.370975 166.943802 
L 260.695954 168.274362 
L 261.020934 168.008254 
L 261.345913 166.810758 
L 261.670893 166.943802 
L 261.995872 168.274362 
L 262.320852 168.407426 
L 263.62077 166.810758 
L 263.945749 168.407426 
L 264.270729 167.609082 
L 264.595708 167.476038 
L 264.920688 167.609082 
L 265.245667 166.810758 
L 265.570647 166.943802 
L 265.895627 166.943802 
L 266.220606 166.54465 
L 266.545586 166.943802 
L 266.870565 166.278522 
L 267.195545 165.87935 
L 267.520524 166.411586 
L 267.845504 166.278522 
L 268.170483 165.347134 
L 268.495463 166.012414 
L 268.820442 165.21407 
L 269.145422 165.746306 
L 269.470401 165.21407 
L 269.795381 165.613242 
L 270.12036 165.480198 
L 270.44534 165.21407 
L 270.770319 165.21407 
L 272.070238 163.750466 
L 272.395217 164.54879 
L 273.045176 164.149638 
L 273.370156 164.016574 
L 273.695135 164.282682 
L 274.345094 163.085186 
L 274.995053 163.351294 
L 275.320033 163.21824 
L 275.645012 163.484358 
L 275.969992 163.351294 
L 276.294971 162.55296 
L 276.619951 163.21824 
L 276.94493 163.351294 
L 277.26991 162.55296 
L 277.594889 163.21824 
L 277.919869 163.085186 
L 278.244848 162.819068 
L 278.894808 163.750466 
L 279.219787 163.21824 
L 279.869746 163.21824 
L 280.194726 163.750466 
L 280.519705 163.750466 
L 280.844685 162.55296 
L 281.169664 162.686014 
L 281.819623 163.351294 
L 282.144603 163.750466 
L 282.469582 162.952122 
L 282.794562 162.55296 
L 283.444521 163.21824 
L 283.7695 162.952122 
L 284.09448 162.419906 
L 284.419459 163.21824 
L 284.744439 163.484358 
L 285.069419 162.286852 
L 285.394398 162.55296 
L 285.719378 161.88768 
L 286.044357 161.488508 
L 286.694316 162.686014 
L 287.019296 161.754626 
L 287.344275 161.2224 
L 287.669255 161.88768 
L 287.994234 162.153788 
L 288.319214 161.488508 
L 288.969173 162.020734 
L 289.619132 161.754626 
L 289.944111 162.286852 
L 290.269091 161.2224 
L 290.59407 161.88768 
L 290.91905 160.690184 
L 291.244029 160.024904 
L 291.569009 162.020734 
L 291.893989 161.089346 
L 292.218968 160.55712 
L 293.193907 159.758796 
L 293.518886 160.291012 
L 294.168845 159.89184 
L 294.493825 160.823228 
L 294.818804 160.823228 
L 295.468763 159.89184 
L 296.118722 160.157948 
L 296.443702 159.89184 
L 296.768681 160.024904 
L 297.093661 159.89184 
L 297.41864 160.024904 
L 297.74362 159.359624 
L 298.0686 159.492668 
L 298.718559 160.291012 
L 299.043538 159.22656 
L 299.368518 158.694344 
L 299.693497 160.024904 
L 300.018477 158.827388 
L 300.343456 159.359624 
L 300.668436 159.492668 
L 300.993415 158.56128 
L 301.318395 158.694344 
L 301.643374 158.960452 
L 302.293333 159.89184 
L 302.618313 159.492668 
L 302.943292 159.492668 
L 303.268272 159.758796 
L 303.593251 159.093496 
L 303.918231 160.024904 
L 304.24321 159.89184 
L 304.56819 159.359624 
L 304.89317 159.89184 
L 305.218149 159.492668 
L 305.868108 158.162108 
L 306.193088 159.625732 
L 306.518067 158.694344 
L 307.168026 158.694344 
L 307.493006 158.56128 
L 307.817985 157.762936 
L 308.142965 158.295172 
L 308.467944 158.029064 
L 308.792924 159.22656 
L 309.117903 158.56128 
L 309.442883 159.093496 
L 309.767862 157.896 
L 310.092842 158.428216 
L 310.417821 158.428216 
L 310.742801 157.629892 
L 311.067781 158.295172 
L 311.39276 157.762936 
L 311.71774 157.629892 
L 312.042719 157.896 
L 312.367699 159.093496 
L 312.692678 159.093496 
L 313.017658 157.896 
L 313.342637 157.496828 
L 313.667617 158.029064 
L 313.992596 157.629892 
L 314.642555 158.162108 
L 314.967535 157.496828 
L 315.292514 158.428216 
L 315.617494 158.56128 
L 315.942473 158.428216 
L 316.267453 157.762936 
L 316.592432 157.896 
L 316.917412 158.56128 
L 317.567371 158.295172 
L 317.892351 158.56128 
L 318.21733 158.162108 
L 318.54231 158.56128 
L 318.867289 158.56128 
L 319.192269 157.629892 
L 319.517248 158.56128 
L 319.842228 158.428216 
L 320.167207 158.56128 
L 320.492187 159.22656 
L 320.817166 158.960452 
L 321.142146 158.162108 
L 321.467125 158.56128 
L 321.792105 157.23072 
L 322.117084 158.029064 
L 322.442064 156.831548 
L 322.767043 157.363784 
L 323.092023 157.23072 
L 323.417002 156.964612 
L 323.741982 157.363784 
L 324.066962 157.363784 
L 324.391941 156.432376 
L 324.716921 156.831548 
L 325.0419 156.56544 
L 325.36688 157.363784 
L 325.691859 156.432376 
L 326.016839 156.299332 
L 326.341818 156.432376 
L 326.666798 156.166268 
L 326.991777 156.698504 
L 327.316757 156.432376 
L 327.641736 156.432376 
L 327.966716 155.767096 
L 328.291695 156.432376 
L 328.616675 155.767096 
L 328.941654 156.033204 
L 329.591613 155.767096 
L 329.916593 156.033204 
L 330.241572 156.964612 
L 330.566552 155.367924 
L 330.891532 155.90016 
L 331.541491 154.968772 
L 331.86647 155.90016 
L 332.19145 155.101816 
L 332.516429 155.500988 
L 332.841409 156.299332 
L 333.166388 155.500988 
L 333.491368 155.767096 
L 333.816347 155.767096 
L 334.141327 155.23488 
L 334.466306 154.436536 
L 334.791286 155.500988 
L 335.116265 155.367924 
L 335.441245 154.436536 
L 335.766224 154.968772 
L 336.091204 155.23488 
L 336.416183 154.436536 
L 336.741163 154.303492 
L 337.066143 154.303492 
L 337.716102 154.702654 
L 338.366061 154.968772 
L 339.01602 154.436536 
L 339.340999 155.367924 
L 339.665979 154.436536 
L 340.315938 154.702654 
L 340.640917 154.702654 
L 340.965897 154.037374 
L 341.290876 154.5696 
L 341.615856 154.037374 
L 341.940835 154.5696 
L 342.265815 154.835708 
L 342.590794 154.170428 
L 343.240753 155.101816 
L 343.890713 153.90432 
L 344.215692 154.037374 
L 344.865651 152.972932 
L 345.190631 152.839878 
L 345.51561 153.105986 
L 345.84059 154.037374 
L 346.165569 153.372094 
L 346.490549 154.170428 
L 346.815528 153.23904 
L 347.140508 152.839878 
L 347.465487 153.638212 
L 347.790467 154.037374 
L 348.115446 154.170428 
L 348.440426 154.037374 
L 348.765405 153.23904 
L 349.090385 152.839878 
L 349.415364 153.638212 
L 349.740344 152.972932 
L 350.390303 152.440706 
L 350.715283 152.972932 
L 351.040262 152.440706 
L 351.365242 152.57376 
L 352.015201 153.372094 
L 352.34018 152.57376 
L 352.66516 152.307642 
L 353.315119 153.23904 
L 353.965078 152.440706 
L 354.290057 153.505148 
L 354.615037 153.90432 
L 354.940016 153.372094 
L 355.589975 152.839878 
L 355.914955 152.174598 
L 356.239934 152.706814 
L 356.564914 152.706814 
L 356.889894 152.174598 
L 357.539853 152.57376 
L 357.864832 151.90849 
L 358.189812 152.972932 
L 358.514791 152.839878 
L 358.839771 152.57376 
L 359.16475 152.706814 
L 359.48973 151.642362 
L 359.814709 152.174598 
L 360.139689 152.041534 
L 360.464668 152.307642 
L 360.789648 151.775426 
L 361.114627 152.307642 
L 361.439607 152.57376 
L 361.764586 151.90849 
L 362.089566 153.23904 
L 362.739525 151.376254 
L 363.064505 152.839878 
L 363.389484 151.509318 
L 363.714464 151.509318 
L 364.039443 151.775426 
L 364.364423 151.24321 
L 364.689402 151.509318 
L 365.014382 152.307642 
L 365.339361 151.376254 
L 365.664341 150.977082 
L 365.98932 151.509318 
L 366.3143 151.24321 
L 366.639279 151.376254 
L 366.964259 150.844038 
L 367.289238 152.041534 
L 367.614218 151.24321 
L 368.264177 151.775426 
L 368.589156 150.977082 
L 368.914136 151.376254 
L 369.239115 151.110146 
L 369.564095 151.509318 
L 369.889075 150.977082 
L 370.214054 150.844038 
L 370.539034 151.775426 
L 370.864013 150.844038 
L 371.188993 150.311802 
L 371.838952 150.977082 
L 372.488911 150.710974 
L 372.81389 150.178758 
L 373.13887 150.977082 
L 373.463849 149.513478 
L 373.788829 150.178758 
L 374.113808 150.57793 
L 374.438788 150.311802 
L 374.763767 151.110146 
L 375.088747 151.24321 
L 375.413726 150.311802 
L 375.738706 150.710974 
L 376.063686 149.646522 
L 376.388665 150.57793 
L 376.713645 149.646522 
L 377.038624 149.779586 
L 377.363604 150.444866 
L 377.688583 149.91265 
L 378.013563 150.710974 
L 378.663522 149.646522 
L 378.988501 149.91265 
L 379.313481 150.57793 
L 379.63846 150.444866 
L 379.96344 150.844038 
L 380.288419 148.981242 
L 380.613399 151.642362 
L 380.938378 150.57793 
L 381.263358 151.376254 
L 381.588337 150.311802 
L 381.913317 150.444866 
L 382.238296 149.779586 
L 382.563276 150.178758 
L 383.213235 149.380414 
L 383.538215 150.444866 
L 383.863194 151.90849 
L 384.188174 150.311802 
L 384.513153 150.444866 
L 384.838133 150.977082 
L 385.163112 150.977082 
L 385.488092 150.311802 
L 385.813071 150.178758 
L 386.138051 151.110146 
L 386.46303 150.045694 
L 386.78801 150.311802 
L 387.112989 150.977082 
L 387.437969 149.513478 
L 387.762948 150.444866 
L 388.087928 150.710974 
L 388.412907 149.779586 
L 388.737887 150.311802 
L 389.062867 149.91265 
L 389.387846 149.114306 
L 389.712826 150.045694 
L 390.037805 149.24735 
L 390.362785 149.513478 
L 390.687764 150.844038 
L 391.012744 149.91265 
L 391.337723 150.311802 
L 391.662703 149.513478 
L 391.987682 149.24735 
L 392.637641 150.444866 
L 393.2876 149.114306 
L 393.61258 149.24735 
L 393.937559 149.646522 
L 394.587518 149.646522 
L 394.912498 148.715134 
L 395.237477 150.444866 
L 395.562457 148.848198 
L 395.887437 149.114306 
L 396.212416 148.315962 
L 396.537396 148.58207 
L 396.862375 149.380414 
L 397.512334 148.58207 
L 397.837314 148.848198 
L 398.487273 148.58207 
L 398.487273 148.58207 
" style="fill:none;stroke:#ff7f0e;stroke-linecap:square;stroke-width:1.5;"/>
   </g>
   <g id="line2d_14">
    <path clip-path="url(#p516f21aa55)" d="M 73.832727 283.234753 
L 74.157707 268.59859 
L 75.132645 254.095487 
L 76.757543 236.532099 
L 77.082523 235.866819 
L 77.732482 229.613181 
L 78.057461 228.947901 
L 78.382441 224.690108 
L 78.70742 226.41984 
L 79.0324 222.561214 
L 79.357379 222.827327 
L 80.007338 219.367878 
L 80.332318 216.307586 
L 80.657297 216.573694 
L 81.307256 214.178682 
L 81.632236 215.243134 
L 82.932154 206.46144 
L 83.257133 206.328386 
L 83.582113 206.860602 
L 83.907093 205.263934 
L 84.232072 206.860602 
L 84.557052 205.396988 
L 84.882031 202.203652 
L 85.207011 202.735878 
L 85.53199 203.001986 
L 85.85697 200.074748 
L 86.181949 200.740038 
L 86.506929 200.873092 
L 87.156888 194.752518 
L 87.481867 197.8128 
L 87.806847 193.954184 
L 88.131826 195.81696 
L 88.456806 194.752518 
L 89.106765 192.091398 
L 89.431744 195.417788 
L 89.756724 193.555012 
L 90.081704 190.095548 
L 90.406683 192.224452 
L 90.731663 188.365816 
L 91.056642 189.16416 
L 91.381622 189.563322 
L 91.706601 188.49888 
L 92.031581 185.17248 
L 92.35656 187.16832 
L 92.68154 185.305534 
L 93.006519 187.567482 
L 93.331499 185.039426 
L 93.656478 186.103878 
L 93.981458 183.442748 
L 94.306437 184.5072 
L 94.631417 180.382466 
L 94.956396 182.51136 
L 95.281376 181.446908 
L 95.606355 178.652734 
L 95.931335 181.84608 
L 96.256314 178.120518 
L 96.581294 180.648574 
L 96.906274 180.648574 
L 97.556233 176.124678 
L 97.881212 176.789958 
L 98.206192 176.257732 
L 98.531171 176.124678 
L 98.856151 175.19328 
L 99.18113 173.596612 
L 99.831089 175.725506 
L 100.481048 172.931332 
L 100.806028 173.064376 
L 101.131007 172.798268 
L 101.455987 169.471878 
L 101.780966 168.806598 
L 102.105946 172.665204 
L 102.430925 171.068536 
L 102.755905 166.810758 
L 103.080885 168.939642 
L 103.405864 167.476038 
L 103.730844 164.415746 
L 104.055823 170.403266 
L 104.380803 168.008254 
L 104.705782 168.806598 
L 105.030762 166.012414 
L 105.355741 164.54879 
L 105.680721 164.415746 
L 106.0057 165.081026 
L 106.33068 164.814918 
L 106.655659 165.746306 
L 107.305618 160.823228 
L 107.630598 163.750466 
L 107.955577 161.089346 
L 108.280557 162.153788 
L 108.605536 159.625732 
L 108.930516 163.351294 
L 109.255495 159.22656 
L 109.580475 159.22656 
L 109.905455 160.424076 
L 110.555414 157.629892 
L 110.880393 157.762936 
L 111.205373 157.363784 
L 111.530352 160.956292 
L 111.855332 158.827388 
L 112.180311 162.419906 
L 112.505291 159.093496 
L 112.83027 159.093496 
L 113.15525 157.23072 
L 113.480229 157.629892 
L 113.805209 155.634052 
L 114.130188 154.968772 
L 114.455168 155.767096 
L 115.755086 150.977082 
L 116.080066 152.440706 
L 116.405045 151.376254 
L 116.730025 152.041534 
L 117.055004 152.972932 
L 117.379984 148.981242 
L 117.704963 150.045694 
L 118.029943 148.981242 
L 118.354922 149.513478 
L 118.679902 151.642362 
L 119.004881 146.985402 
L 119.329861 150.57793 
L 119.97982 147.517638 
L 120.304799 148.981242 
L 120.629779 147.783746 
L 120.954758 149.779586 
L 121.279738 148.981242 
L 121.929697 145.787906 
L 122.579656 149.513478 
L 122.904636 148.049854 
L 123.229615 149.646522 
L 123.554595 147.650682 
L 123.879574 147.118466 
L 124.204554 146.054014 
L 124.529533 142.993732 
L 124.854513 146.320122 
L 125.179492 143.126796 
L 125.504472 142.860668 
L 125.829451 142.062344 
L 126.154431 144.324292 
L 126.80439 142.461496 
L 127.129369 143.659012 
L 127.454349 141.130936 
L 127.779328 142.328452 
L 128.104308 139.534268 
L 128.429287 142.727624 
L 128.754267 142.860668 
L 129.079247 141.397064 
L 129.404226 142.062344 
L 129.729206 140.332612 
L 130.054185 140.066504 
L 130.379165 138.868988 
L 130.704144 141.397064 
L 131.029124 140.864828 
L 131.354103 138.336772 
L 131.679083 139.26816 
L 132.329042 136.074804 
L 132.654021 138.070654 
L 132.979001 137.405374 
L 133.30398 137.9376 
L 133.62896 139.534268 
L 134.278919 135.409524 
L 134.603898 134.345072 
L 134.928878 136.473976 
L 135.253857 133.94592 
L 135.578837 135.010352 
L 135.903817 135.010352 
L 136.228796 132.61536 
L 136.553776 137.139256 
L 136.878755 134.6112 
L 137.203735 137.27232 
L 137.853694 132.216188 
L 138.178673 134.078964 
L 138.503653 135.010352 
L 138.828632 131.683972 
L 139.478591 133.147576 
L 139.803571 131.018692 
L 140.12855 133.679812 
L 140.45353 129.95424 
L 141.103489 131.817036 
L 141.428468 131.151756 
L 141.753448 131.95008 
L 142.078428 130.353412 
L 142.403407 129.95424 
L 142.728387 130.885648 
L 143.053366 130.486476 
L 143.378346 132.61536 
L 143.703325 132.216188 
L 144.028305 130.885648 
L 144.353284 131.2848 
L 144.678264 128.091464 
L 145.328223 130.087304 
L 145.653202 129.155916 
L 145.978182 128.62368 
L 146.303161 131.417864 
L 146.628141 130.486476 
L 146.95312 132.083144 
L 147.2781 129.95424 
L 147.603079 125.563388 
L 147.928059 130.087304 
L 148.253038 129.022852 
L 148.578018 125.96256 
L 148.902998 126.095624 
L 149.227977 126.62784 
L 149.552957 126.62784 
L 149.877936 126.760904 
L 150.202916 125.696452 
L 150.527895 127.692292 
L 151.177854 124.898108 
L 151.502834 128.62368 
L 151.827813 128.62368 
L 152.152793 126.361732 
L 152.477772 126.760904 
L 152.802752 127.692292 
L 153.127731 127.027012 
L 153.452711 125.829496 
L 153.77769 127.559228 
L 154.10267 126.361732 
L 154.752629 123.434504 
L 155.077609 125.29728 
L 155.402588 124.898108 
L 155.727568 125.696452 
L 156.052547 126.893948 
L 156.377527 125.696452 
L 157.027486 122.370052 
L 157.352465 122.503096 
L 157.677445 122.503096 
L 158.002424 124.365892 
L 158.327404 123.30144 
L 158.652383 122.769204 
L 158.977363 122.769204 
L 159.302342 125.563388 
L 159.627322 122.902268 
L 159.952301 123.30144 
L 160.277281 121.837816 
L 160.92724 121.438644 
L 161.252219 123.700612 
L 161.577199 121.704772 
L 161.902179 121.704772 
L 162.227158 122.103924 
L 162.552138 119.841976 
L 162.877117 122.103924 
L 163.202097 119.708932 
L 163.527076 118.64448 
L 164.177035 123.30144 
L 164.502015 119.708932 
L 164.826994 121.97088 
L 165.151974 121.837816 
L 165.476953 121.571708 
L 165.801933 121.704772 
L 166.126912 119.575868 
L 166.451892 118.511416 
L 166.776871 120.906428 
L 167.101851 118.511416 
L 167.42683 117.580028 
L 167.75181 115.584188 
L 168.07679 118.112244 
L 168.401769 119.043632 
L 168.726749 118.378352 
L 169.051728 118.112244 
L 169.376708 115.850296 
L 170.026667 120.108084 
L 170.351646 117.446964 
L 170.676626 117.9792 
L 171.001605 119.575868 
L 171.326585 119.176696 
L 171.651564 117.31392 
L 171.976544 117.580028 
L 172.301523 116.249468 
L 172.951482 118.777524 
L 173.276462 115.185036 
L 173.601441 118.910588 
L 173.926421 118.245308 
L 174.2514 116.914748 
L 174.57638 116.249468 
L 174.90136 114.918928 
L 175.226339 117.9792 
L 175.551319 117.713072 
L 175.876298 118.112244 
L 176.201278 116.64864 
L 176.851237 119.176696 
L 177.176216 117.713072 
L 177.826175 113.98752 
L 178.151155 114.519756 
L 178.476134 117.047812 
L 178.801114 114.918928 
L 179.126093 115.31808 
L 179.451073 116.781704 
L 180.101032 115.051972 
L 180.750991 118.511416 
L 181.075971 115.584188 
L 181.40095 116.249468 
L 181.72593 114.253648 
L 182.050909 114.918928 
L 182.375889 117.446964 
L 182.700868 115.31808 
L 183.350827 116.515576 
L 183.675807 119.841976 
L 184.000786 119.043632 
L 184.325766 113.98752 
L 184.650745 116.249468 
L 184.975725 114.6528 
L 185.300704 116.914748 
L 185.625684 115.185036 
L 185.950663 118.245308 
L 186.275643 113.455304 
L 186.600622 110.927228 
L 186.925602 114.918928 
L 187.250581 113.32224 
L 187.575561 110.927228 
L 188.22552 114.785864 
L 188.5505 112.257788 
L 188.875479 111.3264 
L 189.200459 111.193356 
L 189.525438 112.390852 
L 189.850418 111.459464 
L 190.175397 112.124744 
L 190.500377 110.927228 
L 190.825356 111.060292 
L 191.150336 110.395012 
L 191.475315 110.927228 
L 191.800295 112.923068 
L 192.125274 113.455304 
L 192.450254 113.721412 
L 193.100213 110.128904 
L 193.425192 111.592508 
L 194.075152 109.463624 
L 194.400131 113.588368 
L 194.725111 112.390852 
L 195.05009 111.99168 
L 195.37507 114.386692 
L 196.674988 109.197496 
L 196.999967 110.128904 
L 197.324947 111.592508 
L 197.649926 112.124744 
L 197.974906 111.060292 
L 198.299885 112.923068 
L 198.624865 112.390852 
L 198.949844 111.060292 
L 199.274824 111.592508 
L 199.599803 108.798344 
L 199.924783 112.257788 
L 200.249762 109.463624 
L 200.574742 111.725572 
L 200.899722 110.66112 
L 201.224701 111.858636 
L 201.549681 110.528076 
L 201.87466 111.725572 
L 202.19964 108.66528 
L 202.524619 109.729732 
L 202.849599 113.854476 
L 203.174578 107.866936 
L 203.499558 112.523916 
L 203.824537 110.128904 
L 204.149517 111.459464 
L 204.474496 109.197496 
L 204.799476 109.729732 
L 205.124455 106.802504 
L 205.449435 111.060292 
L 205.774414 110.261948 
L 206.099394 107.33472 
L 206.424373 108.532216 
L 206.749353 111.3264 
L 207.074333 108.66528 
L 207.399312 109.99584 
L 207.724292 108.798344 
L 208.049271 111.060292 
L 208.374251 108 
L 208.69923 110.128904 
L 209.02421 107.866936 
L 209.349189 110.261948 
L 209.674169 108.266108 
L 209.999148 107.33472 
L 210.324128 110.261948 
L 210.649107 108.532216 
L 211.299066 109.463624 
L 211.624046 107.866936 
L 211.949025 107.733892 
L 212.274005 110.261948 
L 212.598984 106.403332 
L 213.248943 108.931388 
L 213.573923 106.802504 
L 213.898903 110.261948 
L 214.223882 106.403332 
L 214.548862 109.99584 
L 214.873841 109.99584 
L 215.198821 106.270268 
L 215.5238 109.064452 
L 215.84878 108.798344 
L 216.173759 107.33472 
L 216.498739 108.133064 
L 216.823718 107.201656 
L 217.148698 109.596668 
L 217.473677 108 
L 217.798657 105.738052 
L 218.123636 106.935548 
L 218.448616 109.463624 
L 218.773595 106.403332 
L 219.098575 108.66528 
L 219.423554 108.266108 
L 219.748534 105.871096 
L 220.398493 109.99584 
L 220.723473 110.128904 
L 221.048452 109.33056 
L 221.373432 109.064452 
L 221.698411 107.33472 
L 222.023391 109.197496 
L 222.34837 107.467784 
L 222.67335 107.866936 
L 222.998329 107.201656 
L 223.323309 111.3264 
L 223.648288 108 
L 223.973268 108.133064 
L 224.298247 108 
L 224.948206 105.871096 
L 225.598165 108.931388 
L 225.923145 107.33472 
L 226.248124 109.197496 
L 226.573104 104.939708 
L 226.898084 104.939708 
L 227.223063 105.871096 
L 227.548043 107.201656 
L 227.873022 106.536376 
L 228.198002 108.66528 
L 228.522981 107.600828 
L 228.847961 107.201656 
L 229.49792 103.742212 
L 229.822899 107.600828 
L 230.147879 105.33888 
L 230.472858 109.99584 
L 230.797838 107.467784 
L 231.122817 108.399172 
L 231.447797 107.467784 
L 231.772776 108.133064 
L 232.097756 107.600828 
L 232.422735 107.600828 
L 232.747715 106.66944 
L 233.072695 107.33472 
L 233.397674 107.467784 
L 233.722654 107.866936 
L 234.047633 105.205816 
L 234.372613 106.00416 
L 234.697592 108.266108 
L 235.022572 106.137204 
L 235.347551 109.197496 
L 235.672531 105.072772 
L 235.99751 107.467784 
L 236.32249 105.33888 
L 236.972449 107.201656 
L 237.297428 107.733892 
L 237.622408 105.871096 
L 237.947387 106.270268 
L 238.272367 104.274428 
L 238.597346 104.540536 
L 238.922326 108.266108 
L 239.247305 105.738052 
L 239.572285 104.141364 
L 239.897265 106.66944 
L 240.222244 107.467784 
L 240.547224 107.201656 
L 240.872203 106.536376 
L 241.197183 108.532216 
L 241.522162 108.133064 
L 241.847142 102.943868 
L 242.172121 104.806644 
L 242.497101 105.604988 
L 242.82208 105.072772 
L 243.14706 105.471924 
L 243.472039 102.810804 
L 243.797019 105.205816 
L 244.121998 103.076932 
L 244.771957 106.137204 
L 245.096937 106.403332 
L 245.421916 106.270268 
L 245.746896 106.00416 
L 246.071876 105.072772 
L 246.396855 106.137204 
L 246.721835 106.00416 
L 247.046814 104.141364 
L 247.371794 108.133064 
L 247.696773 107.733892 
L 248.021753 103.476084 
L 248.346732 107.467784 
L 248.671712 108 
L 248.996691 104.141364 
L 249.321671 104.806644 
L 249.64665 103.875256 
L 249.97163 104.00832 
L 250.296609 106.270268 
L 250.621589 103.076932 
L 250.946568 104.540536 
L 251.271548 108.931388 
L 251.596527 106.935548 
L 251.921507 108.133064 
L 252.246486 105.471924 
L 252.571466 105.471924 
L 252.896446 104.407492 
L 253.221425 104.00832 
L 253.546405 106.935548 
L 253.871384 103.34304 
L 254.196364 102.411632 
L 254.521343 102.943868 
L 254.846323 106.536376 
L 255.171302 104.6736 
L 255.496282 106.00416 
L 255.821261 103.476084 
L 256.146241 105.604988 
L 256.7962 100.415812 
L 257.121179 106.66944 
L 257.446159 102.943868 
L 257.771138 104.939708 
L 258.096118 102.278588 
L 258.421097 106.66944 
L 258.746077 104.407492 
L 259.071057 99.750532 
L 259.396036 102.67776 
L 259.721016 104.00832 
L 260.045995 104.141364 
L 260.370975 103.209976 
L 260.695954 105.604988 
L 261.020934 103.742212 
L 261.345913 102.943868 
L 261.670893 103.742212 
L 261.995872 102.278588 
L 262.320852 101.480244 
L 262.645831 101.879416 
L 262.970811 103.34304 
L 263.29579 101.3472 
L 263.62077 105.471924 
L 263.945749 102.810804 
L 264.270729 103.742212 
L 264.595708 102.67776 
L 264.920688 102.411632 
L 265.570647 105.205816 
L 265.895627 101.3472 
L 266.220606 105.33888 
L 266.545586 101.879416 
L 267.195545 100.282748 
L 267.520524 102.411632 
L 267.845504 103.076932 
L 268.170483 102.67776 
L 268.495463 102.544696 
L 268.820442 102.145524 
L 269.145422 102.810804 
L 269.470401 101.480244 
L 269.795381 102.67776 
L 270.12036 101.214136 
L 270.44534 101.3472 
L 270.770319 103.209976 
L 271.095299 100.68192 
L 271.420278 102.01248 
L 271.745258 105.33888 
L 272.070238 101.613308 
L 272.395217 106.00416 
L 272.720197 100.01664 
L 273.045176 102.943868 
L 273.370156 100.814964 
L 273.695135 102.278588 
L 274.020115 104.274428 
L 274.345094 104.00832 
L 274.670074 102.01248 
L 274.995053 101.613308 
L 275.645012 104.540536 
L 275.969992 100.948028 
L 276.294971 104.806644 
L 276.619951 104.141364 
L 276.94493 103.742212 
L 277.26991 102.943868 
L 277.594889 101.081072 
L 277.919869 100.01664 
L 278.244848 100.948028 
L 278.569828 101.480244 
L 278.894808 101.214136 
L 279.219787 102.411632 
L 279.544767 101.3472 
L 279.869746 100.68192 
L 280.519705 103.875256 
L 280.844685 103.742212 
L 281.169664 100.01664 
L 281.494644 103.076932 
L 281.819623 102.278588 
L 282.144603 102.01248 
L 282.469582 103.076932 
L 282.794562 102.544696 
L 283.119541 98.68608 
L 283.7695 103.875256 
L 284.09448 102.411632 
L 284.419459 102.01248 
L 284.744439 102.145524 
L 285.069419 105.33888 
L 285.394398 101.3472 
L 285.719378 102.01248 
L 286.044357 102.278588 
L 286.369337 101.746352 
L 286.694316 101.746352 
L 287.019296 99.35136 
L 287.344275 101.3472 
L 287.669255 101.3472 
L 287.994234 100.415812 
L 288.319214 100.814964 
L 288.644193 103.34304 
L 288.969173 102.145524 
L 289.294152 102.810804 
L 289.619132 101.480244 
L 289.944111 101.746352 
L 290.269091 102.544696 
L 290.59407 100.149704 
L 290.91905 101.081072 
L 291.244029 100.415812 
L 291.569009 100.948028 
L 291.893989 101.879416 
L 292.218968 101.081072 
L 292.543948 102.145524 
L 292.868927 100.01664 
L 293.193907 100.282748 
L 293.518886 103.742212 
L 293.843866 100.548856 
L 294.168845 100.415812 
L 294.493825 103.609148 
L 295.143784 102.411632 
L 295.468763 99.35136 
L 295.793743 101.480244 
L 296.118722 99.750532 
L 296.443702 99.617468 
L 296.768681 100.282748 
L 297.093661 102.544696 
L 297.41864 101.879416 
L 297.74362 98.68608 
L 298.0686 98.952188 
L 298.393579 101.214136 
L 298.718559 97.488584 
L 299.043538 98.419972 
L 299.368518 104.274428 
L 299.693497 101.879416 
L 300.343456 100.548856 
L 300.668436 101.613308 
L 300.993415 99.617468 
L 301.318395 102.544696 
L 301.643374 98.952188 
L 301.968354 102.67776 
L 302.293333 100.282748 
L 302.618313 100.282748 
L 302.943292 101.081072 
L 303.268272 98.819144 
L 303.593251 100.548856 
L 303.918231 101.480244 
L 304.24321 98.68608 
L 304.89317 102.278588 
L 305.218149 102.411632 
L 305.543129 99.484424 
L 305.868108 97.754692 
L 306.193088 104.141364 
L 306.518067 100.68192 
L 306.843047 103.34304 
L 307.168026 102.544696 
L 307.817985 100.01664 
L 308.142965 100.814964 
L 308.467944 99.35136 
L 308.792924 99.218296 
L 309.117903 100.548856 
L 309.442883 99.750532 
L 309.767862 101.613308 
L 310.092842 96.557196 
L 310.417821 99.35136 
L 310.742801 98.952188 
L 311.067781 100.948028 
L 311.39276 100.282748 
L 311.71774 100.948028 
L 312.042719 99.617468 
L 312.367699 102.544696 
L 312.692678 100.149704 
L 313.017658 100.415812 
L 313.342637 99.750532 
L 313.667617 99.484424 
L 313.992596 98.952188 
L 314.317576 102.145524 
L 314.642555 99.085252 
L 314.967535 97.754692 
L 315.292514 97.222476 
L 315.617494 100.149704 
L 315.942473 100.548856 
L 316.592432 101.879416 
L 317.242391 99.085252 
L 317.567371 100.548856 
L 318.21733 100.948028 
L 318.867289 99.218296 
L 319.517248 102.01248 
L 319.842228 97.887756 
L 320.167207 98.819144 
L 320.492187 101.3472 
L 320.817166 98.419972 
L 321.142146 102.278588 
L 321.467125 96.823304 
L 321.792105 98.952188 
L 322.117084 97.488584 
L 322.442064 101.480244 
L 322.767043 99.750532 
L 323.092023 100.149704 
L 323.417002 98.952188 
L 323.741982 99.484424 
L 324.066962 101.480244 
L 324.391941 99.617468 
L 324.716921 100.149704 
L 325.0419 99.35136 
L 325.36688 100.814964 
L 325.691859 98.153864 
L 326.016839 100.548856 
L 326.341818 99.085252 
L 326.666798 98.286928 
L 326.991777 100.548856 
L 327.316757 100.814964 
L 327.641736 98.553036 
L 327.966716 99.35136 
L 328.291695 98.952188 
L 328.616675 99.218296 
L 328.941654 98.0208 
L 329.266634 102.544696 
L 329.591613 101.480244 
L 329.916593 96.956368 
L 330.241572 100.282748 
L 330.566552 96.823304 
L 330.891532 100.149704 
L 331.216511 98.286928 
L 332.19145 100.948028 
L 332.516429 98.553036 
L 332.841409 98.952188 
L 333.166388 97.089412 
L 333.491368 99.085252 
L 333.816347 98.153864 
L 334.141327 99.218296 
L 334.466306 101.879416 
L 334.791286 97.887756 
L 335.116265 102.544696 
L 335.441245 98.286928 
L 335.766224 98.419972 
L 336.091204 100.548856 
L 336.416183 99.35136 
L 336.741163 99.750532 
L 337.066143 96.69024 
L 337.391122 96.823304 
L 337.716102 102.278588 
L 338.041081 101.480244 
L 338.366061 98.419972 
L 338.69104 97.621648 
L 339.01602 95.625788 
L 339.340999 99.750532 
L 339.665979 96.956368 
L 339.990958 97.887756 
L 340.315938 98.0208 
L 340.640917 99.750532 
L 340.965897 97.488584 
L 341.290876 98.0208 
L 341.615856 97.621648 
L 341.940835 96.158024 
L 342.265815 99.085252 
L 342.590794 97.35552 
L 342.915774 97.35552 
L 343.240753 97.887756 
L 343.890713 99.35136 
L 344.215692 94.827464 
L 344.540672 99.085252 
L 344.865651 98.952188 
L 345.190631 98.553036 
L 345.51561 95.492744 
L 345.84059 98.819144 
L 346.165569 98.153864 
L 346.490549 96.158024 
L 346.815528 96.823304 
L 347.140508 98.0208 
L 347.465487 96.158024 
L 347.790467 95.891916 
L 348.115446 98.153864 
L 348.440426 99.617468 
L 348.765405 95.625788 
L 349.090385 97.621648 
L 349.415364 97.35552 
L 349.740344 96.424132 
L 350.065324 97.089412 
L 350.390303 96.158024 
L 350.715283 96.424132 
L 351.365242 98.553036 
L 351.690221 97.089412 
L 352.015201 98.819144 
L 352.66516 97.089412 
L 353.315119 100.282748 
L 353.640098 97.754692 
L 353.965078 98.419972 
L 354.290057 97.754692 
L 354.615037 98.819144 
L 354.940016 98.153864 
L 355.264996 99.750532 
L 355.589975 98.0208 
L 355.914955 100.01664 
L 356.239934 97.222476 
L 356.564914 96.956368 
L 356.889894 99.35136 
L 357.214873 100.01664 
L 357.539853 96.823304 
L 357.864832 99.218296 
L 358.514791 94.295228 
L 358.839771 101.879416 
L 359.16475 97.621648 
L 359.48973 96.158024 
L 359.814709 101.746352 
L 360.139689 96.424132 
L 360.464668 97.621648 
L 360.789648 97.222476 
L 361.114627 96.158024 
L 361.439607 99.085252 
L 361.764586 96.158024 
L 362.089566 98.553036 
L 362.414545 99.35136 
L 362.739525 98.68608 
L 363.064505 96.956368 
L 363.389484 97.754692 
L 363.714464 96.557196 
L 364.039443 98.419972 
L 364.364423 95.625788 
L 364.689402 97.488584 
L 365.014382 97.754692 
L 365.339361 100.149704 
L 365.664341 98.286928 
L 366.3143 98.286928 
L 366.639279 98.153864 
L 367.289238 98.819144 
L 367.614218 97.754692 
L 367.939197 98.952188 
L 368.264177 98.952188 
L 368.589156 95.226636 
L 368.914136 94.6944 
L 369.239115 97.887756 
L 369.564095 95.492744 
L 369.889075 94.428292 
L 370.214054 97.621648 
L 370.539034 96.424132 
L 370.864013 96.956368 
L 371.188993 98.952188 
L 371.513972 97.089412 
L 371.838952 98.419972 
L 372.163931 100.948028 
L 372.488911 99.218296 
L 372.81389 98.819144 
L 373.13887 100.01664 
L 373.463849 98.0208 
L 373.788829 97.089412 
L 374.113808 96.956368 
L 374.438788 97.621648 
L 374.763767 97.35552 
L 375.088747 96.424132 
L 375.413726 100.01664 
L 375.738706 94.6944 
L 376.063686 97.621648 
L 376.388665 97.621648 
L 376.713645 98.153864 
L 377.038624 100.01664 
L 377.363604 94.827464 
L 377.688583 96.823304 
L 378.013563 95.891916 
L 378.338542 97.089412 
L 378.663522 96.69024 
L 378.988501 95.35968 
L 379.313481 96.956368 
L 379.63846 97.35552 
L 379.96344 101.879416 
L 380.288419 95.758852 
L 380.613399 97.887756 
L 380.938378 95.492744 
L 381.263358 97.754692 
L 381.588337 95.891916 
L 381.913317 97.887756 
L 382.238296 98.153864 
L 382.563276 95.35968 
L 382.888256 98.286928 
L 383.213235 95.891916 
L 383.538215 98.0208 
L 384.188174 97.089412 
L 384.513153 98.819144 
L 384.838133 97.488584 
L 385.163112 98.952188 
L 385.488092 97.089412 
L 385.813071 96.424132 
L 386.138051 99.085252 
L 386.78801 95.492744 
L 387.112989 97.35552 
L 387.762948 97.621648 
L 388.087928 96.557196 
L 388.412907 96.158024 
L 388.737887 98.419972 
L 389.062867 98.68608 
L 389.387846 97.222476 
L 389.712826 100.548856 
L 390.037805 99.750532 
L 390.687764 95.492744 
L 391.012744 97.35552 
L 391.337723 95.226636 
L 391.662703 94.827464 
L 391.987682 98.153864 
L 392.312662 97.621648 
L 392.637641 97.488584 
L 392.962621 100.814964 
L 393.2876 98.553036 
L 393.61258 98.286928 
L 393.937559 96.956368 
L 394.262539 97.887756 
L 394.587518 96.158024 
L 394.912498 97.089412 
L 395.237477 95.226636 
L 395.562457 98.0208 
L 395.887437 96.02496 
L 396.212416 97.621648 
L 396.537396 98.0208 
L 396.862375 99.085252 
L 397.187355 96.424132 
L 397.512334 98.153864 
L 397.837314 98.0208 
L 398.162293 97.754692 
L 398.487273 97.222476 
L 398.487273 97.222476 
" style="fill:none;stroke:#2ca02c;stroke-linecap:square;stroke-width:1.5;"/>
   </g>
   <g id="patch_3">
    <path d="M 57.6 307.584 
L 57.6 41.472 
" style="fill:none;stroke:#000000;stroke-linecap:square;stroke-linejoin:miter;stroke-width:0.8;"/>
   </g>
   <g id="patch_4">
    <path d="M 414.72 307.584 
L 414.72 41.472 
" style="fill:none;stroke:#000000;stroke-linecap:square;stroke-linejoin:miter;stroke-width:0.8;"/>
   </g>
   <g id="patch_5">
    <path d="M 57.6 307.584 
L 414.72 307.584 
" style="fill:none;stroke:#000000;stroke-linecap:square;stroke-linejoin:miter;stroke-width:0.8;"/>
   </g>
   <g id="patch_6">
    <path d="M 57.6 41.472 
L 414.72 41.472 
" style="fill:none;stroke:#000000;stroke-linecap:square;stroke-linejoin:miter;stroke-width:0.8;"/>
   </g>
   <g id="text_14">
    <!-- -greedy bandits -->
    <defs>
     <path d="M 19.28125 29.5 
Q 13.8125 30.671875 10.890625 33.84375 
Q 7.953125 36.96875 7.953125 41.5 
Q 7.953125 48.390625 13.53125 52.25 
Q 19.046875 56.0625 28.609375 56.0625 
Q 32.328125 56.0625 36.46875 55.46875 
Q 40.625 54.890625 45.40625 53.71875 
L 45.40625 45.5625 
Q 40.671875 46.96875 36.765625 47.609375 
Q 32.8125 48.25 29.34375 48.25 
Q 23.53125 48.25 20.171875 46 
Q 16.75 43.75 16.75 40.625 
Q 16.75 37.203125 20.0625 35.015625 
Q 23.34375 32.859375 29 32.859375 
L 36.578125 32.859375 
L 36.578125 25.4375 
L 29.34375 25.4375 
Q 22.65625 25.4375 19.140625 22.953125 
Q 15.328125 20.21875 15.328125 15.921875 
Q 15.328125 11.53125 19.4375 8.796875 
Q 23.578125 6.0625 30.953125 6.0625 
Q 35.5 6.0625 39.65625 6.9375 
Q 43.796875 7.859375 47.265625 9.671875 
L 47.265625 1.3125 
Q 42.875 -0.046875 38.765625 -0.734375 
Q 34.625 -1.421875 30.71875 -1.421875 
Q 19.09375 -1.421875 12.796875 3.03125 
Q 6.5 7.46875 6.5 15.921875 
Q 6.5 21.1875 9.859375 24.75 
Q 13.234375 28.328125 19.28125 29.5 
z
" id="DejaVuSans-3b5"/>
     <path d="M 4.890625 31.390625 
L 31.203125 31.390625 
L 31.203125 23.390625 
L 4.890625 23.390625 
z
" id="DejaVuSans-2d"/>
     <path d="M 45.40625 27.984375 
Q 45.40625 37.75 41.375 43.109375 
Q 37.359375 48.484375 30.078125 48.484375 
Q 22.859375 48.484375 18.828125 43.109375 
Q 14.796875 37.75 14.796875 27.984375 
Q 14.796875 18.265625 18.828125 12.890625 
Q 22.859375 7.515625 30.078125 7.515625 
Q 37.359375 7.515625 41.375 12.890625 
Q 45.40625 18.265625 45.40625 27.984375 
z
M 54.390625 6.78125 
Q 54.390625 -7.171875 48.1875 -13.984375 
Q 42 -20.796875 29.203125 -20.796875 
Q 24.46875 -20.796875 20.265625 -20.09375 
Q 16.0625 -19.390625 12.109375 -17.921875 
L 12.109375 -9.1875 
Q 16.0625 -11.328125 19.921875 -12.34375 
Q 23.78125 -13.375 27.78125 -13.375 
Q 36.625 -13.375 41.015625 -8.765625 
Q 45.40625 -4.15625 45.40625 5.171875 
L 45.40625 9.625 
Q 42.625 4.78125 38.28125 2.390625 
Q 33.9375 0 27.875 0 
Q 17.828125 0 11.671875 7.65625 
Q 5.515625 15.328125 5.515625 27.984375 
Q 5.515625 40.671875 11.671875 48.328125 
Q 17.828125 56 27.875 56 
Q 33.9375 56 38.28125 53.609375 
Q 42.625 51.21875 45.40625 46.390625 
L 45.40625 54.6875 
L 54.390625 54.6875 
z
" id="DejaVuSans-67"/>
     <path d="M 41.109375 46.296875 
Q 39.59375 47.171875 37.8125 47.578125 
Q 36.03125 48 33.890625 48 
Q 26.265625 48 22.1875 43.046875 
Q 18.109375 38.09375 18.109375 28.8125 
L 18.109375 0 
L 9.078125 0 
L 9.078125 54.6875 
L 18.109375 54.6875 
L 18.109375 46.1875 
Q 20.953125 51.171875 25.484375 53.578125 
Q 30.03125 56 36.53125 56 
Q 37.453125 56 38.578125 55.875 
Q 39.703125 55.765625 41.0625 55.515625 
z
" id="DejaVuSans-72"/>
     <path d="M 45.40625 46.390625 
L 45.40625 75.984375 
L 54.390625 75.984375 
L 54.390625 0 
L 45.40625 0 
L 45.40625 8.203125 
Q 42.578125 3.328125 38.25 0.953125 
Q 33.9375 -1.421875 27.875 -1.421875 
Q 17.96875 -1.421875 11.734375 6.484375 
Q 5.515625 14.40625 5.515625 27.296875 
Q 5.515625 40.1875 11.734375 48.09375 
Q 17.96875 56 27.875 56 
Q 33.9375 56 38.25 53.625 
Q 42.578125 51.265625 45.40625 46.390625 
z
M 14.796875 27.296875 
Q 14.796875 17.390625 18.875 11.75 
Q 22.953125 6.109375 30.078125 6.109375 
Q 37.203125 6.109375 41.296875 11.75 
Q 45.40625 17.390625 45.40625 27.296875 
Q 45.40625 37.203125 41.296875 42.84375 
Q 37.203125 48.484375 30.078125 48.484375 
Q 22.953125 48.484375 18.875 42.84375 
Q 14.796875 37.203125 14.796875 27.296875 
z
" id="DejaVuSans-64"/>
     <path d="M 32.171875 -5.078125 
Q 28.375 -14.84375 24.75 -17.8125 
Q 21.140625 -20.796875 15.09375 -20.796875 
L 7.90625 -20.796875 
L 7.90625 -13.28125 
L 13.1875 -13.28125 
Q 16.890625 -13.28125 18.9375 -11.515625 
Q 21 -9.765625 23.484375 -3.21875 
L 25.09375 0.875 
L 2.984375 54.6875 
L 12.5 54.6875 
L 29.59375 11.921875 
L 46.6875 54.6875 
L 56.203125 54.6875 
z
" id="DejaVuSans-79"/>
     <path d="M 48.6875 27.296875 
Q 48.6875 37.203125 44.609375 42.84375 
Q 40.53125 48.484375 33.40625 48.484375 
Q 26.265625 48.484375 22.1875 42.84375 
Q 18.109375 37.203125 18.109375 27.296875 
Q 18.109375 17.390625 22.1875 11.75 
Q 26.265625 6.109375 33.40625 6.109375 
Q 40.53125 6.109375 44.609375 11.75 
Q 48.6875 17.390625 48.6875 27.296875 
z
M 18.109375 46.390625 
Q 20.953125 51.265625 25.265625 53.625 
Q 29.59375 56 35.59375 56 
Q 45.5625 56 51.78125 48.09375 
Q 58.015625 40.1875 58.015625 27.296875 
Q 58.015625 14.40625 51.78125 6.484375 
Q 45.5625 -1.421875 35.59375 -1.421875 
Q 29.59375 -1.421875 25.265625 0.953125 
Q 20.953125 3.328125 18.109375 8.203125 
L 18.109375 0 
L 9.078125 0 
L 9.078125 75.984375 
L 18.109375 75.984375 
z
" id="DejaVuSans-62"/>
    </defs>
    <g transform="translate(185.585625 35.472)scale(0.12 -0.12)">
     <use xlink:href="#DejaVuSans-3b5"/>
     <use x="54.052734" xlink:href="#DejaVuSans-2d"/>
     <use x="90.136719" xlink:href="#DejaVuSans-67"/>
     <use x="153.613281" xlink:href="#DejaVuSans-72"/>
     <use x="194.695312" xlink:href="#DejaVuSans-65"/>
     <use x="256.21875" xlink:href="#DejaVuSans-65"/>
     <use x="317.742188" xlink:href="#DejaVuSans-64"/>
     <use x="381.21875" xlink:href="#DejaVuSans-79"/>
     <use x="440.398438" xlink:href="#DejaVuSans-20"/>
     <use x="472.185547" xlink:href="#DejaVuSans-62"/>
     <use x="535.662109" xlink:href="#DejaVuSans-61"/>
     <use x="596.941406" xlink:href="#DejaVuSans-6e"/>
     <use x="660.320312" xlink:href="#DejaVuSans-64"/>
     <use x="723.796875" xlink:href="#DejaVuSans-69"/>
     <use x="751.580078" xlink:href="#DejaVuSans-74"/>
     <use x="790.789062" xlink:href="#DejaVuSans-73"/>
    </g>
   </g>
   <g id="legend_1">
    <g id="patch_7">
     <path d="M 339.67 93.506375 
L 407.72 93.506375 
Q 409.72 93.506375 409.72 91.506375 
L 409.72 48.472 
Q 409.72 46.472 407.72 46.472 
L 339.67 46.472 
Q 337.67 46.472 337.67 48.472 
L 337.67 91.506375 
Q 337.67 93.506375 339.67 93.506375 
z
" style="fill:#ffffff;opacity:0.8;stroke:#cccccc;stroke-linejoin:miter;"/>
    </g>
    <g id="line2d_15">
     <path d="M 341.67 54.570438 
L 361.67 54.570438 
" style="fill:none;stroke:#1f77b4;stroke-linecap:square;stroke-width:1.5;"/>
    </g>
    <g id="line2d_16"/>
    <g id="text_15">
     <!-- =0, -->
     <defs>
      <path d="M 10.59375 45.40625 
L 73.1875 45.40625 
L 73.1875 37.203125 
L 10.59375 37.203125 
z
M 10.59375 25.484375 
L 73.1875 25.484375 
L 73.1875 17.1875 
L 10.59375 17.1875 
z
" id="DejaVuSans-3d"/>
      <path d="M 11.71875 12.40625 
L 22.015625 12.40625 
L 22.015625 4 
L 14.015625 -11.625 
L 7.71875 -11.625 
L 11.71875 4 
z
" id="DejaVuSans-2c"/>
     </defs>
     <g transform="translate(369.67 58.070438)scale(0.1 -0.1)">
      <use xlink:href="#DejaVuSans-3b5"/>
      <use x="54.052734" xlink:href="#DejaVuSans-3d"/>
      <use x="137.841797" xlink:href="#DejaVuSans-30"/>
      <use x="201.464844" xlink:href="#DejaVuSans-2c"/>
     </g>
    </g>
    <g id="line2d_17">
     <path d="M 341.67 69.248563 
L 361.67 69.248563 
" style="fill:none;stroke:#ff7f0e;stroke-linecap:square;stroke-width:1.5;"/>
    </g>
    <g id="line2d_18"/>
    <g id="text_16">
     <!-- =0.01 -->
     <defs>
      <path d="M 10.6875 12.40625 
L 21 12.40625 
L 21 0 
L 10.6875 0 
z
" id="DejaVuSans-2e"/>
     </defs>
     <g transform="translate(369.67 72.748563)scale(0.1 -0.1)">
      <use xlink:href="#DejaVuSans-3b5"/>
      <use x="54.052734" xlink:href="#DejaVuSans-3d"/>
      <use x="137.841797" xlink:href="#DejaVuSans-30"/>
      <use x="201.464844" xlink:href="#DejaVuSans-2e"/>
      <use x="233.251953" xlink:href="#DejaVuSans-30"/>
      <use x="296.875" xlink:href="#DejaVuSans-31"/>
     </g>
    </g>
    <g id="line2d_19">
     <path d="M 341.67 83.926688 
L 361.67 83.926688 
" style="fill:none;stroke:#2ca02c;stroke-linecap:square;stroke-width:1.5;"/>
    </g>
    <g id="line2d_20"/>
    <g id="text_17">
     <!-- =0.1 -->
     <g transform="translate(369.67 87.426688)scale(0.1 -0.1)">
      <use xlink:href="#DejaVuSans-3b5"/>
      <use x="54.052734" xlink:href="#DejaVuSans-3d"/>
      <use x="137.841797" xlink:href="#DejaVuSans-30"/>
      <use x="201.464844" xlink:href="#DejaVuSans-2e"/>
      <use x="233.251953" xlink:href="#DejaVuSans-31"/>
     </g>
    </g>
   </g>
  </g>
 </g>
 <defs>
  <clipPath id="p516f21aa55">
   <rect height="266.112" width="357.12" x="57.6" y="41.472"/>
  </clipPath>
 </defs>
</svg>
