<?xml version="1.0" encoding="utf-8" standalone="no"?>
<!DOCTYPE svg PUBLIC "-//W3C//DTD SVG 1.1//EN"
  "http://www.w3.org/Graphics/SVG/1.1/DTD/svg11.dtd">
<!-- Created with matplotlib (http://matplotlib.org/) -->
<svg height="345.6pt" version="1.1" viewBox="0 0 460.8 345.6" width="460.8pt" xmlns="http://www.w3.org/2000/svg" xmlns:xlink="http://www.w3.org/1999/xlink">
 <defs>
  <style type="text/css">
*{stroke-linecap:butt;stroke-linejoin:round;}
  </style>
 </defs>
 <g id="figure_1">
  <g id="patch_1">
   <path d="M 0 345.6 
L 460.8 345.6 
L 460.8 0 
L 0 0 
z
" style="fill:#ffffff;"/>
  </g>
  <g id="axes_1">
   <g id="patch_2">
    <path d="M 57.6 307.584 
L 414.72 307.584 
L 414.72 41.472 
L 57.6 41.472 
z
" style="fill:#ffffff;"/>
   </g>
   <g id="matplotlib.axis_1">
    <g id="xtick_1">
     <g id="line2d_1">
      <defs>
       <path d="M 0 0 
L 0 3.5 
" id="m5f98c932c3" style="stroke:#000000;stroke-width:0.8;"/>
      </defs>
      <g>
       <use style="stroke:#000000;stroke-width:0.8;" x="73.832727" xlink:href="#m5f98c932c3" y="307.584"/>
      </g>
     </g>
     <g id="text_1">
      <!-- 0 -->
      <defs>
       <path d="M 31.78125 66.40625 
Q 24.171875 66.40625 20.328125 58.90625 
Q 16.5 51.421875 16.5 36.375 
Q 16.5 21.390625 20.328125 13.890625 
Q 24.171875 6.390625 31.78125 6.390625 
Q 39.453125 6.390625 43.28125 13.890625 
Q 47.125 21.390625 47.125 36.375 
Q 47.125 51.421875 43.28125 58.90625 
Q 39.453125 66.40625 31.78125 66.40625 
z
M 31.78125 74.21875 
Q 44.046875 74.21875 50.515625 64.515625 
Q 56.984375 54.828125 56.984375 36.375 
Q 56.984375 17.96875 50.515625 8.265625 
Q 44.046875 -1.421875 31.78125 -1.421875 
Q 19.53125 -1.421875 13.0625 8.265625 
Q 6.59375 17.96875 6.59375 36.375 
Q 6.59375 54.828125 13.0625 64.515625 
Q 19.53125 74.21875 31.78125 74.21875 
z
" id="DejaVuSans-30"/>
      </defs>
      <g transform="translate(70.651477 322.182437)scale(0.1 -0.1)">
       <use xlink:href="#DejaVuSans-30"/>
      </g>
     </g>
    </g>
    <g id="xtick_2">
     <g id="line2d_2">
      <g>
       <use style="stroke:#000000;stroke-width:0.8;" x="155.077609" xlink:href="#m5f98c932c3" y="307.584"/>
      </g>
     </g>
     <g id="text_2">
      <!-- 250 -->
      <defs>
       <path d="M 19.1875 8.296875 
L 53.609375 8.296875 
L 53.609375 0 
L 7.328125 0 
L 7.328125 8.296875 
Q 12.9375 14.109375 22.625 23.890625 
Q 32.328125 33.6875 34.8125 36.53125 
Q 39.546875 41.84375 41.421875 45.53125 
Q 43.3125 49.21875 43.3125 52.78125 
Q 43.3125 58.59375 39.234375 62.25 
Q 35.15625 65.921875 28.609375 65.921875 
Q 23.96875 65.921875 18.8125 64.3125 
Q 13.671875 62.703125 7.8125 59.421875 
L 7.8125 69.390625 
Q 13.765625 71.78125 18.9375 73 
Q 24.125 74.21875 28.421875 74.21875 
Q 39.75 74.21875 46.484375 68.546875 
Q 53.21875 62.890625 53.21875 53.421875 
Q 53.21875 48.921875 51.53125 44.890625 
Q 49.859375 40.875 45.40625 35.40625 
Q 44.1875 33.984375 37.640625 27.21875 
Q 31.109375 20.453125 19.1875 8.296875 
z
" id="DejaVuSans-32"/>
       <path d="M 10.796875 72.90625 
L 49.515625 72.90625 
L 49.515625 64.59375 
L 19.828125 64.59375 
L 19.828125 46.734375 
Q 21.96875 47.46875 24.109375 47.828125 
Q 26.265625 48.1875 28.421875 48.1875 
Q 40.625 48.1875 47.75 41.5 
Q 54.890625 34.8125 54.890625 23.390625 
Q 54.890625 11.625 47.5625 5.09375 
Q 40.234375 -1.421875 26.90625 -1.421875 
Q 22.3125 -1.421875 17.546875 -0.640625 
Q 12.796875 0.140625 7.71875 1.703125 
L 7.71875 11.625 
Q 12.109375 9.234375 16.796875 8.0625 
Q 21.484375 6.890625 26.703125 6.890625 
Q 35.15625 6.890625 40.078125 11.328125 
Q 45.015625 15.765625 45.015625 23.390625 
Q 45.015625 31 40.078125 35.4375 
Q 35.15625 39.890625 26.703125 39.890625 
Q 22.75 39.890625 18.8125 39.015625 
Q 14.890625 38.140625 10.796875 36.28125 
z
" id="DejaVuSans-35"/>
      </defs>
      <g transform="translate(145.533859 322.182437)scale(0.1 -0.1)">
       <use xlink:href="#DejaVuSans-32"/>
       <use x="63.623047" xlink:href="#DejaVuSans-35"/>
       <use x="127.246094" xlink:href="#DejaVuSans-30"/>
      </g>
     </g>
    </g>
    <g id="xtick_3">
     <g id="line2d_3">
      <g>
       <use style="stroke:#000000;stroke-width:0.8;" x="236.32249" xlink:href="#m5f98c932c3" y="307.584"/>
      </g>
     </g>
     <g id="text_3">
      <!-- 500 -->
      <g transform="translate(226.77874 322.182437)scale(0.1 -0.1)">
       <use xlink:href="#DejaVuSans-35"/>
       <use x="63.623047" xlink:href="#DejaVuSans-30"/>
       <use x="127.246094" xlink:href="#DejaVuSans-30"/>
      </g>
     </g>
    </g>
    <g id="xtick_4">
     <g id="line2d_4">
      <g>
       <use style="stroke:#000000;stroke-width:0.8;" x="317.567371" xlink:href="#m5f98c932c3" y="307.584"/>
      </g>
     </g>
     <g id="text_4">
      <!-- 750 -->
      <defs>
       <path d="M 8.203125 72.90625 
L 55.078125 72.90625 
L 55.078125 68.703125 
L 28.609375 0 
L 18.3125 0 
L 43.21875 64.59375 
L 8.203125 64.59375 
z
" id="DejaVuSans-37"/>
      </defs>
      <g transform="translate(308.023621 322.182437)scale(0.1 -0.1)">
       <use xlink:href="#DejaVuSans-37"/>
       <use x="63.623047" xlink:href="#DejaVuSans-35"/>
       <use x="127.246094" xlink:href="#DejaVuSans-30"/>
      </g>
     </g>
    </g>
    <g id="xtick_5">
     <g id="line2d_5">
      <g>
       <use style="stroke:#000000;stroke-width:0.8;" x="398.812252" xlink:href="#m5f98c932c3" y="307.584"/>
      </g>
     </g>
     <g id="text_5">
      <!-- 1000 -->
      <defs>
       <path d="M 12.40625 8.296875 
L 28.515625 8.296875 
L 28.515625 63.921875 
L 10.984375 60.40625 
L 10.984375 69.390625 
L 28.421875 72.90625 
L 38.28125 72.90625 
L 38.28125 8.296875 
L 54.390625 8.296875 
L 54.390625 0 
L 12.40625 0 
z
" id="DejaVuSans-31"/>
      </defs>
      <g transform="translate(386.087252 322.182437)scale(0.1 -0.1)">
       <use xlink:href="#DejaVuSans-31"/>
       <use x="63.623047" xlink:href="#DejaVuSans-30"/>
       <use x="127.246094" xlink:href="#DejaVuSans-30"/>
       <use x="190.869141" xlink:href="#DejaVuSans-30"/>
      </g>
     </g>
    </g>
    <g id="text_6">
     <!-- Steps -->
     <defs>
      <path d="M 53.515625 70.515625 
L 53.515625 60.890625 
Q 47.90625 63.578125 42.921875 64.890625 
Q 37.9375 66.21875 33.296875 66.21875 
Q 25.25 66.21875 20.875 63.09375 
Q 16.5 59.96875 16.5 54.203125 
Q 16.5 49.359375 19.40625 46.890625 
Q 22.3125 44.4375 30.421875 42.921875 
L 36.375 41.703125 
Q 47.40625 39.59375 52.65625 34.296875 
Q 57.90625 29 57.90625 20.125 
Q 57.90625 9.515625 50.796875 4.046875 
Q 43.703125 -1.421875 29.984375 -1.421875 
Q 24.8125 -1.421875 18.96875 -0.25 
Q 13.140625 0.921875 6.890625 3.21875 
L 6.890625 13.375 
Q 12.890625 10.015625 18.65625 8.296875 
Q 24.421875 6.59375 29.984375 6.59375 
Q 38.421875 6.59375 43.015625 9.90625 
Q 47.609375 13.234375 47.609375 19.390625 
Q 47.609375 24.75 44.3125 27.78125 
Q 41.015625 30.8125 33.5 32.328125 
L 27.484375 33.5 
Q 16.453125 35.6875 11.515625 40.375 
Q 6.59375 45.0625 6.59375 53.421875 
Q 6.59375 63.09375 13.40625 68.65625 
Q 20.21875 74.21875 32.171875 74.21875 
Q 37.3125 74.21875 42.625 73.28125 
Q 47.953125 72.359375 53.515625 70.515625 
z
" id="DejaVuSans-53"/>
      <path d="M 18.3125 70.21875 
L 18.3125 54.6875 
L 36.8125 54.6875 
L 36.8125 47.703125 
L 18.3125 47.703125 
L 18.3125 18.015625 
Q 18.3125 11.328125 20.140625 9.421875 
Q 21.96875 7.515625 27.59375 7.515625 
L 36.8125 7.515625 
L 36.8125 0 
L 27.59375 0 
Q 17.1875 0 13.234375 3.875 
Q 9.28125 7.765625 9.28125 18.015625 
L 9.28125 47.703125 
L 2.6875 47.703125 
L 2.6875 54.6875 
L 9.28125 54.6875 
L 9.28125 70.21875 
z
" id="DejaVuSans-74"/>
      <path d="M 56.203125 29.59375 
L 56.203125 25.203125 
L 14.890625 25.203125 
Q 15.484375 15.921875 20.484375 11.0625 
Q 25.484375 6.203125 34.421875 6.203125 
Q 39.59375 6.203125 44.453125 7.46875 
Q 49.3125 8.734375 54.109375 11.28125 
L 54.109375 2.78125 
Q 49.265625 0.734375 44.1875 -0.34375 
Q 39.109375 -1.421875 33.890625 -1.421875 
Q 20.796875 -1.421875 13.15625 6.1875 
Q 5.515625 13.8125 5.515625 26.8125 
Q 5.515625 40.234375 12.765625 48.109375 
Q 20.015625 56 32.328125 56 
Q 43.359375 56 49.78125 48.890625 
Q 56.203125 41.796875 56.203125 29.59375 
z
M 47.21875 32.234375 
Q 47.125 39.59375 43.09375 43.984375 
Q 39.0625 48.390625 32.421875 48.390625 
Q 24.90625 48.390625 20.390625 44.140625 
Q 15.875 39.890625 15.1875 32.171875 
z
" id="DejaVuSans-65"/>
      <path d="M 18.109375 8.203125 
L 18.109375 -20.796875 
L 9.078125 -20.796875 
L 9.078125 54.6875 
L 18.109375 54.6875 
L 18.109375 46.390625 
Q 20.953125 51.265625 25.265625 53.625 
Q 29.59375 56 35.59375 56 
Q 45.5625 56 51.78125 48.09375 
Q 58.015625 40.1875 58.015625 27.296875 
Q 58.015625 14.40625 51.78125 6.484375 
Q 45.5625 -1.421875 35.59375 -1.421875 
Q 29.59375 -1.421875 25.265625 0.953125 
Q 20.953125 3.328125 18.109375 8.203125 
z
M 48.6875 27.296875 
Q 48.6875 37.203125 44.609375 42.84375 
Q 40.53125 48.484375 33.40625 48.484375 
Q 26.265625 48.484375 22.1875 42.84375 
Q 18.109375 37.203125 18.109375 27.296875 
Q 18.109375 17.390625 22.1875 11.75 
Q 26.265625 6.109375 33.40625 6.109375 
Q 40.53125 6.109375 44.609375 11.75 
Q 48.6875 17.390625 48.6875 27.296875 
z
" id="DejaVuSans-70"/>
      <path d="M 44.28125 53.078125 
L 44.28125 44.578125 
Q 40.484375 46.53125 36.375 47.5 
Q 32.28125 48.484375 27.875 48.484375 
Q 21.1875 48.484375 17.84375 46.4375 
Q 14.5 44.390625 14.5 40.28125 
Q 14.5 37.15625 16.890625 35.375 
Q 19.28125 33.59375 26.515625 31.984375 
L 29.59375 31.296875 
Q 39.15625 29.25 43.1875 25.515625 
Q 47.21875 21.78125 47.21875 15.09375 
Q 47.21875 7.46875 41.1875 3.015625 
Q 35.15625 -1.421875 24.609375 -1.421875 
Q 20.21875 -1.421875 15.453125 -0.5625 
Q 10.6875 0.296875 5.421875 2 
L 5.421875 11.28125 
Q 10.40625 8.6875 15.234375 7.390625 
Q 20.0625 6.109375 24.8125 6.109375 
Q 31.15625 6.109375 34.5625 8.28125 
Q 37.984375 10.453125 37.984375 14.40625 
Q 37.984375 18.0625 35.515625 20.015625 
Q 33.0625 21.96875 24.703125 23.78125 
L 21.578125 24.515625 
Q 13.234375 26.265625 9.515625 29.90625 
Q 5.8125 33.546875 5.8125 39.890625 
Q 5.8125 47.609375 11.28125 51.796875 
Q 16.75 56 26.8125 56 
Q 31.78125 56 36.171875 55.265625 
Q 40.578125 54.546875 44.28125 53.078125 
z
" id="DejaVuSans-73"/>
     </defs>
     <g transform="translate(222.170156 335.860562)scale(0.1 -0.1)">
      <use xlink:href="#DejaVuSans-53"/>
      <use x="63.476562" xlink:href="#DejaVuSans-74"/>
      <use x="102.685547" xlink:href="#DejaVuSans-65"/>
      <use x="164.208984" xlink:href="#DejaVuSans-70"/>
      <use x="227.685547" xlink:href="#DejaVuSans-73"/>
     </g>
    </g>
   </g>
   <g id="matplotlib.axis_2">
    <g id="ytick_1">
     <g id="line2d_6">
      <defs>
       <path d="M 0 0 
L -3.5 0 
" id="mc3070315f1" style="stroke:#000000;stroke-width:0.8;"/>
      </defs>
      <g>
       <use style="stroke:#000000;stroke-width:0.8;" x="57.6" xlink:href="#mc3070315f1" y="307.584"/>
      </g>
     </g>
     <g id="text_7">
      <!-- 0 -->
      <g transform="translate(44.2375 311.383219)scale(0.1 -0.1)">
       <use xlink:href="#DejaVuSans-30"/>
      </g>
     </g>
    </g>
    <g id="ytick_2">
     <g id="line2d_7">
      <g>
       <use style="stroke:#000000;stroke-width:0.8;" x="57.6" xlink:href="#mc3070315f1" y="254.3616"/>
      </g>
     </g>
     <g id="text_8">
      <!-- 20 -->
      <g transform="translate(37.875 258.160819)scale(0.1 -0.1)">
       <use xlink:href="#DejaVuSans-32"/>
       <use x="63.623047" xlink:href="#DejaVuSans-30"/>
      </g>
     </g>
    </g>
    <g id="ytick_3">
     <g id="line2d_8">
      <g>
       <use style="stroke:#000000;stroke-width:0.8;" x="57.6" xlink:href="#mc3070315f1" y="201.1392"/>
      </g>
     </g>
     <g id="text_9">
      <!-- 40 -->
      <defs>
       <path d="M 37.796875 64.3125 
L 12.890625 25.390625 
L 37.796875 25.390625 
z
M 35.203125 72.90625 
L 47.609375 72.90625 
L 47.609375 25.390625 
L 58.015625 25.390625 
L 58.015625 17.1875 
L 47.609375 17.1875 
L 47.609375 0 
L 37.796875 0 
L 37.796875 17.1875 
L 4.890625 17.1875 
L 4.890625 26.703125 
z
" id="DejaVuSans-34"/>
      </defs>
      <g transform="translate(37.875 204.938419)scale(0.1 -0.1)">
       <use xlink:href="#DejaVuSans-34"/>
       <use x="63.623047" xlink:href="#DejaVuSans-30"/>
      </g>
     </g>
    </g>
    <g id="ytick_4">
     <g id="line2d_9">
      <g>
       <use style="stroke:#000000;stroke-width:0.8;" x="57.6" xlink:href="#mc3070315f1" y="147.9168"/>
      </g>
     </g>
     <g id="text_10">
      <!-- 60 -->
      <defs>
       <path d="M 33.015625 40.375 
Q 26.375 40.375 22.484375 35.828125 
Q 18.609375 31.296875 18.609375 23.390625 
Q 18.609375 15.53125 22.484375 10.953125 
Q 26.375 6.390625 33.015625 6.390625 
Q 39.65625 6.390625 43.53125 10.953125 
Q 47.40625 15.53125 47.40625 23.390625 
Q 47.40625 31.296875 43.53125 35.828125 
Q 39.65625 40.375 33.015625 40.375 
z
M 52.59375 71.296875 
L 52.59375 62.3125 
Q 48.875 64.0625 45.09375 64.984375 
Q 41.3125 65.921875 37.59375 65.921875 
Q 27.828125 65.921875 22.671875 59.328125 
Q 17.53125 52.734375 16.796875 39.40625 
Q 19.671875 43.65625 24.015625 45.921875 
Q 28.375 48.1875 33.59375 48.1875 
Q 44.578125 48.1875 50.953125 41.515625 
Q 57.328125 34.859375 57.328125 23.390625 
Q 57.328125 12.15625 50.6875 5.359375 
Q 44.046875 -1.421875 33.015625 -1.421875 
Q 20.359375 -1.421875 13.671875 8.265625 
Q 6.984375 17.96875 6.984375 36.375 
Q 6.984375 53.65625 15.1875 63.9375 
Q 23.390625 74.21875 37.203125 74.21875 
Q 40.921875 74.21875 44.703125 73.484375 
Q 48.484375 72.75 52.59375 71.296875 
z
" id="DejaVuSans-36"/>
      </defs>
      <g transform="translate(37.875 151.716019)scale(0.1 -0.1)">
       <use xlink:href="#DejaVuSans-36"/>
       <use x="63.623047" xlink:href="#DejaVuSans-30"/>
      </g>
     </g>
    </g>
    <g id="ytick_5">
     <g id="line2d_10">
      <g>
       <use style="stroke:#000000;stroke-width:0.8;" x="57.6" xlink:href="#mc3070315f1" y="94.6944"/>
      </g>
     </g>
     <g id="text_11">
      <!-- 80 -->
      <defs>
       <path d="M 31.78125 34.625 
Q 24.75 34.625 20.71875 30.859375 
Q 16.703125 27.09375 16.703125 20.515625 
Q 16.703125 13.921875 20.71875 10.15625 
Q 24.75 6.390625 31.78125 6.390625 
Q 38.8125 6.390625 42.859375 10.171875 
Q 46.921875 13.96875 46.921875 20.515625 
Q 46.921875 27.09375 42.890625 30.859375 
Q 38.875 34.625 31.78125 34.625 
z
M 21.921875 38.8125 
Q 15.578125 40.375 12.03125 44.71875 
Q 8.5 49.078125 8.5 55.328125 
Q 8.5 64.0625 14.71875 69.140625 
Q 20.953125 74.21875 31.78125 74.21875 
Q 42.671875 74.21875 48.875 69.140625 
Q 55.078125 64.0625 55.078125 55.328125 
Q 55.078125 49.078125 51.53125 44.71875 
Q 48 40.375 41.703125 38.8125 
Q 48.828125 37.15625 52.796875 32.3125 
Q 56.78125 27.484375 56.78125 20.515625 
Q 56.78125 9.90625 50.3125 4.234375 
Q 43.84375 -1.421875 31.78125 -1.421875 
Q 19.734375 -1.421875 13.25 4.234375 
Q 6.78125 9.90625 6.78125 20.515625 
Q 6.78125 27.484375 10.78125 32.3125 
Q 14.796875 37.15625 21.921875 38.8125 
z
M 18.3125 54.390625 
Q 18.3125 48.734375 21.84375 45.5625 
Q 25.390625 42.390625 31.78125 42.390625 
Q 38.140625 42.390625 41.71875 45.5625 
Q 45.3125 48.734375 45.3125 54.390625 
Q 45.3125 60.0625 41.71875 63.234375 
Q 38.140625 66.40625 31.78125 66.40625 
Q 25.390625 66.40625 21.84375 63.234375 
Q 18.3125 60.0625 18.3125 54.390625 
z
" id="DejaVuSans-38"/>
      </defs>
      <g transform="translate(37.875 98.493619)scale(0.1 -0.1)">
       <use xlink:href="#DejaVuSans-38"/>
       <use x="63.623047" xlink:href="#DejaVuSans-30"/>
      </g>
     </g>
    </g>
    <g id="ytick_6">
     <g id="line2d_11">
      <g>
       <use style="stroke:#000000;stroke-width:0.8;" x="57.6" xlink:href="#mc3070315f1" y="41.472"/>
      </g>
     </g>
     <g id="text_12">
      <!-- 100 -->
      <g transform="translate(31.5125 45.271219)scale(0.1 -0.1)">
       <use xlink:href="#DejaVuSans-31"/>
       <use x="63.623047" xlink:href="#DejaVuSans-30"/>
       <use x="127.246094" xlink:href="#DejaVuSans-30"/>
      </g>
     </g>
    </g>
    <g id="text_13">
     <!-- Optimal action (%) -->
     <defs>
      <path d="M 39.40625 66.21875 
Q 28.65625 66.21875 22.328125 58.203125 
Q 16.015625 50.203125 16.015625 36.375 
Q 16.015625 22.609375 22.328125 14.59375 
Q 28.65625 6.59375 39.40625 6.59375 
Q 50.140625 6.59375 56.421875 14.59375 
Q 62.703125 22.609375 62.703125 36.375 
Q 62.703125 50.203125 56.421875 58.203125 
Q 50.140625 66.21875 39.40625 66.21875 
z
M 39.40625 74.21875 
Q 54.734375 74.21875 63.90625 63.9375 
Q 73.09375 53.65625 73.09375 36.375 
Q 73.09375 19.140625 63.90625 8.859375 
Q 54.734375 -1.421875 39.40625 -1.421875 
Q 24.03125 -1.421875 14.8125 8.828125 
Q 5.609375 19.09375 5.609375 36.375 
Q 5.609375 53.65625 14.8125 63.9375 
Q 24.03125 74.21875 39.40625 74.21875 
z
" id="DejaVuSans-4f"/>
      <path d="M 9.421875 54.6875 
L 18.40625 54.6875 
L 18.40625 0 
L 9.421875 0 
z
M 9.421875 75.984375 
L 18.40625 75.984375 
L 18.40625 64.59375 
L 9.421875 64.59375 
z
" id="DejaVuSans-69"/>
      <path d="M 52 44.1875 
Q 55.375 50.25 60.0625 53.125 
Q 64.75 56 71.09375 56 
Q 79.640625 56 84.28125 50.015625 
Q 88.921875 44.046875 88.921875 33.015625 
L 88.921875 0 
L 79.890625 0 
L 79.890625 32.71875 
Q 79.890625 40.578125 77.09375 44.375 
Q 74.3125 48.1875 68.609375 48.1875 
Q 61.625 48.1875 57.5625 43.546875 
Q 53.515625 38.921875 53.515625 30.90625 
L 53.515625 0 
L 44.484375 0 
L 44.484375 32.71875 
Q 44.484375 40.625 41.703125 44.40625 
Q 38.921875 48.1875 33.109375 48.1875 
Q 26.21875 48.1875 22.15625 43.53125 
Q 18.109375 38.875 18.109375 30.90625 
L 18.109375 0 
L 9.078125 0 
L 9.078125 54.6875 
L 18.109375 54.6875 
L 18.109375 46.1875 
Q 21.1875 51.21875 25.484375 53.609375 
Q 29.78125 56 35.6875 56 
Q 41.65625 56 45.828125 52.96875 
Q 50 49.953125 52 44.1875 
z
" id="DejaVuSans-6d"/>
      <path d="M 34.28125 27.484375 
Q 23.390625 27.484375 19.1875 25 
Q 14.984375 22.515625 14.984375 16.5 
Q 14.984375 11.71875 18.140625 8.90625 
Q 21.296875 6.109375 26.703125 6.109375 
Q 34.1875 6.109375 38.703125 11.40625 
Q 43.21875 16.703125 43.21875 25.484375 
L 43.21875 27.484375 
z
M 52.203125 31.203125 
L 52.203125 0 
L 43.21875 0 
L 43.21875 8.296875 
Q 40.140625 3.328125 35.546875 0.953125 
Q 30.953125 -1.421875 24.3125 -1.421875 
Q 15.921875 -1.421875 10.953125 3.296875 
Q 6 8.015625 6 15.921875 
Q 6 25.140625 12.171875 29.828125 
Q 18.359375 34.515625 30.609375 34.515625 
L 43.21875 34.515625 
L 43.21875 35.40625 
Q 43.21875 41.609375 39.140625 45 
Q 35.0625 48.390625 27.6875 48.390625 
Q 23 48.390625 18.546875 47.265625 
Q 14.109375 46.140625 10.015625 43.890625 
L 10.015625 52.203125 
Q 14.9375 54.109375 19.578125 55.046875 
Q 24.21875 56 28.609375 56 
Q 40.484375 56 46.34375 49.84375 
Q 52.203125 43.703125 52.203125 31.203125 
z
" id="DejaVuSans-61"/>
      <path d="M 9.421875 75.984375 
L 18.40625 75.984375 
L 18.40625 0 
L 9.421875 0 
z
" id="DejaVuSans-6c"/>
      <path id="DejaVuSans-20"/>
      <path d="M 48.78125 52.59375 
L 48.78125 44.1875 
Q 44.96875 46.296875 41.140625 47.34375 
Q 37.3125 48.390625 33.40625 48.390625 
Q 24.65625 48.390625 19.8125 42.84375 
Q 14.984375 37.3125 14.984375 27.296875 
Q 14.984375 17.28125 19.8125 11.734375 
Q 24.65625 6.203125 33.40625 6.203125 
Q 37.3125 6.203125 41.140625 7.25 
Q 44.96875 8.296875 48.78125 10.40625 
L 48.78125 2.09375 
Q 45.015625 0.34375 40.984375 -0.53125 
Q 36.96875 -1.421875 32.421875 -1.421875 
Q 20.0625 -1.421875 12.78125 6.34375 
Q 5.515625 14.109375 5.515625 27.296875 
Q 5.515625 40.671875 12.859375 48.328125 
Q 20.21875 56 33.015625 56 
Q 37.15625 56 41.109375 55.140625 
Q 45.0625 54.296875 48.78125 52.59375 
z
" id="DejaVuSans-63"/>
      <path d="M 30.609375 48.390625 
Q 23.390625 48.390625 19.1875 42.75 
Q 14.984375 37.109375 14.984375 27.296875 
Q 14.984375 17.484375 19.15625 11.84375 
Q 23.34375 6.203125 30.609375 6.203125 
Q 37.796875 6.203125 41.984375 11.859375 
Q 46.1875 17.53125 46.1875 27.296875 
Q 46.1875 37.015625 41.984375 42.703125 
Q 37.796875 48.390625 30.609375 48.390625 
z
M 30.609375 56 
Q 42.328125 56 49.015625 48.375 
Q 55.71875 40.765625 55.71875 27.296875 
Q 55.71875 13.875 49.015625 6.21875 
Q 42.328125 -1.421875 30.609375 -1.421875 
Q 18.84375 -1.421875 12.171875 6.21875 
Q 5.515625 13.875 5.515625 27.296875 
Q 5.515625 40.765625 12.171875 48.375 
Q 18.84375 56 30.609375 56 
z
" id="DejaVuSans-6f"/>
      <path d="M 54.890625 33.015625 
L 54.890625 0 
L 45.90625 0 
L 45.90625 32.71875 
Q 45.90625 40.484375 42.875 44.328125 
Q 39.84375 48.1875 33.796875 48.1875 
Q 26.515625 48.1875 22.3125 43.546875 
Q 18.109375 38.921875 18.109375 30.90625 
L 18.109375 0 
L 9.078125 0 
L 9.078125 54.6875 
L 18.109375 54.6875 
L 18.109375 46.1875 
Q 21.34375 51.125 25.703125 53.5625 
Q 30.078125 56 35.796875 56 
Q 45.21875 56 50.046875 50.171875 
Q 54.890625 44.34375 54.890625 33.015625 
z
" id="DejaVuSans-6e"/>
      <path d="M 31 75.875 
Q 24.46875 64.65625 21.28125 53.65625 
Q 18.109375 42.671875 18.109375 31.390625 
Q 18.109375 20.125 21.3125 9.0625 
Q 24.515625 -2 31 -13.1875 
L 23.1875 -13.1875 
Q 15.875 -1.703125 12.234375 9.375 
Q 8.59375 20.453125 8.59375 31.390625 
Q 8.59375 42.28125 12.203125 53.3125 
Q 15.828125 64.359375 23.1875 75.875 
z
" id="DejaVuSans-28"/>
      <path d="M 72.703125 32.078125 
Q 68.453125 32.078125 66.03125 28.46875 
Q 63.625 24.859375 63.625 18.40625 
Q 63.625 12.0625 66.03125 8.421875 
Q 68.453125 4.78125 72.703125 4.78125 
Q 76.859375 4.78125 79.265625 8.421875 
Q 81.6875 12.0625 81.6875 18.40625 
Q 81.6875 24.8125 79.265625 28.4375 
Q 76.859375 32.078125 72.703125 32.078125 
z
M 72.703125 38.28125 
Q 80.421875 38.28125 84.953125 32.90625 
Q 89.5 27.546875 89.5 18.40625 
Q 89.5 9.28125 84.9375 3.921875 
Q 80.375 -1.421875 72.703125 -1.421875 
Q 64.890625 -1.421875 60.34375 3.921875 
Q 55.8125 9.28125 55.8125 18.40625 
Q 55.8125 27.59375 60.375 32.9375 
Q 64.9375 38.28125 72.703125 38.28125 
z
M 22.3125 68.015625 
Q 18.109375 68.015625 15.6875 64.375 
Q 13.28125 60.75 13.28125 54.390625 
Q 13.28125 47.953125 15.671875 44.328125 
Q 18.0625 40.71875 22.3125 40.71875 
Q 26.5625 40.71875 28.96875 44.328125 
Q 31.390625 47.953125 31.390625 54.390625 
Q 31.390625 60.6875 28.953125 64.34375 
Q 26.515625 68.015625 22.3125 68.015625 
z
M 66.40625 74.21875 
L 74.21875 74.21875 
L 28.609375 -1.421875 
L 20.796875 -1.421875 
z
M 22.3125 74.21875 
Q 30.03125 74.21875 34.609375 68.875 
Q 39.203125 63.53125 39.203125 54.390625 
Q 39.203125 45.171875 34.640625 39.84375 
Q 30.078125 34.515625 22.3125 34.515625 
Q 14.546875 34.515625 10.03125 39.859375 
Q 5.515625 45.21875 5.515625 54.390625 
Q 5.515625 63.484375 10.046875 68.84375 
Q 14.59375 74.21875 22.3125 74.21875 
z
" id="DejaVuSans-25"/>
      <path d="M 8.015625 75.875 
L 15.828125 75.875 
Q 23.140625 64.359375 26.78125 53.3125 
Q 30.421875 42.28125 30.421875 31.390625 
Q 30.421875 20.453125 26.78125 9.375 
Q 23.140625 -1.703125 15.828125 -13.1875 
L 8.015625 -13.1875 
Q 14.5 -2 17.703125 9.0625 
Q 20.90625 20.125 20.90625 31.390625 
Q 20.90625 42.671875 17.703125 53.65625 
Q 14.5 64.65625 8.015625 75.875 
z
" id="DejaVuSans-29"/>
     </defs>
     <g transform="translate(25.432812 221.531906)rotate(-90)scale(0.1 -0.1)">
      <use xlink:href="#DejaVuSans-4f"/>
      <use x="78.710938" xlink:href="#DejaVuSans-70"/>
      <use x="142.1875" xlink:href="#DejaVuSans-74"/>
      <use x="181.396484" xlink:href="#DejaVuSans-69"/>
      <use x="209.179688" xlink:href="#DejaVuSans-6d"/>
      <use x="306.591797" xlink:href="#DejaVuSans-61"/>
      <use x="367.871094" xlink:href="#DejaVuSans-6c"/>
      <use x="395.654297" xlink:href="#DejaVuSans-20"/>
      <use x="427.441406" xlink:href="#DejaVuSans-61"/>
      <use x="488.720703" xlink:href="#DejaVuSans-63"/>
      <use x="543.701172" xlink:href="#DejaVuSans-74"/>
      <use x="582.910156" xlink:href="#DejaVuSans-69"/>
      <use x="610.693359" xlink:href="#DejaVuSans-6f"/>
      <use x="671.875" xlink:href="#DejaVuSans-6e"/>
      <use x="735.253906" xlink:href="#DejaVuSans-20"/>
      <use x="767.041016" xlink:href="#DejaVuSans-28"/>
      <use x="806.054688" xlink:href="#DejaVuSans-25"/>
      <use x="901.074219" xlink:href="#DejaVuSans-29"/>
     </g>
    </g>
   </g>
   <g id="line2d_12">
    <path clip-path="url(#p8d54fc5177)" d="M 73.832727 282.30336 
L 74.157707 269.529981 
L 75.782604 244.116287 
L 77.082523 231.74208 
L 77.407502 230.810687 
L 78.057461 227.484287 
L 78.382441 227.351233 
L 78.70742 226.41984 
L 79.0324 225.887614 
L 79.682359 224.557054 
L 80.007338 223.891774 
L 80.332318 222.028988 
L 80.982277 220.831482 
L 81.307256 221.230654 
L 81.632236 220.43232 
L 81.957215 220.299266 
L 82.607174 219.367878 
L 82.932154 219.234824 
L 83.257133 218.835652 
L 84.232072 218.43648 
L 84.882031 217.7712 
L 85.207011 217.238974 
L 85.53199 217.238974 
L 85.85697 217.10592 
L 86.181949 216.839812 
L 86.506929 216.972866 
L 86.831908 216.839812 
L 87.806847 216.041468 
L 88.131826 216.041468 
L 88.456806 215.908414 
L 89.106765 215.908414 
L 89.431744 215.77536 
L 89.756724 215.77536 
L 90.081704 215.509252 
L 90.406683 215.509252 
L 90.731663 215.376188 
L 91.381622 215.376188 
L 91.706601 214.977026 
L 92.031581 215.11008 
L 92.35656 215.11008 
L 92.68154 214.710908 
L 93.656478 214.710908 
L 93.981458 214.577854 
L 95.281376 214.577854 
L 95.606355 214.4448 
L 98.531171 214.4448 
L 98.856151 214.311746 
L 99.18113 214.4448 
L 99.50611 214.311746 
L 102.105946 214.311746 
L 102.430925 214.178682 
L 102.755905 214.311746 
L 103.730844 214.311746 
L 104.055823 214.178682 
L 105.030762 214.178682 
L 105.355741 214.311746 
L 106.0057 214.311746 
L 106.33068 214.178682 
L 106.655659 214.178682 
L 106.980639 214.045628 
L 109.255495 214.045628 
L 109.580475 213.912574 
L 109.905455 213.912574 
L 110.230434 213.77952 
L 115.105127 213.77952 
L 115.430106 213.646466 
L 120.629779 213.646466 
L 120.954758 213.513402 
L 124.204554 213.513402 
L 124.529533 213.380348 
L 125.504472 213.380348 
L 125.829451 213.247294 
L 138.828632 213.247294 
L 139.153612 213.11424 
L 146.303161 213.11424 
L 146.628141 212.981176 
L 169.376708 212.981176 
L 169.701687 212.848122 
L 170.676626 212.848122 
L 171.001605 212.981176 
L 210.324128 212.981176 
L 210.649107 212.848122 
L 254.196364 212.848122 
L 254.521343 212.715068 
L 301.968354 212.715068 
L 302.293333 212.582014 
L 398.487273 212.582014 
L 398.487273 212.582014 
" style="fill:none;stroke:#1f77b4;stroke-linecap:square;stroke-width:1.5;"/>
   </g>
   <g id="line2d_13">
    <path clip-path="url(#p8d54fc5177)" d="M 73.832727 282.702527 
L 74.157707 270.32832 
L 75.132645 252.897981 
L 75.457625 250.103807 
L 76.432563 238.660993 
L 77.732482 228.681793 
L 78.057461 226.41984 
L 78.382441 224.956226 
L 78.70742 224.157892 
L 79.0324 224.290946 
L 79.682359 221.895934 
L 80.007338 222.295106 
L 80.332318 221.496762 
L 80.657297 220.299266 
L 80.982277 220.43232 
L 81.307256 219.367878 
L 81.632236 219.367878 
L 82.282195 218.43648 
L 82.932154 217.372038 
L 83.582113 217.372038 
L 84.232072 216.44064 
L 84.557052 216.573694 
L 84.882031 216.307586 
L 85.207011 216.307586 
L 85.53199 215.77536 
L 85.85697 215.77536 
L 86.181949 215.642306 
L 86.831908 214.843962 
L 87.481867 215.243134 
L 87.806847 214.4448 
L 88.131826 214.577854 
L 88.456806 214.4448 
L 88.781785 213.912574 
L 89.106765 213.11424 
L 89.756724 212.44896 
L 90.081704 212.848122 
L 90.406683 212.44896 
L 90.731663 212.582014 
L 91.056642 211.916734 
L 91.381622 212.049788 
L 91.706601 212.981176 
L 92.031581 211.78368 
L 92.35656 212.582014 
L 92.68154 212.315906 
L 93.006519 211.517572 
L 93.656478 211.916734 
L 93.981458 211.384518 
L 94.306437 212.182852 
L 94.956396 211.251464 
L 95.281376 211.384518 
L 95.606355 212.049788 
L 96.256314 210.187012 
L 96.581294 210.719238 
L 96.906274 210.45312 
L 97.231253 211.1184 
L 97.556233 210.586184 
L 97.881212 210.45312 
L 98.206192 210.586184 
L 98.531171 210.320066 
L 98.856151 210.586184 
L 99.18113 209.521732 
L 99.50611 210.187012 
L 99.831089 208.723398 
L 100.156069 208.989506 
L 100.481048 208.856452 
L 100.806028 209.255614 
L 101.131007 208.590334 
L 101.455987 209.255614 
L 101.780966 208.723398 
L 102.105946 208.723398 
L 102.430925 209.388678 
L 102.755905 208.590334 
L 103.080885 208.989506 
L 103.405864 208.058108 
L 103.730844 208.058108 
L 104.055823 208.723398 
L 104.380803 207.525892 
L 105.030762 208.723398 
L 105.355741 207.12672 
L 105.680721 208.723398 
L 106.0057 207.792 
L 106.33068 208.191172 
L 106.655659 207.392828 
L 106.980639 207.925054 
L 107.630598 207.259774 
L 107.955577 206.727548 
L 108.280557 207.525892 
L 108.605536 206.993666 
L 109.255495 207.392828 
L 109.905455 206.860602 
L 110.230434 206.860602 
L 110.555414 206.195322 
L 110.880393 206.860602 
L 111.205373 206.594494 
L 111.530352 205.929214 
L 111.855332 206.328386 
L 112.180311 205.663106 
L 112.505291 206.328386 
L 112.83027 206.062268 
L 113.15525 206.594494 
L 113.480229 205.663106 
L 113.805209 205.530042 
L 114.130188 206.328386 
L 114.455168 206.062268 
L 114.780147 205.530042 
L 115.105127 206.195322 
L 115.430106 205.396988 
L 116.080066 205.13088 
L 116.405045 204.864762 
L 116.730025 205.13088 
L 117.055004 205.663106 
L 117.379984 205.263934 
L 117.704963 204.332536 
L 118.029943 204.199482 
L 118.354922 204.199482 
L 119.004881 204.731708 
L 119.329861 204.4656 
L 119.65484 204.4656 
L 119.97982 204.332536 
L 120.304799 204.4656 
L 120.954758 204.066428 
L 121.279738 203.933374 
L 121.604717 203.667266 
L 121.929697 204.332536 
L 122.254676 202.868932 
L 122.904636 203.534212 
L 123.229615 203.001986 
L 123.554595 203.667266 
L 123.879574 203.268094 
L 124.204554 203.13504 
L 124.529533 202.336706 
L 124.854513 203.001986 
L 125.179492 202.46976 
L 125.504472 203.13504 
L 125.829451 202.336706 
L 126.154431 201.937534 
L 126.47941 202.070598 
L 126.80439 201.80448 
L 127.129369 201.272254 
L 127.454349 201.272254 
L 127.779328 200.740038 
L 128.429287 202.070598 
L 128.754267 201.1392 
L 129.079247 201.1392 
L 129.404226 201.272254 
L 130.054185 200.606974 
L 130.379165 201.405318 
L 130.704144 201.80448 
L 131.029124 200.740038 
L 131.354103 200.207812 
L 131.679083 200.47392 
L 132.004062 199.80864 
L 132.654021 200.207812 
L 132.979001 200.074748 
L 133.30398 199.80864 
L 133.62896 199.80864 
L 133.953939 199.941694 
L 134.278919 199.14336 
L 134.603898 199.276414 
L 134.928878 199.14336 
L 135.253857 198.611134 
L 135.578837 198.744188 
L 135.903817 197.945854 
L 136.228796 198.078908 
L 136.553776 198.744188 
L 137.528714 198.744188 
L 137.853694 198.47808 
L 138.178673 198.611134 
L 138.503653 197.8128 
L 138.828632 197.945854 
L 139.153612 198.877252 
L 139.478591 196.881402 
L 139.803571 197.546682 
L 140.12855 197.280574 
L 140.45353 197.280574 
L 140.778509 197.14752 
L 141.103489 197.945854 
L 141.428468 197.413628 
L 141.753448 197.945854 
L 142.078428 196.349176 
L 143.053366 198.47808 
L 143.378346 197.679746 
L 143.703325 197.413628 
L 144.028305 197.413628 
L 144.353284 197.14752 
L 144.678264 196.615294 
L 145.003243 196.48224 
L 145.328223 196.615294 
L 145.653202 197.014466 
L 145.978182 195.81696 
L 146.303161 196.083068 
L 146.628141 196.748348 
L 146.95312 196.881402 
L 147.2781 196.48224 
L 147.603079 196.881402 
L 147.928059 196.48224 
L 148.253038 195.81696 
L 148.902998 196.216122 
L 149.227977 195.950014 
L 149.552957 197.014466 
L 149.877936 195.683906 
L 150.202916 196.083068 
L 150.527895 196.216122 
L 150.852875 195.81696 
L 151.177854 195.950014 
L 151.502834 194.752518 
L 151.827813 195.950014 
L 152.152793 195.018626 
L 152.477772 194.752518 
L 153.127731 195.15168 
L 153.452711 195.018626 
L 153.77769 194.220292 
L 154.10267 193.82112 
L 154.752629 194.220292 
L 155.077609 193.555012 
L 155.402588 194.087238 
L 155.727568 193.688066 
L 156.052547 194.353346 
L 156.377527 194.353346 
L 156.702506 194.087238 
L 157.027486 194.752518 
L 157.677445 193.688066 
L 158.002424 194.752518 
L 158.327404 194.4864 
L 158.652383 193.288894 
L 158.977363 193.15584 
L 159.302342 193.15584 
L 159.627322 193.288894 
L 159.952301 194.087238 
L 160.277281 193.15584 
L 160.92724 192.623614 
L 161.252219 192.623614 
L 161.577199 192.224452 
L 161.902179 192.224452 
L 162.227158 191.692226 
L 162.552138 192.091398 
L 162.877117 191.293054 
L 163.202097 192.091398 
L 163.527076 192.224452 
L 163.852056 191.426108 
L 164.177035 191.16 
L 164.502015 191.958334 
L 164.826994 191.82528 
L 165.151974 191.293054 
L 165.476953 191.559172 
L 165.801933 191.026946 
L 166.126912 191.026946 
L 166.451892 190.893892 
L 166.776871 190.49472 
L 167.101851 191.426108 
L 167.42683 190.49472 
L 167.75181 190.228602 
L 168.07679 190.760828 
L 168.401769 190.627774 
L 168.726749 190.760828 
L 169.051728 190.627774 
L 169.376708 190.361666 
L 169.701687 190.893892 
L 170.026667 189.962494 
L 170.351646 189.962494 
L 170.676626 191.16 
L 171.001605 189.82944 
L 171.326585 190.361666 
L 171.651564 190.627774 
L 171.976544 190.627774 
L 172.301523 191.026946 
L 172.626503 189.962494 
L 172.951482 190.49472 
L 173.276462 190.49472 
L 173.601441 189.962494 
L 174.2514 189.563322 
L 174.57638 190.49472 
L 174.90136 189.16416 
L 175.226339 188.764988 
L 175.551319 189.430268 
L 175.876298 189.563322 
L 176.526257 188.631934 
L 176.851237 188.764988 
L 177.176216 188.232762 
L 177.826175 188.631934 
L 178.476134 187.8336 
L 179.126093 188.631934 
L 179.451073 187.700536 
L 179.776052 188.365816 
L 180.101032 188.232762 
L 180.750991 187.567482 
L 181.075971 188.49888 
L 181.72593 187.567482 
L 182.050909 187.966654 
L 182.700868 187.567482 
L 183.025848 188.232762 
L 183.350827 187.8336 
L 183.675807 188.49888 
L 184.000786 187.434428 
L 184.325766 188.365816 
L 185.950663 187.035266 
L 186.275643 188.099708 
L 186.600622 187.301374 
L 186.925602 187.8336 
L 187.250581 187.8336 
L 187.900541 186.636094 
L 188.22552 186.636094 
L 188.875479 185.704706 
L 189.200459 186.769148 
L 189.850418 185.438598 
L 190.175397 185.704706 
L 190.500377 186.236932 
L 190.825356 185.704706 
L 191.150336 185.571652 
L 191.475315 185.83776 
L 192.125274 185.305534 
L 192.450254 184.773318 
L 192.775233 184.906372 
L 193.100213 185.438598 
L 193.425192 184.640254 
L 193.750172 185.17248 
L 195.05009 184.241092 
L 195.37507 185.704706 
L 195.700049 184.640254 
L 196.025029 185.83776 
L 196.350008 184.773318 
L 196.674988 184.374146 
L 196.999967 184.374146 
L 197.324947 184.5072 
L 197.649926 184.773318 
L 198.299885 184.108038 
L 198.624865 183.575812 
L 198.949844 184.108038 
L 199.924783 182.644414 
L 200.574742 182.644414 
L 200.899722 183.442748 
L 201.224701 183.708866 
L 201.549681 182.777468 
L 201.87466 183.17664 
L 202.19964 183.043586 
L 202.524619 182.644414 
L 202.849599 183.708866 
L 203.499558 182.378306 
L 203.824537 182.245252 
L 204.149517 183.309694 
L 204.474496 181.84608 
L 204.799476 182.245252 
L 205.124455 182.245252 
L 205.449435 182.378306 
L 205.774414 182.644414 
L 206.099394 182.245252 
L 206.424373 183.309694 
L 206.749353 181.313854 
L 207.074333 181.84608 
L 207.399312 181.446908 
L 207.724292 182.378306 
L 208.049271 182.112188 
L 208.374251 182.112188 
L 208.69923 183.974974 
L 209.02421 181.579962 
L 209.349189 181.579962 
L 209.674169 181.979134 
L 209.999148 181.313854 
L 210.324128 182.245252 
L 210.974087 181.1808 
L 211.299066 182.112188 
L 211.624046 180.781628 
L 211.949025 181.313854 
L 212.274005 180.648574 
L 212.598984 182.245252 
L 212.923964 180.51552 
L 213.248943 181.313854 
L 213.573923 180.51552 
L 213.898903 180.249402 
L 214.223882 180.781628 
L 214.548862 179.983294 
L 214.873841 179.85024 
L 215.198821 180.781628 
L 215.5238 180.382466 
L 215.84878 179.584122 
L 216.173759 180.781628 
L 216.498739 180.382466 
L 216.823718 180.648574 
L 217.148698 180.116348 
L 217.473677 180.116348 
L 217.798657 180.382466 
L 218.123636 178.918852 
L 218.448616 179.451068 
L 218.773595 179.318014 
L 219.098575 179.451068 
L 219.423554 179.717176 
L 219.748534 179.18496 
L 220.398493 179.451068 
L 220.723473 179.451068 
L 221.048452 178.652734 
L 221.373432 179.051906 
L 221.698411 178.51968 
L 222.023391 178.785788 
L 222.34837 178.51968 
L 222.67335 179.051906 
L 222.998329 177.8544 
L 223.323309 178.51968 
L 223.648288 177.987464 
L 223.973268 176.923012 
L 224.298247 177.588292 
L 224.623227 177.322184 
L 224.948206 177.721346 
L 225.273186 177.322184 
L 225.598165 176.390786 
L 225.923145 177.18912 
L 226.248124 177.588292 
L 226.573104 177.18912 
L 226.898084 177.8544 
L 227.223063 177.721346 
L 227.548043 178.120518 
L 227.873022 177.056066 
L 228.198002 177.322184 
L 228.522981 176.390786 
L 228.847961 176.390786 
L 229.17294 176.52384 
L 229.49792 176.52384 
L 229.822899 176.656894 
L 230.147879 176.390786 
L 230.472858 176.390786 
L 230.797838 175.85856 
L 231.122817 175.725506 
L 231.447797 176.390786 
L 231.772776 176.124678 
L 232.097756 176.52384 
L 232.422735 175.991614 
L 232.747715 176.257732 
L 233.072695 175.991614 
L 233.397674 176.257732 
L 233.722654 175.85856 
L 234.047633 175.991614 
L 234.372613 175.725506 
L 234.697592 176.390786 
L 235.022572 175.725506 
L 235.347551 175.326334 
L 235.672531 175.85856 
L 235.99751 175.592452 
L 236.32249 175.85856 
L 236.647469 176.390786 
L 236.972449 175.459398 
L 237.297428 175.592452 
L 237.622408 175.19328 
L 238.597346 175.19328 
L 238.922326 175.326334 
L 239.247305 174.528 
L 239.572285 175.060226 
L 239.897265 174.528 
L 240.222244 173.729656 
L 240.547224 175.060226 
L 240.872203 174.128828 
L 241.197183 174.794108 
L 241.522162 175.19328 
L 241.847142 175.060226 
L 242.172121 175.060226 
L 242.497101 174.128828 
L 242.82208 175.19328 
L 243.14706 175.19328 
L 243.472039 174.927172 
L 243.797019 174.394936 
L 244.121998 174.528 
L 244.446978 174.394936 
L 244.771957 173.596612 
L 245.096937 173.596612 
L 245.421916 174.261892 
L 245.746896 174.261892 
L 246.071876 173.995784 
L 246.396855 174.128828 
L 247.046814 173.19744 
L 247.371794 173.729656 
L 247.696773 173.19744 
L 248.021753 173.463548 
L 248.346732 173.19744 
L 248.671712 173.86272 
L 248.996691 173.064376 
L 249.321671 173.064376 
L 249.64665 173.330504 
L 249.97163 171.999924 
L 250.296609 173.064376 
L 250.621589 172.53216 
L 250.946568 172.798268 
L 251.271548 171.999924 
L 251.596527 172.665204 
L 251.921507 172.266052 
L 252.246486 172.399096 
L 252.571466 172.931332 
L 252.896446 172.798268 
L 253.221425 170.935492 
L 253.546405 170.669374 
L 253.871384 171.600772 
L 254.196364 171.999924 
L 254.521343 170.669374 
L 254.846323 171.600772 
L 255.171302 171.068536 
L 255.496282 171.334654 
L 255.821261 172.132988 
L 256.146241 171.334654 
L 256.47122 171.334654 
L 256.7962 171.733816 
L 257.121179 171.2016 
L 257.446159 171.600772 
L 257.771138 170.935492 
L 258.096118 171.2016 
L 258.421097 172.132988 
L 258.746077 172.132988 
L 259.071057 171.86688 
L 259.396036 170.669374 
L 259.721016 171.334654 
L 260.045995 170.53632 
L 260.370975 170.802428 
L 260.695954 170.669374 
L 261.020934 171.334654 
L 261.345913 170.802428 
L 261.670893 171.068536 
L 261.995872 171.068536 
L 262.320852 171.334654 
L 262.645831 170.935492 
L 262.970811 170.004094 
L 263.29579 170.669374 
L 263.62077 170.669374 
L 263.945749 170.53632 
L 264.270729 170.004094 
L 264.595708 170.004094 
L 264.920688 169.471878 
L 265.245667 169.471878 
L 265.570647 170.270212 
L 265.895627 170.004094 
L 266.220606 169.338814 
L 266.545586 169.604932 
L 266.870565 169.471878 
L 267.195545 170.004094 
L 267.520524 169.87104 
L 267.845504 169.471878 
L 268.170483 169.338814 
L 268.495463 169.604932 
L 268.820442 168.939642 
L 269.145422 168.673534 
L 269.795381 170.270212 
L 270.12036 168.939642 
L 270.44534 168.54049 
L 270.770319 169.072706 
L 271.095299 168.806598 
L 271.420278 168.274362 
L 271.745258 168.141318 
L 272.070238 168.407426 
L 272.395217 168.008254 
L 272.720197 168.008254 
L 273.045176 168.407426 
L 273.370156 168.407426 
L 273.695135 167.742146 
L 274.020115 168.806598 
L 274.345094 167.342974 
L 274.670074 167.742146 
L 274.995053 167.609082 
L 275.320033 167.87521 
L 275.645012 167.20993 
L 275.969992 167.609082 
L 276.294971 166.677694 
L 276.619951 168.008254 
L 276.94493 168.407426 
L 277.26991 167.20993 
L 277.594889 168.008254 
L 277.919869 166.54465 
L 278.244848 166.677694 
L 278.569828 167.476038 
L 278.894808 167.476038 
L 279.219787 167.609082 
L 279.544767 167.609082 
L 280.194726 167.87521 
L 280.519705 166.411586 
L 280.844685 166.411586 
L 281.169664 166.145478 
L 281.494644 166.278522 
L 281.819623 166.54465 
L 282.144603 166.145478 
L 282.469582 166.810758 
L 282.794562 166.411586 
L 283.119541 166.810758 
L 283.444521 166.677694 
L 283.7695 166.810758 
L 284.09448 167.20993 
L 284.419459 165.746306 
L 284.744439 166.012414 
L 285.069419 165.613242 
L 285.394398 165.746306 
L 285.719378 166.677694 
L 286.369337 165.613242 
L 286.694316 165.613242 
L 287.019296 165.746306 
L 287.344275 166.012414 
L 287.669255 165.480198 
L 287.994234 165.746306 
L 288.319214 165.347134 
L 288.644193 167.076866 
L 288.969173 165.746306 
L 289.294152 166.012414 
L 289.619132 165.746306 
L 289.944111 165.87935 
L 290.269091 166.411586 
L 290.91905 165.21407 
L 291.244029 166.145478 
L 291.569009 165.746306 
L 291.893989 165.746306 
L 292.218968 164.54879 
L 292.543948 166.278522 
L 292.868927 165.21407 
L 293.193907 166.54465 
L 293.843866 165.480198 
L 294.168845 165.87935 
L 294.493825 164.814918 
L 294.818804 165.21407 
L 295.143784 164.947962 
L 295.468763 165.081026 
L 295.793743 165.347134 
L 296.443702 164.415746 
L 296.768681 164.814918 
L 297.093661 164.681854 
L 297.41864 164.149638 
L 297.74362 164.282682 
L 298.393579 163.617402 
L 298.718559 165.347134 
L 299.043538 164.681854 
L 299.368518 164.814918 
L 299.693497 164.282682 
L 300.018477 165.081026 
L 300.343456 164.681854 
L 300.668436 165.480198 
L 300.993415 165.21407 
L 301.318395 164.149638 
L 301.643374 165.347134 
L 301.968354 164.415746 
L 302.293333 164.54879 
L 302.943292 163.351294 
L 303.268272 164.54879 
L 303.593251 164.415746 
L 303.918231 163.617402 
L 304.24321 163.484358 
L 304.56819 163.484358 
L 304.89317 163.88351 
L 305.868108 162.55296 
L 306.193088 163.617402 
L 307.168026 162.686014 
L 307.493006 162.952122 
L 307.817985 162.819068 
L 308.142965 163.351294 
L 308.467944 162.686014 
L 308.792924 162.819068 
L 309.117903 163.351294 
L 309.442883 163.21824 
L 309.767862 162.819068 
L 310.092842 163.085186 
L 310.417821 163.88351 
L 310.742801 163.351294 
L 311.067781 163.21824 
L 311.39276 162.020734 
L 311.71774 161.488508 
L 312.042719 162.819068 
L 312.367699 162.286852 
L 312.692678 162.686014 
L 313.017658 163.617402 
L 313.342637 163.21824 
L 313.667617 162.153788 
L 313.992596 162.55296 
L 314.317576 161.621572 
L 314.642555 162.020734 
L 314.967535 162.153788 
L 315.292514 162.419906 
L 315.942473 161.621572 
L 316.267453 162.686014 
L 316.592432 162.419906 
L 316.917412 162.55296 
L 317.242391 161.88768 
L 317.567371 161.754626 
L 317.892351 161.88768 
L 318.21733 163.085186 
L 318.54231 162.020734 
L 319.192269 162.819068 
L 319.517248 162.153788 
L 319.842228 162.286852 
L 320.167207 162.153788 
L 320.492187 161.88768 
L 320.817166 161.355464 
L 321.142146 161.88768 
L 321.467125 161.621572 
L 321.792105 161.621572 
L 322.117084 162.020734 
L 322.442064 161.88768 
L 323.092023 160.956292 
L 323.417002 161.355464 
L 323.741982 161.355464 
L 324.066962 160.55712 
L 324.391941 161.488508 
L 324.716921 161.88768 
L 325.0419 161.2224 
L 325.691859 162.153788 
L 326.016839 161.089346 
L 326.341818 160.424076 
L 326.991777 160.823228 
L 327.316757 160.55712 
L 327.641736 160.956292 
L 327.966716 160.424076 
L 328.616675 160.690184 
L 328.941654 160.55712 
L 329.266634 160.690184 
L 329.591613 160.291012 
L 329.916593 160.424076 
L 330.566552 159.89184 
L 330.891532 160.291012 
L 331.216511 159.359624 
L 331.541491 160.024904 
L 331.86647 159.89184 
L 332.19145 159.22656 
L 332.516429 159.492668 
L 332.841409 160.424076 
L 333.166388 158.827388 
L 333.491368 158.960452 
L 334.141327 158.56128 
L 334.466306 158.960452 
L 334.791286 158.827388 
L 335.116265 160.024904 
L 335.441245 158.694344 
L 335.766224 159.492668 
L 336.091204 158.694344 
L 336.416183 158.295172 
L 336.741163 159.359624 
L 337.066143 158.694344 
L 337.391122 158.827388 
L 338.041081 158.295172 
L 338.69104 158.295172 
L 339.01602 158.694344 
L 339.340999 158.162108 
L 339.665979 158.162108 
L 339.990958 158.029064 
L 340.640917 157.629892 
L 340.965897 158.029064 
L 341.615856 156.432376 
L 341.940835 156.56544 
L 342.590794 158.295172 
L 342.915774 157.363784 
L 343.240753 157.629892 
L 343.565733 156.831548 
L 343.890713 157.23072 
L 344.215692 156.166268 
L 344.540672 156.831548 
L 344.865651 156.56544 
L 345.190631 157.762936 
L 345.51561 156.831548 
L 345.84059 156.56544 
L 346.490549 156.56544 
L 346.815528 157.496828 
L 347.140508 156.698504 
L 347.465487 157.23072 
L 347.790467 157.496828 
L 348.115446 156.698504 
L 349.090385 157.363784 
L 349.415364 156.698504 
L 349.740344 157.629892 
L 350.065324 156.432376 
L 350.390303 156.56544 
L 350.715283 156.033204 
L 351.040262 156.698504 
L 351.365242 156.831548 
L 352.015201 156.033204 
L 352.34018 156.56544 
L 352.990139 156.299332 
L 353.315119 156.964612 
L 353.640098 156.166268 
L 353.965078 156.432376 
L 354.290057 156.033204 
L 354.615037 156.432376 
L 354.940016 157.496828 
L 355.264996 156.432376 
L 356.239934 155.367924 
L 356.564914 155.23488 
L 356.889894 155.367924 
L 357.214873 155.101816 
L 357.539853 155.23488 
L 357.864832 155.90016 
L 358.189812 155.23488 
L 358.839771 156.166268 
L 359.16475 156.166268 
L 359.48973 155.500988 
L 359.814709 155.634052 
L 360.139689 155.634052 
L 360.464668 154.303492 
L 360.789648 155.367924 
L 361.439607 154.702654 
L 361.764586 155.101816 
L 362.089566 154.5696 
L 362.414545 155.500988 
L 362.739525 154.170428 
L 363.064505 153.90432 
L 363.389484 154.170428 
L 363.714464 152.972932 
L 364.039443 154.436536 
L 364.364423 153.90432 
L 365.014382 154.303492 
L 365.339361 153.771266 
L 365.664341 153.505148 
L 365.98932 152.839878 
L 366.3143 153.505148 
L 366.964259 153.23904 
L 367.289238 153.771266 
L 367.614218 153.771266 
L 367.939197 152.839878 
L 368.264177 153.372094 
L 368.914136 152.972932 
L 369.239115 152.307642 
L 369.564095 152.706814 
L 369.889075 153.372094 
L 370.539034 152.972932 
L 370.864013 153.23904 
L 371.188993 153.105986 
L 371.513972 153.105986 
L 371.838952 153.505148 
L 372.163931 152.972932 
L 372.81389 153.505148 
L 373.13887 152.839878 
L 373.463849 153.105986 
L 373.788829 152.57376 
L 374.113808 152.706814 
L 374.438788 152.972932 
L 374.763767 152.57376 
L 375.088747 152.57376 
L 375.413726 152.440706 
L 376.063686 153.105986 
L 376.388665 152.972932 
L 376.713645 152.972932 
L 377.038624 153.505148 
L 377.363604 152.972932 
L 377.688583 152.839878 
L 378.338542 152.440706 
L 378.663522 152.307642 
L 378.988501 151.24321 
L 379.63846 152.57376 
L 379.96344 152.706814 
L 380.288419 152.041534 
L 380.613399 152.440706 
L 380.938378 151.509318 
L 381.263358 153.105986 
L 381.588337 151.775426 
L 381.913317 151.24321 
L 382.563276 151.509318 
L 382.888256 151.24321 
L 383.213235 151.376254 
L 383.538215 151.642362 
L 383.863194 151.24321 
L 384.513153 150.977082 
L 384.838133 151.24321 
L 385.163112 150.444866 
L 385.488092 151.376254 
L 386.138051 150.844038 
L 386.46303 151.642362 
L 386.78801 150.178758 
L 387.112989 151.110146 
L 388.087928 149.91265 
L 388.412907 149.91265 
L 388.737887 150.977082 
L 389.062867 150.444866 
L 389.387846 150.178758 
L 389.712826 149.380414 
L 390.037805 149.513478 
L 390.362785 150.444866 
L 390.687764 150.710974 
L 391.012744 150.710974 
L 391.337723 150.444866 
L 391.662703 149.646522 
L 391.987682 150.444866 
L 392.312662 149.513478 
L 392.637641 150.178758 
L 392.962621 150.311802 
L 393.2876 150.311802 
L 393.61258 150.178758 
L 393.937559 149.380414 
L 394.262539 149.380414 
L 394.587518 150.311802 
L 395.237477 149.513478 
L 395.562457 150.045694 
L 395.887437 148.715134 
L 396.212416 149.513478 
L 396.537396 149.114306 
L 396.862375 149.24735 
L 397.512334 148.58207 
L 397.837314 149.91265 
L 398.162293 148.981242 
L 398.487273 150.444866 
L 398.487273 150.444866 
" style="fill:none;stroke:#ff7f0e;stroke-linecap:square;stroke-width:1.5;"/>
   </g>
   <g id="line2d_14">
    <path clip-path="url(#p8d54fc5177)" d="M 73.832727 282.170303 
L 74.157707 269.263873 
L 75.782604 241.455167 
L 76.432563 233.604866 
L 76.757543 229.879299 
L 77.082523 227.883459 
L 77.407502 223.492602 
L 77.732482 221.76288 
L 78.057461 218.702598 
L 78.382441 218.43648 
L 78.70742 216.573694 
L 79.0324 216.573694 
L 79.357379 215.243134 
L 79.682359 212.981176 
L 80.007338 213.912574 
L 80.332318 211.650626 
L 80.657297 212.315906 
L 80.982277 213.247294 
L 81.307256 210.320066 
L 81.632236 210.985346 
L 81.957215 207.525892 
L 82.282195 207.392828 
L 82.607174 207.12672 
L 83.257133 203.667266 
L 83.582113 202.336706 
L 83.907093 201.538372 
L 84.232072 199.276414 
L 84.557052 199.542532 
L 84.882031 197.945854 
L 85.207011 197.679746 
L 85.53199 195.950014 
L 85.85697 197.945854 
L 86.506929 194.087238 
L 86.831908 193.421958 
L 87.481867 193.421958 
L 87.806847 192.091398 
L 88.131826 191.293054 
L 88.456806 193.82112 
L 89.106765 188.365816 
L 89.431744 190.49472 
L 89.756724 187.301374 
L 90.081704 185.970824 
L 90.731663 188.099708 
L 91.056642 181.979134 
L 91.381622 184.640254 
L 91.706601 183.575812 
L 92.031581 179.717176 
L 92.35656 180.781628 
L 92.68154 178.785788 
L 93.006519 181.84608 
L 93.656478 177.322184 
L 93.981458 176.257732 
L 94.956396 174.394936 
L 95.281376 175.592452 
L 95.606355 173.064376 
L 95.931335 175.19328 
L 96.256314 174.394936 
L 96.581294 174.261892 
L 96.906274 174.394936 
L 97.231253 172.665204 
L 97.881212 171.334654 
L 98.206192 170.137148 
L 98.531171 166.810758 
L 99.18113 169.072706 
L 99.50611 166.145478 
L 99.831089 167.476038 
L 100.156069 168.008254 
L 100.481048 166.012414 
L 101.131007 166.677694 
L 101.455987 166.145478 
L 101.780966 166.012414 
L 102.105946 166.54465 
L 102.430925 163.617402 
L 102.755905 164.149638 
L 103.080885 162.952122 
L 103.405864 165.87935 
L 103.730844 161.88768 
L 104.055823 163.617402 
L 104.380803 161.488508 
L 105.030762 161.754626 
L 105.355741 162.952122 
L 105.680721 159.89184 
L 106.0057 159.22656 
L 106.33068 160.024904 
L 106.655659 159.359624 
L 106.980639 160.424076 
L 107.305618 159.625732 
L 107.630598 158.295172 
L 107.955577 158.162108 
L 108.280557 156.033204 
L 108.605536 158.960452 
L 108.930516 154.702654 
L 109.255495 157.762936 
L 109.580475 155.767096 
L 109.905455 155.23488 
L 110.230434 155.500988 
L 110.555414 154.303492 
L 110.880393 154.5696 
L 111.205373 154.5696 
L 111.530352 152.972932 
L 111.855332 153.372094 
L 112.180311 152.440706 
L 112.505291 154.5696 
L 112.83027 151.376254 
L 113.15525 151.509318 
L 113.480229 153.505148 
L 113.805209 153.105986 
L 114.130188 151.509318 
L 114.780147 153.372094 
L 115.105127 151.24321 
L 115.430106 147.650682 
L 115.755086 148.58207 
L 116.080066 147.91679 
L 116.405045 146.985402 
L 116.730025 148.981242 
L 117.055004 144.723464 
L 117.379984 146.852358 
L 117.704963 147.25151 
L 118.029943 148.848198 
L 118.354922 148.715134 
L 118.679902 146.719294 
L 119.004881 148.58207 
L 119.65484 145.388734 
L 119.97982 145.787906 
L 120.304799 146.453186 
L 120.629779 144.723464 
L 120.954758 143.92512 
L 121.279738 144.457346 
L 121.604717 146.453186 
L 121.929697 146.719294 
L 122.254676 144.324292 
L 122.579656 142.993732 
L 122.904636 142.195388 
L 123.229615 139.800376 
L 123.554595 143.25984 
L 123.879574 144.856508 
L 124.204554 144.723464 
L 124.529533 142.328452 
L 124.854513 141.530108 
L 125.179492 141.397064 
L 125.504472 140.59872 
L 125.829451 139.135096 
L 126.154431 139.002052 
L 126.47941 142.195388 
L 126.80439 137.804536 
L 127.129369 141.92928 
L 127.454349 141.397064 
L 127.779328 144.191228 
L 128.104308 137.804536 
L 128.429287 136.60704 
L 128.754267 138.868988 
L 129.079247 138.203708 
L 129.404226 138.60288 
L 129.729206 138.60288 
L 130.054185 139.667332 
L 130.379165 137.405374 
L 130.704144 136.074804 
L 131.029124 138.070654 
L 131.354103 138.469816 
L 131.679083 137.9376 
L 132.004062 136.340932 
L 132.329042 136.873148 
L 132.654021 134.877308 
L 132.979001 136.207868 
L 133.30398 135.808696 
L 133.62896 133.812856 
L 133.953939 136.873148 
L 134.278919 136.074804 
L 134.603898 134.345072 
L 134.928878 136.207868 
L 135.253857 134.877308 
L 135.578837 132.61536 
L 135.903817 132.482296 
L 136.228796 133.812856 
L 136.553776 133.94592 
L 136.878755 133.94592 
L 137.203735 136.207868 
L 137.528714 136.074804 
L 137.853694 136.074804 
L 138.178673 132.61536 
L 138.503653 132.748424 
L 138.828632 133.812856 
L 139.153612 131.683972 
L 139.478591 131.683972 
L 139.803571 137.9376 
L 140.12855 135.010352 
L 140.45353 133.546748 
L 141.103489 136.207868 
L 141.753448 130.885648 
L 142.078428 131.417864 
L 142.403407 131.2848 
L 142.728387 128.62368 
L 143.053366 131.550928 
L 143.378346 131.683972 
L 143.703325 130.220368 
L 144.028305 127.426184 
L 144.353284 131.417864 
L 144.678264 127.29312 
L 145.003243 132.083144 
L 145.328223 130.353412 
L 145.653202 130.486476 
L 145.978182 130.752584 
L 146.303161 126.095624 
L 146.628141 126.228668 
L 146.95312 129.422024 
L 147.2781 125.96256 
L 147.603079 125.96256 
L 147.928059 129.422024 
L 148.253038 129.422024 
L 148.578018 130.353412 
L 148.902998 127.426184 
L 149.227977 129.022852 
L 149.552957 126.228668 
L 149.877936 129.28896 
L 150.202916 126.361732 
L 150.527895 125.164216 
L 150.852875 129.155916 
L 151.177854 128.490636 
L 151.502834 126.893948 
L 151.827813 127.9584 
L 152.152793 127.29312 
L 152.477772 129.422024 
L 152.802752 128.62368 
L 153.127731 124.232828 
L 153.452711 124.765064 
L 153.77769 125.031172 
L 154.10267 124.099784 
L 154.427649 123.700612 
L 154.752629 126.095624 
L 155.077609 123.168376 
L 155.727568 128.490636 
L 156.052547 125.430344 
L 156.377527 123.567548 
L 156.702506 125.696452 
L 157.027486 122.769204 
L 157.352465 124.765064 
L 157.677445 125.29728 
L 158.002424 123.833656 
L 158.327404 125.430344 
L 158.652383 123.434504 
L 158.977363 123.700612 
L 159.627322 127.027012 
L 159.952301 127.692292 
L 160.277281 124.232828 
L 160.60226 123.168376 
L 160.92724 123.035332 
L 161.252219 123.96672 
L 161.577199 123.96672 
L 161.902179 122.769204 
L 162.227158 124.232828 
L 162.552138 123.035332 
L 162.877117 124.365892 
L 163.202097 123.434504 
L 163.527076 120.241148 
L 163.852056 120.241148 
L 164.177035 118.511416 
L 164.502015 123.434504 
L 164.826994 122.503096 
L 165.151974 122.103924 
L 165.476953 120.507256 
L 165.801933 123.434504 
L 166.126912 121.704772 
L 166.451892 123.434504 
L 166.776871 120.773364 
L 167.101851 122.63616 
L 167.42683 119.176696 
L 167.75181 121.704772 
L 168.07679 119.841976 
L 168.401769 120.507256 
L 168.726749 120.241148 
L 169.051728 121.571708 
L 169.376708 119.30976 
L 169.701687 117.9792 
L 170.026667 120.507256 
L 170.351646 120.507256 
L 170.676626 120.773364 
L 171.001605 120.64032 
L 171.651564 116.64864 
L 171.976544 117.31392 
L 172.301523 118.511416 
L 172.626503 118.777524 
L 172.951482 116.781704 
L 173.276462 119.97504 
L 173.601441 118.112244 
L 173.926421 117.846136 
L 174.2514 119.575868 
L 174.57638 117.446964 
L 174.90136 116.914748 
L 175.551319 119.575868 
L 175.876298 117.446964 
L 176.526257 117.446964 
L 176.851237 118.777524 
L 177.501196 116.116424 
L 177.826175 119.97504 
L 178.151155 115.451144 
L 178.476134 119.708932 
L 178.801114 117.713072 
L 179.126093 117.047812 
L 179.451073 117.713072 
L 180.101032 117.047812 
L 180.426011 120.108084 
L 180.750991 118.64448 
L 181.075971 119.176696 
L 181.72593 115.850296 
L 182.050909 119.176696 
L 182.375889 115.98336 
L 182.700868 116.116424 
L 183.025848 116.64864 
L 183.350827 115.185036 
L 183.675807 117.580028 
L 184.000786 115.31808 
L 184.325766 115.850296 
L 184.650745 117.047812 
L 184.975725 117.713072 
L 185.300704 115.717252 
L 185.625684 115.584188 
L 185.950663 117.580028 
L 186.275643 114.386692 
L 186.600622 114.785864 
L 186.925602 116.382532 
L 187.250581 113.854476 
L 187.575561 115.717252 
L 188.22552 113.98752 
L 188.5505 115.451144 
L 188.875479 116.249468 
L 189.200459 116.64864 
L 189.525438 113.588368 
L 189.850418 112.523916 
L 190.175397 113.056132 
L 190.500377 117.180856 
L 190.825356 114.785864 
L 191.150336 113.721412 
L 191.475315 115.051972 
L 191.800295 117.9792 
L 192.125274 113.721412 
L 192.450254 114.253648 
L 192.775233 115.451144 
L 193.100213 113.98752 
L 193.425192 114.6528 
L 193.750172 115.051972 
L 194.075152 113.455304 
L 194.400131 113.854476 
L 194.725111 114.918928 
L 195.05009 111.858636 
L 195.37507 111.3264 
L 195.700049 113.721412 
L 196.025029 114.918928 
L 196.350008 115.31808 
L 196.674988 114.253648 
L 196.999967 117.180856 
L 197.324947 113.455304 
L 197.649926 113.189196 
L 197.974906 110.927228 
L 198.299885 113.455304 
L 198.624865 115.051972 
L 198.949844 112.390852 
L 199.274824 112.124744 
L 199.599803 115.850296 
L 200.249762 114.6528 
L 200.574742 114.253648 
L 200.899722 111.3264 
L 201.224701 113.189196 
L 201.549681 109.862796 
L 201.87466 112.523916 
L 202.19964 113.32224 
L 202.849599 111.193356 
L 203.499558 113.98752 
L 203.824537 112.257788 
L 204.149517 109.33056 
L 204.474496 112.124744 
L 204.799476 113.189196 
L 205.124455 111.193356 
L 205.449435 111.459464 
L 205.774414 109.33056 
L 206.099394 111.3264 
L 206.424373 110.528076 
L 206.749353 110.261948 
L 207.074333 113.32224 
L 207.399312 113.056132 
L 207.724292 112.390852 
L 208.049271 109.99584 
L 208.374251 110.66112 
L 208.69923 110.128904 
L 209.02421 110.528076 
L 209.674169 109.99584 
L 209.999148 108.66528 
L 210.324128 111.3264 
L 210.649107 111.592508 
L 210.974087 110.66112 
L 211.624046 109.729732 
L 211.949025 108.66528 
L 212.274005 109.064452 
L 212.598984 109.99584 
L 212.923964 109.99584 
L 213.248943 107.866936 
L 213.573923 112.390852 
L 213.898903 110.927228 
L 214.223882 110.395012 
L 214.548862 110.927228 
L 214.873841 109.463624 
L 215.198821 112.923068 
L 215.5238 110.261948 
L 215.84878 109.463624 
L 216.173759 113.455304 
L 216.498739 107.733892 
L 216.823718 109.99584 
L 217.148698 108.798344 
L 217.473677 110.395012 
L 217.798657 107.467784 
L 218.123636 110.927228 
L 218.448616 106.137204 
L 219.098575 109.197496 
L 219.423554 108.399172 
L 219.748534 108.532216 
L 220.073514 107.068612 
L 220.398493 111.459464 
L 220.723473 107.33472 
L 221.048452 109.33056 
L 221.373432 106.66944 
L 221.698411 109.729732 
L 222.34837 106.802504 
L 222.67335 107.600828 
L 222.998329 109.862796 
L 223.648288 105.471924 
L 223.973268 108.798344 
L 224.298247 108.798344 
L 224.623227 105.871096 
L 224.948206 106.270268 
L 225.273186 108.266108 
L 225.923145 104.274428 
L 226.248124 104.407492 
L 226.573104 111.193356 
L 226.898084 108 
L 227.223063 107.600828 
L 227.548043 106.802504 
L 227.873022 111.193356 
L 228.522981 105.205816 
L 229.17294 112.257788 
L 229.49792 107.600828 
L 229.822899 110.261948 
L 230.147879 103.875256 
L 230.797838 107.068612 
L 231.122817 107.068612 
L 231.447797 106.802504 
L 231.772776 105.871096 
L 232.097756 108 
L 232.422735 109.064452 
L 232.747715 107.467784 
L 233.072695 108.532216 
L 233.397674 105.072772 
L 233.722654 109.197496 
L 234.047633 106.66944 
L 234.372613 108.66528 
L 234.697592 106.935548 
L 235.347551 105.738052 
L 235.672531 107.866936 
L 235.99751 105.33888 
L 236.32249 106.536376 
L 236.647469 110.395012 
L 236.972449 106.137204 
L 237.297428 107.201656 
L 237.947387 104.141364 
L 238.597346 109.197496 
L 238.922326 105.471924 
L 239.247305 105.072772 
L 239.572285 108.931388 
L 239.897265 106.802504 
L 240.547224 105.871096 
L 241.197183 107.866936 
L 241.522162 103.076932 
L 241.847142 104.407492 
L 242.172121 106.935548 
L 242.497101 104.141364 
L 242.82208 106.536376 
L 243.14706 104.141364 
L 243.472039 107.068612 
L 243.797019 108.798344 
L 244.121998 107.866936 
L 244.446978 105.205816 
L 244.771957 107.068612 
L 245.096937 103.742212 
L 245.746896 106.935548 
L 246.071876 104.939708 
L 246.396855 105.33888 
L 246.721835 106.137204 
L 247.046814 104.407492 
L 247.371794 105.471924 
L 247.696773 105.604988 
L 248.021753 105.072772 
L 248.346732 103.209976 
L 248.671712 105.205816 
L 248.996691 104.939708 
L 249.321671 105.33888 
L 249.64665 104.407492 
L 249.97163 102.278588 
L 250.296609 106.403332 
L 250.621589 102.278588 
L 250.946568 103.609148 
L 251.271548 106.00416 
L 251.596527 106.536376 
L 251.921507 104.274428 
L 252.246486 107.733892 
L 252.571466 104.407492 
L 252.896446 105.738052 
L 253.221425 104.806644 
L 253.546405 107.201656 
L 253.871384 107.201656 
L 254.196364 105.871096 
L 254.521343 105.738052 
L 254.846323 105.33888 
L 255.171302 106.66944 
L 255.496282 107.467784 
L 255.821261 106.270268 
L 256.146241 104.274428 
L 256.47122 107.467784 
L 256.7962 105.871096 
L 257.121179 106.00416 
L 257.446159 104.6736 
L 257.771138 106.137204 
L 258.096118 106.270268 
L 258.421097 106.137204 
L 258.746077 103.076932 
L 259.071057 104.939708 
L 259.721016 100.948028 
L 260.045995 105.738052 
L 260.370975 102.943868 
L 260.695954 105.205816 
L 261.020934 105.604988 
L 261.345913 105.471924 
L 261.670893 99.883576 
L 261.995872 100.149704 
L 262.320852 104.274428 
L 262.645831 104.407492 
L 262.970811 103.742212 
L 263.29579 103.875256 
L 263.62077 104.141364 
L 263.945749 102.145524 
L 264.270729 104.141364 
L 264.595708 103.609148 
L 264.920688 103.742212 
L 265.245667 102.943868 
L 265.570647 102.943868 
L 265.895627 102.278588 
L 266.220606 103.476084 
L 266.545586 103.209976 
L 266.870565 103.209976 
L 267.520524 102.01248 
L 267.845504 102.01248 
L 268.170483 104.407492 
L 268.495463 104.00832 
L 268.820442 104.274428 
L 269.145422 102.01248 
L 269.470401 102.01248 
L 269.795381 103.34304 
L 270.12036 101.746352 
L 270.44534 102.67776 
L 270.770319 102.810804 
L 271.095299 104.407492 
L 271.420278 103.076932 
L 271.745258 102.810804 
L 272.070238 101.081072 
L 272.395217 101.3472 
L 272.720197 104.6736 
L 273.045176 104.6736 
L 273.370156 101.746352 
L 273.695135 101.3472 
L 274.020115 102.145524 
L 274.345094 100.415812 
L 274.670074 101.613308 
L 274.995053 99.484424 
L 275.320033 104.806644 
L 275.645012 104.141364 
L 275.969992 102.411632 
L 276.294971 104.00832 
L 276.619951 103.076932 
L 276.94493 105.205816 
L 277.594889 102.810804 
L 277.919869 104.806644 
L 278.244848 102.810804 
L 278.569828 103.209976 
L 278.894808 101.746352 
L 279.219787 97.089412 
L 279.544767 104.540536 
L 279.869746 101.480244 
L 280.194726 104.6736 
L 280.519705 103.476084 
L 280.844685 103.076932 
L 281.494644 104.141364 
L 281.819623 105.471924 
L 282.144603 102.67776 
L 282.469582 102.943868 
L 282.794562 102.01248 
L 283.119541 102.544696 
L 283.444521 103.875256 
L 284.09448 102.278588 
L 284.419459 102.411632 
L 284.744439 98.286928 
L 285.069419 104.540536 
L 285.394398 102.278588 
L 285.719378 102.145524 
L 286.044357 105.072772 
L 286.369337 102.01248 
L 286.694316 104.939708 
L 287.019296 102.411632 
L 287.344275 102.810804 
L 287.669255 100.814964 
L 287.994234 104.540536 
L 288.319214 104.540536 
L 288.644193 102.411632 
L 288.969173 102.810804 
L 289.294152 102.01248 
L 289.619132 102.67776 
L 289.944111 101.081072 
L 290.269091 104.141364 
L 290.59407 99.484424 
L 290.91905 100.68192 
L 291.244029 103.875256 
L 291.569009 101.3472 
L 291.893989 100.948028 
L 292.218968 99.883576 
L 292.543948 102.943868 
L 292.868927 100.01664 
L 293.193907 100.814964 
L 293.518886 100.149704 
L 293.843866 101.3472 
L 294.168845 101.081072 
L 294.493825 101.081072 
L 294.818804 103.875256 
L 295.468763 100.548856 
L 295.793743 99.883576 
L 296.118722 103.209976 
L 296.443702 100.01664 
L 296.768681 100.948028 
L 297.093661 101.3472 
L 297.41864 102.411632 
L 298.393579 100.01664 
L 298.718559 99.750532 
L 299.043538 100.68192 
L 299.368518 102.544696 
L 299.693497 102.943868 
L 300.018477 101.214136 
L 300.343456 103.076932 
L 300.668436 102.943868 
L 300.993415 100.282748 
L 301.318395 101.081072 
L 301.643374 102.278588 
L 301.968354 98.553036 
L 302.293333 102.145524 
L 302.618313 99.750532 
L 302.943292 103.609148 
L 303.268272 101.081072 
L 303.593251 100.282748 
L 303.918231 100.282748 
L 304.56819 102.145524 
L 304.89317 99.750532 
L 305.218149 99.085252 
L 305.543129 101.879416 
L 305.868108 103.34304 
L 306.518067 98.286928 
L 306.843047 99.617468 
L 307.168026 99.484424 
L 307.493006 100.948028 
L 307.817985 101.214136 
L 308.142965 100.01664 
L 308.467944 101.613308 
L 308.792924 100.149704 
L 309.117903 102.145524 
L 309.442883 101.480244 
L 309.767862 97.089412 
L 310.417821 103.209976 
L 310.742801 100.149704 
L 311.067781 99.484424 
L 311.39276 99.085252 
L 311.71774 101.214136 
L 312.042719 98.952188 
L 312.367699 98.153864 
L 312.692678 100.149704 
L 313.017658 99.750532 
L 313.342637 99.883576 
L 313.667617 99.750532 
L 313.992596 99.218296 
L 314.317576 97.754692 
L 314.642555 99.750532 
L 314.967535 98.419972 
L 315.292514 99.35136 
L 315.617494 98.553036 
L 315.942473 99.750532 
L 316.267453 99.218296 
L 316.592432 99.617468 
L 316.917412 98.419972 
L 317.242391 96.557196 
L 317.567371 97.089412 
L 317.892351 97.089412 
L 318.21733 96.424132 
L 318.54231 98.553036 
L 318.867289 101.746352 
L 319.192269 97.887756 
L 319.517248 97.222476 
L 320.167207 99.35136 
L 320.492187 99.750532 
L 320.817166 100.548856 
L 321.142146 97.754692 
L 321.467125 96.291068 
L 321.792105 98.952188 
L 322.117084 98.68608 
L 322.442064 98.153864 
L 322.767043 96.823304 
L 323.092023 100.149704 
L 323.417002 96.956368 
L 323.741982 99.750532 
L 324.066962 96.02496 
L 324.391941 96.02496 
L 325.0419 99.617468 
L 325.36688 99.750532 
L 325.691859 95.492744 
L 326.016839 99.750532 
L 326.341818 99.883576 
L 326.666798 96.823304 
L 326.991777 100.282748 
L 327.641736 96.557196 
L 327.966716 95.891916 
L 328.291695 97.754692 
L 328.616675 102.278588 
L 328.941654 96.69024 
L 329.266634 97.222476 
L 329.591613 93.763012 
L 329.916593 100.149704 
L 330.241572 97.089412 
L 330.566552 95.758852 
L 330.891532 93.097732 
L 331.216511 98.68608 
L 331.541491 97.089412 
L 331.86647 98.419972 
L 332.19145 95.625788 
L 332.516429 96.424132 
L 332.841409 99.35136 
L 333.491368 94.428292 
L 333.816347 98.286928 
L 334.141327 95.35968 
L 334.466306 99.883576 
L 334.791286 96.424132 
L 335.116265 98.286928 
L 335.441245 97.621648 
L 335.766224 95.35968 
L 336.091204 96.69024 
L 336.416183 96.823304 
L 336.741163 96.69024 
L 337.066143 97.35552 
L 337.391122 97.222476 
L 337.716102 95.492744 
L 338.041081 96.69024 
L 338.366061 100.01664 
L 338.69104 95.35968 
L 339.01602 96.557196 
L 339.340999 95.492744 
L 339.665979 96.956368 
L 339.990958 97.222476 
L 340.315938 95.35968 
L 340.640917 96.02496 
L 340.965897 95.492744 
L 341.290876 95.492744 
L 341.615856 100.01664 
L 342.265815 99.484424 
L 342.590794 96.02496 
L 342.915774 97.754692 
L 343.565733 94.162184 
L 343.890713 98.819144 
L 344.215692 98.819144 
L 344.540672 97.35552 
L 344.865651 93.629948 
L 345.190631 98.819144 
L 345.51561 95.891916 
L 345.84059 94.561356 
L 346.165569 99.085252 
L 346.490549 97.35552 
L 346.815528 93.230796 
L 347.140508 96.291068 
L 347.465487 95.492744 
L 347.790467 97.887756 
L 348.115446 99.35136 
L 348.440426 95.891916 
L 348.765405 95.492744 
L 349.090385 96.69024 
L 349.415364 96.557196 
L 349.740344 99.484424 
L 350.715283 95.226636 
L 351.040262 94.827464 
L 351.365242 95.625788 
L 351.690221 97.621648 
L 352.015201 97.488584 
L 352.34018 96.424132 
L 352.66516 93.896076 
L 352.990139 97.887756 
L 353.315119 95.226636 
L 353.640098 100.415812 
L 353.965078 94.6944 
L 354.290057 94.02912 
L 354.615037 96.69024 
L 354.940016 93.763012 
L 355.264996 94.6944 
L 355.589975 96.291068 
L 355.914955 97.089412 
L 356.239934 94.428292 
L 356.564914 95.758852 
L 356.889894 95.625788 
L 357.214873 94.561356 
L 357.539853 96.02496 
L 357.864832 94.295228 
L 358.189812 96.02496 
L 358.514791 94.295228 
L 358.839771 98.419972 
L 359.16475 97.488584 
L 359.48973 96.02496 
L 359.814709 93.36384 
L 360.139689 92.565496 
L 360.789648 95.492744 
L 361.114627 95.758852 
L 361.439607 94.827464 
L 361.764586 96.956368 
L 362.089566 96.02496 
L 362.414545 97.089412 
L 363.064505 94.6944 
L 363.389484 94.827464 
L 363.714464 94.295228 
L 364.039443 95.093572 
L 364.364423 95.492744 
L 364.689402 94.428292 
L 365.014382 91.634108 
L 365.339361 94.6944 
L 365.98932 94.02912 
L 366.3143 93.763012 
L 366.964259 98.286928 
L 367.289238 93.230796 
L 367.614218 97.222476 
L 367.939197 94.960508 
L 368.264177 89.37216 
L 368.589156 98.286928 
L 368.914136 96.02496 
L 369.564095 95.758852 
L 370.214054 97.754692 
L 370.539034 94.561356 
L 370.864013 95.891916 
L 371.188993 97.887756 
L 371.513972 93.763012 
L 371.838952 97.35552 
L 372.163931 98.286928 
L 372.81389 92.69856 
L 373.13887 94.02912 
L 373.463849 93.230796 
L 373.788829 96.956368 
L 374.113808 94.6944 
L 374.438788 95.226636 
L 374.763767 94.428292 
L 375.088747 92.299388 
L 375.738706 96.69024 
L 376.063686 96.02496 
L 376.388665 94.02912 
L 376.713645 98.0208 
L 377.038624 94.428292 
L 377.363604 93.763012 
L 377.688583 92.69856 
L 378.013563 92.565496 
L 378.338542 94.295228 
L 378.988501 92.432452 
L 379.313481 94.295228 
L 379.63846 93.896076 
L 379.96344 95.758852 
L 380.288419 92.299388 
L 380.613399 94.428292 
L 380.938378 93.230796 
L 381.263358 94.561356 
L 381.588337 94.6944 
L 381.913317 95.35968 
L 382.238296 94.02912 
L 382.563276 96.02496 
L 383.213235 93.496904 
L 383.538215 96.424132 
L 383.863194 94.295228 
L 384.513153 93.097732 
L 384.838133 95.625788 
L 385.163112 93.097732 
L 385.488092 93.896076 
L 385.813071 92.299388 
L 386.138051 91.900216 
L 386.46303 93.230796 
L 386.78801 96.69024 
L 387.112989 96.557196 
L 387.437969 96.823304 
L 387.762948 93.36384 
L 388.087928 94.428292 
L 388.412907 96.557196 
L 388.737887 94.960508 
L 389.062867 96.158024 
L 389.387846 94.960508 
L 389.712826 94.960508 
L 390.037805 93.230796 
L 390.362785 92.166344 
L 390.687764 91.634108 
L 391.012744 92.432452 
L 391.337723 96.69024 
L 391.662703 94.295228 
L 391.987682 97.222476 
L 392.312662 93.896076 
L 392.637641 95.35968 
L 392.962621 92.69856 
L 393.2876 92.964668 
L 393.61258 92.299388 
L 393.937559 92.964668 
L 394.262539 92.03328 
L 395.237477 97.222476 
L 395.562457 92.831624 
L 395.887437 93.763012 
L 396.212416 94.02912 
L 396.537396 93.496904 
L 396.862375 96.02496 
L 397.187355 95.093572 
L 397.512334 93.230796 
L 397.837314 95.35968 
L 398.162293 93.36384 
L 398.487273 96.424132 
L 398.487273 96.424132 
" style="fill:none;stroke:#2ca02c;stroke-linecap:square;stroke-width:1.5;"/>
   </g>
   <g id="patch_3">
    <path d="M 57.6 307.584 
L 57.6 41.472 
" style="fill:none;stroke:#000000;stroke-linecap:square;stroke-linejoin:miter;stroke-width:0.8;"/>
   </g>
   <g id="patch_4">
    <path d="M 414.72 307.584 
L 414.72 41.472 
" style="fill:none;stroke:#000000;stroke-linecap:square;stroke-linejoin:miter;stroke-width:0.8;"/>
   </g>
   <g id="patch_5">
    <path d="M 57.6 307.584 
L 414.72 307.584 
" style="fill:none;stroke:#000000;stroke-linecap:square;stroke-linejoin:miter;stroke-width:0.8;"/>
   </g>
   <g id="patch_6">
    <path d="M 57.6 41.472 
L 414.72 41.472 
" style="fill:none;stroke:#000000;stroke-linecap:square;stroke-linejoin:miter;stroke-width:0.8;"/>
   </g>
   <g id="text_14">
    <!-- -greedy bandits -->
    <defs>
     <path d="M 19.28125 29.5 
Q 13.8125 30.671875 10.890625 33.84375 
Q 7.953125 36.96875 7.953125 41.5 
Q 7.953125 48.390625 13.53125 52.25 
Q 19.046875 56.0625 28.609375 56.0625 
Q 32.328125 56.0625 36.46875 55.46875 
Q 40.625 54.890625 45.40625 53.71875 
L 45.40625 45.5625 
Q 40.671875 46.96875 36.765625 47.609375 
Q 32.8125 48.25 29.34375 48.25 
Q 23.53125 48.25 20.171875 46 
Q 16.75 43.75 16.75 40.625 
Q 16.75 37.203125 20.0625 35.015625 
Q 23.34375 32.859375 29 32.859375 
L 36.578125 32.859375 
L 36.578125 25.4375 
L 29.34375 25.4375 
Q 22.65625 25.4375 19.140625 22.953125 
Q 15.328125 20.21875 15.328125 15.921875 
Q 15.328125 11.53125 19.4375 8.796875 
Q 23.578125 6.0625 30.953125 6.0625 
Q 35.5 6.0625 39.65625 6.9375 
Q 43.796875 7.859375 47.265625 9.671875 
L 47.265625 1.3125 
Q 42.875 -0.046875 38.765625 -0.734375 
Q 34.625 -1.421875 30.71875 -1.421875 
Q 19.09375 -1.421875 12.796875 3.03125 
Q 6.5 7.46875 6.5 15.921875 
Q 6.5 21.1875 9.859375 24.75 
Q 13.234375 28.328125 19.28125 29.5 
z
" id="DejaVuSans-3b5"/>
     <path d="M 4.890625 31.390625 
L 31.203125 31.390625 
L 31.203125 23.390625 
L 4.890625 23.390625 
z
" id="DejaVuSans-2d"/>
     <path d="M 45.40625 27.984375 
Q 45.40625 37.75 41.375 43.109375 
Q 37.359375 48.484375 30.078125 48.484375 
Q 22.859375 48.484375 18.828125 43.109375 
Q 14.796875 37.75 14.796875 27.984375 
Q 14.796875 18.265625 18.828125 12.890625 
Q 22.859375 7.515625 30.078125 7.515625 
Q 37.359375 7.515625 41.375 12.890625 
Q 45.40625 18.265625 45.40625 27.984375 
z
M 54.390625 6.78125 
Q 54.390625 -7.171875 48.1875 -13.984375 
Q 42 -20.796875 29.203125 -20.796875 
Q 24.46875 -20.796875 20.265625 -20.09375 
Q 16.0625 -19.390625 12.109375 -17.921875 
L 12.109375 -9.1875 
Q 16.0625 -11.328125 19.921875 -12.34375 
Q 23.78125 -13.375 27.78125 -13.375 
Q 36.625 -13.375 41.015625 -8.765625 
Q 45.40625 -4.15625 45.40625 5.171875 
L 45.40625 9.625 
Q 42.625 4.78125 38.28125 2.390625 
Q 33.9375 0 27.875 0 
Q 17.828125 0 11.671875 7.65625 
Q 5.515625 15.328125 5.515625 27.984375 
Q 5.515625 40.671875 11.671875 48.328125 
Q 17.828125 56 27.875 56 
Q 33.9375 56 38.28125 53.609375 
Q 42.625 51.21875 45.40625 46.390625 
L 45.40625 54.6875 
L 54.390625 54.6875 
z
" id="DejaVuSans-67"/>
     <path d="M 41.109375 46.296875 
Q 39.59375 47.171875 37.8125 47.578125 
Q 36.03125 48 33.890625 48 
Q 26.265625 48 22.1875 43.046875 
Q 18.109375 38.09375 18.109375 28.8125 
L 18.109375 0 
L 9.078125 0 
L 9.078125 54.6875 
L 18.109375 54.6875 
L 18.109375 46.1875 
Q 20.953125 51.171875 25.484375 53.578125 
Q 30.03125 56 36.53125 56 
Q 37.453125 56 38.578125 55.875 
Q 39.703125 55.765625 41.0625 55.515625 
z
" id="DejaVuSans-72"/>
     <path d="M 45.40625 46.390625 
L 45.40625 75.984375 
L 54.390625 75.984375 
L 54.390625 0 
L 45.40625 0 
L 45.40625 8.203125 
Q 42.578125 3.328125 38.25 0.953125 
Q 33.9375 -1.421875 27.875 -1.421875 
Q 17.96875 -1.421875 11.734375 6.484375 
Q 5.515625 14.40625 5.515625 27.296875 
Q 5.515625 40.1875 11.734375 48.09375 
Q 17.96875 56 27.875 56 
Q 33.9375 56 38.25 53.625 
Q 42.578125 51.265625 45.40625 46.390625 
z
M 14.796875 27.296875 
Q 14.796875 17.390625 18.875 11.75 
Q 22.953125 6.109375 30.078125 6.109375 
Q 37.203125 6.109375 41.296875 11.75 
Q 45.40625 17.390625 45.40625 27.296875 
Q 45.40625 37.203125 41.296875 42.84375 
Q 37.203125 48.484375 30.078125 48.484375 
Q 22.953125 48.484375 18.875 42.84375 
Q 14.796875 37.203125 14.796875 27.296875 
z
" id="DejaVuSans-64"/>
     <path d="M 32.171875 -5.078125 
Q 28.375 -14.84375 24.75 -17.8125 
Q 21.140625 -20.796875 15.09375 -20.796875 
L 7.90625 -20.796875 
L 7.90625 -13.28125 
L 13.1875 -13.28125 
Q 16.890625 -13.28125 18.9375 -11.515625 
Q 21 -9.765625 23.484375 -3.21875 
L 25.09375 0.875 
L 2.984375 54.6875 
L 12.5 54.6875 
L 29.59375 11.921875 
L 46.6875 54.6875 
L 56.203125 54.6875 
z
" id="DejaVuSans-79"/>
     <path d="M 48.6875 27.296875 
Q 48.6875 37.203125 44.609375 42.84375 
Q 40.53125 48.484375 33.40625 48.484375 
Q 26.265625 48.484375 22.1875 42.84375 
Q 18.109375 37.203125 18.109375 27.296875 
Q 18.109375 17.390625 22.1875 11.75 
Q 26.265625 6.109375 33.40625 6.109375 
Q 40.53125 6.109375 44.609375 11.75 
Q 48.6875 17.390625 48.6875 27.296875 
z
M 18.109375 46.390625 
Q 20.953125 51.265625 25.265625 53.625 
Q 29.59375 56 35.59375 56 
Q 45.5625 56 51.78125 48.09375 
Q 58.015625 40.1875 58.015625 27.296875 
Q 58.015625 14.40625 51.78125 6.484375 
Q 45.5625 -1.421875 35.59375 -1.421875 
Q 29.59375 -1.421875 25.265625 0.953125 
Q 20.953125 3.328125 18.109375 8.203125 
L 18.109375 0 
L 9.078125 0 
L 9.078125 75.984375 
L 18.109375 75.984375 
z
" id="DejaVuSans-62"/>
    </defs>
    <g transform="translate(185.585625 35.472)scale(0.12 -0.12)">
     <use xlink:href="#DejaVuSans-3b5"/>
     <use x="54.052734" xlink:href="#DejaVuSans-2d"/>
     <use x="90.136719" xlink:href="#DejaVuSans-67"/>
     <use x="153.613281" xlink:href="#DejaVuSans-72"/>
     <use x="194.695312" xlink:href="#DejaVuSans-65"/>
     <use x="256.21875" xlink:href="#DejaVuSans-65"/>
     <use x="317.742188" xlink:href="#DejaVuSans-64"/>
     <use x="381.21875" xlink:href="#DejaVuSans-79"/>
     <use x="440.398438" xlink:href="#DejaVuSans-20"/>
     <use x="472.185547" xlink:href="#DejaVuSans-62"/>
     <use x="535.662109" xlink:href="#DejaVuSans-61"/>
     <use x="596.941406" xlink:href="#DejaVuSans-6e"/>
     <use x="660.320312" xlink:href="#DejaVuSans-64"/>
     <use x="723.796875" xlink:href="#DejaVuSans-69"/>
     <use x="751.580078" xlink:href="#DejaVuSans-74"/>
     <use x="790.789062" xlink:href="#DejaVuSans-73"/>
    </g>
   </g>
   <g id="legend_1">
    <g id="patch_7">
     <path d="M 64.6 93.506375 
L 132.65 93.506375 
Q 134.65 93.506375 134.65 91.506375 
L 134.65 48.472 
Q 134.65 46.472 132.65 46.472 
L 64.6 46.472 
Q 62.6 46.472 62.6 48.472 
L 62.6 91.506375 
Q 62.6 93.506375 64.6 93.506375 
z
" style="fill:#ffffff;opacity:0.8;stroke:#cccccc;stroke-linejoin:miter;"/>
    </g>
    <g id="line2d_15">
     <path d="M 66.6 54.570438 
L 86.6 54.570438 
" style="fill:none;stroke:#1f77b4;stroke-linecap:square;stroke-width:1.5;"/>
    </g>
    <g id="line2d_16"/>
    <g id="text_15">
     <!-- =0, -->
     <defs>
      <path d="M 10.59375 45.40625 
L 73.1875 45.40625 
L 73.1875 37.203125 
L 10.59375 37.203125 
z
M 10.59375 25.484375 
L 73.1875 25.484375 
L 73.1875 17.1875 
L 10.59375 17.1875 
z
" id="DejaVuSans-3d"/>
      <path d="M 11.71875 12.40625 
L 22.015625 12.40625 
L 22.015625 4 
L 14.015625 -11.625 
L 7.71875 -11.625 
L 11.71875 4 
z
" id="DejaVuSans-2c"/>
     </defs>
     <g transform="translate(94.6 58.070438)scale(0.1 -0.1)">
      <use xlink:href="#DejaVuSans-3b5"/>
      <use x="54.052734" xlink:href="#DejaVuSans-3d"/>
      <use x="137.841797" xlink:href="#DejaVuSans-30"/>
      <use x="201.464844" xlink:href="#DejaVuSans-2c"/>
     </g>
    </g>
    <g id="line2d_17">
     <path d="M 66.6 69.248563 
L 86.6 69.248563 
" style="fill:none;stroke:#ff7f0e;stroke-linecap:square;stroke-width:1.5;"/>
    </g>
    <g id="line2d_18"/>
    <g id="text_16">
     <!-- =0.01 -->
     <defs>
      <path d="M 10.6875 12.40625 
L 21 12.40625 
L 21 0 
L 10.6875 0 
z
" id="DejaVuSans-2e"/>
     </defs>
     <g transform="translate(94.6 72.748563)scale(0.1 -0.1)">
      <use xlink:href="#DejaVuSans-3b5"/>
      <use x="54.052734" xlink:href="#DejaVuSans-3d"/>
      <use x="137.841797" xlink:href="#DejaVuSans-30"/>
      <use x="201.464844" xlink:href="#DejaVuSans-2e"/>
      <use x="233.251953" xlink:href="#DejaVuSans-30"/>
      <use x="296.875" xlink:href="#DejaVuSans-31"/>
     </g>
    </g>
    <g id="line2d_19">
     <path d="M 66.6 83.926688 
L 86.6 83.926688 
" style="fill:none;stroke:#2ca02c;stroke-linecap:square;stroke-width:1.5;"/>
    </g>
    <g id="line2d_20"/>
    <g id="text_17">
     <!-- =0.1 -->
     <g transform="translate(94.6 87.426688)scale(0.1 -0.1)">
      <use xlink:href="#DejaVuSans-3b5"/>
      <use x="54.052734" xlink:href="#DejaVuSans-3d"/>
      <use x="137.841797" xlink:href="#DejaVuSans-30"/>
      <use x="201.464844" xlink:href="#DejaVuSans-2e"/>
      <use x="233.251953" xlink:href="#DejaVuSans-31"/>
     </g>
    </g>
   </g>
  </g>
 </g>
 <defs>
  <clipPath id="p8d54fc5177">
   <rect height="266.112" width="357.12" x="57.6" y="41.472"/>
  </clipPath>
 </defs>
</svg>
