<?xml version="1.0" encoding="utf-8" standalone="no"?>
<!DOCTYPE svg PUBLIC "-//W3C//DTD SVG 1.1//EN"
  "http://www.w3.org/Graphics/SVG/1.1/DTD/svg11.dtd">
<!-- Created with matplotlib (http://matplotlib.org/) -->
<svg height="216pt" version="1.1" viewBox="0 0 360 216" width="360pt" xmlns="http://www.w3.org/2000/svg" xmlns:xlink="http://www.w3.org/1999/xlink">
 <defs>
  <style type="text/css">
*{stroke-linecap:butt;stroke-linejoin:round;}
  </style>
 </defs>
 <g id="figure_1">
  <g id="patch_1">
   <path d="M 0 216 
L 360 216 
L 360 0 
L 0 0 
z
" style="fill:#ffffff;"/>
  </g>
  <g id="axes_1">
   <g id="patch_2">
    <path d="M 45 192.24 
L 324 192.24 
L 324 25.92 
L 45 25.92 
z
" style="fill:#ffffff;"/>
   </g>
   <g id="matplotlib.axis_1">
    <g id="xtick_1">
     <g id="line2d_1">
      <defs>
       <path d="M 0 0 
L 0 3.5 
" id="m5b72dd2c5d" style="stroke:#000000;stroke-width:0.8;"/>
      </defs>
      <g>
       <use style="stroke:#000000;stroke-width:0.8;" x="57.681818" xlink:href="#m5b72dd2c5d" y="192.24"/>
      </g>
     </g>
     <g id="text_1">
      <!-- 0 -->
      <defs>
       <path d="M 31.78125 66.40625 
Q 24.171875 66.40625 20.328125 58.90625 
Q 16.5 51.421875 16.5 36.375 
Q 16.5 21.390625 20.328125 13.890625 
Q 24.171875 6.390625 31.78125 6.390625 
Q 39.453125 6.390625 43.28125 13.890625 
Q 47.125 21.390625 47.125 36.375 
Q 47.125 51.421875 43.28125 58.90625 
Q 39.453125 66.40625 31.78125 66.40625 
z
M 31.78125 74.21875 
Q 44.046875 74.21875 50.515625 64.515625 
Q 56.984375 54.828125 56.984375 36.375 
Q 56.984375 17.96875 50.515625 8.265625 
Q 44.046875 -1.421875 31.78125 -1.421875 
Q 19.53125 -1.421875 13.0625 8.265625 
Q 6.59375 17.96875 6.59375 36.375 
Q 6.59375 54.828125 13.0625 64.515625 
Q 19.53125 74.21875 31.78125 74.21875 
z
" id="DejaVuSans-30"/>
      </defs>
      <g transform="translate(54.500568 206.838437)scale(0.1 -0.1)">
       <use xlink:href="#DejaVuSans-30"/>
      </g>
     </g>
    </g>
    <g id="xtick_2">
     <g id="line2d_2">
      <g>
       <use style="stroke:#000000;stroke-width:0.8;" x="121.154382" xlink:href="#m5b72dd2c5d" y="192.24"/>
      </g>
     </g>
     <g id="text_2">
      <!-- 250 -->
      <defs>
       <path d="M 19.1875 8.296875 
L 53.609375 8.296875 
L 53.609375 0 
L 7.328125 0 
L 7.328125 8.296875 
Q 12.9375 14.109375 22.625 23.890625 
Q 32.328125 33.6875 34.8125 36.53125 
Q 39.546875 41.84375 41.421875 45.53125 
Q 43.3125 49.21875 43.3125 52.78125 
Q 43.3125 58.59375 39.234375 62.25 
Q 35.15625 65.921875 28.609375 65.921875 
Q 23.96875 65.921875 18.8125 64.3125 
Q 13.671875 62.703125 7.8125 59.421875 
L 7.8125 69.390625 
Q 13.765625 71.78125 18.9375 73 
Q 24.125 74.21875 28.421875 74.21875 
Q 39.75 74.21875 46.484375 68.546875 
Q 53.21875 62.890625 53.21875 53.421875 
Q 53.21875 48.921875 51.53125 44.890625 
Q 49.859375 40.875 45.40625 35.40625 
Q 44.1875 33.984375 37.640625 27.21875 
Q 31.109375 20.453125 19.1875 8.296875 
z
" id="DejaVuSans-32"/>
       <path d="M 10.796875 72.90625 
L 49.515625 72.90625 
L 49.515625 64.59375 
L 19.828125 64.59375 
L 19.828125 46.734375 
Q 21.96875 47.46875 24.109375 47.828125 
Q 26.265625 48.1875 28.421875 48.1875 
Q 40.625 48.1875 47.75 41.5 
Q 54.890625 34.8125 54.890625 23.390625 
Q 54.890625 11.625 47.5625 5.09375 
Q 40.234375 -1.421875 26.90625 -1.421875 
Q 22.3125 -1.421875 17.546875 -0.640625 
Q 12.796875 0.140625 7.71875 1.703125 
L 7.71875 11.625 
Q 12.109375 9.234375 16.796875 8.0625 
Q 21.484375 6.890625 26.703125 6.890625 
Q 35.15625 6.890625 40.078125 11.328125 
Q 45.015625 15.765625 45.015625 23.390625 
Q 45.015625 31 40.078125 35.4375 
Q 35.15625 39.890625 26.703125 39.890625 
Q 22.75 39.890625 18.8125 39.015625 
Q 14.890625 38.140625 10.796875 36.28125 
z
" id="DejaVuSans-35"/>
      </defs>
      <g transform="translate(111.610632 206.838437)scale(0.1 -0.1)">
       <use xlink:href="#DejaVuSans-32"/>
       <use x="63.623047" xlink:href="#DejaVuSans-35"/>
       <use x="127.246094" xlink:href="#DejaVuSans-30"/>
      </g>
     </g>
    </g>
    <g id="xtick_3">
     <g id="line2d_3">
      <g>
       <use style="stroke:#000000;stroke-width:0.8;" x="184.626945" xlink:href="#m5b72dd2c5d" y="192.24"/>
      </g>
     </g>
     <g id="text_3">
      <!-- 500 -->
      <g transform="translate(175.083195 206.838437)scale(0.1 -0.1)">
       <use xlink:href="#DejaVuSans-35"/>
       <use x="63.623047" xlink:href="#DejaVuSans-30"/>
       <use x="127.246094" xlink:href="#DejaVuSans-30"/>
      </g>
     </g>
    </g>
    <g id="xtick_4">
     <g id="line2d_4">
      <g>
       <use style="stroke:#000000;stroke-width:0.8;" x="248.099509" xlink:href="#m5b72dd2c5d" y="192.24"/>
      </g>
     </g>
     <g id="text_4">
      <!-- 750 -->
      <defs>
       <path d="M 8.203125 72.90625 
L 55.078125 72.90625 
L 55.078125 68.703125 
L 28.609375 0 
L 18.3125 0 
L 43.21875 64.59375 
L 8.203125 64.59375 
z
" id="DejaVuSans-37"/>
      </defs>
      <g transform="translate(238.555759 206.838437)scale(0.1 -0.1)">
       <use xlink:href="#DejaVuSans-37"/>
       <use x="63.623047" xlink:href="#DejaVuSans-35"/>
       <use x="127.246094" xlink:href="#DejaVuSans-30"/>
      </g>
     </g>
    </g>
    <g id="xtick_5">
     <g id="line2d_5">
      <g>
       <use style="stroke:#000000;stroke-width:0.8;" x="311.572072" xlink:href="#m5b72dd2c5d" y="192.24"/>
      </g>
     </g>
     <g id="text_5">
      <!-- 1000 -->
      <defs>
       <path d="M 12.40625 8.296875 
L 28.515625 8.296875 
L 28.515625 63.921875 
L 10.984375 60.40625 
L 10.984375 69.390625 
L 28.421875 72.90625 
L 38.28125 72.90625 
L 38.28125 8.296875 
L 54.390625 8.296875 
L 54.390625 0 
L 12.40625 0 
z
" id="DejaVuSans-31"/>
      </defs>
      <g transform="translate(298.847072 206.838437)scale(0.1 -0.1)">
       <use xlink:href="#DejaVuSans-31"/>
       <use x="63.623047" xlink:href="#DejaVuSans-30"/>
       <use x="127.246094" xlink:href="#DejaVuSans-30"/>
       <use x="190.869141" xlink:href="#DejaVuSans-30"/>
      </g>
     </g>
    </g>
    <g id="text_6">
     <!-- Steps -->
     <defs>
      <path d="M 53.515625 70.515625 
L 53.515625 60.890625 
Q 47.90625 63.578125 42.921875 64.890625 
Q 37.9375 66.21875 33.296875 66.21875 
Q 25.25 66.21875 20.875 63.09375 
Q 16.5 59.96875 16.5 54.203125 
Q 16.5 49.359375 19.40625 46.890625 
Q 22.3125 44.4375 30.421875 42.921875 
L 36.375 41.703125 
Q 47.40625 39.59375 52.65625 34.296875 
Q 57.90625 29 57.90625 20.125 
Q 57.90625 9.515625 50.796875 4.046875 
Q 43.703125 -1.421875 29.984375 -1.421875 
Q 24.8125 -1.421875 18.96875 -0.25 
Q 13.140625 0.921875 6.890625 3.21875 
L 6.890625 13.375 
Q 12.890625 10.015625 18.65625 8.296875 
Q 24.421875 6.59375 29.984375 6.59375 
Q 38.421875 6.59375 43.015625 9.90625 
Q 47.609375 13.234375 47.609375 19.390625 
Q 47.609375 24.75 44.3125 27.78125 
Q 41.015625 30.8125 33.5 32.328125 
L 27.484375 33.5 
Q 16.453125 35.6875 11.515625 40.375 
Q 6.59375 45.0625 6.59375 53.421875 
Q 6.59375 63.09375 13.40625 68.65625 
Q 20.21875 74.21875 32.171875 74.21875 
Q 37.3125 74.21875 42.625 73.28125 
Q 47.953125 72.359375 53.515625 70.515625 
z
" id="DejaVuSans-53"/>
      <path d="M 18.3125 70.21875 
L 18.3125 54.6875 
L 36.8125 54.6875 
L 36.8125 47.703125 
L 18.3125 47.703125 
L 18.3125 18.015625 
Q 18.3125 11.328125 20.140625 9.421875 
Q 21.96875 7.515625 27.59375 7.515625 
L 36.8125 7.515625 
L 36.8125 0 
L 27.59375 0 
Q 17.1875 0 13.234375 3.875 
Q 9.28125 7.765625 9.28125 18.015625 
L 9.28125 47.703125 
L 2.6875 47.703125 
L 2.6875 54.6875 
L 9.28125 54.6875 
L 9.28125 70.21875 
z
" id="DejaVuSans-74"/>
      <path d="M 56.203125 29.59375 
L 56.203125 25.203125 
L 14.890625 25.203125 
Q 15.484375 15.921875 20.484375 11.0625 
Q 25.484375 6.203125 34.421875 6.203125 
Q 39.59375 6.203125 44.453125 7.46875 
Q 49.3125 8.734375 54.109375 11.28125 
L 54.109375 2.78125 
Q 49.265625 0.734375 44.1875 -0.34375 
Q 39.109375 -1.421875 33.890625 -1.421875 
Q 20.796875 -1.421875 13.15625 6.1875 
Q 5.515625 13.8125 5.515625 26.8125 
Q 5.515625 40.234375 12.765625 48.109375 
Q 20.015625 56 32.328125 56 
Q 43.359375 56 49.78125 48.890625 
Q 56.203125 41.796875 56.203125 29.59375 
z
M 47.21875 32.234375 
Q 47.125 39.59375 43.09375 43.984375 
Q 39.0625 48.390625 32.421875 48.390625 
Q 24.90625 48.390625 20.390625 44.140625 
Q 15.875 39.890625 15.1875 32.171875 
z
" id="DejaVuSans-65"/>
      <path d="M 18.109375 8.203125 
L 18.109375 -20.796875 
L 9.078125 -20.796875 
L 9.078125 54.6875 
L 18.109375 54.6875 
L 18.109375 46.390625 
Q 20.953125 51.265625 25.265625 53.625 
Q 29.59375 56 35.59375 56 
Q 45.5625 56 51.78125 48.09375 
Q 58.015625 40.1875 58.015625 27.296875 
Q 58.015625 14.40625 51.78125 6.484375 
Q 45.5625 -1.421875 35.59375 -1.421875 
Q 29.59375 -1.421875 25.265625 0.953125 
Q 20.953125 3.328125 18.109375 8.203125 
z
M 48.6875 27.296875 
Q 48.6875 37.203125 44.609375 42.84375 
Q 40.53125 48.484375 33.40625 48.484375 
Q 26.265625 48.484375 22.1875 42.84375 
Q 18.109375 37.203125 18.109375 27.296875 
Q 18.109375 17.390625 22.1875 11.75 
Q 26.265625 6.109375 33.40625 6.109375 
Q 40.53125 6.109375 44.609375 11.75 
Q 48.6875 17.390625 48.6875 27.296875 
z
" id="DejaVuSans-70"/>
      <path d="M 44.28125 53.078125 
L 44.28125 44.578125 
Q 40.484375 46.53125 36.375 47.5 
Q 32.28125 48.484375 27.875 48.484375 
Q 21.1875 48.484375 17.84375 46.4375 
Q 14.5 44.390625 14.5 40.28125 
Q 14.5 37.15625 16.890625 35.375 
Q 19.28125 33.59375 26.515625 31.984375 
L 29.59375 31.296875 
Q 39.15625 29.25 43.1875 25.515625 
Q 47.21875 21.78125 47.21875 15.09375 
Q 47.21875 7.46875 41.1875 3.015625 
Q 35.15625 -1.421875 24.609375 -1.421875 
Q 20.21875 -1.421875 15.453125 -0.5625 
Q 10.6875 0.296875 5.421875 2 
L 5.421875 11.28125 
Q 10.40625 8.6875 15.234375 7.390625 
Q 20.0625 6.109375 24.8125 6.109375 
Q 31.15625 6.109375 34.5625 8.28125 
Q 37.984375 10.453125 37.984375 14.40625 
Q 37.984375 18.0625 35.515625 20.015625 
Q 33.0625 21.96875 24.703125 23.78125 
L 21.578125 24.515625 
Q 13.234375 26.265625 9.515625 29.90625 
Q 5.8125 33.546875 5.8125 39.890625 
Q 5.8125 47.609375 11.28125 51.796875 
Q 16.75 56 26.8125 56 
Q 31.78125 56 36.171875 55.265625 
Q 40.578125 54.546875 44.28125 53.078125 
z
" id="DejaVuSans-73"/>
     </defs>
     <g transform="translate(170.510156 220.516562)scale(0.1 -0.1)">
      <use xlink:href="#DejaVuSans-53"/>
      <use x="63.476562" xlink:href="#DejaVuSans-74"/>
      <use x="102.685547" xlink:href="#DejaVuSans-65"/>
      <use x="164.208984" xlink:href="#DejaVuSans-70"/>
      <use x="227.685547" xlink:href="#DejaVuSans-73"/>
     </g>
    </g>
   </g>
   <g id="matplotlib.axis_2">
    <g id="ytick_1">
     <g id="line2d_6">
      <defs>
       <path d="M 0 0 
L -3.5 0 
" id="mf5a5a6bebd" style="stroke:#000000;stroke-width:0.8;"/>
      </defs>
      <g>
       <use style="stroke:#000000;stroke-width:0.8;" x="45" xlink:href="#mf5a5a6bebd" y="99.846941"/>
      </g>
     </g>
     <g id="text_7">
      <!-- 0.0 -->
      <defs>
       <path d="M 10.6875 12.40625 
L 21 12.40625 
L 21 0 
L 10.6875 0 
z
" id="DejaVuSans-2e"/>
      </defs>
      <g transform="translate(22.096875 103.64616)scale(0.1 -0.1)">
       <use xlink:href="#DejaVuSans-30"/>
       <use x="63.623047" xlink:href="#DejaVuSans-2e"/>
       <use x="95.410156" xlink:href="#DejaVuSans-30"/>
      </g>
     </g>
    </g>
    <g id="ytick_2">
     <g id="line2d_7">
      <g>
       <use style="stroke:#000000;stroke-width:0.8;" x="45" xlink:href="#mf5a5a6bebd" y="90.243277"/>
      </g>
     </g>
     <g id="text_8">
      <!-- 0.5 -->
      <g transform="translate(22.096875 94.042496)scale(0.1 -0.1)">
       <use xlink:href="#DejaVuSans-30"/>
       <use x="63.623047" xlink:href="#DejaVuSans-2e"/>
       <use x="95.410156" xlink:href="#DejaVuSans-35"/>
      </g>
     </g>
    </g>
    <g id="ytick_3">
     <g id="line2d_8">
      <g>
       <use style="stroke:#000000;stroke-width:0.8;" x="45" xlink:href="#mf5a5a6bebd" y="80.639613"/>
      </g>
     </g>
     <g id="text_9">
      <!-- 1.0 -->
      <g transform="translate(22.096875 84.438831)scale(0.1 -0.1)">
       <use xlink:href="#DejaVuSans-31"/>
       <use x="63.623047" xlink:href="#DejaVuSans-2e"/>
       <use x="95.410156" xlink:href="#DejaVuSans-30"/>
      </g>
     </g>
    </g>
    <g id="ytick_4">
     <g id="line2d_9">
      <g>
       <use style="stroke:#000000;stroke-width:0.8;" x="45" xlink:href="#mf5a5a6bebd" y="71.035949"/>
      </g>
     </g>
     <g id="text_10">
      <!-- 1.5 -->
      <g transform="translate(22.096875 74.835167)scale(0.1 -0.1)">
       <use xlink:href="#DejaVuSans-31"/>
       <use x="63.623047" xlink:href="#DejaVuSans-2e"/>
       <use x="95.410156" xlink:href="#DejaVuSans-35"/>
      </g>
     </g>
    </g>
    <g id="text_11">
     <!-- Average reward -->
     <defs>
      <path d="M 34.1875 63.1875 
L 20.796875 26.90625 
L 47.609375 26.90625 
z
M 28.609375 72.90625 
L 39.796875 72.90625 
L 67.578125 0 
L 57.328125 0 
L 50.6875 18.703125 
L 17.828125 18.703125 
L 11.1875 0 
L 0.78125 0 
z
" id="DejaVuSans-41"/>
      <path d="M 2.984375 54.6875 
L 12.5 54.6875 
L 29.59375 8.796875 
L 46.6875 54.6875 
L 56.203125 54.6875 
L 35.6875 0 
L 23.484375 0 
z
" id="DejaVuSans-76"/>
      <path d="M 41.109375 46.296875 
Q 39.59375 47.171875 37.8125 47.578125 
Q 36.03125 48 33.890625 48 
Q 26.265625 48 22.1875 43.046875 
Q 18.109375 38.09375 18.109375 28.8125 
L 18.109375 0 
L 9.078125 0 
L 9.078125 54.6875 
L 18.109375 54.6875 
L 18.109375 46.1875 
Q 20.953125 51.171875 25.484375 53.578125 
Q 30.03125 56 36.53125 56 
Q 37.453125 56 38.578125 55.875 
Q 39.703125 55.765625 41.0625 55.515625 
z
" id="DejaVuSans-72"/>
      <path d="M 34.28125 27.484375 
Q 23.390625 27.484375 19.1875 25 
Q 14.984375 22.515625 14.984375 16.5 
Q 14.984375 11.71875 18.140625 8.90625 
Q 21.296875 6.109375 26.703125 6.109375 
Q 34.1875 6.109375 38.703125 11.40625 
Q 43.21875 16.703125 43.21875 25.484375 
L 43.21875 27.484375 
z
M 52.203125 31.203125 
L 52.203125 0 
L 43.21875 0 
L 43.21875 8.296875 
Q 40.140625 3.328125 35.546875 0.953125 
Q 30.953125 -1.421875 24.3125 -1.421875 
Q 15.921875 -1.421875 10.953125 3.296875 
Q 6 8.015625 6 15.921875 
Q 6 25.140625 12.171875 29.828125 
Q 18.359375 34.515625 30.609375 34.515625 
L 43.21875 34.515625 
L 43.21875 35.40625 
Q 43.21875 41.609375 39.140625 45 
Q 35.0625 48.390625 27.6875 48.390625 
Q 23 48.390625 18.546875 47.265625 
Q 14.109375 46.140625 10.015625 43.890625 
L 10.015625 52.203125 
Q 14.9375 54.109375 19.578125 55.046875 
Q 24.21875 56 28.609375 56 
Q 40.484375 56 46.34375 49.84375 
Q 52.203125 43.703125 52.203125 31.203125 
z
" id="DejaVuSans-61"/>
      <path d="M 45.40625 27.984375 
Q 45.40625 37.75 41.375 43.109375 
Q 37.359375 48.484375 30.078125 48.484375 
Q 22.859375 48.484375 18.828125 43.109375 
Q 14.796875 37.75 14.796875 27.984375 
Q 14.796875 18.265625 18.828125 12.890625 
Q 22.859375 7.515625 30.078125 7.515625 
Q 37.359375 7.515625 41.375 12.890625 
Q 45.40625 18.265625 45.40625 27.984375 
z
M 54.390625 6.78125 
Q 54.390625 -7.171875 48.1875 -13.984375 
Q 42 -20.796875 29.203125 -20.796875 
Q 24.46875 -20.796875 20.265625 -20.09375 
Q 16.0625 -19.390625 12.109375 -17.921875 
L 12.109375 -9.1875 
Q 16.0625 -11.328125 19.921875 -12.34375 
Q 23.78125 -13.375 27.78125 -13.375 
Q 36.625 -13.375 41.015625 -8.765625 
Q 45.40625 -4.15625 45.40625 5.171875 
L 45.40625 9.625 
Q 42.625 4.78125 38.28125 2.390625 
Q 33.9375 0 27.875 0 
Q 17.828125 0 11.671875 7.65625 
Q 5.515625 15.328125 5.515625 27.984375 
Q 5.515625 40.671875 11.671875 48.328125 
Q 17.828125 56 27.875 56 
Q 33.9375 56 38.28125 53.609375 
Q 42.625 51.21875 45.40625 46.390625 
L 45.40625 54.6875 
L 54.390625 54.6875 
z
" id="DejaVuSans-67"/>
      <path id="DejaVuSans-20"/>
      <path d="M 4.203125 54.6875 
L 13.1875 54.6875 
L 24.421875 12.015625 
L 35.59375 54.6875 
L 46.1875 54.6875 
L 57.421875 12.015625 
L 68.609375 54.6875 
L 77.59375 54.6875 
L 63.28125 0 
L 52.6875 0 
L 40.921875 44.828125 
L 29.109375 0 
L 18.5 0 
z
" id="DejaVuSans-77"/>
      <path d="M 45.40625 46.390625 
L 45.40625 75.984375 
L 54.390625 75.984375 
L 54.390625 0 
L 45.40625 0 
L 45.40625 8.203125 
Q 42.578125 3.328125 38.25 0.953125 
Q 33.9375 -1.421875 27.875 -1.421875 
Q 17.96875 -1.421875 11.734375 6.484375 
Q 5.515625 14.40625 5.515625 27.296875 
Q 5.515625 40.1875 11.734375 48.09375 
Q 17.96875 56 27.875 56 
Q 33.9375 56 38.25 53.625 
Q 42.578125 51.265625 45.40625 46.390625 
z
M 14.796875 27.296875 
Q 14.796875 17.390625 18.875 11.75 
Q 22.953125 6.109375 30.078125 6.109375 
Q 37.203125 6.109375 41.296875 11.75 
Q 45.40625 17.390625 45.40625 27.296875 
Q 45.40625 37.203125 41.296875 42.84375 
Q 37.203125 48.484375 30.078125 48.484375 
Q 22.953125 48.484375 18.875 42.84375 
Q 14.796875 37.203125 14.796875 27.296875 
z
" id="DejaVuSans-64"/>
     </defs>
     <g transform="translate(16.017187 149.004219)rotate(-90)scale(0.1 -0.1)">
      <use xlink:href="#DejaVuSans-41"/>
      <use x="68.330078" xlink:href="#DejaVuSans-76"/>
      <use x="127.509766" xlink:href="#DejaVuSans-65"/>
      <use x="189.033203" xlink:href="#DejaVuSans-72"/>
      <use x="230.146484" xlink:href="#DejaVuSans-61"/>
      <use x="291.425781" xlink:href="#DejaVuSans-67"/>
      <use x="354.902344" xlink:href="#DejaVuSans-65"/>
      <use x="416.425781" xlink:href="#DejaVuSans-20"/>
      <use x="448.212891" xlink:href="#DejaVuSans-72"/>
      <use x="489.294922" xlink:href="#DejaVuSans-65"/>
      <use x="550.818359" xlink:href="#DejaVuSans-77"/>
      <use x="632.605469" xlink:href="#DejaVuSans-61"/>
      <use x="693.884766" xlink:href="#DejaVuSans-72"/>
      <use x="734.982422" xlink:href="#DejaVuSans-64"/>
     </g>
    </g>
   </g>
   <g id="line2d_10">
    <path clip-path="url(#p4d73fd792a)" d="M 57.681818 136.015453 
L 57.935708 104.079805 
L 58.189599 117.133607 
L 58.697379 99.145591 
L 58.951269 112.999632 
L 59.20516 133.991777 
L 59.45905 84.68683 
L 59.71294 86.96125 
L 59.96683 88.156664 
L 60.220721 93.791015 
L 60.474611 116.086623 
L 60.728501 124.589247 
L 60.982391 102.11361 
L 61.236282 91.701643 
L 61.490172 99.692368 
L 61.744062 88.770539 
L 61.997952 125.479012 
L 62.251843 101.343169 
L 62.505733 151.76909 
L 62.759623 165.099983 
L 63.013514 85.265624 
L 63.267404 100.246153 
L 63.775184 75.800266 
L 64.029075 98.199596 
L 64.282965 83.904609 
L 64.536855 89.318977 
L 65.044636 123.220208 
L 65.298526 113.326873 
L 65.552416 134.214242 
L 65.806306 107.031921 
L 66.060197 104.830416 
L 66.314087 57.677002 
L 66.567977 63.642389 
L 66.821867 132.954421 
L 67.329648 84.916207 
L 67.583538 124.857248 
L 67.837428 103.98521 
L 68.091319 109.934163 
L 68.345209 96.663717 
L 68.599099 115.374763 
L 68.852989 103.373399 
L 69.10688 138.690818 
L 69.36077 54.653679 
L 69.61466 83.920408 
L 69.86855 75.744228 
L 70.122441 88.270904 
L 70.376331 86.691375 
L 70.630221 67.15607 
L 70.884111 83.331739 
L 71.138002 86.183834 
L 71.645782 95.837921 
L 71.899672 70.234176 
L 72.407453 92.990502 
L 72.661343 89.658953 
L 72.915233 103.723821 
L 73.169124 98.226803 
L 73.423014 60.845331 
L 73.676904 71.392886 
L 73.930794 55.877904 
L 74.184685 104.566482 
L 74.438575 101.451415 
L 74.692465 111.460091 
L 74.946355 87.724363 
L 75.200246 81.853946 
L 75.454136 66.219904 
L 75.708026 106.040157 
L 75.961916 52.83641 
L 76.215807 106.278834 
L 76.469697 99.586425 
L 76.723587 70.446864 
L 76.977477 119.530447 
L 77.231368 91.016422 
L 77.485258 86.658895 
L 77.739148 127.84395 
L 77.993038 128.719869 
L 78.246929 123.568974 
L 78.500819 78.604933 
L 78.754709 77.996953 
L 79.0086 119.1723 
L 79.26249 68.073488 
L 79.51638 104.081039 
L 79.77027 92.47453 
L 80.024161 60.449434 
L 80.278051 109.428943 
L 80.531941 106.765986 
L 80.785831 125.221815 
L 81.039722 86.960637 
L 81.293612 86.423737 
L 81.547502 105.230149 
L 81.801392 139.627179 
L 82.055283 104.0453 
L 82.309173 92.3058 
L 82.563063 110.456603 
L 82.816953 116.608416 
L 83.070844 67.679008 
L 83.324734 63.456755 
L 83.578624 119.24571 
L 84.086405 71.974638 
L 84.340295 104.87077 
L 84.594185 110.860217 
L 84.848075 102.86832 
L 85.101966 101.052551 
L 85.355856 124.25666 
L 85.863636 77.615003 
L 86.117527 117.617061 
L 86.371417 75.169287 
L 86.625307 97.788067 
L 86.879197 73.200752 
L 87.133088 83.696856 
L 87.386978 99.054017 
L 87.640868 98.994238 
L 87.894758 99.262828 
L 88.148649 107.410194 
L 88.402539 87.881121 
L 88.656429 142.614421 
L 88.910319 113.528331 
L 89.16421 63.404419 
L 89.4181 108.749212 
L 89.67199 46.933657 
L 89.92588 90.021912 
L 90.179771 94.913959 
L 90.433661 105.653904 
L 90.687551 96.450723 
L 90.941441 78.634894 
L 91.195332 99.350321 
L 91.449222 73.50752 
L 91.703112 82.024068 
L 91.957002 103.68338 
L 92.210893 90.002851 
L 92.464783 119.98311 
L 92.718673 104.165724 
L 92.972563 62.888107 
L 93.480344 105.891647 
L 94.242015 74.383785 
L 94.495905 97.912878 
L 95.003686 80.329016 
L 95.257576 59.408591 
L 95.511466 104.777959 
L 95.765356 90.949093 
L 96.019247 105.447887 
L 96.273137 100.329313 
L 96.527027 71.831097 
L 96.780917 100.648586 
L 97.034808 107.829857 
L 97.542588 82.809438 
L 98.050369 94.155752 
L 98.558149 77.218394 
L 98.812039 86.171685 
L 99.06593 157.778657 
L 99.31982 140.514746 
L 99.57371 74.267302 
L 99.8276 138.788991 
L 100.081491 83.578492 
L 100.335381 90.622592 
L 100.589271 82.064493 
L 100.843161 80.848322 
L 101.097052 116.771779 
L 101.350942 64.829512 
L 101.604832 65.102168 
L 101.858722 78.799497 
L 102.112613 122.989968 
L 102.366503 112.287278 
L 102.620393 95.437586 
L 102.874283 65.848237 
L 103.128174 103.922929 
L 103.382064 71.221013 
L 103.635954 67.421466 
L 103.889844 130.294866 
L 104.143735 82.481225 
L 104.397625 145.486464 
L 104.651515 89.234945 
L 105.159296 95.295275 
L 105.413186 82.826876 
L 105.667076 90.132434 
L 105.920966 138.446311 
L 106.174857 90.945161 
L 106.682637 71.245433 
L 107.444308 122.462224 
L 107.698198 58.077332 
L 108.205979 125.362572 
L 108.459869 81.710392 
L 108.713759 71.770482 
L 108.967649 113.404924 
L 109.22154 109.993159 
L 109.47543 124.983539 
L 109.72932 114.784305 
L 109.98321 150.449174 
L 110.237101 77.430151 
L 110.490991 113.916267 
L 110.744881 99.309774 
L 110.998771 121.250983 
L 111.506552 94.456979 
L 111.760442 88.803767 
L 112.014333 102.991282 
L 112.268223 90.199614 
L 112.522113 111.882827 
L 113.283784 63.307341 
L 113.537674 106.711784 
L 113.791564 121.814367 
L 114.045455 88.758056 
L 114.299345 106.736586 
L 114.553235 102.608022 
L 114.807125 66.794317 
L 115.061016 98.577523 
L 115.314906 102.803456 
L 115.568796 104.31177 
L 115.822686 83.612488 
L 116.076577 107.954814 
L 116.330467 90.963425 
L 116.584357 91.999989 
L 116.838247 90.160903 
L 117.092138 110.352592 
L 117.346028 108.154624 
L 117.599918 119.154942 
L 117.853808 63.176968 
L 118.107699 62.292826 
L 118.361589 103.401026 
L 118.615479 110.008789 
L 118.869369 104.141679 
L 119.12326 64.274614 
L 119.63104 91.194707 
L 119.88493 96.375676 
L 120.138821 96.807923 
L 120.392711 105.509734 
L 120.646601 83.373363 
L 121.154382 110.572999 
L 121.408272 108.678495 
L 121.662162 35.996848 
L 122.169943 125.731061 
L 122.423833 126.559037 
L 122.677723 69.941 
L 122.931613 78.576454 
L 123.185504 93.030886 
L 123.439394 75.694089 
L 123.693284 102.23527 
L 123.947174 115.54891 
L 124.201065 110.110137 
L 124.454955 81.737353 
L 124.708845 102.676286 
L 124.962735 82.973864 
L 125.216626 93.073329 
L 125.470516 94.25876 
L 125.724406 97.316482 
L 125.978296 44.061921 
L 126.232187 86.569805 
L 126.486077 87.586978 
L 126.739967 100.146609 
L 126.993857 91.906057 
L 127.247748 77.194405 
L 127.501638 87.734146 
L 127.755528 66.641643 
L 128.009419 76.72614 
L 128.263309 125.334615 
L 128.517199 79.170281 
L 129.02498 108.145505 
L 129.27887 108.265267 
L 129.53276 95.469378 
L 129.78665 120.102959 
L 130.040541 98.79355 
L 130.294431 67.626018 
L 130.548321 105.703535 
L 130.802211 75.976861 
L 131.056102 67.046284 
L 131.309992 75.986423 
L 131.817772 119.683831 
L 132.325553 92.216881 
L 132.579443 104.844477 
L 132.833333 82.329554 
L 133.087224 106.719531 
L 133.341114 93.136362 
L 133.595004 87.958278 
L 133.848894 133.905378 
L 134.102785 86.495265 
L 134.356675 109.561283 
L 134.610565 86.713359 
L 134.864455 108.724088 
L 135.372236 70.775148 
L 135.626126 72.482803 
L 135.880016 132.136717 
L 136.133907 89.703939 
L 136.387797 114.296693 
L 136.641687 71.986143 
L 136.895577 106.414731 
L 137.149468 113.257844 
L 137.403358 104.308329 
L 137.657248 55.254462 
L 137.911138 102.380653 
L 138.165029 116.981643 
L 138.418919 81.059728 
L 138.672809 112.636864 
L 138.926699 66.158625 
L 139.18059 76.428794 
L 139.43448 46.126349 
L 139.68837 128.89599 
L 139.94226 81.220554 
L 140.196151 54.654435 
L 140.450041 131.973629 
L 140.703931 111.26356 
L 140.957821 122.727276 
L 141.211712 93.080724 
L 141.465602 109.435858 
L 141.719492 114.28215 
L 141.973382 76.598707 
L 142.227273 99.765302 
L 142.481163 72.730076 
L 142.735053 125.42838 
L 142.988943 82.667411 
L 143.242834 87.938535 
L 143.496724 98.721114 
L 143.750614 96.932313 
L 144.004505 73.066402 
L 144.258395 72.322602 
L 144.512285 142.6577 
L 144.766175 105.58745 
L 145.020066 96.808957 
L 145.273956 127.217925 
L 145.527846 64.734888 
L 145.781736 91.706214 
L 146.035627 64.823396 
L 146.289517 93.617983 
L 146.543407 98.931517 
L 146.797297 81.828216 
L 147.051188 111.529944 
L 147.558968 78.352737 
L 147.812858 96.755362 
L 148.066749 86.241517 
L 148.320639 84.014913 
L 148.574529 94.060902 
L 148.828419 79.937009 
L 149.08231 86.826936 
L 149.3362 114.525841 
L 149.59009 77.367187 
L 149.84398 126.492704 
L 150.097871 119.647544 
L 150.351761 87.496122 
L 150.859541 117.478028 
L 151.113432 121.730862 
L 151.367322 92.487383 
L 151.621212 100.676247 
L 151.875102 72.675066 
L 152.128993 74.633634 
L 152.382883 95.858267 
L 152.636773 78.684426 
L 152.890663 90.628441 
L 153.144554 112.877037 
L 153.398444 72.741229 
L 153.652334 71.675091 
L 153.906224 103.630827 
L 154.160115 116.607616 
L 154.414005 97.330833 
L 154.667895 93.133921 
L 154.921785 77.740631 
L 155.429566 114.535457 
L 155.683456 77.099591 
L 155.937346 77.521002 
L 156.191237 113.712121 
L 156.445127 94.125533 
L 156.699017 117.915463 
L 156.952907 98.982461 
L 157.206798 92.09419 
L 157.460688 103.87334 
L 157.714578 108.941218 
L 157.968468 91.800218 
L 158.222359 89.076608 
L 158.476249 122.395381 
L 158.730139 85.291383 
L 158.984029 88.362668 
L 159.23792 93.86845 
L 159.49181 91.566916 
L 159.7457 61.250799 
L 159.99959 117.734927 
L 160.253481 99.394033 
L 160.507371 90.476049 
L 160.761261 86.887477 
L 161.015152 99.683646 
L 161.269042 91.625406 
L 161.522932 75.384625 
L 161.776822 91.872765 
L 162.030713 143.549393 
L 162.538493 76.261976 
L 162.792383 75.317029 
L 163.046274 108.697253 
L 163.300164 95.906036 
L 163.554054 90.805271 
L 163.807944 96.094683 
L 164.061835 112.838478 
L 164.315725 73.125386 
L 164.569615 110.22122 
L 164.823505 100.811819 
L 165.077396 87.106912 
L 165.585176 123.390245 
L 165.839066 70.476788 
L 166.092957 108.404638 
L 166.346847 87.597091 
L 166.600737 122.340501 
L 167.108518 87.092286 
L 167.362408 96.035753 
L 167.616298 59.41137 
L 167.870188 86.816935 
L 168.124079 99.05724 
L 168.377969 73.84326 
L 168.631859 115.097418 
L 169.13964 96.551895 
L 169.39353 113.177923 
L 169.64742 93.645519 
L 169.90131 118.609531 
L 170.155201 65.679061 
L 170.409091 59.583148 
L 171.170762 111.10321 
L 171.424652 87.933875 
L 171.678542 86.95316 
L 171.932432 104.916168 
L 172.186323 102.680671 
L 172.440213 103.231316 
L 172.694103 117.258631 
L 172.947993 116.119954 
L 173.201884 77.768856 
L 173.455774 99.850438 
L 173.709664 64.218521 
L 173.963554 47.181755 
L 174.217445 121.800404 
L 174.471335 86.441674 
L 174.725225 96.961002 
L 174.979115 88.077794 
L 175.233006 67.378521 
L 175.486896 126.396819 
L 175.740786 82.642794 
L 175.994676 71.042953 
L 176.248567 93.045038 
L 176.502457 105.021499 
L 176.756347 75.504759 
L 177.010238 105.837129 
L 177.264128 104.075386 
L 177.518018 78.199014 
L 177.771908 84.987197 
L 178.025799 112.461488 
L 178.279689 122.109474 
L 178.533579 69.166937 
L 178.787469 111.035977 
L 179.04136 92.519652 
L 179.29525 134.128287 
L 179.54914 99.271508 
L 179.80303 105.754415 
L 180.310811 86.269037 
L 180.564701 93.639549 
L 180.818591 119.748231 
L 181.326372 83.666521 
L 181.580262 117.169796 
L 181.834152 122.938867 
L 182.088043 92.267575 
L 182.341933 96.856269 
L 182.849713 116.738983 
L 183.103604 90.633625 
L 183.357494 90.157908 
L 183.611384 96.987471 
L 183.865274 100.318371 
L 184.119165 74.420367 
L 184.373055 82.802744 
L 184.626945 112.897872 
L 184.880835 111.326746 
L 185.134726 85.906027 
L 185.388616 100.840238 
L 185.642506 131.806363 
L 185.896396 120.388539 
L 186.150287 120.635917 
L 186.404177 36.379867 
L 186.658067 133.250556 
L 186.911957 114.753699 
L 187.165848 132.690422 
L 187.419738 70.143333 
L 187.673628 77.118994 
L 187.927518 73.081379 
L 188.181409 93.762448 
L 188.435299 93.797739 
L 188.689189 66.235232 
L 188.943079 89.937721 
L 189.19697 85.715809 
L 189.45086 113.361582 
L 189.70475 66.008458 
L 189.95864 87.31346 
L 190.212531 96.908119 
L 190.466421 71.73329 
L 190.720311 123.540332 
L 190.974201 98.685156 
L 191.228092 102.320422 
L 191.481982 84.761784 
L 191.735872 81.299439 
L 191.989762 68.792176 
L 192.243653 128.181297 
L 192.497543 86.163092 
L 192.751433 128.293865 
L 193.005324 106.142872 
L 193.259214 70.43955 
L 193.766994 107.892673 
L 194.020885 89.955776 
L 194.274775 84.565751 
L 194.528665 95.623606 
L 194.782555 76.097409 
L 195.036446 68.703318 
L 195.290336 107.798654 
L 195.544226 79.637348 
L 195.798116 99.011011 
L 196.052007 108.000545 
L 196.305897 60.826423 
L 196.559787 101.170292 
L 196.813677 82.734538 
L 197.067568 120.723356 
L 197.321458 89.996195 
L 197.575348 93.114801 
L 197.829238 87.457136 
L 198.337019 107.533206 
L 198.590909 109.745222 
L 198.844799 64.121638 
L 199.09869 68.713452 
L 199.35258 102.095352 
L 199.60647 96.194914 
L 199.86036 122.263325 
L 200.114251 122.168818 
L 200.368141 119.314245 
L 200.622031 127.750553 
L 200.875921 100.394607 
L 201.129812 124.20072 
L 201.383702 88.725511 
L 201.637592 92.83742 
L 201.891482 94.881781 
L 202.145373 74.715069 
L 202.399263 77.273651 
L 202.653153 82.402564 
L 202.907043 97.911337 
L 203.160934 93.858058 
L 203.414824 103.663234 
L 203.668714 98.856933 
L 204.176495 74.396969 
L 204.430385 132.538315 
L 204.938165 74.120438 
L 205.192056 117.846001 
L 205.445946 108.257627 
L 205.699836 92.872537 
L 205.953726 95.423154 
L 206.461507 96.879652 
L 206.715397 56.678568 
L 206.969287 101.14441 
L 207.223178 91.361796 
L 207.477068 99.387438 
L 207.730958 69.195474 
L 207.984848 92.403119 
L 208.238739 94.111269 
L 208.492629 115.521914 
L 209.2543 90.024366 
L 209.50819 123.26999 
L 209.76208 106.179524 
L 210.269861 89.464685 
L 210.523751 96.202769 
L 211.031532 79.123225 
L 211.285422 73.967002 
L 211.539312 121.732668 
L 212.047093 70.920759 
L 212.300983 97.639321 
L 212.808763 121.239013 
L 213.062654 99.816056 
L 213.570434 119.053781 
L 213.824324 89.522539 
L 214.078215 107.035828 
L 214.332105 94.350283 
L 214.585995 95.071808 
L 214.839885 102.47044 
L 215.093776 129.71848 
L 215.347666 91.142774 
L 215.601556 100.519868 
L 215.855446 80.064772 
L 216.109337 79.427656 
L 216.363227 105.457514 
L 216.617117 111.493401 
L 216.871007 55.451179 
L 217.124898 105.760031 
L 217.378788 99.594885 
L 217.632678 89.306548 
L 217.886568 70.773829 
L 218.140459 95.62594 
L 218.394349 62.341448 
L 218.648239 100.518681 
L 218.902129 98.19472 
L 219.15602 100.431484 
L 219.40991 115.714054 
L 219.91769 84.274732 
L 220.171581 116.708061 
L 220.425471 92.7527 
L 220.679361 87.960409 
L 220.933251 125.190522 
L 221.187142 97.513013 
L 221.441032 101.309642 
L 221.694922 89.480182 
L 221.948812 70.560377 
L 222.202703 130.987296 
L 222.456593 113.486435 
L 222.710483 87.35851 
L 222.964373 95.098296 
L 223.218264 78.658846 
L 223.472154 91.762901 
L 223.726044 79.190503 
L 223.979934 76.367599 
L 224.233825 113.111521 
L 224.487715 85.865109 
L 224.741605 93.828433 
L 224.995495 95.451811 
L 225.249386 124.863476 
L 225.503276 108.219643 
L 225.757166 80.126639 
L 226.011057 96.822234 
L 226.264947 80.244542 
L 226.518837 126.712377 
L 226.772727 101.657542 
L 227.026618 98.554333 
L 227.280508 106.243729 
L 227.534398 119.409856 
L 227.788288 113.233612 
L 228.042179 134.158781 
L 228.549959 72.644743 
L 228.803849 106.031625 
L 229.05774 90.550674 
L 229.56552 118.36456 
L 229.81941 76.031958 
L 230.073301 113.481847 
L 230.327191 132.406658 
L 230.581081 86.665095 
L 231.088862 73.799089 
L 231.342752 113.777353 
L 231.596642 103.753633 
L 231.850532 114.135279 
L 232.104423 102.773654 
L 232.358313 71.710114 
L 232.612203 77.692296 
L 232.866093 55.624174 
L 233.119984 102.626187 
L 233.373874 111.962255 
L 233.627764 100.803698 
L 233.881654 80.023054 
L 234.135545 105.521797 
L 234.389435 66.408023 
L 234.643325 116.840946 
L 234.897215 81.607168 
L 235.151106 129.718812 
L 235.404996 110.370921 
L 235.658886 111.942892 
L 235.912776 93.41813 
L 236.166667 91.294368 
L 236.420557 123.63866 
L 236.674447 84.959936 
L 236.928337 97.640896 
L 237.182228 89.192843 
L 237.436118 117.860158 
L 237.690008 75.728702 
L 237.943898 99.733353 
L 238.197789 111.09933 
L 238.451679 82.966601 
L 238.705569 102.438369 
L 238.959459 104.307488 
L 239.21335 133.020721 
L 239.46724 112.683802 
L 239.72113 122.825044 
L 239.97502 112.759979 
L 240.228911 125.807832 
L 240.482801 80.930006 
L 240.990581 119.390355 
L 241.244472 122.261784 
L 241.498362 78.383904 
L 241.752252 86.962351 
L 242.006143 106.182752 
L 242.260033 99.153509 
L 242.513923 100.404366 
L 242.767813 73.208319 
L 243.021704 70.919967 
L 243.275594 90.625298 
L 243.529484 97.202739 
L 243.783374 115.224629 
L 244.037265 84.243856 
L 244.545045 107.822669 
L 244.798935 84.088199 
L 245.052826 101.788275 
L 245.306716 97.529233 
L 245.814496 82.878228 
L 246.068387 85.237634 
L 246.322277 113.837375 
L 246.576167 111.882547 
L 246.830057 116.37378 
L 247.083948 113.302391 
L 247.337838 96.061757 
L 247.845618 126.099402 
L 248.099509 44.036057 
L 248.353399 110.263419 
L 248.607289 84.438411 
L 248.861179 105.950543 
L 249.11507 78.702781 
L 249.36896 110.828102 
L 249.62285 104.688668 
L 249.87674 70.114077 
L 250.130631 96.615684 
L 250.384521 109.128746 
L 250.638411 72.767961 
L 250.892301 101.294418 
L 251.146192 100.017764 
L 251.400082 109.228906 
L 251.907862 91.657715 
L 252.161753 116.17956 
L 252.669533 92.57837 
L 252.923423 120.054835 
L 253.177314 97.305555 
L 253.431204 97.137575 
L 253.685094 78.969234 
L 253.938984 101.776419 
L 254.192875 94.19544 
L 254.446765 59.420786 
L 254.700655 75.184078 
L 254.954545 70.763778 
L 255.208436 87.582883 
L 255.462326 95.569739 
L 255.716216 99.55367 
L 255.970106 81.475899 
L 256.223997 124.01662 
L 256.477887 113.944919 
L 256.731777 69.086443 
L 256.985667 77.197155 
L 257.239558 125.713552 
L 257.493448 81.528706 
L 257.747338 86.063698 
L 258.255119 102.411833 
L 258.509009 101.814708 
L 258.762899 110.969786 
L 259.01679 75.185537 
L 259.27068 94.876444 
L 259.52457 137.082353 
L 259.77846 92.766118 
L 260.032351 106.126267 
L 260.286241 87.124403 
L 260.540131 86.642793 
L 260.794021 107.229868 
L 261.047912 96.524983 
L 261.301802 96.052242 
L 261.555692 96.775133 
L 261.809582 63.010929 
L 262.317363 103.572712 
L 262.571253 73.697519 
L 262.825143 112.664667 
L 263.079034 78.567579 
L 263.332924 75.099989 
L 263.586814 98.395193 
L 263.840704 99.072446 
L 264.602375 48.010715 
L 264.856265 88.499715 
L 265.110156 84.894844 
L 265.364046 75.733151 
L 265.617936 84.809594 
L 265.871826 109.952832 
L 266.125717 79.365974 
L 266.379607 96.02643 
L 266.633497 125.785478 
L 266.887387 132.79776 
L 267.141278 91.170426 
L 267.395168 76.97276 
L 267.902948 113.840908 
L 268.410729 81.000714 
L 268.664619 112.544663 
L 268.918509 88.308039 
L 269.42629 107.717155 
L 269.68018 58.472647 
L 269.93407 95.820428 
L 270.187961 112.571931 
L 270.441851 102.161376 
L 270.695741 75.293031 
L 270.949631 96.691811 
L 271.203522 88.218444 
L 271.457412 85.852677 
L 271.711302 110.937507 
L 271.965192 120.069908 
L 272.219083 151.025352 
L 272.472973 95.89118 
L 272.726863 95.331206 
L 272.980753 98.130198 
L 273.234644 80.638532 
L 273.488534 125.12881 
L 273.742424 81.894207 
L 273.996314 83.415387 
L 274.250205 79.911612 
L 274.504095 97.771382 
L 275.011876 80.394192 
L 275.265766 116.516251 
L 275.519656 101.007398 
L 275.773546 102.352334 
L 276.027437 64.506778 
L 276.281327 99.667224 
L 276.535217 104.875522 
L 276.789107 139.808825 
L 277.042998 89.081665 
L 277.296888 119.925293 
L 277.550778 78.04903 
L 277.804668 120.293769 
L 278.058559 130.726553 
L 278.312449 135.133802 
L 278.820229 80.578902 
L 279.32801 94.781037 
L 279.5819 113.979004 
L 279.83579 122.112707 
L 280.089681 80.273534 
L 280.343571 89.755619 
L 280.851351 122.677342 
L 281.105242 84.80768 
L 281.359132 96.793178 
L 281.613022 118.631062 
L 281.866912 84.775125 
L 282.120803 89.863897 
L 282.374693 106.971122 
L 282.882473 90.98601 
L 283.136364 117.732692 
L 283.390254 75.81694 
L 283.644144 88.897852 
L 283.898034 70.875276 
L 284.151925 119.71996 
L 284.405815 116.23856 
L 284.659705 100.298892 
L 284.913595 124.72087 
L 285.167486 121.284074 
L 285.421376 84.918825 
L 285.675266 104.814363 
L 285.929156 99.721917 
L 286.183047 103.368193 
L 286.436937 101.166104 
L 286.690827 93.823349 
L 286.944717 122.441165 
L 287.198608 111.197991 
L 287.452498 119.261333 
L 287.706388 91.905243 
L 287.960278 106.231411 
L 288.214169 131.014784 
L 288.721949 78.945845 
L 288.975839 96.557263 
L 289.22973 68.549364 
L 289.48362 87.624913 
L 289.73751 62.02392 
L 289.9914 69.038192 
L 290.245291 97.983702 
L 290.499181 83.354298 
L 290.753071 81.136098 
L 291.006962 88.037241 
L 291.260852 72.266017 
L 291.514742 88.649776 
L 291.768632 73.755686 
L 292.022523 67.309177 
L 292.276413 103.53397 
L 292.530303 97.141436 
L 292.784193 106.66378 
L 293.038084 104.761828 
L 293.545864 79.152027 
L 293.799754 136.603249 
L 294.053645 129.386531 
L 294.307535 112.966294 
L 294.561425 115.432866 
L 294.815315 57.447708 
L 295.069206 111.231221 
L 295.323096 110.308464 
L 295.576986 88.494111 
L 295.830876 93.26951 
L 296.084767 82.42203 
L 296.338657 84.377715 
L 296.592547 99.182778 
L 296.846437 64.298704 
L 297.100328 115.26264 
L 297.354218 85.829175 
L 297.608108 91.223904 
L 297.861998 88.816081 
L 298.115889 102.892497 
L 298.369779 106.901818 
L 298.623669 95.744629 
L 298.877559 109.886997 
L 299.13145 84.904388 
L 299.38534 103.08053 
L 299.63923 83.09665 
L 299.89312 137.067754 
L 300.147011 117.786701 
L 300.400901 80.803004 
L 300.908681 127.952218 
L 301.162572 135.694445 
L 301.670352 80.763557 
L 301.924242 137.982623 
L 302.178133 109.995643 
L 302.432023 94.717044 
L 302.685913 121.434058 
L 302.939803 108.463359 
L 303.193694 116.909472 
L 303.447584 100.055488 
L 303.701474 95.475454 
L 303.955364 84.576155 
L 304.209255 91.333944 
L 304.463145 58.568672 
L 304.717035 125.584592 
L 304.970925 90.011332 
L 305.224816 110.906668 
L 305.478706 108.341024 
L 305.732596 108.790331 
L 306.240377 116.097547 
L 306.494267 107.275953 
L 306.748157 117.793062 
L 307.002048 99.259854 
L 307.255938 104.168355 
L 307.509828 104.57576 
L 307.763718 92.840865 
L 308.017609 113.022879 
L 308.271499 106.585756 
L 308.525389 119.560971 
L 308.779279 139.499304 
L 309.28706 73.4306 
L 309.54095 86.777631 
L 309.79484 88.267621 
L 310.048731 104.522481 
L 310.302621 80.053481 
L 310.556511 80.099016 
L 310.810401 93.753834 
L 311.064292 88.379514 
L 311.318182 105.100934 
L 311.318182 105.100934 
" style="fill:none;stroke:#1f77b4;stroke-linecap:square;stroke-width:1.5;"/>
   </g>
   <g id="line2d_11">
    <path clip-path="url(#p4d73fd792a)" d="M 57.681818 82.907051 
L 57.935708 79.450409 
L 58.443489 127.0746 
L 58.697379 88.724726 
L 58.951269 107.538888 
L 59.20516 142.200037 
L 59.45905 105.360814 
L 59.71294 127.614358 
L 59.96683 120.612491 
L 60.220721 109.292809 
L 60.474611 137.153368 
L 60.728501 134.402234 
L 60.982391 107.554221 
L 61.236282 149.791556 
L 61.490172 160.22849 
L 61.744062 124.66093 
L 61.997952 138.045537 
L 62.251843 101.18861 
L 62.505733 120.327864 
L 62.759623 124.7839 
L 63.013514 105.070863 
L 63.267404 104.871087 
L 63.521294 112.678081 
L 63.775184 107.412194 
L 64.029075 94.612648 
L 64.282965 115.005369 
L 64.536855 79.177654 
L 64.790745 82.438854 
L 65.044636 100.033332 
L 65.298526 98.541295 
L 65.552416 149.325013 
L 65.806306 125.711695 
L 66.060197 117.769278 
L 66.314087 97.710733 
L 66.567977 113.341701 
L 66.821867 114.256469 
L 67.075758 71.318806 
L 67.329648 119.560676 
L 67.837428 86.617958 
L 68.091319 68.72268 
L 68.345209 108.326264 
L 68.599099 109.012557 
L 68.852989 121.128986 
L 69.10688 98.185268 
L 69.36077 112.016262 
L 69.61466 90.434494 
L 69.86855 109.467475 
L 70.122441 118.855106 
L 70.376331 78.287753 
L 70.630221 77.791453 
L 70.884111 91.450721 
L 71.138002 120.024505 
L 71.391892 87.81504 
L 71.645782 100.634178 
L 71.899672 89.206439 
L 72.153563 133.13331 
L 72.407453 92.742393 
L 72.661343 73.507385 
L 72.915233 114.052538 
L 73.169124 115.391199 
L 73.423014 92.723374 
L 73.676904 103.583631 
L 73.930794 82.242383 
L 74.184685 98.807623 
L 74.438575 106.698442 
L 74.692465 90.509295 
L 74.946355 116.413502 
L 75.200246 86.904807 
L 75.454136 102.905612 
L 75.708026 110.644715 
L 75.961916 106.178928 
L 76.215807 75.457213 
L 76.469697 75.988942 
L 76.723587 91.815028 
L 76.977477 119.847741 
L 77.485258 64.304934 
L 77.739148 103.144003 
L 77.993038 90.908951 
L 78.246929 88.390895 
L 78.500819 119.413609 
L 78.754709 81.193789 
L 79.0086 96.357371 
L 79.26249 82.712689 
L 79.51638 110.292944 
L 79.77027 119.353637 
L 80.024161 80.987 
L 80.278051 88.866116 
L 80.531941 76.05142 
L 80.785831 91.186774 
L 81.039722 87.178773 
L 81.293612 79.343136 
L 81.547502 142.57295 
L 81.801392 102.582086 
L 82.055283 100.376128 
L 82.309173 56.673169 
L 82.563063 120.565198 
L 82.816953 94.546516 
L 83.070844 91.333396 
L 83.578624 120.712835 
L 83.832514 59.071516 
L 84.086405 111.725504 
L 84.340295 122.480019 
L 84.594185 77.963565 
L 84.848075 107.932673 
L 85.101966 97.695171 
L 85.355856 80.177278 
L 85.863636 112.081344 
L 86.117527 98.165927 
L 86.371417 126.228224 
L 86.625307 109.260274 
L 86.879197 70.014451 
L 87.386978 118.10131 
L 87.640868 91.924324 
L 87.894758 88.478505 
L 88.148649 96.807128 
L 88.402539 73.149337 
L 88.656429 133.688702 
L 88.910319 79.558764 
L 89.16421 104.15149 
L 89.4181 100.45496 
L 89.67199 101.646018 
L 89.92588 113.612752 
L 90.179771 90.82381 
L 90.433661 90.071811 
L 90.941441 118.243942 
L 91.195332 97.2345 
L 91.449222 118.070937 
L 91.703112 109.323422 
L 91.957002 115.143119 
L 92.210893 114.909268 
L 92.464783 116.705996 
L 92.718673 83.319627 
L 92.972563 88.682047 
L 93.226454 130.851728 
L 93.480344 118.308697 
L 93.734234 114.437375 
L 93.988124 88.261988 
L 94.242015 128.545651 
L 94.749795 82.677852 
L 95.257576 106.382141 
L 95.511466 108.141237 
L 95.765356 77.487675 
L 96.019247 98.150207 
L 96.273137 77.19666 
L 96.780917 136.039282 
L 97.034808 96.087057 
L 97.288698 93.701572 
L 97.542588 100.825557 
L 97.796478 135.267573 
L 98.050369 110.940149 
L 98.558149 101.582235 
L 99.06593 118.961743 
L 99.31982 92.116613 
L 99.57371 83.223163 
L 99.8276 107.766768 
L 100.081491 97.038505 
L 100.335381 117.735796 
L 100.589271 113.838243 
L 100.843161 88.425084 
L 101.350942 102.418855 
L 101.604832 105.292125 
L 102.112613 67.468141 
L 102.366503 118.578496 
L 102.620393 90.835632 
L 102.874283 76.871877 
L 103.128174 103.828862 
L 103.382064 98.098881 
L 103.635954 68.078658 
L 103.889844 110.269206 
L 104.143735 76.424043 
L 104.397625 111.178768 
L 104.651515 120.148575 
L 104.905405 116.386046 
L 105.159296 90.43169 
L 105.413186 94.514188 
L 105.667076 142.518313 
L 105.920966 98.657884 
L 106.174857 105.326506 
L 106.428747 132.250366 
L 106.682637 101.040818 
L 106.936527 112.812305 
L 107.190418 104.783838 
L 107.444308 88.298439 
L 107.698198 62.118716 
L 107.952088 89.974947 
L 108.205979 132.937743 
L 108.459869 84.376597 
L 108.713759 80.865635 
L 108.967649 117.414211 
L 109.22154 101.806949 
L 109.47543 130.55026 
L 109.72932 132.007283 
L 109.98321 87.675868 
L 110.237101 86.55879 
L 110.490991 110.254322 
L 110.744881 98.30906 
L 110.998771 117.062202 
L 111.252662 78.88458 
L 111.506552 92.259048 
L 111.760442 82.276485 
L 112.014333 135.275846 
L 112.522113 83.323974 
L 112.776003 118.56951 
L 113.029894 79.600466 
L 113.537674 93.36209 
L 113.791564 108.260279 
L 114.045455 110.319463 
L 114.299345 103.912815 
L 114.553235 120.19667 
L 115.061016 90.339415 
L 115.314906 112.854503 
L 115.568796 99.948459 
L 115.822686 77.593665 
L 116.076577 71.216706 
L 116.330467 91.464035 
L 116.584357 136.606871 
L 116.838247 135.096208 
L 117.092138 131.582621 
L 117.346028 147.37165 
L 117.599918 95.81954 
L 117.853808 97.181778 
L 118.107699 112.530095 
L 118.361589 105.283395 
L 118.615479 103.416898 
L 118.869369 99.308021 
L 119.12326 88.826521 
L 119.37715 86.748514 
L 119.63104 79.434188 
L 119.88493 126.847215 
L 120.138821 71.665797 
L 120.392711 99.528055 
L 120.646601 83.779338 
L 120.900491 111.438027 
L 121.154382 97.532259 
L 121.408272 108.058188 
L 121.662162 125.822369 
L 122.169943 80.346015 
L 122.423833 102.333701 
L 122.677723 111.996574 
L 122.931613 92.859893 
L 123.185504 119.262359 
L 123.439394 107.644072 
L 123.693284 116.336574 
L 123.947174 83.745968 
L 124.201065 114.545382 
L 124.454955 53.882616 
L 124.708845 115.044532 
L 124.962735 80.707594 
L 125.216626 77.937314 
L 125.470516 87.452916 
L 125.724406 112.765677 
L 125.978296 79.10246 
L 126.232187 83.746274 
L 126.486077 110.830926 
L 126.739967 115.376827 
L 126.993857 124.335814 
L 127.247748 106.532528 
L 127.501638 134.610585 
L 127.755528 93.412203 
L 128.009419 87.650197 
L 128.263309 99.159649 
L 128.517199 102.317302 
L 128.771089 96.243543 
L 129.02498 109.40129 
L 129.27887 108.411272 
L 129.53276 111.53682 
L 129.78665 91.511019 
L 130.040541 88.375453 
L 130.294431 124.516524 
L 130.548321 87.694768 
L 130.802211 75.21746 
L 131.056102 118.256534 
L 131.309992 113.39447 
L 131.563882 101.215959 
L 131.817772 112.712222 
L 132.071663 137.303631 
L 132.325553 121.725257 
L 132.579443 90.714462 
L 133.087224 116.799503 
L 133.341114 108.040223 
L 133.595004 86.325223 
L 133.848894 82.759742 
L 134.102785 126.17239 
L 134.356675 115.08564 
L 134.610565 122.825012 
L 134.864455 109.679077 
L 135.118346 105.494199 
L 135.372236 87.34378 
L 135.626126 107.351045 
L 135.880016 97.877024 
L 136.133907 43.219131 
L 136.387797 152.471178 
L 136.641687 116.892156 
L 136.895577 103.096735 
L 137.149468 77.921405 
L 137.403358 117.907655 
L 137.657248 83.394667 
L 137.911138 112.995635 
L 138.165029 57.04436 
L 138.418919 121.602758 
L 138.672809 90.779298 
L 138.926699 122.542906 
L 139.18059 114.132213 
L 139.43448 140.897056 
L 139.94226 86.643944 
L 140.196151 125.083685 
L 140.450041 56.953642 
L 140.703931 119.335684 
L 140.957821 130.188526 
L 141.211712 97.023144 
L 141.465602 88.580207 
L 141.719492 102.196478 
L 141.973382 139.120145 
L 142.227273 99.162751 
L 142.481163 118.114476 
L 142.735053 116.611216 
L 142.988943 103.198161 
L 143.242834 69.95752 
L 143.750614 107.097412 
L 144.004505 83.303818 
L 144.258395 122.559613 
L 144.512285 99.845943 
L 144.766175 99.205403 
L 145.020066 83.839146 
L 145.273956 93.535578 
L 145.527846 95.507876 
L 145.781736 81.12824 
L 146.035627 144.442002 
L 146.543407 86.479901 
L 146.797297 145.163406 
L 147.051188 79.352868 
L 147.305078 108.123756 
L 147.558968 118.176585 
L 147.812858 81.798214 
L 148.066749 97.926648 
L 148.320639 78.297794 
L 148.574529 126.194083 
L 148.828419 88.795271 
L 149.08231 105.221041 
L 149.3362 107.089643 
L 149.59009 105.284839 
L 149.84398 89.944024 
L 150.097871 88.030931 
L 150.351761 77.237845 
L 150.605651 124.002078 
L 150.859541 112.046476 
L 151.113432 141.353066 
L 151.367322 71.266967 
L 151.621212 112.568398 
L 151.875102 92.966358 
L 152.382883 80.500081 
L 152.636773 100.640695 
L 152.890663 131.645599 
L 153.144554 94.984224 
L 153.398444 115.181088 
L 153.652334 106.551673 
L 153.906224 78.50712 
L 154.160115 87.078798 
L 154.414005 90.721084 
L 154.667895 134.732511 
L 154.921785 125.712478 
L 155.175676 131.107629 
L 155.429566 90.599466 
L 155.683456 98.972146 
L 155.937346 126.922697 
L 156.191237 139.429107 
L 156.445127 93.445398 
L 156.952907 107.801272 
L 157.206798 124.91885 
L 157.460688 122.26216 
L 157.714578 105.536974 
L 157.968468 117.127894 
L 158.222359 117.077036 
L 158.476249 78.374727 
L 158.730139 87.133498 
L 158.984029 147.19271 
L 159.23792 100.430646 
L 159.49181 135.387129 
L 159.99959 77.366136 
L 160.253481 107.374474 
L 160.507371 78.273988 
L 160.761261 91.647631 
L 161.015152 64.340374 
L 161.269042 98.12927 
L 161.522932 72.393653 
L 161.776822 88.896101 
L 162.030713 73.68079 
L 162.284603 82.613493 
L 162.538493 118.19736 
L 162.792383 62.580851 
L 163.046274 99.229443 
L 163.300164 115.234595 
L 163.554054 89.960716 
L 163.807944 105.583733 
L 164.061835 113.182127 
L 164.315725 97.517906 
L 164.569615 113.696728 
L 164.823505 91.933325 
L 165.077396 96.290496 
L 165.585176 126.783802 
L 165.839066 88.389377 
L 166.092957 91.507723 
L 166.346847 125.05582 
L 166.600737 120.233454 
L 166.854627 127.89144 
L 167.362408 85.321615 
L 167.616298 101.701929 
L 167.870188 71.764742 
L 168.377969 116.263923 
L 168.631859 122.849587 
L 169.13964 93.100291 
L 169.64742 117.571307 
L 169.90131 119.619308 
L 170.409091 93.990259 
L 170.662981 65.013988 
L 170.916871 101.492176 
L 171.170762 107.000562 
L 171.424652 95.261938 
L 171.678542 116.481299 
L 171.932432 119.943127 
L 172.186323 158.916666 
L 172.440213 123.261113 
L 172.694103 127.527354 
L 172.947993 106.853545 
L 173.201884 116.276467 
L 173.455774 91.716508 
L 173.709664 80.369175 
L 173.963554 112.786532 
L 174.217445 111.62513 
L 174.471335 100.36131 
L 174.725225 98.071238 
L 174.979115 81.907311 
L 175.233006 108.917923 
L 175.486896 117.533384 
L 175.740786 117.538411 
L 175.994676 95.558849 
L 176.248567 146.786184 
L 176.502457 102.710354 
L 176.756347 78.599396 
L 177.010238 119.312968 
L 177.264128 108.046908 
L 177.518018 116.817752 
L 177.771908 86.612784 
L 178.025799 89.612225 
L 178.279689 65.426844 
L 178.787469 105.399263 
L 179.29525 70.8303 
L 179.54914 87.430902 
L 179.80303 144.254921 
L 180.056921 94.752009 
L 180.310811 123.127858 
L 180.564701 102.997913 
L 180.818591 113.688007 
L 181.072482 105.876941 
L 181.326372 128.953482 
L 181.580262 76.162303 
L 181.834152 120.771137 
L 182.088043 109.340383 
L 182.341933 121.479183 
L 182.595823 96.027069 
L 182.849713 92.226158 
L 183.103604 104.758571 
L 183.611384 86.611067 
L 183.865274 133.931552 
L 184.119165 141.787723 
L 184.373055 99.541338 
L 184.626945 96.196251 
L 184.880835 94.44972 
L 185.134726 80.710724 
L 185.388616 91.011189 
L 185.642506 96.349081 
L 185.896396 107.40214 
L 186.150287 101.489797 
L 186.404177 129.075152 
L 186.658067 95.983432 
L 186.911957 117.857509 
L 187.165848 113.315105 
L 187.419738 135.719769 
L 187.673628 109.760803 
L 187.927518 107.292542 
L 188.181409 81.296354 
L 188.435299 127.854357 
L 188.689189 102.841886 
L 189.19697 86.716926 
L 189.45086 140.275377 
L 189.70475 122.906939 
L 189.95864 92.966351 
L 190.212531 124.029694 
L 190.720311 99.701451 
L 190.974201 137.767747 
L 191.228092 104.890141 
L 191.735872 119.798167 
L 191.989762 93.494128 
L 192.243653 114.596034 
L 192.497543 92.683438 
L 193.259214 134.009314 
L 193.513104 105.844109 
L 193.766994 98.232272 
L 194.020885 95.209395 
L 194.274775 48.733332 
L 194.528665 71.917388 
L 194.782555 82.53805 
L 195.036446 82.102654 
L 195.798116 95.295919 
L 196.052007 122.885423 
L 196.305897 105.391307 
L 197.067568 89.504706 
L 197.321458 103.902279 
L 197.575348 97.42994 
L 197.829238 86.628356 
L 198.083129 95.060871 
L 198.337019 92.01089 
L 198.590909 78.70665 
L 198.844799 124.524334 
L 199.09869 95.042901 
L 199.35258 127.947458 
L 199.60647 123.88799 
L 199.86036 103.948057 
L 200.114251 137.412962 
L 200.368141 86.415618 
L 200.622031 116.348213 
L 200.875921 85.610919 
L 201.129812 120.621364 
L 201.383702 79.657138 
L 201.637592 75.138378 
L 201.891482 106.697339 
L 202.145373 87.892711 
L 202.399263 58.76309 
L 202.653153 101.17067 
L 202.907043 61.64798 
L 203.160934 120.174446 
L 203.414824 98.728206 
L 203.668714 109.298961 
L 203.922604 83.604348 
L 204.176495 104.273909 
L 204.430385 112.993034 
L 204.684275 107.308564 
L 204.938165 84.089566 
L 205.192056 134.898681 
L 205.445946 108.609628 
L 205.699836 164.026567 
L 205.953726 113.617956 
L 206.207617 98.244914 
L 206.461507 99.367979 
L 206.715397 129.306365 
L 206.969287 77.184861 
L 207.223178 71.535074 
L 207.477068 127.829262 
L 207.730958 70.178358 
L 208.238739 140.153441 
L 208.492629 108.304401 
L 208.746519 104.471524 
L 209.00041 111.153073 
L 209.2543 81.878989 
L 209.50819 93.985722 
L 209.76208 76.066416 
L 210.015971 87.573013 
L 210.269861 124.873759 
L 210.523751 94.806118 
L 210.777641 89.007388 
L 211.031532 115.754468 
L 211.285422 105.497494 
L 211.539312 72.398219 
L 211.793202 134.1142 
L 212.047093 104.264772 
L 212.554873 84.971469 
L 212.808763 101.895828 
L 213.062654 104.884975 
L 213.316544 97.513672 
L 213.824324 77.914763 
L 214.078215 82.279165 
L 214.332105 93.059969 
L 214.585995 116.542391 
L 214.839885 107.235687 
L 215.093776 88.404281 
L 215.347666 106.012799 
L 215.601556 106.930771 
L 215.855446 112.74601 
L 216.109337 114.166358 
L 216.363227 130.826292 
L 216.617117 80.576417 
L 216.871007 55.716494 
L 217.124898 116.724027 
L 217.378788 76.535553 
L 217.632678 72.538401 
L 218.140459 129.145221 
L 218.394349 107.594066 
L 218.648239 102.584072 
L 218.902129 109.816896 
L 219.15602 93.346377 
L 219.40991 97.938491 
L 219.6638 120.084779 
L 220.171581 96.181715 
L 220.425471 87.553943 
L 220.679361 66.352313 
L 220.933251 108.933327 
L 221.187142 79.982196 
L 221.441032 86.253374 
L 221.694922 87.671717 
L 221.948812 120.749161 
L 222.202703 81.665229 
L 222.456593 124.233335 
L 222.710483 101.31002 
L 222.964373 57.221431 
L 223.218264 108.421005 
L 223.472154 96.750347 
L 223.726044 103.10622 
L 223.979934 105.470143 
L 224.233825 69.307224 
L 224.487715 74.851677 
L 224.741605 71.69821 
L 224.995495 131.366794 
L 225.249386 100.085922 
L 225.503276 112.995185 
L 225.757166 69.626002 
L 226.264947 121.518697 
L 226.518837 85.038126 
L 226.772727 127.628623 
L 227.026618 108.932931 
L 227.280508 104.761751 
L 227.534398 79.321066 
L 227.788288 122.126662 
L 228.042179 111.08999 
L 228.296069 88.372128 
L 228.549959 103.091196 
L 228.803849 108.133619 
L 229.05774 128.948337 
L 229.31163 85.185152 
L 229.56552 104.969228 
L 229.81941 96.141786 
L 230.327191 91.610537 
L 230.581081 113.667757 
L 230.834971 99.577803 
L 231.088862 128.446714 
L 231.596642 89.463579 
L 231.850532 121.611184 
L 232.104423 110.581479 
L 232.358313 80.925972 
L 232.612203 130.965244 
L 232.866093 67.617216 
L 233.119984 118.839616 
L 233.373874 101.928555 
L 233.627764 94.928525 
L 233.881654 108.780486 
L 234.135545 113.403387 
L 234.389435 133.309451 
L 234.643325 118.025937 
L 234.897215 93.864207 
L 235.151106 141.066786 
L 235.404996 108.871847 
L 235.658886 93.410035 
L 235.912776 100.291754 
L 236.166667 124.978863 
L 236.420557 110.845088 
L 236.674447 126.403175 
L 236.928337 96.11071 
L 237.182228 106.653505 
L 237.436118 79.123498 
L 237.690008 109.235529 
L 237.943898 115.374877 
L 238.197789 101.126652 
L 238.451679 107.291411 
L 238.705569 80.15298 
L 238.959459 109.530548 
L 239.21335 113.216527 
L 239.46724 110.419936 
L 239.72113 57.834478 
L 239.97502 108.433243 
L 240.228911 90.563017 
L 240.736691 81.675655 
L 241.244472 99.269313 
L 241.498362 125.392054 
L 241.752252 128.309522 
L 242.260033 67.922114 
L 242.513923 78.479769 
L 242.767813 118.960285 
L 243.021704 91.783404 
L 243.275594 92.299228 
L 243.529484 75.512397 
L 243.783374 140.683904 
L 244.291155 112.705289 
L 244.798935 63.984961 
L 245.052826 110.43083 
L 245.306716 63.144617 
L 245.814496 129.612469 
L 246.068387 70.838456 
L 246.322277 93.618694 
L 246.576167 104.582358 
L 246.830057 87.688871 
L 247.083948 117.877365 
L 247.337838 122.498627 
L 247.591728 93.443636 
L 247.845618 118.84539 
L 248.099509 74.986162 
L 248.353399 75.46049 
L 248.607289 113.644888 
L 248.861179 86.246257 
L 249.11507 101.031488 
L 249.62285 73.163556 
L 249.87674 98.813072 
L 250.130631 108.473384 
L 250.384521 122.49675 
L 250.638411 94.145162 
L 250.892301 83.996485 
L 251.146192 79.146653 
L 251.400082 98.169962 
L 251.653972 103.580401 
L 251.907862 43.159961 
L 252.161753 73.146424 
L 252.415643 120.963739 
L 252.669533 96.502048 
L 252.923423 110.074737 
L 253.177314 112.615109 
L 253.431204 85.732775 
L 253.685094 44.939079 
L 253.938984 88.335529 
L 254.192875 100.861407 
L 254.446765 106.72502 
L 254.700655 66.316511 
L 254.954545 78.172685 
L 255.208436 80.556016 
L 255.462326 127.48382 
L 255.970106 59.543421 
L 256.223997 86.320806 
L 256.477887 74.704177 
L 256.731777 148.431612 
L 256.985667 107.890629 
L 257.239558 126.150201 
L 257.493448 65.322125 
L 257.747338 103.103237 
L 258.001229 102.854502 
L 258.255119 119.244057 
L 258.509009 153.291895 
L 258.762899 102.87999 
L 259.01679 102.232446 
L 259.27068 106.812543 
L 259.52457 89.70516 
L 259.77846 110.838755 
L 260.032351 107.80325 
L 260.286241 84.10067 
L 260.540131 98.453861 
L 261.047912 51.659907 
L 261.301802 103.372683 
L 261.555692 113.975035 
L 261.809582 115.172365 
L 262.063473 66.096389 
L 262.317363 104.056301 
L 262.571253 94.888453 
L 262.825143 119.344057 
L 263.079034 91.797715 
L 263.332924 92.01643 
L 263.840704 110.765923 
L 264.094595 97.968951 
L 264.348485 122.308363 
L 264.602375 94.544538 
L 264.856265 110.210353 
L 265.110156 117.052929 
L 265.364046 102.089062 
L 265.617936 78.739249 
L 265.871826 71.219408 
L 266.125717 85.678278 
L 266.379607 121.637039 
L 266.633497 83.834092 
L 266.887387 89.750489 
L 267.141278 79.546816 
L 267.395168 85.754795 
L 267.649058 119.643029 
L 268.156839 76.044975 
L 268.410729 124.351581 
L 268.664619 128.50323 
L 268.918509 96.690652 
L 269.1724 122.635638 
L 269.42629 87.415338 
L 269.68018 140.443 
L 269.93407 87.909673 
L 270.187961 98.902772 
L 270.441851 156.752847 
L 270.695741 98.528123 
L 270.949631 92.46963 
L 271.203522 115.396504 
L 271.457412 108.784105 
L 271.711302 110.064622 
L 271.965192 121.455872 
L 272.219083 99.981178 
L 272.472973 111.438899 
L 272.726863 137.402656 
L 272.980753 132.676565 
L 273.234644 83.426264 
L 273.488534 117.591702 
L 273.996314 55.277973 
L 274.250205 95.41615 
L 274.504095 90.269352 
L 274.757985 120.595642 
L 275.011876 83.9586 
L 275.265766 97.4188 
L 275.519656 127.258874 
L 275.773546 80.450253 
L 276.027437 96.859413 
L 276.281327 39.698968 
L 276.535217 63.694567 
L 276.789107 110.768854 
L 277.042998 85.973023 
L 277.296888 135.71932 
L 277.550778 100.762794 
L 277.804668 113.041356 
L 278.058559 65.822776 
L 278.312449 98.798372 
L 278.566339 93.2276 
L 278.820229 93.041854 
L 279.07412 76.3106 
L 279.32801 94.968384 
L 279.5819 129.686035 
L 279.83579 108.163571 
L 280.089681 76.281495 
L 280.343571 111.52062 
L 280.597461 76.60967 
L 280.851351 111.402481 
L 281.105242 124.7682 
L 281.359132 99.027161 
L 281.613022 105.126461 
L 281.866912 87.607106 
L 282.120803 117.779619 
L 282.374693 87.513837 
L 282.628583 100.025202 
L 282.882473 92.210667 
L 283.390254 110.297894 
L 283.644144 109.658907 
L 283.898034 93.598045 
L 284.151925 104.929048 
L 284.405815 96.277762 
L 284.659705 96.957747 
L 284.913595 84.471886 
L 285.167486 121.989821 
L 285.421376 121.251409 
L 285.675266 87.82736 
L 285.929156 87.904133 
L 286.183047 82.928202 
L 286.436937 97.764915 
L 286.690827 120.468193 
L 286.944717 111.917133 
L 287.198608 94.731989 
L 287.452498 94.872879 
L 287.960278 127.273512 
L 288.214169 82.976507 
L 288.468059 92.118332 
L 288.721949 91.540237 
L 288.975839 61.028603 
L 289.22973 74.532001 
L 289.73751 133.006882 
L 289.9914 101.741328 
L 290.245291 98.905765 
L 290.499181 102.266221 
L 290.753071 126.449757 
L 291.006962 105.682441 
L 291.260852 116.264018 
L 291.514742 92.977773 
L 291.768632 116.40808 
L 292.022523 83.664427 
L 292.276413 122.509199 
L 292.530303 126.864424 
L 292.784193 138.020589 
L 293.291974 83.30055 
L 293.545864 114.646343 
L 294.307535 63.323733 
L 294.561425 80.981033 
L 294.815315 69.960558 
L 295.069206 88.512768 
L 295.323096 116.292991 
L 295.576986 127.958838 
L 295.830876 128.840818 
L 296.084767 80.477143 
L 296.338657 125.856838 
L 296.592547 96.337112 
L 296.846437 105.543446 
L 297.100328 133.830029 
L 297.354218 82.178238 
L 297.608108 89.085081 
L 297.861998 117.357894 
L 298.115889 120.449843 
L 298.623669 95.17996 
L 298.877559 96.339156 
L 299.13145 92.857835 
L 299.38534 101.291174 
L 299.63923 82.041723 
L 299.89312 108.337351 
L 300.400901 70.520278 
L 300.654791 117.050644 
L 300.908681 105.398486 
L 301.162572 112.147161 
L 301.416462 126.593943 
L 301.670352 110.952873 
L 301.924242 128.67343 
L 302.178133 99.696773 
L 302.685913 115.946945 
L 302.939803 108.888462 
L 303.193694 87.131534 
L 303.447584 47.09797 
L 303.701474 84.146906 
L 303.955364 73.237627 
L 304.209255 104.971373 
L 304.463145 102.740925 
L 304.717035 89.685512 
L 304.970925 107.686022 
L 305.224816 138.351605 
L 305.478706 66.726389 
L 305.732596 130.413639 
L 305.986486 120.199319 
L 306.240377 104.819719 
L 306.494267 63.003137 
L 307.002048 86.860481 
L 307.255938 77.201242 
L 307.509828 125.92375 
L 307.763718 122.000127 
L 308.017609 100.548186 
L 308.271499 113.413892 
L 308.525389 109.84356 
L 308.779279 102.298237 
L 309.03317 87.311466 
L 309.28706 115.755852 
L 309.54095 113.722205 
L 309.79484 87.509944 
L 310.048731 82.033041 
L 310.302621 135.628076 
L 310.556511 84.260165 
L 310.810401 110.983917 
L 311.064292 93.115477 
L 311.318182 102.360352 
L 311.318182 102.360352 
" style="fill:none;stroke:#ff7f0e;stroke-linecap:square;stroke-width:1.5;"/>
   </g>
   <g id="line2d_12">
    <path clip-path="url(#p4d73fd792a)" d="M 57.681818 77.060556 
L 57.935708 75.519733 
L 58.189599 80.485555 
L 58.443489 92.608646 
L 58.697379 85.285211 
L 58.951269 100.29391 
L 59.20516 90.825462 
L 59.45905 111.395399 
L 59.71294 102.903835 
L 59.96683 98.419397 
L 60.220721 117.03074 
L 60.474611 111.898915 
L 60.728501 126.727173 
L 60.982391 86.942749 
L 61.236282 118.224057 
L 61.490172 88.790101 
L 61.744062 87.311089 
L 62.251843 108.628701 
L 62.505733 77.020807 
L 62.759623 83.266473 
L 63.013514 113.751142 
L 63.267404 96.113881 
L 63.521294 92.861415 
L 63.775184 140.792554 
L 64.029075 102.515692 
L 64.282965 114.456376 
L 64.536855 75.659611 
L 64.790745 118.651816 
L 65.044636 120.00099 
L 65.298526 109.778185 
L 65.552416 94.002519 
L 65.806306 96.617994 
L 66.060197 104.296799 
L 66.314087 89.108359 
L 66.567977 112.936757 
L 66.821867 98.924996 
L 67.329648 133.837917 
L 67.583538 156.480424 
L 67.837428 84.383447 
L 68.091319 94.009099 
L 68.345209 132.927368 
L 68.599099 82.335125 
L 68.852989 129.73443 
L 69.10688 132.952411 
L 69.36077 104.083319 
L 69.61466 97.304791 
L 69.86855 114.976781 
L 70.122441 144.409035 
L 70.376331 146.853602 
L 70.630221 143.491789 
L 70.884111 99.431754 
L 71.138002 137.368748 
L 71.391892 91.571963 
L 71.645782 108.827351 
L 71.899672 79.069303 
L 72.153563 131.580418 
L 72.407453 86.040473 
L 72.661343 92.694531 
L 72.915233 105.340096 
L 73.169124 79.903337 
L 73.423014 98.386439 
L 73.676904 86.967488 
L 74.184685 95.87267 
L 74.438575 84.864629 
L 74.692465 98.182371 
L 74.946355 80.681689 
L 75.454136 99.453765 
L 75.708026 99.256907 
L 75.961916 99.229509 
L 76.215807 82.856594 
L 76.469697 95.392924 
L 76.723587 70.275242 
L 76.977477 118.668303 
L 77.231368 116.141932 
L 77.485258 89.803741 
L 77.739148 107.38876 
L 77.993038 111.917628 
L 78.246929 133.067399 
L 78.500819 87.849699 
L 78.754709 88.596475 
L 79.0086 117.013215 
L 79.26249 114.303807 
L 79.51638 85.038449 
L 79.77027 74.660929 
L 80.024161 124.694893 
L 80.278051 82.427376 
L 80.531941 70.307394 
L 80.785831 124.079385 
L 81.039722 87.619032 
L 81.293612 71.764213 
L 81.547502 105.203994 
L 81.801392 103.114393 
L 82.055283 104.767076 
L 82.309173 90.058681 
L 82.563063 110.332206 
L 82.816953 90.103041 
L 83.070844 97.771554 
L 83.324734 109.71791 
L 83.832514 115.762931 
L 84.086405 82.169373 
L 84.340295 118.318806 
L 84.594185 79.783806 
L 84.848075 75.284151 
L 85.101966 95.281392 
L 85.355856 106.300165 
L 85.609746 62.297239 
L 85.863636 82.401175 
L 86.117527 85.713828 
L 86.371417 98.155906 
L 86.625307 159.95717 
L 86.879197 111.99812 
L 87.133088 86.98639 
L 87.386978 87.462041 
L 87.640868 117.874704 
L 87.894758 94.57366 
L 88.148649 82.356139 
L 88.402539 83.136759 
L 88.656429 85.309492 
L 88.910319 97.917123 
L 89.16421 87.915358 
L 89.4181 95.389747 
L 89.67199 132.244981 
L 89.92588 88.228236 
L 90.179771 101.173141 
L 90.433661 66.705157 
L 90.687551 95.786961 
L 90.941441 60.52537 
L 91.195332 105.94071 
L 91.449222 127.541314 
L 91.703112 97.374681 
L 91.957002 89.388633 
L 92.210893 118.820957 
L 92.464783 86.494976 
L 92.718673 103.391384 
L 92.972563 95.785906 
L 93.226454 114.50542 
L 93.480344 77.218165 
L 93.734234 135.358103 
L 93.988124 127.944907 
L 94.495905 85.372524 
L 94.749795 104.933221 
L 95.003686 92.339672 
L 95.257576 105.636785 
L 95.511466 82.094955 
L 95.765356 81.930008 
L 96.019247 68.563248 
L 96.273137 89.065634 
L 96.527027 100.022184 
L 96.780917 128.746734 
L 97.288698 98.067082 
L 97.542588 111.954572 
L 97.796478 77.084115 
L 98.050369 132.944997 
L 98.304259 76.233648 
L 98.558149 123.846354 
L 98.812039 107.381454 
L 99.06593 115.454202 
L 99.31982 117.14454 
L 99.57371 110.767232 
L 99.8276 99.500305 
L 100.081491 131.534125 
L 100.335381 90.877607 
L 100.589271 69.431273 
L 100.843161 35.155473 
L 101.097052 59.020346 
L 101.350942 117.378112 
L 101.604832 91.251377 
L 101.858722 103.589622 
L 102.112613 101.148957 
L 102.366503 66.01592 
L 102.874283 127.761487 
L 103.128174 97.103854 
L 103.382064 90.918617 
L 103.635954 100.472795 
L 103.889844 92.467466 
L 104.143735 92.370844 
L 104.397625 107.665891 
L 104.651515 78.81221 
L 104.905405 78.680761 
L 105.159296 109.576033 
L 105.413186 101.926355 
L 105.667076 139.084077 
L 105.920966 133.374632 
L 106.174857 102.225519 
L 106.428747 87.452962 
L 106.682637 81.898201 
L 106.936527 65.164395 
L 107.698198 104.962374 
L 108.205979 82.03409 
L 108.459869 101.165851 
L 108.713759 75.205111 
L 108.967649 104.151903 
L 109.22154 69.47208 
L 109.47543 103.587979 
L 109.72932 103.116385 
L 109.98321 113.517505 
L 110.237101 102.176478 
L 110.490991 102.386121 
L 110.744881 99.095572 
L 110.998771 77.556096 
L 111.252662 93.633169 
L 111.506552 94.861112 
L 111.760442 100.161235 
L 112.014333 87.946576 
L 112.268223 126.707111 
L 112.522113 105.866344 
L 112.776003 99.72924 
L 113.029894 51.260836 
L 113.283784 86.378048 
L 113.537674 95.59219 
L 113.791564 121.053085 
L 114.299345 76.690792 
L 114.553235 105.181779 
L 114.807125 109.423294 
L 115.061016 70.423435 
L 115.314906 92.604959 
L 115.568796 87.728299 
L 115.822686 88.322534 
L 116.076577 104.44401 
L 116.330467 71.316479 
L 116.584357 87.710524 
L 116.838247 80.084207 
L 117.092138 84.57383 
L 117.346028 45.797718 
L 117.599918 93.559629 
L 117.853808 106.66514 
L 118.107699 91.264033 
L 118.361589 66.25509 
L 118.615479 111.706009 
L 118.869369 69.995043 
L 119.12326 80.824717 
L 119.37715 82.442149 
L 119.63104 87.316475 
L 119.88493 109.915403 
L 120.138821 80.52377 
L 120.392711 81.232085 
L 120.646601 132.078005 
L 120.900491 92.284743 
L 121.154382 74.144533 
L 121.408272 106.108557 
L 121.662162 118.254224 
L 121.916052 91.17549 
L 122.169943 114.320647 
L 122.423833 73.602629 
L 122.677723 110.602597 
L 122.931613 101.297998 
L 123.439394 128.211853 
L 123.693284 123.34656 
L 123.947174 115.856847 
L 124.201065 113.713117 
L 124.454955 105.166819 
L 124.708845 109.369188 
L 124.962735 108.886597 
L 125.216626 119.092956 
L 125.470516 84.256344 
L 125.724406 105.084988 
L 125.978296 80.937711 
L 126.232187 88.237404 
L 126.739967 118.797058 
L 126.993857 114.194504 
L 127.247748 85.038941 
L 127.755528 61.410725 
L 128.009419 105.505296 
L 128.263309 80.229575 
L 128.771089 135.666067 
L 129.02498 88.797721 
L 129.27887 93.366903 
L 129.53276 79.773908 
L 129.78665 78.226909 
L 130.040541 90.577708 
L 130.294431 123.316945 
L 130.548321 81.338881 
L 130.802211 130.302688 
L 131.056102 88.629204 
L 131.309992 93.550271 
L 131.563882 122.563439 
L 131.817772 82.34316 
L 132.071663 79.323436 
L 132.325553 81.997275 
L 132.579443 122.200464 
L 132.833333 73.687158 
L 133.087224 122.466567 
L 133.341114 40.551045 
L 133.848894 151.397967 
L 134.102785 85.520333 
L 134.356675 74.420743 
L 134.610565 80.531928 
L 134.864455 96.514441 
L 135.118346 93.596355 
L 135.372236 83.352143 
L 135.626126 122.868305 
L 135.880016 70.983265 
L 136.133907 87.728256 
L 136.641687 67.373829 
L 136.895577 81.353997 
L 137.149468 78.09258 
L 137.403358 114.329704 
L 137.657248 110.680144 
L 137.911138 61.665155 
L 138.165029 75.556313 
L 138.418919 103.41625 
L 138.672809 64.880703 
L 138.926699 99.307328 
L 139.18059 108.121046 
L 139.43448 103.634761 
L 139.68837 91.848326 
L 139.94226 99.240166 
L 140.450041 89.562295 
L 140.703931 115.2999 
L 141.211712 49.246956 
L 141.465602 97.599918 
L 141.719492 106.746324 
L 141.973382 102.947441 
L 142.227273 89.622313 
L 142.481163 84.064031 
L 142.988943 135.14714 
L 143.242834 117.734451 
L 143.496724 127.878918 
L 143.750614 84.777391 
L 144.004505 136.367443 
L 144.258395 113.404881 
L 144.512285 70.128129 
L 144.766175 82.321984 
L 145.020066 71.360961 
L 145.273956 106.762351 
L 145.527846 98.534708 
L 145.781736 108.785034 
L 146.035627 98.454837 
L 146.289517 123.34542 
L 146.543407 115.607699 
L 146.797297 74.190242 
L 147.558968 136.964395 
L 147.812858 98.690152 
L 148.066749 133.717394 
L 148.320639 110.879123 
L 148.574529 116.875257 
L 148.828419 74.713421 
L 149.08231 68.316168 
L 149.3362 105.495376 
L 149.59009 107.894415 
L 149.84398 76.45921 
L 150.097871 93.275597 
L 150.351761 93.190846 
L 150.605651 75.559979 
L 151.113432 108.484057 
L 151.367322 85.221933 
L 151.621212 109.462113 
L 151.875102 76.581557 
L 152.128993 99.533816 
L 152.382883 75.209959 
L 152.636773 125.749092 
L 152.890663 117.037799 
L 153.144554 139.150401 
L 153.652334 81.483963 
L 153.906224 98.982612 
L 154.160115 103.779442 
L 154.414005 90.255172 
L 154.667895 106.546767 
L 154.921785 98.62965 
L 155.175676 120.312697 
L 155.429566 91.276436 
L 155.683456 93.912827 
L 155.937346 110.019562 
L 156.191237 115.22588 
L 156.445127 112.653089 
L 156.699017 116.196553 
L 156.952907 122.287969 
L 157.206798 88.008811 
L 157.460688 105.941878 
L 157.714578 88.43868 
L 157.968468 135.484494 
L 158.222359 76.348038 
L 158.476249 82.117809 
L 158.730139 122.520183 
L 158.984029 83.855529 
L 159.23792 131.204032 
L 159.49181 118.922342 
L 159.7457 78.499296 
L 159.99959 105.928351 
L 160.253481 105.440779 
L 160.507371 103.807968 
L 160.761261 137.93786 
L 161.269042 97.816283 
L 161.522932 106.306081 
L 161.776822 129.250256 
L 162.030713 91.843897 
L 162.284603 91.156096 
L 162.538493 88.18763 
L 162.792383 87.321941 
L 163.046274 118.717 
L 163.300164 109.864308 
L 163.554054 54.67408 
L 163.807944 76.567373 
L 164.061835 128.114434 
L 164.315725 91.317216 
L 164.569615 77.680401 
L 164.823505 176.400566 
L 165.077396 85.464808 
L 165.331286 111.39162 
L 165.585176 109.645488 
L 165.839066 90.421174 
L 166.092957 91.687796 
L 166.600737 152.200289 
L 166.854627 101.453502 
L 167.362408 167.687266 
L 167.616298 103.98583 
L 167.870188 84.744699 
L 168.124079 102.462868 
L 168.377969 107.482397 
L 168.631859 97.416697 
L 168.885749 97.046474 
L 169.13964 70.340677 
L 169.39353 78.191401 
L 169.64742 144.066026 
L 169.90131 113.561209 
L 170.155201 97.846257 
L 170.409091 68.10417 
L 170.662981 112.569438 
L 170.916871 66.365259 
L 171.170762 123.101954 
L 171.424652 94.723548 
L 171.678542 108.143578 
L 172.186323 100.611139 
L 172.440213 128.616453 
L 172.694103 105.347486 
L 172.947993 107.399653 
L 173.201884 121.236449 
L 173.455774 97.28669 
L 173.709664 93.428311 
L 173.963554 118.358386 
L 174.217445 101.46719 
L 174.471335 122.926843 
L 174.725225 110.7587 
L 174.979115 126.54112 
L 175.233006 86.732692 
L 175.486896 105.580983 
L 175.740786 107.324617 
L 176.248567 102.689456 
L 176.502457 104.197044 
L 176.756347 162.709586 
L 177.010238 55.088102 
L 177.264128 88.093545 
L 177.518018 55.590896 
L 177.771908 120.166185 
L 178.025799 66.781628 
L 178.533579 115.255441 
L 178.787469 96.470904 
L 179.04136 99.718509 
L 179.29525 119.545392 
L 179.54914 77.102293 
L 179.80303 107.511112 
L 180.056921 95.287976 
L 180.310811 111.455836 
L 180.564701 148.822206 
L 180.818591 98.053114 
L 181.072482 104.571422 
L 181.326372 70.377825 
L 181.580262 78.732659 
L 181.834152 131.839142 
L 182.088043 113.729161 
L 182.341933 110.74267 
L 182.595823 81.085215 
L 182.849713 143.396126 
L 183.103604 90.685618 
L 183.357494 91.599922 
L 183.611384 84.318126 
L 183.865274 94.929329 
L 184.119165 120.282652 
L 184.373055 112.666109 
L 184.880835 109.002013 
L 185.134726 145.47665 
L 185.388616 96.024025 
L 185.642506 114.791496 
L 185.896396 106.34546 
L 186.150287 88.271589 
L 186.404177 136.421644 
L 186.658067 62.011158 
L 186.911957 111.646088 
L 187.165848 106.809912 
L 187.419738 115.794556 
L 187.673628 67.539186 
L 187.927518 88.802425 
L 188.181409 86.578672 
L 188.435299 81.614701 
L 188.689189 71.915069 
L 188.943079 121.584063 
L 189.19697 69.478605 
L 189.45086 89.549185 
L 189.70475 51.907601 
L 189.95864 100.946805 
L 190.466421 83.721768 
L 190.720311 104.145168 
L 190.974201 100.669163 
L 191.735872 138.874855 
L 191.989762 88.704674 
L 192.497543 98.064873 
L 192.751433 112.463605 
L 193.005324 112.500653 
L 193.259214 101.637089 
L 193.513104 98.668021 
L 193.766994 110.180766 
L 194.020885 88.829577 
L 194.274775 118.459098 
L 194.528665 88.795295 
L 194.782555 111.575069 
L 195.036446 90.2151 
L 195.290336 107.780005 
L 195.544226 107.697577 
L 195.798116 123.422433 
L 196.052007 115.799975 
L 196.305897 148.388813 
L 196.559787 66.703274 
L 196.813677 75.629796 
L 197.067568 103.158689 
L 197.321458 73.473053 
L 197.575348 76.809057 
L 197.829238 92.935216 
L 198.083129 92.017384 
L 198.337019 83.08769 
L 198.590909 89.518918 
L 198.844799 80.759186 
L 199.09869 111.207843 
L 199.35258 99.88833 
L 199.60647 103.792611 
L 199.86036 77.516558 
L 200.114251 107.181062 
L 200.368141 88.546241 
L 200.622031 95.418752 
L 200.875921 92.617123 
L 201.129812 77.540231 
L 201.383702 92.65042 
L 201.637592 68.716021 
L 202.145373 132.740417 
L 202.399263 73.806178 
L 202.907043 106.897011 
L 203.160934 97.03008 
L 203.414824 96.67687 
L 203.668714 83.819685 
L 203.922604 44.085771 
L 204.430385 94.196702 
L 204.684275 93.486146 
L 204.938165 97.159857 
L 205.192056 112.681254 
L 205.445946 94.155609 
L 205.699836 48.745729 
L 205.953726 87.343414 
L 206.207617 80.835254 
L 206.461507 107.701056 
L 206.715397 80.381596 
L 206.969287 83.52844 
L 207.223178 90.132597 
L 207.477068 106.982513 
L 207.730958 103.448489 
L 207.984848 108.537628 
L 208.238739 81.890668 
L 208.492629 85.078223 
L 208.746519 79.025538 
L 209.00041 76.430918 
L 209.2543 91.747374 
L 209.50819 85.156316 
L 209.76208 90.260645 
L 210.015971 99.223043 
L 210.269861 77.787513 
L 210.523751 100.475641 
L 210.777641 111.079304 
L 211.031532 113.472888 
L 211.285422 124.401787 
L 211.793202 80.634477 
L 212.300983 116.99002 
L 212.554873 92.838935 
L 212.808763 102.755297 
L 213.062654 98.812239 
L 213.316544 90.046442 
L 213.570434 103.699068 
L 213.824324 70.960993 
L 214.078215 73.552478 
L 214.332105 83.491036 
L 214.585995 98.445683 
L 214.839885 95.982307 
L 215.093776 116.472217 
L 215.347666 68.597644 
L 215.855446 117.549601 
L 216.109337 72.676847 
L 216.363227 68.869845 
L 216.617117 86.844558 
L 216.871007 88.093887 
L 217.124898 75.000607 
L 217.378788 104.338028 
L 217.632678 65.804293 
L 217.886568 155.355009 
L 218.140459 77.550525 
L 218.394349 95.417451 
L 218.648239 95.10838 
L 218.902129 89.349485 
L 219.15602 88.129583 
L 219.40991 98.616534 
L 219.6638 67.921949 
L 219.91769 77.415431 
L 220.171581 103.875467 
L 220.425471 85.596284 
L 220.679361 100.337655 
L 220.933251 94.620487 
L 221.441032 103.988227 
L 221.694922 146.848176 
L 221.948812 107.946242 
L 222.202703 109.132209 
L 222.456593 96.268803 
L 222.710483 71.933982 
L 222.964373 97.240652 
L 223.218264 89.771038 
L 223.472154 98.660825 
L 223.726044 82.925372 
L 223.979934 132.09907 
L 224.233825 96.619345 
L 224.487715 108.181501 
L 224.741605 92.802218 
L 224.995495 101.564905 
L 225.249386 105.507858 
L 225.503276 126.35911 
L 225.757166 107.609422 
L 226.011057 74.53553 
L 226.264947 82.506259 
L 226.518837 114.290287 
L 226.772727 91.744116 
L 227.026618 83.551245 
L 227.280508 91.017873 
L 227.534398 88.067133 
L 227.788288 122.058734 
L 228.549959 77.306297 
L 228.803849 104.562594 
L 229.05774 117.473315 
L 229.31163 106.480335 
L 229.56552 132.189396 
L 230.073301 77.311561 
L 230.327191 86.176681 
L 230.581081 163.916437 
L 230.834971 85.62958 
L 231.088862 115.459788 
L 231.342752 95.698114 
L 231.596642 87.509715 
L 231.850532 123.263533 
L 232.104423 115.806798 
L 232.358313 98.13216 
L 232.612203 56.341782 
L 232.866093 61.530567 
L 233.119984 114.216009 
L 233.373874 80.43531 
L 233.627764 97.253309 
L 233.881654 70.940043 
L 234.135545 127.197474 
L 234.389435 135.209129 
L 234.643325 126.251412 
L 234.897215 110.22609 
L 235.151106 48.631954 
L 235.404996 103.401157 
L 235.658886 68.768579 
L 235.912776 92.445444 
L 236.166667 69.629709 
L 236.420557 83.800989 
L 236.674447 86.846497 
L 236.928337 112.053728 
L 237.182228 71.725927 
L 237.436118 92.934053 
L 237.690008 97.460773 
L 237.943898 113.079573 
L 238.197789 108.815687 
L 238.451679 90.745844 
L 238.705569 91.957872 
L 238.959459 123.326891 
L 239.21335 115.750208 
L 239.46724 97.38907 
L 239.72113 128.317797 
L 239.97502 84.574283 
L 240.482801 106.902295 
L 240.736691 131.467747 
L 240.990581 109.926096 
L 241.244472 106.790752 
L 241.498362 163.764562 
L 241.752252 93.84901 
L 242.006143 86.700643 
L 242.260033 86.429072 
L 242.513923 101.782719 
L 242.767813 49.042839 
L 243.021704 62.140491 
L 243.275594 56.096189 
L 243.529484 139.870385 
L 243.783374 78.617506 
L 244.037265 100.696614 
L 244.291155 91.148951 
L 244.545045 91.884222 
L 244.798935 108.373296 
L 245.052826 65.714011 
L 245.306716 116.219532 
L 245.560606 116.614955 
L 245.814496 85.25736 
L 246.322277 112.959147 
L 246.576167 65.7478 
L 246.830057 104.705791 
L 247.083948 85.358317 
L 247.337838 116.830932 
L 247.591728 102.605343 
L 247.845618 103.827934 
L 248.099509 98.366759 
L 248.353399 97.584592 
L 248.607289 49.768942 
L 248.861179 106.945147 
L 249.11507 117.648641 
L 249.36896 84.235898 
L 249.62285 94.438802 
L 249.87674 116.33953 
L 250.130631 93.916553 
L 250.384521 114.204021 
L 250.638411 103.048098 
L 250.892301 116.767 
L 251.146192 88.177481 
L 251.400082 101.649854 
L 251.653972 83.814771 
L 251.907862 76.366727 
L 252.161753 93.197201 
L 252.415643 71.644597 
L 252.669533 83.866593 
L 252.923423 85.46884 
L 253.177314 90.600214 
L 253.431204 69.40711 
L 253.938984 118.374081 
L 254.192875 113.038741 
L 254.446765 117.893466 
L 254.700655 55.157622 
L 255.208436 138.667267 
L 255.462326 118.921111 
L 255.716216 90.4762 
L 255.970106 91.917046 
L 256.223997 113.521979 
L 256.477887 70.117352 
L 256.731777 78.351013 
L 256.985667 101.716438 
L 257.239558 110.021536 
L 257.493448 83.616754 
L 258.001229 114.827561 
L 258.255119 108.445835 
L 258.509009 89.894981 
L 258.762899 80.630507 
L 259.01679 92.755585 
L 259.27068 69.878372 
L 259.52457 126.089751 
L 259.77846 125.293208 
L 260.032351 74.357701 
L 260.286241 83.405666 
L 260.540131 70.096989 
L 260.794021 128.105767 
L 261.047912 111.65195 
L 261.301802 119.445335 
L 261.555692 112.654709 
L 261.809582 92.683073 
L 262.063473 111.320065 
L 262.317363 74.901299 
L 262.571253 88.033785 
L 263.079034 128.17789 
L 263.332924 103.171917 
L 263.586814 111.06534 
L 263.840704 97.485228 
L 264.094595 104.998371 
L 264.348485 116.600696 
L 264.602375 87.928111 
L 265.110156 69.990107 
L 265.364046 98.531982 
L 265.617936 71.582102 
L 266.125717 122.512505 
L 266.379607 97.259717 
L 266.633497 86.893848 
L 266.887387 71.139376 
L 267.141278 91.441813 
L 267.395168 83.529803 
L 267.649058 111.487995 
L 267.902948 113.154791 
L 268.410729 78.489086 
L 268.664619 78.092285 
L 268.918509 136.895638 
L 269.1724 81.876417 
L 269.68018 106.381382 
L 269.93407 109.238622 
L 270.187961 98.98283 
L 270.441851 99.510838 
L 270.695741 52.34643 
L 270.949631 102.6062 
L 271.203522 72.854564 
L 271.457412 110.437081 
L 271.711302 112.645917 
L 271.965192 111.538708 
L 272.219083 103.416491 
L 272.472973 82.897709 
L 272.726863 119.205435 
L 272.980753 64.758172 
L 273.234644 127.201465 
L 273.488534 106.849342 
L 273.742424 100.752943 
L 273.996314 100.856521 
L 274.250205 101.771839 
L 274.504095 91.337751 
L 274.757985 97.394736 
L 275.011876 81.147314 
L 275.265766 74.823722 
L 275.519656 83.226883 
L 275.773546 82.837945 
L 276.027437 117.306288 
L 276.281327 61.922668 
L 276.535217 99.647677 
L 277.042998 128.769954 
L 277.296888 55.651783 
L 277.804668 147.983533 
L 278.058559 107.539553 
L 278.312449 111.635751 
L 278.566339 94.588271 
L 278.820229 92.420968 
L 279.07412 143.098228 
L 279.32801 105.391594 
L 279.5819 135.501635 
L 279.83579 72.594356 
L 280.089681 138.305596 
L 280.343571 104.626788 
L 280.597461 108.269548 
L 280.851351 121.531826 
L 281.105242 57.699134 
L 281.359132 112.755164 
L 281.613022 111.95223 
L 281.866912 99.750663 
L 282.120803 99.215495 
L 282.374693 105.264591 
L 282.628583 80.237785 
L 282.882473 83.765626 
L 283.136364 48.086691 
L 283.644144 143.728855 
L 283.898034 127.269359 
L 284.151925 73.151908 
L 284.405815 81.683649 
L 284.659705 104.572087 
L 284.913595 148.9466 
L 285.167486 33.48 
L 285.421376 144.645002 
L 285.675266 136.707618 
L 285.929156 100.734739 
L 286.183047 103.814628 
L 286.436937 103.307848 
L 286.690827 48.774945 
L 286.944717 79.438237 
L 287.198608 88.77907 
L 287.706388 77.839974 
L 287.960278 128.010085 
L 288.214169 108.502148 
L 288.468059 103.998519 
L 288.721949 113.354147 
L 288.975839 86.484514 
L 289.22973 80.498836 
L 289.48362 64.304815 
L 289.9914 127.484965 
L 290.245291 87.721332 
L 290.499181 75.982629 
L 290.753071 115.716459 
L 291.006962 66.720594 
L 291.260852 73.023788 
L 291.514742 103.133287 
L 292.022523 114.993808 
L 292.276413 100.732452 
L 292.530303 144.150836 
L 292.784193 50.845857 
L 293.038084 57.995434 
L 293.291974 83.656631 
L 293.545864 141.160077 
L 293.799754 109.251128 
L 294.053645 128.766201 
L 294.307535 38.829458 
L 294.815315 142.95112 
L 295.069206 99.914619 
L 295.323096 77.929524 
L 295.576986 90.646191 
L 295.830876 84.131763 
L 296.084767 136.973055 
L 296.592547 80.399026 
L 296.846437 111.251271 
L 297.100328 79.384807 
L 297.354218 105.071271 
L 297.861998 118.5416 
L 298.369779 80.954544 
L 298.623669 102.839669 
L 298.877559 84.146642 
L 299.13145 107.01583 
L 299.63923 69.139186 
L 299.89312 66.406643 
L 300.147011 96.369233 
L 300.400901 104.420431 
L 300.654791 131.097133 
L 300.908681 126.950968 
L 301.162572 100.143745 
L 301.416462 86.227008 
L 301.670352 93.914698 
L 301.924242 116.554336 
L 302.178133 69.035227 
L 302.432023 80.559755 
L 302.685913 80.053584 
L 302.939803 127.216895 
L 303.193694 76.550397 
L 303.447584 133.671555 
L 303.701474 77.600704 
L 303.955364 105.853139 
L 304.209255 93.601655 
L 304.463145 108.748007 
L 304.717035 49.561656 
L 304.970925 184.68 
L 305.224816 89.557749 
L 305.478706 72.423085 
L 305.732596 179.192112 
L 305.986486 117.762176 
L 306.494267 125.149489 
L 307.002048 97.471268 
L 307.255938 73.657373 
L 307.509828 77.559263 
L 307.763718 100.668116 
L 308.017609 94.532497 
L 308.271499 94.247099 
L 308.525389 64.478225 
L 308.779279 76.7855 
L 309.03317 105.462661 
L 309.28706 79.905831 
L 309.54095 106.19065 
L 309.79484 77.672053 
L 310.048731 87.696248 
L 310.302621 109.55628 
L 310.810401 56.215519 
L 311.064292 114.256604 
L 311.318182 63.197156 
L 311.318182 63.197156 
" style="fill:none;stroke:#2ca02c;stroke-linecap:square;stroke-width:1.5;"/>
   </g>
   <g id="patch_3">
    <path d="M 45 192.24 
L 45 25.92 
" style="fill:none;stroke:#000000;stroke-linecap:square;stroke-linejoin:miter;stroke-width:0.8;"/>
   </g>
   <g id="patch_4">
    <path d="M 324 192.24 
L 324 25.92 
" style="fill:none;stroke:#000000;stroke-linecap:square;stroke-linejoin:miter;stroke-width:0.8;"/>
   </g>
   <g id="patch_5">
    <path d="M 45 192.24 
L 324 192.24 
" style="fill:none;stroke:#000000;stroke-linecap:square;stroke-linejoin:miter;stroke-width:0.8;"/>
   </g>
   <g id="patch_6">
    <path d="M 45 25.92 
L 324 25.92 
" style="fill:none;stroke:#000000;stroke-linecap:square;stroke-linejoin:miter;stroke-width:0.8;"/>
   </g>
   <g id="text_12">
    <!-- -greedy bandits -->
    <defs>
     <path d="M 19.28125 29.5 
Q 13.8125 30.671875 10.890625 33.84375 
Q 7.953125 36.96875 7.953125 41.5 
Q 7.953125 48.390625 13.53125 52.25 
Q 19.046875 56.0625 28.609375 56.0625 
Q 32.328125 56.0625 36.46875 55.46875 
Q 40.625 54.890625 45.40625 53.71875 
L 45.40625 45.5625 
Q 40.671875 46.96875 36.765625 47.609375 
Q 32.8125 48.25 29.34375 48.25 
Q 23.53125 48.25 20.171875 46 
Q 16.75 43.75 16.75 40.625 
Q 16.75 37.203125 20.0625 35.015625 
Q 23.34375 32.859375 29 32.859375 
L 36.578125 32.859375 
L 36.578125 25.4375 
L 29.34375 25.4375 
Q 22.65625 25.4375 19.140625 22.953125 
Q 15.328125 20.21875 15.328125 15.921875 
Q 15.328125 11.53125 19.4375 8.796875 
Q 23.578125 6.0625 30.953125 6.0625 
Q 35.5 6.0625 39.65625 6.9375 
Q 43.796875 7.859375 47.265625 9.671875 
L 47.265625 1.3125 
Q 42.875 -0.046875 38.765625 -0.734375 
Q 34.625 -1.421875 30.71875 -1.421875 
Q 19.09375 -1.421875 12.796875 3.03125 
Q 6.5 7.46875 6.5 15.921875 
Q 6.5 21.1875 9.859375 24.75 
Q 13.234375 28.328125 19.28125 29.5 
z
" id="DejaVuSans-3b5"/>
     <path d="M 4.890625 31.390625 
L 31.203125 31.390625 
L 31.203125 23.390625 
L 4.890625 23.390625 
z
" id="DejaVuSans-2d"/>
     <path d="M 32.171875 -5.078125 
Q 28.375 -14.84375 24.75 -17.8125 
Q 21.140625 -20.796875 15.09375 -20.796875 
L 7.90625 -20.796875 
L 7.90625 -13.28125 
L 13.1875 -13.28125 
Q 16.890625 -13.28125 18.9375 -11.515625 
Q 21 -9.765625 23.484375 -3.21875 
L 25.09375 0.875 
L 2.984375 54.6875 
L 12.5 54.6875 
L 29.59375 11.921875 
L 46.6875 54.6875 
L 56.203125 54.6875 
z
" id="DejaVuSans-79"/>
     <path d="M 48.6875 27.296875 
Q 48.6875 37.203125 44.609375 42.84375 
Q 40.53125 48.484375 33.40625 48.484375 
Q 26.265625 48.484375 22.1875 42.84375 
Q 18.109375 37.203125 18.109375 27.296875 
Q 18.109375 17.390625 22.1875 11.75 
Q 26.265625 6.109375 33.40625 6.109375 
Q 40.53125 6.109375 44.609375 11.75 
Q 48.6875 17.390625 48.6875 27.296875 
z
M 18.109375 46.390625 
Q 20.953125 51.265625 25.265625 53.625 
Q 29.59375 56 35.59375 56 
Q 45.5625 56 51.78125 48.09375 
Q 58.015625 40.1875 58.015625 27.296875 
Q 58.015625 14.40625 51.78125 6.484375 
Q 45.5625 -1.421875 35.59375 -1.421875 
Q 29.59375 -1.421875 25.265625 0.953125 
Q 20.953125 3.328125 18.109375 8.203125 
L 18.109375 0 
L 9.078125 0 
L 9.078125 75.984375 
L 18.109375 75.984375 
z
" id="DejaVuSans-62"/>
     <path d="M 54.890625 33.015625 
L 54.890625 0 
L 45.90625 0 
L 45.90625 32.71875 
Q 45.90625 40.484375 42.875 44.328125 
Q 39.84375 48.1875 33.796875 48.1875 
Q 26.515625 48.1875 22.3125 43.546875 
Q 18.109375 38.921875 18.109375 30.90625 
L 18.109375 0 
L 9.078125 0 
L 9.078125 54.6875 
L 18.109375 54.6875 
L 18.109375 46.1875 
Q 21.34375 51.125 25.703125 53.5625 
Q 30.078125 56 35.796875 56 
Q 45.21875 56 50.046875 50.171875 
Q 54.890625 44.34375 54.890625 33.015625 
z
" id="DejaVuSans-6e"/>
     <path d="M 9.421875 54.6875 
L 18.40625 54.6875 
L 18.40625 0 
L 9.421875 0 
z
M 9.421875 75.984375 
L 18.40625 75.984375 
L 18.40625 64.59375 
L 9.421875 64.59375 
z
" id="DejaVuSans-69"/>
    </defs>
    <g transform="translate(133.925625 19.92)scale(0.12 -0.12)">
     <use xlink:href="#DejaVuSans-3b5"/>
     <use x="54.052734" xlink:href="#DejaVuSans-2d"/>
     <use x="90.136719" xlink:href="#DejaVuSans-67"/>
     <use x="153.613281" xlink:href="#DejaVuSans-72"/>
     <use x="194.695312" xlink:href="#DejaVuSans-65"/>
     <use x="256.21875" xlink:href="#DejaVuSans-65"/>
     <use x="317.742188" xlink:href="#DejaVuSans-64"/>
     <use x="381.21875" xlink:href="#DejaVuSans-79"/>
     <use x="440.398438" xlink:href="#DejaVuSans-20"/>
     <use x="472.185547" xlink:href="#DejaVuSans-62"/>
     <use x="535.662109" xlink:href="#DejaVuSans-61"/>
     <use x="596.941406" xlink:href="#DejaVuSans-6e"/>
     <use x="660.320312" xlink:href="#DejaVuSans-64"/>
     <use x="723.796875" xlink:href="#DejaVuSans-69"/>
     <use x="751.580078" xlink:href="#DejaVuSans-74"/>
     <use x="790.789062" xlink:href="#DejaVuSans-73"/>
    </g>
   </g>
   <g id="legend_1">
    <g id="patch_7">
     <path d="M 248.95 187.24 
L 317 187.24 
Q 319 187.24 319 185.24 
L 319 142.205625 
Q 319 140.205625 317 140.205625 
L 248.95 140.205625 
Q 246.95 140.205625 246.95 142.205625 
L 246.95 185.24 
Q 246.95 187.24 248.95 187.24 
z
" style="fill:#ffffff;opacity:0.8;stroke:#cccccc;stroke-linejoin:miter;"/>
    </g>
    <g id="line2d_13">
     <path d="M 250.95 148.304062 
L 270.95 148.304062 
" style="fill:none;stroke:#1f77b4;stroke-linecap:square;stroke-width:1.5;"/>
    </g>
    <g id="line2d_14"/>
    <g id="text_13">
     <!-- =0, -->
     <defs>
      <path d="M 10.59375 45.40625 
L 73.1875 45.40625 
L 73.1875 37.203125 
L 10.59375 37.203125 
z
M 10.59375 25.484375 
L 73.1875 25.484375 
L 73.1875 17.1875 
L 10.59375 17.1875 
z
" id="DejaVuSans-3d"/>
      <path d="M 11.71875 12.40625 
L 22.015625 12.40625 
L 22.015625 4 
L 14.015625 -11.625 
L 7.71875 -11.625 
L 11.71875 4 
z
" id="DejaVuSans-2c"/>
     </defs>
     <g transform="translate(278.95 151.804062)scale(0.1 -0.1)">
      <use xlink:href="#DejaVuSans-3b5"/>
      <use x="54.052734" xlink:href="#DejaVuSans-3d"/>
      <use x="137.841797" xlink:href="#DejaVuSans-30"/>
      <use x="201.464844" xlink:href="#DejaVuSans-2c"/>
     </g>
    </g>
    <g id="line2d_15">
     <path d="M 250.95 162.982188 
L 270.95 162.982188 
" style="fill:none;stroke:#ff7f0e;stroke-linecap:square;stroke-width:1.5;"/>
    </g>
    <g id="line2d_16"/>
    <g id="text_14">
     <!-- =0.01 -->
     <g transform="translate(278.95 166.482188)scale(0.1 -0.1)">
      <use xlink:href="#DejaVuSans-3b5"/>
      <use x="54.052734" xlink:href="#DejaVuSans-3d"/>
      <use x="137.841797" xlink:href="#DejaVuSans-30"/>
      <use x="201.464844" xlink:href="#DejaVuSans-2e"/>
      <use x="233.251953" xlink:href="#DejaVuSans-30"/>
      <use x="296.875" xlink:href="#DejaVuSans-31"/>
     </g>
    </g>
    <g id="line2d_17">
     <path d="M 250.95 177.660313 
L 270.95 177.660313 
" style="fill:none;stroke:#2ca02c;stroke-linecap:square;stroke-width:1.5;"/>
    </g>
    <g id="line2d_18"/>
    <g id="text_15">
     <!-- =0.1 -->
     <g transform="translate(278.95 181.160313)scale(0.1 -0.1)">
      <use xlink:href="#DejaVuSans-3b5"/>
      <use x="54.052734" xlink:href="#DejaVuSans-3d"/>
      <use x="137.841797" xlink:href="#DejaVuSans-30"/>
      <use x="201.464844" xlink:href="#DejaVuSans-2e"/>
      <use x="233.251953" xlink:href="#DejaVuSans-31"/>
     </g>
    </g>
   </g>
  </g>
 </g>
 <defs>
  <clipPath id="p4d73fd792a">
   <rect height="166.32" width="279" x="45" y="25.92"/>
  </clipPath>
 </defs>
</svg>
