<?xml version="1.0" encoding="utf-8" standalone="no"?>
<!DOCTYPE svg PUBLIC "-//W3C//DTD SVG 1.1//EN"
  "http://www.w3.org/Graphics/SVG/1.1/DTD/svg11.dtd">
<!-- Created with matplotlib (http://matplotlib.org/) -->
<svg height="345.6pt" version="1.1" viewBox="0 0 460.8 345.6" width="460.8pt" xmlns="http://www.w3.org/2000/svg" xmlns:xlink="http://www.w3.org/1999/xlink">
 <defs>
  <style type="text/css">
*{stroke-linecap:butt;stroke-linejoin:round;}
  </style>
 </defs>
 <g id="figure_1">
  <g id="patch_1">
   <path d="M 0 345.6 
L 460.8 345.6 
L 460.8 0 
L 0 0 
z
" style="fill:#ffffff;"/>
  </g>
  <g id="axes_1">
   <g id="patch_2">
    <path d="M 57.6 307.584 
L 414.72 307.584 
L 414.72 41.472 
L 57.6 41.472 
z
" style="fill:#ffffff;"/>
   </g>
   <g id="matplotlib.axis_1">
    <g id="xtick_1">
     <g id="line2d_1">
      <defs>
       <path d="M 0 0 
L 0 3.5 
" id="m3ecc624046" style="stroke:#000000;stroke-width:0.8;"/>
      </defs>
      <g>
       <use style="stroke:#000000;stroke-width:0.8;" x="73.832727" xlink:href="#m3ecc624046" y="307.584"/>
      </g>
     </g>
     <g id="text_1">
      <!-- 0 -->
      <defs>
       <path d="M 31.78125 66.40625 
Q 24.171875 66.40625 20.328125 58.90625 
Q 16.5 51.421875 16.5 36.375 
Q 16.5 21.390625 20.328125 13.890625 
Q 24.171875 6.390625 31.78125 6.390625 
Q 39.453125 6.390625 43.28125 13.890625 
Q 47.125 21.390625 47.125 36.375 
Q 47.125 51.421875 43.28125 58.90625 
Q 39.453125 66.40625 31.78125 66.40625 
z
M 31.78125 74.21875 
Q 44.046875 74.21875 50.515625 64.515625 
Q 56.984375 54.828125 56.984375 36.375 
Q 56.984375 17.96875 50.515625 8.265625 
Q 44.046875 -1.421875 31.78125 -1.421875 
Q 19.53125 -1.421875 13.0625 8.265625 
Q 6.59375 17.96875 6.59375 36.375 
Q 6.59375 54.828125 13.0625 64.515625 
Q 19.53125 74.21875 31.78125 74.21875 
z
" id="DejaVuSans-30"/>
      </defs>
      <g transform="translate(70.651477 322.182437)scale(0.1 -0.1)">
       <use xlink:href="#DejaVuSans-30"/>
      </g>
     </g>
    </g>
    <g id="xtick_2">
     <g id="line2d_2">
      <g>
       <use style="stroke:#000000;stroke-width:0.8;" x="155.077609" xlink:href="#m3ecc624046" y="307.584"/>
      </g>
     </g>
     <g id="text_2">
      <!-- 250 -->
      <defs>
       <path d="M 19.1875 8.296875 
L 53.609375 8.296875 
L 53.609375 0 
L 7.328125 0 
L 7.328125 8.296875 
Q 12.9375 14.109375 22.625 23.890625 
Q 32.328125 33.6875 34.8125 36.53125 
Q 39.546875 41.84375 41.421875 45.53125 
Q 43.3125 49.21875 43.3125 52.78125 
Q 43.3125 58.59375 39.234375 62.25 
Q 35.15625 65.921875 28.609375 65.921875 
Q 23.96875 65.921875 18.8125 64.3125 
Q 13.671875 62.703125 7.8125 59.421875 
L 7.8125 69.390625 
Q 13.765625 71.78125 18.9375 73 
Q 24.125 74.21875 28.421875 74.21875 
Q 39.75 74.21875 46.484375 68.546875 
Q 53.21875 62.890625 53.21875 53.421875 
Q 53.21875 48.921875 51.53125 44.890625 
Q 49.859375 40.875 45.40625 35.40625 
Q 44.1875 33.984375 37.640625 27.21875 
Q 31.109375 20.453125 19.1875 8.296875 
z
" id="DejaVuSans-32"/>
       <path d="M 10.796875 72.90625 
L 49.515625 72.90625 
L 49.515625 64.59375 
L 19.828125 64.59375 
L 19.828125 46.734375 
Q 21.96875 47.46875 24.109375 47.828125 
Q 26.265625 48.1875 28.421875 48.1875 
Q 40.625 48.1875 47.75 41.5 
Q 54.890625 34.8125 54.890625 23.390625 
Q 54.890625 11.625 47.5625 5.09375 
Q 40.234375 -1.421875 26.90625 -1.421875 
Q 22.3125 -1.421875 17.546875 -0.640625 
Q 12.796875 0.140625 7.71875 1.703125 
L 7.71875 11.625 
Q 12.109375 9.234375 16.796875 8.0625 
Q 21.484375 6.890625 26.703125 6.890625 
Q 35.15625 6.890625 40.078125 11.328125 
Q 45.015625 15.765625 45.015625 23.390625 
Q 45.015625 31 40.078125 35.4375 
Q 35.15625 39.890625 26.703125 39.890625 
Q 22.75 39.890625 18.8125 39.015625 
Q 14.890625 38.140625 10.796875 36.28125 
z
" id="DejaVuSans-35"/>
      </defs>
      <g transform="translate(145.533859 322.182437)scale(0.1 -0.1)">
       <use xlink:href="#DejaVuSans-32"/>
       <use x="63.623047" xlink:href="#DejaVuSans-35"/>
       <use x="127.246094" xlink:href="#DejaVuSans-30"/>
      </g>
     </g>
    </g>
    <g id="xtick_3">
     <g id="line2d_3">
      <g>
       <use style="stroke:#000000;stroke-width:0.8;" x="236.32249" xlink:href="#m3ecc624046" y="307.584"/>
      </g>
     </g>
     <g id="text_3">
      <!-- 500 -->
      <g transform="translate(226.77874 322.182437)scale(0.1 -0.1)">
       <use xlink:href="#DejaVuSans-35"/>
       <use x="63.623047" xlink:href="#DejaVuSans-30"/>
       <use x="127.246094" xlink:href="#DejaVuSans-30"/>
      </g>
     </g>
    </g>
    <g id="xtick_4">
     <g id="line2d_4">
      <g>
       <use style="stroke:#000000;stroke-width:0.8;" x="317.567371" xlink:href="#m3ecc624046" y="307.584"/>
      </g>
     </g>
     <g id="text_4">
      <!-- 750 -->
      <defs>
       <path d="M 8.203125 72.90625 
L 55.078125 72.90625 
L 55.078125 68.703125 
L 28.609375 0 
L 18.3125 0 
L 43.21875 64.59375 
L 8.203125 64.59375 
z
" id="DejaVuSans-37"/>
      </defs>
      <g transform="translate(308.023621 322.182437)scale(0.1 -0.1)">
       <use xlink:href="#DejaVuSans-37"/>
       <use x="63.623047" xlink:href="#DejaVuSans-35"/>
       <use x="127.246094" xlink:href="#DejaVuSans-30"/>
      </g>
     </g>
    </g>
    <g id="xtick_5">
     <g id="line2d_5">
      <g>
       <use style="stroke:#000000;stroke-width:0.8;" x="398.812252" xlink:href="#m3ecc624046" y="307.584"/>
      </g>
     </g>
     <g id="text_5">
      <!-- 1000 -->
      <defs>
       <path d="M 12.40625 8.296875 
L 28.515625 8.296875 
L 28.515625 63.921875 
L 10.984375 60.40625 
L 10.984375 69.390625 
L 28.421875 72.90625 
L 38.28125 72.90625 
L 38.28125 8.296875 
L 54.390625 8.296875 
L 54.390625 0 
L 12.40625 0 
z
" id="DejaVuSans-31"/>
      </defs>
      <g transform="translate(386.087252 322.182437)scale(0.1 -0.1)">
       <use xlink:href="#DejaVuSans-31"/>
       <use x="63.623047" xlink:href="#DejaVuSans-30"/>
       <use x="127.246094" xlink:href="#DejaVuSans-30"/>
       <use x="190.869141" xlink:href="#DejaVuSans-30"/>
      </g>
     </g>
    </g>
    <g id="text_6">
     <!-- Steps -->
     <defs>
      <path d="M 53.515625 70.515625 
L 53.515625 60.890625 
Q 47.90625 63.578125 42.921875 64.890625 
Q 37.9375 66.21875 33.296875 66.21875 
Q 25.25 66.21875 20.875 63.09375 
Q 16.5 59.96875 16.5 54.203125 
Q 16.5 49.359375 19.40625 46.890625 
Q 22.3125 44.4375 30.421875 42.921875 
L 36.375 41.703125 
Q 47.40625 39.59375 52.65625 34.296875 
Q 57.90625 29 57.90625 20.125 
Q 57.90625 9.515625 50.796875 4.046875 
Q 43.703125 -1.421875 29.984375 -1.421875 
Q 24.8125 -1.421875 18.96875 -0.25 
Q 13.140625 0.921875 6.890625 3.21875 
L 6.890625 13.375 
Q 12.890625 10.015625 18.65625 8.296875 
Q 24.421875 6.59375 29.984375 6.59375 
Q 38.421875 6.59375 43.015625 9.90625 
Q 47.609375 13.234375 47.609375 19.390625 
Q 47.609375 24.75 44.3125 27.78125 
Q 41.015625 30.8125 33.5 32.328125 
L 27.484375 33.5 
Q 16.453125 35.6875 11.515625 40.375 
Q 6.59375 45.0625 6.59375 53.421875 
Q 6.59375 63.09375 13.40625 68.65625 
Q 20.21875 74.21875 32.171875 74.21875 
Q 37.3125 74.21875 42.625 73.28125 
Q 47.953125 72.359375 53.515625 70.515625 
z
" id="DejaVuSans-53"/>
      <path d="M 18.3125 70.21875 
L 18.3125 54.6875 
L 36.8125 54.6875 
L 36.8125 47.703125 
L 18.3125 47.703125 
L 18.3125 18.015625 
Q 18.3125 11.328125 20.140625 9.421875 
Q 21.96875 7.515625 27.59375 7.515625 
L 36.8125 7.515625 
L 36.8125 0 
L 27.59375 0 
Q 17.1875 0 13.234375 3.875 
Q 9.28125 7.765625 9.28125 18.015625 
L 9.28125 47.703125 
L 2.6875 47.703125 
L 2.6875 54.6875 
L 9.28125 54.6875 
L 9.28125 70.21875 
z
" id="DejaVuSans-74"/>
      <path d="M 56.203125 29.59375 
L 56.203125 25.203125 
L 14.890625 25.203125 
Q 15.484375 15.921875 20.484375 11.0625 
Q 25.484375 6.203125 34.421875 6.203125 
Q 39.59375 6.203125 44.453125 7.46875 
Q 49.3125 8.734375 54.109375 11.28125 
L 54.109375 2.78125 
Q 49.265625 0.734375 44.1875 -0.34375 
Q 39.109375 -1.421875 33.890625 -1.421875 
Q 20.796875 -1.421875 13.15625 6.1875 
Q 5.515625 13.8125 5.515625 26.8125 
Q 5.515625 40.234375 12.765625 48.109375 
Q 20.015625 56 32.328125 56 
Q 43.359375 56 49.78125 48.890625 
Q 56.203125 41.796875 56.203125 29.59375 
z
M 47.21875 32.234375 
Q 47.125 39.59375 43.09375 43.984375 
Q 39.0625 48.390625 32.421875 48.390625 
Q 24.90625 48.390625 20.390625 44.140625 
Q 15.875 39.890625 15.1875 32.171875 
z
" id="DejaVuSans-65"/>
      <path d="M 18.109375 8.203125 
L 18.109375 -20.796875 
L 9.078125 -20.796875 
L 9.078125 54.6875 
L 18.109375 54.6875 
L 18.109375 46.390625 
Q 20.953125 51.265625 25.265625 53.625 
Q 29.59375 56 35.59375 56 
Q 45.5625 56 51.78125 48.09375 
Q 58.015625 40.1875 58.015625 27.296875 
Q 58.015625 14.40625 51.78125 6.484375 
Q 45.5625 -1.421875 35.59375 -1.421875 
Q 29.59375 -1.421875 25.265625 0.953125 
Q 20.953125 3.328125 18.109375 8.203125 
z
M 48.6875 27.296875 
Q 48.6875 37.203125 44.609375 42.84375 
Q 40.53125 48.484375 33.40625 48.484375 
Q 26.265625 48.484375 22.1875 42.84375 
Q 18.109375 37.203125 18.109375 27.296875 
Q 18.109375 17.390625 22.1875 11.75 
Q 26.265625 6.109375 33.40625 6.109375 
Q 40.53125 6.109375 44.609375 11.75 
Q 48.6875 17.390625 48.6875 27.296875 
z
" id="DejaVuSans-70"/>
      <path d="M 44.28125 53.078125 
L 44.28125 44.578125 
Q 40.484375 46.53125 36.375 47.5 
Q 32.28125 48.484375 27.875 48.484375 
Q 21.1875 48.484375 17.84375 46.4375 
Q 14.5 44.390625 14.5 40.28125 
Q 14.5 37.15625 16.890625 35.375 
Q 19.28125 33.59375 26.515625 31.984375 
L 29.59375 31.296875 
Q 39.15625 29.25 43.1875 25.515625 
Q 47.21875 21.78125 47.21875 15.09375 
Q 47.21875 7.46875 41.1875 3.015625 
Q 35.15625 -1.421875 24.609375 -1.421875 
Q 20.21875 -1.421875 15.453125 -0.5625 
Q 10.6875 0.296875 5.421875 2 
L 5.421875 11.28125 
Q 10.40625 8.6875 15.234375 7.390625 
Q 20.0625 6.109375 24.8125 6.109375 
Q 31.15625 6.109375 34.5625 8.28125 
Q 37.984375 10.453125 37.984375 14.40625 
Q 37.984375 18.0625 35.515625 20.015625 
Q 33.0625 21.96875 24.703125 23.78125 
L 21.578125 24.515625 
Q 13.234375 26.265625 9.515625 29.90625 
Q 5.8125 33.546875 5.8125 39.890625 
Q 5.8125 47.609375 11.28125 51.796875 
Q 16.75 56 26.8125 56 
Q 31.78125 56 36.171875 55.265625 
Q 40.578125 54.546875 44.28125 53.078125 
z
" id="DejaVuSans-73"/>
     </defs>
     <g transform="translate(222.170156 335.860562)scale(0.1 -0.1)">
      <use xlink:href="#DejaVuSans-53"/>
      <use x="63.476562" xlink:href="#DejaVuSans-74"/>
      <use x="102.685547" xlink:href="#DejaVuSans-65"/>
      <use x="164.208984" xlink:href="#DejaVuSans-70"/>
      <use x="227.685547" xlink:href="#DejaVuSans-73"/>
     </g>
    </g>
   </g>
   <g id="matplotlib.axis_2">
    <g id="ytick_1">
     <g id="line2d_6">
      <defs>
       <path d="M 0 0 
L -3.5 0 
" id="m65dbf74845" style="stroke:#000000;stroke-width:0.8;"/>
      </defs>
      <g>
       <use style="stroke:#000000;stroke-width:0.8;" x="57.6" xlink:href="#m65dbf74845" y="295.904769"/>
      </g>
     </g>
     <g id="text_7">
      <!-- 0.0 -->
      <defs>
       <path d="M 10.6875 12.40625 
L 21 12.40625 
L 21 0 
L 10.6875 0 
z
" id="DejaVuSans-2e"/>
      </defs>
      <g transform="translate(34.696875 299.703988)scale(0.1 -0.1)">
       <use xlink:href="#DejaVuSans-30"/>
       <use x="63.623047" xlink:href="#DejaVuSans-2e"/>
       <use x="95.410156" xlink:href="#DejaVuSans-30"/>
      </g>
     </g>
    </g>
    <g id="ytick_2">
     <g id="line2d_7">
      <g>
       <use style="stroke:#000000;stroke-width:0.8;" x="57.6" xlink:href="#m65dbf74845" y="214.38233"/>
      </g>
     </g>
     <g id="text_8">
      <!-- 0.5 -->
      <g transform="translate(34.696875 218.181549)scale(0.1 -0.1)">
       <use xlink:href="#DejaVuSans-30"/>
       <use x="63.623047" xlink:href="#DejaVuSans-2e"/>
       <use x="95.410156" xlink:href="#DejaVuSans-35"/>
      </g>
     </g>
    </g>
    <g id="ytick_3">
     <g id="line2d_8">
      <g>
       <use style="stroke:#000000;stroke-width:0.8;" x="57.6" xlink:href="#m65dbf74845" y="132.859891"/>
      </g>
     </g>
     <g id="text_9">
      <!-- 1.0 -->
      <g transform="translate(34.696875 136.65911)scale(0.1 -0.1)">
       <use xlink:href="#DejaVuSans-31"/>
       <use x="63.623047" xlink:href="#DejaVuSans-2e"/>
       <use x="95.410156" xlink:href="#DejaVuSans-30"/>
      </g>
     </g>
    </g>
    <g id="ytick_4">
     <g id="line2d_9">
      <g>
       <use style="stroke:#000000;stroke-width:0.8;" x="57.6" xlink:href="#m65dbf74845" y="51.337452"/>
      </g>
     </g>
     <g id="text_10">
      <!-- 1.5 -->
      <g transform="translate(34.696875 55.136671)scale(0.1 -0.1)">
       <use xlink:href="#DejaVuSans-31"/>
       <use x="63.623047" xlink:href="#DejaVuSans-2e"/>
       <use x="95.410156" xlink:href="#DejaVuSans-35"/>
      </g>
     </g>
    </g>
    <g id="text_11">
     <!-- Average reward -->
     <defs>
      <path d="M 34.1875 63.1875 
L 20.796875 26.90625 
L 47.609375 26.90625 
z
M 28.609375 72.90625 
L 39.796875 72.90625 
L 67.578125 0 
L 57.328125 0 
L 50.6875 18.703125 
L 17.828125 18.703125 
L 11.1875 0 
L 0.78125 0 
z
" id="DejaVuSans-41"/>
      <path d="M 2.984375 54.6875 
L 12.5 54.6875 
L 29.59375 8.796875 
L 46.6875 54.6875 
L 56.203125 54.6875 
L 35.6875 0 
L 23.484375 0 
z
" id="DejaVuSans-76"/>
      <path d="M 41.109375 46.296875 
Q 39.59375 47.171875 37.8125 47.578125 
Q 36.03125 48 33.890625 48 
Q 26.265625 48 22.1875 43.046875 
Q 18.109375 38.09375 18.109375 28.8125 
L 18.109375 0 
L 9.078125 0 
L 9.078125 54.6875 
L 18.109375 54.6875 
L 18.109375 46.1875 
Q 20.953125 51.171875 25.484375 53.578125 
Q 30.03125 56 36.53125 56 
Q 37.453125 56 38.578125 55.875 
Q 39.703125 55.765625 41.0625 55.515625 
z
" id="DejaVuSans-72"/>
      <path d="M 34.28125 27.484375 
Q 23.390625 27.484375 19.1875 25 
Q 14.984375 22.515625 14.984375 16.5 
Q 14.984375 11.71875 18.140625 8.90625 
Q 21.296875 6.109375 26.703125 6.109375 
Q 34.1875 6.109375 38.703125 11.40625 
Q 43.21875 16.703125 43.21875 25.484375 
L 43.21875 27.484375 
z
M 52.203125 31.203125 
L 52.203125 0 
L 43.21875 0 
L 43.21875 8.296875 
Q 40.140625 3.328125 35.546875 0.953125 
Q 30.953125 -1.421875 24.3125 -1.421875 
Q 15.921875 -1.421875 10.953125 3.296875 
Q 6 8.015625 6 15.921875 
Q 6 25.140625 12.171875 29.828125 
Q 18.359375 34.515625 30.609375 34.515625 
L 43.21875 34.515625 
L 43.21875 35.40625 
Q 43.21875 41.609375 39.140625 45 
Q 35.0625 48.390625 27.6875 48.390625 
Q 23 48.390625 18.546875 47.265625 
Q 14.109375 46.140625 10.015625 43.890625 
L 10.015625 52.203125 
Q 14.9375 54.109375 19.578125 55.046875 
Q 24.21875 56 28.609375 56 
Q 40.484375 56 46.34375 49.84375 
Q 52.203125 43.703125 52.203125 31.203125 
z
" id="DejaVuSans-61"/>
      <path d="M 45.40625 27.984375 
Q 45.40625 37.75 41.375 43.109375 
Q 37.359375 48.484375 30.078125 48.484375 
Q 22.859375 48.484375 18.828125 43.109375 
Q 14.796875 37.75 14.796875 27.984375 
Q 14.796875 18.265625 18.828125 12.890625 
Q 22.859375 7.515625 30.078125 7.515625 
Q 37.359375 7.515625 41.375 12.890625 
Q 45.40625 18.265625 45.40625 27.984375 
z
M 54.390625 6.78125 
Q 54.390625 -7.171875 48.1875 -13.984375 
Q 42 -20.796875 29.203125 -20.796875 
Q 24.46875 -20.796875 20.265625 -20.09375 
Q 16.0625 -19.390625 12.109375 -17.921875 
L 12.109375 -9.1875 
Q 16.0625 -11.328125 19.921875 -12.34375 
Q 23.78125 -13.375 27.78125 -13.375 
Q 36.625 -13.375 41.015625 -8.765625 
Q 45.40625 -4.15625 45.40625 5.171875 
L 45.40625 9.625 
Q 42.625 4.78125 38.28125 2.390625 
Q 33.9375 0 27.875 0 
Q 17.828125 0 11.671875 7.65625 
Q 5.515625 15.328125 5.515625 27.984375 
Q 5.515625 40.671875 11.671875 48.328125 
Q 17.828125 56 27.875 56 
Q 33.9375 56 38.28125 53.609375 
Q 42.625 51.21875 45.40625 46.390625 
L 45.40625 54.6875 
L 54.390625 54.6875 
z
" id="DejaVuSans-67"/>
      <path id="DejaVuSans-20"/>
      <path d="M 4.203125 54.6875 
L 13.1875 54.6875 
L 24.421875 12.015625 
L 35.59375 54.6875 
L 46.1875 54.6875 
L 57.421875 12.015625 
L 68.609375 54.6875 
L 77.59375 54.6875 
L 63.28125 0 
L 52.6875 0 
L 40.921875 44.828125 
L 29.109375 0 
L 18.5 0 
z
" id="DejaVuSans-77"/>
      <path d="M 45.40625 46.390625 
L 45.40625 75.984375 
L 54.390625 75.984375 
L 54.390625 0 
L 45.40625 0 
L 45.40625 8.203125 
Q 42.578125 3.328125 38.25 0.953125 
Q 33.9375 -1.421875 27.875 -1.421875 
Q 17.96875 -1.421875 11.734375 6.484375 
Q 5.515625 14.40625 5.515625 27.296875 
Q 5.515625 40.1875 11.734375 48.09375 
Q 17.96875 56 27.875 56 
Q 33.9375 56 38.25 53.625 
Q 42.578125 51.265625 45.40625 46.390625 
z
M 14.796875 27.296875 
Q 14.796875 17.390625 18.875 11.75 
Q 22.953125 6.109375 30.078125 6.109375 
Q 37.203125 6.109375 41.296875 11.75 
Q 45.40625 17.390625 45.40625 27.296875 
Q 45.40625 37.203125 41.296875 42.84375 
Q 37.203125 48.484375 30.078125 48.484375 
Q 22.953125 48.484375 18.875 42.84375 
Q 14.796875 37.203125 14.796875 27.296875 
z
" id="DejaVuSans-64"/>
     </defs>
     <g transform="translate(28.617187 214.452219)rotate(-90)scale(0.1 -0.1)">
      <use xlink:href="#DejaVuSans-41"/>
      <use x="68.330078" xlink:href="#DejaVuSans-76"/>
      <use x="127.509766" xlink:href="#DejaVuSans-65"/>
      <use x="189.033203" xlink:href="#DejaVuSans-72"/>
      <use x="230.146484" xlink:href="#DejaVuSans-61"/>
      <use x="291.425781" xlink:href="#DejaVuSans-67"/>
      <use x="354.902344" xlink:href="#DejaVuSans-65"/>
      <use x="416.425781" xlink:href="#DejaVuSans-20"/>
      <use x="448.212891" xlink:href="#DejaVuSans-72"/>
      <use x="489.294922" xlink:href="#DejaVuSans-65"/>
      <use x="550.818359" xlink:href="#DejaVuSans-77"/>
      <use x="632.605469" xlink:href="#DejaVuSans-61"/>
      <use x="693.884766" xlink:href="#DejaVuSans-72"/>
      <use x="734.982422" xlink:href="#DejaVuSans-64"/>
     </g>
    </g>
   </g>
   <g id="line2d_10">
    <path clip-path="url(#p578aa5ed06)" d="M 73.832727 293.141992 
L 74.157707 251.737168 
L 74.807666 207.273764 
L 75.457625 190.570766 
L 75.782604 182.147557 
L 76.107584 177.884645 
L 76.432563 171.546307 
L 76.757543 160.670614 
L 77.082523 162.48424 
L 77.407502 152.050299 
L 77.732482 146.691549 
L 78.057461 152.820032 
L 78.382441 147.977767 
L 78.70742 151.72055 
L 79.0324 143.984351 
L 79.357379 143.950959 
L 79.682359 134.929874 
L 80.007338 148.642319 
L 80.332318 137.699298 
L 80.657297 139.257549 
L 80.982277 139.325392 
L 81.632236 135.869812 
L 81.957215 137.96758 
L 82.282195 135.755098 
L 82.607174 141.389972 
L 82.932154 131.860876 
L 83.257133 129.502903 
L 83.582113 125.012788 
L 83.907093 130.316688 
L 84.232072 120.167763 
L 84.882031 132.540589 
L 85.53199 123.138335 
L 85.85697 123.335829 
L 86.181949 123.357034 
L 86.506929 122.089077 
L 86.831908 129.446906 
L 87.156888 114.688546 
L 87.481867 117.988197 
L 87.806847 115.152087 
L 88.131826 113.717617 
L 88.456806 117.27931 
L 88.781785 110.621913 
L 89.106765 123.000103 
L 89.431744 118.021744 
L 89.756724 110.576335 
L 90.081704 122.732619 
L 90.406683 115.637571 
L 90.731663 111.097621 
L 91.056642 112.007928 
L 91.381622 110.718202 
L 91.706601 113.607354 
L 92.031581 113.896841 
L 92.35656 113.234893 
L 92.68154 110.371747 
L 93.006519 106.260818 
L 93.331499 113.669143 
L 93.656478 103.9892 
L 93.981458 103.714622 
L 94.306437 110.315964 
L 94.631417 110.612856 
L 94.956396 111.967169 
L 95.281376 104.409514 
L 95.606355 102.59856 
L 95.931335 104.121524 
L 96.256314 100.601561 
L 96.581294 108.104017 
L 96.906274 105.791816 
L 97.231253 109.01856 
L 97.556233 104.638592 
L 97.881212 106.009213 
L 98.206192 108.850396 
L 98.531171 105.35191 
L 98.856151 106.250458 
L 99.18113 105.225671 
L 99.50611 100.61781 
L 99.831089 101.538185 
L 100.156069 106.3449 
L 100.481048 100.981991 
L 100.806028 93.745095 
L 101.131007 107.902655 
L 101.780966 90.471567 
L 102.105946 99.7145 
L 102.430925 98.933485 
L 102.755905 96.884259 
L 103.080885 99.413254 
L 103.405864 104.740711 
L 103.730844 98.66773 
L 104.055823 101.110116 
L 104.380803 93.616037 
L 104.705782 94.679659 
L 105.030762 98.759023 
L 105.355741 88.649535 
L 106.0057 103.02418 
L 106.33068 95.808568 
L 106.980639 100.407235 
L 107.305618 93.979149 
L 107.630598 93.255394 
L 107.955577 91.308171 
L 108.280557 94.40679 
L 108.605536 87.987762 
L 108.930516 99.238831 
L 109.255495 92.664914 
L 109.580475 96.401049 
L 110.230434 88.350349 
L 110.555414 93.070145 
L 110.880393 90.181498 
L 111.205373 92.429985 
L 111.530352 97.117614 
L 111.855332 100.097709 
L 112.180311 93.106957 
L 112.505291 97.820844 
L 112.83027 92.735391 
L 113.15525 97.292639 
L 113.480229 88.012699 
L 113.805209 85.593656 
L 114.130188 87.458157 
L 114.455168 92.10112 
L 114.780147 100.584457 
L 115.105127 89.478189 
L 115.430106 92.717004 
L 115.755086 90.968072 
L 116.080066 88.255169 
L 116.405045 100.574525 
L 116.730025 89.808939 
L 117.055004 96.155703 
L 117.379984 95.305319 
L 117.704963 87.092052 
L 118.029943 84.835498 
L 118.354922 86.73411 
L 118.679902 90.033955 
L 119.004881 91.453536 
L 119.329861 89.32433 
L 119.65484 97.59371 
L 119.97982 88.030892 
L 120.304799 92.409441 
L 120.629779 77.020718 
L 120.954758 82.301352 
L 121.279738 85.570527 
L 121.604717 80.273002 
L 121.929697 88.388289 
L 122.254676 85.107997 
L 122.579656 84.194989 
L 122.904636 89.467713 
L 123.229615 85.938809 
L 123.554595 89.324136 
L 124.204554 78.861429 
L 124.529533 82.005685 
L 124.854513 87.079846 
L 125.179492 87.708305 
L 125.504472 79.765166 
L 125.829451 90.056599 
L 126.154431 79.062324 
L 126.47941 85.192215 
L 126.80439 95.069671 
L 127.129369 86.959709 
L 127.454349 84.302414 
L 127.779328 86.483555 
L 128.104308 78.370988 
L 128.429287 86.678677 
L 128.754267 84.960533 
L 129.079247 80.871684 
L 129.729206 87.727838 
L 130.054185 93.36484 
L 130.379165 84.471375 
L 130.704144 78.747103 
L 131.354103 85.521955 
L 131.679083 74.550479 
L 132.004062 75.238511 
L 132.329042 88.886582 
L 132.654021 83.137878 
L 132.979001 87.921484 
L 133.30398 82.502306 
L 133.62896 82.743338 
L 133.953939 83.239104 
L 134.278919 77.378018 
L 134.603898 86.329093 
L 134.928878 90.326921 
L 135.253857 85.307493 
L 135.578837 84.61297 
L 135.903817 73.972361 
L 136.228796 86.480834 
L 136.553776 76.316088 
L 136.878755 79.588644 
L 137.203735 85.700615 
L 137.528714 79.445106 
L 137.853694 80.061086 
L 138.178673 84.629763 
L 138.503653 81.587976 
L 138.828632 85.13896 
L 139.153612 76.649384 
L 139.478591 75.811886 
L 139.803571 81.387644 
L 140.12855 76.870863 
L 140.45353 82.186347 
L 140.778509 82.829908 
L 141.103489 83.200308 
L 141.428468 82.680636 
L 141.753448 79.769461 
L 142.078428 82.301352 
L 142.728387 79.02316 
L 143.053366 75.887261 
L 143.378346 81.218916 
L 143.703325 82.958033 
L 144.028305 83.278443 
L 144.353284 76.570686 
L 144.678264 76.39673 
L 145.003243 88.509962 
L 145.653202 75.670486 
L 145.978182 77.354597 
L 146.303161 72.307861 
L 146.628141 84.634544 
L 146.95312 83.842139 
L 147.2781 80.33413 
L 147.603079 82.061273 
L 148.253038 75.013553 
L 148.902998 78.925686 
L 149.227977 79.234395 
L 149.552957 74.452228 
L 150.202916 83.235002 
L 150.527895 71.26045 
L 150.852875 82.131653 
L 151.177854 75.166032 
L 151.502834 80.095081 
L 151.827813 75.953617 
L 152.152793 81.176059 
L 152.477772 81.011393 
L 152.802752 79.799491 
L 153.127731 78.109937 
L 153.452711 87.298876 
L 153.77769 77.172905 
L 154.10267 73.120791 
L 154.427649 72.679175 
L 154.752629 74.506417 
L 155.077609 73.530648 
L 155.727568 83.533236 
L 156.052547 76.290237 
L 156.377527 77.163362 
L 156.702506 77.354384 
L 157.027486 72.521001 
L 157.677445 78.487996 
L 158.002424 68.906538 
L 158.327404 82.096162 
L 158.652383 77.194033 
L 158.977363 81.032812 
L 159.302342 75.231008 
L 159.627322 74.45528 
L 159.952301 75.244089 
L 160.277281 73.698735 
L 160.60226 83.123048 
L 160.92724 77.903891 
L 161.252219 79.589402 
L 161.577199 80.013758 
L 161.902179 76.852398 
L 162.227158 71.091469 
L 162.552138 75.542963 
L 162.877117 76.394961 
L 163.202097 78.603662 
L 163.527076 75.486073 
L 163.852056 77.011233 
L 164.177035 79.325202 
L 164.502015 76.817626 
L 164.826994 79.833038 
L 165.151974 84.709278 
L 165.801933 75.020434 
L 166.126912 74.575202 
L 166.451892 81.42401 
L 166.776871 74.468768 
L 167.101851 73.549424 
L 167.42683 78.620242 
L 167.75181 73.027457 
L 168.07679 72.246384 
L 168.401769 77.855339 
L 168.726749 73.051034 
L 169.376708 68.304261 
L 169.701687 67.676852 
L 170.026667 74.849218 
L 170.351646 84.864925 
L 170.676626 66.509672 
L 171.001605 77.421167 
L 171.326585 66.309457 
L 171.976544 78.334001 
L 172.301523 67.095468 
L 172.626503 70.948553 
L 172.951482 76.293522 
L 173.601441 81.062064 
L 173.926421 83.4165 
L 174.2514 71.933184 
L 174.57638 77.72288 
L 174.90136 76.314922 
L 175.226339 73.203552 
L 175.551319 83.706259 
L 175.876298 70.19848 
L 176.201278 72.557853 
L 176.526257 78.981527 
L 176.851237 65.821388 
L 177.176216 74.28385 
L 177.501196 73.332416 
L 177.826175 77.140135 
L 178.151155 68.973089 
L 178.476134 82.182285 
L 178.801114 81.918687 
L 179.126093 74.088649 
L 179.451073 70.632846 
L 179.776052 76.409519 
L 180.101032 78.798493 
L 180.426011 74.93433 
L 180.750991 78.966891 
L 181.075971 80.836348 
L 181.40095 70.232669 
L 181.72593 69.260573 
L 182.050909 75.582944 
L 182.375889 70.178402 
L 182.700868 74.765855 
L 183.025848 65.951418 
L 183.675807 75.259794 
L 184.000786 71.167913 
L 184.325766 75.842751 
L 184.650745 71.196892 
L 184.975725 76.88476 
L 185.625684 75.154448 
L 185.950663 76.35945 
L 186.275643 74.458214 
L 186.600622 76.318867 
L 186.925602 66.420245 
L 187.250581 73.201589 
L 187.575561 72.112486 
L 187.900541 66.98124 
L 188.22552 74.016424 
L 188.5505 66.907498 
L 188.875479 78.035496 
L 189.200459 71.886692 
L 189.525438 70.632088 
L 189.850418 80.89322 
L 190.175397 74.910171 
L 190.825356 68.485408 
L 191.150336 72.671809 
L 191.475315 71.471005 
L 191.800295 81.05738 
L 192.125274 75.270464 
L 192.450254 72.054624 
L 192.775233 76.014084 
L 193.100213 67.205401 
L 193.425192 73.410919 
L 193.750172 75.44273 
L 194.075152 73.689172 
L 194.400131 74.005792 
L 194.725111 70.252494 
L 195.05009 74.397262 
L 195.37507 73.07739 
L 195.700049 62.841856 
L 196.025029 64.685483 
L 196.350008 70.838154 
L 196.674988 61.351799 
L 196.999967 69.745222 
L 197.324947 67.284721 
L 197.649926 81.204669 
L 197.974906 64.123535 
L 198.299885 73.945461 
L 198.624865 76.958463 
L 198.949844 68.597207 
L 199.274824 72.801994 
L 199.599803 78.635946 
L 199.924783 75.978437 
L 200.249762 66.866954 
L 200.574742 75.684441 
L 200.899722 74.560936 
L 201.224701 74.962513 
L 201.549681 63.934866 
L 201.87466 71.53186 
L 202.19964 76.2322 
L 202.524619 72.901393 
L 202.849599 73.053327 
L 203.174578 70.262465 
L 203.499558 72.928001 
L 203.824537 73.341434 
L 204.149517 77.752889 
L 204.474496 67.85798 
L 204.799476 78.46269 
L 205.124455 69.252624 
L 205.449435 72.223274 
L 205.774414 67.291951 
L 206.099394 72.717096 
L 206.424373 67.328608 
L 207.074333 77.278504 
L 207.399312 77.700022 
L 207.724292 62.412738 
L 208.049271 65.30053 
L 208.374251 75.611283 
L 208.69923 75.640826 
L 209.02421 65.323446 
L 209.349189 77.461867 
L 209.999148 62.265196 
L 210.324128 66.563414 
L 210.649107 69.022185 
L 210.974087 69.271944 
L 211.299066 72.30376 
L 211.624046 67.979885 
L 211.949025 68.065678 
L 212.274005 65.138857 
L 212.598984 74.471256 
L 212.923964 66.773445 
L 213.248943 76.755624 
L 213.573923 64.659185 
L 213.898903 70.643575 
L 214.223882 74.282606 
L 214.548862 71.708829 
L 214.873841 74.296309 
L 215.198821 69.229417 
L 215.5238 68.942982 
L 215.84878 74.254928 
L 216.173759 69.90013 
L 216.498739 68.470073 
L 216.823718 65.869008 
L 217.148698 65.693205 
L 217.473677 69.950685 
L 217.798657 69.711422 
L 218.123636 63.352161 
L 218.448616 68.301015 
L 218.773595 78.31231 
L 219.098575 71.080079 
L 219.423554 72.006635 
L 219.748534 71.168398 
L 220.073514 71.656098 
L 220.398493 68.930601 
L 220.723473 73.510434 
L 221.048452 76.290179 
L 221.373432 70.636578 
L 221.698411 70.397082 
L 222.023391 67.418327 
L 222.34837 67.438191 
L 222.67335 74.711821 
L 222.998329 69.071165 
L 223.323309 76.605847 
L 223.648288 66.718517 
L 223.973268 79.212199 
L 224.298247 65.789454 
L 224.623227 70.026312 
L 224.948206 66.165433 
L 225.273186 71.921309 
L 225.598165 75.141581 
L 225.923145 71.300741 
L 226.248124 73.326915 
L 226.573104 66.278379 
L 226.898084 69.408563 
L 227.223063 74.965234 
L 227.548043 76.831076 
L 227.873022 67.707756 
L 228.198002 67.831333 
L 228.522981 73.164776 
L 228.847961 70.849019 
L 229.17294 78.505877 
L 229.822899 65.612991 
L 230.147879 70.640737 
L 230.472858 68.449548 
L 230.797838 73.232959 
L 231.122817 61.981287 
L 231.447797 59.2568 
L 232.097756 75.85797 
L 232.422735 76.090197 
L 232.747715 74.154189 
L 233.072695 71.385271 
L 233.397674 71.076192 
L 233.722654 67.683421 
L 234.047633 70.137586 
L 234.372613 66.863047 
L 234.697592 71.242743 
L 235.022572 67.393332 
L 235.347551 71.567876 
L 235.672531 69.239835 
L 235.99751 74.047891 
L 236.32249 67.831391 
L 236.647469 76.535195 
L 236.972449 69.699449 
L 237.297428 68.601308 
L 237.622408 72.721061 
L 237.947387 62.266051 
L 238.272367 68.546419 
L 238.597346 69.371303 
L 238.922326 61.44488 
L 239.247305 72.565764 
L 239.572285 68.500569 
L 239.897265 72.736416 
L 240.222244 70.707851 
L 240.872203 68.742961 
L 241.197183 70.988028 
L 241.522162 68.752485 
L 241.847142 69.897992 
L 242.172121 69.064518 
L 242.497101 73.019061 
L 242.82208 66.99815 
L 243.14706 75.596939 
L 243.472039 71.619072 
L 243.797019 69.274879 
L 244.121998 64.477182 
L 244.446978 70.454225 
L 244.771957 69.921199 
L 245.096937 64.681362 
L 245.421916 74.567428 
L 245.746896 71.952077 
L 246.071876 70.722312 
L 246.396855 68.404378 
L 246.721835 63.394551 
L 247.046814 76.65504 
L 247.371794 61.386473 
L 247.696773 71.900492 
L 248.021753 64.963813 
L 248.346732 64.907447 
L 248.671712 73.624682 
L 248.996691 57.466138 
L 249.321671 73.294728 
L 249.64665 67.743344 
L 249.97163 68.222938 
L 250.296609 67.875259 
L 250.621589 70.963091 
L 250.946568 69.764814 
L 251.271548 73.548413 
L 251.921507 69.556474 
L 252.246486 59.656045 
L 252.571466 72.662616 
L 252.896446 62.854548 
L 253.221425 73.885364 
L 253.871384 67.236052 
L 254.196364 67.636657 
L 254.521343 69.184771 
L 254.846323 65.839173 
L 255.171302 75.434625 
L 255.496282 75.809204 
L 255.821261 69.381255 
L 256.146241 69.661703 
L 256.47122 74.752793 
L 256.7962 72.245315 
L 257.121179 67.569737 
L 257.446159 64.901247 
L 257.771138 80.184274 
L 258.096118 74.969607 
L 258.421097 75.345489 
L 258.746077 59.957602 
L 259.071057 65.159693 
L 259.396036 63.439586 
L 259.721016 69.608661 
L 260.045995 69.609244 
L 260.370975 66.18485 
L 260.695954 60.031888 
L 261.020934 62.803605 
L 261.345913 67.709835 
L 261.670893 70.264467 
L 261.995872 69.85115 
L 262.320852 68.704166 
L 262.645831 60.837568 
L 263.29579 65.160568 
L 263.62077 77.082623 
L 263.945749 71.712017 
L 264.270729 68.682747 
L 264.595708 72.195868 
L 264.920688 67.2613 
L 265.245667 72.24615 
L 265.895627 68.997618 
L 266.220606 68.839133 
L 266.545586 69.766077 
L 266.870565 61.915553 
L 267.195545 66.876983 
L 267.520524 67.06851 
L 267.845504 74.107833 
L 268.170483 65.457305 
L 268.495463 68.516721 
L 268.820442 76.4074 
L 269.145422 70.288685 
L 269.795381 63.959025 
L 270.12036 67.813626 
L 270.44534 74.855146 
L 270.770319 75.015244 
L 271.095299 64.036266 
L 271.420278 64.465578 
L 271.745258 71.941173 
L 272.395217 67.122193 
L 272.720197 68.192326 
L 273.045176 65.021811 
L 273.370156 80.519204 
L 274.020115 64.47794 
L 274.345094 72.288483 
L 274.670074 66.50839 
L 274.995053 69.997779 
L 275.320033 68.108846 
L 275.645012 73.721397 
L 275.969992 70.134592 
L 276.294971 73.39572 
L 276.619951 69.58077 
L 276.94493 70.210997 
L 277.26991 62.513944 
L 277.594889 68.239207 
L 277.919869 67.606394 
L 278.244848 70.668318 
L 278.569828 72.645609 
L 278.894808 66.307533 
L 279.219787 72.815367 
L 279.544767 68.397128 
L 279.869746 76.441025 
L 280.194726 69.841627 
L 280.519705 66.188679 
L 280.844685 70.431484 
L 281.169664 73.052142 
L 281.494644 65.046942 
L 281.819623 74.385911 
L 282.144603 67.011269 
L 282.469582 68.198934 
L 282.794562 74.720062 
L 283.119541 67.283321 
L 283.444521 69.91014 
L 283.7695 75.116333 
L 284.09448 65.689803 
L 284.419459 73.496537 
L 284.744439 70.624197 
L 285.069419 69.499389 
L 285.394398 66.257368 
L 285.719378 67.85211 
L 286.044357 64.992481 
L 286.369337 69.827438 
L 286.694316 63.680054 
L 287.019296 70.87689 
L 287.344275 66.889014 
L 287.669255 75.088461 
L 287.994234 67.188277 
L 288.319214 67.115585 
L 288.644193 65.563428 
L 288.969173 70.360444 
L 289.294152 63.273112 
L 289.619132 69.219427 
L 289.944111 60.768258 
L 290.269091 67.311427 
L 290.59407 65.965102 
L 290.91905 66.759859 
L 291.244029 69.434044 
L 291.569009 66.708721 
L 291.893989 61.625231 
L 292.218968 70.78241 
L 292.543948 65.2388 
L 292.868927 69.903532 
L 293.193907 66.341586 
L 293.518886 65.460686 
L 293.843866 65.483349 
L 294.168845 79.837781 
L 294.493825 59.35476 
L 294.818804 68.334523 
L 295.143784 74.100836 
L 295.468763 67.094069 
L 295.793743 74.820782 
L 296.118722 68.741231 
L 296.443702 73.143163 
L 296.768681 68.683524 
L 297.093661 66.983514 
L 297.41864 66.922075 
L 297.74362 65.675887 
L 298.0686 65.232153 
L 298.393579 70.891662 
L 298.718559 68.3636 
L 299.043538 71.701035 
L 299.368518 67.867815 
L 299.693497 68.648344 
L 300.018477 64.027131 
L 300.343456 72.062845 
L 300.668436 65.866928 
L 301.318395 69.337348 
L 301.643374 58.092556 
L 301.968354 76.441589 
L 302.293333 66.000865 
L 302.618313 69.845844 
L 302.943292 62.598609 
L 303.268272 68.497167 
L 303.593251 64.902627 
L 303.918231 69.349573 
L 304.24321 59.90316 
L 304.56819 63.425067 
L 304.89317 68.534796 
L 305.218149 67.094827 
L 305.543129 67.539319 
L 305.868108 68.581075 
L 306.193088 70.191327 
L 306.843047 53.568 
L 307.168026 62.460707 
L 307.493006 65.680824 
L 308.142965 66.84155 
L 308.467944 60.315369 
L 308.792924 65.958649 
L 309.117903 73.772535 
L 309.442883 65.034367 
L 309.767862 61.69114 
L 310.092842 63.702347 
L 310.417821 67.488065 
L 310.742801 68.789259 
L 311.067781 68.715594 
L 311.39276 67.671623 
L 311.71774 68.335009 
L 312.042719 64.189134 
L 312.367699 65.785956 
L 312.692678 66.760267 
L 313.017658 64.051076 
L 313.342637 62.594974 
L 313.667617 72.636046 
L 313.992596 71.6443 
L 314.317576 71.691784 
L 314.642555 66.362908 
L 314.967535 75.431223 
L 315.292514 70.957027 
L 315.617494 64.768165 
L 315.942473 73.194903 
L 316.267453 69.681354 
L 316.592432 74.843465 
L 316.917412 63.292024 
L 317.567371 64.952112 
L 318.21733 68.985062 
L 318.54231 68.052481 
L 318.867289 74.225735 
L 319.192269 69.771461 
L 319.517248 75.572565 
L 319.842228 69.7363 
L 320.167207 66.414434 
L 320.492187 70.301046 
L 320.817166 69.794104 
L 321.142146 72.03785 
L 321.467125 65.685819 
L 321.792105 64.315432 
L 322.117084 64.183419 
L 322.442064 69.726854 
L 322.767043 72.287764 
L 323.092023 71.376427 
L 323.417002 63.031401 
L 323.741982 71.216873 
L 324.066962 58.899889 
L 324.391941 65.614954 
L 324.716921 69.662306 
L 325.0419 67.305304 
L 325.36688 72.10026 
L 325.691859 68.117593 
L 326.341818 72.643743 
L 326.666798 66.237679 
L 326.991777 72.38687 
L 327.316757 65.987959 
L 327.641736 66.612511 
L 328.291695 70.7262 
L 328.616675 60.604369 
L 329.591613 75.570233 
L 329.916593 71.740666 
L 330.566552 62.688677 
L 330.891532 64.335471 
L 331.541491 72.915465 
L 331.86647 59.637891 
L 332.19145 59.678125 
L 332.516429 71.797984 
L 332.841409 75.203506 
L 333.166388 68.01248 
L 333.491368 70.242562 
L 333.816347 65.856743 
L 334.466306 71.065094 
L 334.791286 58.758896 
L 335.116265 77.286434 
L 335.441245 69.393772 
L 335.766224 65.698822 
L 336.091204 67.024486 
L 336.416183 65.973071 
L 336.741163 69.549671 
L 337.066143 68.412444 
L 337.391122 83.081221 
L 338.041081 63.498711 
L 338.366061 67.1123 
L 338.69104 69.157541 
L 339.01602 64.617688 
L 339.340999 74.513278 
L 339.665979 69.758983 
L 339.990958 71.83643 
L 340.315938 62.695169 
L 340.640917 71.075725 
L 340.965897 64.636639 
L 341.290876 67.2061 
L 341.615856 71.660821 
L 341.940835 64.797262 
L 342.590794 61.661966 
L 342.915774 69.321138 
L 343.240753 73.563904 
L 343.565733 69.222284 
L 343.890713 60.272356 
L 344.215692 71.69293 
L 344.540672 71.896061 
L 344.865651 80.814677 
L 345.190631 63.795973 
L 345.51561 72.564423 
L 345.84059 66.394045 
L 346.165569 67.967718 
L 346.815528 64.116111 
L 347.140508 65.788813 
L 347.465487 70.157508 
L 347.790467 62.881604 
L 348.115446 62.919932 
L 348.440426 67.514402 
L 348.765405 63.596924 
L 349.090385 66.475892 
L 349.415364 64.48795 
L 349.740344 68.387682 
L 350.065324 64.886397 
L 350.390303 68.476856 
L 350.715283 68.198468 
L 351.040262 75.957913 
L 351.365242 68.545428 
L 352.015201 71.7195 
L 352.34018 68.827004 
L 352.66516 62.892274 
L 352.990139 73.71751 
L 353.315119 67.662449 
L 353.640098 70.018673 
L 353.965078 65.657111 
L 354.290057 66.531305 
L 354.615037 63.710239 
L 354.940016 66.770179 
L 355.264996 65.984266 
L 355.589975 66.122673 
L 355.914955 64.044546 
L 356.239934 66.271323 
L 356.564914 65.036077 
L 356.889894 74.74531 
L 357.214873 59.464751 
L 357.539853 63.132179 
L 357.864832 71.172344 
L 358.189812 68.027466 
L 358.514791 69.213226 
L 358.839771 64.156519 
L 359.16475 66.177542 
L 359.48973 69.192585 
L 359.814709 67.099822 
L 360.139689 61.795047 
L 360.789648 72.268211 
L 361.114627 60.941903 
L 361.439607 71.742454 
L 361.764586 66.792726 
L 362.089566 71.375747 
L 362.414545 63.357292 
L 362.739525 64.477746 
L 363.064505 68.118254 
L 363.389484 67.603285 
L 363.714464 67.704296 
L 364.039443 66.096764 
L 364.364423 55.32768 
L 364.689402 67.011833 
L 365.014382 67.816639 
L 365.339361 61.002681 
L 365.664341 71.363657 
L 365.98932 67.058519 
L 366.3143 65.960145 
L 366.639279 66.556709 
L 366.964259 61.68045 
L 367.289238 64.30447 
L 367.614218 71.992466 
L 367.939197 69.552704 
L 368.264177 64.51555 
L 368.589156 69.307007 
L 368.914136 71.3132 
L 369.239115 67.899963 
L 369.564095 68.665157 
L 369.889075 62.076157 
L 370.214054 69.601217 
L 370.539034 63.253948 
L 370.864013 60.86266 
L 371.188993 67.178812 
L 371.838952 72.643879 
L 372.163931 64.993784 
L 372.488911 65.856491 
L 372.81389 71.416427 
L 373.13887 66.182479 
L 373.463849 65.657831 
L 373.788829 67.967155 
L 374.113808 66.033654 
L 374.438788 67.928554 
L 374.763767 71.073199 
L 375.088747 63.065842 
L 375.413726 68.683563 
L 375.738706 65.963255 
L 376.063686 70.214729 
L 376.388665 68.289508 
L 376.713645 64.293041 
L 377.038624 70.689056 
L 377.363604 66.54736 
L 377.688583 65.372931 
L 378.013563 66.695543 
L 378.338542 64.425228 
L 378.663522 73.328023 
L 378.988501 65.722923 
L 379.313481 70.996327 
L 379.63846 64.079473 
L 379.96344 61.281069 
L 380.613399 71.325659 
L 380.938378 71.407895 
L 381.263358 72.485627 
L 381.588337 70.726627 
L 381.913317 64.949546 
L 382.238296 67.629077 
L 382.563276 71.431879 
L 382.888256 62.960594 
L 383.213235 72.826387 
L 383.538215 70.82344 
L 383.863194 60.961942 
L 384.188174 66.454376 
L 384.513153 66.52942 
L 384.838133 75.138782 
L 385.163112 62.135418 
L 385.488092 70.127887 
L 385.813071 63.139137 
L 386.138051 72.496239 
L 386.46303 62.249569 
L 387.112989 67.92525 
L 387.437969 67.204448 
L 387.762948 67.896075 
L 388.087928 67.149307 
L 388.737887 71.875866 
L 389.062867 63.51599 
L 389.387846 67.693236 
L 389.712826 68.971437 
L 390.037805 73.214961 
L 390.362785 61.510147 
L 390.687764 64.293294 
L 391.012744 69.117132 
L 391.337723 66.68703 
L 391.662703 68.839852 
L 391.987682 66.466912 
L 392.312662 59.178335 
L 392.637641 72.168327 
L 392.962621 63.437739 
L 393.2876 62.956978 
L 393.937559 69.963066 
L 394.262539 67.26682 
L 394.587518 58.590654 
L 394.912498 67.247461 
L 395.237477 67.740836 
L 395.562457 67.468318 
L 395.887437 69.862657 
L 396.212416 68.330325 
L 396.537396 64.726493 
L 396.862375 69.684386 
L 397.187355 63.712804 
L 397.512334 72.686814 
L 397.837314 58.974214 
L 398.162293 61.798429 
L 398.487273 74.620178 
L 398.487273 74.620178 
" style="fill:none;stroke:#1f77b4;stroke-linecap:square;stroke-width:1.5;"/>
   </g>
   <g id="line2d_11">
    <path clip-path="url(#p578aa5ed06)" d="M 73.832727 295.488 
L 74.157707 244.89599 
L 74.482686 221.357892 
L 74.807666 215.828981 
L 75.132645 194.572093 
L 75.782604 170.293967 
L 76.107584 172.071325 
L 76.432563 167.484766 
L 76.757543 167.267233 
L 77.082523 150.486422 
L 77.407502 149.016568 
L 78.057461 140.62608 
L 78.382441 139.345839 
L 78.70742 153.191015 
L 79.0324 142.881857 
L 79.357379 137.998591 
L 79.682359 147.897388 
L 80.007338 138.624357 
L 80.332318 137.104543 
L 80.657297 140.255106 
L 80.982277 135.87436 
L 81.307256 142.155827 
L 81.632236 128.075936 
L 81.957215 139.907669 
L 82.282195 132.870358 
L 82.607174 130.058824 
L 83.257133 134.406742 
L 83.582113 128.190805 
L 83.907093 131.642644 
L 84.232072 131.192845 
L 84.882031 132.461968 
L 85.207011 129.943139 
L 85.53199 134.146293 
L 85.85697 130.444288 
L 86.181949 135.090478 
L 86.506929 132.294951 
L 86.831908 126.581894 
L 87.156888 132.511143 
L 87.481867 132.881621 
L 87.806847 122.601831 
L 88.131826 135.476554 
L 88.456806 137.513165 
L 88.781785 124.074473 
L 89.106765 134.368948 
L 89.431744 127.888277 
L 89.756724 133.243343 
L 90.081704 130.401275 
L 90.406683 123.080764 
L 90.731663 131.729116 
L 91.381622 127.890823 
L 91.706601 129.967007 
L 92.031581 133.971968 
L 92.35656 131.090337 
L 92.68154 131.858622 
L 93.006519 128.805989 
L 93.331499 133.682267 
L 93.656478 128.172418 
L 93.981458 125.734561 
L 94.306437 118.691059 
L 94.631417 130.136551 
L 94.956396 129.994004 
L 95.281376 131.397103 
L 95.606355 135.814894 
L 95.931335 137.182483 
L 96.256314 127.626817 
L 96.581294 133.596737 
L 96.906274 129.481192 
L 97.231253 128.042816 
L 97.556233 132.383892 
L 97.881212 129.640338 
L 98.206192 125.713375 
L 98.531171 128.683811 
L 98.856151 130.444366 
L 99.18113 128.740779 
L 99.50611 133.448524 
L 99.831089 134.926755 
L 100.481048 124.311073 
L 100.806028 131.597823 
L 101.131007 133.381332 
L 101.455987 127.124735 
L 101.780966 123.491904 
L 102.105946 125.637612 
L 102.430925 126.562243 
L 102.755905 130.503589 
L 103.080885 123.498979 
L 103.405864 125.5794 
L 103.730844 133.149825 
L 104.055823 131.985522 
L 104.380803 127.599373 
L 104.705782 131.442351 
L 105.030762 133.324675 
L 105.355741 124.913604 
L 105.680721 129.415711 
L 106.0057 122.911026 
L 106.33068 132.654214 
L 106.655659 132.132578 
L 106.980639 137.817482 
L 107.305618 129.298839 
L 107.630598 127.48223 
L 107.955577 129.885024 
L 108.280557 128.643908 
L 108.605536 128.127889 
L 108.930516 125.949373 
L 109.255495 130.824135 
L 109.580475 123.732489 
L 109.905455 130.917372 
L 110.230434 130.151031 
L 110.555414 128.983113 
L 110.880393 129.617753 
L 111.205373 125.963173 
L 111.530352 128.884668 
L 111.855332 134.213194 
L 112.180311 124.187166 
L 112.505291 135.017008 
L 112.83027 128.608961 
L 113.15525 125.523345 
L 113.480229 130.866857 
L 113.805209 131.613353 
L 114.130188 129.053201 
L 114.455168 129.643856 
L 114.780147 131.432749 
L 115.105127 125.09514 
L 115.430106 127.266601 
L 115.755086 126.850195 
L 116.080066 125.955767 
L 116.405045 126.176799 
L 116.730025 133.320914 
L 117.055004 136.854036 
L 117.379984 124.530064 
L 117.704963 126.973052 
L 118.029943 127.981824 
L 118.354922 130.052158 
L 118.679902 124.968745 
L 119.004881 127.763184 
L 119.329861 128.154109 
L 119.65484 125.668963 
L 119.97982 131.827601 
L 120.304799 130.536631 
L 120.629779 132.400257 
L 120.954758 131.035818 
L 121.279738 135.804097 
L 121.929697 124.97444 
L 122.254676 129.342766 
L 122.579656 129.049139 
L 122.904636 125.234869 
L 123.229615 126.32574 
L 123.554595 123.165469 
L 123.879574 129.752098 
L 124.204554 129.329005 
L 124.529533 134.229695 
L 124.854513 129.822127 
L 125.179492 119.185658 
L 125.504472 126.159636 
L 125.829451 135.662124 
L 126.154431 125.48661 
L 126.47941 123.389668 
L 126.80439 127.830278 
L 127.129369 130.415911 
L 127.454349 135.146387 
L 127.779328 133.250049 
L 128.104308 128.797631 
L 128.429287 121.418403 
L 129.079247 134.046137 
L 129.404226 121.56233 
L 129.729206 128.308512 
L 130.054185 127.185882 
L 130.379165 126.675091 
L 130.704144 130.203801 
L 131.029124 126.277596 
L 131.354103 125.579866 
L 131.679083 130.988723 
L 132.004062 122.265832 
L 132.329042 129.611922 
L 132.654021 130.309011 
L 132.979001 130.567904 
L 133.30398 124.893817 
L 133.953939 132.695653 
L 134.278919 131.323089 
L 134.603898 131.463517 
L 134.928878 135.898248 
L 135.578837 127.178671 
L 135.903817 128.516735 
L 136.228796 132.450948 
L 136.553776 130.446854 
L 136.878755 129.843449 
L 137.203735 126.511592 
L 137.528714 124.582776 
L 137.853694 133.083099 
L 138.503653 124.530355 
L 138.828632 127.711074 
L 139.153612 122.315357 
L 139.478591 126.041463 
L 139.803571 128.026975 
L 140.12855 132.163171 
L 140.45353 123.284109 
L 140.778509 131.604956 
L 141.103489 125.432557 
L 141.428468 126.371455 
L 141.753448 130.374026 
L 142.078428 118.941167 
L 142.403407 127.987267 
L 142.728387 126.862867 
L 143.053366 132.328731 
L 143.378346 131.75761 
L 143.703325 127.992437 
L 144.028305 128.588747 
L 144.353284 123.694743 
L 144.678264 133.838128 
L 145.003243 123.71933 
L 145.328223 122.103071 
L 145.653202 130.253908 
L 145.978182 123.619174 
L 146.303161 122.998218 
L 146.628141 131.069404 
L 146.95312 132.801115 
L 147.2781 121.210024 
L 147.603079 122.833299 
L 147.928059 123.464635 
L 148.253038 121.610474 
L 148.578018 121.79442 
L 148.902998 133.382149 
L 149.227977 129.137517 
L 149.552957 121.723322 
L 149.877936 130.881084 
L 150.202916 127.27595 
L 150.527895 128.202584 
L 150.852875 123.979507 
L 151.177854 127.030507 
L 151.502834 123.36306 
L 151.827813 136.378571 
L 152.152793 125.256405 
L 152.477772 126.779446 
L 152.802752 125.533355 
L 153.127731 130.023761 
L 153.452711 127.62672 
L 153.77769 129.110539 
L 154.10267 124.711289 
L 154.427649 124.298342 
L 154.752629 129.586441 
L 155.077609 129.799911 
L 155.402588 129.370774 
L 155.727568 132.661289 
L 156.052547 128.35586 
L 156.377527 126.472972 
L 156.702506 131.690807 
L 157.027486 134.008139 
L 157.352465 123.912684 
L 157.677445 126.622652 
L 158.002424 128.193565 
L 158.327404 120.67902 
L 158.652383 132.673748 
L 158.977363 130.222557 
L 159.302342 118.100423 
L 159.627322 126.051395 
L 159.952301 124.79232 
L 160.277281 131.1068 
L 160.60226 127.572007 
L 160.92724 118.118013 
L 161.252219 125.168124 
L 161.577199 128.606318 
L 161.902179 137.758939 
L 162.227158 128.20927 
L 162.552138 127.607245 
L 162.877117 130.265356 
L 163.202097 129.195884 
L 163.527076 129.256487 
L 163.852056 129.867764 
L 164.177035 125.014498 
L 164.502015 126.196954 
L 164.826994 126.369531 
L 165.151974 131.271407 
L 165.476953 128.312614 
L 165.801933 129.661115 
L 166.126912 123.736026 
L 166.451892 133.481275 
L 166.776871 126.070481 
L 167.101851 133.881559 
L 167.42683 122.860102 
L 167.75181 126.045059 
L 168.07679 133.633705 
L 168.401769 124.623145 
L 168.726749 123.532759 
L 169.051728 131.760079 
L 169.376708 124.890785 
L 169.701687 127.638596 
L 170.026667 125.828459 
L 170.351646 133.797487 
L 170.676626 123.381991 
L 171.001605 123.965532 
L 171.326585 121.949193 
L 171.651564 130.561898 
L 171.976544 127.363648 
L 172.301523 129.97 
L 172.626503 123.471515 
L 172.951482 122.263558 
L 173.601441 130.817488 
L 173.926421 122.5215 
L 174.2514 131.716133 
L 174.57638 125.823716 
L 174.90136 123.33754 
L 175.226339 122.078173 
L 175.551319 127.317078 
L 175.876298 127.494416 
L 176.201278 128.753685 
L 176.851237 123.333341 
L 177.176216 126.193378 
L 177.501196 127.493095 
L 177.826175 133.558991 
L 178.151155 123.638513 
L 178.476134 131.81969 
L 178.801114 126.766618 
L 179.126093 123.832995 
L 179.451073 133.016053 
L 179.776052 129.74821 
L 180.101032 129.094834 
L 180.426011 124.289227 
L 180.750991 130.135832 
L 181.40095 122.460003 
L 181.72593 130.878985 
L 182.050909 122.659946 
L 182.375889 130.239117 
L 182.700868 126.048091 
L 183.025848 124.007495 
L 183.350827 133.33071 
L 183.675807 127.667517 
L 184.000786 129.83962 
L 184.325766 125.180525 
L 184.650745 129.525604 
L 184.975725 126.356508 
L 185.300704 129.378684 
L 185.625684 131.245187 
L 185.950663 125.138911 
L 186.275643 127.875177 
L 186.600622 125.71147 
L 186.925602 127.904642 
L 187.250581 128.860741 
L 187.575561 132.303969 
L 187.900541 128.654598 
L 188.22552 127.871211 
L 188.5505 124.884371 
L 188.875479 124.755974 
L 189.200459 121.113522 
L 189.525438 131.35166 
L 189.850418 124.912321 
L 190.175397 125.068357 
L 190.500377 126.057809 
L 190.825356 123.36617 
L 191.475315 129.057788 
L 191.800295 129.495789 
L 192.450254 119.872893 
L 192.775233 128.221437 
L 193.100213 124.607557 
L 193.425192 128.146957 
L 193.750172 133.499321 
L 194.075152 131.324974 
L 194.400131 122.378214 
L 194.725111 122.601967 
L 195.37507 129.245894 
L 195.700049 118.363865 
L 196.025029 131.664782 
L 196.350008 125.783405 
L 196.674988 132.696314 
L 196.999967 134.038887 
L 197.324947 131.35028 
L 197.649926 121.443903 
L 197.974906 125.174383 
L 198.299885 127.154589 
L 198.624865 119.778237 
L 198.949844 120.542343 
L 199.599803 133.24827 
L 199.924783 130.321081 
L 200.249762 129.488481 
L 200.574742 125.839945 
L 200.899722 124.072491 
L 201.224701 135.236621 
L 201.549681 128.582936 
L 201.87466 129.816743 
L 202.19964 127.711813 
L 202.524619 130.490139 
L 202.849599 130.144267 
L 203.174578 126.448385 
L 203.499558 127.853233 
L 203.824537 125.79392 
L 204.149517 127.760346 
L 204.474496 123.485354 
L 204.799476 129.804071 
L 205.124455 124.044444 
L 205.449435 129.094543 
L 205.774414 127.463026 
L 206.099394 124.968453 
L 206.424373 124.535117 
L 206.749353 129.327936 
L 207.074333 122.391023 
L 207.399312 121.058459 
L 207.724292 127.956071 
L 208.049271 130.628896 
L 208.374251 126.050267 
L 208.69923 126.152095 
L 209.349189 132.145601 
L 209.674169 136.239746 
L 209.999148 128.240116 
L 210.324128 125.704123 
L 210.649107 125.3414 
L 210.974087 128.779924 
L 211.299066 120.974629 
L 211.624046 125.713783 
L 211.949025 125.591722 
L 212.274005 126.65892 
L 212.598984 126.561155 
L 212.923964 129.236487 
L 213.248943 130.100885 
L 213.573923 127.142111 
L 213.898903 131.833957 
L 214.223882 126.353962 
L 214.548862 127.182655 
L 214.873841 133.314316 
L 215.198821 126.698124 
L 215.5238 129.47781 
L 215.84878 128.198949 
L 216.173759 128.454597 
L 216.498739 118.898154 
L 216.823718 129.510541 
L 217.148698 126.364536 
L 217.473677 128.619243 
L 217.798657 127.520053 
L 218.123636 129.015475 
L 218.448616 125.161691 
L 218.773595 131.342972 
L 219.098575 125.768711 
L 219.423554 117.250719 
L 219.748534 129.724848 
L 220.073514 123.756609 
L 220.398493 129.581348 
L 220.723473 120.139891 
L 221.048452 128.926786 
L 221.373432 123.508911 
L 221.698411 130.127493 
L 222.023391 118.372534 
L 222.34837 131.028801 
L 222.67335 123.990819 
L 222.998329 129.555731 
L 223.323309 127.628917 
L 223.648288 127.27354 
L 223.973268 128.687912 
L 224.298247 127.830881 
L 224.623227 122.987897 
L 224.948206 123.821099 
L 225.273186 123.249551 
L 225.598165 130.960463 
L 226.248124 126.005836 
L 226.573104 128.154479 
L 226.898084 120.068637 
L 227.223063 133.40246 
L 227.548043 127.472997 
L 227.873022 132.681697 
L 228.198002 121.66132 
L 228.522981 133.370399 
L 229.17294 121.887424 
L 229.49792 130.600402 
L 229.822899 126.990351 
L 230.147879 130.379254 
L 230.472858 130.55564 
L 230.797838 122.909393 
L 231.122817 122.815865 
L 231.447797 128.741596 
L 231.772776 128.198152 
L 232.097756 127.249556 
L 232.422735 127.601861 
L 232.747715 127.499645 
L 233.072695 128.749545 
L 233.722654 125.977944 
L 234.047633 124.396224 
L 234.372613 123.449669 
L 234.697592 125.294131 
L 235.022572 128.709603 
L 235.347551 129.403835 
L 235.672531 134.243787 
L 235.99751 126.628794 
L 236.32249 127.406563 
L 236.647469 126.817425 
L 236.972449 129.954645 
L 237.297428 126.835073 
L 237.622408 129.120257 
L 237.947387 129.691184 
L 238.272367 127.086289 
L 238.597346 128.561303 
L 238.922326 137.992604 
L 239.247305 131.212767 
L 239.572285 118.723906 
L 240.222244 122.860297 
L 240.547224 137.038964 
L 240.872203 121.055096 
L 241.197183 126.732565 
L 241.522162 119.813339 
L 241.847142 130.893834 
L 242.172121 131.001473 
L 242.497101 129.571591 
L 242.82208 134.572593 
L 243.14706 127.1335 
L 243.472039 126.140919 
L 243.797019 130.84845 
L 244.121998 132.422571 
L 244.446978 137.067983 
L 244.771957 127.354065 
L 245.096937 125.823347 
L 245.421916 127.022985 
L 245.746896 135.10074 
L 246.071876 129.754877 
L 246.721835 125.296172 
L 247.046814 127.232899 
L 247.371794 131.912227 
L 247.696773 128.785833 
L 248.021753 130.937469 
L 248.346732 123.812295 
L 248.996691 131.577337 
L 249.97163 124.314747 
L 250.296609 129.253513 
L 250.621589 125.346706 
L 250.946568 130.491422 
L 251.271548 120.452255 
L 251.596527 126.635052 
L 251.921507 124.020109 
L 252.246486 130.664542 
L 252.571466 131.676735 
L 253.546405 126.694606 
L 253.871384 118.493312 
L 254.196364 126.980536 
L 254.846323 133.7201 
L 255.171302 125.924241 
L 255.496282 132.102782 
L 255.821261 121.814965 
L 256.47122 129.34123 
L 256.7962 129.122356 
L 257.121179 127.924623 
L 257.446159 127.322501 
L 258.096118 120.967593 
L 258.421097 132.107622 
L 258.746077 123.654548 
L 259.071057 131.984045 
L 259.396036 131.238229 
L 259.721016 126.243349 
L 260.045995 124.311579 
L 260.370975 126.814801 
L 260.695954 122.553939 
L 261.020934 129.254038 
L 261.345913 128.677397 
L 261.670893 127.763728 
L 261.995872 132.071295 
L 262.320852 125.34383 
L 262.970811 130.693483 
L 263.29579 130.366912 
L 263.62077 128.439864 
L 263.945749 129.515439 
L 264.270729 120.40448 
L 264.595708 124.9365 
L 265.245667 129.974392 
L 265.570647 118.979884 
L 266.220606 130.572822 
L 266.545586 133.581188 
L 266.870565 124.4481 
L 267.195545 118.741418 
L 267.520524 132.190791 
L 267.845504 129.216254 
L 268.170483 128.196695 
L 268.495463 128.091329 
L 268.820442 133.775912 
L 269.145422 125.790927 
L 269.470401 124.10596 
L 269.795381 137.158294 
L 270.12036 123.624694 
L 270.44534 128.36653 
L 270.770319 129.153454 
L 271.095299 127.324367 
L 271.420278 131.233214 
L 271.745258 123.621312 
L 272.395217 132.493339 
L 273.045176 122.387155 
L 273.370156 132.649686 
L 273.695135 122.116716 
L 274.020115 121.724313 
L 274.345094 130.516048 
L 274.670074 127.47047 
L 274.995053 127.891892 
L 275.320033 126.297441 
L 275.645012 135.188758 
L 275.969992 127.977432 
L 276.294971 128.600759 
L 276.619951 122.018989 
L 277.594889 132.028496 
L 277.919869 127.500364 
L 278.244848 129.895364 
L 278.569828 129.403913 
L 278.894808 116.865741 
L 279.219787 130.400848 
L 279.544767 128.611799 
L 279.869746 125.72323 
L 280.519705 129.448034 
L 280.844685 128.754657 
L 281.169664 122.79878 
L 281.494644 129.668637 
L 281.819623 124.368022 
L 282.144603 123.610758 
L 282.469582 120.030095 
L 282.794562 120.37653 
L 283.119541 128.433975 
L 283.444521 122.168611 
L 284.09448 131.316092 
L 284.419459 128.125635 
L 284.744439 130.692142 
L 285.394398 122.900627 
L 285.719378 121.373135 
L 286.044357 127.872203 
L 286.369337 124.592066 
L 286.694316 124.551094 
L 287.019296 121.86894 
L 287.344275 125.38212 
L 287.669255 123.342166 
L 287.994234 130.236338 
L 288.319214 128.286666 
L 288.644193 127.868724 
L 288.969173 128.823618 
L 289.294152 128.293508 
L 289.619132 128.561031 
L 289.944111 128.282098 
L 290.269091 128.742101 
L 290.59407 131.369483 
L 290.91905 131.276344 
L 291.244029 125.711159 
L 291.569009 130.583337 
L 291.893989 125.133236 
L 292.218968 126.4782 
L 292.543948 132.268517 
L 293.193907 126.590407 
L 293.518886 130.898966 
L 293.843866 130.16036 
L 294.168845 127.184191 
L 294.493825 131.922567 
L 295.143784 128.870421 
L 295.468763 127.632784 
L 295.793743 128.94323 
L 296.118722 131.589951 
L 296.443702 129.968989 
L 296.768681 131.310844 
L 297.093661 121.038361 
L 297.41864 125.23551 
L 297.74362 127.939375 
L 298.0686 123.34477 
L 298.393579 124.483902 
L 298.718559 124.623787 
L 299.043538 130.189165 
L 299.368518 125.991161 
L 299.693497 119.359459 
L 300.018477 121.833876 
L 300.343456 129.040023 
L 300.668436 124.835761 
L 300.993415 130.769169 
L 301.318395 128.150591 
L 301.643374 131.541263 
L 302.293333 125.274014 
L 302.618313 125.180777 
L 302.943292 133.407892 
L 303.268272 124.827792 
L 303.593251 123.291864 
L 303.918231 132.828268 
L 304.24321 125.477339 
L 304.56819 127.302637 
L 304.89317 123.871576 
L 305.218149 129.31398 
L 305.543129 128.469855 
L 305.868108 120.001756 
L 306.193088 130.583648 
L 306.518067 132.457284 
L 306.843047 124.22357 
L 307.168026 128.717903 
L 307.493006 128.497785 
L 307.817985 135.084064 
L 308.142965 119.82539 
L 308.467944 127.044151 
L 308.792924 130.946021 
L 309.117903 136.810449 
L 309.442883 127.133345 
L 309.767862 131.514693 
L 310.092842 113.642845 
L 310.417821 130.1045 
L 310.742801 118.777998 
L 311.067781 130.134199 
L 311.39276 127.85574 
L 311.71774 131.55862 
L 312.042719 122.270925 
L 312.367699 125.029309 
L 312.692678 126.541544 
L 313.017658 129.453048 
L 313.342637 128.783287 
L 313.667617 122.359069 
L 313.992596 119.072635 
L 314.317576 128.955611 
L 314.642555 131.841323 
L 314.967535 122.636136 
L 315.292514 123.817232 
L 315.942473 130.519935 
L 316.267453 125.96811 
L 316.592432 127.511831 
L 316.917412 130.638925 
L 317.242391 130.640752 
L 317.567371 129.449802 
L 317.892351 130.424502 
L 318.21733 127.261256 
L 318.54231 126.994199 
L 318.867289 122.781229 
L 319.192269 129.541776 
L 319.517248 128.344062 
L 319.842228 124.893118 
L 320.167207 125.48418 
L 320.492187 126.389725 
L 320.817166 130.717215 
L 321.142146 122.616058 
L 321.467125 125.748925 
L 321.792105 131.05263 
L 322.117084 124.227788 
L 322.442064 129.573885 
L 322.767043 129.948017 
L 323.092023 132.0877 
L 323.417002 132.722436 
L 323.741982 128.368785 
L 324.066962 127.186232 
L 324.391941 129.630484 
L 324.716921 127.652201 
L 325.0419 128.805464 
L 325.36688 124.363668 
L 325.691859 127.64709 
L 326.016839 127.534067 
L 326.341818 131.026683 
L 326.666798 130.746584 
L 326.991777 125.665153 
L 327.316757 126.174389 
L 327.966716 131.879399 
L 328.291695 126.648386 
L 328.616675 133.754347 
L 328.941654 124.368003 
L 329.266634 127.970201 
L 329.591613 127.067864 
L 330.241572 132.910212 
L 330.566552 128.100931 
L 330.891532 130.68083 
L 331.216511 119.842805 
L 331.541491 128.830751 
L 331.86647 128.509272 
L 332.19145 127.478187 
L 332.516429 133.654872 
L 333.166388 119.789685 
L 333.491368 129.191453 
L 334.141327 122.10968 
L 334.466306 121.434904 
L 334.791286 121.496401 
L 335.116265 129.238683 
L 335.441245 123.323137 
L 335.766224 123.929749 
L 336.091204 125.721772 
L 336.416183 124.758462 
L 336.741163 130.535057 
L 337.066143 126.57064 
L 337.391122 126.832469 
L 337.716102 125.146278 
L 338.041081 128.089755 
L 338.366061 125.78597 
L 338.69104 120.289416 
L 339.01602 131.830458 
L 339.340999 125.443889 
L 339.665979 137.234961 
L 339.990958 124.421336 
L 340.315938 131.751779 
L 340.640917 118.059257 
L 340.965897 130.262927 
L 341.290876 122.49736 
L 341.615856 125.950131 
L 341.940835 131.46239 
L 342.265815 125.100544 
L 342.590794 122.85744 
L 342.915774 128.422799 
L 343.240753 123.639913 
L 343.565733 128.025459 
L 343.890713 134.070822 
L 344.215692 123.498337 
L 344.540672 125.872968 
L 344.865651 126.117731 
L 345.190631 134.377053 
L 345.51561 138.918344 
L 345.84059 126.645898 
L 346.165569 133.195199 
L 346.490549 126.069976 
L 346.815528 125.569312 
L 347.140508 128.644822 
L 347.465487 126.552894 
L 347.790467 122.283014 
L 348.115446 124.72402 
L 348.440426 126.121366 
L 348.765405 125.877555 
L 349.090385 126.784033 
L 349.415364 126.700028 
L 349.740344 125.26966 
L 350.065324 127.262908 
L 350.390303 125.480235 
L 350.715283 131.253117 
L 351.040262 127.475349 
L 351.365242 126.000802 
L 351.690221 125.520429 
L 352.015201 121.509424 
L 352.34018 127.94575 
L 352.66516 127.166581 
L 352.990139 129.085019 
L 353.315119 125.082759 
L 353.640098 131.77244 
L 354.290057 121.280909 
L 354.615037 121.279762 
L 354.940016 126.518531 
L 355.264996 127.33286 
L 355.589975 123.83972 
L 355.914955 123.54516 
L 356.239934 135.68845 
L 356.889894 123.026556 
L 357.214873 126.474993 
L 357.539853 135.564737 
L 357.864832 127.894866 
L 358.189812 130.802813 
L 358.514791 130.427495 
L 358.839771 132.668325 
L 359.16475 129.991963 
L 359.48973 125.246531 
L 359.814709 126.23575 
L 360.139689 129.140063 
L 360.464668 126.08776 
L 360.789648 125.163304 
L 361.114627 127.370489 
L 361.439607 127.554572 
L 361.764586 127.463376 
L 362.089566 126.989923 
L 362.414545 127.147106 
L 362.739525 122.976352 
L 363.389484 130.643259 
L 363.714464 128.597397 
L 364.039443 130.367301 
L 364.364423 129.80512 
L 364.689402 131.112222 
L 365.014382 131.426063 
L 365.339361 126.991031 
L 365.664341 134.308598 
L 365.98932 123.381447 
L 366.3143 130.388545 
L 366.639279 130.501334 
L 366.964259 119.443677 
L 367.614218 129.151686 
L 367.939197 128.997321 
L 368.264177 129.192152 
L 368.589156 124.66231 
L 369.239115 129.916763 
L 369.564095 129.049683 
L 369.889075 123.024904 
L 370.214054 122.05347 
L 370.539034 134.56062 
L 371.188993 124.406778 
L 371.513972 126.055185 
L 371.838952 129.900592 
L 372.163931 127.601919 
L 372.488911 127.800793 
L 372.81389 124.124736 
L 373.13887 127.982213 
L 373.463849 127.751463 
L 373.788829 125.143109 
L 374.113808 128.703734 
L 374.438788 136.582411 
L 374.763767 130.00932 
L 375.088747 126.962635 
L 375.413726 129.957055 
L 375.738706 125.376017 
L 376.063686 123.063816 
L 376.388665 127.213384 
L 376.713645 127.788743 
L 377.038624 127.604874 
L 377.363604 122.748148 
L 377.688583 131.644024 
L 378.013563 123.772722 
L 378.338542 127.468332 
L 378.663522 128.630652 
L 378.988501 130.957566 
L 379.313481 125.3628 
L 379.63846 127.343239 
L 379.96344 126.574819 
L 380.288419 126.275828 
L 380.613399 125.715436 
L 380.938378 133.801121 
L 381.263358 123.321077 
L 381.588337 124.703165 
L 381.913317 127.111537 
L 382.238296 123.421136 
L 382.563276 135.370577 
L 382.888256 131.281164 
L 383.213235 132.542863 
L 383.538215 132.755712 
L 384.188174 123.927086 
L 384.513153 126.749125 
L 385.163112 122.998315 
L 385.488092 122.684125 
L 385.813071 128.06649 
L 386.138051 125.822919 
L 386.46303 128.166043 
L 386.78801 122.702628 
L 387.112989 129.325253 
L 387.437969 126.080822 
L 387.762948 126.934627 
L 388.087928 128.128259 
L 388.412907 125.689682 
L 388.737887 126.542846 
L 389.062867 129.261385 
L 389.387846 127.98371 
L 389.712826 132.884235 
L 390.037805 125.801597 
L 390.362785 126.786696 
L 390.687764 129.875033 
L 391.012744 130.231692 
L 391.337723 127.719801 
L 391.662703 128.799128 
L 391.987682 125.585367 
L 392.637641 130.546874 
L 392.962621 126.484167 
L 393.2876 125.629079 
L 393.61258 135.689413 
L 394.587518 122.43561 
L 394.912498 130.267261 
L 395.237477 127.009923 
L 395.562457 126.240687 
L 395.887437 132.873992 
L 396.212416 130.928509 
L 396.537396 127.038476 
L 396.862375 129.16154 
L 397.187355 121.24293 
L 397.512334 121.443242 
L 397.837314 131.769777 
L 398.162293 128.036732 
L 398.487273 131.158501 
L 398.487273 131.158501 
" style="fill:none;stroke:#ff7f0e;stroke-linecap:square;stroke-width:1.5;"/>
   </g>
   <g id="line2d_12">
    <path clip-path="url(#p578aa5ed06)" d="M 73.832727 293.111097 
L 74.157707 243.460544 
L 74.807666 207.984079 
L 75.132645 202.745311 
L 75.457625 182.141532 
L 75.782604 170.448292 
L 76.432563 153.274855 
L 76.757543 154.126619 
L 77.082523 152.974299 
L 77.407502 150.663459 
L 77.732482 141.986127 
L 78.057461 143.665778 
L 78.382441 143.1863 
L 78.70742 136.909488 
L 79.0324 138.364638 
L 79.357379 137.788016 
L 79.682359 136.520302 
L 80.007338 136.484422 
L 80.332318 130.561199 
L 80.657297 130.083761 
L 80.982277 135.618654 
L 81.632236 133.14757 
L 81.957215 135.722309 
L 82.282195 124.533737 
L 82.607174 124.086465 
L 82.932154 131.503401 
L 83.257133 130.570198 
L 83.582113 123.252272 
L 83.907093 127.924195 
L 84.232072 136.191894 
L 84.882031 121.404195 
L 85.207011 128.494306 
L 85.85697 126.923781 
L 86.181949 129.403777 
L 86.506929 129.725275 
L 86.831908 130.269827 
L 87.156888 127.53084 
L 87.481867 128.990635 
L 87.806847 121.812846 
L 88.131826 129.645586 
L 88.456806 131.024972 
L 88.781785 131.719593 
L 89.106765 122.752794 
L 89.431744 126.335167 
L 89.756724 120.619156 
L 90.081704 118.618852 
L 90.406683 120.180883 
L 90.731663 120.378455 
L 91.056642 119.687488 
L 91.381622 127.861299 
L 92.031581 124.555623 
L 92.35656 121.524351 
L 92.68154 121.004892 
L 93.006519 130.91504 
L 93.331499 117.145568 
L 93.656478 128.539729 
L 93.981458 115.655705 
L 94.306437 126.10193 
L 94.631417 121.17739 
L 94.956396 131.378424 
L 95.281376 122.632346 
L 95.606355 126.079033 
L 95.931335 121.471522 
L 96.256314 124.343085 
L 96.581294 123.223389 
L 96.906274 123.736065 
L 97.231253 120.013146 
L 97.556233 123.369046 
L 97.881212 124.348663 
L 98.206192 123.6783 
L 98.531171 126.437558 
L 98.856151 120.666658 
L 99.18113 117.725008 
L 99.50611 126.625587 
L 99.831089 124.803185 
L 100.156069 124.513135 
L 100.481048 116.692096 
L 100.806028 122.742998 
L 101.131007 122.035491 
L 101.455987 120.895523 
L 101.780966 123.190775 
L 102.105946 118.963499 
L 102.430925 125.004333 
L 102.755905 121.324213 
L 103.080885 120.107744 
L 103.405864 124.295213 
L 103.730844 122.411742 
L 104.055823 114.936186 
L 104.380803 124.477216 
L 104.705782 122.69427 
L 105.030762 122.216911 
L 105.355741 120.154585 
L 105.680721 120.286967 
L 106.0057 118.234651 
L 106.33068 119.861542 
L 106.980639 114.660383 
L 107.305618 126.539075 
L 107.630598 118.996911 
L 107.955577 120.685337 
L 108.280557 118.255779 
L 108.930516 119.348166 
L 109.255495 116.563504 
L 109.580475 119.282841 
L 109.905455 113.469899 
L 110.230434 116.08424 
L 110.555414 120.430933 
L 110.880393 118.7724 
L 111.205373 114.239292 
L 111.530352 116.850445 
L 111.855332 120.368153 
L 112.505291 115.624568 
L 112.83027 116.310986 
L 113.15525 118.697064 
L 113.480229 122.60014 
L 113.805209 112.228337 
L 114.130188 118.145321 
L 114.455168 116.905353 
L 114.780147 116.429276 
L 115.105127 116.565487 
L 115.430106 115.501068 
L 115.755086 111.938986 
L 116.080066 112.349854 
L 116.405045 118.349132 
L 116.730025 117.819644 
L 117.379984 111.479139 
L 117.704963 117.679935 
L 118.029943 112.733471 
L 118.354922 112.277492 
L 118.679902 110.56271 
L 119.004881 115.092164 
L 119.329861 112.475588 
L 119.97982 121.040383 
L 120.304799 110.959214 
L 120.629779 116.471239 
L 120.954758 124.335874 
L 121.279738 115.280017 
L 121.604717 113.664109 
L 121.929697 112.97462 
L 122.254676 108.775896 
L 122.579656 116.344125 
L 122.904636 112.737534 
L 123.229615 113.89686 
L 123.554595 116.676819 
L 123.879574 117.09445 
L 124.204554 119.395455 
L 124.529533 118.883382 
L 124.854513 118.793605 
L 125.179492 109.386415 
L 125.504472 109.66422 
L 125.829451 118.046623 
L 126.154431 110.201891 
L 126.47941 121.861923 
L 126.80439 117.599235 
L 127.129369 118.669465 
L 127.454349 121.569035 
L 127.779328 107.815832 
L 128.104308 113.467548 
L 128.429287 109.935709 
L 128.754267 116.2898 
L 129.079247 108.335777 
L 129.404226 114.479954 
L 129.729206 111.06728 
L 130.054185 116.635983 
L 130.379165 113.044085 
L 130.704144 108.066057 
L 131.029124 113.550852 
L 131.679083 108.609851 
L 132.004062 110.325391 
L 132.329042 105.00977 
L 132.654021 115.088588 
L 132.979001 106.960958 
L 133.30398 116.347954 
L 133.62896 109.781306 
L 133.953939 109.906438 
L 134.278919 111.26011 
L 134.603898 115.106411 
L 134.928878 112.985135 
L 135.253857 117.988158 
L 135.578837 114.469964 
L 135.903817 115.09436 
L 136.228796 107.786308 
L 136.553776 119.389586 
L 136.878755 114.780539 
L 137.203735 114.469536 
L 137.528714 115.314284 
L 137.853694 114.130603 
L 138.178673 111.272238 
L 138.503653 113.266186 
L 138.828632 108.396924 
L 139.153612 108.060187 
L 139.478591 111.704505 
L 140.12855 109.649351 
L 140.45353 112.785406 
L 140.778509 109.51007 
L 141.103489 109.869742 
L 141.428468 113.587062 
L 141.753448 112.903152 
L 142.403407 104.519388 
L 142.728387 111.67673 
L 143.053366 112.036052 
L 143.378346 110.650971 
L 143.703325 104.844385 
L 144.028305 111.431053 
L 144.353284 111.635661 
L 144.678264 110.061366 
L 145.003243 110.009354 
L 145.328223 109.365054 
L 145.653202 110.082921 
L 145.978182 113.397693 
L 146.303161 106.679868 
L 146.628141 111.898559 
L 147.2781 107.377384 
L 147.603079 111.939686 
L 147.928059 108.250684 
L 148.253038 114.14625 
L 148.578018 107.810954 
L 148.902998 107.240746 
L 149.227977 106.396057 
L 149.552957 100.798044 
L 149.877936 103.173763 
L 150.527895 115.870167 
L 150.852875 101.675853 
L 151.177854 110.560105 
L 151.502834 107.398959 
L 151.827813 110.520746 
L 152.152793 108.503067 
L 152.477772 110.937581 
L 152.802752 110.829106 
L 153.127731 105.503942 
L 153.77769 114.795661 
L 154.10267 106.715476 
L 154.427649 110.262533 
L 154.752629 104.077442 
L 155.077609 109.067579 
L 155.402588 105.383825 
L 155.727568 106.318525 
L 156.052547 108.623767 
L 156.377527 105.002793 
L 156.702506 99.480543 
L 157.027486 102.015836 
L 157.352465 107.455733 
L 157.677445 105.647403 
L 158.002424 101.805514 
L 158.327404 111.973875 
L 158.652383 112.272263 
L 158.977363 102.065496 
L 159.302342 101.258144 
L 159.627322 106.816176 
L 159.952301 105.792671 
L 160.277281 107.723237 
L 160.92724 102.200171 
L 161.252219 101.278552 
L 161.577199 102.869621 
L 161.902179 100.125581 
L 162.227158 107.281135 
L 162.552138 107.165702 
L 162.877117 104.941859 
L 163.202097 99.800195 
L 163.527076 103.138447 
L 163.852056 100.106164 
L 164.177035 105.702389 
L 164.502015 107.132368 
L 164.826994 111.471948 
L 165.151974 103.795089 
L 165.476953 104.759584 
L 165.801933 103.740453 
L 166.126912 103.657245 
L 166.451892 101.802346 
L 166.776871 104.766231 
L 167.101851 105.664624 
L 167.42683 97.69235 
L 167.75181 103.547876 
L 168.07679 100.264183 
L 168.401769 103.49427 
L 168.726749 101.657 
L 169.051728 103.694971 
L 169.376708 112.275801 
L 169.701687 100.488596 
L 170.026667 102.687229 
L 170.351646 103.128748 
L 170.676626 100.149993 
L 171.001605 105.742622 
L 171.326585 106.142994 
L 171.651564 98.208174 
L 171.976544 103.487059 
L 172.301523 100.838122 
L 172.626503 104.676046 
L 172.951482 102.581534 
L 173.276462 96.241768 
L 173.601441 102.757084 
L 173.926421 105.950048 
L 174.2514 100.90751 
L 174.57638 104.580749 
L 174.90136 105.359666 
L 175.226339 101.84598 
L 175.551319 100.916334 
L 175.876298 95.875604 
L 176.201278 104.427415 
L 176.526257 103.594854 
L 176.851237 105.10118 
L 177.176216 110.782361 
L 177.826175 102.474206 
L 178.151155 102.314613 
L 178.476134 99.707211 
L 178.801114 102.219705 
L 179.126093 95.376301 
L 179.451073 106.042371 
L 179.776052 103.046882 
L 180.101032 108.762407 
L 180.426011 103.800297 
L 180.750991 104.578164 
L 181.075971 105.025358 
L 181.40095 103.241791 
L 181.72593 106.819344 
L 182.050909 94.529376 
L 182.375889 94.350153 
L 182.700868 99.849292 
L 183.025848 99.321398 
L 183.350827 99.911391 
L 183.675807 99.128063 
L 184.000786 103.016969 
L 184.325766 102.206216 
L 184.650745 96.482838 
L 184.975725 107.42201 
L 185.625684 97.129295 
L 185.950663 103.447973 
L 186.275643 104.141602 
L 186.600622 105.581105 
L 186.925602 96.60764 
L 187.250581 101.006053 
L 187.575561 101.211341 
L 187.900541 94.707939 
L 188.22552 94.698337 
L 188.5505 101.20895 
L 188.875479 95.618285 
L 189.200459 98.667127 
L 189.525438 97.29983 
L 189.850418 97.027662 
L 190.175397 104.753112 
L 190.500377 99.121591 
L 190.825356 100.503893 
L 191.150336 100.218196 
L 191.475315 98.737507 
L 191.800295 103.980376 
L 192.125274 99.271932 
L 192.450254 97.660688 
L 192.775233 92.44155 
L 193.100213 100.632173 
L 193.425192 101.791403 
L 194.400131 96.545773 
L 194.725111 100.709666 
L 195.05009 101.092973 
L 195.37507 100.505214 
L 195.700049 100.949785 
L 196.025029 101.044673 
L 196.350008 93.646883 
L 196.674988 107.362477 
L 196.999967 101.005412 
L 197.324947 102.031987 
L 197.649926 100.418294 
L 197.974906 94.733051 
L 198.299885 97.02943 
L 198.949844 91.495519 
L 199.274824 89.761184 
L 199.599803 97.869222 
L 199.924783 92.680172 
L 200.249762 93.554054 
L 200.574742 96.977846 
L 200.899722 98.969889 
L 201.224701 94.392233 
L 201.549681 95.901338 
L 201.87466 94.368598 
L 202.19964 100.457167 
L 202.524619 98.842716 
L 202.849599 92.173385 
L 203.174578 106.075588 
L 203.499558 98.333889 
L 203.824537 96.221204 
L 204.149517 96.396015 
L 204.474496 99.362953 
L 204.799476 95.495641 
L 205.124455 96.49139 
L 205.449435 101.273188 
L 205.774414 93.241263 
L 206.099394 94.948426 
L 206.424373 93.933046 
L 206.749353 91.457132 
L 207.074333 94.683741 
L 207.399312 96.356151 
L 207.724292 93.297998 
L 208.049271 98.370255 
L 208.374251 93.322974 
L 208.69923 95.207476 
L 209.02421 93.600916 
L 209.349189 93.87738 
L 209.999148 99.51792 
L 210.324128 97.75857 
L 210.649107 87.746614 
L 210.974087 97.624108 
L 211.299066 99.464158 
L 211.624046 93.789197 
L 211.949025 102.157411 
L 212.274005 96.212049 
L 212.598984 98.753833 
L 212.923964 95.77677 
L 213.248943 93.913998 
L 213.573923 98.062576 
L 213.898903 95.77123 
L 214.223882 99.437356 
L 214.548862 101.222983 
L 214.873841 96.287618 
L 215.198821 99.426976 
L 215.5238 91.132349 
L 215.84878 100.540861 
L 216.173759 85.697738 
L 216.498739 97.274038 
L 216.823718 100.195086 
L 217.473677 90.019961 
L 217.798657 99.667056 
L 218.123636 97.18084 
L 218.448616 98.483511 
L 218.773595 91.769748 
L 219.098575 98.34143 
L 219.423554 93.041243 
L 219.748534 96.349407 
L 220.073514 97.187041 
L 220.398493 96.339261 
L 220.723473 94.285643 
L 221.048452 94.65581 
L 221.373432 92.683087 
L 221.698411 87.964594 
L 222.023391 95.979997 
L 222.34837 94.922382 
L 222.67335 95.642153 
L 222.998329 99.560349 
L 223.323309 98.312392 
L 223.648288 94.883373 
L 223.973268 92.688199 
L 224.298247 96.849274 
L 224.948206 89.771738 
L 225.273186 94.372796 
L 225.598165 87.764826 
L 225.923145 97.658355 
L 226.248124 91.176606 
L 226.573104 91.437151 
L 226.898084 95.500539 
L 227.223063 92.11424 
L 227.548043 93.715222 
L 227.873022 87.012887 
L 228.198002 92.299742 
L 228.522981 85.260496 
L 228.847961 90.086667 
L 229.17294 96.586298 
L 229.49792 86.600834 
L 229.822899 94.018936 
L 230.147879 80.253138 
L 230.472858 90.117765 
L 230.797838 95.211596 
L 231.122817 93.096092 
L 231.447797 97.930388 
L 231.772776 95.490665 
L 232.097756 97.178547 
L 232.422735 87.967859 
L 232.747715 93.493996 
L 233.397674 85.77978 
L 233.722654 97.400803 
L 234.047633 96.430962 
L 234.372613 88.447026 
L 234.697592 97.732272 
L 235.022572 94.990526 
L 235.347551 87.166183 
L 235.672531 85.335423 
L 235.99751 92.618655 
L 236.32249 93.291837 
L 236.647469 97.319209 
L 236.972449 91.68415 
L 237.297428 88.498825 
L 237.622408 96.059454 
L 237.947387 85.795698 
L 238.272367 91.32854 
L 238.597346 88.392468 
L 238.922326 94.265157 
L 239.247305 92.99028 
L 239.572285 91.247315 
L 239.897265 102.942003 
L 240.872203 86.759067 
L 241.197183 82.429167 
L 241.522162 90.287465 
L 241.847142 85.466697 
L 242.172121 90.405036 
L 242.497101 91.368832 
L 242.82208 83.518503 
L 243.14706 90.821093 
L 243.472039 89.844333 
L 243.797019 87.840337 
L 244.121998 89.858269 
L 244.446978 93.460973 
L 244.771957 91.268929 
L 245.096937 89.960058 
L 245.421916 92.477352 
L 245.746896 86.455819 
L 246.071876 95.197213 
L 246.396855 89.625809 
L 246.721835 92.493057 
L 247.046814 92.67298 
L 247.371794 83.58447 
L 247.696773 89.45436 
L 248.021753 90.122216 
L 248.346732 92.515564 
L 248.671712 88.277754 
L 248.996691 86.755471 
L 249.321671 93.522023 
L 249.64665 88.502615 
L 249.97163 90.702978 
L 250.296609 86.481669 
L 250.621589 91.306966 
L 250.946568 86.627968 
L 251.271548 92.601085 
L 251.596527 91.540262 
L 251.921507 92.179041 
L 252.246486 93.38694 
L 252.571466 92.229421 
L 252.896446 85.98707 
L 253.221425 89.57817 
L 253.546405 88.767689 
L 253.871384 87.61326 
L 254.196364 87.189215 
L 254.521343 87.799364 
L 254.846323 85.463665 
L 255.496282 90.370867 
L 255.821261 87.516836 
L 256.146241 86.037527 
L 256.47122 96.531177 
L 256.7962 93.717593 
L 257.121179 89.471211 
L 257.771138 87.658023 
L 258.096118 86.639688 
L 258.421097 83.388687 
L 258.746077 90.432966 
L 259.071057 92.950688 
L 259.396036 86.614265 
L 259.721016 90.010923 
L 260.045995 85.460186 
L 260.370975 85.94188 
L 260.695954 87.565 
L 261.020934 92.563203 
L 261.670893 84.701406 
L 261.995872 84.995285 
L 262.320852 82.99539 
L 262.970811 95.843301 
L 263.29579 92.143336 
L 263.62077 85.434549 
L 263.945749 90.181148 
L 264.270729 93.114635 
L 264.595708 90.773357 
L 264.920688 79.471637 
L 265.245667 95.893602 
L 265.570647 83.621982 
L 265.895627 85.213829 
L 266.220606 89.090937 
L 266.545586 90.823659 
L 266.870565 88.714841 
L 267.195545 91.75381 
L 267.520524 86.342291 
L 267.845504 87.199283 
L 268.170483 85.816787 
L 268.495463 93.039921 
L 268.820442 92.133579 
L 269.145422 84.137107 
L 269.795381 91.26924 
L 270.12036 85.55939 
L 270.44534 85.666038 
L 270.770319 84.78646 
L 271.095299 86.784451 
L 271.420278 91.04125 
L 271.745258 85.84633 
L 272.070238 86.441164 
L 272.395217 89.972264 
L 272.720197 84.328712 
L 273.045176 88.200105 
L 273.370156 81.116778 
L 273.695135 85.624269 
L 274.020115 82.822094 
L 274.345094 81.964363 
L 274.670074 92.083705 
L 275.320033 80.037393 
L 275.645012 91.796473 
L 276.294971 87.498663 
L 276.619951 78.863256 
L 276.94493 89.102327 
L 277.26991 81.935014 
L 277.594889 84.174503 
L 277.919869 91.57723 
L 278.244848 85.533578 
L 278.569828 90.871647 
L 278.894808 88.082301 
L 279.219787 89.14155 
L 279.544767 91.519212 
L 279.869746 83.868962 
L 280.194726 83.672537 
L 280.519705 84.959911 
L 280.844685 85.371595 
L 281.169664 88.256141 
L 281.494644 80.719069 
L 282.144603 84.679268 
L 282.469582 73.65716 
L 282.794562 86.705597 
L 283.119541 86.980953 
L 283.444521 80.479631 
L 283.7695 82.435056 
L 284.09448 87.386437 
L 284.419459 82.464036 
L 284.744439 85.335773 
L 285.069419 90.676875 
L 285.394398 82.777662 
L 285.719378 88.861237 
L 286.044357 92.183337 
L 286.369337 78.132678 
L 287.019296 88.049259 
L 287.344275 87.554154 
L 287.669255 82.948023 
L 287.994234 84.34879 
L 288.319214 81.729998 
L 288.644193 82.417019 
L 288.969173 84.778063 
L 289.294152 86.168179 
L 289.619132 81.859562 
L 289.944111 83.383711 
L 290.269091 87.379673 
L 290.59407 83.89075 
L 290.91905 86.792536 
L 291.244029 85.294898 
L 291.569009 80.408552 
L 291.893989 79.534766 
L 292.218968 77.308203 
L 292.543948 83.056401 
L 292.868927 84.405952 
L 293.193907 88.74905 
L 293.518886 85.102594 
L 293.843866 85.20446 
L 294.168845 82.014315 
L 294.493825 85.915563 
L 294.818804 80.987506 
L 295.143784 92.394611 
L 295.468763 85.345025 
L 295.793743 84.369431 
L 296.118722 82.938868 
L 296.443702 83.966105 
L 296.768681 87.033898 
L 297.093661 79.169127 
L 297.41864 83.755764 
L 297.74362 91.425217 
L 298.0686 83.62311 
L 298.393579 81.58679 
L 298.718559 77.384763 
L 299.043538 78.908951 
L 299.368518 81.925121 
L 299.693497 83.253584 
L 300.018477 80.403518 
L 300.343456 85.099737 
L 300.668436 78.874373 
L 300.993415 79.350606 
L 301.318395 80.658835 
L 301.643374 86.96348 
L 301.968354 86.446101 
L 302.293333 87.147679 
L 302.618313 87.38667 
L 302.943292 84.783719 
L 303.268272 81.11532 
L 303.593251 84.628869 
L 303.918231 81.503116 
L 304.24321 80.7518 
L 304.56819 83.035837 
L 304.89317 81.64269 
L 305.218149 85.628292 
L 305.543129 84.878569 
L 305.868108 87.81781 
L 306.193088 86.238947 
L 306.518067 86.47508 
L 306.843047 77.211506 
L 307.168026 78.030423 
L 307.493006 74.914602 
L 307.817985 86.829815 
L 308.467944 83.545578 
L 308.792924 79.747537 
L 309.442883 82.32283 
L 309.767862 82.0038 
L 310.092842 79.162072 
L 310.417821 78.864869 
L 310.742801 84.743428 
L 311.067781 80.665113 
L 311.39276 78.736355 
L 311.71774 85.272682 
L 312.042719 81.716218 
L 312.367699 82.238903 
L 312.692678 83.469445 
L 313.017658 81.781583 
L 313.342637 85.569963 
L 313.667617 82.268602 
L 313.992596 82.288252 
L 314.317576 86.434555 
L 314.642555 77.365424 
L 314.967535 79.875138 
L 315.292514 83.681672 
L 315.617494 78.009198 
L 315.942473 78.232018 
L 316.267453 84.115474 
L 316.592432 84.8044 
L 316.917412 80.858934 
L 317.567371 80.169095 
L 317.892351 85.309903 
L 318.21733 88.398144 
L 318.54231 77.783444 
L 318.867289 91.532915 
L 319.192269 74.095705 
L 319.517248 77.75081 
L 319.842228 82.713522 
L 320.167207 80.270145 
L 320.492187 82.912338 
L 320.817166 81.54747 
L 321.142146 79.085026 
L 321.467125 81.237731 
L 321.792105 85.642306 
L 322.442064 74.421654 
L 322.767043 83.389036 
L 323.092023 83.01471 
L 323.417002 82.836244 
L 323.741982 72.765823 
L 324.066962 77.895359 
L 324.391941 75.455558 
L 325.0419 86.1495 
L 325.36688 85.841938 
L 325.691859 77.870538 
L 326.016839 87.592424 
L 326.666798 79.259993 
L 326.991777 78.879874 
L 327.316757 81.737481 
L 327.641736 77.421984 
L 327.966716 76.411482 
L 328.291695 78.788911 
L 328.616675 80.258055 
L 328.941654 77.116578 
L 329.266634 83.133719 
L 329.591613 77.891413 
L 329.916593 75.238083 
L 330.241572 81.055631 
L 330.566552 79.680909 
L 330.891532 82.938363 
L 331.216511 75.217675 
L 331.541491 81.943372 
L 331.86647 85.654764 
L 332.19145 78.754761 
L 332.516429 76.78095 
L 332.841409 87.344085 
L 333.491368 77.248066 
L 333.816347 83.159608 
L 334.141327 79.509751 
L 334.466306 83.419727 
L 334.791286 77.530575 
L 335.116265 81.225505 
L 335.441245 82.881453 
L 335.766224 77.849916 
L 336.091204 78.762361 
L 336.416183 83.244002 
L 337.066143 79.274279 
L 337.391122 79.895468 
L 337.716102 83.645539 
L 338.041081 80.876912 
L 338.366061 84.716216 
L 338.69104 80.316481 
L 339.01602 69.410681 
L 339.665979 82.522384 
L 339.990958 75.869243 
L 340.315938 75.671788 
L 340.965897 80.699244 
L 341.290876 86.509289 
L 341.615856 76.413503 
L 341.940835 76.03148 
L 342.265815 73.217643 
L 342.590794 74.598215 
L 342.915774 77.605833 
L 343.240753 83.874851 
L 343.890713 73.545031 
L 344.215692 81.047701 
L 344.865651 75.174545 
L 345.190631 77.078775 
L 345.51561 79.734709 
L 345.84059 73.925072 
L 346.165569 77.477086 
L 346.490549 75.508658 
L 346.815528 83.561535 
L 347.140508 72.712237 
L 347.465487 79.113364 
L 347.790467 73.594769 
L 348.115446 87.501015 
L 348.440426 77.829022 
L 348.765405 84.789162 
L 349.090385 75.757989 
L 349.415364 74.303714 
L 349.740344 79.946936 
L 350.065324 76.962447 
L 350.390303 79.605612 
L 350.715283 85.203003 
L 351.040262 78.140142 
L 351.365242 77.644512 
L 351.690221 77.616562 
L 352.015201 84.093006 
L 352.34018 80.061864 
L 352.66516 80.838642 
L 353.315119 70.757473 
L 353.640098 83.060813 
L 353.965078 71.120235 
L 354.290057 78.257752 
L 354.615037 72.998944 
L 354.940016 82.379895 
L 355.264996 75.139832 
L 355.589975 73.15222 
L 355.914955 75.392661 
L 356.239934 78.782497 
L 356.564914 75.246208 
L 356.889894 87.337554 
L 357.214873 74.224258 
L 357.539853 76.661493 
L 357.864832 74.778799 
L 358.189812 79.073325 
L 358.514791 74.62288 
L 358.839771 76.484893 
L 359.16475 69.120009 
L 359.48973 74.973708 
L 359.814709 73.621397 
L 360.139689 82.653172 
L 360.464668 79.523454 
L 360.789648 77.752928 
L 361.114627 80.391059 
L 361.439607 81.644147 
L 361.764586 81.101403 
L 362.089566 78.502593 
L 362.414545 74.663716 
L 362.739525 76.392939 
L 363.064505 77.110339 
L 363.389484 77.331449 
L 363.714464 74.981561 
L 364.039443 76.31912 
L 364.364423 71.725448 
L 364.689402 83.85833 
L 365.014382 76.359548 
L 365.339361 84.432522 
L 365.664341 79.886547 
L 365.98932 72.074332 
L 366.3143 82.133383 
L 366.639279 79.463998 
L 366.964259 74.917595 
L 367.289238 73.710047 
L 367.614218 79.796634 
L 367.939197 78.338024 
L 368.264177 68.276428 
L 368.589156 79.874827 
L 368.914136 83.463167 
L 369.239115 78.98625 
L 369.564095 78.111823 
L 370.214054 79.631054 
L 370.539034 72.489767 
L 370.864013 77.972385 
L 371.188993 79.039836 
L 371.513972 82.929831 
L 371.838952 77.041709 
L 372.163931 77.718895 
L 372.488911 78.704829 
L 372.81389 77.85841 
L 373.13887 72.613383 
L 373.788829 83.076537 
L 374.113808 75.029724 
L 374.438788 75.572138 
L 374.763767 78.242105 
L 375.088747 77.082623 
L 375.413726 77.833862 
L 375.738706 81.675421 
L 376.063686 75.658047 
L 376.388665 75.504071 
L 376.713645 80.949022 
L 377.038624 77.922628 
L 377.363604 78.247256 
L 377.688583 81.057263 
L 378.013563 77.005246 
L 378.338542 77.208746 
L 378.663522 76.654243 
L 378.988501 76.731095 
L 379.313481 79.361704 
L 379.63846 74.00309 
L 379.96344 81.009994 
L 380.288419 76.058496 
L 380.613399 85.79218 
L 380.938378 71.573279 
L 381.263358 78.536237 
L 381.588337 70.357509 
L 381.913317 71.916061 
L 382.238296 76.154163 
L 382.563276 74.815321 
L 382.888256 75.116255 
L 383.213235 81.010713 
L 383.538215 74.192809 
L 383.863194 79.805574 
L 384.188174 78.772468 
L 384.513153 75.017654 
L 384.838133 74.869918 
L 385.163112 81.755071 
L 385.488092 76.754846 
L 386.138051 74.464143 
L 386.46303 73.595022 
L 387.112989 81.959465 
L 387.437969 75.995386 
L 387.762948 74.702881 
L 388.087928 74.462063 
L 388.412907 70.890418 
L 388.737887 75.537269 
L 389.062867 75.021444 
L 389.387846 75.837445 
L 389.712826 75.19989 
L 390.037805 82.605086 
L 390.362785 75.641487 
L 390.687764 71.57291 
L 391.987682 84.923468 
L 392.312662 75.039967 
L 392.637641 72.241078 
L 392.962621 71.392287 
L 393.2876 76.865479 
L 393.937559 81.378082 
L 394.262539 76.890416 
L 394.587518 77.883055 
L 394.912498 77.891938 
L 395.237477 78.839252 
L 395.562457 81.109392 
L 395.887437 76.622095 
L 396.212416 78.339288 
L 396.537396 72.721975 
L 396.862375 77.827001 
L 397.187355 78.794101 
L 397.512334 81.864596 
L 397.837314 73.22258 
L 398.162293 74.610324 
L 398.487273 79.316106 
L 398.487273 79.316106 
" style="fill:none;stroke:#2ca02c;stroke-linecap:square;stroke-width:1.5;"/>
   </g>
   <g id="patch_3">
    <path d="M 57.6 307.584 
L 57.6 41.472 
" style="fill:none;stroke:#000000;stroke-linecap:square;stroke-linejoin:miter;stroke-width:0.8;"/>
   </g>
   <g id="patch_4">
    <path d="M 414.72 307.584 
L 414.72 41.472 
" style="fill:none;stroke:#000000;stroke-linecap:square;stroke-linejoin:miter;stroke-width:0.8;"/>
   </g>
   <g id="patch_5">
    <path d="M 57.6 307.584 
L 414.72 307.584 
" style="fill:none;stroke:#000000;stroke-linecap:square;stroke-linejoin:miter;stroke-width:0.8;"/>
   </g>
   <g id="patch_6">
    <path d="M 57.6 41.472 
L 414.72 41.472 
" style="fill:none;stroke:#000000;stroke-linecap:square;stroke-linejoin:miter;stroke-width:0.8;"/>
   </g>
   <g id="legend_1">
    <g id="patch_7">
     <path d="M 262.6825 302.584 
L 407.72 302.584 
Q 409.72 302.584 409.72 300.584 
L 409.72 257.549625 
Q 409.72 255.549625 407.72 255.549625 
L 262.6825 255.549625 
Q 260.6825 255.549625 260.6825 257.549625 
L 260.6825 300.584 
Q 260.6825 302.584 262.6825 302.584 
z
" style="fill:#ffffff;opacity:0.8;stroke:#cccccc;stroke-linejoin:miter;"/>
    </g>
    <g id="line2d_13">
     <path d="M 264.6825 263.648062 
L 284.6825 263.648062 
" style="fill:none;stroke:#1f77b4;stroke-linecap:square;stroke-width:1.5;"/>
    </g>
    <g id="line2d_14"/>
    <g id="text_12">
     <!-- e-greedy (epsilon 0.10 -->
     <defs>
      <path d="M 4.890625 31.390625 
L 31.203125 31.390625 
L 31.203125 23.390625 
L 4.890625 23.390625 
z
" id="DejaVuSans-2d"/>
      <path d="M 32.171875 -5.078125 
Q 28.375 -14.84375 24.75 -17.8125 
Q 21.140625 -20.796875 15.09375 -20.796875 
L 7.90625 -20.796875 
L 7.90625 -13.28125 
L 13.1875 -13.28125 
Q 16.890625 -13.28125 18.9375 -11.515625 
Q 21 -9.765625 23.484375 -3.21875 
L 25.09375 0.875 
L 2.984375 54.6875 
L 12.5 54.6875 
L 29.59375 11.921875 
L 46.6875 54.6875 
L 56.203125 54.6875 
z
" id="DejaVuSans-79"/>
      <path d="M 31 75.875 
Q 24.46875 64.65625 21.28125 53.65625 
Q 18.109375 42.671875 18.109375 31.390625 
Q 18.109375 20.125 21.3125 9.0625 
Q 24.515625 -2 31 -13.1875 
L 23.1875 -13.1875 
Q 15.875 -1.703125 12.234375 9.375 
Q 8.59375 20.453125 8.59375 31.390625 
Q 8.59375 42.28125 12.203125 53.3125 
Q 15.828125 64.359375 23.1875 75.875 
z
" id="DejaVuSans-28"/>
      <path d="M 9.421875 54.6875 
L 18.40625 54.6875 
L 18.40625 0 
L 9.421875 0 
z
M 9.421875 75.984375 
L 18.40625 75.984375 
L 18.40625 64.59375 
L 9.421875 64.59375 
z
" id="DejaVuSans-69"/>
      <path d="M 9.421875 75.984375 
L 18.40625 75.984375 
L 18.40625 0 
L 9.421875 0 
z
" id="DejaVuSans-6c"/>
      <path d="M 30.609375 48.390625 
Q 23.390625 48.390625 19.1875 42.75 
Q 14.984375 37.109375 14.984375 27.296875 
Q 14.984375 17.484375 19.15625 11.84375 
Q 23.34375 6.203125 30.609375 6.203125 
Q 37.796875 6.203125 41.984375 11.859375 
Q 46.1875 17.53125 46.1875 27.296875 
Q 46.1875 37.015625 41.984375 42.703125 
Q 37.796875 48.390625 30.609375 48.390625 
z
M 30.609375 56 
Q 42.328125 56 49.015625 48.375 
Q 55.71875 40.765625 55.71875 27.296875 
Q 55.71875 13.875 49.015625 6.21875 
Q 42.328125 -1.421875 30.609375 -1.421875 
Q 18.84375 -1.421875 12.171875 6.21875 
Q 5.515625 13.875 5.515625 27.296875 
Q 5.515625 40.765625 12.171875 48.375 
Q 18.84375 56 30.609375 56 
z
" id="DejaVuSans-6f"/>
      <path d="M 54.890625 33.015625 
L 54.890625 0 
L 45.90625 0 
L 45.90625 32.71875 
Q 45.90625 40.484375 42.875 44.328125 
Q 39.84375 48.1875 33.796875 48.1875 
Q 26.515625 48.1875 22.3125 43.546875 
Q 18.109375 38.921875 18.109375 30.90625 
L 18.109375 0 
L 9.078125 0 
L 9.078125 54.6875 
L 18.109375 54.6875 
L 18.109375 46.1875 
Q 21.34375 51.125 25.703125 53.5625 
Q 30.078125 56 35.796875 56 
Q 45.21875 56 50.046875 50.171875 
Q 54.890625 44.34375 54.890625 33.015625 
z
" id="DejaVuSans-6e"/>
     </defs>
     <g transform="translate(292.6825 267.148062)scale(0.1 -0.1)">
      <use xlink:href="#DejaVuSans-65"/>
      <use x="61.523438" xlink:href="#DejaVuSans-2d"/>
      <use x="97.607422" xlink:href="#DejaVuSans-67"/>
      <use x="161.083984" xlink:href="#DejaVuSans-72"/>
      <use x="202.166016" xlink:href="#DejaVuSans-65"/>
      <use x="263.689453" xlink:href="#DejaVuSans-65"/>
      <use x="325.212891" xlink:href="#DejaVuSans-64"/>
      <use x="388.689453" xlink:href="#DejaVuSans-79"/>
      <use x="447.869141" xlink:href="#DejaVuSans-20"/>
      <use x="479.65625" xlink:href="#DejaVuSans-28"/>
      <use x="518.669922" xlink:href="#DejaVuSans-65"/>
      <use x="580.193359" xlink:href="#DejaVuSans-70"/>
      <use x="643.669922" xlink:href="#DejaVuSans-73"/>
      <use x="695.769531" xlink:href="#DejaVuSans-69"/>
      <use x="723.552734" xlink:href="#DejaVuSans-6c"/>
      <use x="751.335938" xlink:href="#DejaVuSans-6f"/>
      <use x="812.517578" xlink:href="#DejaVuSans-6e"/>
      <use x="875.896484" xlink:href="#DejaVuSans-20"/>
      <use x="907.683594" xlink:href="#DejaVuSans-30"/>
      <use x="971.306641" xlink:href="#DejaVuSans-2e"/>
      <use x="1003.09375" xlink:href="#DejaVuSans-31"/>
      <use x="1066.716797" xlink:href="#DejaVuSans-30"/>
     </g>
    </g>
    <g id="line2d_15">
     <path d="M 264.6825 278.326188 
L 284.6825 278.326188 
" style="fill:none;stroke:#ff7f0e;stroke-linecap:square;stroke-width:1.5;"/>
    </g>
    <g id="line2d_16"/>
    <g id="text_13">
     <!-- e-greedy (epsilon 0.00 -->
     <g transform="translate(292.6825 281.826188)scale(0.1 -0.1)">
      <use xlink:href="#DejaVuSans-65"/>
      <use x="61.523438" xlink:href="#DejaVuSans-2d"/>
      <use x="97.607422" xlink:href="#DejaVuSans-67"/>
      <use x="161.083984" xlink:href="#DejaVuSans-72"/>
      <use x="202.166016" xlink:href="#DejaVuSans-65"/>
      <use x="263.689453" xlink:href="#DejaVuSans-65"/>
      <use x="325.212891" xlink:href="#DejaVuSans-64"/>
      <use x="388.689453" xlink:href="#DejaVuSans-79"/>
      <use x="447.869141" xlink:href="#DejaVuSans-20"/>
      <use x="479.65625" xlink:href="#DejaVuSans-28"/>
      <use x="518.669922" xlink:href="#DejaVuSans-65"/>
      <use x="580.193359" xlink:href="#DejaVuSans-70"/>
      <use x="643.669922" xlink:href="#DejaVuSans-73"/>
      <use x="695.769531" xlink:href="#DejaVuSans-69"/>
      <use x="723.552734" xlink:href="#DejaVuSans-6c"/>
      <use x="751.335938" xlink:href="#DejaVuSans-6f"/>
      <use x="812.517578" xlink:href="#DejaVuSans-6e"/>
      <use x="875.896484" xlink:href="#DejaVuSans-20"/>
      <use x="907.683594" xlink:href="#DejaVuSans-30"/>
      <use x="971.306641" xlink:href="#DejaVuSans-2e"/>
      <use x="1003.09375" xlink:href="#DejaVuSans-30"/>
      <use x="1066.716797" xlink:href="#DejaVuSans-30"/>
     </g>
    </g>
    <g id="line2d_17">
     <path d="M 264.6825 293.004312 
L 284.6825 293.004312 
" style="fill:none;stroke:#2ca02c;stroke-linecap:square;stroke-width:1.5;"/>
    </g>
    <g id="line2d_18"/>
    <g id="text_14">
     <!-- e-greedy (epsilon 0.01 -->
     <g transform="translate(292.6825 296.504312)scale(0.1 -0.1)">
      <use xlink:href="#DejaVuSans-65"/>
      <use x="61.523438" xlink:href="#DejaVuSans-2d"/>
      <use x="97.607422" xlink:href="#DejaVuSans-67"/>
      <use x="161.083984" xlink:href="#DejaVuSans-72"/>
      <use x="202.166016" xlink:href="#DejaVuSans-65"/>
      <use x="263.689453" xlink:href="#DejaVuSans-65"/>
      <use x="325.212891" xlink:href="#DejaVuSans-64"/>
      <use x="388.689453" xlink:href="#DejaVuSans-79"/>
      <use x="447.869141" xlink:href="#DejaVuSans-20"/>
      <use x="479.65625" xlink:href="#DejaVuSans-28"/>
      <use x="518.669922" xlink:href="#DejaVuSans-65"/>
      <use x="580.193359" xlink:href="#DejaVuSans-70"/>
      <use x="643.669922" xlink:href="#DejaVuSans-73"/>
      <use x="695.769531" xlink:href="#DejaVuSans-69"/>
      <use x="723.552734" xlink:href="#DejaVuSans-6c"/>
      <use x="751.335938" xlink:href="#DejaVuSans-6f"/>
      <use x="812.517578" xlink:href="#DejaVuSans-6e"/>
      <use x="875.896484" xlink:href="#DejaVuSans-20"/>
      <use x="907.683594" xlink:href="#DejaVuSans-30"/>
      <use x="971.306641" xlink:href="#DejaVuSans-2e"/>
      <use x="1003.09375" xlink:href="#DejaVuSans-30"/>
      <use x="1066.716797" xlink:href="#DejaVuSans-31"/>
     </g>
    </g>
   </g>
  </g>
 </g>
 <defs>
  <clipPath id="p578aa5ed06">
   <rect height="266.112" width="357.12" x="57.6" y="41.472"/>
  </clipPath>
 </defs>
</svg>
