<?xml version="1.0" encoding="utf-8" standalone="no"?>
<!DOCTYPE svg PUBLIC "-//W3C//DTD SVG 1.1//EN"
  "http://www.w3.org/Graphics/SVG/1.1/DTD/svg11.dtd">
<!-- Created with matplotlib (http://matplotlib.org/) -->
<svg height="345.6pt" version="1.1" viewBox="0 0 460.8 345.6" width="460.8pt" xmlns="http://www.w3.org/2000/svg" xmlns:xlink="http://www.w3.org/1999/xlink">
 <defs>
  <style type="text/css">
*{stroke-linecap:butt;stroke-linejoin:round;}
  </style>
 </defs>
 <g id="figure_1">
  <g id="patch_1">
   <path d="M 0 345.6 
L 460.8 345.6 
L 460.8 0 
L 0 0 
z
" style="fill:#ffffff;"/>
  </g>
  <g id="axes_1">
   <g id="patch_2">
    <path d="M 57.6 307.584 
L 414.72 307.584 
L 414.72 41.472 
L 57.6 41.472 
z
" style="fill:#ffffff;"/>
   </g>
   <g id="matplotlib.axis_1">
    <g id="xtick_1">
     <g id="line2d_1">
      <defs>
       <path d="M 0 0 
L 0 3.5 
" id="m2d2e86e7b3" style="stroke:#000000;stroke-width:0.8;"/>
      </defs>
      <g>
       <use style="stroke:#000000;stroke-width:0.8;" x="73.832727" xlink:href="#m2d2e86e7b3" y="307.584"/>
      </g>
     </g>
     <g id="text_1">
      <!-- 0 -->
      <defs>
       <path d="M 31.78125 66.40625 
Q 24.171875 66.40625 20.328125 58.90625 
Q 16.5 51.421875 16.5 36.375 
Q 16.5 21.390625 20.328125 13.890625 
Q 24.171875 6.390625 31.78125 6.390625 
Q 39.453125 6.390625 43.28125 13.890625 
Q 47.125 21.390625 47.125 36.375 
Q 47.125 51.421875 43.28125 58.90625 
Q 39.453125 66.40625 31.78125 66.40625 
z
M 31.78125 74.21875 
Q 44.046875 74.21875 50.515625 64.515625 
Q 56.984375 54.828125 56.984375 36.375 
Q 56.984375 17.96875 50.515625 8.265625 
Q 44.046875 -1.421875 31.78125 -1.421875 
Q 19.53125 -1.421875 13.0625 8.265625 
Q 6.59375 17.96875 6.59375 36.375 
Q 6.59375 54.828125 13.0625 64.515625 
Q 19.53125 74.21875 31.78125 74.21875 
z
" id="DejaVuSans-30"/>
      </defs>
      <g transform="translate(70.651477 322.182437)scale(0.1 -0.1)">
       <use xlink:href="#DejaVuSans-30"/>
      </g>
     </g>
    </g>
    <g id="xtick_2">
     <g id="line2d_2">
      <g>
       <use style="stroke:#000000;stroke-width:0.8;" x="155.077609" xlink:href="#m2d2e86e7b3" y="307.584"/>
      </g>
     </g>
     <g id="text_2">
      <!-- 250 -->
      <defs>
       <path d="M 19.1875 8.296875 
L 53.609375 8.296875 
L 53.609375 0 
L 7.328125 0 
L 7.328125 8.296875 
Q 12.9375 14.109375 22.625 23.890625 
Q 32.328125 33.6875 34.8125 36.53125 
Q 39.546875 41.84375 41.421875 45.53125 
Q 43.3125 49.21875 43.3125 52.78125 
Q 43.3125 58.59375 39.234375 62.25 
Q 35.15625 65.921875 28.609375 65.921875 
Q 23.96875 65.921875 18.8125 64.3125 
Q 13.671875 62.703125 7.8125 59.421875 
L 7.8125 69.390625 
Q 13.765625 71.78125 18.9375 73 
Q 24.125 74.21875 28.421875 74.21875 
Q 39.75 74.21875 46.484375 68.546875 
Q 53.21875 62.890625 53.21875 53.421875 
Q 53.21875 48.921875 51.53125 44.890625 
Q 49.859375 40.875 45.40625 35.40625 
Q 44.1875 33.984375 37.640625 27.21875 
Q 31.109375 20.453125 19.1875 8.296875 
z
" id="DejaVuSans-32"/>
       <path d="M 10.796875 72.90625 
L 49.515625 72.90625 
L 49.515625 64.59375 
L 19.828125 64.59375 
L 19.828125 46.734375 
Q 21.96875 47.46875 24.109375 47.828125 
Q 26.265625 48.1875 28.421875 48.1875 
Q 40.625 48.1875 47.75 41.5 
Q 54.890625 34.8125 54.890625 23.390625 
Q 54.890625 11.625 47.5625 5.09375 
Q 40.234375 -1.421875 26.90625 -1.421875 
Q 22.3125 -1.421875 17.546875 -0.640625 
Q 12.796875 0.140625 7.71875 1.703125 
L 7.71875 11.625 
Q 12.109375 9.234375 16.796875 8.0625 
Q 21.484375 6.890625 26.703125 6.890625 
Q 35.15625 6.890625 40.078125 11.328125 
Q 45.015625 15.765625 45.015625 23.390625 
Q 45.015625 31 40.078125 35.4375 
Q 35.15625 39.890625 26.703125 39.890625 
Q 22.75 39.890625 18.8125 39.015625 
Q 14.890625 38.140625 10.796875 36.28125 
z
" id="DejaVuSans-35"/>
      </defs>
      <g transform="translate(145.533859 322.182437)scale(0.1 -0.1)">
       <use xlink:href="#DejaVuSans-32"/>
       <use x="63.623047" xlink:href="#DejaVuSans-35"/>
       <use x="127.246094" xlink:href="#DejaVuSans-30"/>
      </g>
     </g>
    </g>
    <g id="xtick_3">
     <g id="line2d_3">
      <g>
       <use style="stroke:#000000;stroke-width:0.8;" x="236.32249" xlink:href="#m2d2e86e7b3" y="307.584"/>
      </g>
     </g>
     <g id="text_3">
      <!-- 500 -->
      <g transform="translate(226.77874 322.182437)scale(0.1 -0.1)">
       <use xlink:href="#DejaVuSans-35"/>
       <use x="63.623047" xlink:href="#DejaVuSans-30"/>
       <use x="127.246094" xlink:href="#DejaVuSans-30"/>
      </g>
     </g>
    </g>
    <g id="xtick_4">
     <g id="line2d_4">
      <g>
       <use style="stroke:#000000;stroke-width:0.8;" x="317.567371" xlink:href="#m2d2e86e7b3" y="307.584"/>
      </g>
     </g>
     <g id="text_4">
      <!-- 750 -->
      <defs>
       <path d="M 8.203125 72.90625 
L 55.078125 72.90625 
L 55.078125 68.703125 
L 28.609375 0 
L 18.3125 0 
L 43.21875 64.59375 
L 8.203125 64.59375 
z
" id="DejaVuSans-37"/>
      </defs>
      <g transform="translate(308.023621 322.182437)scale(0.1 -0.1)">
       <use xlink:href="#DejaVuSans-37"/>
       <use x="63.623047" xlink:href="#DejaVuSans-35"/>
       <use x="127.246094" xlink:href="#DejaVuSans-30"/>
      </g>
     </g>
    </g>
    <g id="xtick_5">
     <g id="line2d_5">
      <g>
       <use style="stroke:#000000;stroke-width:0.8;" x="398.812252" xlink:href="#m2d2e86e7b3" y="307.584"/>
      </g>
     </g>
     <g id="text_5">
      <!-- 1000 -->
      <defs>
       <path d="M 12.40625 8.296875 
L 28.515625 8.296875 
L 28.515625 63.921875 
L 10.984375 60.40625 
L 10.984375 69.390625 
L 28.421875 72.90625 
L 38.28125 72.90625 
L 38.28125 8.296875 
L 54.390625 8.296875 
L 54.390625 0 
L 12.40625 0 
z
" id="DejaVuSans-31"/>
      </defs>
      <g transform="translate(386.087252 322.182437)scale(0.1 -0.1)">
       <use xlink:href="#DejaVuSans-31"/>
       <use x="63.623047" xlink:href="#DejaVuSans-30"/>
       <use x="127.246094" xlink:href="#DejaVuSans-30"/>
       <use x="190.869141" xlink:href="#DejaVuSans-30"/>
      </g>
     </g>
    </g>
    <g id="text_6">
     <!-- Steps -->
     <defs>
      <path d="M 53.515625 70.515625 
L 53.515625 60.890625 
Q 47.90625 63.578125 42.921875 64.890625 
Q 37.9375 66.21875 33.296875 66.21875 
Q 25.25 66.21875 20.875 63.09375 
Q 16.5 59.96875 16.5 54.203125 
Q 16.5 49.359375 19.40625 46.890625 
Q 22.3125 44.4375 30.421875 42.921875 
L 36.375 41.703125 
Q 47.40625 39.59375 52.65625 34.296875 
Q 57.90625 29 57.90625 20.125 
Q 57.90625 9.515625 50.796875 4.046875 
Q 43.703125 -1.421875 29.984375 -1.421875 
Q 24.8125 -1.421875 18.96875 -0.25 
Q 13.140625 0.921875 6.890625 3.21875 
L 6.890625 13.375 
Q 12.890625 10.015625 18.65625 8.296875 
Q 24.421875 6.59375 29.984375 6.59375 
Q 38.421875 6.59375 43.015625 9.90625 
Q 47.609375 13.234375 47.609375 19.390625 
Q 47.609375 24.75 44.3125 27.78125 
Q 41.015625 30.8125 33.5 32.328125 
L 27.484375 33.5 
Q 16.453125 35.6875 11.515625 40.375 
Q 6.59375 45.0625 6.59375 53.421875 
Q 6.59375 63.09375 13.40625 68.65625 
Q 20.21875 74.21875 32.171875 74.21875 
Q 37.3125 74.21875 42.625 73.28125 
Q 47.953125 72.359375 53.515625 70.515625 
z
" id="DejaVuSans-53"/>
      <path d="M 18.3125 70.21875 
L 18.3125 54.6875 
L 36.8125 54.6875 
L 36.8125 47.703125 
L 18.3125 47.703125 
L 18.3125 18.015625 
Q 18.3125 11.328125 20.140625 9.421875 
Q 21.96875 7.515625 27.59375 7.515625 
L 36.8125 7.515625 
L 36.8125 0 
L 27.59375 0 
Q 17.1875 0 13.234375 3.875 
Q 9.28125 7.765625 9.28125 18.015625 
L 9.28125 47.703125 
L 2.6875 47.703125 
L 2.6875 54.6875 
L 9.28125 54.6875 
L 9.28125 70.21875 
z
" id="DejaVuSans-74"/>
      <path d="M 56.203125 29.59375 
L 56.203125 25.203125 
L 14.890625 25.203125 
Q 15.484375 15.921875 20.484375 11.0625 
Q 25.484375 6.203125 34.421875 6.203125 
Q 39.59375 6.203125 44.453125 7.46875 
Q 49.3125 8.734375 54.109375 11.28125 
L 54.109375 2.78125 
Q 49.265625 0.734375 44.1875 -0.34375 
Q 39.109375 -1.421875 33.890625 -1.421875 
Q 20.796875 -1.421875 13.15625 6.1875 
Q 5.515625 13.8125 5.515625 26.8125 
Q 5.515625 40.234375 12.765625 48.109375 
Q 20.015625 56 32.328125 56 
Q 43.359375 56 49.78125 48.890625 
Q 56.203125 41.796875 56.203125 29.59375 
z
M 47.21875 32.234375 
Q 47.125 39.59375 43.09375 43.984375 
Q 39.0625 48.390625 32.421875 48.390625 
Q 24.90625 48.390625 20.390625 44.140625 
Q 15.875 39.890625 15.1875 32.171875 
z
" id="DejaVuSans-65"/>
      <path d="M 18.109375 8.203125 
L 18.109375 -20.796875 
L 9.078125 -20.796875 
L 9.078125 54.6875 
L 18.109375 54.6875 
L 18.109375 46.390625 
Q 20.953125 51.265625 25.265625 53.625 
Q 29.59375 56 35.59375 56 
Q 45.5625 56 51.78125 48.09375 
Q 58.015625 40.1875 58.015625 27.296875 
Q 58.015625 14.40625 51.78125 6.484375 
Q 45.5625 -1.421875 35.59375 -1.421875 
Q 29.59375 -1.421875 25.265625 0.953125 
Q 20.953125 3.328125 18.109375 8.203125 
z
M 48.6875 27.296875 
Q 48.6875 37.203125 44.609375 42.84375 
Q 40.53125 48.484375 33.40625 48.484375 
Q 26.265625 48.484375 22.1875 42.84375 
Q 18.109375 37.203125 18.109375 27.296875 
Q 18.109375 17.390625 22.1875 11.75 
Q 26.265625 6.109375 33.40625 6.109375 
Q 40.53125 6.109375 44.609375 11.75 
Q 48.6875 17.390625 48.6875 27.296875 
z
" id="DejaVuSans-70"/>
      <path d="M 44.28125 53.078125 
L 44.28125 44.578125 
Q 40.484375 46.53125 36.375 47.5 
Q 32.28125 48.484375 27.875 48.484375 
Q 21.1875 48.484375 17.84375 46.4375 
Q 14.5 44.390625 14.5 40.28125 
Q 14.5 37.15625 16.890625 35.375 
Q 19.28125 33.59375 26.515625 31.984375 
L 29.59375 31.296875 
Q 39.15625 29.25 43.1875 25.515625 
Q 47.21875 21.78125 47.21875 15.09375 
Q 47.21875 7.46875 41.1875 3.015625 
Q 35.15625 -1.421875 24.609375 -1.421875 
Q 20.21875 -1.421875 15.453125 -0.5625 
Q 10.6875 0.296875 5.421875 2 
L 5.421875 11.28125 
Q 10.40625 8.6875 15.234375 7.390625 
Q 20.0625 6.109375 24.8125 6.109375 
Q 31.15625 6.109375 34.5625 8.28125 
Q 37.984375 10.453125 37.984375 14.40625 
Q 37.984375 18.0625 35.515625 20.015625 
Q 33.0625 21.96875 24.703125 23.78125 
L 21.578125 24.515625 
Q 13.234375 26.265625 9.515625 29.90625 
Q 5.8125 33.546875 5.8125 39.890625 
Q 5.8125 47.609375 11.28125 51.796875 
Q 16.75 56 26.8125 56 
Q 31.78125 56 36.171875 55.265625 
Q 40.578125 54.546875 44.28125 53.078125 
z
" id="DejaVuSans-73"/>
     </defs>
     <g transform="translate(222.170156 335.860562)scale(0.1 -0.1)">
      <use xlink:href="#DejaVuSans-53"/>
      <use x="63.476562" xlink:href="#DejaVuSans-74"/>
      <use x="102.685547" xlink:href="#DejaVuSans-65"/>
      <use x="164.208984" xlink:href="#DejaVuSans-70"/>
      <use x="227.685547" xlink:href="#DejaVuSans-73"/>
     </g>
    </g>
   </g>
   <g id="matplotlib.axis_2">
    <g id="ytick_1">
     <g id="line2d_6">
      <defs>
       <path d="M 0 0 
L -3.5 0 
" id="mdefda0f05e" style="stroke:#000000;stroke-width:0.8;"/>
      </defs>
      <g>
       <use style="stroke:#000000;stroke-width:0.8;" x="57.6" xlink:href="#mdefda0f05e" y="307.584"/>
      </g>
     </g>
     <g id="text_7">
      <!-- 0 -->
      <g transform="translate(44.2375 311.383219)scale(0.1 -0.1)">
       <use xlink:href="#DejaVuSans-30"/>
      </g>
     </g>
    </g>
    <g id="ytick_2">
     <g id="line2d_7">
      <g>
       <use style="stroke:#000000;stroke-width:0.8;" x="57.6" xlink:href="#mdefda0f05e" y="254.3616"/>
      </g>
     </g>
     <g id="text_8">
      <!-- 20 -->
      <g transform="translate(37.875 258.160819)scale(0.1 -0.1)">
       <use xlink:href="#DejaVuSans-32"/>
       <use x="63.623047" xlink:href="#DejaVuSans-30"/>
      </g>
     </g>
    </g>
    <g id="ytick_3">
     <g id="line2d_8">
      <g>
       <use style="stroke:#000000;stroke-width:0.8;" x="57.6" xlink:href="#mdefda0f05e" y="201.1392"/>
      </g>
     </g>
     <g id="text_9">
      <!-- 40 -->
      <defs>
       <path d="M 37.796875 64.3125 
L 12.890625 25.390625 
L 37.796875 25.390625 
z
M 35.203125 72.90625 
L 47.609375 72.90625 
L 47.609375 25.390625 
L 58.015625 25.390625 
L 58.015625 17.1875 
L 47.609375 17.1875 
L 47.609375 0 
L 37.796875 0 
L 37.796875 17.1875 
L 4.890625 17.1875 
L 4.890625 26.703125 
z
" id="DejaVuSans-34"/>
      </defs>
      <g transform="translate(37.875 204.938419)scale(0.1 -0.1)">
       <use xlink:href="#DejaVuSans-34"/>
       <use x="63.623047" xlink:href="#DejaVuSans-30"/>
      </g>
     </g>
    </g>
    <g id="ytick_4">
     <g id="line2d_9">
      <g>
       <use style="stroke:#000000;stroke-width:0.8;" x="57.6" xlink:href="#mdefda0f05e" y="147.9168"/>
      </g>
     </g>
     <g id="text_10">
      <!-- 60 -->
      <defs>
       <path d="M 33.015625 40.375 
Q 26.375 40.375 22.484375 35.828125 
Q 18.609375 31.296875 18.609375 23.390625 
Q 18.609375 15.53125 22.484375 10.953125 
Q 26.375 6.390625 33.015625 6.390625 
Q 39.65625 6.390625 43.53125 10.953125 
Q 47.40625 15.53125 47.40625 23.390625 
Q 47.40625 31.296875 43.53125 35.828125 
Q 39.65625 40.375 33.015625 40.375 
z
M 52.59375 71.296875 
L 52.59375 62.3125 
Q 48.875 64.0625 45.09375 64.984375 
Q 41.3125 65.921875 37.59375 65.921875 
Q 27.828125 65.921875 22.671875 59.328125 
Q 17.53125 52.734375 16.796875 39.40625 
Q 19.671875 43.65625 24.015625 45.921875 
Q 28.375 48.1875 33.59375 48.1875 
Q 44.578125 48.1875 50.953125 41.515625 
Q 57.328125 34.859375 57.328125 23.390625 
Q 57.328125 12.15625 50.6875 5.359375 
Q 44.046875 -1.421875 33.015625 -1.421875 
Q 20.359375 -1.421875 13.671875 8.265625 
Q 6.984375 17.96875 6.984375 36.375 
Q 6.984375 53.65625 15.1875 63.9375 
Q 23.390625 74.21875 37.203125 74.21875 
Q 40.921875 74.21875 44.703125 73.484375 
Q 48.484375 72.75 52.59375 71.296875 
z
" id="DejaVuSans-36"/>
      </defs>
      <g transform="translate(37.875 151.716019)scale(0.1 -0.1)">
       <use xlink:href="#DejaVuSans-36"/>
       <use x="63.623047" xlink:href="#DejaVuSans-30"/>
      </g>
     </g>
    </g>
    <g id="ytick_5">
     <g id="line2d_10">
      <g>
       <use style="stroke:#000000;stroke-width:0.8;" x="57.6" xlink:href="#mdefda0f05e" y="94.6944"/>
      </g>
     </g>
     <g id="text_11">
      <!-- 80 -->
      <defs>
       <path d="M 31.78125 34.625 
Q 24.75 34.625 20.71875 30.859375 
Q 16.703125 27.09375 16.703125 20.515625 
Q 16.703125 13.921875 20.71875 10.15625 
Q 24.75 6.390625 31.78125 6.390625 
Q 38.8125 6.390625 42.859375 10.171875 
Q 46.921875 13.96875 46.921875 20.515625 
Q 46.921875 27.09375 42.890625 30.859375 
Q 38.875 34.625 31.78125 34.625 
z
M 21.921875 38.8125 
Q 15.578125 40.375 12.03125 44.71875 
Q 8.5 49.078125 8.5 55.328125 
Q 8.5 64.0625 14.71875 69.140625 
Q 20.953125 74.21875 31.78125 74.21875 
Q 42.671875 74.21875 48.875 69.140625 
Q 55.078125 64.0625 55.078125 55.328125 
Q 55.078125 49.078125 51.53125 44.71875 
Q 48 40.375 41.703125 38.8125 
Q 48.828125 37.15625 52.796875 32.3125 
Q 56.78125 27.484375 56.78125 20.515625 
Q 56.78125 9.90625 50.3125 4.234375 
Q 43.84375 -1.421875 31.78125 -1.421875 
Q 19.734375 -1.421875 13.25 4.234375 
Q 6.78125 9.90625 6.78125 20.515625 
Q 6.78125 27.484375 10.78125 32.3125 
Q 14.796875 37.15625 21.921875 38.8125 
z
M 18.3125 54.390625 
Q 18.3125 48.734375 21.84375 45.5625 
Q 25.390625 42.390625 31.78125 42.390625 
Q 38.140625 42.390625 41.71875 45.5625 
Q 45.3125 48.734375 45.3125 54.390625 
Q 45.3125 60.0625 41.71875 63.234375 
Q 38.140625 66.40625 31.78125 66.40625 
Q 25.390625 66.40625 21.84375 63.234375 
Q 18.3125 60.0625 18.3125 54.390625 
z
" id="DejaVuSans-38"/>
      </defs>
      <g transform="translate(37.875 98.493619)scale(0.1 -0.1)">
       <use xlink:href="#DejaVuSans-38"/>
       <use x="63.623047" xlink:href="#DejaVuSans-30"/>
      </g>
     </g>
    </g>
    <g id="ytick_6">
     <g id="line2d_11">
      <g>
       <use style="stroke:#000000;stroke-width:0.8;" x="57.6" xlink:href="#mdefda0f05e" y="41.472"/>
      </g>
     </g>
     <g id="text_12">
      <!-- 100 -->
      <g transform="translate(31.5125 45.271219)scale(0.1 -0.1)">
       <use xlink:href="#DejaVuSans-31"/>
       <use x="63.623047" xlink:href="#DejaVuSans-30"/>
       <use x="127.246094" xlink:href="#DejaVuSans-30"/>
      </g>
     </g>
    </g>
    <g id="text_13">
     <!-- Optimal action (%) -->
     <defs>
      <path d="M 39.40625 66.21875 
Q 28.65625 66.21875 22.328125 58.203125 
Q 16.015625 50.203125 16.015625 36.375 
Q 16.015625 22.609375 22.328125 14.59375 
Q 28.65625 6.59375 39.40625 6.59375 
Q 50.140625 6.59375 56.421875 14.59375 
Q 62.703125 22.609375 62.703125 36.375 
Q 62.703125 50.203125 56.421875 58.203125 
Q 50.140625 66.21875 39.40625 66.21875 
z
M 39.40625 74.21875 
Q 54.734375 74.21875 63.90625 63.9375 
Q 73.09375 53.65625 73.09375 36.375 
Q 73.09375 19.140625 63.90625 8.859375 
Q 54.734375 -1.421875 39.40625 -1.421875 
Q 24.03125 -1.421875 14.8125 8.828125 
Q 5.609375 19.09375 5.609375 36.375 
Q 5.609375 53.65625 14.8125 63.9375 
Q 24.03125 74.21875 39.40625 74.21875 
z
" id="DejaVuSans-4f"/>
      <path d="M 9.421875 54.6875 
L 18.40625 54.6875 
L 18.40625 0 
L 9.421875 0 
z
M 9.421875 75.984375 
L 18.40625 75.984375 
L 18.40625 64.59375 
L 9.421875 64.59375 
z
" id="DejaVuSans-69"/>
      <path d="M 52 44.1875 
Q 55.375 50.25 60.0625 53.125 
Q 64.75 56 71.09375 56 
Q 79.640625 56 84.28125 50.015625 
Q 88.921875 44.046875 88.921875 33.015625 
L 88.921875 0 
L 79.890625 0 
L 79.890625 32.71875 
Q 79.890625 40.578125 77.09375 44.375 
Q 74.3125 48.1875 68.609375 48.1875 
Q 61.625 48.1875 57.5625 43.546875 
Q 53.515625 38.921875 53.515625 30.90625 
L 53.515625 0 
L 44.484375 0 
L 44.484375 32.71875 
Q 44.484375 40.625 41.703125 44.40625 
Q 38.921875 48.1875 33.109375 48.1875 
Q 26.21875 48.1875 22.15625 43.53125 
Q 18.109375 38.875 18.109375 30.90625 
L 18.109375 0 
L 9.078125 0 
L 9.078125 54.6875 
L 18.109375 54.6875 
L 18.109375 46.1875 
Q 21.1875 51.21875 25.484375 53.609375 
Q 29.78125 56 35.6875 56 
Q 41.65625 56 45.828125 52.96875 
Q 50 49.953125 52 44.1875 
z
" id="DejaVuSans-6d"/>
      <path d="M 34.28125 27.484375 
Q 23.390625 27.484375 19.1875 25 
Q 14.984375 22.515625 14.984375 16.5 
Q 14.984375 11.71875 18.140625 8.90625 
Q 21.296875 6.109375 26.703125 6.109375 
Q 34.1875 6.109375 38.703125 11.40625 
Q 43.21875 16.703125 43.21875 25.484375 
L 43.21875 27.484375 
z
M 52.203125 31.203125 
L 52.203125 0 
L 43.21875 0 
L 43.21875 8.296875 
Q 40.140625 3.328125 35.546875 0.953125 
Q 30.953125 -1.421875 24.3125 -1.421875 
Q 15.921875 -1.421875 10.953125 3.296875 
Q 6 8.015625 6 15.921875 
Q 6 25.140625 12.171875 29.828125 
Q 18.359375 34.515625 30.609375 34.515625 
L 43.21875 34.515625 
L 43.21875 35.40625 
Q 43.21875 41.609375 39.140625 45 
Q 35.0625 48.390625 27.6875 48.390625 
Q 23 48.390625 18.546875 47.265625 
Q 14.109375 46.140625 10.015625 43.890625 
L 10.015625 52.203125 
Q 14.9375 54.109375 19.578125 55.046875 
Q 24.21875 56 28.609375 56 
Q 40.484375 56 46.34375 49.84375 
Q 52.203125 43.703125 52.203125 31.203125 
z
" id="DejaVuSans-61"/>
      <path d="M 9.421875 75.984375 
L 18.40625 75.984375 
L 18.40625 0 
L 9.421875 0 
z
" id="DejaVuSans-6c"/>
      <path id="DejaVuSans-20"/>
      <path d="M 48.78125 52.59375 
L 48.78125 44.1875 
Q 44.96875 46.296875 41.140625 47.34375 
Q 37.3125 48.390625 33.40625 48.390625 
Q 24.65625 48.390625 19.8125 42.84375 
Q 14.984375 37.3125 14.984375 27.296875 
Q 14.984375 17.28125 19.8125 11.734375 
Q 24.65625 6.203125 33.40625 6.203125 
Q 37.3125 6.203125 41.140625 7.25 
Q 44.96875 8.296875 48.78125 10.40625 
L 48.78125 2.09375 
Q 45.015625 0.34375 40.984375 -0.53125 
Q 36.96875 -1.421875 32.421875 -1.421875 
Q 20.0625 -1.421875 12.78125 6.34375 
Q 5.515625 14.109375 5.515625 27.296875 
Q 5.515625 40.671875 12.859375 48.328125 
Q 20.21875 56 33.015625 56 
Q 37.15625 56 41.109375 55.140625 
Q 45.0625 54.296875 48.78125 52.59375 
z
" id="DejaVuSans-63"/>
      <path d="M 30.609375 48.390625 
Q 23.390625 48.390625 19.1875 42.75 
Q 14.984375 37.109375 14.984375 27.296875 
Q 14.984375 17.484375 19.15625 11.84375 
Q 23.34375 6.203125 30.609375 6.203125 
Q 37.796875 6.203125 41.984375 11.859375 
Q 46.1875 17.53125 46.1875 27.296875 
Q 46.1875 37.015625 41.984375 42.703125 
Q 37.796875 48.390625 30.609375 48.390625 
z
M 30.609375 56 
Q 42.328125 56 49.015625 48.375 
Q 55.71875 40.765625 55.71875 27.296875 
Q 55.71875 13.875 49.015625 6.21875 
Q 42.328125 -1.421875 30.609375 -1.421875 
Q 18.84375 -1.421875 12.171875 6.21875 
Q 5.515625 13.875 5.515625 27.296875 
Q 5.515625 40.765625 12.171875 48.375 
Q 18.84375 56 30.609375 56 
z
" id="DejaVuSans-6f"/>
      <path d="M 54.890625 33.015625 
L 54.890625 0 
L 45.90625 0 
L 45.90625 32.71875 
Q 45.90625 40.484375 42.875 44.328125 
Q 39.84375 48.1875 33.796875 48.1875 
Q 26.515625 48.1875 22.3125 43.546875 
Q 18.109375 38.921875 18.109375 30.90625 
L 18.109375 0 
L 9.078125 0 
L 9.078125 54.6875 
L 18.109375 54.6875 
L 18.109375 46.1875 
Q 21.34375 51.125 25.703125 53.5625 
Q 30.078125 56 35.796875 56 
Q 45.21875 56 50.046875 50.171875 
Q 54.890625 44.34375 54.890625 33.015625 
z
" id="DejaVuSans-6e"/>
      <path d="M 31 75.875 
Q 24.46875 64.65625 21.28125 53.65625 
Q 18.109375 42.671875 18.109375 31.390625 
Q 18.109375 20.125 21.3125 9.0625 
Q 24.515625 -2 31 -13.1875 
L 23.1875 -13.1875 
Q 15.875 -1.703125 12.234375 9.375 
Q 8.59375 20.453125 8.59375 31.390625 
Q 8.59375 42.28125 12.203125 53.3125 
Q 15.828125 64.359375 23.1875 75.875 
z
" id="DejaVuSans-28"/>
      <path d="M 72.703125 32.078125 
Q 68.453125 32.078125 66.03125 28.46875 
Q 63.625 24.859375 63.625 18.40625 
Q 63.625 12.0625 66.03125 8.421875 
Q 68.453125 4.78125 72.703125 4.78125 
Q 76.859375 4.78125 79.265625 8.421875 
Q 81.6875 12.0625 81.6875 18.40625 
Q 81.6875 24.8125 79.265625 28.4375 
Q 76.859375 32.078125 72.703125 32.078125 
z
M 72.703125 38.28125 
Q 80.421875 38.28125 84.953125 32.90625 
Q 89.5 27.546875 89.5 18.40625 
Q 89.5 9.28125 84.9375 3.921875 
Q 80.375 -1.421875 72.703125 -1.421875 
Q 64.890625 -1.421875 60.34375 3.921875 
Q 55.8125 9.28125 55.8125 18.40625 
Q 55.8125 27.59375 60.375 32.9375 
Q 64.9375 38.28125 72.703125 38.28125 
z
M 22.3125 68.015625 
Q 18.109375 68.015625 15.6875 64.375 
Q 13.28125 60.75 13.28125 54.390625 
Q 13.28125 47.953125 15.671875 44.328125 
Q 18.0625 40.71875 22.3125 40.71875 
Q 26.5625 40.71875 28.96875 44.328125 
Q 31.390625 47.953125 31.390625 54.390625 
Q 31.390625 60.6875 28.953125 64.34375 
Q 26.515625 68.015625 22.3125 68.015625 
z
M 66.40625 74.21875 
L 74.21875 74.21875 
L 28.609375 -1.421875 
L 20.796875 -1.421875 
z
M 22.3125 74.21875 
Q 30.03125 74.21875 34.609375 68.875 
Q 39.203125 63.53125 39.203125 54.390625 
Q 39.203125 45.171875 34.640625 39.84375 
Q 30.078125 34.515625 22.3125 34.515625 
Q 14.546875 34.515625 10.03125 39.859375 
Q 5.515625 45.21875 5.515625 54.390625 
Q 5.515625 63.484375 10.046875 68.84375 
Q 14.59375 74.21875 22.3125 74.21875 
z
" id="DejaVuSans-25"/>
      <path d="M 8.015625 75.875 
L 15.828125 75.875 
Q 23.140625 64.359375 26.78125 53.3125 
Q 30.421875 42.28125 30.421875 31.390625 
Q 30.421875 20.453125 26.78125 9.375 
Q 23.140625 -1.703125 15.828125 -13.1875 
L 8.015625 -13.1875 
Q 14.5 -2 17.703125 9.0625 
Q 20.90625 20.125 20.90625 31.390625 
Q 20.90625 42.671875 17.703125 53.65625 
Q 14.5 64.65625 8.015625 75.875 
z
" id="DejaVuSans-29"/>
     </defs>
     <g transform="translate(25.432812 221.531906)rotate(-90)scale(0.1 -0.1)">
      <use xlink:href="#DejaVuSans-4f"/>
      <use x="78.710938" xlink:href="#DejaVuSans-70"/>
      <use x="142.1875" xlink:href="#DejaVuSans-74"/>
      <use x="181.396484" xlink:href="#DejaVuSans-69"/>
      <use x="209.179688" xlink:href="#DejaVuSans-6d"/>
      <use x="306.591797" xlink:href="#DejaVuSans-61"/>
      <use x="367.871094" xlink:href="#DejaVuSans-6c"/>
      <use x="395.654297" xlink:href="#DejaVuSans-20"/>
      <use x="427.441406" xlink:href="#DejaVuSans-61"/>
      <use x="488.720703" xlink:href="#DejaVuSans-63"/>
      <use x="543.701172" xlink:href="#DejaVuSans-74"/>
      <use x="582.910156" xlink:href="#DejaVuSans-69"/>
      <use x="610.693359" xlink:href="#DejaVuSans-6f"/>
      <use x="671.875" xlink:href="#DejaVuSans-6e"/>
      <use x="735.253906" xlink:href="#DejaVuSans-20"/>
      <use x="767.041016" xlink:href="#DejaVuSans-28"/>
      <use x="806.054688" xlink:href="#DejaVuSans-25"/>
      <use x="901.074219" xlink:href="#DejaVuSans-29"/>
     </g>
    </g>
   </g>
   <g id="line2d_12">
    <path clip-path="url(#p46c985fb3a)" d="M 73.832727 282.170303 
L 74.157707 269.929153 
L 74.807666 258.619393 
L 75.132645 250.636033 
L 75.457625 247.176574 
L 75.782604 246.644353 
L 76.432563 237.862659 
L 76.757543 230.544574 
L 77.082523 231.609026 
L 77.407502 228.548739 
L 77.732482 227.218179 
L 78.057461 227.351233 
L 78.382441 223.492602 
L 78.70742 223.625666 
L 79.0324 220.831482 
L 79.357379 221.76288 
L 79.682359 216.44064 
L 80.007338 217.10592 
L 80.332318 216.174532 
L 80.657297 213.11424 
L 80.982277 214.045628 
L 81.307256 212.848122 
L 81.632236 212.44896 
L 81.957215 208.989506 
L 82.282195 207.12672 
L 82.607174 209.654786 
L 82.932154 205.13088 
L 83.257133 207.12672 
L 83.582113 203.401148 
L 83.907093 202.868932 
L 84.232072 201.405318 
L 84.557052 200.606974 
L 84.882031 199.276414 
L 85.207011 201.538372 
L 85.53199 196.748348 
L 85.85697 198.211962 
L 86.181949 197.8128 
L 86.506929 195.81696 
L 86.831908 196.881402 
L 87.156888 193.15584 
L 87.481867 194.4864 
L 87.806847 192.49056 
L 88.131826 192.357506 
L 88.456806 191.293054 
L 88.781785 189.563322 
L 89.106765 191.293054 
L 89.431744 188.764988 
L 89.756724 188.49888 
L 90.081704 188.898042 
L 90.406683 188.232762 
L 90.731663 184.773318 
L 91.056642 184.906372 
L 91.381622 184.906372 
L 91.706601 183.043586 
L 92.031581 182.777468 
L 92.35656 183.442748 
L 92.68154 183.708866 
L 93.006519 182.644414 
L 93.331499 182.378306 
L 93.656478 180.648574 
L 93.981458 177.8544 
L 94.306437 179.85024 
L 94.631417 179.717176 
L 94.956396 178.386626 
L 95.281376 180.781628 
L 95.606355 177.588292 
L 96.256314 175.19328 
L 96.581294 175.060226 
L 96.906274 175.725506 
L 97.231253 174.394936 
L 97.556233 174.394936 
L 97.881212 173.729656 
L 98.206192 171.999924 
L 98.531171 171.068536 
L 98.856151 173.330504 
L 99.18113 170.669374 
L 99.50611 171.999924 
L 99.831089 170.403266 
L 100.156069 173.995784 
L 100.481048 167.742146 
L 100.806028 170.53632 
L 101.131007 170.802428 
L 101.455987 167.742146 
L 101.780966 168.008254 
L 102.105946 167.20993 
L 102.430925 167.742146 
L 102.755905 164.54879 
L 103.080885 165.081026 
L 103.405864 164.54879 
L 103.730844 160.157948 
L 104.055823 163.085186 
L 104.380803 161.355464 
L 105.030762 163.484358 
L 105.355741 163.21824 
L 105.680721 159.89184 
L 106.0057 161.2224 
L 106.33068 157.896 
L 106.980639 160.291012 
L 107.305618 156.964612 
L 107.630598 157.629892 
L 107.955577 159.492668 
L 108.280557 156.299332 
L 108.605536 156.698504 
L 108.930516 157.896 
L 109.255495 155.634052 
L 109.580475 159.625732 
L 109.905455 156.166268 
L 110.230434 155.767096 
L 110.555414 153.23904 
L 111.205373 155.500988 
L 111.530352 155.90016 
L 111.855332 158.694344 
L 112.180311 153.90432 
L 112.505291 154.968772 
L 112.83027 151.376254 
L 113.15525 154.303492 
L 113.480229 155.767096 
L 113.805209 152.839878 
L 114.455168 151.24321 
L 114.780147 154.436536 
L 115.105127 151.110146 
L 115.430106 151.24321 
L 115.755086 152.041534 
L 116.080066 149.779586 
L 116.405045 152.706814 
L 116.730025 151.376254 
L 117.055004 151.509318 
L 117.379984 150.977082 
L 118.029943 148.715134 
L 118.354922 148.715134 
L 118.679902 150.444866 
L 119.004881 149.114306 
L 119.329861 146.320122 
L 119.65484 150.844038 
L 119.97982 148.715134 
L 120.304799 149.380414 
L 120.954758 145.654852 
L 121.279738 146.054014 
L 121.604717 145.122626 
L 121.929697 145.92096 
L 122.254676 143.126796 
L 122.579656 144.5904 
L 122.904636 145.25568 
L 123.229615 147.384574 
L 123.554595 146.054014 
L 123.879574 145.388734 
L 124.204554 145.25568 
L 124.529533 142.461496 
L 124.854513 144.723464 
L 125.179492 142.195388 
L 125.504472 142.195388 
L 125.829451 145.388734 
L 126.154431 143.25984 
L 126.80439 145.25568 
L 127.129369 140.465656 
L 127.454349 141.397064 
L 127.779328 143.525948 
L 128.104308 141.663172 
L 128.429287 142.993732 
L 128.754267 140.199548 
L 129.079247 140.864828 
L 129.404226 143.392904 
L 129.729206 140.332612 
L 130.054185 142.860668 
L 130.379165 141.796216 
L 130.704144 138.735924 
L 131.029124 139.401204 
L 131.354103 138.868988 
L 131.679083 137.405374 
L 132.004062 137.9376 
L 132.329042 142.461496 
L 132.654021 137.804536 
L 132.979001 139.800376 
L 133.30398 140.465656 
L 133.953939 136.740084 
L 134.278919 138.868988 
L 134.603898 141.796216 
L 134.928878 137.27232 
L 135.253857 140.59872 
L 135.578837 137.27232 
L 135.903817 136.207868 
L 136.553776 138.070654 
L 136.878755 133.28064 
L 137.203735 136.60704 
L 137.528714 136.873148 
L 137.853694 133.147576 
L 138.178673 135.409524 
L 138.503653 135.143416 
L 138.828632 135.143416 
L 139.153612 135.010352 
L 139.478591 133.546748 
L 139.803571 135.808696 
L 140.12855 131.95008 
L 140.45353 131.2848 
L 140.778509 133.014532 
L 141.103489 133.28064 
L 141.428468 132.482296 
L 141.753448 135.542588 
L 142.078428 132.482296 
L 142.728387 129.155916 
L 143.053366 131.417864 
L 143.378346 129.821196 
L 144.028305 132.881468 
L 144.678264 129.688132 
L 145.003243 131.151756 
L 145.328223 130.486476 
L 145.653202 128.490636 
L 145.978182 130.752584 
L 146.303161 125.563388 
L 146.95312 131.550928 
L 147.2781 131.95008 
L 147.603079 129.022852 
L 147.928059 128.224508 
L 148.253038 130.220368 
L 148.578018 129.28896 
L 148.902998 129.422024 
L 149.227977 131.817036 
L 149.552957 127.426184 
L 149.877936 130.353412 
L 150.527895 129.422024 
L 150.852875 127.29312 
L 151.177854 126.760904 
L 151.502834 127.692292 
L 151.827813 126.494796 
L 152.152793 126.361732 
L 152.477772 129.555068 
L 152.802752 125.829496 
L 153.127731 129.022852 
L 153.452711 129.422024 
L 153.77769 128.756744 
L 154.10267 130.353412 
L 154.427649 125.164216 
L 154.752629 126.62784 
L 155.077609 124.232828 
L 155.402588 127.29312 
L 155.727568 126.893948 
L 156.052547 126.095624 
L 156.377527 125.96256 
L 156.702506 127.027012 
L 157.027486 125.829496 
L 157.352465 127.160076 
L 158.002424 123.567548 
L 158.327404 127.825356 
L 158.652383 122.370052 
L 158.977363 124.765064 
L 159.302342 122.902268 
L 159.627322 125.563388 
L 159.952301 125.430344 
L 160.277281 120.108084 
L 160.60226 126.228668 
L 160.92724 125.164216 
L 161.902179 123.035332 
L 162.227158 123.700612 
L 162.552138 124.765064 
L 162.877117 122.236988 
L 163.202097 124.632 
L 163.527076 122.236988 
L 164.177035 124.232828 
L 164.502015 122.103924 
L 164.826994 122.769204 
L 165.151974 124.498936 
L 165.801933 119.442804 
L 166.126912 122.236988 
L 166.451892 123.434504 
L 166.776871 119.841976 
L 167.101851 121.438644 
L 167.42683 119.97504 
L 167.75181 120.374212 
L 168.07679 123.035332 
L 168.401769 118.112244 
L 168.726749 120.507256 
L 169.051728 119.442804 
L 169.376708 118.910588 
L 169.701687 116.914748 
L 170.351646 121.704772 
L 170.676626 120.108084 
L 171.001605 120.108084 
L 171.326585 118.777524 
L 171.651564 121.97088 
L 172.301523 119.30976 
L 172.626503 119.708932 
L 172.951482 120.507256 
L 173.276462 119.708932 
L 173.601441 122.236988 
L 173.926421 118.511416 
L 174.2514 117.446964 
L 174.90136 120.241148 
L 175.226339 118.112244 
L 175.551319 119.575868 
L 176.201278 115.584188 
L 176.526257 117.180856 
L 176.851237 115.717252 
L 177.176216 115.451144 
L 177.501196 116.116424 
L 177.826175 117.31392 
L 178.151155 116.914748 
L 178.476134 119.841976 
L 178.801114 118.910588 
L 179.126093 116.64864 
L 179.451073 116.116424 
L 179.776052 117.846136 
L 180.101032 116.914748 
L 180.426011 115.584188 
L 180.750991 119.575868 
L 181.075971 115.98336 
L 181.40095 115.451144 
L 181.72593 113.721412 
L 182.375889 119.30976 
L 182.700868 115.185036 
L 183.025848 115.584188 
L 183.350827 111.193356 
L 183.675807 115.98336 
L 184.000786 118.245308 
L 184.325766 116.382532 
L 184.650745 112.790024 
L 184.975725 114.386692 
L 185.300704 114.918928 
L 185.625684 114.918928 
L 185.950663 114.519756 
L 186.275643 117.180856 
L 186.600622 113.189196 
L 186.925602 111.060292 
L 187.250581 116.116424 
L 187.900541 113.056132 
L 188.22552 115.185036 
L 188.5505 113.98752 
L 188.875479 115.185036 
L 189.200459 111.99168 
L 189.525438 114.6528 
L 189.850418 111.858636 
L 190.175397 112.390852 
L 190.500377 111.060292 
L 190.825356 112.790024 
L 191.150336 113.32224 
L 191.475315 115.451144 
L 191.800295 113.854476 
L 192.125274 114.253648 
L 192.450254 110.66112 
L 192.775233 111.060292 
L 193.100213 110.528076 
L 193.425192 113.189196 
L 193.750172 112.390852 
L 194.075152 114.6528 
L 194.400131 114.120584 
L 194.725111 111.99168 
L 195.05009 112.390852 
L 195.37507 113.98752 
L 195.700049 112.790024 
L 196.025029 113.189196 
L 196.350008 113.056132 
L 196.674988 111.459464 
L 196.999967 111.459464 
L 197.324947 111.858636 
L 197.649926 112.790024 
L 197.974906 112.124744 
L 198.299885 113.98752 
L 198.624865 113.32224 
L 198.949844 110.395012 
L 199.274824 112.523916 
L 199.599803 113.588368 
L 199.924783 111.592508 
L 200.574742 112.257788 
L 200.899722 110.528076 
L 201.224701 111.459464 
L 201.549681 109.197496 
L 201.87466 111.99168 
L 202.19964 113.588368 
L 202.524619 109.862796 
L 202.849599 112.257788 
L 203.174578 110.128904 
L 203.499558 111.725572 
L 203.824537 111.459464 
L 204.149517 112.523916 
L 204.474496 106.935548 
L 204.799476 109.99584 
L 205.124455 108.133064 
L 205.449435 112.523916 
L 205.774414 106.00416 
L 206.424373 112.257788 
L 207.074333 112.790024 
L 207.724292 107.866936 
L 208.049271 108.266108 
L 208.69923 111.725572 
L 209.02421 110.528076 
L 209.349189 108.133064 
L 209.674169 112.790024 
L 209.999148 108.399172 
L 210.324128 107.733892 
L 210.649107 108.532216 
L 210.974087 108.133064 
L 211.299066 110.528076 
L 211.624046 108.133064 
L 211.949025 109.33056 
L 212.274005 107.068612 
L 212.598984 111.193356 
L 212.923964 110.128904 
L 213.248943 112.65696 
L 213.573923 108.931388 
L 213.898903 108.399172 
L 214.223882 110.66112 
L 214.548862 109.197496 
L 214.873841 111.725572 
L 215.198821 106.935548 
L 215.5238 108.66528 
L 215.84878 109.33056 
L 216.173759 109.33056 
L 216.498739 109.729732 
L 216.823718 110.794184 
L 217.148698 108.266108 
L 217.473677 108.399172 
L 217.798657 109.197496 
L 218.123636 108.532216 
L 218.448616 108.66528 
L 218.773595 111.193356 
L 219.098575 111.459464 
L 219.423554 109.463624 
L 219.748534 108.66528 
L 220.073514 108.931388 
L 220.398493 105.871096 
L 220.723473 108 
L 221.048452 108.66528 
L 221.373432 105.205816 
L 221.698411 109.197496 
L 222.023391 109.596668 
L 222.34837 108.66528 
L 222.67335 111.725572 
L 222.998329 109.596668 
L 223.323309 110.66112 
L 223.648288 106.00416 
L 224.298247 108.266108 
L 224.623227 107.866936 
L 224.948206 104.806644 
L 225.273186 108.399172 
L 225.598165 105.471924 
L 225.923145 109.463624 
L 226.573104 104.141364 
L 226.898084 106.137204 
L 227.223063 106.137204 
L 227.548043 106.536376 
L 227.873022 107.201656 
L 228.198002 107.33472 
L 228.522981 106.137204 
L 228.847961 107.733892 
L 229.17294 108.133064 
L 229.49792 106.403332 
L 229.822899 105.871096 
L 230.147879 107.866936 
L 230.472858 104.141364 
L 230.797838 106.403332 
L 231.122817 103.34304 
L 231.447797 104.6736 
L 232.097756 108.532216 
L 232.422735 107.068612 
L 232.747715 106.66944 
L 233.072695 107.201656 
L 233.397674 106.270268 
L 233.722654 106.935548 
L 234.047633 107.201656 
L 234.372613 104.274428 
L 234.697592 107.201656 
L 235.022572 106.536376 
L 235.347551 107.733892 
L 235.672531 106.270268 
L 235.99751 109.33056 
L 236.32249 103.34304 
L 236.647469 103.34304 
L 236.972449 104.274428 
L 237.297428 105.604988 
L 237.622408 104.806644 
L 237.947387 105.205816 
L 238.272367 106.536376 
L 238.597346 106.536376 
L 238.922326 104.274428 
L 239.247305 105.072772 
L 239.572285 104.6736 
L 239.897265 104.806644 
L 240.547224 107.201656 
L 241.197183 103.209976 
L 241.522162 105.738052 
L 241.847142 104.274428 
L 242.172121 105.205816 
L 242.497101 105.072772 
L 242.82208 104.540536 
L 243.14706 104.6736 
L 243.797019 106.536376 
L 244.121998 106.536376 
L 244.446978 104.540536 
L 244.771957 104.274428 
L 245.096937 102.943868 
L 245.421916 107.068612 
L 245.746896 103.875256 
L 246.071876 105.604988 
L 246.396855 105.871096 
L 246.721835 103.476084 
L 247.046814 108.66528 
L 247.371794 102.01248 
L 247.696773 103.609148 
L 248.021753 103.742212 
L 248.346732 102.278588 
L 248.671712 105.33888 
L 248.996691 102.278588 
L 249.321671 107.068612 
L 249.97163 102.810804 
L 250.296609 105.33888 
L 250.621589 105.471924 
L 250.946568 105.072772 
L 251.271548 104.141364 
L 251.596527 106.137204 
L 251.921507 103.609148 
L 252.246486 102.145524 
L 252.571466 104.274428 
L 252.896446 104.141364 
L 253.221425 105.604988 
L 253.546405 103.076932 
L 253.871384 103.076932 
L 254.521343 104.141364 
L 254.846323 104.00832 
L 255.171302 105.738052 
L 255.496282 105.205816 
L 255.821261 103.609148 
L 256.146241 103.476084 
L 256.47122 105.072772 
L 256.7962 103.076932 
L 257.121179 104.141364 
L 257.446159 102.01248 
L 257.771138 104.274428 
L 258.096118 103.742212 
L 258.421097 103.476084 
L 258.746077 104.274428 
L 259.071057 102.145524 
L 259.396036 101.613308 
L 260.370975 104.274428 
L 260.695954 99.218296 
L 261.020934 102.810804 
L 261.345913 101.879416 
L 261.670893 103.076932 
L 261.995872 101.214136 
L 262.320852 105.471924 
L 262.645831 101.480244 
L 262.970811 101.480244 
L 263.29579 101.746352 
L 263.62077 104.540536 
L 263.945749 104.540536 
L 264.270729 103.476084 
L 264.595708 105.072772 
L 264.920688 100.548856 
L 265.245667 102.943868 
L 265.570647 103.609148 
L 265.895627 100.149704 
L 266.220606 102.67776 
L 266.545586 100.948028 
L 266.870565 103.476084 
L 267.520524 102.145524 
L 267.845504 104.274428 
L 268.170483 102.01248 
L 268.495463 103.742212 
L 268.820442 102.544696 
L 269.145422 103.209976 
L 269.470401 100.68192 
L 269.795381 101.746352 
L 270.12036 101.879416 
L 270.44534 103.609148 
L 270.770319 103.875256 
L 271.095299 100.68192 
L 271.420278 103.875256 
L 272.070238 104.141364 
L 272.395217 100.415812 
L 272.720197 103.875256 
L 273.045176 101.3472 
L 273.370156 104.141364 
L 273.695135 100.68192 
L 274.020115 102.278588 
L 274.345094 102.810804 
L 274.670074 102.544696 
L 274.995053 101.3472 
L 275.320033 101.480244 
L 275.645012 102.67776 
L 275.969992 100.68192 
L 276.294971 103.209976 
L 276.619951 100.282748 
L 276.94493 103.076932 
L 277.26991 102.145524 
L 277.594889 103.34304 
L 277.919869 100.68192 
L 278.244848 103.076932 
L 278.569828 103.609148 
L 278.894808 102.01248 
L 279.219787 101.879416 
L 279.544767 100.68192 
L 279.869746 107.068612 
L 280.194726 98.286928 
L 280.519705 101.3472 
L 280.844685 98.68608 
L 281.169664 101.3472 
L 281.494644 103.076932 
L 281.819623 103.476084 
L 282.144603 100.68192 
L 282.469582 102.145524 
L 282.794562 101.3472 
L 283.119541 102.67776 
L 283.444521 99.883576 
L 283.7695 102.145524 
L 284.09448 101.3472 
L 284.419459 101.3472 
L 284.744439 101.081072 
L 285.069419 100.415812 
L 285.394398 102.01248 
L 285.719378 101.746352 
L 286.044357 100.149704 
L 286.369337 103.34304 
L 286.694316 99.085252 
L 287.019296 100.01664 
L 287.344275 101.879416 
L 287.669255 104.407492 
L 287.994234 100.282748 
L 288.319214 101.214136 
L 288.644193 100.948028 
L 288.969173 100.948028 
L 289.294152 98.553036 
L 289.619132 101.081072 
L 289.944111 99.883576 
L 290.269091 101.746352 
L 290.59407 100.814964 
L 290.91905 100.68192 
L 291.244029 96.956368 
L 291.893989 101.613308 
L 292.218968 100.282748 
L 292.868927 99.218296 
L 293.193907 101.081072 
L 293.518886 99.085252 
L 293.843866 99.750532 
L 294.168845 102.544696 
L 294.493825 99.484424 
L 295.143784 103.476084 
L 295.793743 99.883576 
L 296.118722 102.544696 
L 296.768681 99.617468 
L 297.093661 101.746352 
L 297.41864 99.085252 
L 297.74362 98.952188 
L 298.0686 101.879416 
L 298.393579 101.879416 
L 298.718559 103.476084 
L 299.043538 101.081072 
L 299.368518 102.943868 
L 299.693497 98.153864 
L 300.018477 99.085252 
L 300.343456 100.415812 
L 300.668436 99.484424 
L 300.993415 100.948028 
L 301.318395 100.415812 
L 301.643374 99.085252 
L 301.968354 101.879416 
L 302.293333 99.35136 
L 302.618313 99.750532 
L 302.943292 98.286928 
L 303.268272 97.621648 
L 303.593251 99.883576 
L 303.918231 99.484424 
L 304.24321 97.35552 
L 304.56819 97.887756 
L 304.89317 102.67776 
L 305.218149 100.68192 
L 305.543129 100.282748 
L 305.868108 96.158024 
L 306.193088 99.484424 
L 306.518067 98.286928 
L 306.843047 98.819144 
L 307.168026 97.222476 
L 307.493006 96.291068 
L 307.817985 97.887756 
L 308.142965 100.149704 
L 308.792924 96.291068 
L 309.117903 100.282748 
L 309.442883 98.952188 
L 309.767862 96.424132 
L 310.092842 100.149704 
L 310.417821 100.948028 
L 311.067781 97.887756 
L 311.39276 100.01664 
L 311.71774 99.218296 
L 312.042719 97.754692 
L 312.692678 99.218296 
L 313.017658 99.218296 
L 313.342637 97.621648 
L 313.992596 102.145524 
L 314.317576 101.3472 
L 314.642555 98.68608 
L 315.292514 100.814964 
L 315.617494 98.952188 
L 316.267453 100.149704 
L 316.592432 100.948028 
L 316.917412 100.282748 
L 317.242391 97.222476 
L 317.567371 99.883576 
L 318.21733 98.153864 
L 318.54231 95.758852 
L 318.867289 98.153864 
L 319.192269 99.617468 
L 319.517248 99.617468 
L 319.842228 98.819144 
L 320.167207 97.35552 
L 320.817166 99.085252 
L 321.142146 96.956368 
L 321.467125 96.557196 
L 321.792105 99.218296 
L 322.117084 99.883576 
L 322.442064 99.085252 
L 322.767043 101.081072 
L 323.417002 98.0208 
L 323.741982 99.484424 
L 324.066962 97.089412 
L 324.391941 96.823304 
L 324.716921 98.952188 
L 325.0419 98.153864 
L 325.36688 100.282748 
L 326.016839 96.69024 
L 326.341818 98.553036 
L 326.666798 96.956368 
L 326.991777 100.415812 
L 327.641736 96.158024 
L 327.966716 97.488584 
L 328.291695 99.750532 
L 328.616675 94.295228 
L 328.941654 98.952188 
L 329.266634 94.960508 
L 329.591613 98.286928 
L 329.916593 100.282748 
L 330.241572 97.222476 
L 330.891532 97.754692 
L 331.216511 96.424132 
L 331.541491 101.480244 
L 331.86647 97.621648 
L 332.19145 95.492744 
L 332.516429 98.286928 
L 332.841409 99.484424 
L 333.166388 99.218296 
L 333.491368 100.948028 
L 333.816347 98.819144 
L 334.141327 99.750532 
L 334.466306 100.149704 
L 334.791286 98.68608 
L 335.116265 102.145524 
L 335.441245 98.819144 
L 335.766224 97.887756 
L 336.091204 99.883576 
L 336.416183 98.153864 
L 336.741163 97.222476 
L 337.391122 100.548856 
L 337.716102 96.956368 
L 338.041081 98.819144 
L 338.366061 98.68608 
L 338.69104 96.424132 
L 339.01602 98.553036 
L 339.340999 99.617468 
L 339.665979 101.3472 
L 339.990958 98.68608 
L 340.315938 99.085252 
L 340.640917 101.879416 
L 340.965897 97.089412 
L 341.290876 96.557196 
L 341.615856 99.218296 
L 341.940835 98.153864 
L 342.265815 93.896076 
L 342.590794 96.823304 
L 342.915774 97.488584 
L 343.240753 97.621648 
L 343.565733 98.68608 
L 343.890713 96.69024 
L 344.215692 96.424132 
L 344.540672 101.746352 
L 344.865651 99.484424 
L 345.190631 98.0208 
L 345.51561 100.415812 
L 345.84059 97.35552 
L 346.165569 97.35552 
L 346.490549 99.883576 
L 346.815528 95.093572 
L 347.140508 96.424132 
L 347.465487 100.415812 
L 347.790467 98.553036 
L 348.115446 97.35552 
L 348.440426 99.617468 
L 348.765405 95.492744 
L 349.090385 98.0208 
L 349.415364 98.553036 
L 349.740344 96.557196 
L 350.065324 98.952188 
L 350.390303 96.956368 
L 350.715283 97.222476 
L 351.040262 101.214136 
L 351.365242 96.69024 
L 351.690221 97.488584 
L 352.015201 98.819144 
L 352.34018 96.02496 
L 352.66516 96.956368 
L 352.990139 98.286928 
L 353.315119 98.0208 
L 353.640098 98.419972 
L 353.965078 96.291068 
L 354.290057 97.222476 
L 354.615037 97.089412 
L 354.940016 98.819144 
L 355.264996 95.492744 
L 355.589975 97.222476 
L 355.914955 97.35552 
L 356.239934 98.286928 
L 356.564914 95.625788 
L 356.889894 99.750532 
L 357.214873 96.823304 
L 357.539853 96.69024 
L 357.864832 98.286928 
L 358.189812 96.956368 
L 358.514791 94.6944 
L 358.839771 94.561356 
L 359.16475 95.093572 
L 359.48973 96.158024 
L 359.814709 98.419972 
L 360.139689 94.960508 
L 360.464668 96.158024 
L 360.789648 95.226636 
L 361.439607 95.758852 
L 361.764586 99.883576 
L 362.414545 98.153864 
L 362.739525 98.0208 
L 363.064505 97.488584 
L 363.389484 99.750532 
L 363.714464 97.887756 
L 364.039443 98.553036 
L 364.689402 98.0208 
L 365.014382 97.222476 
L 365.339361 97.754692 
L 365.664341 97.488584 
L 365.98932 98.553036 
L 366.3143 96.956368 
L 366.639279 96.158024 
L 366.964259 98.419972 
L 367.289238 97.754692 
L 367.614218 92.69856 
L 367.939197 98.419972 
L 368.264177 97.35552 
L 368.589156 96.956368 
L 368.914136 97.887756 
L 369.239115 99.218296 
L 369.564095 97.621648 
L 369.889075 94.295228 
L 370.214054 99.35136 
L 370.539034 96.823304 
L 370.864013 96.557196 
L 371.188993 100.415812 
L 371.513972 98.68608 
L 371.838952 95.891916 
L 372.163931 95.891916 
L 372.488911 96.557196 
L 372.81389 98.553036 
L 373.13887 99.085252 
L 373.463849 96.291068 
L 373.788829 97.754692 
L 374.113808 95.492744 
L 374.763767 98.0208 
L 375.088747 97.222476 
L 375.413726 95.625788 
L 375.738706 96.02496 
L 376.063686 96.69024 
L 376.388665 96.291068 
L 376.713645 96.69024 
L 377.038624 97.887756 
L 377.363604 93.896076 
L 378.013563 96.557196 
L 378.338542 96.158024 
L 378.663522 97.754692 
L 378.988501 95.625788 
L 379.313481 95.093572 
L 379.63846 99.085252 
L 379.96344 94.827464 
L 380.288419 95.758852 
L 380.613399 97.887756 
L 380.938378 96.956368 
L 381.263358 97.754692 
L 381.588337 99.085252 
L 381.913317 95.093572 
L 382.238296 97.887756 
L 382.563276 96.424132 
L 382.888256 96.557196 
L 383.213235 97.621648 
L 383.863194 96.424132 
L 384.188174 95.35968 
L 384.513153 96.69024 
L 384.838133 100.68192 
L 385.163112 92.831624 
L 385.488092 97.35552 
L 385.813071 94.561356 
L 386.138051 100.68192 
L 386.46303 96.823304 
L 386.78801 96.02496 
L 387.112989 95.758852 
L 387.437969 96.956368 
L 387.762948 97.222476 
L 388.087928 95.758852 
L 388.412907 94.827464 
L 388.737887 96.557196 
L 389.062867 96.69024 
L 389.387846 96.69024 
L 389.712826 94.162184 
L 390.037805 97.35552 
L 390.362785 95.35968 
L 390.687764 96.291068 
L 391.012744 94.6944 
L 391.337723 95.758852 
L 391.662703 94.561356 
L 392.312662 93.629948 
L 392.637641 96.02496 
L 392.962621 94.6944 
L 393.2876 94.295228 
L 393.61258 96.424132 
L 393.937559 95.35968 
L 394.262539 95.226636 
L 394.587518 94.960508 
L 394.912498 96.158024 
L 395.237477 95.492744 
L 395.562457 96.424132 
L 395.887437 95.492744 
L 396.212416 96.823304 
L 396.537396 94.162184 
L 396.862375 95.891916 
L 397.187355 93.763012 
L 397.512334 97.089412 
L 397.837314 96.424132 
L 398.162293 92.831624 
L 398.487273 99.085252 
L 398.487273 99.085252 
" style="fill:none;stroke:#1f77b4;stroke-linecap:square;stroke-width:1.5;"/>
   </g>
   <g id="line2d_13">
    <path clip-path="url(#p46c985fb3a)" d="M 73.832727 282.30336 
L 74.482686 262.34496 
L 76.432563 238.660993 
L 78.057461 229.746245 
L 78.382441 229.080965 
L 79.0324 226.286786 
L 79.357379 224.956226 
L 79.682359 224.690108 
L 80.007338 224.024828 
L 81.307256 222.42816 
L 81.632236 221.76288 
L 81.957215 221.629816 
L 82.282195 221.0976 
L 82.932154 220.831482 
L 83.907093 220.166212 
L 84.882031 220.166212 
L 85.53199 219.900094 
L 86.181949 219.900094 
L 86.506929 219.500932 
L 86.831908 219.500932 
L 87.156888 219.234824 
L 87.481867 219.234824 
L 87.806847 219.10176 
L 88.131826 218.835652 
L 88.781785 218.835652 
L 89.106765 218.569534 
L 89.431744 218.569534 
L 89.756724 218.43648 
L 90.081704 218.170372 
L 90.406683 218.303426 
L 90.731663 218.303426 
L 91.056642 218.43648 
L 91.706601 218.43648 
L 92.35656 218.170372 
L 93.006519 218.170372 
L 93.656478 217.904254 
L 94.956396 217.904254 
L 95.281376 217.7712 
L 96.581294 217.7712 
L 96.906274 217.638146 
L 98.206192 217.638146 
L 98.531171 217.505092 
L 99.50611 217.505092 
L 99.831089 217.638146 
L 100.156069 217.505092 
L 101.455987 217.505092 
L 101.780966 217.372038 
L 108.930516 217.372038 
L 109.255495 217.238974 
L 112.505291 217.238974 
L 112.83027 217.10592 
L 114.780147 217.10592 
L 115.105127 216.972866 
L 121.279738 216.972866 
L 121.929697 216.706748 
L 122.254676 216.839812 
L 123.229615 216.839812 
L 123.554595 216.706748 
L 137.853694 216.706748 
L 138.178673 216.573694 
L 155.077609 216.573694 
L 155.402588 216.44064 
L 168.07679 216.44064 
L 168.401769 216.307586 
L 320.492187 216.307586 
L 320.817166 216.174532 
L 359.48973 216.174532 
L 359.814709 216.041468 
L 360.139689 216.174532 
L 398.487273 216.174532 
L 398.487273 216.174532 
" style="fill:none;stroke:#ff7f0e;stroke-linecap:square;stroke-width:1.5;"/>
   </g>
   <g id="line2d_14">
    <path clip-path="url(#p46c985fb3a)" d="M 73.832727 281.90419 
L 74.157707 268.332483 
L 74.807666 254.893826 
L 75.132645 249.571586 
L 75.457625 241.854339 
L 76.107584 234.137092 
L 77.407502 224.290946 
L 78.057461 221.0976 
L 78.382441 220.565374 
L 79.0324 218.43648 
L 80.007338 216.44064 
L 80.332318 214.977026 
L 80.657297 214.577854 
L 80.982277 214.577854 
L 81.307256 214.178682 
L 81.632236 214.4448 
L 81.957215 214.311746 
L 82.282195 214.045628 
L 82.607174 213.380348 
L 82.932154 213.513402 
L 83.257133 212.582014 
L 83.582113 213.11424 
L 83.907093 212.715068 
L 84.232072 212.582014 
L 84.557052 212.582014 
L 84.882031 211.916734 
L 85.207011 212.049788 
L 85.53199 210.586184 
L 85.85697 210.586184 
L 86.181949 210.053958 
L 86.831908 209.654786 
L 87.481867 209.920894 
L 88.131826 209.920894 
L 88.456806 210.45312 
L 88.781785 209.920894 
L 89.106765 209.12256 
L 89.431744 209.78784 
L 89.756724 209.12256 
L 90.081704 209.920894 
L 90.406683 209.388678 
L 90.731663 209.255614 
L 91.056642 208.45728 
L 91.381622 208.324226 
L 91.706601 208.723398 
L 92.031581 208.723398 
L 92.35656 208.191172 
L 92.68154 208.058108 
L 93.006519 209.255614 
L 93.331499 207.658946 
L 93.656478 208.191172 
L 93.981458 207.925054 
L 94.306437 208.058108 
L 94.631417 207.12672 
L 94.956396 207.925054 
L 95.281376 208.324226 
L 95.931335 206.328386 
L 96.256314 206.594494 
L 96.581294 206.46144 
L 97.231253 205.79616 
L 97.556233 206.062268 
L 97.881212 205.929214 
L 98.206192 206.062268 
L 98.531171 205.530042 
L 98.856151 205.396988 
L 99.18113 206.062268 
L 99.50611 205.13088 
L 99.831089 206.46144 
L 100.156069 205.396988 
L 100.481048 205.13088 
L 101.131007 203.933374 
L 101.455987 204.731708 
L 101.780966 204.598654 
L 102.105946 203.933374 
L 102.430925 204.066428 
L 102.755905 204.066428 
L 103.080885 203.534212 
L 103.405864 203.80032 
L 103.730844 204.332536 
L 104.055823 203.001986 
L 104.380803 203.001986 
L 104.705782 203.268094 
L 105.030762 202.602824 
L 105.355741 203.268094 
L 105.680721 202.070598 
L 106.0057 202.46976 
L 106.33068 202.602824 
L 106.655659 203.401148 
L 106.980639 203.001986 
L 107.305618 202.203652 
L 107.630598 202.336706 
L 107.955577 201.937534 
L 108.280557 202.203652 
L 109.255495 201.538372 
L 109.580475 201.538372 
L 109.905455 201.405318 
L 110.230434 202.203652 
L 110.555414 202.203652 
L 110.880393 201.1392 
L 111.205373 201.006146 
L 111.530352 201.006146 
L 111.855332 201.80448 
L 112.505291 200.740038 
L 112.83027 201.538372 
L 113.15525 200.873092 
L 113.480229 200.740038 
L 113.805209 201.937534 
L 114.455168 200.47392 
L 114.780147 200.340866 
L 115.105127 201.1392 
L 115.430106 200.207812 
L 115.755086 199.675586 
L 116.080066 199.80864 
L 116.405045 199.675586 
L 116.730025 200.074748 
L 117.055004 199.276414 
L 117.379984 200.207812 
L 117.704963 199.276414 
L 118.029943 199.80864 
L 118.354922 198.47808 
L 119.004881 199.276414 
L 119.329861 199.409468 
L 119.65484 199.80864 
L 120.629779 198.345026 
L 121.279738 198.345026 
L 121.604717 198.611134 
L 121.929697 198.078908 
L 122.254676 197.945854 
L 122.579656 198.345026 
L 122.904636 198.345026 
L 123.229615 197.945854 
L 123.554595 198.47808 
L 123.879574 197.679746 
L 124.204554 198.345026 
L 124.529533 197.679746 
L 124.854513 197.8128 
L 125.179492 197.8128 
L 125.504472 198.345026 
L 126.154431 197.014466 
L 126.47941 197.413628 
L 126.80439 197.413628 
L 127.779328 195.81696 
L 128.104308 196.48224 
L 128.429287 196.349176 
L 128.754267 196.349176 
L 129.079247 196.748348 
L 129.729206 195.15168 
L 130.054185 195.284734 
L 130.704144 195.950014 
L 131.354103 195.550852 
L 131.679083 194.752518 
L 132.004062 195.417788 
L 132.329042 195.550852 
L 132.654021 195.018626 
L 132.979001 193.82112 
L 133.30398 195.15168 
L 133.62896 194.752518 
L 133.953939 195.683906 
L 134.278919 194.752518 
L 134.603898 194.752518 
L 134.928878 194.4864 
L 135.253857 194.752518 
L 135.578837 194.220292 
L 136.228796 195.284734 
L 136.553776 194.4864 
L 137.203735 195.15168 
L 137.528714 193.82112 
L 137.853694 193.555012 
L 138.178673 195.018626 
L 138.503653 193.688066 
L 138.828632 193.555012 
L 139.153612 193.288894 
L 139.478591 193.555012 
L 139.803571 192.889732 
L 140.12855 193.288894 
L 140.45353 193.421958 
L 140.778509 192.49056 
L 141.428468 192.49056 
L 141.753448 192.224452 
L 142.078428 192.224452 
L 142.403407 192.889732 
L 142.728387 193.022786 
L 143.053366 192.357506 
L 143.378346 192.49056 
L 143.703325 192.224452 
L 144.028305 191.559172 
L 144.353284 191.426108 
L 144.678264 192.224452 
L 145.003243 191.16 
L 145.653202 191.692226 
L 145.978182 190.893892 
L 146.303161 191.559172 
L 146.628141 191.692226 
L 146.95312 191.026946 
L 147.2781 190.893892 
L 147.603079 191.293054 
L 147.928059 190.760828 
L 148.253038 190.893892 
L 148.578018 190.627774 
L 148.902998 189.962494 
L 149.227977 191.026946 
L 149.552957 190.893892 
L 149.877936 190.627774 
L 150.202916 191.026946 
L 150.527895 191.16 
L 150.852875 190.095548 
L 151.827813 190.760828 
L 152.477772 190.095548 
L 152.802752 190.49472 
L 153.127731 189.696386 
L 153.452711 189.962494 
L 153.77769 189.031106 
L 154.10267 189.563322 
L 154.427649 189.16416 
L 154.752629 189.16416 
L 155.077609 189.031106 
L 155.402588 188.764988 
L 155.727568 189.82944 
L 156.052547 188.764988 
L 156.377527 188.365816 
L 156.702506 188.764988 
L 157.027486 188.631934 
L 157.352465 188.099708 
L 157.677445 188.232762 
L 158.327404 187.301374 
L 158.652383 188.099708 
L 158.977363 187.700536 
L 159.302342 187.700536 
L 159.627322 187.434428 
L 159.952301 187.434428 
L 160.277281 188.365816 
L 160.60226 187.16832 
L 160.92724 187.567482 
L 161.577199 186.636094 
L 161.902179 187.301374 
L 162.227158 187.16832 
L 162.877117 186.50304 
L 163.202097 186.636094 
L 163.527076 186.902212 
L 163.852056 186.103878 
L 164.177035 186.369986 
L 164.502015 185.83776 
L 164.826994 185.83776 
L 165.476953 185.571652 
L 165.801933 185.17248 
L 166.126912 185.704706 
L 166.451892 186.50304 
L 166.776871 185.305534 
L 167.101851 184.773318 
L 167.42683 185.305534 
L 167.75181 184.374146 
L 168.07679 184.773318 
L 168.401769 183.84192 
L 168.726749 184.241092 
L 169.376708 184.241092 
L 169.701687 183.575812 
L 170.026667 184.5072 
L 170.351646 184.241092 
L 170.676626 184.374146 
L 171.001605 183.974974 
L 171.326585 183.309694 
L 172.301523 183.708866 
L 172.626503 183.17664 
L 172.951482 183.575812 
L 173.276462 183.17664 
L 173.601441 182.51136 
L 173.926421 184.108038 
L 174.2514 182.245252 
L 174.57638 183.309694 
L 174.90136 182.245252 
L 175.226339 182.644414 
L 175.551319 184.640254 
L 175.876298 182.777468 
L 176.526257 183.043586 
L 176.851237 183.442748 
L 177.176216 182.378306 
L 177.501196 182.51136 
L 177.826175 182.378306 
L 178.151155 182.112188 
L 178.801114 182.378306 
L 179.126093 181.446908 
L 179.451073 181.047746 
L 179.776052 181.713026 
L 180.101032 182.112188 
L 180.426011 181.446908 
L 180.750991 181.313854 
L 181.075971 181.84608 
L 181.40095 181.446908 
L 181.72593 181.313854 
L 182.050909 181.84608 
L 182.375889 180.781628 
L 182.700868 181.313854 
L 183.025848 181.446908 
L 183.350827 181.446908 
L 183.675807 181.313854 
L 184.000786 180.781628 
L 184.325766 180.914682 
L 184.650745 180.51552 
L 184.975725 180.781628 
L 185.300704 180.781628 
L 185.625684 180.249402 
L 185.950663 180.382466 
L 186.275643 179.983294 
L 186.600622 179.85024 
L 186.925602 179.983294 
L 187.250581 179.983294 
L 187.575561 180.249402 
L 187.900541 179.051906 
L 188.22552 179.451068 
L 188.5505 178.785788 
L 188.875479 179.717176 
L 189.525438 178.785788 
L 189.850418 178.918852 
L 190.175397 179.318014 
L 190.500377 178.785788 
L 190.825356 179.051906 
L 191.150336 178.386626 
L 191.475315 178.785788 
L 191.800295 178.652734 
L 192.125274 178.652734 
L 192.450254 178.785788 
L 192.775233 177.588292 
L 193.100213 178.652734 
L 193.425192 177.588292 
L 193.750172 178.386626 
L 194.075152 178.652734 
L 194.400131 177.588292 
L 194.725111 179.18496 
L 195.05009 177.455238 
L 195.37507 177.987464 
L 195.700049 177.455238 
L 196.025029 177.588292 
L 196.350008 178.120518 
L 196.674988 177.455238 
L 196.999967 178.918852 
L 197.324947 177.721346 
L 197.649926 177.455238 
L 197.974906 176.656894 
L 198.299885 177.455238 
L 198.624865 177.455238 
L 198.949844 176.923012 
L 199.274824 177.588292 
L 199.599803 176.656894 
L 199.924783 177.588292 
L 200.249762 176.390786 
L 200.574742 176.52384 
L 200.899722 177.18912 
L 201.224701 175.991614 
L 201.549681 176.257732 
L 201.87466 176.124678 
L 202.19964 176.789958 
L 202.524619 176.923012 
L 202.849599 176.923012 
L 203.174578 175.991614 
L 203.824537 176.923012 
L 204.149517 176.52384 
L 204.474496 176.52384 
L 205.124455 175.326334 
L 205.449435 176.124678 
L 205.774414 175.326334 
L 206.424373 175.991614 
L 207.074333 175.060226 
L 207.399312 175.725506 
L 207.724292 175.85856 
L 208.374251 174.794108 
L 209.02421 175.060226 
L 209.349189 175.459398 
L 209.674169 175.459398 
L 209.999148 175.060226 
L 210.324128 175.592452 
L 210.649107 175.459398 
L 210.974087 175.725506 
L 211.299066 175.19328 
L 211.624046 174.927172 
L 211.949025 175.060226 
L 212.274005 175.326334 
L 212.598984 174.528 
L 212.923964 174.528 
L 213.248943 174.927172 
L 213.573923 174.261892 
L 213.898903 174.528 
L 214.223882 173.86272 
L 214.548862 174.261892 
L 214.873841 174.261892 
L 215.198821 174.394936 
L 215.5238 173.596612 
L 216.173759 173.330504 
L 216.498739 173.86272 
L 216.823718 173.19744 
L 217.148698 173.19744 
L 217.473677 173.729656 
L 217.798657 172.798268 
L 218.123636 172.931332 
L 218.448616 172.931332 
L 218.773595 173.19744 
L 219.098575 172.53216 
L 219.423554 172.798268 
L 219.748534 172.53216 
L 220.073514 172.798268 
L 220.398493 172.132988 
L 220.723473 172.399096 
L 221.373432 173.729656 
L 222.023391 172.399096 
L 222.34837 171.999924 
L 222.67335 172.665204 
L 222.998329 171.999924 
L 223.323309 171.999924 
L 223.648288 172.399096 
L 223.973268 171.334654 
L 224.623227 171.86688 
L 224.948206 171.2016 
L 225.273186 171.334654 
L 225.598165 171.2016 
L 225.923145 171.86688 
L 226.248124 171.999924 
L 226.573104 170.935492 
L 226.898084 171.334654 
L 227.223063 170.802428 
L 227.548043 171.334654 
L 227.873022 171.068536 
L 228.198002 171.334654 
L 228.522981 170.935492 
L 228.847961 170.270212 
L 229.49792 170.53632 
L 229.822899 170.403266 
L 230.147879 170.935492 
L 230.472858 170.270212 
L 230.797838 170.935492 
L 231.122817 171.068536 
L 231.772776 169.87104 
L 232.422735 170.270212 
L 232.747715 169.737986 
L 233.397674 169.737986 
L 233.722654 169.87104 
L 234.047633 169.338814 
L 234.372613 169.072706 
L 234.697592 169.20576 
L 235.022572 169.737986 
L 235.347551 168.939642 
L 235.672531 168.673534 
L 235.99751 169.471878 
L 236.32249 168.673534 
L 236.647469 168.673534 
L 236.972449 169.20576 
L 237.622408 169.20576 
L 237.947387 169.604932 
L 238.272367 169.471878 
L 238.597346 168.54049 
L 238.922326 169.471878 
L 239.247305 168.008254 
L 239.572285 168.54049 
L 239.897265 167.609082 
L 240.222244 168.274362 
L 240.872203 167.87521 
L 241.197183 167.20993 
L 241.522162 167.476038 
L 241.847142 167.076866 
L 242.172121 168.008254 
L 242.497101 168.008254 
L 242.82208 168.141318 
L 243.14706 167.20993 
L 243.472039 167.476038 
L 243.797019 168.274362 
L 244.121998 167.342974 
L 244.446978 168.274362 
L 245.096937 166.810758 
L 245.421916 166.943802 
L 245.746896 167.476038 
L 246.071876 167.609082 
L 246.396855 166.677694 
L 246.721835 166.810758 
L 247.371794 167.742146 
L 247.696773 166.810758 
L 248.021753 166.278522 
L 248.671712 167.20993 
L 248.996691 167.342974 
L 249.321671 166.278522 
L 249.97163 167.476038 
L 250.296609 166.810758 
L 250.621589 166.677694 
L 250.946568 167.20993 
L 251.271548 166.012414 
L 251.596527 165.613242 
L 251.921507 166.411586 
L 252.246486 165.87935 
L 252.571466 166.411586 
L 252.896446 166.278522 
L 253.221425 165.746306 
L 254.196364 165.746306 
L 254.521343 165.613242 
L 254.846323 164.814918 
L 255.171302 164.54879 
L 255.821261 164.814918 
L 256.146241 164.149638 
L 256.47122 164.681854 
L 256.7962 164.947962 
L 257.121179 163.617402 
L 257.446159 163.351294 
L 257.771138 163.617402 
L 258.746077 163.21824 
L 259.071057 163.351294 
L 259.396036 162.952122 
L 259.721016 163.351294 
L 260.045995 162.686014 
L 260.370975 163.351294 
L 260.695954 163.085186 
L 261.020934 163.21824 
L 261.345913 164.016574 
L 261.670893 163.085186 
L 261.995872 163.617402 
L 262.645831 163.351294 
L 262.970811 163.351294 
L 263.29579 163.617402 
L 263.62077 162.819068 
L 263.945749 163.88351 
L 264.270729 163.21824 
L 264.595708 162.952122 
L 264.920688 162.952122 
L 265.245667 162.419906 
L 265.570647 162.419906 
L 265.895627 162.819068 
L 266.220606 162.419906 
L 266.545586 162.686014 
L 266.870565 163.351294 
L 267.195545 162.419906 
L 267.520524 162.55296 
L 267.845504 162.819068 
L 268.170483 162.819068 
L 268.495463 163.21824 
L 268.820442 162.819068 
L 269.145422 162.819068 
L 269.470401 162.153788 
L 269.795381 162.419906 
L 270.12036 161.754626 
L 270.44534 161.488508 
L 270.770319 160.956292 
L 271.420278 161.754626 
L 271.745258 161.089346 
L 272.395217 161.355464 
L 272.720197 160.823228 
L 273.045176 162.153788 
L 273.370156 160.424076 
L 273.695135 160.291012 
L 274.020115 161.355464 
L 274.345094 160.424076 
L 274.670074 161.488508 
L 274.995053 160.55712 
L 275.320033 160.157948 
L 275.969992 160.690184 
L 276.294971 159.359624 
L 276.619951 158.56128 
L 276.94493 160.157948 
L 277.26991 159.89184 
L 277.594889 160.424076 
L 277.919869 160.424076 
L 278.244848 160.55712 
L 278.569828 160.424076 
L 279.219787 159.89184 
L 279.544767 159.22656 
L 279.869746 160.024904 
L 280.194726 159.89184 
L 280.519705 159.359624 
L 281.169664 159.758796 
L 281.494644 160.55712 
L 281.819623 160.291012 
L 282.144603 159.625732 
L 282.469582 159.22656 
L 283.119541 158.960452 
L 283.444521 159.758796 
L 283.7695 159.758796 
L 284.09448 158.827388 
L 284.419459 158.827388 
L 284.744439 158.295172 
L 285.069419 159.359624 
L 285.394398 158.694344 
L 285.719378 158.428216 
L 286.044357 158.827388 
L 286.369337 158.029064 
L 286.694316 158.162108 
L 287.019296 157.896 
L 287.344275 157.23072 
L 287.669255 157.896 
L 287.994234 157.23072 
L 288.319214 157.629892 
L 288.644193 157.363784 
L 288.969173 157.363784 
L 289.294152 157.896 
L 289.619132 156.698504 
L 289.944111 158.029064 
L 290.269091 156.56544 
L 290.59407 157.097656 
L 290.91905 156.831548 
L 291.244029 157.629892 
L 291.569009 157.496828 
L 291.893989 157.23072 
L 292.218968 156.432376 
L 292.543948 156.56544 
L 292.868927 157.097656 
L 293.193907 156.432376 
L 293.518886 157.23072 
L 293.843866 156.299332 
L 294.168845 156.299332 
L 294.493825 157.23072 
L 294.818804 156.299332 
L 295.143784 156.432376 
L 295.468763 156.166268 
L 295.793743 156.964612 
L 296.768681 156.166268 
L 297.093661 155.367924 
L 297.74362 156.033204 
L 298.0686 156.033204 
L 298.393579 156.432376 
L 298.718559 155.367924 
L 299.368518 155.367924 
L 299.693497 155.500988 
L 300.018477 155.367924 
L 300.343456 155.101816 
L 300.668436 156.299332 
L 300.993415 155.367924 
L 301.318395 155.90016 
L 301.643374 155.23488 
L 301.968354 154.303492 
L 302.293333 154.968772 
L 302.618313 154.037374 
L 302.943292 154.968772 
L 303.593251 154.702654 
L 304.24321 155.500988 
L 304.56819 155.367924 
L 304.89317 155.500988 
L 305.218149 154.303492 
L 306.193088 154.702654 
L 306.518067 155.23488 
L 306.843047 153.505148 
L 307.168026 155.23488 
L 307.493006 154.303492 
L 307.817985 155.500988 
L 308.142965 153.771266 
L 308.467944 154.170428 
L 308.792924 154.170428 
L 309.117903 153.638212 
L 309.442883 154.037374 
L 309.767862 153.638212 
L 310.417821 154.5696 
L 310.742801 153.372094 
L 311.067781 154.170428 
L 311.39276 153.90432 
L 311.71774 154.5696 
L 312.042719 153.638212 
L 312.367699 154.037374 
L 312.692678 153.505148 
L 313.017658 154.170428 
L 313.667617 153.771266 
L 313.992596 153.105986 
L 314.317576 154.436536 
L 314.967535 153.105986 
L 315.292514 153.23904 
L 315.617494 152.972932 
L 316.267453 153.638212 
L 316.592432 152.972932 
L 316.917412 153.105986 
L 317.567371 152.440706 
L 317.892351 152.839878 
L 318.21733 152.440706 
L 318.54231 152.57376 
L 318.867289 152.440706 
L 319.192269 152.972932 
L 319.517248 152.57376 
L 319.842228 152.972932 
L 320.492187 152.307642 
L 320.817166 152.174598 
L 321.142146 152.839878 
L 321.792105 152.839878 
L 322.117084 151.775426 
L 322.442064 152.57376 
L 322.767043 152.440706 
L 323.092023 152.839878 
L 323.417002 152.57376 
L 323.741982 152.57376 
L 324.066962 151.90849 
L 324.391941 151.775426 
L 324.716921 152.440706 
L 325.0419 151.775426 
L 325.36688 152.839878 
L 325.691859 151.24321 
L 326.016839 152.174598 
L 326.341818 151.24321 
L 326.666798 151.376254 
L 326.991777 151.110146 
L 327.316757 151.24321 
L 327.641736 152.307642 
L 327.966716 151.509318 
L 328.291695 152.041534 
L 328.941654 151.110146 
L 329.266634 152.041534 
L 329.591613 151.775426 
L 329.916593 150.444866 
L 330.241572 151.775426 
L 330.566552 151.775426 
L 330.891532 151.24321 
L 331.216511 150.311802 
L 331.541491 151.376254 
L 331.86647 151.24321 
L 332.19145 150.444866 
L 332.516429 151.24321 
L 332.841409 151.110146 
L 333.166388 150.710974 
L 333.816347 151.509318 
L 334.141327 150.844038 
L 334.466306 150.977082 
L 334.791286 151.509318 
L 335.116265 150.57793 
L 335.441245 151.110146 
L 335.766224 149.646522 
L 336.091204 150.178758 
L 336.416183 149.513478 
L 336.741163 150.178758 
L 337.066143 150.045694 
L 337.391122 150.57793 
L 337.716102 150.57793 
L 338.041081 149.779586 
L 338.366061 150.710974 
L 338.69104 148.049854 
L 339.340999 149.646522 
L 339.665979 148.981242 
L 339.990958 149.380414 
L 340.315938 149.24735 
L 340.640917 149.380414 
L 340.965897 150.178758 
L 341.290876 148.848198 
L 341.615856 149.646522 
L 341.940835 148.981242 
L 342.265815 148.981242 
L 342.590794 149.513478 
L 342.915774 149.24735 
L 343.240753 149.779586 
L 343.565733 148.58207 
L 343.890713 148.715134 
L 344.215692 148.182918 
L 344.865651 149.114306 
L 345.190631 149.513478 
L 345.51561 148.449026 
L 345.84059 149.114306 
L 346.165569 149.24735 
L 346.490549 148.449026 
L 346.815528 149.380414 
L 347.140508 148.715134 
L 347.465487 148.449026 
L 347.790467 148.58207 
L 348.115446 148.182918 
L 348.440426 148.848198 
L 348.765405 149.24735 
L 349.090385 148.848198 
L 349.415364 148.848198 
L 349.740344 148.58207 
L 350.065324 148.981242 
L 350.390303 147.783746 
L 350.715283 148.315962 
L 351.040262 147.783746 
L 351.365242 147.650682 
L 352.015201 148.182918 
L 352.34018 148.182918 
L 352.66516 148.049854 
L 352.990139 147.783746 
L 353.315119 147.118466 
L 353.640098 147.91679 
L 353.965078 147.517638 
L 354.290057 147.783746 
L 354.615037 147.517638 
L 354.940016 148.049854 
L 355.264996 148.315962 
L 355.589975 148.315962 
L 355.914955 147.118466 
L 356.239934 147.783746 
L 356.564914 147.384574 
L 356.889894 148.049854 
L 357.214873 146.719294 
L 357.864832 146.719294 
L 358.189812 147.25151 
L 358.514791 146.852358 
L 358.839771 147.25151 
L 359.16475 145.92096 
L 359.48973 146.58624 
L 359.814709 146.852358 
L 360.139689 147.384574 
L 360.464668 147.384574 
L 361.114627 146.187068 
L 361.439607 146.719294 
L 361.764586 146.054014 
L 362.089566 146.985402 
L 362.414545 146.320122 
L 362.739525 146.719294 
L 363.064505 146.320122 
L 363.389484 147.650682 
L 363.714464 147.118466 
L 364.039443 147.650682 
L 364.364423 147.517638 
L 364.689402 147.517638 
L 365.664341 146.453186 
L 366.3143 146.453186 
L 366.639279 146.985402 
L 367.289238 146.320122 
L 367.614218 147.650682 
L 367.939197 147.118466 
L 368.264177 146.187068 
L 368.589156 146.58624 
L 368.914136 146.054014 
L 369.239115 146.187068 
L 369.564095 145.92096 
L 369.889075 145.388734 
L 370.214054 146.187068 
L 370.539034 145.654852 
L 370.864013 146.852358 
L 371.188993 145.25568 
L 371.513972 146.58624 
L 371.838952 147.384574 
L 372.163931 146.58624 
L 373.13887 145.92096 
L 373.463849 146.719294 
L 373.788829 146.187068 
L 374.113808 145.122626 
L 374.438788 145.787906 
L 374.763767 146.719294 
L 375.088747 146.320122 
L 375.738706 146.852358 
L 376.063686 145.787906 
L 376.388665 145.388734 
L 376.713645 146.453186 
L 377.363604 145.654852 
L 377.688583 145.521788 
L 378.013563 146.187068 
L 378.338542 145.521788 
L 378.663522 146.320122 
L 378.988501 145.92096 
L 379.313481 144.856508 
L 379.63846 145.654852 
L 379.96344 145.521788 
L 380.288419 145.25568 
L 380.613399 146.054014 
L 381.263358 145.654852 
L 381.588337 144.989572 
L 381.913317 145.92096 
L 382.238296 144.457346 
L 382.563276 144.856508 
L 382.888256 144.856508 
L 383.213235 144.5904 
L 383.538215 145.122626 
L 383.863194 144.989572 
L 384.188174 145.787906 
L 384.513153 144.723464 
L 384.838133 144.723464 
L 385.163112 145.787906 
L 385.488092 144.5904 
L 385.813071 144.058184 
L 386.138051 144.856508 
L 386.46303 144.856508 
L 387.112989 144.058184 
L 388.087928 144.723464 
L 388.737887 143.525948 
L 389.062867 144.989572 
L 389.387846 144.058184 
L 389.712826 145.122626 
L 390.037805 144.457346 
L 390.362785 144.191228 
L 390.687764 143.659012 
L 391.012744 144.191228 
L 391.337723 142.993732 
L 391.987682 144.723464 
L 392.312662 143.659012 
L 392.637641 143.92512 
L 392.962621 143.25984 
L 393.2876 144.5904 
L 393.61258 143.392904 
L 393.937559 142.993732 
L 394.262539 144.191228 
L 394.587518 143.392904 
L 394.912498 143.659012 
L 395.237477 142.993732 
L 395.562457 143.792076 
L 395.887437 143.126796 
L 396.212416 144.856508 
L 396.537396 143.25984 
L 396.862375 143.92512 
L 397.187355 144.324292 
L 397.512334 143.525948 
L 397.837314 143.525948 
L 398.162293 143.126796 
L 398.487273 143.525948 
L 398.487273 143.525948 
" style="fill:none;stroke:#2ca02c;stroke-linecap:square;stroke-width:1.5;"/>
   </g>
   <g id="patch_3">
    <path d="M 57.6 307.584 
L 57.6 41.472 
" style="fill:none;stroke:#000000;stroke-linecap:square;stroke-linejoin:miter;stroke-width:0.8;"/>
   </g>
   <g id="patch_4">
    <path d="M 414.72 307.584 
L 414.72 41.472 
" style="fill:none;stroke:#000000;stroke-linecap:square;stroke-linejoin:miter;stroke-width:0.8;"/>
   </g>
   <g id="patch_5">
    <path d="M 57.6 307.584 
L 414.72 307.584 
" style="fill:none;stroke:#000000;stroke-linecap:square;stroke-linejoin:miter;stroke-width:0.8;"/>
   </g>
   <g id="patch_6">
    <path d="M 57.6 41.472 
L 414.72 41.472 
" style="fill:none;stroke:#000000;stroke-linecap:square;stroke-linejoin:miter;stroke-width:0.8;"/>
   </g>
   <g id="legend_1">
    <g id="patch_7">
     <path d="M 64.6 93.506375 
L 209.6375 93.506375 
Q 211.6375 93.506375 211.6375 91.506375 
L 211.6375 48.472 
Q 211.6375 46.472 209.6375 46.472 
L 64.6 46.472 
Q 62.6 46.472 62.6 48.472 
L 62.6 91.506375 
Q 62.6 93.506375 64.6 93.506375 
z
" style="fill:#ffffff;opacity:0.8;stroke:#cccccc;stroke-linejoin:miter;"/>
    </g>
    <g id="line2d_15">
     <path d="M 66.6 54.570438 
L 86.6 54.570438 
" style="fill:none;stroke:#1f77b4;stroke-linecap:square;stroke-width:1.5;"/>
    </g>
    <g id="line2d_16"/>
    <g id="text_14">
     <!-- e-greedy (epsilon 0.10 -->
     <defs>
      <path d="M 4.890625 31.390625 
L 31.203125 31.390625 
L 31.203125 23.390625 
L 4.890625 23.390625 
z
" id="DejaVuSans-2d"/>
      <path d="M 45.40625 27.984375 
Q 45.40625 37.75 41.375 43.109375 
Q 37.359375 48.484375 30.078125 48.484375 
Q 22.859375 48.484375 18.828125 43.109375 
Q 14.796875 37.75 14.796875 27.984375 
Q 14.796875 18.265625 18.828125 12.890625 
Q 22.859375 7.515625 30.078125 7.515625 
Q 37.359375 7.515625 41.375 12.890625 
Q 45.40625 18.265625 45.40625 27.984375 
z
M 54.390625 6.78125 
Q 54.390625 -7.171875 48.1875 -13.984375 
Q 42 -20.796875 29.203125 -20.796875 
Q 24.46875 -20.796875 20.265625 -20.09375 
Q 16.0625 -19.390625 12.109375 -17.921875 
L 12.109375 -9.1875 
Q 16.0625 -11.328125 19.921875 -12.34375 
Q 23.78125 -13.375 27.78125 -13.375 
Q 36.625 -13.375 41.015625 -8.765625 
Q 45.40625 -4.15625 45.40625 5.171875 
L 45.40625 9.625 
Q 42.625 4.78125 38.28125 2.390625 
Q 33.9375 0 27.875 0 
Q 17.828125 0 11.671875 7.65625 
Q 5.515625 15.328125 5.515625 27.984375 
Q 5.515625 40.671875 11.671875 48.328125 
Q 17.828125 56 27.875 56 
Q 33.9375 56 38.28125 53.609375 
Q 42.625 51.21875 45.40625 46.390625 
L 45.40625 54.6875 
L 54.390625 54.6875 
z
" id="DejaVuSans-67"/>
      <path d="M 41.109375 46.296875 
Q 39.59375 47.171875 37.8125 47.578125 
Q 36.03125 48 33.890625 48 
Q 26.265625 48 22.1875 43.046875 
Q 18.109375 38.09375 18.109375 28.8125 
L 18.109375 0 
L 9.078125 0 
L 9.078125 54.6875 
L 18.109375 54.6875 
L 18.109375 46.1875 
Q 20.953125 51.171875 25.484375 53.578125 
Q 30.03125 56 36.53125 56 
Q 37.453125 56 38.578125 55.875 
Q 39.703125 55.765625 41.0625 55.515625 
z
" id="DejaVuSans-72"/>
      <path d="M 45.40625 46.390625 
L 45.40625 75.984375 
L 54.390625 75.984375 
L 54.390625 0 
L 45.40625 0 
L 45.40625 8.203125 
Q 42.578125 3.328125 38.25 0.953125 
Q 33.9375 -1.421875 27.875 -1.421875 
Q 17.96875 -1.421875 11.734375 6.484375 
Q 5.515625 14.40625 5.515625 27.296875 
Q 5.515625 40.1875 11.734375 48.09375 
Q 17.96875 56 27.875 56 
Q 33.9375 56 38.25 53.625 
Q 42.578125 51.265625 45.40625 46.390625 
z
M 14.796875 27.296875 
Q 14.796875 17.390625 18.875 11.75 
Q 22.953125 6.109375 30.078125 6.109375 
Q 37.203125 6.109375 41.296875 11.75 
Q 45.40625 17.390625 45.40625 27.296875 
Q 45.40625 37.203125 41.296875 42.84375 
Q 37.203125 48.484375 30.078125 48.484375 
Q 22.953125 48.484375 18.875 42.84375 
Q 14.796875 37.203125 14.796875 27.296875 
z
" id="DejaVuSans-64"/>
      <path d="M 32.171875 -5.078125 
Q 28.375 -14.84375 24.75 -17.8125 
Q 21.140625 -20.796875 15.09375 -20.796875 
L 7.90625 -20.796875 
L 7.90625 -13.28125 
L 13.1875 -13.28125 
Q 16.890625 -13.28125 18.9375 -11.515625 
Q 21 -9.765625 23.484375 -3.21875 
L 25.09375 0.875 
L 2.984375 54.6875 
L 12.5 54.6875 
L 29.59375 11.921875 
L 46.6875 54.6875 
L 56.203125 54.6875 
z
" id="DejaVuSans-79"/>
      <path d="M 10.6875 12.40625 
L 21 12.40625 
L 21 0 
L 10.6875 0 
z
" id="DejaVuSans-2e"/>
     </defs>
     <g transform="translate(94.6 58.070438)scale(0.1 -0.1)">
      <use xlink:href="#DejaVuSans-65"/>
      <use x="61.523438" xlink:href="#DejaVuSans-2d"/>
      <use x="97.607422" xlink:href="#DejaVuSans-67"/>
      <use x="161.083984" xlink:href="#DejaVuSans-72"/>
      <use x="202.166016" xlink:href="#DejaVuSans-65"/>
      <use x="263.689453" xlink:href="#DejaVuSans-65"/>
      <use x="325.212891" xlink:href="#DejaVuSans-64"/>
      <use x="388.689453" xlink:href="#DejaVuSans-79"/>
      <use x="447.869141" xlink:href="#DejaVuSans-20"/>
      <use x="479.65625" xlink:href="#DejaVuSans-28"/>
      <use x="518.669922" xlink:href="#DejaVuSans-65"/>
      <use x="580.193359" xlink:href="#DejaVuSans-70"/>
      <use x="643.669922" xlink:href="#DejaVuSans-73"/>
      <use x="695.769531" xlink:href="#DejaVuSans-69"/>
      <use x="723.552734" xlink:href="#DejaVuSans-6c"/>
      <use x="751.335938" xlink:href="#DejaVuSans-6f"/>
      <use x="812.517578" xlink:href="#DejaVuSans-6e"/>
      <use x="875.896484" xlink:href="#DejaVuSans-20"/>
      <use x="907.683594" xlink:href="#DejaVuSans-30"/>
      <use x="971.306641" xlink:href="#DejaVuSans-2e"/>
      <use x="1003.09375" xlink:href="#DejaVuSans-31"/>
      <use x="1066.716797" xlink:href="#DejaVuSans-30"/>
     </g>
    </g>
    <g id="line2d_17">
     <path d="M 66.6 69.248563 
L 86.6 69.248563 
" style="fill:none;stroke:#ff7f0e;stroke-linecap:square;stroke-width:1.5;"/>
    </g>
    <g id="line2d_18"/>
    <g id="text_15">
     <!-- e-greedy (epsilon 0.00 -->
     <g transform="translate(94.6 72.748563)scale(0.1 -0.1)">
      <use xlink:href="#DejaVuSans-65"/>
      <use x="61.523438" xlink:href="#DejaVuSans-2d"/>
      <use x="97.607422" xlink:href="#DejaVuSans-67"/>
      <use x="161.083984" xlink:href="#DejaVuSans-72"/>
      <use x="202.166016" xlink:href="#DejaVuSans-65"/>
      <use x="263.689453" xlink:href="#DejaVuSans-65"/>
      <use x="325.212891" xlink:href="#DejaVuSans-64"/>
      <use x="388.689453" xlink:href="#DejaVuSans-79"/>
      <use x="447.869141" xlink:href="#DejaVuSans-20"/>
      <use x="479.65625" xlink:href="#DejaVuSans-28"/>
      <use x="518.669922" xlink:href="#DejaVuSans-65"/>
      <use x="580.193359" xlink:href="#DejaVuSans-70"/>
      <use x="643.669922" xlink:href="#DejaVuSans-73"/>
      <use x="695.769531" xlink:href="#DejaVuSans-69"/>
      <use x="723.552734" xlink:href="#DejaVuSans-6c"/>
      <use x="751.335938" xlink:href="#DejaVuSans-6f"/>
      <use x="812.517578" xlink:href="#DejaVuSans-6e"/>
      <use x="875.896484" xlink:href="#DejaVuSans-20"/>
      <use x="907.683594" xlink:href="#DejaVuSans-30"/>
      <use x="971.306641" xlink:href="#DejaVuSans-2e"/>
      <use x="1003.09375" xlink:href="#DejaVuSans-30"/>
      <use x="1066.716797" xlink:href="#DejaVuSans-30"/>
     </g>
    </g>
    <g id="line2d_19">
     <path d="M 66.6 83.926688 
L 86.6 83.926688 
" style="fill:none;stroke:#2ca02c;stroke-linecap:square;stroke-width:1.5;"/>
    </g>
    <g id="line2d_20"/>
    <g id="text_16">
     <!-- e-greedy (epsilon 0.01 -->
     <g transform="translate(94.6 87.426688)scale(0.1 -0.1)">
      <use xlink:href="#DejaVuSans-65"/>
      <use x="61.523438" xlink:href="#DejaVuSans-2d"/>
      <use x="97.607422" xlink:href="#DejaVuSans-67"/>
      <use x="161.083984" xlink:href="#DejaVuSans-72"/>
      <use x="202.166016" xlink:href="#DejaVuSans-65"/>
      <use x="263.689453" xlink:href="#DejaVuSans-65"/>
      <use x="325.212891" xlink:href="#DejaVuSans-64"/>
      <use x="388.689453" xlink:href="#DejaVuSans-79"/>
      <use x="447.869141" xlink:href="#DejaVuSans-20"/>
      <use x="479.65625" xlink:href="#DejaVuSans-28"/>
      <use x="518.669922" xlink:href="#DejaVuSans-65"/>
      <use x="580.193359" xlink:href="#DejaVuSans-70"/>
      <use x="643.669922" xlink:href="#DejaVuSans-73"/>
      <use x="695.769531" xlink:href="#DejaVuSans-69"/>
      <use x="723.552734" xlink:href="#DejaVuSans-6c"/>
      <use x="751.335938" xlink:href="#DejaVuSans-6f"/>
      <use x="812.517578" xlink:href="#DejaVuSans-6e"/>
      <use x="875.896484" xlink:href="#DejaVuSans-20"/>
      <use x="907.683594" xlink:href="#DejaVuSans-30"/>
      <use x="971.306641" xlink:href="#DejaVuSans-2e"/>
      <use x="1003.09375" xlink:href="#DejaVuSans-30"/>
      <use x="1066.716797" xlink:href="#DejaVuSans-31"/>
     </g>
    </g>
   </g>
  </g>
 </g>
 <defs>
  <clipPath id="p46c985fb3a">
   <rect height="266.112" width="357.12" x="57.6" y="41.472"/>
  </clipPath>
 </defs>
</svg>
