<?xml version="1.0" encoding="utf-8" standalone="no"?>
<!DOCTYPE svg PUBLIC "-//W3C//DTD SVG 1.1//EN"
  "http://www.w3.org/Graphics/SVG/1.1/DTD/svg11.dtd">
<!-- Created with matplotlib (http://matplotlib.org/) -->
<svg height="345.6pt" version="1.1" viewBox="0 0 460.8 345.6" width="460.8pt" xmlns="http://www.w3.org/2000/svg" xmlns:xlink="http://www.w3.org/1999/xlink">
 <defs>
  <style type="text/css">
*{stroke-linecap:butt;stroke-linejoin:round;}
  </style>
 </defs>
 <g id="figure_1">
  <g id="patch_1">
   <path d="M 0 345.6 
L 460.8 345.6 
L 460.8 0 
L 0 0 
z
" style="fill:#ffffff;"/>
  </g>
  <g id="axes_1">
   <g id="patch_2">
    <path d="M 57.6 307.584 
L 414.72 307.584 
L 414.72 41.472 
L 57.6 41.472 
z
" style="fill:#ffffff;"/>
   </g>
   <g id="matplotlib.axis_1">
    <g id="xtick_1">
     <g id="line2d_1">
      <defs>
       <path d="M 0 0 
L 0 3.5 
" id="mb7a1b2cd71" style="stroke:#000000;stroke-width:0.8;"/>
      </defs>
      <g>
       <use style="stroke:#000000;stroke-width:0.8;" x="73.832727" xlink:href="#mb7a1b2cd71" y="307.584"/>
      </g>
     </g>
     <g id="text_1">
      <!-- 0 -->
      <defs>
       <path d="M 31.78125 66.40625 
Q 24.171875 66.40625 20.328125 58.90625 
Q 16.5 51.421875 16.5 36.375 
Q 16.5 21.390625 20.328125 13.890625 
Q 24.171875 6.390625 31.78125 6.390625 
Q 39.453125 6.390625 43.28125 13.890625 
Q 47.125 21.390625 47.125 36.375 
Q 47.125 51.421875 43.28125 58.90625 
Q 39.453125 66.40625 31.78125 66.40625 
z
M 31.78125 74.21875 
Q 44.046875 74.21875 50.515625 64.515625 
Q 56.984375 54.828125 56.984375 36.375 
Q 56.984375 17.96875 50.515625 8.265625 
Q 44.046875 -1.421875 31.78125 -1.421875 
Q 19.53125 -1.421875 13.0625 8.265625 
Q 6.59375 17.96875 6.59375 36.375 
Q 6.59375 54.828125 13.0625 64.515625 
Q 19.53125 74.21875 31.78125 74.21875 
z
" id="DejaVuSans-30"/>
      </defs>
      <g transform="translate(70.651477 322.182437)scale(0.1 -0.1)">
       <use xlink:href="#DejaVuSans-30"/>
      </g>
     </g>
    </g>
    <g id="xtick_2">
     <g id="line2d_2">
      <g>
       <use style="stroke:#000000;stroke-width:0.8;" x="155.077609" xlink:href="#mb7a1b2cd71" y="307.584"/>
      </g>
     </g>
     <g id="text_2">
      <!-- 250 -->
      <defs>
       <path d="M 19.1875 8.296875 
L 53.609375 8.296875 
L 53.609375 0 
L 7.328125 0 
L 7.328125 8.296875 
Q 12.9375 14.109375 22.625 23.890625 
Q 32.328125 33.6875 34.8125 36.53125 
Q 39.546875 41.84375 41.421875 45.53125 
Q 43.3125 49.21875 43.3125 52.78125 
Q 43.3125 58.59375 39.234375 62.25 
Q 35.15625 65.921875 28.609375 65.921875 
Q 23.96875 65.921875 18.8125 64.3125 
Q 13.671875 62.703125 7.8125 59.421875 
L 7.8125 69.390625 
Q 13.765625 71.78125 18.9375 73 
Q 24.125 74.21875 28.421875 74.21875 
Q 39.75 74.21875 46.484375 68.546875 
Q 53.21875 62.890625 53.21875 53.421875 
Q 53.21875 48.921875 51.53125 44.890625 
Q 49.859375 40.875 45.40625 35.40625 
Q 44.1875 33.984375 37.640625 27.21875 
Q 31.109375 20.453125 19.1875 8.296875 
z
" id="DejaVuSans-32"/>
       <path d="M 10.796875 72.90625 
L 49.515625 72.90625 
L 49.515625 64.59375 
L 19.828125 64.59375 
L 19.828125 46.734375 
Q 21.96875 47.46875 24.109375 47.828125 
Q 26.265625 48.1875 28.421875 48.1875 
Q 40.625 48.1875 47.75 41.5 
Q 54.890625 34.8125 54.890625 23.390625 
Q 54.890625 11.625 47.5625 5.09375 
Q 40.234375 -1.421875 26.90625 -1.421875 
Q 22.3125 -1.421875 17.546875 -0.640625 
Q 12.796875 0.140625 7.71875 1.703125 
L 7.71875 11.625 
Q 12.109375 9.234375 16.796875 8.0625 
Q 21.484375 6.890625 26.703125 6.890625 
Q 35.15625 6.890625 40.078125 11.328125 
Q 45.015625 15.765625 45.015625 23.390625 
Q 45.015625 31 40.078125 35.4375 
Q 35.15625 39.890625 26.703125 39.890625 
Q 22.75 39.890625 18.8125 39.015625 
Q 14.890625 38.140625 10.796875 36.28125 
z
" id="DejaVuSans-35"/>
      </defs>
      <g transform="translate(145.533859 322.182437)scale(0.1 -0.1)">
       <use xlink:href="#DejaVuSans-32"/>
       <use x="63.623047" xlink:href="#DejaVuSans-35"/>
       <use x="127.246094" xlink:href="#DejaVuSans-30"/>
      </g>
     </g>
    </g>
    <g id="xtick_3">
     <g id="line2d_3">
      <g>
       <use style="stroke:#000000;stroke-width:0.8;" x="236.32249" xlink:href="#mb7a1b2cd71" y="307.584"/>
      </g>
     </g>
     <g id="text_3">
      <!-- 500 -->
      <g transform="translate(226.77874 322.182437)scale(0.1 -0.1)">
       <use xlink:href="#DejaVuSans-35"/>
       <use x="63.623047" xlink:href="#DejaVuSans-30"/>
       <use x="127.246094" xlink:href="#DejaVuSans-30"/>
      </g>
     </g>
    </g>
    <g id="xtick_4">
     <g id="line2d_4">
      <g>
       <use style="stroke:#000000;stroke-width:0.8;" x="317.567371" xlink:href="#mb7a1b2cd71" y="307.584"/>
      </g>
     </g>
     <g id="text_4">
      <!-- 750 -->
      <defs>
       <path d="M 8.203125 72.90625 
L 55.078125 72.90625 
L 55.078125 68.703125 
L 28.609375 0 
L 18.3125 0 
L 43.21875 64.59375 
L 8.203125 64.59375 
z
" id="DejaVuSans-37"/>
      </defs>
      <g transform="translate(308.023621 322.182437)scale(0.1 -0.1)">
       <use xlink:href="#DejaVuSans-37"/>
       <use x="63.623047" xlink:href="#DejaVuSans-35"/>
       <use x="127.246094" xlink:href="#DejaVuSans-30"/>
      </g>
     </g>
    </g>
    <g id="xtick_5">
     <g id="line2d_5">
      <g>
       <use style="stroke:#000000;stroke-width:0.8;" x="398.812252" xlink:href="#mb7a1b2cd71" y="307.584"/>
      </g>
     </g>
     <g id="text_5">
      <!-- 1000 -->
      <defs>
       <path d="M 12.40625 8.296875 
L 28.515625 8.296875 
L 28.515625 63.921875 
L 10.984375 60.40625 
L 10.984375 69.390625 
L 28.421875 72.90625 
L 38.28125 72.90625 
L 38.28125 8.296875 
L 54.390625 8.296875 
L 54.390625 0 
L 12.40625 0 
z
" id="DejaVuSans-31"/>
      </defs>
      <g transform="translate(386.087252 322.182437)scale(0.1 -0.1)">
       <use xlink:href="#DejaVuSans-31"/>
       <use x="63.623047" xlink:href="#DejaVuSans-30"/>
       <use x="127.246094" xlink:href="#DejaVuSans-30"/>
       <use x="190.869141" xlink:href="#DejaVuSans-30"/>
      </g>
     </g>
    </g>
    <g id="text_6">
     <!-- Steps -->
     <defs>
      <path d="M 53.515625 70.515625 
L 53.515625 60.890625 
Q 47.90625 63.578125 42.921875 64.890625 
Q 37.9375 66.21875 33.296875 66.21875 
Q 25.25 66.21875 20.875 63.09375 
Q 16.5 59.96875 16.5 54.203125 
Q 16.5 49.359375 19.40625 46.890625 
Q 22.3125 44.4375 30.421875 42.921875 
L 36.375 41.703125 
Q 47.40625 39.59375 52.65625 34.296875 
Q 57.90625 29 57.90625 20.125 
Q 57.90625 9.515625 50.796875 4.046875 
Q 43.703125 -1.421875 29.984375 -1.421875 
Q 24.8125 -1.421875 18.96875 -0.25 
Q 13.140625 0.921875 6.890625 3.21875 
L 6.890625 13.375 
Q 12.890625 10.015625 18.65625 8.296875 
Q 24.421875 6.59375 29.984375 6.59375 
Q 38.421875 6.59375 43.015625 9.90625 
Q 47.609375 13.234375 47.609375 19.390625 
Q 47.609375 24.75 44.3125 27.78125 
Q 41.015625 30.8125 33.5 32.328125 
L 27.484375 33.5 
Q 16.453125 35.6875 11.515625 40.375 
Q 6.59375 45.0625 6.59375 53.421875 
Q 6.59375 63.09375 13.40625 68.65625 
Q 20.21875 74.21875 32.171875 74.21875 
Q 37.3125 74.21875 42.625 73.28125 
Q 47.953125 72.359375 53.515625 70.515625 
z
" id="DejaVuSans-53"/>
      <path d="M 18.3125 70.21875 
L 18.3125 54.6875 
L 36.8125 54.6875 
L 36.8125 47.703125 
L 18.3125 47.703125 
L 18.3125 18.015625 
Q 18.3125 11.328125 20.140625 9.421875 
Q 21.96875 7.515625 27.59375 7.515625 
L 36.8125 7.515625 
L 36.8125 0 
L 27.59375 0 
Q 17.1875 0 13.234375 3.875 
Q 9.28125 7.765625 9.28125 18.015625 
L 9.28125 47.703125 
L 2.6875 47.703125 
L 2.6875 54.6875 
L 9.28125 54.6875 
L 9.28125 70.21875 
z
" id="DejaVuSans-74"/>
      <path d="M 56.203125 29.59375 
L 56.203125 25.203125 
L 14.890625 25.203125 
Q 15.484375 15.921875 20.484375 11.0625 
Q 25.484375 6.203125 34.421875 6.203125 
Q 39.59375 6.203125 44.453125 7.46875 
Q 49.3125 8.734375 54.109375 11.28125 
L 54.109375 2.78125 
Q 49.265625 0.734375 44.1875 -0.34375 
Q 39.109375 -1.421875 33.890625 -1.421875 
Q 20.796875 -1.421875 13.15625 6.1875 
Q 5.515625 13.8125 5.515625 26.8125 
Q 5.515625 40.234375 12.765625 48.109375 
Q 20.015625 56 32.328125 56 
Q 43.359375 56 49.78125 48.890625 
Q 56.203125 41.796875 56.203125 29.59375 
z
M 47.21875 32.234375 
Q 47.125 39.59375 43.09375 43.984375 
Q 39.0625 48.390625 32.421875 48.390625 
Q 24.90625 48.390625 20.390625 44.140625 
Q 15.875 39.890625 15.1875 32.171875 
z
" id="DejaVuSans-65"/>
      <path d="M 18.109375 8.203125 
L 18.109375 -20.796875 
L 9.078125 -20.796875 
L 9.078125 54.6875 
L 18.109375 54.6875 
L 18.109375 46.390625 
Q 20.953125 51.265625 25.265625 53.625 
Q 29.59375 56 35.59375 56 
Q 45.5625 56 51.78125 48.09375 
Q 58.015625 40.1875 58.015625 27.296875 
Q 58.015625 14.40625 51.78125 6.484375 
Q 45.5625 -1.421875 35.59375 -1.421875 
Q 29.59375 -1.421875 25.265625 0.953125 
Q 20.953125 3.328125 18.109375 8.203125 
z
M 48.6875 27.296875 
Q 48.6875 37.203125 44.609375 42.84375 
Q 40.53125 48.484375 33.40625 48.484375 
Q 26.265625 48.484375 22.1875 42.84375 
Q 18.109375 37.203125 18.109375 27.296875 
Q 18.109375 17.390625 22.1875 11.75 
Q 26.265625 6.109375 33.40625 6.109375 
Q 40.53125 6.109375 44.609375 11.75 
Q 48.6875 17.390625 48.6875 27.296875 
z
" id="DejaVuSans-70"/>
      <path d="M 44.28125 53.078125 
L 44.28125 44.578125 
Q 40.484375 46.53125 36.375 47.5 
Q 32.28125 48.484375 27.875 48.484375 
Q 21.1875 48.484375 17.84375 46.4375 
Q 14.5 44.390625 14.5 40.28125 
Q 14.5 37.15625 16.890625 35.375 
Q 19.28125 33.59375 26.515625 31.984375 
L 29.59375 31.296875 
Q 39.15625 29.25 43.1875 25.515625 
Q 47.21875 21.78125 47.21875 15.09375 
Q 47.21875 7.46875 41.1875 3.015625 
Q 35.15625 -1.421875 24.609375 -1.421875 
Q 20.21875 -1.421875 15.453125 -0.5625 
Q 10.6875 0.296875 5.421875 2 
L 5.421875 11.28125 
Q 10.40625 8.6875 15.234375 7.390625 
Q 20.0625 6.109375 24.8125 6.109375 
Q 31.15625 6.109375 34.5625 8.28125 
Q 37.984375 10.453125 37.984375 14.40625 
Q 37.984375 18.0625 35.515625 20.015625 
Q 33.0625 21.96875 24.703125 23.78125 
L 21.578125 24.515625 
Q 13.234375 26.265625 9.515625 29.90625 
Q 5.8125 33.546875 5.8125 39.890625 
Q 5.8125 47.609375 11.28125 51.796875 
Q 16.75 56 26.8125 56 
Q 31.78125 56 36.171875 55.265625 
Q 40.578125 54.546875 44.28125 53.078125 
z
" id="DejaVuSans-73"/>
     </defs>
     <g transform="translate(222.170156 335.860562)scale(0.1 -0.1)">
      <use xlink:href="#DejaVuSans-53"/>
      <use x="63.476562" xlink:href="#DejaVuSans-74"/>
      <use x="102.685547" xlink:href="#DejaVuSans-65"/>
      <use x="164.208984" xlink:href="#DejaVuSans-70"/>
      <use x="227.685547" xlink:href="#DejaVuSans-73"/>
     </g>
    </g>
   </g>
   <g id="matplotlib.axis_2">
    <g id="ytick_1">
     <g id="line2d_6">
      <defs>
       <path d="M 0 0 
L -3.5 0 
" id="m9d2ba6cc49" style="stroke:#000000;stroke-width:0.8;"/>
      </defs>
      <g>
       <use style="stroke:#000000;stroke-width:0.8;" x="57.6" xlink:href="#m9d2ba6cc49" y="307.584"/>
      </g>
     </g>
     <g id="text_7">
      <!-- 0 -->
      <g transform="translate(44.2375 311.383219)scale(0.1 -0.1)">
       <use xlink:href="#DejaVuSans-30"/>
      </g>
     </g>
    </g>
    <g id="ytick_2">
     <g id="line2d_7">
      <g>
       <use style="stroke:#000000;stroke-width:0.8;" x="57.6" xlink:href="#m9d2ba6cc49" y="254.3616"/>
      </g>
     </g>
     <g id="text_8">
      <!-- 20 -->
      <g transform="translate(37.875 258.160819)scale(0.1 -0.1)">
       <use xlink:href="#DejaVuSans-32"/>
       <use x="63.623047" xlink:href="#DejaVuSans-30"/>
      </g>
     </g>
    </g>
    <g id="ytick_3">
     <g id="line2d_8">
      <g>
       <use style="stroke:#000000;stroke-width:0.8;" x="57.6" xlink:href="#m9d2ba6cc49" y="201.1392"/>
      </g>
     </g>
     <g id="text_9">
      <!-- 40 -->
      <defs>
       <path d="M 37.796875 64.3125 
L 12.890625 25.390625 
L 37.796875 25.390625 
z
M 35.203125 72.90625 
L 47.609375 72.90625 
L 47.609375 25.390625 
L 58.015625 25.390625 
L 58.015625 17.1875 
L 47.609375 17.1875 
L 47.609375 0 
L 37.796875 0 
L 37.796875 17.1875 
L 4.890625 17.1875 
L 4.890625 26.703125 
z
" id="DejaVuSans-34"/>
      </defs>
      <g transform="translate(37.875 204.938419)scale(0.1 -0.1)">
       <use xlink:href="#DejaVuSans-34"/>
       <use x="63.623047" xlink:href="#DejaVuSans-30"/>
      </g>
     </g>
    </g>
    <g id="ytick_4">
     <g id="line2d_9">
      <g>
       <use style="stroke:#000000;stroke-width:0.8;" x="57.6" xlink:href="#m9d2ba6cc49" y="147.9168"/>
      </g>
     </g>
     <g id="text_10">
      <!-- 60 -->
      <defs>
       <path d="M 33.015625 40.375 
Q 26.375 40.375 22.484375 35.828125 
Q 18.609375 31.296875 18.609375 23.390625 
Q 18.609375 15.53125 22.484375 10.953125 
Q 26.375 6.390625 33.015625 6.390625 
Q 39.65625 6.390625 43.53125 10.953125 
Q 47.40625 15.53125 47.40625 23.390625 
Q 47.40625 31.296875 43.53125 35.828125 
Q 39.65625 40.375 33.015625 40.375 
z
M 52.59375 71.296875 
L 52.59375 62.3125 
Q 48.875 64.0625 45.09375 64.984375 
Q 41.3125 65.921875 37.59375 65.921875 
Q 27.828125 65.921875 22.671875 59.328125 
Q 17.53125 52.734375 16.796875 39.40625 
Q 19.671875 43.65625 24.015625 45.921875 
Q 28.375 48.1875 33.59375 48.1875 
Q 44.578125 48.1875 50.953125 41.515625 
Q 57.328125 34.859375 57.328125 23.390625 
Q 57.328125 12.15625 50.6875 5.359375 
Q 44.046875 -1.421875 33.015625 -1.421875 
Q 20.359375 -1.421875 13.671875 8.265625 
Q 6.984375 17.96875 6.984375 36.375 
Q 6.984375 53.65625 15.1875 63.9375 
Q 23.390625 74.21875 37.203125 74.21875 
Q 40.921875 74.21875 44.703125 73.484375 
Q 48.484375 72.75 52.59375 71.296875 
z
" id="DejaVuSans-36"/>
      </defs>
      <g transform="translate(37.875 151.716019)scale(0.1 -0.1)">
       <use xlink:href="#DejaVuSans-36"/>
       <use x="63.623047" xlink:href="#DejaVuSans-30"/>
      </g>
     </g>
    </g>
    <g id="ytick_5">
     <g id="line2d_10">
      <g>
       <use style="stroke:#000000;stroke-width:0.8;" x="57.6" xlink:href="#m9d2ba6cc49" y="94.6944"/>
      </g>
     </g>
     <g id="text_11">
      <!-- 80 -->
      <defs>
       <path d="M 31.78125 34.625 
Q 24.75 34.625 20.71875 30.859375 
Q 16.703125 27.09375 16.703125 20.515625 
Q 16.703125 13.921875 20.71875 10.15625 
Q 24.75 6.390625 31.78125 6.390625 
Q 38.8125 6.390625 42.859375 10.171875 
Q 46.921875 13.96875 46.921875 20.515625 
Q 46.921875 27.09375 42.890625 30.859375 
Q 38.875 34.625 31.78125 34.625 
z
M 21.921875 38.8125 
Q 15.578125 40.375 12.03125 44.71875 
Q 8.5 49.078125 8.5 55.328125 
Q 8.5 64.0625 14.71875 69.140625 
Q 20.953125 74.21875 31.78125 74.21875 
Q 42.671875 74.21875 48.875 69.140625 
Q 55.078125 64.0625 55.078125 55.328125 
Q 55.078125 49.078125 51.53125 44.71875 
Q 48 40.375 41.703125 38.8125 
Q 48.828125 37.15625 52.796875 32.3125 
Q 56.78125 27.484375 56.78125 20.515625 
Q 56.78125 9.90625 50.3125 4.234375 
Q 43.84375 -1.421875 31.78125 -1.421875 
Q 19.734375 -1.421875 13.25 4.234375 
Q 6.78125 9.90625 6.78125 20.515625 
Q 6.78125 27.484375 10.78125 32.3125 
Q 14.796875 37.15625 21.921875 38.8125 
z
M 18.3125 54.390625 
Q 18.3125 48.734375 21.84375 45.5625 
Q 25.390625 42.390625 31.78125 42.390625 
Q 38.140625 42.390625 41.71875 45.5625 
Q 45.3125 48.734375 45.3125 54.390625 
Q 45.3125 60.0625 41.71875 63.234375 
Q 38.140625 66.40625 31.78125 66.40625 
Q 25.390625 66.40625 21.84375 63.234375 
Q 18.3125 60.0625 18.3125 54.390625 
z
" id="DejaVuSans-38"/>
      </defs>
      <g transform="translate(37.875 98.493619)scale(0.1 -0.1)">
       <use xlink:href="#DejaVuSans-38"/>
       <use x="63.623047" xlink:href="#DejaVuSans-30"/>
      </g>
     </g>
    </g>
    <g id="ytick_6">
     <g id="line2d_11">
      <g>
       <use style="stroke:#000000;stroke-width:0.8;" x="57.6" xlink:href="#m9d2ba6cc49" y="41.472"/>
      </g>
     </g>
     <g id="text_12">
      <!-- 100 -->
      <g transform="translate(31.5125 45.271219)scale(0.1 -0.1)">
       <use xlink:href="#DejaVuSans-31"/>
       <use x="63.623047" xlink:href="#DejaVuSans-30"/>
       <use x="127.246094" xlink:href="#DejaVuSans-30"/>
      </g>
     </g>
    </g>
    <g id="text_13">
     <!-- Optimal action (%) -->
     <defs>
      <path d="M 39.40625 66.21875 
Q 28.65625 66.21875 22.328125 58.203125 
Q 16.015625 50.203125 16.015625 36.375 
Q 16.015625 22.609375 22.328125 14.59375 
Q 28.65625 6.59375 39.40625 6.59375 
Q 50.140625 6.59375 56.421875 14.59375 
Q 62.703125 22.609375 62.703125 36.375 
Q 62.703125 50.203125 56.421875 58.203125 
Q 50.140625 66.21875 39.40625 66.21875 
z
M 39.40625 74.21875 
Q 54.734375 74.21875 63.90625 63.9375 
Q 73.09375 53.65625 73.09375 36.375 
Q 73.09375 19.140625 63.90625 8.859375 
Q 54.734375 -1.421875 39.40625 -1.421875 
Q 24.03125 -1.421875 14.8125 8.828125 
Q 5.609375 19.09375 5.609375 36.375 
Q 5.609375 53.65625 14.8125 63.9375 
Q 24.03125 74.21875 39.40625 74.21875 
z
" id="DejaVuSans-4f"/>
      <path d="M 9.421875 54.6875 
L 18.40625 54.6875 
L 18.40625 0 
L 9.421875 0 
z
M 9.421875 75.984375 
L 18.40625 75.984375 
L 18.40625 64.59375 
L 9.421875 64.59375 
z
" id="DejaVuSans-69"/>
      <path d="M 52 44.1875 
Q 55.375 50.25 60.0625 53.125 
Q 64.75 56 71.09375 56 
Q 79.640625 56 84.28125 50.015625 
Q 88.921875 44.046875 88.921875 33.015625 
L 88.921875 0 
L 79.890625 0 
L 79.890625 32.71875 
Q 79.890625 40.578125 77.09375 44.375 
Q 74.3125 48.1875 68.609375 48.1875 
Q 61.625 48.1875 57.5625 43.546875 
Q 53.515625 38.921875 53.515625 30.90625 
L 53.515625 0 
L 44.484375 0 
L 44.484375 32.71875 
Q 44.484375 40.625 41.703125 44.40625 
Q 38.921875 48.1875 33.109375 48.1875 
Q 26.21875 48.1875 22.15625 43.53125 
Q 18.109375 38.875 18.109375 30.90625 
L 18.109375 0 
L 9.078125 0 
L 9.078125 54.6875 
L 18.109375 54.6875 
L 18.109375 46.1875 
Q 21.1875 51.21875 25.484375 53.609375 
Q 29.78125 56 35.6875 56 
Q 41.65625 56 45.828125 52.96875 
Q 50 49.953125 52 44.1875 
z
" id="DejaVuSans-6d"/>
      <path d="M 34.28125 27.484375 
Q 23.390625 27.484375 19.1875 25 
Q 14.984375 22.515625 14.984375 16.5 
Q 14.984375 11.71875 18.140625 8.90625 
Q 21.296875 6.109375 26.703125 6.109375 
Q 34.1875 6.109375 38.703125 11.40625 
Q 43.21875 16.703125 43.21875 25.484375 
L 43.21875 27.484375 
z
M 52.203125 31.203125 
L 52.203125 0 
L 43.21875 0 
L 43.21875 8.296875 
Q 40.140625 3.328125 35.546875 0.953125 
Q 30.953125 -1.421875 24.3125 -1.421875 
Q 15.921875 -1.421875 10.953125 3.296875 
Q 6 8.015625 6 15.921875 
Q 6 25.140625 12.171875 29.828125 
Q 18.359375 34.515625 30.609375 34.515625 
L 43.21875 34.515625 
L 43.21875 35.40625 
Q 43.21875 41.609375 39.140625 45 
Q 35.0625 48.390625 27.6875 48.390625 
Q 23 48.390625 18.546875 47.265625 
Q 14.109375 46.140625 10.015625 43.890625 
L 10.015625 52.203125 
Q 14.9375 54.109375 19.578125 55.046875 
Q 24.21875 56 28.609375 56 
Q 40.484375 56 46.34375 49.84375 
Q 52.203125 43.703125 52.203125 31.203125 
z
" id="DejaVuSans-61"/>
      <path d="M 9.421875 75.984375 
L 18.40625 75.984375 
L 18.40625 0 
L 9.421875 0 
z
" id="DejaVuSans-6c"/>
      <path id="DejaVuSans-20"/>
      <path d="M 48.78125 52.59375 
L 48.78125 44.1875 
Q 44.96875 46.296875 41.140625 47.34375 
Q 37.3125 48.390625 33.40625 48.390625 
Q 24.65625 48.390625 19.8125 42.84375 
Q 14.984375 37.3125 14.984375 27.296875 
Q 14.984375 17.28125 19.8125 11.734375 
Q 24.65625 6.203125 33.40625 6.203125 
Q 37.3125 6.203125 41.140625 7.25 
Q 44.96875 8.296875 48.78125 10.40625 
L 48.78125 2.09375 
Q 45.015625 0.34375 40.984375 -0.53125 
Q 36.96875 -1.421875 32.421875 -1.421875 
Q 20.0625 -1.421875 12.78125 6.34375 
Q 5.515625 14.109375 5.515625 27.296875 
Q 5.515625 40.671875 12.859375 48.328125 
Q 20.21875 56 33.015625 56 
Q 37.15625 56 41.109375 55.140625 
Q 45.0625 54.296875 48.78125 52.59375 
z
" id="DejaVuSans-63"/>
      <path d="M 30.609375 48.390625 
Q 23.390625 48.390625 19.1875 42.75 
Q 14.984375 37.109375 14.984375 27.296875 
Q 14.984375 17.484375 19.15625 11.84375 
Q 23.34375 6.203125 30.609375 6.203125 
Q 37.796875 6.203125 41.984375 11.859375 
Q 46.1875 17.53125 46.1875 27.296875 
Q 46.1875 37.015625 41.984375 42.703125 
Q 37.796875 48.390625 30.609375 48.390625 
z
M 30.609375 56 
Q 42.328125 56 49.015625 48.375 
Q 55.71875 40.765625 55.71875 27.296875 
Q 55.71875 13.875 49.015625 6.21875 
Q 42.328125 -1.421875 30.609375 -1.421875 
Q 18.84375 -1.421875 12.171875 6.21875 
Q 5.515625 13.875 5.515625 27.296875 
Q 5.515625 40.765625 12.171875 48.375 
Q 18.84375 56 30.609375 56 
z
" id="DejaVuSans-6f"/>
      <path d="M 54.890625 33.015625 
L 54.890625 0 
L 45.90625 0 
L 45.90625 32.71875 
Q 45.90625 40.484375 42.875 44.328125 
Q 39.84375 48.1875 33.796875 48.1875 
Q 26.515625 48.1875 22.3125 43.546875 
Q 18.109375 38.921875 18.109375 30.90625 
L 18.109375 0 
L 9.078125 0 
L 9.078125 54.6875 
L 18.109375 54.6875 
L 18.109375 46.1875 
Q 21.34375 51.125 25.703125 53.5625 
Q 30.078125 56 35.796875 56 
Q 45.21875 56 50.046875 50.171875 
Q 54.890625 44.34375 54.890625 33.015625 
z
" id="DejaVuSans-6e"/>
      <path d="M 31 75.875 
Q 24.46875 64.65625 21.28125 53.65625 
Q 18.109375 42.671875 18.109375 31.390625 
Q 18.109375 20.125 21.3125 9.0625 
Q 24.515625 -2 31 -13.1875 
L 23.1875 -13.1875 
Q 15.875 -1.703125 12.234375 9.375 
Q 8.59375 20.453125 8.59375 31.390625 
Q 8.59375 42.28125 12.203125 53.3125 
Q 15.828125 64.359375 23.1875 75.875 
z
" id="DejaVuSans-28"/>
      <path d="M 72.703125 32.078125 
Q 68.453125 32.078125 66.03125 28.46875 
Q 63.625 24.859375 63.625 18.40625 
Q 63.625 12.0625 66.03125 8.421875 
Q 68.453125 4.78125 72.703125 4.78125 
Q 76.859375 4.78125 79.265625 8.421875 
Q 81.6875 12.0625 81.6875 18.40625 
Q 81.6875 24.8125 79.265625 28.4375 
Q 76.859375 32.078125 72.703125 32.078125 
z
M 72.703125 38.28125 
Q 80.421875 38.28125 84.953125 32.90625 
Q 89.5 27.546875 89.5 18.40625 
Q 89.5 9.28125 84.9375 3.921875 
Q 80.375 -1.421875 72.703125 -1.421875 
Q 64.890625 -1.421875 60.34375 3.921875 
Q 55.8125 9.28125 55.8125 18.40625 
Q 55.8125 27.59375 60.375 32.9375 
Q 64.9375 38.28125 72.703125 38.28125 
z
M 22.3125 68.015625 
Q 18.109375 68.015625 15.6875 64.375 
Q 13.28125 60.75 13.28125 54.390625 
Q 13.28125 47.953125 15.671875 44.328125 
Q 18.0625 40.71875 22.3125 40.71875 
Q 26.5625 40.71875 28.96875 44.328125 
Q 31.390625 47.953125 31.390625 54.390625 
Q 31.390625 60.6875 28.953125 64.34375 
Q 26.515625 68.015625 22.3125 68.015625 
z
M 66.40625 74.21875 
L 74.21875 74.21875 
L 28.609375 -1.421875 
L 20.796875 -1.421875 
z
M 22.3125 74.21875 
Q 30.03125 74.21875 34.609375 68.875 
Q 39.203125 63.53125 39.203125 54.390625 
Q 39.203125 45.171875 34.640625 39.84375 
Q 30.078125 34.515625 22.3125 34.515625 
Q 14.546875 34.515625 10.03125 39.859375 
Q 5.515625 45.21875 5.515625 54.390625 
Q 5.515625 63.484375 10.046875 68.84375 
Q 14.59375 74.21875 22.3125 74.21875 
z
" id="DejaVuSans-25"/>
      <path d="M 8.015625 75.875 
L 15.828125 75.875 
Q 23.140625 64.359375 26.78125 53.3125 
Q 30.421875 42.28125 30.421875 31.390625 
Q 30.421875 20.453125 26.78125 9.375 
Q 23.140625 -1.703125 15.828125 -13.1875 
L 8.015625 -13.1875 
Q 14.5 -2 17.703125 9.0625 
Q 20.90625 20.125 20.90625 31.390625 
Q 20.90625 42.671875 17.703125 53.65625 
Q 14.5 64.65625 8.015625 75.875 
z
" id="DejaVuSans-29"/>
     </defs>
     <g transform="translate(25.432812 221.531906)rotate(-90)scale(0.1 -0.1)">
      <use xlink:href="#DejaVuSans-4f"/>
      <use x="78.710938" xlink:href="#DejaVuSans-70"/>
      <use x="142.1875" xlink:href="#DejaVuSans-74"/>
      <use x="181.396484" xlink:href="#DejaVuSans-69"/>
      <use x="209.179688" xlink:href="#DejaVuSans-6d"/>
      <use x="306.591797" xlink:href="#DejaVuSans-61"/>
      <use x="367.871094" xlink:href="#DejaVuSans-6c"/>
      <use x="395.654297" xlink:href="#DejaVuSans-20"/>
      <use x="427.441406" xlink:href="#DejaVuSans-61"/>
      <use x="488.720703" xlink:href="#DejaVuSans-63"/>
      <use x="543.701172" xlink:href="#DejaVuSans-74"/>
      <use x="582.910156" xlink:href="#DejaVuSans-69"/>
      <use x="610.693359" xlink:href="#DejaVuSans-6f"/>
      <use x="671.875" xlink:href="#DejaVuSans-6e"/>
      <use x="735.253906" xlink:href="#DejaVuSans-20"/>
      <use x="767.041016" xlink:href="#DejaVuSans-28"/>
      <use x="806.054688" xlink:href="#DejaVuSans-25"/>
      <use x="901.074219" xlink:href="#DejaVuSans-29"/>
     </g>
    </g>
   </g>
   <g id="line2d_12">
    <path clip-path="url(#p0ad111bdd4)" d="M 73.832727 279.243073 
L 74.157707 281.105857 
L 74.482686 279.90835 
L 74.807666 280.440577 
L 75.132645 281.63808 
L 75.457625 280.30752 
L 75.782604 280.573633 
L 76.107584 282.835583 
L 76.432563 280.30752 
L 76.757543 283.101697 
L 77.082523 197.8128 
L 77.407502 184.5072 
L 78.70742 164.016574 
L 79.0324 163.484358 
L 79.357379 160.291012 
L 79.682359 158.56128 
L 80.657297 148.848198 
L 80.982277 148.049854 
L 81.307256 146.852358 
L 81.632236 145.122626 
L 81.957215 144.191228 
L 82.282195 143.659012 
L 82.932154 140.864828 
L 83.257133 140.199548 
L 83.582113 141.264 
L 83.907093 140.066504 
L 84.557052 139.002052 
L 84.882031 137.9376 
L 85.207011 138.070654 
L 85.53199 137.405374 
L 85.85697 137.006212 
L 86.181949 136.340932 
L 86.506929 135.94176 
L 86.831908 135.94176 
L 87.156888 134.478136 
L 87.481867 134.345072 
L 88.131826 132.61536 
L 88.456806 133.413704 
L 88.781785 133.812856 
L 89.106765 133.679812 
L 89.756724 133.679812 
L 90.081704 133.94592 
L 90.731663 133.147576 
L 91.056642 133.28064 
L 91.381622 132.61536 
L 92.031581 131.95008 
L 92.35656 132.349252 
L 93.006519 131.95008 
L 93.656478 131.683972 
L 93.981458 132.216188 
L 94.306437 131.018692 
L 94.631417 131.417864 
L 94.956396 131.151756 
L 95.281376 131.417864 
L 95.606355 131.2848 
L 95.931335 130.752584 
L 96.256314 130.486476 
L 96.581294 130.61952 
L 97.231253 130.353412 
L 97.881212 130.353412 
L 98.206192 130.087304 
L 98.531171 130.486476 
L 98.856151 130.353412 
L 99.18113 130.486476 
L 99.50611 130.087304 
L 99.831089 129.95424 
L 100.156069 129.555068 
L 100.481048 129.688132 
L 100.806028 129.28896 
L 101.131007 129.555068 
L 101.455987 129.422024 
L 101.780966 128.490636 
L 102.105946 128.756744 
L 102.755905 128.224508 
L 103.405864 128.224508 
L 104.055823 127.9584 
L 104.380803 127.9584 
L 104.705782 127.692292 
L 105.030762 127.692292 
L 105.355741 127.426184 
L 106.980639 128.091464 
L 107.305618 127.825356 
L 107.630598 128.224508 
L 107.955577 127.825356 
L 108.280557 127.9584 
L 108.605536 127.825356 
L 108.930516 127.559228 
L 109.255495 127.9584 
L 109.580475 128.091464 
L 109.905455 127.9584 
L 110.230434 128.091464 
L 110.555414 127.9584 
L 110.880393 127.692292 
L 111.530352 127.692292 
L 111.855332 127.825356 
L 112.505291 127.426184 
L 114.130188 127.426184 
L 114.455168 127.692292 
L 114.780147 127.426184 
L 115.105127 127.559228 
L 115.430106 127.29312 
L 115.755086 127.29312 
L 116.080066 127.426184 
L 116.405045 127.426184 
L 116.730025 127.29312 
L 117.055004 127.426184 
L 117.704963 127.426184 
L 118.029943 127.559228 
L 118.354922 127.426184 
L 118.679902 127.426184 
L 119.004881 127.559228 
L 119.329861 127.426184 
L 120.304799 127.426184 
L 120.629779 127.29312 
L 120.954758 127.426184 
L 121.279738 127.426184 
L 121.604717 127.29312 
L 122.579656 127.29312 
L 122.904636 127.027012 
L 123.229615 127.027012 
L 123.554595 127.160076 
L 123.879574 127.027012 
L 125.829451 127.027012 
L 126.154431 127.160076 
L 126.47941 127.027012 
L 127.129369 127.027012 
L 127.454349 126.893948 
L 127.779328 127.027012 
L 128.104308 127.027012 
L 128.429287 127.160076 
L 128.754267 126.760904 
L 129.079247 126.893948 
L 129.404226 126.760904 
L 130.704144 126.760904 
L 131.029124 126.62784 
L 131.354103 126.760904 
L 131.679083 126.760904 
L 132.004062 126.62784 
L 132.329042 126.893948 
L 132.979001 126.893948 
L 133.30398 127.027012 
L 133.62896 126.893948 
L 134.278919 127.160076 
L 134.928878 126.893948 
L 135.253857 127.027012 
L 135.578837 126.760904 
L 135.903817 127.027012 
L 136.228796 127.027012 
L 136.553776 126.760904 
L 137.203735 126.760904 
L 137.528714 126.893948 
L 138.828632 126.893948 
L 139.153612 126.760904 
L 139.478591 126.760904 
L 139.803571 126.62784 
L 140.12855 126.62784 
L 140.45353 126.494796 
L 141.103489 126.494796 
L 141.428468 126.361732 
L 142.078428 126.361732 
L 142.403407 126.494796 
L 142.728387 126.361732 
L 143.053366 126.095624 
L 143.378346 126.095624 
L 143.703325 126.361732 
L 144.678264 126.361732 
L 145.003243 126.62784 
L 145.328223 126.494796 
L 146.95312 126.494796 
L 147.2781 126.62784 
L 148.578018 126.62784 
L 148.902998 126.494796 
L 149.227977 126.494796 
L 149.552957 126.62784 
L 149.877936 126.494796 
L 150.202916 126.494796 
L 150.527895 126.361732 
L 150.852875 126.494796 
L 151.177854 126.494796 
L 151.502834 126.361732 
L 151.827813 126.361732 
L 152.152793 126.494796 
L 152.477772 126.494796 
L 152.802752 126.62784 
L 153.127731 126.494796 
L 155.402588 126.494796 
L 155.727568 126.62784 
L 156.052547 126.62784 
L 156.702506 126.361732 
L 157.027486 126.494796 
L 157.352465 126.494796 
L 157.677445 126.62784 
L 158.002424 126.361732 
L 158.327404 126.494796 
L 160.92724 126.494796 
L 161.252219 126.760904 
L 161.902179 126.760904 
L 162.227158 126.494796 
L 162.877117 126.494796 
L 163.202097 126.62784 
L 163.527076 126.62784 
L 163.852056 126.494796 
L 164.502015 126.760904 
L 164.826994 126.62784 
L 166.126912 126.62784 
L 166.451892 126.494796 
L 166.776871 126.494796 
L 167.101851 126.361732 
L 168.07679 126.361732 
L 168.401769 126.494796 
L 168.726749 126.228668 
L 169.376708 126.228668 
L 169.701687 126.095624 
L 170.351646 126.095624 
L 170.676626 126.361732 
L 171.976544 126.361732 
L 172.301523 126.228668 
L 173.276462 126.228668 
L 173.601441 126.361732 
L 174.57638 126.361732 
L 174.90136 126.228668 
L 175.226339 126.228668 
L 175.551319 126.361732 
L 175.876298 126.228668 
L 176.851237 126.228668 
L 177.501196 126.494796 
L 177.826175 126.361732 
L 178.801114 126.361732 
L 179.126093 126.494796 
L 179.451073 126.228668 
L 180.426011 126.228668 
L 180.750991 126.361732 
L 181.40095 126.361732 
L 181.72593 126.494796 
L 182.375889 126.228668 
L 185.300704 126.228668 
L 185.625684 126.361732 
L 185.950663 126.228668 
L 186.600622 126.228668 
L 187.250581 126.494796 
L 187.575561 126.361732 
L 190.500377 126.361732 
L 190.825356 126.228668 
L 191.475315 126.228668 
L 191.800295 126.361732 
L 192.125274 126.361732 
L 192.450254 126.228668 
L 193.425192 126.228668 
L 193.750172 126.361732 
L 194.075152 126.361732 
L 194.400131 126.228668 
L 194.725111 126.361732 
L 196.674988 126.361732 
L 196.999967 126.228668 
L 197.649926 126.228668 
L 197.974906 126.361732 
L 198.624865 126.361732 
L 198.949844 126.228668 
L 199.274824 126.361732 
L 199.599803 126.361732 
L 199.924783 126.494796 
L 200.249762 126.494796 
L 200.574742 126.62784 
L 200.899722 126.361732 
L 201.224701 126.494796 
L 204.799476 126.494796 
L 205.124455 126.228668 
L 205.449435 126.228668 
L 206.099394 126.494796 
L 206.424373 126.228668 
L 206.749353 126.228668 
L 207.074333 126.095624 
L 207.724292 126.095624 
L 208.049271 126.361732 
L 208.374251 126.095624 
L 209.674169 126.095624 
L 209.999148 126.228668 
L 210.324128 126.228668 
L 210.649107 125.96256 
L 210.974087 126.228668 
L 214.548862 126.228668 
L 214.873841 126.361732 
L 215.198821 126.361732 
L 215.5238 126.228668 
L 217.798657 126.228668 
L 218.123636 126.095624 
L 218.448616 126.228668 
L 220.398493 126.228668 
L 220.723473 126.095624 
L 222.34837 126.095624 
L 222.67335 125.96256 
L 222.998329 125.96256 
L 223.323309 126.095624 
L 223.973268 126.095624 
L 224.298247 125.96256 
L 224.623227 125.96256 
L 224.948206 125.829496 
L 235.672531 125.829496 
L 235.99751 125.96256 
L 256.146241 125.96256 
L 256.47122 126.095624 
L 256.7962 125.96256 
L 262.970811 125.96256 
L 263.29579 125.829496 
L 265.245667 125.829496 
L 265.570647 125.96256 
L 265.895627 125.829496 
L 277.594889 125.829496 
L 277.919869 125.696452 
L 278.244848 125.829496 
L 278.569828 125.829496 
L 278.894808 125.696452 
L 279.219787 125.829496 
L 281.169664 125.829496 
L 281.494644 125.96256 
L 281.819623 125.829496 
L 283.119541 125.829496 
L 283.444521 125.96256 
L 284.744439 125.96256 
L 285.069419 125.829496 
L 285.394398 125.96256 
L 285.719378 125.829496 
L 286.044357 125.96256 
L 286.369337 125.96256 
L 286.694316 125.829496 
L 288.319214 125.829496 
L 288.644193 125.96256 
L 288.969173 125.96256 
L 289.294152 125.829496 
L 296.443702 125.829496 
L 296.768681 125.696452 
L 297.093661 125.829496 
L 297.41864 125.696452 
L 297.74362 125.696452 
L 298.0686 125.829496 
L 306.518067 125.829496 
L 306.843047 125.96256 
L 307.168026 125.829496 
L 314.967535 125.829496 
L 315.292514 125.96256 
L 315.942473 125.96256 
L 316.267453 126.095624 
L 316.592432 125.829496 
L 327.641736 125.829496 
L 327.966716 125.96256 
L 334.466306 125.96256 
L 334.791286 125.829496 
L 335.766224 125.829496 
L 336.091204 125.96256 
L 336.416183 125.829496 
L 336.741163 125.96256 
L 346.490549 125.96256 
L 346.815528 125.829496 
L 347.465487 125.829496 
L 347.790467 125.96256 
L 348.440426 125.96256 
L 348.765405 125.829496 
L 350.390303 125.829496 
L 350.715283 125.96256 
L 354.940016 125.96256 
L 355.264996 125.829496 
L 365.98932 125.829496 
L 366.3143 125.96256 
L 366.639279 125.829496 
L 366.964259 125.829496 
L 367.289238 125.96256 
L 368.264177 125.96256 
L 368.589156 125.829496 
L 368.914136 125.96256 
L 369.239115 125.829496 
L 369.564095 125.96256 
L 370.864013 125.96256 
L 371.188993 125.829496 
L 371.513972 125.96256 
L 374.763767 125.96256 
L 375.088747 125.829496 
L 375.413726 125.96256 
L 375.738706 125.829496 
L 380.938378 125.829496 
L 381.263358 125.96256 
L 381.588337 125.829496 
L 381.913317 125.829496 
L 382.238296 125.96256 
L 382.563276 125.829496 
L 383.213235 125.829496 
L 383.538215 125.96256 
L 384.838133 125.96256 
L 385.163112 125.829496 
L 385.488092 125.96256 
L 395.887437 125.96256 
L 396.212416 126.095624 
L 396.537396 125.96256 
L 398.487273 125.96256 
L 398.487273 125.96256 
" style="fill:none;stroke:#1f77b4;stroke-linecap:square;stroke-width:1.5;"/>
   </g>
   <g id="line2d_13">
    <path clip-path="url(#p0ad111bdd4)" d="M 73.832727 279.243073 
L 74.482686 260.748287 
L 75.457625 245.579906 
L 76.107584 240.39072 
L 76.432563 234.935426 
L 77.082523 230.943746 
L 77.407502 227.883459 
L 77.732482 226.286786 
L 78.057461 222.162042 
L 78.382441 226.41984 
L 78.70742 222.028988 
L 79.0324 219.500932 
L 79.357379 221.76288 
L 80.007338 214.977026 
L 80.332318 214.311746 
L 80.657297 215.509252 
L 80.982277 213.646466 
L 81.307256 213.513402 
L 81.632236 211.650626 
L 82.282195 210.852292 
L 82.607174 211.650626 
L 82.932154 210.719238 
L 83.257133 206.062268 
L 83.582113 204.731708 
L 83.907093 203.933374 
L 84.232072 200.340866 
L 84.557052 204.4656 
L 85.207011 201.272254 
L 85.53199 200.740038 
L 85.85697 198.078908 
L 86.181949 199.80864 
L 86.506929 199.542532 
L 86.831908 195.683906 
L 87.156888 196.615294 
L 87.806847 192.49056 
L 88.131826 194.752518 
L 88.456806 192.49056 
L 89.106765 193.688066 
L 89.431744 191.16 
L 89.756724 190.893892 
L 90.081704 189.430268 
L 90.406683 190.49472 
L 90.731663 190.228602 
L 91.056642 187.301374 
L 91.381622 187.567482 
L 92.031581 185.438598 
L 92.35656 185.17248 
L 92.68154 185.305534 
L 93.006519 185.039426 
L 93.331499 186.902212 
L 93.981458 183.17664 
L 94.631417 181.84608 
L 94.956396 181.713026 
L 95.281376 182.245252 
L 95.606355 180.914682 
L 95.931335 178.785788 
L 96.256314 174.128828 
L 96.581294 179.983294 
L 96.906274 174.794108 
L 97.881212 178.652734 
L 98.531171 173.86272 
L 98.856151 176.656894 
L 99.18113 174.261892 
L 99.50611 172.931332 
L 99.831089 172.266052 
L 100.156069 171.86688 
L 100.481048 171.86688 
L 100.806028 173.19744 
L 101.131007 170.53632 
L 101.455987 168.939642 
L 101.780966 168.939642 
L 102.105946 168.274362 
L 102.430925 165.87935 
L 102.755905 167.342974 
L 103.080885 165.746306 
L 103.405864 169.20576 
L 103.730844 165.081026 
L 104.055823 163.750466 
L 104.380803 166.54465 
L 105.030762 162.952122 
L 105.355741 164.415746 
L 105.680721 162.020734 
L 106.0057 165.081026 
L 106.33068 165.081026 
L 106.655659 162.419906 
L 106.980639 162.286852 
L 107.305618 161.488508 
L 107.630598 163.351294 
L 107.955577 161.88768 
L 108.280557 163.085186 
L 108.605536 160.024904 
L 108.930516 159.492668 
L 109.255495 160.956292 
L 109.905455 160.956292 
L 110.230434 159.359624 
L 110.555414 156.166268 
L 110.880393 160.956292 
L 111.205373 157.496828 
L 111.530352 156.698504 
L 111.855332 156.299332 
L 112.180311 158.029064 
L 112.505291 158.694344 
L 113.15525 155.367924 
L 113.480229 155.367924 
L 113.805209 154.436536 
L 114.130188 156.299332 
L 114.455168 155.23488 
L 114.780147 153.105986 
L 115.105127 155.500988 
L 115.430106 154.5696 
L 115.755086 152.57376 
L 116.080066 153.105986 
L 116.405045 152.839878 
L 116.730025 153.372094 
L 117.055004 149.513478 
L 117.379984 151.110146 
L 117.704963 149.24735 
L 118.029943 149.779586 
L 118.354922 148.58207 
L 119.004881 152.57376 
L 119.65484 150.444866 
L 119.97982 150.444866 
L 120.304799 148.315962 
L 120.629779 152.041534 
L 120.954758 150.045694 
L 121.279738 149.646522 
L 121.604717 149.91265 
L 121.929697 145.521788 
L 122.254676 149.114306 
L 122.579656 144.324292 
L 122.904636 148.049854 
L 123.229615 148.848198 
L 123.554595 146.187068 
L 123.879574 144.723464 
L 124.529533 147.118466 
L 125.179492 141.796216 
L 125.504472 144.723464 
L 125.829451 146.320122 
L 126.154431 146.054014 
L 126.47941 145.521788 
L 126.80439 144.5904 
L 127.129369 142.860668 
L 127.454349 145.122626 
L 127.779328 144.058184 
L 128.104308 147.118466 
L 128.429287 144.723464 
L 128.754267 144.989572 
L 129.079247 141.796216 
L 129.404226 142.328452 
L 129.729206 142.328452 
L 130.054185 141.530108 
L 130.379165 142.461496 
L 130.704144 140.731784 
L 131.029124 140.465656 
L 131.354103 140.731784 
L 131.679083 138.469816 
L 132.004062 142.062344 
L 132.329042 142.993732 
L 132.654021 142.062344 
L 132.979001 140.59872 
L 133.30398 140.997892 
L 133.62896 139.401204 
L 133.953939 142.461496 
L 134.278919 138.336772 
L 134.603898 138.070654 
L 134.928878 139.135096 
L 135.253857 139.135096 
L 135.578837 141.397064 
L 135.903817 138.336772 
L 136.228796 137.671492 
L 136.553776 139.667332 
L 136.878755 137.538428 
L 137.203735 139.26816 
L 137.853694 136.873148 
L 138.178673 137.538428 
L 138.503653 140.59872 
L 138.828632 139.135096 
L 139.153612 137.006212 
L 139.478591 140.465656 
L 139.803571 135.808696 
L 140.12855 132.748424 
L 140.45353 140.731784 
L 140.778509 139.401204 
L 141.103489 136.60704 
L 141.428468 137.671492 
L 141.753448 137.804536 
L 142.078428 136.340932 
L 142.403407 135.808696 
L 142.728387 136.340932 
L 143.053366 136.340932 
L 143.378346 137.405374 
L 144.028305 135.27648 
L 144.353284 136.074804 
L 145.003243 138.60288 
L 145.328223 134.744244 
L 145.653202 133.147576 
L 145.978182 135.143416 
L 146.303161 134.877308 
L 146.628141 134.078964 
L 146.95312 133.94592 
L 147.2781 132.482296 
L 148.253038 134.6112 
L 148.578018 136.740084 
L 148.902998 132.881468 
L 149.227977 132.083144 
L 149.552957 129.95424 
L 149.877936 132.216188 
L 150.202916 131.817036 
L 150.527895 133.147576 
L 150.852875 130.087304 
L 151.177854 130.486476 
L 151.502834 132.482296 
L 151.827813 131.2848 
L 152.152793 132.216188 
L 152.477772 130.087304 
L 152.802752 130.220368 
L 153.127731 131.817036 
L 153.77769 127.825356 
L 154.10267 129.155916 
L 154.427649 127.160076 
L 154.752629 131.95008 
L 155.077609 131.151756 
L 155.402588 128.756744 
L 155.727568 129.688132 
L 156.052547 129.95424 
L 156.377527 127.559228 
L 156.702506 127.29312 
L 157.027486 132.083144 
L 157.352465 127.825356 
L 157.677445 127.027012 
L 158.002424 128.357572 
L 158.327404 128.62368 
L 158.652383 126.62784 
L 159.302342 128.091464 
L 159.627322 128.490636 
L 159.952301 127.559228 
L 160.277281 127.559228 
L 160.60226 126.361732 
L 160.92724 125.696452 
L 161.252219 127.027012 
L 161.577199 126.228668 
L 161.902179 124.898108 
L 162.227158 126.62784 
L 162.552138 127.160076 
L 162.877117 125.031172 
L 163.202097 125.031172 
L 163.527076 128.224508 
L 163.852056 122.370052 
L 164.177035 129.28896 
L 164.502015 123.833656 
L 164.826994 126.228668 
L 165.151974 126.361732 
L 165.801933 123.567548 
L 166.126912 125.164216 
L 166.451892 127.559228 
L 166.776871 125.031172 
L 167.101851 124.632 
L 167.42683 125.696452 
L 168.07679 124.632 
L 168.401769 122.236988 
L 168.726749 126.62784 
L 169.051728 123.567548 
L 169.376708 122.370052 
L 169.701687 126.361732 
L 170.026667 123.035332 
L 170.351646 122.769204 
L 171.001605 125.164216 
L 171.326585 124.898108 
L 171.651564 123.434504 
L 171.976544 127.29312 
L 172.301523 119.442804 
L 172.626503 125.29728 
L 172.951482 121.3056 
L 173.276462 121.97088 
L 173.601441 122.236988 
L 173.926421 126.361732 
L 174.2514 122.370052 
L 174.57638 124.898108 
L 174.90136 122.103924 
L 175.226339 123.567548 
L 175.551319 126.095624 
L 175.876298 124.632 
L 176.201278 120.906428 
L 176.526257 121.704772 
L 176.851237 121.97088 
L 177.176216 121.3056 
L 177.826175 119.442804 
L 178.151155 121.172536 
L 178.476134 118.511416 
L 178.801114 121.3056 
L 179.126093 121.837816 
L 179.451073 120.64032 
L 179.776052 118.64448 
L 180.426011 120.507256 
L 180.750991 118.777524 
L 181.075971 121.837816 
L 181.40095 119.841976 
L 181.72593 119.176696 
L 182.050909 119.442804 
L 182.375889 118.378352 
L 182.700868 118.511416 
L 183.025848 122.103924 
L 183.350827 121.172536 
L 184.000786 115.717252 
L 184.325766 120.108084 
L 184.975725 116.781704 
L 185.300704 120.374212 
L 185.625684 115.98336 
L 185.950663 117.846136 
L 186.275643 117.047812 
L 186.925602 118.64448 
L 187.250581 118.245308 
L 188.22552 119.30976 
L 188.5505 115.850296 
L 188.875479 116.382532 
L 189.200459 117.713072 
L 189.525438 115.584188 
L 190.175397 120.108084 
L 190.500377 115.98336 
L 190.825356 117.180856 
L 191.150336 120.108084 
L 191.475315 115.31808 
L 191.800295 118.112244 
L 192.125274 116.781704 
L 192.450254 113.455304 
L 192.775233 117.31392 
L 193.100213 118.64448 
L 193.425192 119.043632 
L 193.750172 117.446964 
L 194.075152 114.120584 
L 194.400131 119.442804 
L 194.725111 116.116424 
L 195.05009 116.515576 
L 195.37507 119.97504 
L 195.700049 117.047812 
L 196.025029 115.451144 
L 196.350008 118.511416 
L 196.674988 116.249468 
L 196.999967 117.713072 
L 197.324947 116.515576 
L 197.649926 118.777524 
L 198.624865 114.918928 
L 198.949844 115.31808 
L 199.274824 116.116424 
L 199.599803 115.717252 
L 199.924783 116.64864 
L 200.249762 115.717252 
L 200.574742 115.451144 
L 200.899722 118.378352 
L 201.224701 116.249468 
L 201.549681 115.31808 
L 201.87466 116.382532 
L 202.19964 118.245308 
L 202.849599 114.6528 
L 203.174578 117.9792 
L 203.499558 116.382532 
L 203.824537 114.120584 
L 204.474496 116.914748 
L 204.799476 115.850296 
L 205.124455 112.124744 
L 205.449435 112.124744 
L 205.774414 111.193356 
L 206.099394 113.189196 
L 206.424373 114.120584 
L 206.749353 111.592508 
L 207.074333 116.116424 
L 207.399312 115.051972 
L 207.724292 114.519756 
L 208.049271 114.918928 
L 208.374251 113.056132 
L 208.69923 114.386692 
L 209.02421 115.185036 
L 209.349189 114.386692 
L 209.674169 114.918928 
L 209.999148 112.923068 
L 210.324128 115.185036 
L 210.649107 114.6528 
L 210.974087 118.245308 
L 211.299066 115.31808 
L 211.624046 114.120584 
L 211.949025 114.386692 
L 212.274005 112.257788 
L 212.598984 115.051972 
L 212.923964 115.185036 
L 213.248943 114.253648 
L 213.573923 115.584188 
L 213.898903 113.056132 
L 214.223882 115.98336 
L 214.548862 112.523916 
L 214.873841 113.98752 
L 215.198821 114.785864 
L 215.5238 113.056132 
L 215.84878 113.721412 
L 216.173759 112.923068 
L 216.498739 113.721412 
L 216.823718 118.378352 
L 217.148698 113.854476 
L 217.473677 114.386692 
L 217.798657 112.65696 
L 218.123636 113.854476 
L 218.448616 113.056132 
L 218.773595 109.729732 
L 219.098575 110.528076 
L 219.423554 112.790024 
L 219.748534 110.528076 
L 220.073514 113.32224 
L 220.398493 113.056132 
L 220.723473 114.386692 
L 221.048452 113.721412 
L 221.373432 110.261948 
L 221.698411 115.31808 
L 222.023391 109.99584 
L 222.34837 113.854476 
L 222.67335 114.386692 
L 222.998329 110.927228 
L 223.648288 114.785864 
L 223.973268 111.459464 
L 224.298247 111.725572 
L 224.623227 113.056132 
L 224.948206 112.790024 
L 225.273186 111.060292 
L 225.598165 113.721412 
L 225.923145 113.721412 
L 226.248124 114.120584 
L 226.573104 111.592508 
L 226.898084 110.66112 
L 227.548043 111.592508 
L 227.873022 111.858636 
L 228.522981 111.858636 
L 228.847961 112.523916 
L 229.17294 111.193356 
L 229.49792 112.390852 
L 229.822899 109.463624 
L 230.147879 113.056132 
L 230.472858 111.3264 
L 230.797838 110.261948 
L 231.122817 108.532216 
L 231.447797 111.99168 
L 231.772776 108.532216 
L 232.097756 111.3264 
L 232.422735 110.794184 
L 232.747715 108.931388 
L 233.072695 108.399172 
L 233.397674 113.455304 
L 233.722654 114.386692 
L 234.047633 114.386692 
L 234.372613 111.060292 
L 234.697592 111.99168 
L 235.022572 111.193356 
L 235.347551 108.931388 
L 235.99751 110.66112 
L 236.32249 110.66112 
L 236.647469 107.733892 
L 236.972449 109.596668 
L 237.297428 110.261948 
L 237.622408 109.064452 
L 237.947387 109.064452 
L 238.272367 112.790024 
L 238.922326 109.463624 
L 239.247305 109.064452 
L 239.572285 111.459464 
L 239.897265 108.399172 
L 240.222244 108.931388 
L 240.547224 110.927228 
L 241.197183 106.66944 
L 242.172121 112.257788 
L 242.497101 111.193356 
L 242.82208 106.536376 
L 243.14706 106.270268 
L 243.472039 107.33472 
L 243.797019 110.528076 
L 244.446978 106.403332 
L 244.771957 108.266108 
L 245.096937 108 
L 245.421916 108 
L 245.746896 109.197496 
L 246.071876 109.064452 
L 246.396855 108.798344 
L 246.721835 107.866936 
L 247.046814 112.124744 
L 247.696773 108.66528 
L 248.021753 109.99584 
L 248.346732 109.463624 
L 248.671712 113.056132 
L 248.996691 112.65696 
L 249.321671 110.261948 
L 249.64665 110.528076 
L 249.97163 107.201656 
L 250.296609 105.738052 
L 250.621589 110.395012 
L 250.946568 108.133064 
L 251.271548 111.3264 
L 251.596527 108.931388 
L 251.921507 108.399172 
L 252.246486 106.66944 
L 252.571466 112.523916 
L 252.896446 108.798344 
L 253.221425 107.33472 
L 253.546405 107.733892 
L 253.871384 106.00416 
L 254.196364 108.399172 
L 254.521343 107.068612 
L 254.846323 106.802504 
L 255.821261 110.794184 
L 256.146241 106.802504 
L 256.47122 107.201656 
L 256.7962 108.399172 
L 257.121179 106.66944 
L 258.421097 108.931388 
L 258.746077 107.600828 
L 259.071057 107.201656 
L 259.396036 108.266108 
L 259.721016 108.532216 
L 260.045995 108.399172 
L 260.370975 109.33056 
L 261.020934 108 
L 261.670893 106.00416 
L 262.645831 106.66944 
L 262.970811 107.467784 
L 263.29579 105.205816 
L 263.62077 108.931388 
L 263.945749 105.072772 
L 264.270729 108 
L 264.595708 107.068612 
L 264.920688 106.536376 
L 265.245667 111.193356 
L 265.570647 109.197496 
L 265.895627 104.00832 
L 266.220606 106.802504 
L 266.545586 104.141364 
L 266.870565 105.33888 
L 267.195545 107.733892 
L 267.520524 106.935548 
L 267.845504 108.266108 
L 268.170483 107.600828 
L 268.495463 105.072772 
L 268.820442 106.935548 
L 269.145422 104.274428 
L 269.470401 106.270268 
L 269.795381 106.802504 
L 270.12036 108.399172 
L 270.44534 104.939708 
L 270.770319 105.871096 
L 271.095299 103.076932 
L 271.420278 105.205816 
L 271.745258 103.34304 
L 272.395217 105.604988 
L 272.720197 104.540536 
L 273.045176 105.205816 
L 273.370156 107.467784 
L 273.695135 103.875256 
L 274.020115 105.471924 
L 274.345094 103.609148 
L 274.995053 107.068612 
L 275.320033 104.274428 
L 275.645012 108.133064 
L 275.969992 102.145524 
L 276.294971 104.407492 
L 276.619951 101.746352 
L 276.94493 108.133064 
L 277.26991 104.00832 
L 277.594889 105.738052 
L 277.919869 105.738052 
L 278.244848 106.137204 
L 278.569828 104.6736 
L 278.894808 105.738052 
L 279.219787 102.544696 
L 279.544767 103.076932 
L 279.869746 103.209976 
L 280.194726 104.407492 
L 280.519705 104.540536 
L 280.844685 105.33888 
L 281.169664 106.66944 
L 281.494644 103.875256 
L 281.819623 106.270268 
L 282.144603 102.411632 
L 282.469582 101.613308 
L 282.794562 105.205816 
L 283.119541 102.943868 
L 283.444521 102.943868 
L 283.7695 106.00416 
L 284.09448 106.802504 
L 284.419459 104.141364 
L 284.744439 104.806644 
L 285.069419 102.544696 
L 285.394398 106.00416 
L 286.044357 102.278588 
L 286.369337 103.742212 
L 286.694316 102.943868 
L 287.019296 102.544696 
L 287.344275 103.875256 
L 287.669255 103.609148 
L 287.994234 104.141364 
L 288.319214 102.145524 
L 288.644193 103.742212 
L 288.969173 102.810804 
L 289.294152 103.609148 
L 289.619132 105.205816 
L 289.944111 101.613308 
L 290.269091 102.544696 
L 290.59407 106.270268 
L 290.91905 104.00832 
L 291.244029 104.6736 
L 291.569009 104.141364 
L 291.893989 104.806644 
L 292.218968 101.746352 
L 292.543948 102.278588 
L 292.868927 103.476084 
L 293.193907 103.209976 
L 293.518886 103.609148 
L 293.843866 101.081072 
L 294.168845 103.209976 
L 294.493825 106.270268 
L 294.818804 103.209976 
L 295.143784 102.544696 
L 295.793743 102.943868 
L 296.118722 103.742212 
L 296.443702 103.209976 
L 296.768681 101.3472 
L 297.093661 103.209976 
L 297.41864 99.218296 
L 297.74362 102.943868 
L 298.0686 101.879416 
L 298.393579 102.01248 
L 298.718559 101.3472 
L 299.043538 101.746352 
L 299.368518 104.141364 
L 300.018477 101.3472 
L 300.668436 101.081072 
L 300.993415 103.209976 
L 301.318395 101.214136 
L 301.643374 102.278588 
L 301.968354 102.01248 
L 302.293333 102.145524 
L 302.618313 104.141364 
L 302.943292 103.209976 
L 303.268272 103.476084 
L 303.918231 100.814964 
L 304.56819 103.476084 
L 304.89317 102.67776 
L 305.218149 101.3472 
L 305.543129 101.214136 
L 305.868108 103.076932 
L 306.193088 102.67776 
L 306.518067 103.609148 
L 306.843047 101.879416 
L 307.168026 104.806644 
L 307.493006 104.806644 
L 307.817985 104.00832 
L 308.142965 103.742212 
L 308.467944 101.746352 
L 308.792924 103.209976 
L 309.117903 102.145524 
L 309.442883 103.076932 
L 309.767862 99.484424 
L 310.092842 102.810804 
L 310.417821 102.278588 
L 310.742801 99.883576 
L 311.067781 102.278588 
L 311.39276 99.750532 
L 311.71774 103.742212 
L 312.042719 102.145524 
L 312.367699 101.480244 
L 312.692678 102.67776 
L 313.017658 101.613308 
L 313.342637 102.67776 
L 313.667617 103.076932 
L 313.992596 102.544696 
L 314.317576 100.68192 
L 314.642555 102.278588 
L 314.967535 98.419972 
L 315.292514 101.480244 
L 315.617494 101.214136 
L 315.942473 102.67776 
L 316.267453 103.34304 
L 316.592432 103.076932 
L 316.917412 100.814964 
L 317.242391 100.948028 
L 317.567371 98.153864 
L 317.892351 100.282748 
L 318.21733 104.00832 
L 318.54231 99.085252 
L 318.867289 101.879416 
L 319.192269 99.883576 
L 319.517248 100.415812 
L 319.842228 102.810804 
L 320.167207 102.145524 
L 320.492187 103.875256 
L 320.817166 102.810804 
L 321.142146 96.69024 
L 321.467125 97.887756 
L 321.792105 97.887756 
L 322.117084 101.214136 
L 322.442064 99.750532 
L 322.767043 103.076932 
L 323.092023 101.480244 
L 323.417002 98.952188 
L 323.741982 100.149704 
L 324.066962 99.218296 
L 324.391941 101.081072 
L 324.716921 98.286928 
L 325.36688 100.814964 
L 325.691859 101.081072 
L 326.016839 96.956368 
L 326.341818 102.01248 
L 326.666798 102.01248 
L 326.991777 103.076932 
L 327.316757 101.081072 
L 327.641736 100.548856 
L 327.966716 98.153864 
L 328.291695 98.68608 
L 328.616675 100.948028 
L 328.941654 100.01664 
L 329.266634 100.548856 
L 329.591613 98.952188 
L 329.916593 102.278588 
L 330.241572 101.746352 
L 330.566552 100.68192 
L 330.891532 101.214136 
L 331.216511 100.01664 
L 331.541491 99.617468 
L 331.86647 100.814964 
L 332.516429 96.956368 
L 332.841409 101.3472 
L 333.166388 103.34304 
L 333.491368 98.153864 
L 333.816347 100.814964 
L 334.141327 101.081072 
L 334.466306 103.076932 
L 334.791286 103.476084 
L 335.116265 101.214136 
L 335.441245 101.879416 
L 335.766224 99.218296 
L 336.091204 99.750532 
L 336.416183 100.548856 
L 336.741163 96.557196 
L 337.066143 99.085252 
L 337.391122 99.218296 
L 337.716102 99.484424 
L 338.041081 98.553036 
L 338.366061 100.149704 
L 338.69104 98.0208 
L 339.01602 97.754692 
L 339.340999 98.0208 
L 339.665979 98.819144 
L 339.990958 100.01664 
L 340.315938 98.68608 
L 340.640917 100.01664 
L 340.965897 99.484424 
L 341.290876 97.887756 
L 341.940835 102.67776 
L 342.265815 99.085252 
L 342.915774 98.0208 
L 343.240753 95.625788 
L 343.890713 101.3472 
L 344.215692 98.553036 
L 344.540672 98.819144 
L 344.865651 101.613308 
L 345.51561 99.484424 
L 345.84059 99.218296 
L 346.165569 101.613308 
L 346.490549 100.149704 
L 346.815528 96.424132 
L 347.140508 98.819144 
L 347.465487 99.35136 
L 347.790467 97.887756 
L 348.115446 98.0208 
L 348.440426 102.411632 
L 348.765405 98.952188 
L 349.415364 102.145524 
L 349.740344 99.617468 
L 350.065324 100.149704 
L 350.390303 96.956368 
L 350.715283 98.68608 
L 351.040262 99.484424 
L 351.365242 96.823304 
L 351.690221 100.01664 
L 352.015201 99.35136 
L 352.34018 99.617468 
L 352.66516 98.68608 
L 352.990139 100.149704 
L 353.315119 99.883576 
L 353.640098 98.819144 
L 353.965078 101.081072 
L 354.290057 98.153864 
L 354.615037 97.754692 
L 354.940016 99.883576 
L 355.264996 95.226636 
L 355.589975 98.68608 
L 355.914955 97.621648 
L 356.239934 98.286928 
L 356.564914 101.081072 
L 356.889894 98.819144 
L 357.214873 98.553036 
L 357.539853 100.01664 
L 357.864832 99.35136 
L 358.839771 96.823304 
L 359.48973 98.419972 
L 359.814709 98.153864 
L 360.139689 99.883576 
L 360.464668 96.158024 
L 360.789648 97.222476 
L 361.114627 97.488584 
L 361.439607 100.282748 
L 362.089566 96.02496 
L 362.414545 94.162184 
L 362.739525 97.621648 
L 363.064505 96.158024 
L 363.389484 101.3472 
L 363.714464 96.291068 
L 364.039443 97.887756 
L 364.364423 97.35552 
L 364.689402 93.629948 
L 365.014382 97.35552 
L 365.339361 104.806644 
L 365.664341 99.085252 
L 365.98932 96.557196 
L 366.3143 98.419972 
L 366.639279 95.891916 
L 366.964259 96.158024 
L 367.289238 97.488584 
L 367.614218 94.960508 
L 367.939197 98.553036 
L 368.264177 98.819144 
L 368.589156 97.887756 
L 368.914136 94.960508 
L 369.239115 96.557196 
L 369.564095 96.823304 
L 369.889075 94.295228 
L 370.214054 97.621648 
L 370.539034 97.621648 
L 370.864013 99.617468 
L 371.188993 99.883576 
L 371.513972 95.758852 
L 371.838952 97.35552 
L 372.163931 95.093572 
L 372.488911 96.557196 
L 372.81389 97.089412 
L 373.13887 98.286928 
L 373.463849 97.35552 
L 373.788829 94.6944 
L 374.113808 97.35552 
L 374.438788 97.887756 
L 374.763767 94.6944 
L 375.088747 98.419972 
L 375.413726 94.428292 
L 375.738706 97.089412 
L 376.063686 93.496904 
L 376.388665 95.891916 
L 376.713645 95.492744 
L 377.038624 95.35968 
L 377.363604 99.484424 
L 377.688583 97.754692 
L 378.013563 97.488584 
L 378.338542 96.291068 
L 378.663522 100.415812 
L 378.988501 94.02912 
L 379.313481 96.69024 
L 379.63846 96.823304 
L 379.96344 101.081072 
L 380.288419 95.758852 
L 380.613399 97.35552 
L 380.938378 95.093572 
L 381.263358 96.956368 
L 381.588337 95.226636 
L 381.913317 99.617468 
L 382.238296 97.887756 
L 382.563276 93.230796 
L 382.888256 96.956368 
L 383.213235 97.35552 
L 383.538215 98.553036 
L 383.863194 99.218296 
L 384.188174 95.492744 
L 384.513153 93.896076 
L 384.838133 94.960508 
L 385.163112 97.754692 
L 385.813071 94.960508 
L 386.138051 96.823304 
L 386.46303 97.488584 
L 386.78801 95.093572 
L 387.112989 93.896076 
L 387.437969 97.621648 
L 387.762948 98.153864 
L 388.737887 95.492744 
L 389.062867 97.35552 
L 389.387846 98.153864 
L 389.712826 94.428292 
L 390.037805 96.424132 
L 390.687764 96.158024 
L 391.012744 100.415812 
L 391.337723 96.291068 
L 391.662703 96.158024 
L 391.987682 98.286928 
L 392.312662 97.621648 
L 392.637641 97.222476 
L 392.962621 94.960508 
L 393.2876 94.827464 
L 393.61258 94.960508 
L 393.937559 97.35552 
L 394.262539 95.492744 
L 394.587518 97.089412 
L 394.912498 93.496904 
L 395.237477 96.158024 
L 395.887437 96.424132 
L 396.212416 95.758852 
L 396.537396 98.553036 
L 396.862375 97.089412 
L 397.187355 97.887756 
L 397.512334 95.758852 
L 398.162293 97.222476 
L 398.487273 93.496904 
L 398.487273 93.496904 
" style="fill:none;stroke:#ff7f0e;stroke-linecap:square;stroke-width:1.5;"/>
   </g>
   <g id="line2d_14">
    <path clip-path="url(#p0ad111bdd4)" d="M 73.832727 278.97696 
L 74.157707 264.074687 
L 75.457625 236.931261 
L 75.782604 230.41152 
L 76.107584 226.685953 
L 76.432563 219.76704 
L 76.757543 217.904254 
L 77.082523 212.315906 
L 77.732482 208.45728 
L 78.70742 199.14336 
L 79.0324 198.078908 
L 79.357379 195.284734 
L 79.682359 194.087238 
L 80.007338 193.421958 
L 80.332318 191.82528 
L 80.657297 191.16 
L 80.982277 186.769148 
L 81.307256 185.571652 
L 81.957215 184.5072 
L 82.607174 179.318014 
L 82.932154 181.713026 
L 83.257133 180.51552 
L 83.582113 177.987464 
L 83.907093 178.120518 
L 84.232072 175.592452 
L 84.557052 176.257732 
L 84.882031 173.995784 
L 85.207011 173.19744 
L 85.53199 171.2016 
L 85.85697 172.132988 
L 86.506929 169.87104 
L 86.831908 169.87104 
L 87.156888 166.810758 
L 87.481867 168.54049 
L 88.131826 166.943802 
L 88.456806 164.947962 
L 89.106765 163.085186 
L 89.431744 166.411586 
L 89.756724 163.484358 
L 90.406683 161.2224 
L 90.731663 160.157948 
L 91.056642 161.2224 
L 91.381622 160.823228 
L 91.706601 159.492668 
L 92.031581 159.89184 
L 92.35656 159.89184 
L 93.006519 157.363784 
L 93.331499 158.428216 
L 93.656478 156.831548 
L 93.981458 156.299332 
L 94.306437 158.428216 
L 94.631417 156.166268 
L 94.956396 155.767096 
L 95.281376 154.835708 
L 95.606355 154.436536 
L 95.931335 154.303492 
L 96.256314 153.90432 
L 96.581294 152.57376 
L 96.906274 155.101816 
L 97.231253 153.372094 
L 97.556233 152.440706 
L 97.881212 151.90849 
L 98.206192 150.57793 
L 98.531171 153.90432 
L 98.856151 154.303492 
L 99.18113 149.646522 
L 99.50611 153.372094 
L 99.831089 151.775426 
L 100.156069 151.110146 
L 100.481048 149.380414 
L 100.806028 150.178758 
L 101.131007 147.91679 
L 101.455987 148.981242 
L 101.780966 149.646522 
L 102.105946 149.779586 
L 102.430925 150.178758 
L 102.755905 148.449026 
L 103.080885 148.182918 
L 103.405864 148.715134 
L 103.730844 146.187068 
L 104.055823 146.187068 
L 104.380803 146.719294 
L 105.030762 144.856508 
L 105.355741 146.187068 
L 105.680721 144.723464 
L 106.0057 144.856508 
L 106.33068 144.856508 
L 106.655659 144.723464 
L 106.980639 145.654852 
L 107.630598 145.25568 
L 107.955577 145.654852 
L 108.280557 143.25984 
L 108.605536 144.457346 
L 108.930516 143.792076 
L 109.255495 143.525948 
L 109.580475 142.195388 
L 109.905455 141.397064 
L 110.230434 139.534268 
L 110.555414 141.264 
L 110.880393 140.59872 
L 111.205373 139.534268 
L 111.855332 141.92928 
L 112.180311 141.130936 
L 112.505291 139.002052 
L 112.83027 141.796216 
L 113.15525 142.461496 
L 113.480229 142.062344 
L 113.805209 138.336772 
L 114.130188 138.735924 
L 114.455168 138.469816 
L 114.780147 139.002052 
L 115.105127 137.538428 
L 115.430106 142.328452 
L 115.755086 138.735924 
L 116.080066 137.671492 
L 116.405045 135.409524 
L 116.730025 138.60288 
L 117.055004 137.139256 
L 117.379984 139.401204 
L 117.704963 138.070654 
L 118.029943 138.735924 
L 118.354922 137.804536 
L 118.679902 138.868988 
L 119.004881 134.6112 
L 119.329861 135.675632 
L 119.65484 138.203708 
L 119.97982 135.542588 
L 120.304799 135.409524 
L 120.629779 138.336772 
L 120.954758 134.478136 
L 121.604717 134.744244 
L 121.929697 135.27648 
L 122.254676 133.413704 
L 122.579656 134.345072 
L 122.904636 134.478136 
L 123.229615 135.675632 
L 123.554595 135.94176 
L 123.879574 136.873148 
L 124.204554 136.207868 
L 124.529533 136.074804 
L 124.854513 136.340932 
L 125.504472 134.212028 
L 125.829451 136.074804 
L 126.154431 136.473976 
L 126.47941 135.542588 
L 126.80439 132.748424 
L 127.129369 135.542588 
L 127.454349 133.28064 
L 127.779328 134.212028 
L 128.104308 133.147576 
L 128.429287 131.151756 
L 129.079247 134.078964 
L 129.404226 131.95008 
L 129.729206 132.216188 
L 130.054185 133.28064 
L 130.379165 132.083144 
L 130.704144 133.812856 
L 131.029124 132.216188 
L 131.354103 132.881468 
L 131.679083 131.550928 
L 132.004062 131.817036 
L 132.329042 130.61952 
L 132.654021 131.550928 
L 132.979001 131.817036 
L 133.30398 130.885648 
L 133.62896 130.353412 
L 134.603898 132.482296 
L 134.928878 129.422024 
L 135.253857 129.422024 
L 135.578837 133.014532 
L 135.903817 130.353412 
L 136.228796 132.083144 
L 136.553776 129.688132 
L 136.878755 128.756744 
L 137.203735 129.555068 
L 137.853694 129.95424 
L 138.178673 128.490636 
L 138.503653 130.087304 
L 138.828632 128.357572 
L 139.153612 128.756744 
L 139.803571 132.216188 
L 140.45353 129.821196 
L 140.778509 132.083144 
L 141.103489 130.353412 
L 141.428468 129.422024 
L 141.753448 131.683972 
L 142.403407 130.087304 
L 142.728387 127.29312 
L 143.053366 128.756744 
L 143.378346 130.885648 
L 143.703325 128.756744 
L 144.028305 128.889788 
L 144.353284 129.688132 
L 144.678264 128.62368 
L 145.003243 132.61536 
L 145.328223 129.555068 
L 145.653202 128.490636 
L 145.978182 128.357572 
L 146.303161 127.559228 
L 146.628141 128.62368 
L 146.95312 128.889788 
L 147.2781 129.422024 
L 147.603079 128.357572 
L 147.928059 128.490636 
L 148.253038 127.825356 
L 148.578018 128.490636 
L 148.902998 127.692292 
L 149.227977 127.559228 
L 149.552957 125.829496 
L 149.877936 129.555068 
L 150.202916 125.829496 
L 150.527895 128.091464 
L 150.852875 124.232828 
L 151.177854 128.357572 
L 151.502834 127.29312 
L 152.152793 129.422024 
L 152.477772 124.898108 
L 152.802752 125.829496 
L 153.127731 124.632 
L 153.452711 124.498936 
L 153.77769 126.893948 
L 154.10267 126.228668 
L 154.427649 128.490636 
L 154.752629 126.494796 
L 155.077609 127.692292 
L 155.402588 124.765064 
L 155.727568 125.829496 
L 156.377527 127.160076 
L 156.702506 127.160076 
L 157.027486 126.361732 
L 157.677445 125.96256 
L 158.002424 124.765064 
L 158.327404 126.228668 
L 158.652383 124.498936 
L 158.977363 125.829496 
L 159.302342 126.228668 
L 159.627322 126.893948 
L 160.277281 125.430344 
L 160.60226 126.893948 
L 160.92724 124.099784 
L 161.252219 127.559228 
L 161.577199 123.833656 
L 161.902179 124.498936 
L 162.227158 124.365892 
L 162.552138 122.63616 
L 162.877117 123.96672 
L 163.202097 124.765064 
L 163.527076 125.164216 
L 163.852056 127.559228 
L 164.502015 123.168376 
L 164.826994 123.700612 
L 165.151974 122.103924 
L 165.476953 125.829496 
L 165.801933 122.902268 
L 166.126912 125.829496 
L 166.451892 123.434504 
L 166.776871 123.30144 
L 167.101851 123.035332 
L 167.42683 127.027012 
L 167.75181 123.833656 
L 168.07679 123.30144 
L 168.401769 124.498936 
L 168.726749 123.833656 
L 169.051728 124.365892 
L 169.376708 124.099784 
L 169.701687 126.893948 
L 170.026667 123.30144 
L 170.351646 123.168376 
L 170.676626 124.099784 
L 171.001605 122.503096 
L 171.326585 122.103924 
L 171.651564 122.769204 
L 171.976544 124.232828 
L 172.301523 124.099784 
L 172.626503 124.099784 
L 172.951482 124.365892 
L 173.276462 123.833656 
L 173.601441 123.833656 
L 173.926421 124.099784 
L 174.2514 121.172536 
L 174.57638 121.039492 
L 174.90136 119.575868 
L 175.551319 125.96256 
L 175.876298 124.765064 
L 176.201278 122.103924 
L 176.526257 124.099784 
L 176.851237 121.837816 
L 177.176216 123.700612 
L 177.501196 121.97088 
L 177.826175 123.700612 
L 178.151155 121.97088 
L 178.476134 122.236988 
L 178.801114 121.704772 
L 179.126093 121.97088 
L 179.451073 121.837816 
L 179.776052 122.769204 
L 180.101032 121.837816 
L 180.426011 122.63616 
L 180.750991 121.039492 
L 181.075971 123.168376 
L 181.40095 121.039492 
L 181.72593 120.108084 
L 182.050909 119.97504 
L 182.375889 122.503096 
L 182.700868 121.3056 
L 183.025848 122.769204 
L 183.350827 122.902268 
L 183.675807 120.64032 
L 184.000786 119.30976 
L 184.325766 119.708932 
L 184.650745 123.567548 
L 184.975725 121.172536 
L 185.300704 122.63616 
L 185.625684 122.503096 
L 185.950663 122.103924 
L 186.275643 123.567548 
L 186.600622 120.906428 
L 186.925602 120.108084 
L 187.250581 123.434504 
L 187.575561 121.837816 
L 187.900541 122.503096 
L 188.22552 119.575868 
L 188.5505 122.63616 
L 188.875479 122.63616 
L 189.525438 118.910588 
L 189.850418 120.108084 
L 190.825356 121.571708 
L 191.150336 120.108084 
L 191.475315 122.769204 
L 192.125274 120.241148 
L 192.450254 117.846136 
L 192.775233 120.773364 
L 193.100213 122.103924 
L 193.425192 121.97088 
L 193.750172 122.370052 
L 194.075152 119.176696 
L 194.400131 121.704772 
L 194.725111 119.176696 
L 195.05009 121.438644 
L 195.37507 121.039492 
L 195.700049 119.30976 
L 196.025029 121.438644 
L 196.350008 121.438644 
L 196.999967 118.64448 
L 197.324947 120.64032 
L 197.649926 120.906428 
L 197.974906 119.30976 
L 198.299885 121.571708 
L 198.624865 119.575868 
L 198.949844 119.043632 
L 199.274824 122.63616 
L 199.599803 121.837816 
L 199.924783 118.910588 
L 200.249762 121.571708 
L 200.574742 119.97504 
L 200.899722 121.438644 
L 201.549681 118.511416 
L 201.87466 120.906428 
L 202.19964 119.575868 
L 202.524619 120.241148 
L 202.849599 119.442804 
L 203.174578 120.773364 
L 203.824537 118.910588 
L 204.149517 120.108084 
L 204.474496 119.97504 
L 204.799476 119.176696 
L 205.124455 121.039492 
L 205.449435 116.781704 
L 205.774414 120.241148 
L 206.099394 116.781704 
L 206.424373 119.176696 
L 206.749353 118.245308 
L 207.074333 120.773364 
L 207.399312 119.442804 
L 207.724292 119.708932 
L 208.049271 117.846136 
L 208.374251 117.31392 
L 208.69923 119.043632 
L 209.02421 119.176696 
L 209.349189 119.575868 
L 209.999148 117.713072 
L 210.324128 117.180856 
L 210.649107 122.103924 
L 210.974087 120.108084 
L 211.299066 116.515576 
L 211.624046 119.043632 
L 211.949025 117.180856 
L 212.274005 118.511416 
L 212.598984 117.9792 
L 212.923964 117.180856 
L 213.248943 119.442804 
L 213.573923 118.112244 
L 214.223882 116.781704 
L 214.548862 116.781704 
L 215.198821 118.64448 
L 215.5238 121.172536 
L 215.84878 115.584188 
L 216.173759 118.910588 
L 216.498739 118.777524 
L 216.823718 114.918928 
L 217.148698 115.850296 
L 217.473677 119.708932 
L 217.798657 117.580028 
L 218.123636 118.511416 
L 218.448616 117.846136 
L 218.773595 118.910588 
L 219.098575 117.580028 
L 219.423554 117.580028 
L 220.073514 116.382532 
L 220.398493 116.382532 
L 221.373432 117.713072 
L 221.698411 115.185036 
L 222.023391 119.575868 
L 222.34837 117.713072 
L 222.67335 118.64448 
L 222.998329 114.386692 
L 223.323309 119.176696 
L 223.648288 117.047812 
L 223.973268 116.249468 
L 224.298247 118.112244 
L 224.623227 114.386692 
L 224.948206 117.446964 
L 225.273186 116.382532 
L 225.598165 117.9792 
L 225.923145 116.781704 
L 226.248124 118.511416 
L 226.573104 119.043632 
L 226.898084 116.382532 
L 227.548043 120.108084 
L 227.873022 117.446964 
L 228.198002 116.515576 
L 228.522981 117.31392 
L 228.847961 115.584188 
L 229.17294 116.249468 
L 229.49792 115.051972 
L 229.822899 117.047812 
L 230.472858 116.382532 
L 230.797838 114.6528 
L 231.122817 115.717252 
L 231.447797 118.112244 
L 231.772776 117.9792 
L 232.097756 117.580028 
L 232.422735 115.051972 
L 232.747715 116.515576 
L 233.397674 113.455304 
L 233.722654 118.511416 
L 234.047633 119.176696 
L 234.372613 116.515576 
L 234.697592 117.846136 
L 235.347551 114.120584 
L 235.99751 115.584188 
L 236.32249 118.777524 
L 236.647469 116.382532 
L 236.972449 115.98336 
L 237.297428 116.914748 
L 237.622408 115.717252 
L 237.947387 116.64864 
L 238.597346 114.918928 
L 238.922326 115.584188 
L 239.247305 116.781704 
L 239.572285 114.253648 
L 239.897265 117.180856 
L 240.222244 115.451144 
L 240.547224 115.584188 
L 240.872203 113.721412 
L 241.197183 116.64864 
L 241.522162 116.116424 
L 242.172121 117.713072 
L 242.497101 115.051972 
L 242.82208 113.455304 
L 243.14706 116.382532 
L 243.472039 115.584188 
L 243.797019 113.854476 
L 244.121998 116.64864 
L 244.446978 116.914748 
L 244.771957 113.98752 
L 245.096937 113.588368 
L 245.421916 116.914748 
L 245.746896 117.9792 
L 246.396855 116.116424 
L 246.721835 116.515576 
L 247.046814 117.846136 
L 247.371794 113.98752 
L 247.696773 117.580028 
L 248.021753 112.923068 
L 248.346732 115.850296 
L 248.671712 117.713072 
L 248.996691 113.98752 
L 249.321671 112.790024 
L 249.64665 112.923068 
L 249.97163 116.64864 
L 250.296609 115.31808 
L 250.621589 113.056132 
L 250.946568 112.390852 
L 251.271548 114.120584 
L 251.596527 114.519756 
L 251.921507 114.6528 
L 252.246486 116.382532 
L 252.571466 114.253648 
L 252.896446 115.051972 
L 253.221425 114.918928 
L 253.546405 115.051972 
L 253.871384 114.519756 
L 254.196364 114.253648 
L 254.521343 115.051972 
L 255.171302 115.584188 
L 255.496282 114.386692 
L 255.821261 115.451144 
L 256.146241 113.721412 
L 256.47122 113.588368 
L 256.7962 114.253648 
L 257.121179 116.64864 
L 257.771138 113.721412 
L 258.096118 117.580028 
L 258.421097 116.382532 
L 258.746077 114.519756 
L 259.071057 113.854476 
L 259.396036 112.257788 
L 259.721016 118.64448 
L 260.045995 113.588368 
L 260.370975 116.249468 
L 260.695954 112.65696 
L 261.020934 116.249468 
L 261.345913 114.253648 
L 261.670893 113.189196 
L 261.995872 110.128904 
L 262.320852 116.116424 
L 262.970811 112.523916 
L 263.29579 114.386692 
L 263.62077 114.918928 
L 263.945749 113.189196 
L 264.270729 113.98752 
L 264.595708 113.854476 
L 264.920688 116.116424 
L 265.570647 112.257788 
L 265.895627 113.056132 
L 266.545586 113.455304 
L 266.870565 113.189196 
L 267.195545 116.382532 
L 267.520524 114.519756 
L 267.845504 116.382532 
L 268.170483 112.257788 
L 268.495463 115.584188 
L 268.820442 114.386692 
L 269.145422 115.051972 
L 269.470401 115.185036 
L 269.795381 114.6528 
L 270.12036 115.185036 
L 270.44534 112.65696 
L 270.770319 111.592508 
L 271.095299 115.31808 
L 271.420278 113.32224 
L 271.745258 116.116424 
L 272.070238 111.725572 
L 272.395217 112.790024 
L 272.720197 111.858636 
L 273.045176 112.923068 
L 273.370156 115.717252 
L 273.695135 115.185036 
L 274.020115 115.185036 
L 274.345094 114.519756 
L 274.670074 114.918928 
L 275.320033 110.261948 
L 275.645012 113.721412 
L 275.969992 113.189196 
L 276.294971 115.31808 
L 276.619951 113.32224 
L 276.94493 114.120584 
L 277.26991 110.794184 
L 277.594889 111.060292 
L 277.919869 114.918928 
L 278.244848 112.923068 
L 278.569828 114.785864 
L 278.894808 115.717252 
L 279.219787 111.459464 
L 279.544767 113.588368 
L 280.194726 114.918928 
L 280.519705 114.785864 
L 280.844685 111.3264 
L 281.169664 114.918928 
L 281.494644 113.588368 
L 281.819623 115.185036 
L 282.144603 113.588368 
L 282.469582 113.721412 
L 282.794562 112.124744 
L 283.444521 113.721412 
L 283.7695 115.31808 
L 284.09448 113.32224 
L 284.419459 114.785864 
L 284.744439 112.390852 
L 285.069419 113.056132 
L 285.394398 111.3264 
L 285.719378 113.056132 
L 286.044357 109.197496 
L 286.369337 113.189196 
L 286.694316 113.056132 
L 287.019296 111.060292 
L 287.344275 112.65696 
L 287.669255 110.927228 
L 287.994234 112.124744 
L 288.319214 110.927228 
L 288.644193 114.386692 
L 288.969173 111.858636 
L 289.294152 114.253648 
L 289.619132 110.794184 
L 289.944111 111.060292 
L 290.269091 110.261948 
L 290.59407 115.051972 
L 290.91905 112.390852 
L 291.244029 114.519756 
L 291.569009 113.056132 
L 291.893989 112.790024 
L 292.218968 113.854476 
L 292.543948 111.3264 
L 293.193907 114.519756 
L 293.518886 110.927228 
L 293.843866 112.257788 
L 294.168845 111.193356 
L 294.818804 112.790024 
L 295.143784 112.523916 
L 295.468763 113.588368 
L 295.793743 113.588368 
L 296.118722 114.253648 
L 296.443702 113.056132 
L 296.768681 114.120584 
L 297.093661 111.725572 
L 297.41864 111.858636 
L 297.74362 110.66112 
L 298.0686 113.854476 
L 298.393579 111.99168 
L 298.718559 111.99168 
L 299.043538 112.124744 
L 299.693497 109.33056 
L 300.018477 111.060292 
L 300.343456 113.854476 
L 300.668436 111.3264 
L 300.993415 109.99584 
L 301.318395 114.386692 
L 301.643374 110.528076 
L 302.293333 111.725572 
L 302.618313 109.596668 
L 302.943292 113.98752 
L 303.268272 111.459464 
L 303.593251 111.725572 
L 303.918231 114.120584 
L 304.24321 111.193356 
L 304.56819 110.66112 
L 304.89317 113.721412 
L 305.218149 110.261948 
L 305.543129 110.261948 
L 305.868108 111.725572 
L 306.193088 111.193356 
L 306.518067 108.399172 
L 306.843047 112.790024 
L 307.168026 111.99168 
L 307.493006 109.99584 
L 307.817985 111.060292 
L 308.142965 112.790024 
L 308.467944 110.528076 
L 308.792924 114.785864 
L 309.117903 114.386692 
L 309.442883 111.592508 
L 309.767862 111.858636 
L 310.092842 111.725572 
L 310.417821 110.528076 
L 310.742801 111.592508 
L 311.067781 109.197496 
L 311.39276 110.66112 
L 311.71774 108.532216 
L 312.042719 112.923068 
L 312.367699 112.124744 
L 312.692678 110.927228 
L 313.017658 111.592508 
L 313.342637 111.725572 
L 313.992596 111.060292 
L 314.317576 110.128904 
L 314.642555 109.99584 
L 314.967535 110.528076 
L 315.292514 110.66112 
L 315.942473 111.99168 
L 316.267453 111.858636 
L 316.592432 109.99584 
L 316.917412 113.455304 
L 317.242391 111.193356 
L 317.567371 113.056132 
L 317.892351 111.592508 
L 318.21733 112.923068 
L 318.54231 110.66112 
L 318.867289 113.854476 
L 319.192269 111.725572 
L 319.517248 112.390852 
L 319.842228 108.399172 
L 320.167207 113.721412 
L 320.817166 110.128904 
L 321.142146 110.528076 
L 321.467125 113.854476 
L 321.792105 111.060292 
L 322.442064 113.98752 
L 323.092023 110.927228 
L 323.417002 110.261948 
L 323.741982 109.33056 
L 324.066962 111.99168 
L 324.391941 109.064452 
L 324.716921 112.523916 
L 325.0419 110.927228 
L 325.36688 111.99168 
L 326.016839 110.128904 
L 326.341818 113.056132 
L 326.666798 110.128904 
L 326.991777 111.060292 
L 327.316757 110.927228 
L 327.966716 113.189196 
L 328.291695 108.266108 
L 328.616675 109.862796 
L 328.941654 112.923068 
L 329.266634 110.927228 
L 329.591613 111.060292 
L 329.916593 106.66944 
L 330.241572 113.854476 
L 330.566552 111.3264 
L 330.891532 111.858636 
L 331.216511 107.33472 
L 331.541491 110.927228 
L 332.19145 110.66112 
L 332.516429 113.721412 
L 332.841409 112.523916 
L 333.166388 108.931388 
L 333.491368 109.33056 
L 333.816347 107.467784 
L 334.141327 110.528076 
L 334.466306 108.399172 
L 334.791286 109.197496 
L 335.116265 114.6528 
L 335.441245 110.927228 
L 335.766224 108.931388 
L 336.416183 114.785864 
L 336.741163 109.99584 
L 337.391122 110.66112 
L 337.716102 109.33056 
L 338.041081 111.459464 
L 338.366061 110.261948 
L 338.69104 110.927228 
L 339.340999 110.128904 
L 339.665979 113.455304 
L 340.315938 108.266108 
L 340.640917 111.99168 
L 340.965897 107.733892 
L 341.290876 110.66112 
L 341.615856 112.390852 
L 341.940835 111.193356 
L 342.265815 111.858636 
L 342.590794 112.790024 
L 343.240753 109.729732 
L 343.565733 111.3264 
L 343.890713 109.862796 
L 344.215692 109.862796 
L 344.540672 115.185036 
L 345.190631 111.725572 
L 345.51561 108.399172 
L 345.84059 111.99168 
L 346.165569 107.733892 
L 346.490549 110.528076 
L 346.815528 109.596668 
L 347.140508 109.729732 
L 347.465487 111.459464 
L 347.790467 111.858636 
L 348.115446 108.798344 
L 348.440426 109.197496 
L 348.765405 109.862796 
L 349.090385 107.866936 
L 349.415364 111.3264 
L 349.740344 108.931388 
L 350.065324 108.399172 
L 350.715283 111.725572 
L 351.040262 111.99168 
L 351.690221 108 
L 352.34018 110.66112 
L 352.66516 111.060292 
L 352.990139 112.390852 
L 353.315119 109.064452 
L 353.640098 109.596668 
L 353.965078 109.729732 
L 354.290057 109.596668 
L 354.615037 110.528076 
L 354.940016 108.931388 
L 355.264996 111.459464 
L 355.914955 107.201656 
L 356.239934 109.197496 
L 356.564914 109.463624 
L 356.889894 108.931388 
L 357.214873 109.596668 
L 357.539853 106.536376 
L 358.189812 113.32224 
L 358.514791 110.261948 
L 358.839771 109.99584 
L 359.16475 110.66112 
L 359.48973 108 
L 359.814709 111.858636 
L 360.139689 107.733892 
L 360.464668 109.064452 
L 360.789648 109.33056 
L 361.114627 109.064452 
L 361.439607 113.189196 
L 361.764586 111.3264 
L 362.089566 108.532216 
L 362.414545 110.528076 
L 362.739525 107.733892 
L 363.064505 113.056132 
L 363.389484 109.064452 
L 363.714464 109.862796 
L 364.039443 108.399172 
L 364.364423 112.390852 
L 364.689402 112.65696 
L 365.014382 105.871096 
L 365.339361 106.66944 
L 365.664341 111.060292 
L 365.98932 111.193356 
L 366.3143 108 
L 366.639279 112.257788 
L 366.964259 109.463624 
L 367.289238 110.927228 
L 367.614218 108.399172 
L 367.939197 108.931388 
L 368.264177 110.261948 
L 368.589156 112.257788 
L 368.914136 108.133064 
L 369.239115 109.596668 
L 369.564095 106.536376 
L 369.889075 110.261948 
L 370.214054 109.862796 
L 370.539034 110.395012 
L 370.864013 113.98752 
L 371.188993 106.137204 
L 371.513972 111.060292 
L 371.838952 109.99584 
L 372.163931 112.523916 
L 372.81389 106.137204 
L 373.13887 111.060292 
L 373.463849 106.403332 
L 373.788829 112.790024 
L 374.113808 107.866936 
L 374.438788 107.33472 
L 374.763767 109.33056 
L 375.088747 108.133064 
L 375.413726 112.257788 
L 375.738706 109.596668 
L 376.063686 109.596668 
L 376.388665 108 
L 376.713645 109.463624 
L 377.038624 108.532216 
L 377.363604 108.399172 
L 377.688583 106.935548 
L 378.013563 110.261948 
L 378.338542 110.66112 
L 378.663522 108.798344 
L 378.988501 108.66528 
L 379.313481 109.862796 
L 379.63846 109.862796 
L 379.96344 106.66944 
L 380.613399 109.862796 
L 380.938378 106.270268 
L 381.263358 110.261948 
L 381.588337 107.600828 
L 381.913317 107.866936 
L 382.238296 108.798344 
L 382.563276 107.600828 
L 382.888256 104.141364 
L 383.213235 109.463624 
L 383.538215 108.266108 
L 383.863194 109.197496 
L 384.188174 106.270268 
L 384.513153 107.467784 
L 384.838133 105.33888 
L 385.163112 110.128904 
L 385.813071 107.068612 
L 386.138051 109.33056 
L 386.46303 110.528076 
L 386.78801 109.729732 
L 387.112989 107.600828 
L 387.437969 108.266108 
L 387.762948 110.395012 
L 388.087928 108.399172 
L 388.412907 107.33472 
L 388.737887 107.201656 
L 389.062867 111.060292 
L 389.387846 108.66528 
L 389.712826 108.931388 
L 390.037805 108.532216 
L 390.687764 105.738052 
L 391.012744 106.00416 
L 391.662703 110.128904 
L 391.987682 108.931388 
L 392.312662 108.399172 
L 392.637641 109.862796 
L 392.962621 108.532216 
L 393.2876 110.794184 
L 393.61258 107.866936 
L 393.937559 109.729732 
L 394.262539 104.806644 
L 394.587518 108.532216 
L 395.237477 104.939708 
L 395.562457 109.33056 
L 395.887437 106.935548 
L 396.212416 109.596668 
L 396.537396 109.862796 
L 396.862375 111.060292 
L 397.187355 107.866936 
L 397.512334 107.600828 
L 397.837314 110.528076 
L 398.162293 104.540536 
L 398.487273 107.467784 
L 398.487273 107.467784 
" style="fill:none;stroke:#2ca02c;stroke-linecap:square;stroke-width:1.5;"/>
   </g>
   <g id="patch_3">
    <path d="M 57.6 307.584 
L 57.6 41.472 
" style="fill:none;stroke:#000000;stroke-linecap:square;stroke-linejoin:miter;stroke-width:0.8;"/>
   </g>
   <g id="patch_4">
    <path d="M 414.72 307.584 
L 414.72 41.472 
" style="fill:none;stroke:#000000;stroke-linecap:square;stroke-linejoin:miter;stroke-width:0.8;"/>
   </g>
   <g id="patch_5">
    <path d="M 57.6 307.584 
L 414.72 307.584 
" style="fill:none;stroke:#000000;stroke-linecap:square;stroke-linejoin:miter;stroke-width:0.8;"/>
   </g>
   <g id="patch_6">
    <path d="M 57.6 41.472 
L 414.72 41.472 
" style="fill:none;stroke:#000000;stroke-linecap:square;stroke-linejoin:miter;stroke-width:0.8;"/>
   </g>
   <g id="legend_1">
    <g id="patch_7">
     <path d="M 64.6 93.506375 
L 166.378125 93.506375 
Q 168.378125 93.506375 168.378125 91.506375 
L 168.378125 48.472 
Q 168.378125 46.472 166.378125 46.472 
L 64.6 46.472 
Q 62.6 46.472 62.6 48.472 
L 62.6 91.506375 
Q 62.6 93.506375 64.6 93.506375 
z
" style="fill:#ffffff;opacity:0.8;stroke:#cccccc;stroke-linejoin:miter;"/>
    </g>
    <g id="line2d_15">
     <path d="M 66.6 54.570438 
L 86.6 54.570438 
" style="fill:none;stroke:#1f77b4;stroke-linecap:square;stroke-width:1.5;"/>
    </g>
    <g id="line2d_16"/>
    <g id="text_14">
     <!-- =0, init=5 -->
     <defs>
      <path d="M 19.28125 29.5 
Q 13.8125 30.671875 10.890625 33.84375 
Q 7.953125 36.96875 7.953125 41.5 
Q 7.953125 48.390625 13.53125 52.25 
Q 19.046875 56.0625 28.609375 56.0625 
Q 32.328125 56.0625 36.46875 55.46875 
Q 40.625 54.890625 45.40625 53.71875 
L 45.40625 45.5625 
Q 40.671875 46.96875 36.765625 47.609375 
Q 32.8125 48.25 29.34375 48.25 
Q 23.53125 48.25 20.171875 46 
Q 16.75 43.75 16.75 40.625 
Q 16.75 37.203125 20.0625 35.015625 
Q 23.34375 32.859375 29 32.859375 
L 36.578125 32.859375 
L 36.578125 25.4375 
L 29.34375 25.4375 
Q 22.65625 25.4375 19.140625 22.953125 
Q 15.328125 20.21875 15.328125 15.921875 
Q 15.328125 11.53125 19.4375 8.796875 
Q 23.578125 6.0625 30.953125 6.0625 
Q 35.5 6.0625 39.65625 6.9375 
Q 43.796875 7.859375 47.265625 9.671875 
L 47.265625 1.3125 
Q 42.875 -0.046875 38.765625 -0.734375 
Q 34.625 -1.421875 30.71875 -1.421875 
Q 19.09375 -1.421875 12.796875 3.03125 
Q 6.5 7.46875 6.5 15.921875 
Q 6.5 21.1875 9.859375 24.75 
Q 13.234375 28.328125 19.28125 29.5 
z
" id="DejaVuSans-3b5"/>
      <path d="M 10.59375 45.40625 
L 73.1875 45.40625 
L 73.1875 37.203125 
L 10.59375 37.203125 
z
M 10.59375 25.484375 
L 73.1875 25.484375 
L 73.1875 17.1875 
L 10.59375 17.1875 
z
" id="DejaVuSans-3d"/>
      <path d="M 11.71875 12.40625 
L 22.015625 12.40625 
L 22.015625 4 
L 14.015625 -11.625 
L 7.71875 -11.625 
L 11.71875 4 
z
" id="DejaVuSans-2c"/>
     </defs>
     <g transform="translate(94.6 58.070438)scale(0.1 -0.1)">
      <use xlink:href="#DejaVuSans-3b5"/>
      <use x="54.052734" xlink:href="#DejaVuSans-3d"/>
      <use x="137.841797" xlink:href="#DejaVuSans-30"/>
      <use x="201.464844" xlink:href="#DejaVuSans-2c"/>
      <use x="233.251953" xlink:href="#DejaVuSans-20"/>
      <use x="265.039062" xlink:href="#DejaVuSans-69"/>
      <use x="292.822266" xlink:href="#DejaVuSans-6e"/>
      <use x="356.201172" xlink:href="#DejaVuSans-69"/>
      <use x="383.984375" xlink:href="#DejaVuSans-74"/>
      <use x="423.193359" xlink:href="#DejaVuSans-3d"/>
      <use x="506.982422" xlink:href="#DejaVuSans-35"/>
     </g>
    </g>
    <g id="line2d_17">
     <path d="M 66.6 69.248563 
L 86.6 69.248563 
" style="fill:none;stroke:#ff7f0e;stroke-linecap:square;stroke-width:1.5;"/>
    </g>
    <g id="line2d_18"/>
    <g id="text_15">
     <!-- =0.1, init=0, -->
     <defs>
      <path d="M 10.6875 12.40625 
L 21 12.40625 
L 21 0 
L 10.6875 0 
z
" id="DejaVuSans-2e"/>
     </defs>
     <g transform="translate(94.6 72.748563)scale(0.1 -0.1)">
      <use xlink:href="#DejaVuSans-3b5"/>
      <use x="54.052734" xlink:href="#DejaVuSans-3d"/>
      <use x="137.841797" xlink:href="#DejaVuSans-30"/>
      <use x="201.464844" xlink:href="#DejaVuSans-2e"/>
      <use x="233.251953" xlink:href="#DejaVuSans-31"/>
      <use x="296.875" xlink:href="#DejaVuSans-2c"/>
      <use x="328.662109" xlink:href="#DejaVuSans-20"/>
      <use x="360.449219" xlink:href="#DejaVuSans-69"/>
      <use x="388.232422" xlink:href="#DejaVuSans-6e"/>
      <use x="451.611328" xlink:href="#DejaVuSans-69"/>
      <use x="479.394531" xlink:href="#DejaVuSans-74"/>
      <use x="518.603516" xlink:href="#DejaVuSans-3d"/>
      <use x="602.392578" xlink:href="#DejaVuSans-30"/>
      <use x="666.015625" xlink:href="#DejaVuSans-2c"/>
     </g>
    </g>
    <g id="line2d_19">
     <path d="M 66.6 83.926688 
L 86.6 83.926688 
" style="fill:none;stroke:#2ca02c;stroke-linecap:square;stroke-width:1.5;"/>
    </g>
    <g id="line2d_20"/>
    <g id="text_16">
     <!-- =0.2, init=0 -->
     <defs>
      <path d="M 36.234375 9.96875 
Q 37.984375 7.625 43.265625 7.625 
L 47.609375 7.625 
L 47.609375 0 
L 42.1875 0 
Q 33.40625 0 29.390625 4.6875 
Q 25.390625 9.46875 25.390625 19.828125 
L 25.390625 45.703125 
L 4.890625 45.703125 
L 4.890625 54.6875 
L 55.328125 54.6875 
L 55.328125 45.703125 
L 34.578125 45.703125 
L 34.578125 19.28125 
Q 34.578125 12.203125 36.234375 9.96875 
z
" id="DejaVuSans-3c4"/>
     </defs>
     <g transform="translate(94.6 87.426688)scale(0.1 -0.1)">
      <use xlink:href="#DejaVuSans-3c4"/>
      <use x="60.205078" xlink:href="#DejaVuSans-3d"/>
      <use x="143.994141" xlink:href="#DejaVuSans-30"/>
      <use x="207.617188" xlink:href="#DejaVuSans-2e"/>
      <use x="239.404297" xlink:href="#DejaVuSans-32"/>
      <use x="303.027344" xlink:href="#DejaVuSans-2c"/>
      <use x="334.814453" xlink:href="#DejaVuSans-20"/>
      <use x="366.601562" xlink:href="#DejaVuSans-69"/>
      <use x="394.384766" xlink:href="#DejaVuSans-6e"/>
      <use x="457.763672" xlink:href="#DejaVuSans-69"/>
      <use x="485.546875" xlink:href="#DejaVuSans-74"/>
      <use x="524.755859" xlink:href="#DejaVuSans-3d"/>
      <use x="608.544922" xlink:href="#DejaVuSans-30"/>
     </g>
    </g>
   </g>
  </g>
 </g>
 <defs>
  <clipPath id="p0ad111bdd4">
   <rect height="266.112" width="357.12" x="57.6" y="41.472"/>
  </clipPath>
 </defs>
</svg>
