<?xml version="1.0" encoding="utf-8" standalone="no"?>
<!DOCTYPE svg PUBLIC "-//W3C//DTD SVG 1.1//EN"
  "http://www.w3.org/Graphics/SVG/1.1/DTD/svg11.dtd">
<!-- Created with matplotlib (http://matplotlib.org/) -->
<svg height="345.6pt" version="1.1" viewBox="0 0 460.8 345.6" width="460.8pt" xmlns="http://www.w3.org/2000/svg" xmlns:xlink="http://www.w3.org/1999/xlink">
 <defs>
  <style type="text/css">
*{stroke-linecap:butt;stroke-linejoin:round;}
  </style>
 </defs>
 <g id="figure_1">
  <g id="patch_1">
   <path d="M 0 345.6 
L 460.8 345.6 
L 460.8 0 
L 0 0 
z
" style="fill:#ffffff;"/>
  </g>
  <g id="axes_1">
   <g id="patch_2">
    <path d="M 57.6 307.584 
L 414.72 307.584 
L 414.72 41.472 
L 57.6 41.472 
z
" style="fill:#ffffff;"/>
   </g>
   <g id="matplotlib.axis_1">
    <g id="xtick_1">
     <g id="line2d_1">
      <defs>
       <path d="M 0 0 
L 0 3.5 
" id="m9035f6e0f2" style="stroke:#000000;stroke-width:0.8;"/>
      </defs>
      <g>
       <use style="stroke:#000000;stroke-width:0.8;" x="73.832727" xlink:href="#m9035f6e0f2" y="307.584"/>
      </g>
     </g>
     <g id="text_1">
      <!-- 0 -->
      <defs>
       <path d="M 31.78125 66.40625 
Q 24.171875 66.40625 20.328125 58.90625 
Q 16.5 51.421875 16.5 36.375 
Q 16.5 21.390625 20.328125 13.890625 
Q 24.171875 6.390625 31.78125 6.390625 
Q 39.453125 6.390625 43.28125 13.890625 
Q 47.125 21.390625 47.125 36.375 
Q 47.125 51.421875 43.28125 58.90625 
Q 39.453125 66.40625 31.78125 66.40625 
z
M 31.78125 74.21875 
Q 44.046875 74.21875 50.515625 64.515625 
Q 56.984375 54.828125 56.984375 36.375 
Q 56.984375 17.96875 50.515625 8.265625 
Q 44.046875 -1.421875 31.78125 -1.421875 
Q 19.53125 -1.421875 13.0625 8.265625 
Q 6.59375 17.96875 6.59375 36.375 
Q 6.59375 54.828125 13.0625 64.515625 
Q 19.53125 74.21875 31.78125 74.21875 
z
" id="DejaVuSans-30"/>
      </defs>
      <g transform="translate(70.651477 322.182437)scale(0.1 -0.1)">
       <use xlink:href="#DejaVuSans-30"/>
      </g>
     </g>
    </g>
    <g id="xtick_2">
     <g id="line2d_2">
      <g>
       <use style="stroke:#000000;stroke-width:0.8;" x="155.077609" xlink:href="#m9035f6e0f2" y="307.584"/>
      </g>
     </g>
     <g id="text_2">
      <!-- 250 -->
      <defs>
       <path d="M 19.1875 8.296875 
L 53.609375 8.296875 
L 53.609375 0 
L 7.328125 0 
L 7.328125 8.296875 
Q 12.9375 14.109375 22.625 23.890625 
Q 32.328125 33.6875 34.8125 36.53125 
Q 39.546875 41.84375 41.421875 45.53125 
Q 43.3125 49.21875 43.3125 52.78125 
Q 43.3125 58.59375 39.234375 62.25 
Q 35.15625 65.921875 28.609375 65.921875 
Q 23.96875 65.921875 18.8125 64.3125 
Q 13.671875 62.703125 7.8125 59.421875 
L 7.8125 69.390625 
Q 13.765625 71.78125 18.9375 73 
Q 24.125 74.21875 28.421875 74.21875 
Q 39.75 74.21875 46.484375 68.546875 
Q 53.21875 62.890625 53.21875 53.421875 
Q 53.21875 48.921875 51.53125 44.890625 
Q 49.859375 40.875 45.40625 35.40625 
Q 44.1875 33.984375 37.640625 27.21875 
Q 31.109375 20.453125 19.1875 8.296875 
z
" id="DejaVuSans-32"/>
       <path d="M 10.796875 72.90625 
L 49.515625 72.90625 
L 49.515625 64.59375 
L 19.828125 64.59375 
L 19.828125 46.734375 
Q 21.96875 47.46875 24.109375 47.828125 
Q 26.265625 48.1875 28.421875 48.1875 
Q 40.625 48.1875 47.75 41.5 
Q 54.890625 34.8125 54.890625 23.390625 
Q 54.890625 11.625 47.5625 5.09375 
Q 40.234375 -1.421875 26.90625 -1.421875 
Q 22.3125 -1.421875 17.546875 -0.640625 
Q 12.796875 0.140625 7.71875 1.703125 
L 7.71875 11.625 
Q 12.109375 9.234375 16.796875 8.0625 
Q 21.484375 6.890625 26.703125 6.890625 
Q 35.15625 6.890625 40.078125 11.328125 
Q 45.015625 15.765625 45.015625 23.390625 
Q 45.015625 31 40.078125 35.4375 
Q 35.15625 39.890625 26.703125 39.890625 
Q 22.75 39.890625 18.8125 39.015625 
Q 14.890625 38.140625 10.796875 36.28125 
z
" id="DejaVuSans-35"/>
      </defs>
      <g transform="translate(145.533859 322.182437)scale(0.1 -0.1)">
       <use xlink:href="#DejaVuSans-32"/>
       <use x="63.623047" xlink:href="#DejaVuSans-35"/>
       <use x="127.246094" xlink:href="#DejaVuSans-30"/>
      </g>
     </g>
    </g>
    <g id="xtick_3">
     <g id="line2d_3">
      <g>
       <use style="stroke:#000000;stroke-width:0.8;" x="236.32249" xlink:href="#m9035f6e0f2" y="307.584"/>
      </g>
     </g>
     <g id="text_3">
      <!-- 500 -->
      <g transform="translate(226.77874 322.182437)scale(0.1 -0.1)">
       <use xlink:href="#DejaVuSans-35"/>
       <use x="63.623047" xlink:href="#DejaVuSans-30"/>
       <use x="127.246094" xlink:href="#DejaVuSans-30"/>
      </g>
     </g>
    </g>
    <g id="xtick_4">
     <g id="line2d_4">
      <g>
       <use style="stroke:#000000;stroke-width:0.8;" x="317.567371" xlink:href="#m9035f6e0f2" y="307.584"/>
      </g>
     </g>
     <g id="text_4">
      <!-- 750 -->
      <defs>
       <path d="M 8.203125 72.90625 
L 55.078125 72.90625 
L 55.078125 68.703125 
L 28.609375 0 
L 18.3125 0 
L 43.21875 64.59375 
L 8.203125 64.59375 
z
" id="DejaVuSans-37"/>
      </defs>
      <g transform="translate(308.023621 322.182437)scale(0.1 -0.1)">
       <use xlink:href="#DejaVuSans-37"/>
       <use x="63.623047" xlink:href="#DejaVuSans-35"/>
       <use x="127.246094" xlink:href="#DejaVuSans-30"/>
      </g>
     </g>
    </g>
    <g id="xtick_5">
     <g id="line2d_5">
      <g>
       <use style="stroke:#000000;stroke-width:0.8;" x="398.812252" xlink:href="#m9035f6e0f2" y="307.584"/>
      </g>
     </g>
     <g id="text_5">
      <!-- 1000 -->
      <defs>
       <path d="M 12.40625 8.296875 
L 28.515625 8.296875 
L 28.515625 63.921875 
L 10.984375 60.40625 
L 10.984375 69.390625 
L 28.421875 72.90625 
L 38.28125 72.90625 
L 38.28125 8.296875 
L 54.390625 8.296875 
L 54.390625 0 
L 12.40625 0 
z
" id="DejaVuSans-31"/>
      </defs>
      <g transform="translate(386.087252 322.182437)scale(0.1 -0.1)">
       <use xlink:href="#DejaVuSans-31"/>
       <use x="63.623047" xlink:href="#DejaVuSans-30"/>
       <use x="127.246094" xlink:href="#DejaVuSans-30"/>
       <use x="190.869141" xlink:href="#DejaVuSans-30"/>
      </g>
     </g>
    </g>
    <g id="text_6">
     <!-- Steps -->
     <defs>
      <path d="M 53.515625 70.515625 
L 53.515625 60.890625 
Q 47.90625 63.578125 42.921875 64.890625 
Q 37.9375 66.21875 33.296875 66.21875 
Q 25.25 66.21875 20.875 63.09375 
Q 16.5 59.96875 16.5 54.203125 
Q 16.5 49.359375 19.40625 46.890625 
Q 22.3125 44.4375 30.421875 42.921875 
L 36.375 41.703125 
Q 47.40625 39.59375 52.65625 34.296875 
Q 57.90625 29 57.90625 20.125 
Q 57.90625 9.515625 50.796875 4.046875 
Q 43.703125 -1.421875 29.984375 -1.421875 
Q 24.8125 -1.421875 18.96875 -0.25 
Q 13.140625 0.921875 6.890625 3.21875 
L 6.890625 13.375 
Q 12.890625 10.015625 18.65625 8.296875 
Q 24.421875 6.59375 29.984375 6.59375 
Q 38.421875 6.59375 43.015625 9.90625 
Q 47.609375 13.234375 47.609375 19.390625 
Q 47.609375 24.75 44.3125 27.78125 
Q 41.015625 30.8125 33.5 32.328125 
L 27.484375 33.5 
Q 16.453125 35.6875 11.515625 40.375 
Q 6.59375 45.0625 6.59375 53.421875 
Q 6.59375 63.09375 13.40625 68.65625 
Q 20.21875 74.21875 32.171875 74.21875 
Q 37.3125 74.21875 42.625 73.28125 
Q 47.953125 72.359375 53.515625 70.515625 
z
" id="DejaVuSans-53"/>
      <path d="M 18.3125 70.21875 
L 18.3125 54.6875 
L 36.8125 54.6875 
L 36.8125 47.703125 
L 18.3125 47.703125 
L 18.3125 18.015625 
Q 18.3125 11.328125 20.140625 9.421875 
Q 21.96875 7.515625 27.59375 7.515625 
L 36.8125 7.515625 
L 36.8125 0 
L 27.59375 0 
Q 17.1875 0 13.234375 3.875 
Q 9.28125 7.765625 9.28125 18.015625 
L 9.28125 47.703125 
L 2.6875 47.703125 
L 2.6875 54.6875 
L 9.28125 54.6875 
L 9.28125 70.21875 
z
" id="DejaVuSans-74"/>
      <path d="M 56.203125 29.59375 
L 56.203125 25.203125 
L 14.890625 25.203125 
Q 15.484375 15.921875 20.484375 11.0625 
Q 25.484375 6.203125 34.421875 6.203125 
Q 39.59375 6.203125 44.453125 7.46875 
Q 49.3125 8.734375 54.109375 11.28125 
L 54.109375 2.78125 
Q 49.265625 0.734375 44.1875 -0.34375 
Q 39.109375 -1.421875 33.890625 -1.421875 
Q 20.796875 -1.421875 13.15625 6.1875 
Q 5.515625 13.8125 5.515625 26.8125 
Q 5.515625 40.234375 12.765625 48.109375 
Q 20.015625 56 32.328125 56 
Q 43.359375 56 49.78125 48.890625 
Q 56.203125 41.796875 56.203125 29.59375 
z
M 47.21875 32.234375 
Q 47.125 39.59375 43.09375 43.984375 
Q 39.0625 48.390625 32.421875 48.390625 
Q 24.90625 48.390625 20.390625 44.140625 
Q 15.875 39.890625 15.1875 32.171875 
z
" id="DejaVuSans-65"/>
      <path d="M 18.109375 8.203125 
L 18.109375 -20.796875 
L 9.078125 -20.796875 
L 9.078125 54.6875 
L 18.109375 54.6875 
L 18.109375 46.390625 
Q 20.953125 51.265625 25.265625 53.625 
Q 29.59375 56 35.59375 56 
Q 45.5625 56 51.78125 48.09375 
Q 58.015625 40.1875 58.015625 27.296875 
Q 58.015625 14.40625 51.78125 6.484375 
Q 45.5625 -1.421875 35.59375 -1.421875 
Q 29.59375 -1.421875 25.265625 0.953125 
Q 20.953125 3.328125 18.109375 8.203125 
z
M 48.6875 27.296875 
Q 48.6875 37.203125 44.609375 42.84375 
Q 40.53125 48.484375 33.40625 48.484375 
Q 26.265625 48.484375 22.1875 42.84375 
Q 18.109375 37.203125 18.109375 27.296875 
Q 18.109375 17.390625 22.1875 11.75 
Q 26.265625 6.109375 33.40625 6.109375 
Q 40.53125 6.109375 44.609375 11.75 
Q 48.6875 17.390625 48.6875 27.296875 
z
" id="DejaVuSans-70"/>
      <path d="M 44.28125 53.078125 
L 44.28125 44.578125 
Q 40.484375 46.53125 36.375 47.5 
Q 32.28125 48.484375 27.875 48.484375 
Q 21.1875 48.484375 17.84375 46.4375 
Q 14.5 44.390625 14.5 40.28125 
Q 14.5 37.15625 16.890625 35.375 
Q 19.28125 33.59375 26.515625 31.984375 
L 29.59375 31.296875 
Q 39.15625 29.25 43.1875 25.515625 
Q 47.21875 21.78125 47.21875 15.09375 
Q 47.21875 7.46875 41.1875 3.015625 
Q 35.15625 -1.421875 24.609375 -1.421875 
Q 20.21875 -1.421875 15.453125 -0.5625 
Q 10.6875 0.296875 5.421875 2 
L 5.421875 11.28125 
Q 10.40625 8.6875 15.234375 7.390625 
Q 20.0625 6.109375 24.8125 6.109375 
Q 31.15625 6.109375 34.5625 8.28125 
Q 37.984375 10.453125 37.984375 14.40625 
Q 37.984375 18.0625 35.515625 20.015625 
Q 33.0625 21.96875 24.703125 23.78125 
L 21.578125 24.515625 
Q 13.234375 26.265625 9.515625 29.90625 
Q 5.8125 33.546875 5.8125 39.890625 
Q 5.8125 47.609375 11.28125 51.796875 
Q 16.75 56 26.8125 56 
Q 31.78125 56 36.171875 55.265625 
Q 40.578125 54.546875 44.28125 53.078125 
z
" id="DejaVuSans-73"/>
     </defs>
     <g transform="translate(222.170156 335.860562)scale(0.1 -0.1)">
      <use xlink:href="#DejaVuSans-53"/>
      <use x="63.476562" xlink:href="#DejaVuSans-74"/>
      <use x="102.685547" xlink:href="#DejaVuSans-65"/>
      <use x="164.208984" xlink:href="#DejaVuSans-70"/>
      <use x="227.685547" xlink:href="#DejaVuSans-73"/>
     </g>
    </g>
   </g>
   <g id="matplotlib.axis_2">
    <g id="ytick_1">
     <g id="line2d_6">
      <defs>
       <path d="M 0 0 
L -3.5 0 
" id="mb46651f8a8" style="stroke:#000000;stroke-width:0.8;"/>
      </defs>
      <g>
       <use style="stroke:#000000;stroke-width:0.8;" x="57.6" xlink:href="#mb46651f8a8" y="287.03112"/>
      </g>
     </g>
     <g id="text_7">
      <!-- 0.0 -->
      <defs>
       <path d="M 10.6875 12.40625 
L 21 12.40625 
L 21 0 
L 10.6875 0 
z
" id="DejaVuSans-2e"/>
      </defs>
      <g transform="translate(34.696875 290.830338)scale(0.1 -0.1)">
       <use xlink:href="#DejaVuSans-30"/>
       <use x="63.623047" xlink:href="#DejaVuSans-2e"/>
       <use x="95.410156" xlink:href="#DejaVuSans-30"/>
      </g>
     </g>
    </g>
    <g id="ytick_2">
     <g id="line2d_7">
      <g>
       <use style="stroke:#000000;stroke-width:0.8;" x="57.6" xlink:href="#mb46651f8a8" y="210.453029"/>
      </g>
     </g>
     <g id="text_8">
      <!-- 0.5 -->
      <g transform="translate(34.696875 214.252248)scale(0.1 -0.1)">
       <use xlink:href="#DejaVuSans-30"/>
       <use x="63.623047" xlink:href="#DejaVuSans-2e"/>
       <use x="95.410156" xlink:href="#DejaVuSans-35"/>
      </g>
     </g>
    </g>
    <g id="ytick_3">
     <g id="line2d_8">
      <g>
       <use style="stroke:#000000;stroke-width:0.8;" x="57.6" xlink:href="#mb46651f8a8" y="133.874939"/>
      </g>
     </g>
     <g id="text_9">
      <!-- 1.0 -->
      <g transform="translate(34.696875 137.674158)scale(0.1 -0.1)">
       <use xlink:href="#DejaVuSans-31"/>
       <use x="63.623047" xlink:href="#DejaVuSans-2e"/>
       <use x="95.410156" xlink:href="#DejaVuSans-30"/>
      </g>
     </g>
    </g>
    <g id="ytick_4">
     <g id="line2d_9">
      <g>
       <use style="stroke:#000000;stroke-width:0.8;" x="57.6" xlink:href="#mb46651f8a8" y="57.296849"/>
      </g>
     </g>
     <g id="text_10">
      <!-- 1.5 -->
      <g transform="translate(34.696875 61.096068)scale(0.1 -0.1)">
       <use xlink:href="#DejaVuSans-31"/>
       <use x="63.623047" xlink:href="#DejaVuSans-2e"/>
       <use x="95.410156" xlink:href="#DejaVuSans-35"/>
      </g>
     </g>
    </g>
    <g id="text_11">
     <!-- Average reward -->
     <defs>
      <path d="M 34.1875 63.1875 
L 20.796875 26.90625 
L 47.609375 26.90625 
z
M 28.609375 72.90625 
L 39.796875 72.90625 
L 67.578125 0 
L 57.328125 0 
L 50.6875 18.703125 
L 17.828125 18.703125 
L 11.1875 0 
L 0.78125 0 
z
" id="DejaVuSans-41"/>
      <path d="M 2.984375 54.6875 
L 12.5 54.6875 
L 29.59375 8.796875 
L 46.6875 54.6875 
L 56.203125 54.6875 
L 35.6875 0 
L 23.484375 0 
z
" id="DejaVuSans-76"/>
      <path d="M 41.109375 46.296875 
Q 39.59375 47.171875 37.8125 47.578125 
Q 36.03125 48 33.890625 48 
Q 26.265625 48 22.1875 43.046875 
Q 18.109375 38.09375 18.109375 28.8125 
L 18.109375 0 
L 9.078125 0 
L 9.078125 54.6875 
L 18.109375 54.6875 
L 18.109375 46.1875 
Q 20.953125 51.171875 25.484375 53.578125 
Q 30.03125 56 36.53125 56 
Q 37.453125 56 38.578125 55.875 
Q 39.703125 55.765625 41.0625 55.515625 
z
" id="DejaVuSans-72"/>
      <path d="M 34.28125 27.484375 
Q 23.390625 27.484375 19.1875 25 
Q 14.984375 22.515625 14.984375 16.5 
Q 14.984375 11.71875 18.140625 8.90625 
Q 21.296875 6.109375 26.703125 6.109375 
Q 34.1875 6.109375 38.703125 11.40625 
Q 43.21875 16.703125 43.21875 25.484375 
L 43.21875 27.484375 
z
M 52.203125 31.203125 
L 52.203125 0 
L 43.21875 0 
L 43.21875 8.296875 
Q 40.140625 3.328125 35.546875 0.953125 
Q 30.953125 -1.421875 24.3125 -1.421875 
Q 15.921875 -1.421875 10.953125 3.296875 
Q 6 8.015625 6 15.921875 
Q 6 25.140625 12.171875 29.828125 
Q 18.359375 34.515625 30.609375 34.515625 
L 43.21875 34.515625 
L 43.21875 35.40625 
Q 43.21875 41.609375 39.140625 45 
Q 35.0625 48.390625 27.6875 48.390625 
Q 23 48.390625 18.546875 47.265625 
Q 14.109375 46.140625 10.015625 43.890625 
L 10.015625 52.203125 
Q 14.9375 54.109375 19.578125 55.046875 
Q 24.21875 56 28.609375 56 
Q 40.484375 56 46.34375 49.84375 
Q 52.203125 43.703125 52.203125 31.203125 
z
" id="DejaVuSans-61"/>
      <path d="M 45.40625 27.984375 
Q 45.40625 37.75 41.375 43.109375 
Q 37.359375 48.484375 30.078125 48.484375 
Q 22.859375 48.484375 18.828125 43.109375 
Q 14.796875 37.75 14.796875 27.984375 
Q 14.796875 18.265625 18.828125 12.890625 
Q 22.859375 7.515625 30.078125 7.515625 
Q 37.359375 7.515625 41.375 12.890625 
Q 45.40625 18.265625 45.40625 27.984375 
z
M 54.390625 6.78125 
Q 54.390625 -7.171875 48.1875 -13.984375 
Q 42 -20.796875 29.203125 -20.796875 
Q 24.46875 -20.796875 20.265625 -20.09375 
Q 16.0625 -19.390625 12.109375 -17.921875 
L 12.109375 -9.1875 
Q 16.0625 -11.328125 19.921875 -12.34375 
Q 23.78125 -13.375 27.78125 -13.375 
Q 36.625 -13.375 41.015625 -8.765625 
Q 45.40625 -4.15625 45.40625 5.171875 
L 45.40625 9.625 
Q 42.625 4.78125 38.28125 2.390625 
Q 33.9375 0 27.875 0 
Q 17.828125 0 11.671875 7.65625 
Q 5.515625 15.328125 5.515625 27.984375 
Q 5.515625 40.671875 11.671875 48.328125 
Q 17.828125 56 27.875 56 
Q 33.9375 56 38.28125 53.609375 
Q 42.625 51.21875 45.40625 46.390625 
L 45.40625 54.6875 
L 54.390625 54.6875 
z
" id="DejaVuSans-67"/>
      <path id="DejaVuSans-20"/>
      <path d="M 4.203125 54.6875 
L 13.1875 54.6875 
L 24.421875 12.015625 
L 35.59375 54.6875 
L 46.1875 54.6875 
L 57.421875 12.015625 
L 68.609375 54.6875 
L 77.59375 54.6875 
L 63.28125 0 
L 52.6875 0 
L 40.921875 44.828125 
L 29.109375 0 
L 18.5 0 
z
" id="DejaVuSans-77"/>
      <path d="M 45.40625 46.390625 
L 45.40625 75.984375 
L 54.390625 75.984375 
L 54.390625 0 
L 45.40625 0 
L 45.40625 8.203125 
Q 42.578125 3.328125 38.25 0.953125 
Q 33.9375 -1.421875 27.875 -1.421875 
Q 17.96875 -1.421875 11.734375 6.484375 
Q 5.515625 14.40625 5.515625 27.296875 
Q 5.515625 40.1875 11.734375 48.09375 
Q 17.96875 56 27.875 56 
Q 33.9375 56 38.25 53.625 
Q 42.578125 51.265625 45.40625 46.390625 
z
M 14.796875 27.296875 
Q 14.796875 17.390625 18.875 11.75 
Q 22.953125 6.109375 30.078125 6.109375 
Q 37.203125 6.109375 41.296875 11.75 
Q 45.40625 17.390625 45.40625 27.296875 
Q 45.40625 37.203125 41.296875 42.84375 
Q 37.203125 48.484375 30.078125 48.484375 
Q 22.953125 48.484375 18.875 42.84375 
Q 14.796875 37.203125 14.796875 27.296875 
z
" id="DejaVuSans-64"/>
     </defs>
     <g transform="translate(28.617187 214.452219)rotate(-90)scale(0.1 -0.1)">
      <use xlink:href="#DejaVuSans-41"/>
      <use x="68.330078" xlink:href="#DejaVuSans-76"/>
      <use x="127.509766" xlink:href="#DejaVuSans-65"/>
      <use x="189.033203" xlink:href="#DejaVuSans-72"/>
      <use x="230.146484" xlink:href="#DejaVuSans-61"/>
      <use x="291.425781" xlink:href="#DejaVuSans-67"/>
      <use x="354.902344" xlink:href="#DejaVuSans-65"/>
      <use x="416.425781" xlink:href="#DejaVuSans-20"/>
      <use x="448.212891" xlink:href="#DejaVuSans-72"/>
      <use x="489.294922" xlink:href="#DejaVuSans-65"/>
      <use x="550.818359" xlink:href="#DejaVuSans-77"/>
      <use x="632.605469" xlink:href="#DejaVuSans-61"/>
      <use x="693.884766" xlink:href="#DejaVuSans-72"/>
      <use x="734.982422" xlink:href="#DejaVuSans-64"/>
     </g>
    </g>
   </g>
   <g id="line2d_10">
    <path clip-path="url(#pa700c6a1b4)" d="M 73.832727 286.362789 
L 74.157707 295.488 
L 74.482686 280.080694 
L 74.807666 278.83845 
L 75.132645 284.682381 
L 75.457625 281.231146 
L 75.782604 287.022622 
L 76.107584 288.555577 
L 76.432563 287.647205 
L 76.757543 288.60759 
L 77.082523 122.921414 
L 77.407502 111.261702 
L 77.732482 108.232742 
L 78.057461 106.456237 
L 78.382441 102.495114 
L 78.70742 93.92989 
L 79.0324 97.633415 
L 79.357379 88.588709 
L 79.682359 95.610907 
L 80.007338 86.385943 
L 80.332318 91.176254 
L 80.657297 82.628648 
L 80.982277 78.024984 
L 81.307256 78.296731 
L 81.632236 75.222236 
L 81.957215 73.238105 
L 82.607174 79.000326 
L 82.932154 71.963667 
L 83.257133 79.746771 
L 83.582113 77.868699 
L 83.907093 77.558703 
L 84.232072 70.781193 
L 84.557052 72.485434 
L 84.882031 71.678373 
L 85.207011 71.504488 
L 85.53199 72.557789 
L 85.85697 79.196559 
L 86.181949 77.161398 
L 86.506929 73.447867 
L 86.831908 66.831171 
L 87.156888 70.231182 
L 87.481867 70.683204 
L 87.806847 70.89921 
L 88.131826 67.707611 
L 88.456806 70.927984 
L 88.781785 69.441046 
L 89.106765 66.939895 
L 89.431744 70.746558 
L 89.756724 69.240504 
L 90.081704 72.997415 
L 90.406683 67.680261 
L 91.056642 69.371667 
L 91.381622 71.889286 
L 91.706601 71.998338 
L 92.35656 64.717046 
L 92.68154 73.970912 
L 93.006519 68.309328 
L 93.656478 78.791677 
L 94.306437 66.971809 
L 94.631417 71.333596 
L 94.956396 69.109779 
L 95.281376 70.516147 
L 95.606355 71.203437 
L 95.931335 66.312362 
L 96.256314 69.189054 
L 96.581294 64.619386 
L 96.906274 67.777063 
L 97.556233 69.747865 
L 97.881212 72.797494 
L 98.206192 67.506996 
L 98.531171 72.375596 
L 98.856151 73.901113 
L 99.18113 66.847128 
L 99.50611 67.98646 
L 99.831089 80.34292 
L 100.156069 62.167713 
L 100.481048 73.057154 
L 101.131007 68.561959 
L 101.455987 69.960585 
L 102.105946 66.061611 
L 102.430925 70.140934 
L 102.755905 69.86444 
L 103.080885 66.980865 
L 103.405864 74.784619 
L 103.730844 71.449879 
L 104.055823 71.400967 
L 104.380803 73.850686 
L 104.705782 63.598583 
L 105.355741 70.435101 
L 105.680721 73.155069 
L 106.0057 62.763278 
L 106.33068 65.160013 
L 106.655659 71.611678 
L 106.980639 74.499818 
L 107.305618 69.348023 
L 107.630598 81.913223 
L 107.955577 71.90842 
L 108.280557 68.974472 
L 108.605536 63.829359 
L 108.930516 67.86605 
L 109.255495 68.684157 
L 109.580475 75.091018 
L 110.230434 64.63401 
L 110.555414 67.374756 
L 110.880393 60.636043 
L 111.205373 70.199048 
L 111.530352 68.323021 
L 111.855332 63.826913 
L 112.180311 61.319263 
L 112.505291 66.312124 
L 112.83027 66.984298 
L 113.15525 70.745353 
L 113.480229 62.805562 
L 113.805209 66.080764 
L 114.130188 70.820356 
L 114.455168 67.314688 
L 114.780147 67.401028 
L 115.105127 71.323664 
L 115.430106 71.253262 
L 115.755086 74.868896 
L 116.405045 69.406356 
L 116.730025 68.937792 
L 117.055004 70.035587 
L 117.379984 64.776821 
L 117.704963 64.015916 
L 118.029943 67.174195 
L 118.354922 64.611407 
L 118.679902 65.157055 
L 119.004881 71.954885 
L 119.329861 67.028207 
L 119.65484 65.150537 
L 119.97982 69.788616 
L 120.304799 64.349282 
L 120.629779 64.588585 
L 120.954758 74.458774 
L 121.279738 66.197393 
L 121.604717 64.544219 
L 121.929697 69.087779 
L 122.254676 70.633142 
L 122.579656 71.31344 
L 122.904636 71.706654 
L 123.229615 63.478521 
L 123.554595 65.074056 
L 123.879574 69.047849 
L 124.204554 69.503542 
L 124.529533 66.186804 
L 124.854513 67.315418 
L 125.179492 65.164814 
L 125.504472 69.304406 
L 125.829451 70.948524 
L 126.154431 67.380415 
L 126.47941 66.592982 
L 126.80439 66.999525 
L 127.129369 74.020956 
L 127.454349 72.983356 
L 127.779328 65.131659 
L 128.104308 67.514116 
L 128.429287 67.859259 
L 128.754267 66.867704 
L 129.079247 66.836995 
L 129.404226 72.056544 
L 129.729206 65.924734 
L 130.054185 70.376841 
L 130.379165 66.618524 
L 130.704144 67.088786 
L 131.029124 69.364637 
L 131.354103 70.455897 
L 131.679083 70.792202 
L 132.004062 67.823401 
L 132.329042 66.265969 
L 132.654021 69.916347 
L 132.979001 68.582918 
L 133.30398 70.863626 
L 133.62896 68.322199 
L 133.953939 59.936246 
L 134.603898 72.599508 
L 135.253857 62.325222 
L 135.578837 70.590291 
L 135.903817 73.261055 
L 136.553776 64.848391 
L 136.878755 71.955944 
L 137.203735 63.806373 
L 137.528714 64.362391 
L 137.853694 75.639843 
L 138.178673 70.330357 
L 138.503653 61.850815 
L 138.828632 68.87672 
L 139.153612 70.958949 
L 139.478591 68.657391 
L 139.803571 72.921445 
L 140.45353 66.305278 
L 140.778509 72.489396 
L 141.103489 68.668182 
L 141.428468 74.11659 
L 141.753448 73.726515 
L 142.078428 67.742592 
L 142.403407 71.438048 
L 142.728387 69.855951 
L 143.053366 67.393086 
L 143.378346 67.201235 
L 143.703325 63.148039 
L 144.028305 74.2504 
L 144.678264 64.17085 
L 145.003243 68.345368 
L 145.328223 69.004615 
L 145.653202 73.519948 
L 145.978182 70.207118 
L 146.303161 65.286921 
L 146.628141 68.993587 
L 146.95312 67.924146 
L 147.2781 65.564419 
L 147.928059 73.285009 
L 148.253038 63.439504 
L 148.578018 71.313403 
L 149.227977 64.052322 
L 149.552957 62.195392 
L 149.877936 65.431266 
L 150.202916 62.692986 
L 150.527895 66.804789 
L 150.852875 66.294232 
L 151.177854 67.369899 
L 151.502834 65.099343 
L 151.827813 68.810883 
L 152.152793 68.313563 
L 152.477772 68.759251 
L 152.802752 69.919871 
L 153.127731 63.191638 
L 153.77769 70.192804 
L 154.10267 64.68997 
L 154.427649 69.60321 
L 154.752629 65.984053 
L 155.077609 63.768196 
L 155.402588 67.402945 
L 155.727568 67.60734 
L 156.052547 73.114921 
L 156.377527 63.347924 
L 156.702506 69.478839 
L 157.027486 66.827665 
L 157.352465 66.775576 
L 157.677445 70.086435 
L 158.002424 63.520878 
L 158.327404 62.172844 
L 158.652383 73.117568 
L 158.977363 64.394835 
L 159.302342 67.44963 
L 159.627322 67.225061 
L 159.952301 64.423719 
L 160.277281 64.66293 
L 160.60226 69.626908 
L 160.92724 61.533644 
L 161.252219 68.960578 
L 161.577199 73.811742 
L 161.902179 72.390677 
L 162.552138 64.263124 
L 163.202097 68.633602 
L 163.527076 63.471619 
L 163.852056 64.480792 
L 164.177035 68.067268 
L 164.502015 72.886573 
L 164.826994 69.170157 
L 165.151974 62.932252 
L 165.476953 64.983315 
L 165.801933 63.608332 
L 166.126912 65.924971 
L 166.451892 71.355104 
L 166.776871 73.879314 
L 167.101851 65.546709 
L 167.75181 69.582561 
L 168.07679 68.311573 
L 168.401769 68.451116 
L 168.726749 69.078778 
L 169.051728 68.023103 
L 169.376708 65.449962 
L 169.701687 67.808849 
L 170.026667 64.375299 
L 170.351646 66.185928 
L 170.676626 67.282007 
L 171.001605 69.654386 
L 171.326585 63.10548 
L 171.976544 75.154263 
L 172.301523 74.86256 
L 172.626503 71.914901 
L 172.951482 72.408697 
L 173.276462 66.621025 
L 173.601441 67.050427 
L 173.926421 68.620365 
L 174.2514 71.382965 
L 174.57638 70.553064 
L 174.90136 70.817672 
L 175.226339 69.676734 
L 175.551319 62.452368 
L 175.876298 70.135329 
L 176.201278 74.259273 
L 176.526257 63.734694 
L 176.851237 68.106558 
L 177.501196 68.665552 
L 178.151155 70.033013 
L 178.476134 65.216666 
L 178.801114 64.05643 
L 179.126093 61.957805 
L 179.451073 67.324894 
L 179.776052 64.494869 
L 180.101032 67.310909 
L 180.426011 68.819081 
L 180.750991 71.683778 
L 181.075971 69.153579 
L 181.40095 64.264658 
L 181.72593 68.062484 
L 182.050909 67.37722 
L 182.375889 72.102206 
L 182.700868 64.148941 
L 183.350827 68.690474 
L 183.675807 70.605025 
L 184.000786 70.95559 
L 184.325766 70.616016 
L 184.650745 67.328655 
L 184.975725 67.671661 
L 185.300704 64.892283 
L 185.625684 68.039388 
L 185.950663 67.742136 
L 186.275643 65.963732 
L 186.925602 67.425074 
L 187.250581 71.972321 
L 187.575561 67.968074 
L 187.900541 65.430372 
L 188.22552 70.035241 
L 188.5505 65.069546 
L 188.875479 68.339526 
L 189.200459 66.241029 
L 189.525438 65.158388 
L 189.850418 73.2981 
L 190.175397 63.363388 
L 190.825356 70.101899 
L 191.150336 72.296121 
L 191.475315 60.688826 
L 191.800295 67.930463 
L 192.125274 61.481774 
L 192.450254 73.176212 
L 192.775233 69.855038 
L 193.100213 74.219326 
L 193.425192 69.278754 
L 193.750172 70.093902 
L 194.075152 64.114964 
L 194.400131 75.106227 
L 194.725111 63.790744 
L 195.05009 64.976341 
L 195.37507 70.627902 
L 195.700049 73.013828 
L 196.025029 65.599346 
L 196.350008 66.439983 
L 196.674988 65.898224 
L 196.999967 67.55976 
L 197.324947 67.685921 
L 197.649926 65.542528 
L 197.974906 69.732547 
L 198.299885 67.773539 
L 198.624865 68.513722 
L 198.949844 64.774576 
L 199.274824 71.231974 
L 199.599803 64.75944 
L 199.924783 64.821589 
L 200.249762 67.254839 
L 200.574742 71.298176 
L 200.899722 66.942871 
L 201.224701 64.884414 
L 201.549681 71.219906 
L 201.87466 70.597576 
L 202.19964 72.090704 
L 202.524619 69.891188 
L 202.849599 75.264064 
L 203.174578 69.056923 
L 203.499558 72.173886 
L 203.824537 62.160593 
L 204.149517 68.00238 
L 204.474496 64.065029 
L 204.799476 64.333215 
L 205.124455 72.031768 
L 205.449435 68.814316 
L 205.774414 68.613427 
L 206.099394 63.938175 
L 206.424373 66.960362 
L 206.749353 71.692998 
L 207.074333 74.223726 
L 207.399312 66.429795 
L 207.724292 73.660039 
L 208.049271 63.145446 
L 208.374251 68.124268 
L 208.69923 69.058731 
L 209.02421 69.360128 
L 209.349189 73.086384 
L 209.674169 70.883819 
L 209.999148 70.492576 
L 210.324128 66.867138 
L 210.649107 65.87531 
L 210.974087 75.734746 
L 211.624046 69.643286 
L 211.949025 72.232109 
L 212.274005 67.783635 
L 212.598984 71.666835 
L 212.923964 68.464938 
L 213.573923 72.178468 
L 213.898903 64.824492 
L 214.223882 68.506035 
L 214.548862 73.98707 
L 214.873841 66.813717 
L 215.198821 70.973994 
L 215.5238 71.889194 
L 215.84878 64.631965 
L 216.173759 66.410734 
L 216.498739 67.342786 
L 216.823718 64.253046 
L 217.148698 63.166534 
L 217.473677 73.769859 
L 217.798657 66.141489 
L 218.123636 68.52024 
L 218.448616 66.395525 
L 218.773595 69.503158 
L 219.098575 68.202447 
L 219.423554 65.391136 
L 219.748534 66.17417 
L 220.073514 65.528634 
L 220.723473 72.487205 
L 221.048452 63.403007 
L 221.373432 66.935605 
L 221.698411 68.547042 
L 222.023391 66.783792 
L 222.34837 71.348914 
L 222.67335 69.549642 
L 222.998329 65.488979 
L 223.323309 71.704208 
L 223.648288 66.833161 
L 223.973268 64.228891 
L 224.298247 69.385743 
L 224.623227 70.719099 
L 224.948206 76.159382 
L 225.273186 61.855179 
L 225.598165 68.914459 
L 225.923145 61.82268 
L 226.573104 67.826139 
L 226.898084 65.741993 
L 227.223063 67.735417 
L 227.548043 65.879382 
L 227.873022 61.867065 
L 228.522981 69.194166 
L 228.847961 66.902339 
L 229.17294 67.623443 
L 229.49792 69.192523 
L 229.822899 65.937971 
L 230.147879 64.123946 
L 230.472858 69.663424 
L 230.797838 66.901244 
L 231.122817 72.90421 
L 231.447797 63.361726 
L 231.772776 70.02739 
L 232.097756 65.183291 
L 232.422735 71.16139 
L 232.747715 69.048853 
L 233.072695 66.052848 
L 233.722654 73.611967 
L 234.047633 65.035769 
L 234.372613 72.726435 
L 234.697592 64.385359 
L 235.347551 67.431628 
L 235.672531 74.615389 
L 235.99751 62.419176 
L 236.32249 71.304694 
L 236.647469 71.005032 
L 236.972449 69.232854 
L 237.297428 69.312895 
L 237.622408 69.680842 
L 237.947387 67.50161 
L 238.272367 62.990238 
L 238.597346 65.299684 
L 238.922326 69.068918 
L 239.247305 63.126203 
L 239.572285 68.076561 
L 239.897265 69.625503 
L 240.222244 74.035617 
L 240.547224 60.666662 
L 240.872203 72.65114 
L 241.197183 67.36203 
L 241.522162 67.846752 
L 241.847142 66.117334 
L 242.172121 69.334366 
L 242.497101 57.254893 
L 242.82208 64.257245 
L 243.797019 70.197131 
L 244.121998 71.367793 
L 244.446978 66.563423 
L 244.771957 63.518742 
L 245.096937 67.125721 
L 245.421916 67.5189 
L 245.746896 74.435514 
L 246.396855 71.297957 
L 246.721835 70.409194 
L 247.046814 69.911235 
L 247.371794 68.597798 
L 247.696773 64.242931 
L 248.021753 67.244341 
L 248.346732 71.391327 
L 248.671712 71.885488 
L 248.996691 69.009654 
L 249.64665 57.984194 
L 249.97163 68.555441 
L 250.296609 65.872115 
L 250.621589 66.192866 
L 250.946568 69.163055 
L 251.271548 66.945592 
L 251.596527 65.568673 
L 251.921507 70.355753 
L 252.246486 64.439238 
L 252.571466 72.21617 
L 252.896446 74.167583 
L 253.221425 68.850375 
L 253.546405 67.152524 
L 253.871384 63.885009 
L 254.196364 62.99033 
L 254.521343 61.259505 
L 254.846323 62.390621 
L 255.171302 63.074023 
L 255.496282 67.789259 
L 255.821261 66.604594 
L 256.146241 62.577323 
L 256.47122 68.339471 
L 257.121179 62.523737 
L 257.446159 70.288565 
L 257.771138 61.07985 
L 258.096118 70.515161 
L 258.421097 71.057595 
L 258.746077 70.843598 
L 259.071057 68.197518 
L 259.396036 67.513404 
L 259.721016 70.008365 
L 260.045995 69.580936 
L 260.370975 65.136716 
L 260.695954 70.957087 
L 261.020934 69.028879 
L 261.345913 68.273086 
L 261.995872 70.197843 
L 262.320852 67.357046 
L 262.645831 69.825606 
L 262.970811 66.183664 
L 263.29579 65.807282 
L 263.62077 66.272651 
L 263.945749 67.678581 
L 264.270729 68.373394 
L 264.595708 71.324632 
L 264.920688 62.198204 
L 265.245667 66.071379 
L 265.570647 63.042601 
L 265.895627 68.248092 
L 266.220606 65.83885 
L 266.545586 66.250761 
L 266.870565 65.811445 
L 267.195545 65.697171 
L 267.520524 71.366113 
L 267.845504 68.717295 
L 268.170483 63.428148 
L 268.495463 70.207848 
L 268.820442 65.605463 
L 269.145422 66.927553 
L 269.470401 66.992605 
L 269.795381 70.260814 
L 270.12036 68.220577 
L 270.44534 69.81949 
L 270.770319 68.924245 
L 271.095299 74.813794 
L 271.420278 66.811398 
L 271.745258 71.42702 
L 272.070238 59.327007 
L 272.395217 64.604926 
L 272.720197 74.671385 
L 273.370156 64.657435 
L 273.695135 75.182799 
L 274.020115 61.775996 
L 274.345094 73.416373 
L 274.670074 68.939015 
L 274.995053 70.768321 
L 275.320033 66.576495 
L 275.645012 60.184368 
L 275.969992 73.042256 
L 276.294971 66.099313 
L 276.619951 62.475939 
L 276.94493 64.646352 
L 277.26991 65.708545 
L 277.594889 70.272553 
L 277.919869 71.838803 
L 278.244848 74.888578 
L 278.569828 63.209659 
L 278.894808 70.649428 
L 279.219787 66.92779 
L 279.544767 69.868731 
L 279.869746 67.242935 
L 280.194726 62.010789 
L 280.519705 62.612652 
L 280.844685 64.935079 
L 281.169664 68.075831 
L 281.494644 64.380357 
L 281.819623 63.319971 
L 282.144603 61.572624 
L 282.469582 65.085868 
L 282.794562 69.952789 
L 283.119541 70.178563 
L 283.444521 64.180308 
L 283.7695 65.892217 
L 284.09448 70.335451 
L 284.419459 71.040981 
L 284.744439 65.473478 
L 285.069419 71.925381 
L 285.394398 74.846129 
L 285.719378 62.598904 
L 286.044357 71.323354 
L 286.369337 66.10826 
L 286.694316 69.475443 
L 287.019296 68.829214 
L 287.344275 65.739346 
L 287.669255 72.039619 
L 288.319214 68.891892 
L 288.644193 64.452255 
L 288.969173 67.27359 
L 289.294152 65.561955 
L 289.619132 61.966386 
L 289.944111 72.892963 
L 290.269091 70.788131 
L 290.59407 66.682426 
L 290.91905 66.765516 
L 291.244029 68.606982 
L 291.569009 64.678906 
L 291.893989 70.100037 
L 292.218968 66.39003 
L 292.543948 68.072544 
L 292.868927 65.732426 
L 293.193907 79.924747 
L 293.518886 67.345507 
L 293.843866 73.877798 
L 294.168845 63.567454 
L 294.493825 73.167777 
L 294.818804 76.337212 
L 295.143784 68.338266 
L 295.468763 71.925089 
L 295.793743 65.432106 
L 296.118722 62.869555 
L 296.443702 65.836075 
L 296.768681 65.257034 
L 297.093661 70.031972 
L 297.41864 68.29076 
L 297.74362 63.579047 
L 298.0686 71.147149 
L 298.393579 68.079336 
L 298.718559 73.376407 
L 299.043538 64.306651 
L 299.368518 65.835089 
L 299.693497 68.434411 
L 300.018477 68.840954 
L 300.343456 69.820257 
L 300.668436 64.434929 
L 300.993415 69.527057 
L 301.318395 66.584638 
L 301.643374 68.701465 
L 301.968354 67.673706 
L 302.293333 64.236651 
L 302.618313 70.987084 
L 302.943292 66.862264 
L 303.268272 59.993594 
L 303.593251 68.134566 
L 303.918231 68.570394 
L 304.24321 74.280489 
L 304.56819 70.950076 
L 304.89317 73.112493 
L 305.218149 67.346986 
L 305.543129 65.002723 
L 305.868108 71.245941 
L 306.193088 68.560863 
L 306.518067 64.73775 
L 306.843047 63.986521 
L 307.168026 69.125718 
L 307.493006 65.919184 
L 307.817985 70.062791 
L 308.142965 71.103093 
L 308.467944 65.435082 
L 308.792924 71.219851 
L 309.117903 62.284672 
L 309.442883 68.906206 
L 310.092842 75.524309 
L 310.417821 65.088406 
L 310.742801 63.055071 
L 311.067781 72.023059 
L 311.39276 67.663208 
L 311.71774 69.979445 
L 312.042719 61.731319 
L 312.367699 65.226324 
L 312.692678 70.261526 
L 313.342637 69.1368 
L 313.667617 66.639338 
L 313.992596 68.593946 
L 314.317576 71.418585 
L 314.642555 69.745766 
L 314.967535 69.535712 
L 315.292514 66.625572 
L 315.617494 64.915762 
L 315.942473 73.520733 
L 316.592432 65.605682 
L 316.917412 66.860493 
L 317.242391 66.780835 
L 317.567371 62.692913 
L 317.892351 66.718558 
L 318.21733 67.282098 
L 318.54231 74.135669 
L 318.867289 63.92859 
L 319.192269 70.27814 
L 319.517248 70.3867 
L 319.842228 65.662883 
L 320.167207 70.84493 
L 320.492187 69.355052 
L 320.817166 70.558705 
L 321.142146 61.699113 
L 321.467125 62.820059 
L 321.792105 70.439191 
L 322.117084 64.717612 
L 322.442064 70.661751 
L 322.767043 64.895478 
L 323.092023 71.621026 
L 323.417002 69.14969 
L 323.741982 65.679333 
L 324.066962 65.912574 
L 324.391941 65.97235 
L 324.716921 66.749468 
L 325.0419 68.106248 
L 325.36688 71.242856 
L 325.691859 68.989863 
L 326.016839 64.596637 
L 326.341818 72.927196 
L 326.666798 65.706957 
L 326.991777 73.052352 
L 327.316757 67.738046 
L 327.641736 68.750743 
L 327.966716 72.687893 
L 328.291695 65.828644 
L 328.616675 69.936923 
L 328.941654 72.267 
L 329.266634 65.078547 
L 329.916593 71.296716 
L 330.241572 70.791655 
L 330.566552 67.061381 
L 330.891532 64.911088 
L 331.216511 69.145509 
L 331.541491 67.956134 
L 331.86647 68.190708 
L 332.19145 69.957189 
L 332.516429 67.400663 
L 332.841409 70.544483 
L 333.491368 65.91964 
L 333.816347 69.604196 
L 334.141327 64.660703 
L 334.466306 66.773915 
L 334.791286 65.8312 
L 335.116265 69.399217 
L 335.441245 68.560315 
L 335.766224 65.444667 
L 336.091204 71.615877 
L 336.416183 69.26747 
L 336.741163 64.994416 
L 337.066143 66.32569 
L 337.391122 55.429604 
L 337.716102 64.728311 
L 338.041081 68.341479 
L 338.366061 60.412698 
L 338.69104 64.426439 
L 339.01602 66.735446 
L 339.340999 70.254716 
L 339.665979 66.978218 
L 339.990958 62.557277 
L 340.315938 73.961655 
L 340.640917 66.825401 
L 340.965897 67.930555 
L 341.290876 67.883085 
L 341.615856 63.038767 
L 341.940835 70.89806 
L 342.265815 67.637976 
L 342.915774 72.949087 
L 343.240753 68.777782 
L 343.565733 71.184669 
L 343.890713 67.622822 
L 344.540672 72.750334 
L 344.865651 67.265575 
L 345.190631 70.588118 
L 345.84059 68.346591 
L 346.165569 67.786356 
L 346.490549 70.257272 
L 346.815528 69.13607 
L 347.140508 68.591244 
L 347.465487 63.707289 
L 347.790467 65.296744 
L 348.115446 70.886138 
L 348.765405 68.315846 
L 349.090385 72.086925 
L 349.415364 69.019568 
L 349.740344 71.258758 
L 350.065324 59.933709 
L 350.390303 70.950861 
L 350.715283 65.46329 
L 351.365242 74.614403 
L 351.690221 65.012491 
L 352.015201 70.301291 
L 352.34018 64.229987 
L 352.66516 64.13198 
L 352.990139 69.876582 
L 353.315119 69.450065 
L 353.640098 75.003929 
L 353.965078 62.354306 
L 354.290057 68.288806 
L 354.615037 70.592135 
L 354.940016 68.526174 
L 355.264996 63.35415 
L 355.589975 63.340456 
L 355.914955 64.666582 
L 356.239934 63.683097 
L 356.564914 64.03494 
L 357.214873 75.342462 
L 357.864832 65.913907 
L 358.189812 64.362227 
L 358.839771 68.911629 
L 359.16475 65.445763 
L 359.48973 74.204245 
L 359.814709 64.865846 
L 360.464668 61.945281 
L 360.789648 69.742717 
L 361.114627 68.65405 
L 361.439607 64.313114 
L 361.764586 70.020835 
L 362.089566 70.791125 
L 362.414545 63.644446 
L 362.739525 67.044329 
L 363.064505 68.107489 
L 363.389484 63.448669 
L 363.714464 63.494149 
L 364.364423 72.30262 
L 364.689402 68.686713 
L 365.014382 63.818788 
L 365.664341 67.789916 
L 365.98932 66.766283 
L 366.3143 70.131111 
L 366.639279 67.152323 
L 366.964259 74.938658 
L 367.289238 64.176857 
L 367.614218 65.30255 
L 367.939197 63.255796 
L 368.264177 70.496666 
L 368.589156 66.340972 
L 368.914136 67.107701 
L 369.239115 59.646242 
L 369.564095 66.795203 
L 369.889075 67.978956 
L 370.214054 64.751827 
L 370.539034 65.028795 
L 370.864013 71.377907 
L 371.188993 63.171135 
L 371.513972 65.459511 
L 371.838952 71.548981 
L 372.163931 62.931394 
L 372.488911 74.587911 
L 373.13887 64.93066 
L 373.463849 66.015858 
L 373.788829 64.660118 
L 374.113808 74.388483 
L 374.438788 64.674944 
L 374.763767 69.975921 
L 375.088747 66.762705 
L 375.413726 70.14161 
L 375.738706 71.320724 
L 376.388665 60.184569 
L 376.713645 68.710101 
L 377.038624 71.633861 
L 377.688583 67.257213 
L 378.013563 63.491319 
L 378.338542 68.158191 
L 378.663522 64.309681 
L 378.988501 66.443999 
L 379.313481 67.241 
L 379.63846 72.962944 
L 379.96344 65.164851 
L 380.288419 71.501512 
L 380.613399 69.961881 
L 380.938378 71.847366 
L 381.263358 70.658374 
L 381.588337 67.382825 
L 381.913317 68.3815 
L 382.238296 69.965003 
L 382.563276 63.151654 
L 382.888256 73.736411 
L 383.213235 69.851642 
L 383.538215 74.125573 
L 383.863194 66.169258 
L 384.188174 70.183675 
L 384.513153 69.67164 
L 384.838133 77.604602 
L 385.163112 67.603268 
L 385.488092 76.977671 
L 385.813071 68.817876 
L 386.138051 68.996472 
L 386.46303 63.355537 
L 386.78801 69.324598 
L 387.112989 68.477535 
L 387.437969 69.651629 
L 387.762948 67.486931 
L 388.087928 67.142719 
L 388.412907 66.332281 
L 388.737887 64.555721 
L 389.062867 68.645341 
L 389.387846 67.336049 
L 389.712826 79.910761 
L 390.037805 64.542612 
L 390.362785 68.159725 
L 390.687764 69.284085 
L 391.012744 72.635055 
L 391.337723 68.233266 
L 391.662703 71.335659 
L 391.987682 65.195305 
L 392.637641 72.894058 
L 392.962621 71.351799 
L 393.2876 66.285304 
L 393.61258 58.709114 
L 393.937559 70.414178 
L 394.262539 71.300805 
L 394.587518 72.827911 
L 394.912498 68.35269 
L 395.562457 67.488957 
L 395.887437 60.423378 
L 396.212416 69.707352 
L 396.537396 66.009997 
L 396.862375 68.427546 
L 397.512334 62.270486 
L 397.837314 64.713413 
L 398.162293 70.668562 
L 398.487273 70.026659 
L 398.487273 70.026659 
" style="fill:none;stroke:#1f77b4;stroke-linecap:square;stroke-width:1.5;"/>
   </g>
   <g id="line2d_11">
    <path clip-path="url(#pa700c6a1b4)" d="M 73.832727 275.448778 
L 74.482686 222.02023 
L 75.457625 187.244238 
L 75.782604 182.367284 
L 76.107584 183.312418 
L 76.432563 170.331858 
L 76.757543 168.826031 
L 77.082523 159.689425 
L 77.407502 157.611824 
L 77.732482 156.837381 
L 78.057461 146.163134 
L 78.382441 151.813663 
L 78.70742 153.097805 
L 79.0324 145.833118 
L 79.357379 152.019107 
L 79.682359 141.699972 
L 80.007338 143.999375 
L 80.332318 143.427884 
L 80.657297 136.73362 
L 80.982277 141.009249 
L 81.307256 141.736131 
L 81.632236 139.602361 
L 81.957215 135.77398 
L 82.282195 138.715213 
L 82.607174 134.972032 
L 82.932154 135.632785 
L 83.257133 139.078476 
L 83.582113 136.301069 
L 83.907093 130.082481 
L 84.232072 134.752347 
L 84.557052 132.687535 
L 84.882031 132.384459 
L 85.207011 130.880887 
L 85.53199 123.485484 
L 86.181949 137.438264 
L 86.831908 121.26216 
L 87.156888 130.20592 
L 87.481867 124.360755 
L 87.806847 122.611016 
L 88.131826 126.050938 
L 88.456806 125.482067 
L 88.781785 122.721621 
L 89.106765 132.017261 
L 89.431744 122.410949 
L 89.756724 120.193833 
L 90.081704 116.270083 
L 90.406683 117.22357 
L 90.731663 128.29944 
L 91.056642 119.943904 
L 91.381622 118.296663 
L 91.706601 113.625848 
L 92.35656 117.397127 
L 93.006519 115.466711 
L 93.331499 122.497782 
L 93.656478 114.990278 
L 93.981458 121.056944 
L 94.306437 114.626969 
L 94.631417 119.881463 
L 94.956396 112.138434 
L 95.281376 113.790166 
L 95.606355 124.400228 
L 95.931335 113.854178 
L 96.256314 108.290034 
L 96.581294 114.774618 
L 96.906274 111.730522 
L 97.231253 112.867042 
L 97.556233 116.676133 
L 97.881212 110.211998 
L 98.206192 109.444867 
L 98.531171 106.518021 
L 98.856151 114.297053 
L 99.18113 110.456175 
L 99.50611 108.828781 
L 99.831089 110.891474 
L 100.156069 114.413373 
L 100.481048 109.721068 
L 100.806028 106.990054 
L 101.131007 106.449701 
L 101.455987 102.075134 
L 101.780966 103.446063 
L 102.105946 105.650619 
L 102.430925 102.095765 
L 102.755905 106.132456 
L 103.080885 105.553525 
L 103.405864 106.584351 
L 103.730844 100.33708 
L 104.055823 97.242063 
L 104.380803 105.366329 
L 104.705782 108.073243 
L 105.030762 107.44047 
L 105.355741 109.21734 
L 105.680721 97.983451 
L 106.0057 105.930618 
L 106.655659 108.449533 
L 106.980639 96.999893 
L 107.305618 102.179148 
L 107.630598 100.10424 
L 107.955577 99.528796 
L 108.280557 104.536428 
L 108.930516 97.726347 
L 109.255495 103.958008 
L 109.580475 104.229188 
L 110.230434 107.85249 
L 110.880393 98.594278 
L 111.205373 104.737207 
L 111.530352 91.997172 
L 111.855332 101.336357 
L 112.180311 107.202591 
L 112.505291 102.120924 
L 112.83027 99.549591 
L 113.15525 95.190032 
L 113.480229 95.80075 
L 114.130188 109.023298 
L 114.780147 98.126956 
L 115.105127 100.257549 
L 115.430106 97.480654 
L 115.755086 102.348049 
L 116.080066 89.923835 
L 116.405045 99.848523 
L 116.730025 98.979807 
L 117.055004 95.454183 
L 117.379984 101.378988 
L 117.704963 96.580753 
L 118.029943 97.624414 
L 118.354922 90.271424 
L 118.679902 95.090364 
L 119.004881 96.2923 
L 119.329861 90.803159 
L 119.65484 95.687626 
L 119.97982 94.445778 
L 120.304799 92.759593 
L 120.629779 90.372279 
L 120.954758 98.062598 
L 121.279738 90.331236 
L 121.604717 97.337386 
L 121.929697 95.431471 
L 122.254676 95.176375 
L 122.579656 87.098703 
L 122.904636 90.985005 
L 123.229615 96.525341 
L 123.554595 92.871147 
L 123.879574 92.673837 
L 124.204554 94.251881 
L 124.854513 90.764508 
L 125.179492 95.691861 
L 125.504472 97.866584 
L 125.829451 86.021794 
L 126.154431 92.581946 
L 126.47941 94.830831 
L 126.80439 98.672677 
L 127.454349 89.554282 
L 127.779328 94.646995 
L 128.104308 96.035854 
L 128.429287 86.451524 
L 128.754267 100.893481 
L 129.079247 87.007761 
L 129.404226 87.354017 
L 129.729206 88.779629 
L 130.054185 88.197502 
L 130.379165 92.95338 
L 130.704144 94.154696 
L 131.029124 93.232996 
L 131.354103 78.683464 
L 131.679083 85.867882 
L 132.004062 90.560881 
L 132.329042 89.449155 
L 132.654021 90.51761 
L 132.979001 85.523214 
L 133.30398 90.834909 
L 133.62896 88.204586 
L 133.953939 93.857005 
L 134.278919 87.748675 
L 134.603898 91.955472 
L 135.253857 89.628536 
L 135.578837 99.734486 
L 135.903817 94.898257 
L 136.228796 94.61897 
L 136.553776 97.977663 
L 136.878755 83.685857 
L 137.203735 94.151738 
L 137.528714 87.30401 
L 137.853694 88.296805 
L 138.178673 85.59588 
L 138.503653 95.280243 
L 138.828632 92.023299 
L 139.153612 89.945562 
L 139.478591 92.36154 
L 139.803571 89.101821 
L 140.12855 80.452812 
L 140.45353 96.748048 
L 141.103489 89.400589 
L 141.428468 87.206368 
L 142.078428 91.701326 
L 142.403407 90.900089 
L 142.728387 84.679127 
L 143.053366 95.416828 
L 143.378346 93.62506 
L 143.703325 83.27621 
L 144.028305 84.644967 
L 144.353284 90.268722 
L 144.678264 98.237999 
L 145.003243 90.942191 
L 145.328223 90.56612 
L 145.653202 87.152197 
L 145.978182 92.03367 
L 146.303161 88.808969 
L 146.628141 89.789587 
L 146.95312 85.024598 
L 147.2781 89.729592 
L 147.603079 85.013552 
L 147.928059 90.906972 
L 148.253038 83.75299 
L 148.578018 85.278288 
L 148.902998 85.962712 
L 149.227977 86.922644 
L 149.552957 85.480784 
L 149.877936 86.372596 
L 150.202916 93.172618 
L 150.527895 90.252308 
L 151.177854 87.480579 
L 151.827813 91.145198 
L 152.152793 85.983179 
L 152.477772 88.862774 
L 152.802752 88.866499 
L 153.127731 87.419106 
L 153.452711 82.018898 
L 153.77769 83.906793 
L 154.10267 78.811943 
L 154.427649 84.353447 
L 155.077609 99.166162 
L 155.402588 82.723789 
L 155.727568 87.604695 
L 156.052547 80.950461 
L 156.377527 84.009985 
L 156.702506 80.778109 
L 157.027486 94.142883 
L 157.352465 75.794704 
L 157.677445 88.423459 
L 158.327404 81.998924 
L 158.652383 90.943433 
L 158.977363 79.617598 
L 159.302342 80.654541 
L 159.627322 89.199609 
L 159.952301 86.507593 
L 160.60226 87.222672 
L 160.92724 83.603131 
L 161.252219 78.263758 
L 161.577199 84.740619 
L 161.902179 80.034073 
L 162.227158 90.991761 
L 162.552138 90.934012 
L 162.877117 82.200087 
L 163.202097 80.735167 
L 163.527076 85.457724 
L 163.852056 78.018211 
L 164.177035 84.312167 
L 164.502015 87.691985 
L 164.826994 86.512103 
L 165.151974 86.172639 
L 165.476953 82.322814 
L 165.801933 86.031617 
L 166.126912 78.580199 
L 166.451892 89.134009 
L 166.776871 87.445981 
L 167.101851 84.91414 
L 167.42683 81.138587 
L 167.75181 85.779369 
L 168.07679 82.022403 
L 168.401769 81.03189 
L 168.726749 84.909849 
L 169.051728 81.795479 
L 169.376708 83.507607 
L 169.701687 88.092795 
L 170.026667 86.414735 
L 170.351646 81.892263 
L 171.326585 88.793614 
L 171.976544 84.095412 
L 172.301523 77.575828 
L 172.626503 93.55968 
L 173.276462 81.190257 
L 173.601441 85.865125 
L 173.926421 84.336961 
L 174.2514 79.217701 
L 174.57638 82.418685 
L 174.90136 89.029612 
L 175.226339 86.145453 
L 175.551319 87.635459 
L 176.201278 82.547913 
L 176.526257 82.360644 
L 176.851237 80.985826 
L 177.176216 81.967776 
L 177.501196 88.624238 
L 177.826175 83.890689 
L 178.151155 81.366205 
L 178.476134 87.092276 
L 178.801114 80.360429 
L 179.126093 83.362368 
L 179.451073 81.003883 
L 179.776052 75.761804 
L 180.426011 79.793584 
L 180.750991 85.729708 
L 181.075971 86.037021 
L 181.40095 78.37785 
L 181.72593 82.26691 
L 182.050909 75.45754 
L 182.375889 80.720305 
L 182.700868 78.915483 
L 183.025848 87.736588 
L 183.350827 80.796439 
L 183.675807 84.495017 
L 184.000786 77.330555 
L 184.650745 86.579181 
L 184.975725 77.074839 
L 185.300704 84.136474 
L 185.625684 78.437735 
L 185.950663 88.948201 
L 186.275643 81.186623 
L 186.600622 94.25955 
L 186.925602 80.224793 
L 187.250581 82.422921 
L 188.22552 80.321613 
L 188.5505 81.599228 
L 188.875479 81.386417 
L 189.200459 86.40336 
L 189.525438 82.359713 
L 189.850418 81.98629 
L 190.175397 87.49849 
L 190.825356 75.675683 
L 191.150336 83.57423 
L 191.475315 81.412762 
L 191.800295 86.669885 
L 192.125274 81.921311 
L 192.450254 79.710165 
L 192.775233 79.029556 
L 193.100213 87.056199 
L 193.750172 74.244777 
L 194.075152 75.759011 
L 194.400131 85.569351 
L 194.725111 80.027245 
L 195.05009 90.773326 
L 195.37507 85.009043 
L 195.700049 86.103515 
L 196.025029 75.430665 
L 196.350008 85.499206 
L 196.674988 86.012957 
L 196.999967 83.107856 
L 197.324947 78.538407 
L 197.649926 83.33646 
L 197.974906 84.448551 
L 198.299885 78.555825 
L 198.624865 84.008378 
L 198.949844 84.02565 
L 199.599803 76.706345 
L 199.924783 80.641103 
L 200.249762 87.703231 
L 200.574742 82.844673 
L 200.899722 90.734529 
L 201.224701 79.515502 
L 201.549681 77.341564 
L 201.87466 87.120703 
L 202.524619 79.563647 
L 202.849599 80.531977 
L 203.174578 83.028308 
L 203.499558 81.03744 
L 203.824537 81.22763 
L 204.149517 78.59298 
L 204.799476 83.54279 
L 205.124455 80.67645 
L 205.449435 72.123148 
L 205.774414 73.615418 
L 206.099394 77.543384 
L 206.424373 83.065024 
L 206.749353 75.893551 
L 207.074333 85.097136 
L 207.399312 82.029086 
L 207.724292 76.908128 
L 208.049271 77.599563 
L 208.374251 77.936033 
L 208.69923 78.777236 
L 209.02421 83.315829 
L 209.349189 75.90467 
L 209.674169 75.495644 
L 209.999148 77.74033 
L 210.324128 82.470884 
L 210.974087 80.16949 
L 211.299066 85.50901 
L 211.624046 78.921672 
L 211.949025 84.844834 
L 212.274005 74.690793 
L 212.598984 82.235634 
L 212.923964 79.986111 
L 213.248943 83.449548 
L 213.573923 76.875721 
L 213.898903 84.8936 
L 214.548862 80.753899 
L 214.873841 81.821222 
L 215.198821 82.344048 
L 215.5238 79.963854 
L 215.84878 83.702526 
L 216.173759 79.912788 
L 216.498739 80.301274 
L 216.823718 91.621248 
L 217.148698 83.960726 
L 217.473677 89.298109 
L 217.798657 80.98274 
L 218.123636 80.19821 
L 218.448616 82.657021 
L 218.773595 78.009593 
L 219.423554 83.982014 
L 219.748534 75.772156 
L 220.073514 86.915542 
L 220.398493 78.560919 
L 220.723473 78.049906 
L 221.048452 85.899486 
L 221.373432 77.504916 
L 221.698411 87.817871 
L 222.023391 68.841885 
L 222.34837 84.685536 
L 222.67335 87.631442 
L 222.998329 75.019412 
L 223.323309 79.378149 
L 223.648288 81.552744 
L 223.973268 78.33467 
L 224.298247 79.026708 
L 224.623227 81.985559 
L 224.948206 81.568646 
L 225.273186 80.9358 
L 225.598165 80.554398 
L 225.923145 78.376334 
L 226.248124 86.649236 
L 226.573104 81.926825 
L 226.898084 78.916377 
L 227.223063 80.139128 
L 227.548043 83.351231 
L 227.873022 81.388334 
L 228.198002 82.686561 
L 228.522981 79.487549 
L 228.847961 81.264273 
L 229.17294 78.50496 
L 229.49792 87.896324 
L 229.822899 81.315358 
L 230.147879 87.311203 
L 230.472858 82.13487 
L 230.797838 79.919251 
L 231.122817 76.55466 
L 231.447797 76.399489 
L 231.772776 74.439567 
L 232.097756 76.696321 
L 232.422735 78.014231 
L 232.747715 78.428223 
L 233.072695 73.395048 
L 233.397674 81.814248 
L 233.722654 83.734075 
L 234.047633 88.912325 
L 234.372613 82.496262 
L 234.697592 81.411704 
L 235.022572 83.03384 
L 235.347551 73.89098 
L 235.672531 79.902509 
L 235.99751 77.948521 
L 236.32249 77.38195 
L 236.647469 81.575913 
L 236.972449 81.442048 
L 237.297428 88.205316 
L 237.622408 83.061738 
L 237.947387 71.235461 
L 238.272367 89.919015 
L 238.922326 76.671089 
L 239.247305 76.465709 
L 239.572285 81.059605 
L 239.897265 73.685545 
L 240.547224 80.986209 
L 240.872203 76.538849 
L 241.197183 78.388823 
L 241.522162 70.33399 
L 241.847142 80.763977 
L 242.172121 84.917243 
L 242.497101 82.764156 
L 242.82208 85.172978 
L 243.14706 75.383232 
L 243.472039 72.819695 
L 243.797019 87.679533 
L 244.121998 74.81593 
L 244.446978 77.583734 
L 244.771957 77.022658 
L 245.096937 81.661304 
L 245.421916 80.09478 
L 245.746896 79.738811 
L 246.071876 77.153127 
L 246.396855 81.244153 
L 246.721835 81.369218 
L 247.046814 74.862798 
L 247.371794 81.828872 
L 247.696773 77.486421 
L 248.021753 76.081587 
L 248.346732 82.51777 
L 248.671712 82.523539 
L 248.996691 88.335895 
L 249.321671 83.955741 
L 249.64665 89.621196 
L 249.97163 75.230726 
L 250.296609 74.391787 
L 250.621589 81.011587 
L 250.946568 72.784732 
L 251.271548 76.966297 
L 251.596527 83.443468 
L 251.921507 83.866973 
L 252.246486 81.256587 
L 252.571466 83.021553 
L 253.221425 77.389491 
L 253.546405 81.501896 
L 253.871384 76.746548 
L 254.196364 80.058009 
L 254.521343 81.286073 
L 254.846323 71.827922 
L 255.171302 75.912995 
L 255.821261 80.146869 
L 256.146241 71.923738 
L 256.47122 77.067097 
L 256.7962 77.845694 
L 257.121179 77.329113 
L 257.446159 70.541233 
L 257.771138 78.740501 
L 258.096118 77.83861 
L 258.421097 83.471695 
L 258.746077 80.937023 
L 259.071057 84.242806 
L 259.396036 76.671765 
L 259.721016 76.485281 
L 260.045995 78.903652 
L 260.370975 85.904726 
L 260.695954 79.886862 
L 261.020934 80.870967 
L 261.345913 77.875071 
L 261.670893 77.543001 
L 261.995872 75.937607 
L 262.320852 71.787025 
L 262.645831 84.760556 
L 262.970811 82.094777 
L 263.62077 80.11815 
L 263.945749 78.777984 
L 264.270729 80.7235 
L 264.595708 76.51778 
L 264.920688 79.759716 
L 265.245667 88.383164 
L 265.570647 80.021293 
L 265.895627 75.701791 
L 266.220606 76.964836 
L 266.545586 74.753435 
L 266.870565 70.342882 
L 267.195545 77.04223 
L 267.520524 77.758532 
L 267.845504 76.327992 
L 268.170483 84.093714 
L 268.495463 75.047839 
L 268.820442 78.130696 
L 269.145422 79.799682 
L 269.470401 77.86293 
L 269.795381 77.283122 
L 270.12036 84.605019 
L 270.44534 82.619665 
L 271.095299 71.937796 
L 271.420278 78.342996 
L 271.745258 71.955323 
L 272.070238 80.172192 
L 272.395217 79.576208 
L 272.720197 79.765558 
L 273.045176 84.506282 
L 273.370156 79.431425 
L 273.695135 82.860374 
L 274.020115 79.949705 
L 274.345094 66.830075 
L 274.670074 79.691432 
L 274.995053 77.321737 
L 275.645012 82.855061 
L 275.969992 68.915938 
L 276.294971 79.629046 
L 276.619951 75.213235 
L 276.94493 79.098369 
L 277.26991 81.06804 
L 277.594889 76.031469 
L 277.919869 82.463855 
L 278.244848 73.516918 
L 278.894808 82.678619 
L 279.544767 77.25338 
L 279.869746 70.540265 
L 280.194726 71.982546 
L 280.519705 83.681311 
L 280.844685 85.579046 
L 281.169664 84.466535 
L 281.494644 74.70025 
L 281.819623 74.84213 
L 282.144603 72.871017 
L 282.469582 72.343262 
L 282.794562 72.190683 
L 283.119541 71.085438 
L 283.444521 75.599439 
L 283.7695 75.224482 
L 284.09448 75.771389 
L 284.419459 81.083851 
L 284.744439 82.558155 
L 285.069419 75.477989 
L 285.719378 84.522331 
L 286.044357 81.223266 
L 286.369337 80.092735 
L 287.019296 69.899112 
L 287.344275 77.454269 
L 287.669255 76.889597 
L 287.994234 79.536334 
L 288.319214 77.578676 
L 288.644193 81.408837 
L 288.969173 77.025653 
L 289.619132 78.530356 
L 289.944111 80.043987 
L 290.269091 78.502184 
L 290.59407 78.616386 
L 290.91905 78.486702 
L 291.244029 79.083946 
L 291.569009 76.228816 
L 291.893989 81.283097 
L 292.218968 73.978051 
L 292.543948 77.961393 
L 292.868927 79.705856 
L 293.193907 84.616357 
L 293.843866 71.662891 
L 294.168845 81.530707 
L 294.493825 79.212863 
L 295.143784 83.514856 
L 295.468763 74.996243 
L 295.793743 76.837215 
L 296.118722 79.913043 
L 296.443702 78.127665 
L 296.768681 73.761807 
L 297.093661 76.932721 
L 297.41864 70.8245 
L 297.74362 81.837508 
L 298.0686 72.77825 
L 298.393579 80.554361 
L 298.718559 72.761581 
L 299.043538 75.183986 
L 299.368518 78.617828 
L 299.693497 74.133149 
L 300.018477 78.420372 
L 300.343456 76.015969 
L 300.668436 81.288939 
L 300.993415 78.340239 
L 301.318395 80.680193 
L 301.643374 81.35788 
L 301.968354 77.970011 
L 302.293333 81.129185 
L 302.618313 75.147653 
L 302.943292 79.677867 
L 303.268272 72.546761 
L 303.593251 76.005507 
L 303.918231 71.898597 
L 304.24321 71.265714 
L 304.56819 78.487268 
L 304.89317 80.461612 
L 305.218149 76.553528 
L 305.543129 81.476171 
L 305.868108 76.598095 
L 306.193088 85.667961 
L 306.518067 77.214984 
L 306.843047 75.174803 
L 307.168026 87.53842 
L 307.493006 81.634958 
L 307.817985 81.468047 
L 308.142965 83.641034 
L 308.467944 76.77231 
L 308.792924 77.194937 
L 309.117903 82.241203 
L 309.442883 78.301478 
L 309.767862 70.179622 
L 310.092842 77.561441 
L 310.417821 73.55462 
L 310.742801 78.096153 
L 311.067781 75.496959 
L 311.39276 67.682707 
L 311.71774 80.391631 
L 312.042719 80.634238 
L 312.367699 75.656786 
L 312.692678 83.945371 
L 313.017658 79.613143 
L 313.342637 84.753034 
L 313.667617 81.897083 
L 313.992596 76.490229 
L 314.317576 73.97009 
L 314.642555 81.007735 
L 314.967535 76.366168 
L 315.292514 75.984401 
L 315.617494 78.175884 
L 315.942473 84.915198 
L 316.267453 79.914376 
L 316.592432 83.970238 
L 316.917412 84.398051 
L 317.567371 74.940174 
L 317.892351 83.828686 
L 318.21733 83.354444 
L 318.54231 78.906938 
L 318.867289 80.187456 
L 319.192269 77.870251 
L 319.517248 78.220779 
L 319.842228 73.685454 
L 320.167207 72.68227 
L 320.492187 83.956581 
L 320.817166 73.816945 
L 321.142146 68.546166 
L 321.467125 72.411655 
L 321.792105 73.408778 
L 322.117084 77.30116 
L 322.442064 76.989429 
L 322.767043 72.748454 
L 323.092023 75.334228 
L 323.417002 68.510801 
L 323.741982 72.507124 
L 324.066962 80.447043 
L 324.391941 68.756987 
L 324.716921 76.214338 
L 325.0419 72.052308 
L 325.36688 71.726172 
L 325.691859 80.192057 
L 326.016839 78.23555 
L 326.666798 82.299609 
L 326.991777 77.706955 
L 327.316757 70.869158 
L 327.641736 74.9552 
L 327.966716 74.065505 
L 328.616675 81.84901 
L 328.941654 80.936348 
L 329.266634 71.607059 
L 329.591613 71.152152 
L 329.916593 77.743433 
L 330.241572 76.883736 
L 330.566552 76.412123 
L 330.891532 69.980048 
L 331.216511 74.569617 
L 331.541491 72.240928 
L 331.86647 81.904258 
L 332.19145 74.283045 
L 332.516429 77.449321 
L 332.841409 73.877469 
L 333.166388 80.983087 
L 333.491368 76.302303 
L 333.816347 69.667057 
L 334.141327 83.950611 
L 334.466306 85.028852 
L 335.116265 76.622341 
L 335.441245 78.146215 
L 335.766224 72.258364 
L 336.091204 85.74227 
L 336.416183 73.869546 
L 336.741163 74.114983 
L 337.066143 80.173982 
L 337.391122 74.451179 
L 337.716102 73.590733 
L 338.041081 81.412142 
L 338.366061 80.574536 
L 338.69104 75.448302 
L 339.01602 72.939374 
L 339.340999 79.185111 
L 339.665979 77.257397 
L 339.990958 76.120658 
L 340.315938 78.196132 
L 340.640917 84.017343 
L 341.290876 68.69188 
L 341.615856 78.412448 
L 342.265815 79.751153 
L 342.590794 78.447466 
L 342.915774 70.715904 
L 343.240753 70.759028 
L 343.565733 80.182234 
L 343.890713 83.314296 
L 344.215692 78.926309 
L 344.540672 76.325709 
L 344.865651 83.879789 
L 345.190631 79.767457 
L 345.51561 77.829993 
L 345.84059 74.480702 
L 346.165569 69.500693 
L 346.490549 79.42613 
L 347.140508 74.354633 
L 347.465487 75.836697 
L 348.115446 77.030235 
L 348.440426 79.477507 
L 348.765405 68.161715 
L 349.090385 85.787019 
L 349.415364 72.803099 
L 350.065324 79.090665 
L 350.390303 75.439611 
L 350.715283 75.160671 
L 351.040262 77.172061 
L 351.365242 77.214583 
L 351.690221 79.82548 
L 352.015201 78.589036 
L 352.34018 75.641084 
L 353.315119 81.642517 
L 353.640098 82.927781 
L 353.965078 81.998851 
L 354.290057 75.507019 
L 354.615037 82.114696 
L 354.940016 83.031996 
L 355.264996 75.023757 
L 355.589975 80.177231 
L 355.914955 76.853885 
L 356.239934 68.517702 
L 356.564914 79.809906 
L 356.889894 73.672984 
L 357.214873 74.533211 
L 357.539853 74.508326 
L 357.864832 81.059185 
L 358.189812 70.644224 
L 358.514791 80.17442 
L 358.839771 84.973075 
L 359.16475 78.822752 
L 359.48973 80.484964 
L 359.814709 76.5446 
L 360.139689 76.326221 
L 360.464668 75.186506 
L 360.789648 80.058119 
L 361.114627 81.031561 
L 361.439607 83.261805 
L 361.764586 77.804889 
L 362.089566 80.908706 
L 362.414545 74.677866 
L 362.739525 79.613673 
L 363.064505 73.334305 
L 363.389484 77.963986 
L 363.714464 75.828883 
L 364.039443 76.92487 
L 364.364423 75.728867 
L 364.689402 72.754314 
L 365.014382 80.141136 
L 365.339361 78.292751 
L 365.664341 82.073379 
L 365.98932 74.198822 
L 366.3143 77.564582 
L 366.639279 75.941806 
L 366.964259 77.358617 
L 367.289238 75.402457 
L 367.614218 76.791882 
L 367.939197 79.276436 
L 368.264177 76.054894 
L 368.589156 82.046996 
L 368.914136 72.766985 
L 369.239115 77.095798 
L 369.564095 77.94361 
L 369.889075 68.216688 
L 370.214054 77.228623 
L 370.539034 80.41438 
L 370.864013 70.684902 
L 371.188993 82.432525 
L 371.513972 72.767368 
L 371.838952 79.832472 
L 372.163931 76.39036 
L 372.488911 76.16108 
L 372.81389 84.483077 
L 373.13887 77.764777 
L 373.463849 81.157521 
L 373.788829 74.712154 
L 374.113808 78.17488 
L 374.438788 78.975148 
L 374.763767 73.059746 
L 375.088747 76.854432 
L 375.413726 75.805367 
L 375.738706 77.533051 
L 376.063686 74.290001 
L 376.388665 73.600392 
L 376.713645 70.521679 
L 377.038624 75.652459 
L 377.363604 84.323669 
L 377.688583 79.805159 
L 378.013563 78.073002 
L 378.338542 73.770261 
L 378.663522 78.465979 
L 378.988501 76.559736 
L 379.313481 80.519927 
L 379.63846 75.804947 
L 379.96344 83.311648 
L 380.288419 73.113661 
L 380.613399 75.248162 
L 380.938378 82.429019 
L 381.263358 68.183898 
L 381.588337 71.255745 
L 381.913317 83.340678 
L 382.238296 73.257677 
L 382.563276 79.372563 
L 382.888256 78.731902 
L 383.213235 73.212855 
L 383.538215 70.907408 
L 383.863194 78.694474 
L 384.188174 75.072633 
L 384.513153 74.378715 
L 384.838133 83.411864 
L 385.488092 75.4085 
L 385.813071 73.750889 
L 386.46303 72.823748 
L 386.78801 72.660744 
L 387.112989 75.313378 
L 387.437969 74.752138 
L 387.762948 83.954244 
L 388.087928 81.015841 
L 388.412907 75.649118 
L 388.737887 73.244075 
L 389.062867 74.86382 
L 389.387846 81.501677 
L 389.712826 72.782541 
L 390.037805 76.876506 
L 390.362785 83.24446 
L 390.687764 78.134019 
L 391.012744 87.211352 
L 391.337723 75.514212 
L 391.662703 75.095674 
L 391.987682 77.022786 
L 392.312662 77.946988 
L 392.637641 81.686919 
L 392.962621 76.055715 
L 393.2876 79.704505 
L 393.61258 79.178265 
L 393.937559 81.602952 
L 394.262539 78.799601 
L 394.912498 76.057048 
L 395.237477 81.28558 
L 395.562457 75.781248 
L 395.887437 76.404838 
L 396.212416 80.750722 
L 396.537396 79.193912 
L 396.862375 82.659047 
L 397.187355 74.937362 
L 397.512334 75.439082 
L 397.837314 76.847823 
L 398.162293 78.814061 
L 398.487273 71.778151 
L 398.487273 71.778151 
" style="fill:none;stroke:#ff7f0e;stroke-linecap:square;stroke-width:1.5;"/>
   </g>
   <g id="line2d_12">
    <path clip-path="url(#pa700c6a1b4)" d="M 73.832727 279.143358 
L 74.157707 236.276114 
L 75.132645 187.670827 
L 76.432563 150.117748 
L 76.757543 156.805658 
L 77.082523 141.597336 
L 77.407502 138.983509 
L 77.732482 138.798751 
L 78.057461 130.216966 
L 78.382441 129.448794 
L 78.70742 118.944627 
L 79.0324 117.806445 
L 79.357379 118.949465 
L 79.682359 122.490552 
L 80.007338 116.722909 
L 80.332318 119.945967 
L 80.657297 113.438762 
L 80.982277 112.405525 
L 81.307256 103.77209 
L 81.632236 112.200309 
L 81.957215 101.292776 
L 82.282195 111.961153 
L 82.607174 103.039247 
L 83.257133 116.122416 
L 83.582113 98.981578 
L 83.907093 109.18968 
L 84.232072 106.186517 
L 84.557052 104.782614 
L 84.882031 96.511903 
L 85.207011 95.432639 
L 85.53199 98.812968 
L 85.85697 97.503896 
L 86.181949 91.627601 
L 86.506929 101.533996 
L 86.831908 101.849835 
L 87.481867 96.246255 
L 87.806847 96.1345 
L 88.131826 98.325197 
L 88.456806 95.058997 
L 88.781785 93.685767 
L 89.106765 92.857217 
L 89.431744 95.310277 
L 89.756724 90.972134 
L 90.081704 93.121861 
L 90.406683 97.084445 
L 90.731663 86.647374 
L 91.056642 86.514896 
L 91.381622 92.22888 
L 91.706601 90.559931 
L 92.031581 90.373886 
L 92.35656 87.024741 
L 93.006519 91.88916 
L 93.331499 91.904442 
L 93.656478 85.935435 
L 93.981458 84.375923 
L 94.306437 92.359806 
L 94.631417 94.036222 
L 95.281376 87.842975 
L 95.606355 92.329626 
L 95.931335 83.712915 
L 96.256314 90.626024 
L 96.581294 90.726021 
L 96.906274 80.276553 
L 97.231253 84.391241 
L 97.556233 86.698532 
L 97.881212 95.532107 
L 98.206192 88.836976 
L 98.531171 87.719663 
L 98.856151 79.917772 
L 99.18113 89.098571 
L 99.50611 87.847795 
L 99.831089 80.476639 
L 100.156069 90.225287 
L 100.481048 83.020548 
L 100.806028 82.648421 
L 101.131007 80.757423 
L 101.455987 85.478209 
L 102.105946 80.611544 
L 102.430925 87.103796 
L 102.755905 87.558594 
L 103.080885 83.721313 
L 103.405864 82.264719 
L 103.730844 74.152868 
L 104.055823 80.787055 
L 104.380803 81.840776 
L 104.705782 80.71543 
L 105.030762 82.485307 
L 105.355741 78.334944 
L 105.680721 78.48148 
L 106.0057 80.639314 
L 106.33068 76.109722 
L 106.655659 83.210939 
L 106.980639 82.025233 
L 107.305618 82.876514 
L 107.630598 77.69317 
L 107.955577 85.572035 
L 108.280557 77.300795 
L 108.605536 84.144598 
L 108.930516 78.858993 
L 109.255495 80.958421 
L 109.580475 81.077662 
L 109.905455 85.972772 
L 110.230434 78.698527 
L 110.555414 79.503159 
L 110.880393 79.444826 
L 111.205373 74.038265 
L 111.530352 76.828105 
L 111.855332 75.237189 
L 112.180311 79.855605 
L 112.505291 76.236649 
L 112.83027 75.697793 
L 113.15525 82.835434 
L 113.480229 81.470292 
L 113.805209 74.959563 
L 114.130188 74.685114 
L 114.455168 79.079381 
L 114.780147 78.015801 
L 115.105127 78.515111 
L 115.430106 77.036114 
L 115.755086 80.516988 
L 116.080066 80.828646 
L 116.405045 75.872555 
L 116.730025 77.554832 
L 117.055004 89.120554 
L 117.379984 77.379084 
L 117.704963 78.482338 
L 118.029943 78.62714 
L 118.354922 73.167375 
L 118.679902 77.643108 
L 119.004881 77.164904 
L 119.329861 70.60906 
L 119.65484 76.342214 
L 119.97982 72.694338 
L 120.304799 79.118197 
L 120.629779 72.628318 
L 120.954758 75.060784 
L 121.604717 78.209569 
L 121.929697 78.315135 
L 122.254676 80.076632 
L 122.904636 73.668785 
L 123.229615 75.071227 
L 123.554595 74.255859 
L 123.879574 66.655715 
L 124.204554 73.067287 
L 124.529533 76.679396 
L 124.854513 78.577771 
L 125.179492 76.354593 
L 125.504472 80.593086 
L 125.829451 70.503476 
L 126.154431 75.718734 
L 126.47941 76.176764 
L 126.80439 77.57738 
L 127.129369 74.113577 
L 127.454349 75.984912 
L 127.779328 66.9958 
L 128.104308 78.483178 
L 128.429287 70.474702 
L 128.754267 78.580546 
L 129.079247 76.982309 
L 129.404226 76.916764 
L 129.729206 72.76211 
L 130.054185 80.229375 
L 130.379165 71.394923 
L 130.704144 76.288884 
L 131.029124 72.649424 
L 131.354103 70.903976 
L 131.679083 73.573389 
L 132.004062 74.932378 
L 132.329042 70.402201 
L 132.654021 77.380289 
L 132.979001 80.640957 
L 133.30398 69.073939 
L 133.62896 74.404129 
L 133.953939 70.64165 
L 134.603898 79.900208 
L 134.928878 79.236744 
L 135.253857 74.170486 
L 135.903817 77.975817 
L 136.228796 76.821696 
L 136.553776 72.630655 
L 136.878755 78.039919 
L 137.203735 71.095918 
L 137.528714 72.398144 
L 137.853694 71.450098 
L 138.178673 78.657776 
L 138.503653 75.76237 
L 138.828632 70.139437 
L 139.478591 73.907668 
L 139.803571 71.869038 
L 140.12855 74.762509 
L 140.45353 75.211336 
L 140.778509 74.707736 
L 141.103489 73.222349 
L 141.428468 75.374066 
L 141.753448 78.675814 
L 142.078428 73.591902 
L 142.403407 72.222506 
L 142.728387 77.525875 
L 143.053366 71.026594 
L 143.378346 76.220308 
L 143.703325 67.612452 
L 144.353284 71.077679 
L 144.678264 68.504995 
L 145.003243 73.38601 
L 145.328223 67.658917 
L 145.653202 73.699384 
L 145.978182 68.22485 
L 146.303161 68.424406 
L 146.628141 68.135351 
L 146.95312 74.665688 
L 147.2781 73.357912 
L 147.603079 68.334852 
L 147.928059 66.898542 
L 148.253038 75.035552 
L 148.578018 71.446958 
L 148.902998 73.317489 
L 149.227977 66.904201 
L 149.552957 72.912937 
L 149.877936 73.761095 
L 150.202916 70.901657 
L 150.527895 74.210233 
L 150.852875 72.621873 
L 151.177854 64.875102 
L 151.502834 75.506763 
L 151.827813 67.154313 
L 152.152793 72.782413 
L 152.477772 73.479471 
L 152.802752 71.074283 
L 153.452711 69.651447 
L 153.77769 74.457898 
L 154.427649 66.668185 
L 154.752629 74.766306 
L 155.077609 71.642497 
L 155.402588 62.491257 
L 155.727568 67.265173 
L 156.052547 68.220504 
L 156.377527 70.19547 
L 156.702506 71.015804 
L 157.027486 68.251268 
L 157.352465 68.741048 
L 157.677445 73.012295 
L 158.002424 69.779433 
L 158.327404 69.658348 
L 158.652383 72.064687 
L 158.977363 72.269647 
L 159.302342 68.90365 
L 159.627322 74.860132 
L 159.952301 69.54338 
L 160.277281 73.945589 
L 160.60226 70.533638 
L 160.92724 73.556957 
L 161.252219 69.355089 
L 161.902179 78.556647 
L 162.227158 69.046078 
L 162.552138 67.790902 
L 162.877117 65.930503 
L 163.202097 71.394869 
L 163.527076 69.109834 
L 163.852056 71.386379 
L 164.177035 67.025816 
L 164.502015 72.491514 
L 164.826994 58.47821 
L 165.151974 69.789219 
L 165.476953 64.825113 
L 165.801933 66.17762 
L 166.126912 73.945005 
L 166.451892 71.282822 
L 166.776871 75.227841 
L 167.101851 67.648803 
L 167.42683 73.875699 
L 167.75181 70.364097 
L 168.07679 68.894996 
L 168.401769 72.877937 
L 169.051728 67.304683 
L 169.376708 69.25144 
L 170.026667 70.115428 
L 170.351646 75.440415 
L 170.676626 67.348264 
L 171.001605 68.927933 
L 171.326585 73.749776 
L 171.651564 71.852405 
L 172.301523 65.168083 
L 172.626503 70.218876 
L 172.951482 66.073588 
L 173.276462 70.208487 
L 173.601441 64.914192 
L 173.926421 67.328728 
L 174.2514 75.039167 
L 174.57638 71.195203 
L 174.90136 72.642651 
L 175.226339 70.387485 
L 175.551319 75.433239 
L 175.876298 68.093248 
L 176.526257 72.023753 
L 176.851237 71.901171 
L 177.176216 72.479957 
L 177.501196 70.669474 
L 177.826175 68.050051 
L 178.151155 69.457733 
L 178.476134 74.443675 
L 178.801114 74.355436 
L 179.126093 65.323711 
L 179.451073 65.139199 
L 179.776052 70.83991 
L 180.426011 69.505659 
L 180.750991 66.766064 
L 181.075971 72.462813 
L 181.40095 70.584595 
L 181.72593 74.168569 
L 182.050909 69.520777 
L 182.375889 68.655894 
L 182.700868 65.689119 
L 183.025848 76.640672 
L 183.350827 69.037771 
L 183.675807 67.956827 
L 184.000786 68.565738 
L 184.325766 71.090094 
L 184.650745 76.348696 
L 184.975725 70.559636 
L 185.300704 70.235162 
L 185.625684 66.968377 
L 185.950663 67.06423 
L 186.275643 73.049887 
L 186.600622 69.501095 
L 186.925602 68.412027 
L 187.250581 71.850999 
L 187.575561 68.551862 
L 187.900541 68.696353 
L 188.5505 71.734242 
L 188.875479 74.923486 
L 189.200459 66.597345 
L 189.525438 68.523855 
L 189.850418 73.610579 
L 190.175397 74.795354 
L 190.500377 69.54254 
L 190.825356 73.004535 
L 191.150336 70.635241 
L 191.475315 72.357704 
L 191.800295 75.545761 
L 192.125274 70.395099 
L 192.450254 63.190871 
L 193.100213 65.673454 
L 193.425192 68.029675 
L 193.750172 67.061181 
L 194.075152 67.380215 
L 194.400131 72.905652 
L 194.725111 66.403431 
L 195.05009 66.320742 
L 195.37507 72.877115 
L 195.700049 69.004652 
L 196.025029 70.049189 
L 196.350008 68.766335 
L 196.674988 73.563274 
L 196.999967 69.513948 
L 197.324947 77.02233 
L 197.649926 63.393969 
L 197.974906 61.760404 
L 198.299885 63.646728 
L 198.624865 69.534963 
L 198.949844 65.207501 
L 199.274824 66.752462 
L 199.599803 64.411906 
L 199.924783 69.79707 
L 200.249762 68.080066 
L 200.574742 74.656194 
L 200.899722 73.75403 
L 201.224701 70.380438 
L 201.549681 58.538222 
L 201.87466 60.293877 
L 202.19964 66.169806 
L 202.524619 64.594281 
L 202.849599 72.401814 
L 203.174578 67.766711 
L 203.499558 69.881146 
L 203.824537 69.587618 
L 204.149517 70.051088 
L 204.474496 66.108004 
L 204.799476 66.434085 
L 205.124455 69.024571 
L 205.774414 65.839653 
L 206.099394 63.863629 
L 206.424373 71.933688 
L 207.074333 61.679997 
L 207.399312 70.77798 
L 207.724292 65.626842 
L 208.049271 70.368023 
L 208.374251 69.754931 
L 208.69923 63.862077 
L 209.02421 63.934542 
L 209.349189 70.128519 
L 209.674169 59.31315 
L 209.999148 62.390858 
L 210.324128 68.928974 
L 210.649107 68.466544 
L 210.974087 70.720158 
L 211.299066 63.382467 
L 211.624046 66.017684 
L 211.949025 64.755241 
L 212.274005 75.969813 
L 212.598984 70.566848 
L 212.923964 68.818752 
L 213.248943 65.546235 
L 213.573923 65.417025 
L 213.898903 63.813603 
L 214.223882 63.749866 
L 214.548862 65.459219 
L 214.873841 66.063455 
L 215.198821 64.95361 
L 215.5238 71.287806 
L 215.84878 69.162105 
L 216.173759 63.554418 
L 216.498739 65.126492 
L 216.823718 66.076473 
L 217.148698 65.976604 
L 217.473677 60.837699 
L 217.798657 70.27018 
L 218.123636 70.303409 
L 218.448616 69.07226 
L 218.773595 70.139546 
L 219.098575 69.499981 
L 219.423554 73.903359 
L 219.748534 73.350773 
L 220.073514 65.100091 
L 220.398493 65.719317 
L 220.723473 71.215067 
L 221.048452 66.52342 
L 221.373432 69.246273 
L 222.023391 65.497834 
L 222.34837 66.263121 
L 222.67335 64.181531 
L 222.998329 67.89393 
L 223.323309 67.12563 
L 223.648288 70.998039 
L 223.973268 61.31698 
L 224.298247 64.56034 
L 224.623227 65.036043 
L 224.948206 65.963184 
L 225.273186 62.979192 
L 225.598165 70.277501 
L 225.923145 69.605894 
L 226.248124 66.991217 
L 226.573104 68.339708 
L 226.898084 71.686973 
L 227.223063 59.747225 
L 227.548043 66.446884 
L 227.873022 66.726226 
L 228.198002 66.637549 
L 228.522981 64.840687 
L 228.847961 65.17555 
L 229.17294 74.780072 
L 229.822899 63.348015 
L 230.147879 62.070564 
L 230.472858 69.476027 
L 230.797838 62.433599 
L 231.122817 62.869866 
L 231.447797 64.380503 
L 231.772776 67.102863 
L 232.097756 65.06186 
L 232.422735 65.533162 
L 232.747715 68.09679 
L 233.072695 66.832467 
L 233.722654 68.48199 
L 234.047633 66.797668 
L 234.372613 71.660244 
L 234.697592 65.617859 
L 235.022572 74.582999 
L 235.347551 68.898283 
L 235.99751 65.993474 
L 236.32249 64.780272 
L 236.647469 71.283059 
L 236.972449 66.418932 
L 237.297428 66.851711 
L 237.622408 69.936887 
L 238.272367 66.516793 
L 238.597346 62.422809 
L 239.247305 74.865628 
L 239.572285 75.728192 
L 239.897265 70.676011 
L 240.222244 68.308981 
L 240.547224 64.93276 
L 240.872203 69.052268 
L 241.197183 70.499971 
L 241.847142 65.715885 
L 242.172121 71.002402 
L 242.497101 67.142774 
L 242.82208 68.039808 
L 243.14706 70.085321 
L 243.472039 63.168214 
L 243.797019 66.270661 
L 244.121998 67.646046 
L 244.446978 63.238524 
L 244.771957 64.003975 
L 245.421916 68.754978 
L 245.746896 67.057511 
L 246.071876 66.580621 
L 246.396855 62.022492 
L 246.721835 64.784672 
L 247.046814 65.542035 
L 247.371794 67.704379 
L 247.696773 62.78044 
L 248.021753 61.153684 
L 248.346732 68.18324 
L 248.671712 68.599405 
L 248.996691 64.006897 
L 249.321671 62.700033 
L 249.64665 69.954578 
L 249.97163 66.744356 
L 250.296609 70.330448 
L 250.621589 71.941156 
L 250.946568 66.997206 
L 251.271548 69.88456 
L 251.596527 69.764918 
L 251.921507 67.879032 
L 252.246486 58.860725 
L 252.571466 67.341947 
L 252.896446 61.836629 
L 253.221425 63.078477 
L 253.546405 65.005243 
L 253.871384 69.414225 
L 254.196364 61.351615 
L 254.521343 64.389851 
L 254.846323 64.363048 
L 255.171302 63.701373 
L 255.496282 65.150427 
L 256.146241 73.646328 
L 256.47122 67.116647 
L 256.7962 64.54117 
L 257.121179 65.601245 
L 257.446159 58.962512 
L 257.771138 64.480682 
L 258.096118 67.058405 
L 258.421097 62.356972 
L 258.746077 66.784632 
L 259.071057 65.356867 
L 259.396036 69.47977 
L 259.721016 60.676612 
L 260.045995 60.711667 
L 260.370975 67.403402 
L 260.695954 68.170277 
L 261.020934 63.885136 
L 261.345913 61.318806 
L 261.995872 69.655463 
L 262.320852 68.527853 
L 262.645831 70.258751 
L 262.970811 66.627178 
L 263.29579 67.279944 
L 263.62077 66.155054 
L 263.945749 59.859966 
L 264.270729 59.661761 
L 264.595708 63.990483 
L 264.920688 70.406619 
L 265.245667 63.392472 
L 265.570647 68.541583 
L 265.895627 63.007309 
L 266.220606 61.929323 
L 266.545586 70.028412 
L 266.870565 66.84543 
L 267.195545 65.926432 
L 267.520524 69.365057 
L 267.845504 65.765253 
L 268.170483 67.146225 
L 268.495463 71.892371 
L 268.820442 66.456597 
L 269.145422 64.74425 
L 269.470401 67.057383 
L 269.795381 64.461183 
L 270.12036 63.562214 
L 270.44534 67.66958 
L 270.770319 69.263198 
L 271.095299 66.113354 
L 271.420278 61.875281 
L 271.745258 70.651308 
L 272.070238 61.236829 
L 272.395217 57.41399 
L 272.720197 61.796517 
L 273.045176 61.041527 
L 273.370156 63.415349 
L 273.695135 64.45461 
L 274.020115 69.298636 
L 274.345094 69.430931 
L 274.670074 58.81824 
L 275.645012 71.397534 
L 276.294971 64.611371 
L 276.619951 64.654586 
L 276.94493 64.127214 
L 277.26991 64.755642 
L 277.594889 63.935528 
L 277.919869 73.615071 
L 278.244848 65.943631 
L 278.569828 68.23522 
L 278.894808 62.687052 
L 279.219787 65.734343 
L 279.544767 63.869964 
L 279.869746 67.61404 
L 280.194726 65.736881 
L 280.519705 67.735052 
L 280.844685 66.88682 
L 281.169664 62.459744 
L 281.819623 68.070353 
L 282.144603 66.662835 
L 282.469582 62.041224 
L 282.794562 67.280619 
L 283.119541 58.696334 
L 283.444521 61.389956 
L 283.7695 69.169445 
L 284.09448 65.531537 
L 284.419459 68.098087 
L 284.744439 62.316659 
L 285.069419 63.457488 
L 285.394398 62.228164 
L 285.719378 63.190287 
L 286.044357 61.818262 
L 286.694316 68.674042 
L 287.019296 63.188553 
L 287.344275 67.085536 
L 287.669255 63.099419 
L 287.994234 67.519046 
L 288.319214 60.910492 
L 288.644193 67.548988 
L 288.969173 64.979426 
L 289.294152 67.533086 
L 289.619132 64.970444 
L 290.269091 68.370765 
L 290.59407 66.486686 
L 290.91905 69.806673 
L 291.244029 57.731563 
L 291.569009 66.013064 
L 291.893989 66.013375 
L 292.218968 74.793145 
L 292.543948 67.645279 
L 292.868927 67.18924 
L 293.193907 67.482768 
L 293.518886 69.331682 
L 293.843866 67.75634 
L 294.168845 71.047225 
L 294.493825 63.328698 
L 294.818804 69.70726 
L 295.143784 66.416978 
L 295.468763 65.178234 
L 295.793743 67.559998 
L 296.118722 61.352272 
L 296.443702 67.017618 
L 297.093661 64.297339 
L 297.41864 64.040144 
L 297.74362 64.310046 
L 298.0686 66.301316 
L 298.393579 61.576732 
L 298.718559 68.431471 
L 299.043538 64.568794 
L 299.368518 66.371517 
L 299.693497 65.747069 
L 300.018477 63.556097 
L 300.343456 67.852613 
L 300.668436 62.169119 
L 300.993415 67.122508 
L 301.318395 67.837112 
L 301.643374 65.309251 
L 301.968354 69.257191 
L 302.293333 62.291391 
L 302.618313 64.658055 
L 302.943292 60.818547 
L 303.268272 65.872736 
L 303.593251 59.491837 
L 303.918231 66.49282 
L 304.56819 55.194464 
L 304.89317 69.2965 
L 305.218149 64.554571 
L 305.543129 69.396753 
L 305.868108 63.529441 
L 306.193088 67.328162 
L 306.518067 67.288342 
L 306.843047 61.55265 
L 307.168026 68.077967 
L 307.493006 61.094931 
L 307.817985 65.581855 
L 308.142965 67.511359 
L 308.792924 59.142496 
L 309.117903 66.977086 
L 309.442883 64.989614 
L 309.767862 67.183835 
L 310.092842 67.704233 
L 310.417821 64.777296 
L 310.742801 60.694395 
L 311.067781 64.467263 
L 311.39276 70.687312 
L 312.042719 62.827088 
L 312.367699 67.198989 
L 312.692678 63.079281 
L 313.017658 62.797876 
L 313.342637 69.179468 
L 313.667617 65.131385 
L 313.992596 69.375939 
L 314.642555 65.684701 
L 314.967535 66.669719 
L 315.292514 68.464463 
L 315.942473 61.986214 
L 316.267453 60.861598 
L 316.592432 61.853189 
L 316.917412 69.1695 
L 317.242391 56.298558 
L 317.567371 69.65057 
L 317.892351 66.874222 
L 318.21733 70.723115 
L 318.54231 63.567709 
L 318.867289 62.442692 
L 319.192269 70.421846 
L 319.517248 58.207011 
L 319.842228 62.582125 
L 320.167207 61.438339 
L 320.492187 63.067541 
L 320.817166 66.705577 
L 321.142146 63.236315 
L 321.467125 61.309203 
L 321.792105 66.727449 
L 322.117084 62.711006 
L 322.442064 70.830452 
L 322.767043 63.82788 
L 323.092023 63.823827 
L 323.417002 63.474303 
L 324.066962 60.408626 
L 324.391941 66.80079 
L 324.716921 65.618845 
L 325.0419 66.559607 
L 325.36688 62.169338 
L 325.691859 66.628968 
L 326.016839 68.959793 
L 326.341818 63.962951 
L 326.666798 69.736126 
L 326.991777 69.810087 
L 327.316757 71.84963 
L 327.641736 63.729052 
L 327.966716 66.950722 
L 328.616675 62.228913 
L 328.941654 68.469301 
L 329.266634 61.742602 
L 329.591613 58.619542 
L 329.916593 72.222195 
L 330.241572 59.38618 
L 330.566552 70.737904 
L 331.216511 64.859218 
L 331.541491 65.408262 
L 331.86647 65.517552 
L 332.19145 64.343622 
L 332.516429 62.102789 
L 332.841409 68.002216 
L 333.166388 59.64805 
L 333.491368 71.623272 
L 333.816347 67.77615 
L 334.141327 60.473587 
L 334.466306 60.302422 
L 334.791286 63.854664 
L 335.116265 64.087504 
L 335.441245 58.965506 
L 335.766224 66.373945 
L 336.091204 64.389303 
L 336.416183 64.370023 
L 336.741163 60.463673 
L 337.066143 67.486547 
L 337.391122 62.584079 
L 337.716102 62.944211 
L 338.041081 58.845024 
L 338.366061 73.860198 
L 338.69104 64.447198 
L 339.01602 64.573577 
L 339.340999 65.160506 
L 339.990958 60.859024 
L 340.315938 61.655842 
L 340.640917 60.395426 
L 340.965897 66.237013 
L 341.290876 61.748043 
L 341.615856 65.325555 
L 341.940835 66.583543 
L 342.265815 69.322408 
L 342.590794 65.266418 
L 342.915774 58.475507 
L 343.240753 58.720653 
L 343.565733 62.522058 
L 343.890713 68.147875 
L 344.215692 64.060373 
L 344.540672 68.57923 
L 345.190631 62.26583 
L 345.51561 67.346657 
L 345.84059 64.31976 
L 346.165569 64.008777 
L 346.490549 68.813914 
L 346.815528 60.48781 
L 347.140508 66.115617 
L 347.465487 65.28537 
L 347.790467 67.766492 
L 348.115446 67.979156 
L 348.440426 59.8244 
L 348.765405 66.354446 
L 349.090385 66.525118 
L 349.415364 67.618495 
L 349.740344 65.81234 
L 350.065324 58.574373 
L 350.390303 66.171815 
L 350.715283 63.252363 
L 351.040262 62.571572 
L 351.365242 70.859098 
L 351.690221 61.689053 
L 352.015201 64.242493 
L 352.34018 65.094358 
L 352.66516 69.218704 
L 352.990139 66.0129 
L 353.315119 65.400594 
L 353.640098 69.195973 
L 353.965078 53.568 
L 354.290057 71.69517 
L 354.615037 58.160837 
L 354.940016 57.508163 
L 355.589975 64.194658 
L 355.914955 63.254956 
L 356.239934 63.329958 
L 356.564914 65.593632 
L 356.889894 65.120777 
L 357.214873 64.351382 
L 357.539853 61.395506 
L 357.864832 69.036584 
L 358.189812 60.001974 
L 358.514791 59.897011 
L 358.839771 65.298972 
L 359.16475 65.872334 
L 359.48973 59.901977 
L 359.814709 68.293425 
L 360.139689 66.171212 
L 360.464668 60.984783 
L 360.789648 64.145929 
L 361.114627 65.994934 
L 361.439607 60.587423 
L 361.764586 68.059326 
L 362.089566 60.401907 
L 362.414545 66.180177 
L 362.739525 61.754853 
L 363.064505 68.870987 
L 363.389484 69.872127 
L 363.714464 62.989837 
L 364.039443 63.841263 
L 364.364423 62.680497 
L 364.689402 71.094366 
L 365.014382 69.624553 
L 365.339361 58.074789 
L 365.98932 63.398278 
L 366.3143 61.4553 
L 366.639279 65.403004 
L 366.964259 65.454983 
L 367.289238 63.499864 
L 367.614218 66.717773 
L 367.939197 64.072259 
L 368.264177 66.120328 
L 368.589156 66.225583 
L 368.914136 61.368138 
L 369.239115 64.223816 
L 369.564095 65.079588 
L 369.889075 67.623826 
L 370.214054 67.123439 
L 370.539034 55.670586 
L 370.864013 62.581158 
L 371.188993 60.712963 
L 371.513972 63.206792 
L 371.838952 62.45717 
L 372.163931 65.130837 
L 372.488911 64.286567 
L 372.81389 54.313825 
L 373.13887 67.238371 
L 373.463849 58.397109 
L 373.788829 65.404409 
L 374.113808 64.228325 
L 374.438788 64.004103 
L 374.763767 60.801019 
L 375.088747 62.039326 
L 375.413726 63.99492 
L 375.738706 62.888032 
L 376.063686 67.674108 
L 376.713645 64.204152 
L 377.038624 67.3527 
L 378.013563 64.569469 
L 378.338542 59.437502 
L 378.663522 57.860024 
L 378.988501 63.042254 
L 379.313481 62.102314 
L 379.63846 66.754233 
L 379.96344 64.90939 
L 380.288419 64.780582 
L 380.613399 57.464819 
L 380.938378 65.512787 
L 381.263358 65.710134 
L 381.588337 61.549528 
L 381.913317 60.134743 
L 382.238296 64.526016 
L 382.563276 67.390877 
L 382.888256 67.032808 
L 383.213235 62.067095 
L 383.538215 67.677102 
L 383.863194 62.557952 
L 384.188174 65.996176 
L 384.513153 61.388569 
L 384.838133 59.901484 
L 385.163112 54.419317 
L 385.488092 67.34474 
L 385.813071 64.726868 
L 386.138051 64.557602 
L 386.46303 63.839419 
L 386.78801 64.211291 
L 387.112989 65.828224 
L 387.437969 54.69844 
L 387.762948 57.354123 
L 388.087928 58.942191 
L 388.412907 64.940063 
L 388.737887 68.244823 
L 389.062867 58.843107 
L 389.387846 67.117798 
L 389.712826 63.016 
L 390.037805 61.5953 
L 390.362785 58.315041 
L 390.687764 61.810083 
L 391.012744 58.639607 
L 391.987682 70.158461 
L 392.312662 61.96027 
L 392.637641 62.433672 
L 392.962621 68.928882 
L 393.2876 60.012016 
L 393.61258 64.858798 
L 393.937559 64.957134 
L 394.262539 61.839733 
L 394.587518 64.417712 
L 394.912498 63.763924 
L 395.237477 63.485166 
L 395.562457 62.730286 
L 396.212416 64.281638 
L 396.537396 60.945346 
L 396.862375 62.27463 
L 397.187355 67.576174 
L 397.512334 63.780831 
L 397.837314 65.015211 
L 398.162293 63.878545 
L 398.487273 61.936827 
L 398.487273 61.936827 
" style="fill:none;stroke:#2ca02c;stroke-linecap:square;stroke-width:1.5;"/>
   </g>
   <g id="patch_3">
    <path d="M 57.6 307.584 
L 57.6 41.472 
" style="fill:none;stroke:#000000;stroke-linecap:square;stroke-linejoin:miter;stroke-width:0.8;"/>
   </g>
   <g id="patch_4">
    <path d="M 414.72 307.584 
L 414.72 41.472 
" style="fill:none;stroke:#000000;stroke-linecap:square;stroke-linejoin:miter;stroke-width:0.8;"/>
   </g>
   <g id="patch_5">
    <path d="M 57.6 307.584 
L 414.72 307.584 
" style="fill:none;stroke:#000000;stroke-linecap:square;stroke-linejoin:miter;stroke-width:0.8;"/>
   </g>
   <g id="patch_6">
    <path d="M 57.6 41.472 
L 414.72 41.472 
" style="fill:none;stroke:#000000;stroke-linecap:square;stroke-linejoin:miter;stroke-width:0.8;"/>
   </g>
   <g id="legend_1">
    <g id="patch_7">
     <path d="M 305.941875 302.584 
L 407.72 302.584 
Q 409.72 302.584 409.72 300.584 
L 409.72 257.549625 
Q 409.72 255.549625 407.72 255.549625 
L 305.941875 255.549625 
Q 303.941875 255.549625 303.941875 257.549625 
L 303.941875 300.584 
Q 303.941875 302.584 305.941875 302.584 
z
" style="fill:#ffffff;opacity:0.8;stroke:#cccccc;stroke-linejoin:miter;"/>
    </g>
    <g id="line2d_13">
     <path d="M 307.941875 263.648062 
L 327.941875 263.648062 
" style="fill:none;stroke:#1f77b4;stroke-linecap:square;stroke-width:1.5;"/>
    </g>
    <g id="line2d_14"/>
    <g id="text_12">
     <!-- =0, init=5 -->
     <defs>
      <path d="M 19.28125 29.5 
Q 13.8125 30.671875 10.890625 33.84375 
Q 7.953125 36.96875 7.953125 41.5 
Q 7.953125 48.390625 13.53125 52.25 
Q 19.046875 56.0625 28.609375 56.0625 
Q 32.328125 56.0625 36.46875 55.46875 
Q 40.625 54.890625 45.40625 53.71875 
L 45.40625 45.5625 
Q 40.671875 46.96875 36.765625 47.609375 
Q 32.8125 48.25 29.34375 48.25 
Q 23.53125 48.25 20.171875 46 
Q 16.75 43.75 16.75 40.625 
Q 16.75 37.203125 20.0625 35.015625 
Q 23.34375 32.859375 29 32.859375 
L 36.578125 32.859375 
L 36.578125 25.4375 
L 29.34375 25.4375 
Q 22.65625 25.4375 19.140625 22.953125 
Q 15.328125 20.21875 15.328125 15.921875 
Q 15.328125 11.53125 19.4375 8.796875 
Q 23.578125 6.0625 30.953125 6.0625 
Q 35.5 6.0625 39.65625 6.9375 
Q 43.796875 7.859375 47.265625 9.671875 
L 47.265625 1.3125 
Q 42.875 -0.046875 38.765625 -0.734375 
Q 34.625 -1.421875 30.71875 -1.421875 
Q 19.09375 -1.421875 12.796875 3.03125 
Q 6.5 7.46875 6.5 15.921875 
Q 6.5 21.1875 9.859375 24.75 
Q 13.234375 28.328125 19.28125 29.5 
z
" id="DejaVuSans-3b5"/>
      <path d="M 10.59375 45.40625 
L 73.1875 45.40625 
L 73.1875 37.203125 
L 10.59375 37.203125 
z
M 10.59375 25.484375 
L 73.1875 25.484375 
L 73.1875 17.1875 
L 10.59375 17.1875 
z
" id="DejaVuSans-3d"/>
      <path d="M 11.71875 12.40625 
L 22.015625 12.40625 
L 22.015625 4 
L 14.015625 -11.625 
L 7.71875 -11.625 
L 11.71875 4 
z
" id="DejaVuSans-2c"/>
      <path d="M 9.421875 54.6875 
L 18.40625 54.6875 
L 18.40625 0 
L 9.421875 0 
z
M 9.421875 75.984375 
L 18.40625 75.984375 
L 18.40625 64.59375 
L 9.421875 64.59375 
z
" id="DejaVuSans-69"/>
      <path d="M 54.890625 33.015625 
L 54.890625 0 
L 45.90625 0 
L 45.90625 32.71875 
Q 45.90625 40.484375 42.875 44.328125 
Q 39.84375 48.1875 33.796875 48.1875 
Q 26.515625 48.1875 22.3125 43.546875 
Q 18.109375 38.921875 18.109375 30.90625 
L 18.109375 0 
L 9.078125 0 
L 9.078125 54.6875 
L 18.109375 54.6875 
L 18.109375 46.1875 
Q 21.34375 51.125 25.703125 53.5625 
Q 30.078125 56 35.796875 56 
Q 45.21875 56 50.046875 50.171875 
Q 54.890625 44.34375 54.890625 33.015625 
z
" id="DejaVuSans-6e"/>
     </defs>
     <g transform="translate(335.941875 267.148062)scale(0.1 -0.1)">
      <use xlink:href="#DejaVuSans-3b5"/>
      <use x="54.052734" xlink:href="#DejaVuSans-3d"/>
      <use x="137.841797" xlink:href="#DejaVuSans-30"/>
      <use x="201.464844" xlink:href="#DejaVuSans-2c"/>
      <use x="233.251953" xlink:href="#DejaVuSans-20"/>
      <use x="265.039062" xlink:href="#DejaVuSans-69"/>
      <use x="292.822266" xlink:href="#DejaVuSans-6e"/>
      <use x="356.201172" xlink:href="#DejaVuSans-69"/>
      <use x="383.984375" xlink:href="#DejaVuSans-74"/>
      <use x="423.193359" xlink:href="#DejaVuSans-3d"/>
      <use x="506.982422" xlink:href="#DejaVuSans-35"/>
     </g>
    </g>
    <g id="line2d_15">
     <path d="M 307.941875 278.326188 
L 327.941875 278.326188 
" style="fill:none;stroke:#ff7f0e;stroke-linecap:square;stroke-width:1.5;"/>
    </g>
    <g id="line2d_16"/>
    <g id="text_13">
     <!-- =0.1, init=0, -->
     <g transform="translate(335.941875 281.826188)scale(0.1 -0.1)">
      <use xlink:href="#DejaVuSans-3b5"/>
      <use x="54.052734" xlink:href="#DejaVuSans-3d"/>
      <use x="137.841797" xlink:href="#DejaVuSans-30"/>
      <use x="201.464844" xlink:href="#DejaVuSans-2e"/>
      <use x="233.251953" xlink:href="#DejaVuSans-31"/>
      <use x="296.875" xlink:href="#DejaVuSans-2c"/>
      <use x="328.662109" xlink:href="#DejaVuSans-20"/>
      <use x="360.449219" xlink:href="#DejaVuSans-69"/>
      <use x="388.232422" xlink:href="#DejaVuSans-6e"/>
      <use x="451.611328" xlink:href="#DejaVuSans-69"/>
      <use x="479.394531" xlink:href="#DejaVuSans-74"/>
      <use x="518.603516" xlink:href="#DejaVuSans-3d"/>
      <use x="602.392578" xlink:href="#DejaVuSans-30"/>
      <use x="666.015625" xlink:href="#DejaVuSans-2c"/>
     </g>
    </g>
    <g id="line2d_17">
     <path d="M 307.941875 293.004312 
L 327.941875 293.004312 
" style="fill:none;stroke:#2ca02c;stroke-linecap:square;stroke-width:1.5;"/>
    </g>
    <g id="line2d_18"/>
    <g id="text_14">
     <!-- =0.2, init=0 -->
     <defs>
      <path d="M 36.234375 9.96875 
Q 37.984375 7.625 43.265625 7.625 
L 47.609375 7.625 
L 47.609375 0 
L 42.1875 0 
Q 33.40625 0 29.390625 4.6875 
Q 25.390625 9.46875 25.390625 19.828125 
L 25.390625 45.703125 
L 4.890625 45.703125 
L 4.890625 54.6875 
L 55.328125 54.6875 
L 55.328125 45.703125 
L 34.578125 45.703125 
L 34.578125 19.28125 
Q 34.578125 12.203125 36.234375 9.96875 
z
" id="DejaVuSans-3c4"/>
     </defs>
     <g transform="translate(335.941875 296.504312)scale(0.1 -0.1)">
      <use xlink:href="#DejaVuSans-3c4"/>
      <use x="60.205078" xlink:href="#DejaVuSans-3d"/>
      <use x="143.994141" xlink:href="#DejaVuSans-30"/>
      <use x="207.617188" xlink:href="#DejaVuSans-2e"/>
      <use x="239.404297" xlink:href="#DejaVuSans-32"/>
      <use x="303.027344" xlink:href="#DejaVuSans-2c"/>
      <use x="334.814453" xlink:href="#DejaVuSans-20"/>
      <use x="366.601562" xlink:href="#DejaVuSans-69"/>
      <use x="394.384766" xlink:href="#DejaVuSans-6e"/>
      <use x="457.763672" xlink:href="#DejaVuSans-69"/>
      <use x="485.546875" xlink:href="#DejaVuSans-74"/>
      <use x="524.755859" xlink:href="#DejaVuSans-3d"/>
      <use x="608.544922" xlink:href="#DejaVuSans-30"/>
     </g>
    </g>
   </g>
  </g>
 </g>
 <defs>
  <clipPath id="pa700c6a1b4">
   <rect height="266.112" width="357.12" x="57.6" y="41.472"/>
  </clipPath>
 </defs>
</svg>
