<?xml version="1.0" encoding="utf-8" standalone="no"?>
<!DOCTYPE svg PUBLIC "-//W3C//DTD SVG 1.1//EN"
  "http://www.w3.org/Graphics/SVG/1.1/DTD/svg11.dtd">
<!-- Created with matplotlib (http://matplotlib.org/) -->
<svg height="345.6pt" version="1.1" viewBox="0 0 460.8 345.6" width="460.8pt" xmlns="http://www.w3.org/2000/svg" xmlns:xlink="http://www.w3.org/1999/xlink">
 <defs>
  <style type="text/css">
*{stroke-linecap:butt;stroke-linejoin:round;}
  </style>
 </defs>
 <g id="figure_1">
  <g id="patch_1">
   <path d="M 0 345.6 
L 460.8 345.6 
L 460.8 0 
L 0 0 
z
" style="fill:#ffffff;"/>
  </g>
  <g id="axes_1">
   <g id="patch_2">
    <path d="M 57.6 307.584 
L 414.72 307.584 
L 414.72 41.472 
L 57.6 41.472 
z
" style="fill:#ffffff;"/>
   </g>
   <g id="matplotlib.axis_1">
    <g id="xtick_1">
     <g id="line2d_1">
      <defs>
       <path d="M 0 0 
L 0 3.5 
" id="me6da3ee744" style="stroke:#000000;stroke-width:0.8;"/>
      </defs>
      <g>
       <use style="stroke:#000000;stroke-width:0.8;" x="73.832727" xlink:href="#me6da3ee744" y="307.584"/>
      </g>
     </g>
     <g id="text_1">
      <!-- 0 -->
      <defs>
       <path d="M 31.78125 66.40625 
Q 24.171875 66.40625 20.328125 58.90625 
Q 16.5 51.421875 16.5 36.375 
Q 16.5 21.390625 20.328125 13.890625 
Q 24.171875 6.390625 31.78125 6.390625 
Q 39.453125 6.390625 43.28125 13.890625 
Q 47.125 21.390625 47.125 36.375 
Q 47.125 51.421875 43.28125 58.90625 
Q 39.453125 66.40625 31.78125 66.40625 
z
M 31.78125 74.21875 
Q 44.046875 74.21875 50.515625 64.515625 
Q 56.984375 54.828125 56.984375 36.375 
Q 56.984375 17.96875 50.515625 8.265625 
Q 44.046875 -1.421875 31.78125 -1.421875 
Q 19.53125 -1.421875 13.0625 8.265625 
Q 6.59375 17.96875 6.59375 36.375 
Q 6.59375 54.828125 13.0625 64.515625 
Q 19.53125 74.21875 31.78125 74.21875 
z
" id="DejaVuSans-30"/>
      </defs>
      <g transform="translate(70.651477 322.182437)scale(0.1 -0.1)">
       <use xlink:href="#DejaVuSans-30"/>
      </g>
     </g>
    </g>
    <g id="xtick_2">
     <g id="line2d_2">
      <g>
       <use style="stroke:#000000;stroke-width:0.8;" x="155.077609" xlink:href="#me6da3ee744" y="307.584"/>
      </g>
     </g>
     <g id="text_2">
      <!-- 250 -->
      <defs>
       <path d="M 19.1875 8.296875 
L 53.609375 8.296875 
L 53.609375 0 
L 7.328125 0 
L 7.328125 8.296875 
Q 12.9375 14.109375 22.625 23.890625 
Q 32.328125 33.6875 34.8125 36.53125 
Q 39.546875 41.84375 41.421875 45.53125 
Q 43.3125 49.21875 43.3125 52.78125 
Q 43.3125 58.59375 39.234375 62.25 
Q 35.15625 65.921875 28.609375 65.921875 
Q 23.96875 65.921875 18.8125 64.3125 
Q 13.671875 62.703125 7.8125 59.421875 
L 7.8125 69.390625 
Q 13.765625 71.78125 18.9375 73 
Q 24.125 74.21875 28.421875 74.21875 
Q 39.75 74.21875 46.484375 68.546875 
Q 53.21875 62.890625 53.21875 53.421875 
Q 53.21875 48.921875 51.53125 44.890625 
Q 49.859375 40.875 45.40625 35.40625 
Q 44.1875 33.984375 37.640625 27.21875 
Q 31.109375 20.453125 19.1875 8.296875 
z
" id="DejaVuSans-32"/>
       <path d="M 10.796875 72.90625 
L 49.515625 72.90625 
L 49.515625 64.59375 
L 19.828125 64.59375 
L 19.828125 46.734375 
Q 21.96875 47.46875 24.109375 47.828125 
Q 26.265625 48.1875 28.421875 48.1875 
Q 40.625 48.1875 47.75 41.5 
Q 54.890625 34.8125 54.890625 23.390625 
Q 54.890625 11.625 47.5625 5.09375 
Q 40.234375 -1.421875 26.90625 -1.421875 
Q 22.3125 -1.421875 17.546875 -0.640625 
Q 12.796875 0.140625 7.71875 1.703125 
L 7.71875 11.625 
Q 12.109375 9.234375 16.796875 8.0625 
Q 21.484375 6.890625 26.703125 6.890625 
Q 35.15625 6.890625 40.078125 11.328125 
Q 45.015625 15.765625 45.015625 23.390625 
Q 45.015625 31 40.078125 35.4375 
Q 35.15625 39.890625 26.703125 39.890625 
Q 22.75 39.890625 18.8125 39.015625 
Q 14.890625 38.140625 10.796875 36.28125 
z
" id="DejaVuSans-35"/>
      </defs>
      <g transform="translate(145.533859 322.182437)scale(0.1 -0.1)">
       <use xlink:href="#DejaVuSans-32"/>
       <use x="63.623047" xlink:href="#DejaVuSans-35"/>
       <use x="127.246094" xlink:href="#DejaVuSans-30"/>
      </g>
     </g>
    </g>
    <g id="xtick_3">
     <g id="line2d_3">
      <g>
       <use style="stroke:#000000;stroke-width:0.8;" x="236.32249" xlink:href="#me6da3ee744" y="307.584"/>
      </g>
     </g>
     <g id="text_3">
      <!-- 500 -->
      <g transform="translate(226.77874 322.182437)scale(0.1 -0.1)">
       <use xlink:href="#DejaVuSans-35"/>
       <use x="63.623047" xlink:href="#DejaVuSans-30"/>
       <use x="127.246094" xlink:href="#DejaVuSans-30"/>
      </g>
     </g>
    </g>
    <g id="xtick_4">
     <g id="line2d_4">
      <g>
       <use style="stroke:#000000;stroke-width:0.8;" x="317.567371" xlink:href="#me6da3ee744" y="307.584"/>
      </g>
     </g>
     <g id="text_4">
      <!-- 750 -->
      <defs>
       <path d="M 8.203125 72.90625 
L 55.078125 72.90625 
L 55.078125 68.703125 
L 28.609375 0 
L 18.3125 0 
L 43.21875 64.59375 
L 8.203125 64.59375 
z
" id="DejaVuSans-37"/>
      </defs>
      <g transform="translate(308.023621 322.182437)scale(0.1 -0.1)">
       <use xlink:href="#DejaVuSans-37"/>
       <use x="63.623047" xlink:href="#DejaVuSans-35"/>
       <use x="127.246094" xlink:href="#DejaVuSans-30"/>
      </g>
     </g>
    </g>
    <g id="xtick_5">
     <g id="line2d_5">
      <g>
       <use style="stroke:#000000;stroke-width:0.8;" x="398.812252" xlink:href="#me6da3ee744" y="307.584"/>
      </g>
     </g>
     <g id="text_5">
      <!-- 1000 -->
      <defs>
       <path d="M 12.40625 8.296875 
L 28.515625 8.296875 
L 28.515625 63.921875 
L 10.984375 60.40625 
L 10.984375 69.390625 
L 28.421875 72.90625 
L 38.28125 72.90625 
L 38.28125 8.296875 
L 54.390625 8.296875 
L 54.390625 0 
L 12.40625 0 
z
" id="DejaVuSans-31"/>
      </defs>
      <g transform="translate(386.087252 322.182437)scale(0.1 -0.1)">
       <use xlink:href="#DejaVuSans-31"/>
       <use x="63.623047" xlink:href="#DejaVuSans-30"/>
       <use x="127.246094" xlink:href="#DejaVuSans-30"/>
       <use x="190.869141" xlink:href="#DejaVuSans-30"/>
      </g>
     </g>
    </g>
    <g id="text_6">
     <!-- Steps -->
     <defs>
      <path d="M 53.515625 70.515625 
L 53.515625 60.890625 
Q 47.90625 63.578125 42.921875 64.890625 
Q 37.9375 66.21875 33.296875 66.21875 
Q 25.25 66.21875 20.875 63.09375 
Q 16.5 59.96875 16.5 54.203125 
Q 16.5 49.359375 19.40625 46.890625 
Q 22.3125 44.4375 30.421875 42.921875 
L 36.375 41.703125 
Q 47.40625 39.59375 52.65625 34.296875 
Q 57.90625 29 57.90625 20.125 
Q 57.90625 9.515625 50.796875 4.046875 
Q 43.703125 -1.421875 29.984375 -1.421875 
Q 24.8125 -1.421875 18.96875 -0.25 
Q 13.140625 0.921875 6.890625 3.21875 
L 6.890625 13.375 
Q 12.890625 10.015625 18.65625 8.296875 
Q 24.421875 6.59375 29.984375 6.59375 
Q 38.421875 6.59375 43.015625 9.90625 
Q 47.609375 13.234375 47.609375 19.390625 
Q 47.609375 24.75 44.3125 27.78125 
Q 41.015625 30.8125 33.5 32.328125 
L 27.484375 33.5 
Q 16.453125 35.6875 11.515625 40.375 
Q 6.59375 45.0625 6.59375 53.421875 
Q 6.59375 63.09375 13.40625 68.65625 
Q 20.21875 74.21875 32.171875 74.21875 
Q 37.3125 74.21875 42.625 73.28125 
Q 47.953125 72.359375 53.515625 70.515625 
z
" id="DejaVuSans-53"/>
      <path d="M 18.3125 70.21875 
L 18.3125 54.6875 
L 36.8125 54.6875 
L 36.8125 47.703125 
L 18.3125 47.703125 
L 18.3125 18.015625 
Q 18.3125 11.328125 20.140625 9.421875 
Q 21.96875 7.515625 27.59375 7.515625 
L 36.8125 7.515625 
L 36.8125 0 
L 27.59375 0 
Q 17.1875 0 13.234375 3.875 
Q 9.28125 7.765625 9.28125 18.015625 
L 9.28125 47.703125 
L 2.6875 47.703125 
L 2.6875 54.6875 
L 9.28125 54.6875 
L 9.28125 70.21875 
z
" id="DejaVuSans-74"/>
      <path d="M 56.203125 29.59375 
L 56.203125 25.203125 
L 14.890625 25.203125 
Q 15.484375 15.921875 20.484375 11.0625 
Q 25.484375 6.203125 34.421875 6.203125 
Q 39.59375 6.203125 44.453125 7.46875 
Q 49.3125 8.734375 54.109375 11.28125 
L 54.109375 2.78125 
Q 49.265625 0.734375 44.1875 -0.34375 
Q 39.109375 -1.421875 33.890625 -1.421875 
Q 20.796875 -1.421875 13.15625 6.1875 
Q 5.515625 13.8125 5.515625 26.8125 
Q 5.515625 40.234375 12.765625 48.109375 
Q 20.015625 56 32.328125 56 
Q 43.359375 56 49.78125 48.890625 
Q 56.203125 41.796875 56.203125 29.59375 
z
M 47.21875 32.234375 
Q 47.125 39.59375 43.09375 43.984375 
Q 39.0625 48.390625 32.421875 48.390625 
Q 24.90625 48.390625 20.390625 44.140625 
Q 15.875 39.890625 15.1875 32.171875 
z
" id="DejaVuSans-65"/>
      <path d="M 18.109375 8.203125 
L 18.109375 -20.796875 
L 9.078125 -20.796875 
L 9.078125 54.6875 
L 18.109375 54.6875 
L 18.109375 46.390625 
Q 20.953125 51.265625 25.265625 53.625 
Q 29.59375 56 35.59375 56 
Q 45.5625 56 51.78125 48.09375 
Q 58.015625 40.1875 58.015625 27.296875 
Q 58.015625 14.40625 51.78125 6.484375 
Q 45.5625 -1.421875 35.59375 -1.421875 
Q 29.59375 -1.421875 25.265625 0.953125 
Q 20.953125 3.328125 18.109375 8.203125 
z
M 48.6875 27.296875 
Q 48.6875 37.203125 44.609375 42.84375 
Q 40.53125 48.484375 33.40625 48.484375 
Q 26.265625 48.484375 22.1875 42.84375 
Q 18.109375 37.203125 18.109375 27.296875 
Q 18.109375 17.390625 22.1875 11.75 
Q 26.265625 6.109375 33.40625 6.109375 
Q 40.53125 6.109375 44.609375 11.75 
Q 48.6875 17.390625 48.6875 27.296875 
z
" id="DejaVuSans-70"/>
      <path d="M 44.28125 53.078125 
L 44.28125 44.578125 
Q 40.484375 46.53125 36.375 47.5 
Q 32.28125 48.484375 27.875 48.484375 
Q 21.1875 48.484375 17.84375 46.4375 
Q 14.5 44.390625 14.5 40.28125 
Q 14.5 37.15625 16.890625 35.375 
Q 19.28125 33.59375 26.515625 31.984375 
L 29.59375 31.296875 
Q 39.15625 29.25 43.1875 25.515625 
Q 47.21875 21.78125 47.21875 15.09375 
Q 47.21875 7.46875 41.1875 3.015625 
Q 35.15625 -1.421875 24.609375 -1.421875 
Q 20.21875 -1.421875 15.453125 -0.5625 
Q 10.6875 0.296875 5.421875 2 
L 5.421875 11.28125 
Q 10.40625 8.6875 15.234375 7.390625 
Q 20.0625 6.109375 24.8125 6.109375 
Q 31.15625 6.109375 34.5625 8.28125 
Q 37.984375 10.453125 37.984375 14.40625 
Q 37.984375 18.0625 35.515625 20.015625 
Q 33.0625 21.96875 24.703125 23.78125 
L 21.578125 24.515625 
Q 13.234375 26.265625 9.515625 29.90625 
Q 5.8125 33.546875 5.8125 39.890625 
Q 5.8125 47.609375 11.28125 51.796875 
Q 16.75 56 26.8125 56 
Q 31.78125 56 36.171875 55.265625 
Q 40.578125 54.546875 44.28125 53.078125 
z
" id="DejaVuSans-73"/>
     </defs>
     <g transform="translate(222.170156 335.860562)scale(0.1 -0.1)">
      <use xlink:href="#DejaVuSans-53"/>
      <use x="63.476562" xlink:href="#DejaVuSans-74"/>
      <use x="102.685547" xlink:href="#DejaVuSans-65"/>
      <use x="164.208984" xlink:href="#DejaVuSans-70"/>
      <use x="227.685547" xlink:href="#DejaVuSans-73"/>
     </g>
    </g>
   </g>
   <g id="matplotlib.axis_2">
    <g id="ytick_1">
     <g id="line2d_6">
      <defs>
       <path d="M 0 0 
L -3.5 0 
" id="m5a86db68db" style="stroke:#000000;stroke-width:0.8;"/>
      </defs>
      <g>
       <use style="stroke:#000000;stroke-width:0.8;" x="57.6" xlink:href="#m5a86db68db" y="289.207185"/>
      </g>
     </g>
     <g id="text_7">
      <!-- 0.0 -->
      <defs>
       <path d="M 10.6875 12.40625 
L 21 12.40625 
L 21 0 
L 10.6875 0 
z
" id="DejaVuSans-2e"/>
      </defs>
      <g transform="translate(34.696875 293.006404)scale(0.1 -0.1)">
       <use xlink:href="#DejaVuSans-30"/>
       <use x="63.623047" xlink:href="#DejaVuSans-2e"/>
       <use x="95.410156" xlink:href="#DejaVuSans-30"/>
      </g>
     </g>
    </g>
    <g id="ytick_2">
     <g id="line2d_7">
      <g>
       <use style="stroke:#000000;stroke-width:0.8;" x="57.6" xlink:href="#m5a86db68db" y="209.479728"/>
      </g>
     </g>
     <g id="text_8">
      <!-- 0.5 -->
      <g transform="translate(34.696875 213.278947)scale(0.1 -0.1)">
       <use xlink:href="#DejaVuSans-30"/>
       <use x="63.623047" xlink:href="#DejaVuSans-2e"/>
       <use x="95.410156" xlink:href="#DejaVuSans-35"/>
      </g>
     </g>
    </g>
    <g id="ytick_3">
     <g id="line2d_8">
      <g>
       <use style="stroke:#000000;stroke-width:0.8;" x="57.6" xlink:href="#m5a86db68db" y="129.752271"/>
      </g>
     </g>
     <g id="text_9">
      <!-- 1.0 -->
      <g transform="translate(34.696875 133.55149)scale(0.1 -0.1)">
       <use xlink:href="#DejaVuSans-31"/>
       <use x="63.623047" xlink:href="#DejaVuSans-2e"/>
       <use x="95.410156" xlink:href="#DejaVuSans-30"/>
      </g>
     </g>
    </g>
    <g id="ytick_4">
     <g id="line2d_9">
      <g>
       <use style="stroke:#000000;stroke-width:0.8;" x="57.6" xlink:href="#m5a86db68db" y="50.024814"/>
      </g>
     </g>
     <g id="text_10">
      <!-- 1.5 -->
      <g transform="translate(34.696875 53.824033)scale(0.1 -0.1)">
       <use xlink:href="#DejaVuSans-31"/>
       <use x="63.623047" xlink:href="#DejaVuSans-2e"/>
       <use x="95.410156" xlink:href="#DejaVuSans-35"/>
      </g>
     </g>
    </g>
    <g id="text_11">
     <!-- Average reward -->
     <defs>
      <path d="M 34.1875 63.1875 
L 20.796875 26.90625 
L 47.609375 26.90625 
z
M 28.609375 72.90625 
L 39.796875 72.90625 
L 67.578125 0 
L 57.328125 0 
L 50.6875 18.703125 
L 17.828125 18.703125 
L 11.1875 0 
L 0.78125 0 
z
" id="DejaVuSans-41"/>
      <path d="M 2.984375 54.6875 
L 12.5 54.6875 
L 29.59375 8.796875 
L 46.6875 54.6875 
L 56.203125 54.6875 
L 35.6875 0 
L 23.484375 0 
z
" id="DejaVuSans-76"/>
      <path d="M 41.109375 46.296875 
Q 39.59375 47.171875 37.8125 47.578125 
Q 36.03125 48 33.890625 48 
Q 26.265625 48 22.1875 43.046875 
Q 18.109375 38.09375 18.109375 28.8125 
L 18.109375 0 
L 9.078125 0 
L 9.078125 54.6875 
L 18.109375 54.6875 
L 18.109375 46.1875 
Q 20.953125 51.171875 25.484375 53.578125 
Q 30.03125 56 36.53125 56 
Q 37.453125 56 38.578125 55.875 
Q 39.703125 55.765625 41.0625 55.515625 
z
" id="DejaVuSans-72"/>
      <path d="M 34.28125 27.484375 
Q 23.390625 27.484375 19.1875 25 
Q 14.984375 22.515625 14.984375 16.5 
Q 14.984375 11.71875 18.140625 8.90625 
Q 21.296875 6.109375 26.703125 6.109375 
Q 34.1875 6.109375 38.703125 11.40625 
Q 43.21875 16.703125 43.21875 25.484375 
L 43.21875 27.484375 
z
M 52.203125 31.203125 
L 52.203125 0 
L 43.21875 0 
L 43.21875 8.296875 
Q 40.140625 3.328125 35.546875 0.953125 
Q 30.953125 -1.421875 24.3125 -1.421875 
Q 15.921875 -1.421875 10.953125 3.296875 
Q 6 8.015625 6 15.921875 
Q 6 25.140625 12.171875 29.828125 
Q 18.359375 34.515625 30.609375 34.515625 
L 43.21875 34.515625 
L 43.21875 35.40625 
Q 43.21875 41.609375 39.140625 45 
Q 35.0625 48.390625 27.6875 48.390625 
Q 23 48.390625 18.546875 47.265625 
Q 14.109375 46.140625 10.015625 43.890625 
L 10.015625 52.203125 
Q 14.9375 54.109375 19.578125 55.046875 
Q 24.21875 56 28.609375 56 
Q 40.484375 56 46.34375 49.84375 
Q 52.203125 43.703125 52.203125 31.203125 
z
" id="DejaVuSans-61"/>
      <path d="M 45.40625 27.984375 
Q 45.40625 37.75 41.375 43.109375 
Q 37.359375 48.484375 30.078125 48.484375 
Q 22.859375 48.484375 18.828125 43.109375 
Q 14.796875 37.75 14.796875 27.984375 
Q 14.796875 18.265625 18.828125 12.890625 
Q 22.859375 7.515625 30.078125 7.515625 
Q 37.359375 7.515625 41.375 12.890625 
Q 45.40625 18.265625 45.40625 27.984375 
z
M 54.390625 6.78125 
Q 54.390625 -7.171875 48.1875 -13.984375 
Q 42 -20.796875 29.203125 -20.796875 
Q 24.46875 -20.796875 20.265625 -20.09375 
Q 16.0625 -19.390625 12.109375 -17.921875 
L 12.109375 -9.1875 
Q 16.0625 -11.328125 19.921875 -12.34375 
Q 23.78125 -13.375 27.78125 -13.375 
Q 36.625 -13.375 41.015625 -8.765625 
Q 45.40625 -4.15625 45.40625 5.171875 
L 45.40625 9.625 
Q 42.625 4.78125 38.28125 2.390625 
Q 33.9375 0 27.875 0 
Q 17.828125 0 11.671875 7.65625 
Q 5.515625 15.328125 5.515625 27.984375 
Q 5.515625 40.671875 11.671875 48.328125 
Q 17.828125 56 27.875 56 
Q 33.9375 56 38.28125 53.609375 
Q 42.625 51.21875 45.40625 46.390625 
L 45.40625 54.6875 
L 54.390625 54.6875 
z
" id="DejaVuSans-67"/>
      <path id="DejaVuSans-20"/>
      <path d="M 4.203125 54.6875 
L 13.1875 54.6875 
L 24.421875 12.015625 
L 35.59375 54.6875 
L 46.1875 54.6875 
L 57.421875 12.015625 
L 68.609375 54.6875 
L 77.59375 54.6875 
L 63.28125 0 
L 52.6875 0 
L 40.921875 44.828125 
L 29.109375 0 
L 18.5 0 
z
" id="DejaVuSans-77"/>
      <path d="M 45.40625 46.390625 
L 45.40625 75.984375 
L 54.390625 75.984375 
L 54.390625 0 
L 45.40625 0 
L 45.40625 8.203125 
Q 42.578125 3.328125 38.25 0.953125 
Q 33.9375 -1.421875 27.875 -1.421875 
Q 17.96875 -1.421875 11.734375 6.484375 
Q 5.515625 14.40625 5.515625 27.296875 
Q 5.515625 40.1875 11.734375 48.09375 
Q 17.96875 56 27.875 56 
Q 33.9375 56 38.25 53.625 
Q 42.578125 51.265625 45.40625 46.390625 
z
M 14.796875 27.296875 
Q 14.796875 17.390625 18.875 11.75 
Q 22.953125 6.109375 30.078125 6.109375 
Q 37.203125 6.109375 41.296875 11.75 
Q 45.40625 17.390625 45.40625 27.296875 
Q 45.40625 37.203125 41.296875 42.84375 
Q 37.203125 48.484375 30.078125 48.484375 
Q 22.953125 48.484375 18.875 42.84375 
Q 14.796875 37.203125 14.796875 27.296875 
z
" id="DejaVuSans-64"/>
     </defs>
     <g transform="translate(28.617187 214.452219)rotate(-90)scale(0.1 -0.1)">
      <use xlink:href="#DejaVuSans-41"/>
      <use x="68.330078" xlink:href="#DejaVuSans-76"/>
      <use x="127.509766" xlink:href="#DejaVuSans-65"/>
      <use x="189.033203" xlink:href="#DejaVuSans-72"/>
      <use x="230.146484" xlink:href="#DejaVuSans-61"/>
      <use x="291.425781" xlink:href="#DejaVuSans-67"/>
      <use x="354.902344" xlink:href="#DejaVuSans-65"/>
      <use x="416.425781" xlink:href="#DejaVuSans-20"/>
      <use x="448.212891" xlink:href="#DejaVuSans-72"/>
      <use x="489.294922" xlink:href="#DejaVuSans-65"/>
      <use x="550.818359" xlink:href="#DejaVuSans-77"/>
      <use x="632.605469" xlink:href="#DejaVuSans-61"/>
      <use x="693.884766" xlink:href="#DejaVuSans-72"/>
      <use x="734.982422" xlink:href="#DejaVuSans-64"/>
     </g>
    </g>
   </g>
   <g id="line2d_10">
    <path clip-path="url(#p64cd68035d)" d="M 73.832727 287.599648 
L 74.157707 294.144425 
L 74.482686 285.108431 
L 74.807666 287.143908 
L 75.132645 294.620383 
L 75.457625 284.128352 
L 75.782604 284.227968 
L 76.107584 295.128019 
L 76.757543 289.720038 
L 77.082523 118.712644 
L 77.407502 116.826182 
L 77.732482 101.579421 
L 78.057461 102.612837 
L 78.382441 94.2486 
L 78.70742 94.091647 
L 79.357379 84.57557 
L 79.682359 88.822299 
L 80.007338 88.401868 
L 80.332318 76.462948 
L 80.657297 76.1391 
L 80.982277 77.725417 
L 81.307256 75.683885 
L 81.632236 75.431813 
L 82.282195 77.054322 
L 82.607174 79.032157 
L 82.932154 74.838595 
L 83.257133 78.084469 
L 83.582113 77.012465 
L 83.907093 70.906819 
L 84.557052 66.893249 
L 84.882031 67.926285 
L 85.207011 74.360893 
L 85.53199 67.919176 
L 85.85697 65.60297 
L 86.181949 69.018248 
L 86.506929 68.510929 
L 87.156888 71.559096 
L 87.481867 71.981959 
L 87.806847 65.352172 
L 88.131826 63.581206 
L 88.456806 65.089493 
L 88.781785 73.263322 
L 89.106765 72.378362 
L 89.431744 68.962305 
L 89.756724 63.363654 
L 90.081704 67.14667 
L 90.406683 67.110174 
L 90.731663 63.202481 
L 91.056642 68.286515 
L 91.381622 67.851201 
L 91.706601 70.658606 
L 92.031581 61.484188 
L 92.35656 64.872416 
L 92.68154 70.844072 
L 93.006519 63.275188 
L 93.331499 63.298113 
L 94.306437 72.759882 
L 94.631417 63.848523 
L 94.956396 69.124239 
L 95.281376 79.338954 
L 95.606355 63.946664 
L 95.931335 71.646649 
L 96.256314 65.587877 
L 96.906274 68.287256 
L 97.231253 65.234091 
L 97.556233 74.285144 
L 97.881212 68.13574 
L 98.206192 72.12228 
L 98.531171 64.737779 
L 98.856151 71.010966 
L 99.18113 63.108047 
L 99.50611 63.105309 
L 99.831089 59.843411 
L 100.481048 73.293888 
L 100.806028 78.529306 
L 101.131007 66.793625 
L 101.455987 70.792958 
L 101.780966 66.615439 
L 102.430925 62.863426 
L 102.755905 71.403226 
L 103.080885 70.365894 
L 103.405864 63.376903 
L 103.730844 68.847437 
L 104.055823 64.453279 
L 104.380803 68.726315 
L 104.705782 65.149275 
L 105.030762 68.832097 
L 105.680721 63.202937 
L 106.0057 69.272372 
L 106.33068 63.208468 
L 106.655659 66.582897 
L 106.980639 66.853217 
L 107.305618 69.011576 
L 107.630598 63.273801 
L 107.955577 69.950634 
L 108.280557 66.621351 
L 108.605536 70.126691 
L 108.930516 64.109092 
L 109.255495 68.744164 
L 109.580475 66.266671 
L 109.905455 64.716147 
L 110.230434 64.324382 
L 110.555414 64.238425 
L 110.880393 65.208563 
L 111.205373 68.365723 
L 111.530352 66.864108 
L 111.855332 60.776653 
L 112.180311 63.93868 
L 112.505291 60.493008 
L 112.83027 75.468347 
L 113.15525 64.226051 
L 113.480229 73.138246 
L 113.805209 71.811776 
L 114.130188 64.670717 
L 114.455168 66.679745 
L 114.780147 66.301856 
L 115.105127 63.705864 
L 115.430106 66.180315 
L 115.755086 61.130021 
L 116.080066 68.983956 
L 116.405045 63.813661 
L 116.730025 67.036231 
L 117.379984 62.271691 
L 117.704963 66.279388 
L 118.029943 68.585709 
L 118.354922 69.312138 
L 118.679902 69.518913 
L 119.004881 66.831946 
L 119.329861 65.083468 
L 119.65484 68.233842 
L 120.304799 61.466111 
L 120.629779 70.118042 
L 120.954758 67.432026 
L 121.279738 66.004639 
L 121.604717 65.412296 
L 121.929697 58.402548 
L 122.254676 69.064875 
L 122.579656 64.805335 
L 122.904636 71.1495 
L 123.229615 64.596204 
L 123.554595 71.402066 
L 123.879574 67.103768 
L 124.204554 68.664024 
L 124.529533 66.1392 
L 124.854513 64.627568 
L 125.504472 63.811 
L 125.829451 67.159159 
L 126.154431 66.677692 
L 126.80439 67.599339 
L 127.129369 61.472402 
L 127.454349 62.556667 
L 127.779328 63.107856 
L 128.104308 68.904748 
L 128.429287 64.521329 
L 128.754267 69.970631 
L 129.079247 70.437575 
L 129.729206 66.411934 
L 130.054185 66.969606 
L 130.379165 60.79435 
L 130.704144 71.068391 
L 131.354103 66.667979 
L 131.679083 70.939266 
L 132.004062 67.910394 
L 132.329042 67.861599 
L 132.654021 61.779409 
L 132.979001 65.583353 
L 133.30398 63.290984 
L 133.953939 67.897297 
L 134.278919 68.416343 
L 134.603898 69.413777 
L 134.928878 63.517528 
L 135.253857 69.977398 
L 135.578837 67.860667 
L 135.903817 67.268324 
L 136.228796 70.82647 
L 136.553776 63.639353 
L 136.878755 67.151574 
L 137.203735 68.865723 
L 137.528714 66.728293 
L 137.853694 65.768648 
L 138.178673 69.997053 
L 138.503653 63.509487 
L 138.828632 64.154427 
L 139.153612 69.656876 
L 139.478591 62.459723 
L 139.803571 68.730592 
L 140.12855 70.471581 
L 140.45353 67.991313 
L 140.778509 61.277964 
L 141.103489 68.082212 
L 141.428468 68.336089 
L 141.753448 68.153475 
L 142.078428 65.08803 
L 142.403407 58.179958 
L 142.728387 62.471071 
L 143.053366 58.716302 
L 143.378346 67.352247 
L 143.703325 63.201739 
L 144.028305 62.372702 
L 144.353284 64.106468 
L 144.678264 69.193145 
L 145.003243 64.353047 
L 145.328223 66.872833 
L 145.653202 66.595271 
L 145.978182 70.626272 
L 146.303161 65.367246 
L 146.628141 64.830673 
L 146.95312 67.54505 
L 147.2781 60.576284 
L 147.603079 60.905265 
L 147.928059 65.398305 
L 148.578018 69.98369 
L 148.902998 69.665943 
L 149.227977 62.258575 
L 149.552957 68.896023 
L 149.877936 62.602211 
L 150.202916 69.843711 
L 150.527895 67.074114 
L 150.852875 63.264601 
L 151.177854 61.376752 
L 151.502834 61.507188 
L 151.827813 66.732912 
L 152.152793 68.463446 
L 152.477772 65.463391 
L 152.802752 65.027792 
L 153.127731 66.237664 
L 153.452711 69.324056 
L 153.77769 65.879715 
L 154.10267 64.678396 
L 154.427649 62.657868 
L 154.752629 65.262832 
L 155.077609 62.767357 
L 155.402588 72.194626 
L 155.727568 61.278098 
L 156.052547 67.132832 
L 156.377527 69.015206 
L 156.702506 64.986201 
L 157.027486 68.612378 
L 157.352465 64.576207 
L 157.677445 57.080924 
L 158.002424 67.107969 
L 158.327404 65.47913 
L 158.652383 65.924081 
L 158.977363 71.956621 
L 159.302342 70.612586 
L 159.627322 68.347646 
L 159.952301 61.871524 
L 160.60226 68.956052 
L 160.92724 68.711602 
L 161.252219 66.940466 
L 161.577199 68.22162 
L 161.902179 67.539576 
L 162.227158 66.140531 
L 162.552138 67.214967 
L 162.877117 66.859204 
L 163.202097 66.978083 
L 163.527076 67.779178 
L 163.852056 69.414537 
L 164.177035 67.790127 
L 164.502015 63.349512 
L 164.826994 68.091697 
L 165.151974 62.108636 
L 165.476953 63.336263 
L 166.126912 68.189211 
L 166.451892 65.648115 
L 166.776871 59.351224 
L 167.101851 58.255859 
L 167.75181 70.088255 
L 168.07679 65.31309 
L 168.401769 65.04296 
L 168.726749 71.248858 
L 169.051728 64.459589 
L 169.376708 65.721298 
L 169.701687 63.722268 
L 170.026667 66.830825 
L 170.351646 71.250245 
L 170.676626 65.194914 
L 171.001605 61.934936 
L 171.326585 65.296439 
L 171.651564 65.295869 
L 171.976544 71.291247 
L 172.301523 65.221412 
L 172.626503 67.637089 
L 172.951482 66.338542 
L 173.276462 68.445578 
L 173.601441 64.347325 
L 173.926421 66.761253 
L 174.2514 62.241867 
L 174.57638 66.742796 
L 174.90136 65.277792 
L 175.226339 67.984204 
L 175.551319 71.963178 
L 175.876298 70.091658 
L 176.201278 65.649028 
L 177.176216 71.229526 
L 177.501196 70.895927 
L 177.826175 64.011635 
L 178.151155 61.556971 
L 178.476134 66.463656 
L 178.801114 69.53526 
L 179.126093 76.674456 
L 179.451073 64.599036 
L 179.776052 67.534481 
L 180.101032 61.87065 
L 180.426011 68.741332 
L 180.750991 64.41606 
L 181.075971 69.816073 
L 181.40095 61.865822 
L 181.72593 63.118197 
L 182.050909 66.964169 
L 182.375889 66.182977 
L 182.700868 59.948034 
L 183.025848 70.209796 
L 183.350827 71.817421 
L 183.675807 71.204853 
L 184.000786 71.170182 
L 184.325766 61.269373 
L 184.650745 63.910757 
L 184.975725 59.651578 
L 185.300704 62.597326 
L 185.625684 62.169977 
L 185.950663 68.620057 
L 186.275643 68.409709 
L 186.600622 69.314951 
L 186.925602 65.611258 
L 187.250581 66.357152 
L 187.575561 63.596622 
L 187.900541 63.363331 
L 188.22552 67.469377 
L 188.5505 64.950845 
L 188.875479 70.598045 
L 189.200459 63.113274 
L 189.525438 62.93773 
L 189.850418 65.864508 
L 190.175397 64.843238 
L 190.500377 57.452693 
L 190.825356 62.419463 
L 191.150336 69.545696 
L 191.475315 62.963848 
L 191.800295 65.017261 
L 192.125274 70.204682 
L 192.450254 61.685526 
L 192.775233 68.273437 
L 193.100213 67.964967 
L 193.425192 68.108671 
L 193.750172 62.156519 
L 194.075152 61.121258 
L 194.400131 66.187805 
L 194.725111 67.697251 
L 195.05009 59.83309 
L 195.37507 61.550033 
L 195.700049 64.836091 
L 196.025029 65.510018 
L 196.350008 59.347651 
L 196.674988 66.237721 
L 196.999967 63.163932 
L 197.324947 65.190619 
L 197.649926 61.982135 
L 197.974906 71.684153 
L 198.299885 65.30868 
L 198.624865 63.298493 
L 199.274824 68.9536 
L 199.599803 66.693241 
L 200.249762 63.695675 
L 200.574742 67.445484 
L 200.899722 63.984738 
L 201.549681 67.189629 
L 201.87466 62.218638 
L 202.19964 69.198524 
L 202.524619 63.993691 
L 202.849599 68.461602 
L 203.499558 64.118102 
L 203.824537 59.84727 
L 204.149517 53.568 
L 204.474496 69.642487 
L 204.799476 64.596432 
L 205.124455 73.677423 
L 205.449435 62.836168 
L 206.099394 67.159044 
L 206.424373 64.026119 
L 206.749353 71.362034 
L 207.399312 60.323775 
L 208.049271 68.537731 
L 208.69923 58.028365 
L 209.02421 68.997566 
L 209.349189 64.907544 
L 209.674169 72.75186 
L 209.999148 68.300106 
L 210.324128 69.023627 
L 210.649107 63.789692 
L 210.974087 63.23164 
L 211.299066 63.220026 
L 211.624046 65.027925 
L 211.949025 62.40017 
L 212.274005 66.087687 
L 212.598984 62.484777 
L 212.923964 65.948697 
L 213.248943 64.264315 
L 213.573923 61.716453 
L 213.898903 62.885514 
L 214.223882 69.490913 
L 214.548862 68.291419 
L 214.873841 70.960062 
L 215.198821 63.767205 
L 215.5238 62.962917 
L 215.84878 68.800847 
L 216.173759 63.893573 
L 216.498739 65.323716 
L 216.823718 74.25914 
L 217.148698 64.767774 
L 217.473677 71.306111 
L 217.798657 63.358636 
L 218.123636 64.45919 
L 218.448616 70.225478 
L 218.773595 64.985023 
L 219.098575 65.716508 
L 219.423554 64.609795 
L 219.748534 67.796058 
L 220.073514 64.802883 
L 220.398493 64.848751 
L 220.723473 66.413778 
L 221.048452 64.207118 
L 221.373432 70.44227 
L 221.698411 71.575766 
L 222.023391 62.464057 
L 222.67335 65.539425 
L 222.998329 68.124068 
L 223.323309 64.863596 
L 223.648288 63.742646 
L 223.973268 63.489718 
L 224.298247 61.916194 
L 224.623227 67.601448 
L 224.948206 69.90087 
L 225.273186 63.300831 
L 225.598165 73.174914 
L 225.923145 67.142336 
L 226.248124 66.499392 
L 226.573104 67.224016 
L 226.898084 67.185162 
L 227.223063 60.507626 
L 227.548043 66.175487 
L 227.873022 68.204721 
L 228.198002 64.57499 
L 228.522981 64.212688 
L 228.847961 69.875778 
L 229.17294 69.256899 
L 229.49792 64.354529 
L 229.822899 65.132148 
L 230.147879 57.356567 
L 230.472858 68.307538 
L 230.797838 67.483063 
L 231.122817 65.24504 
L 231.447797 69.853253 
L 231.772776 64.52897 
L 232.097756 70.008591 
L 232.422735 62.767205 
L 232.747715 65.614964 
L 233.072695 71.117509 
L 233.397674 69.994277 
L 233.722654 60.288363 
L 234.047633 63.831358 
L 234.372613 62.902964 
L 234.697592 70.234773 
L 235.347551 65.18676 
L 235.672531 71.950253 
L 235.99751 68.663549 
L 236.32249 68.412998 
L 236.647469 61.578679 
L 236.972449 57.886163 
L 237.297428 57.546937 
L 237.622408 68.371369 
L 237.947387 65.070808 
L 238.272367 69.052577 
L 238.597346 66.015417 
L 238.922326 65.301913 
L 239.247305 65.203544 
L 239.572285 64.274732 
L 239.897265 61.531823 
L 240.222244 69.107017 
L 240.547224 67.748422 
L 240.872203 62.270836 
L 241.197183 64.654731 
L 241.522162 70.586202 
L 241.847142 68.619848 
L 242.172121 68.521821 
L 242.497101 70.082781 
L 242.82208 72.302727 
L 243.14706 65.328886 
L 243.472039 65.003176 
L 243.797019 67.979433 
L 244.121998 73.033624 
L 244.446978 63.640057 
L 244.771957 66.879524 
L 245.096937 67.978368 
L 245.421916 70.394425 
L 245.746896 65.591337 
L 246.071876 68.522183 
L 246.396855 69.236712 
L 246.721835 66.431133 
L 247.046814 65.807331 
L 247.371794 63.978009 
L 247.696773 63.42756 
L 248.021753 63.461928 
L 248.346732 67.85181 
L 248.671712 64.523724 
L 248.996691 63.710578 
L 249.321671 59.362591 
L 249.64665 59.239701 
L 249.97163 63.776043 
L 250.296609 61.324573 
L 250.621589 63.435658 
L 250.946568 69.781021 
L 251.271548 62.669938 
L 251.596527 66.935048 
L 251.921507 73.018626 
L 252.246486 64.322291 
L 252.571466 65.679441 
L 252.896446 64.205237 
L 253.221425 66.875856 
L 253.871384 68.619316 
L 254.196364 65.944401 
L 254.521343 67.957991 
L 254.846323 62.053493 
L 255.171302 67.178243 
L 255.496282 66.190447 
L 255.821261 66.362151 
L 256.146241 64.217896 
L 256.47122 66.645986 
L 256.7962 64.7807 
L 257.121179 71.242756 
L 257.446159 65.147488 
L 257.771138 65.792276 
L 258.096118 65.379297 
L 258.421097 60.457044 
L 258.746077 63.468372 
L 259.071057 72.493155 
L 259.396036 66.191169 
L 259.721016 69.4835 
L 260.045995 68.951433 
L 260.370975 69.986693 
L 260.695954 61.738712 
L 261.345913 71.934609 
L 261.995872 63.304918 
L 262.320852 66.022792 
L 262.645831 65.582878 
L 263.29579 73.815481 
L 263.62077 68.282827 
L 263.945749 64.7554 
L 264.270729 64.676667 
L 264.595708 66.041325 
L 264.920688 71.802937 
L 265.570647 63.19693 
L 265.895627 66.041667 
L 266.220606 61.795224 
L 266.545586 68.643191 
L 266.870565 64.637091 
L 267.195545 70.031933 
L 267.845504 60.385496 
L 268.170483 74.163071 
L 268.495463 67.627319 
L 269.145422 66.391025 
L 269.470401 61.342536 
L 269.795381 61.633329 
L 270.12036 62.164084 
L 270.44534 61.46286 
L 270.770319 62.126542 
L 271.095299 65.332327 
L 271.420278 66.440181 
L 271.745258 58.049864 
L 272.070238 71.807404 
L 272.395217 64.231259 
L 272.720197 64.629126 
L 273.045176 68.742206 
L 273.370156 65.784026 
L 273.695135 65.534273 
L 274.020115 63.979663 
L 274.345094 64.859148 
L 274.670074 59.696077 
L 275.320033 65.33514 
L 275.645012 62.044977 
L 275.969992 64.165072 
L 276.294971 65.22721 
L 276.619951 69.756348 
L 276.94493 72.580062 
L 277.26991 66.849358 
L 277.594889 67.795088 
L 277.919869 64.559593 
L 278.244848 64.04912 
L 278.569828 61.758576 
L 278.894808 61.431382 
L 279.219787 62.209096 
L 279.544767 63.544957 
L 279.869746 62.101432 
L 280.194726 66.89667 
L 280.519705 63.091376 
L 280.844685 65.171002 
L 281.169664 69.883021 
L 281.494644 69.915335 
L 281.819623 66.95955 
L 282.144603 67.778741 
L 282.469582 67.520681 
L 282.794562 63.494052 
L 283.119541 66.300411 
L 283.444521 72.033187 
L 283.7695 72.15104 
L 284.09448 66.97757 
L 284.419459 64.737038 
L 284.744439 70.679553 
L 285.069419 68.715442 
L 285.394398 71.278967 
L 285.719378 69.415468 
L 286.369337 62.037677 
L 286.694316 64.176667 
L 287.019296 65.090596 
L 287.344275 64.581624 
L 287.669255 65.64859 
L 287.994234 69.072137 
L 288.319214 67.456033 
L 288.644193 69.264541 
L 288.969173 67.863063 
L 289.619132 61.735822 
L 289.944111 60.392624 
L 290.269091 65.973959 
L 290.59407 67.841868 
L 290.91905 61.828261 
L 291.244029 65.028324 
L 291.893989 65.739679 
L 292.218968 58.190793 
L 292.543948 63.817007 
L 292.868927 65.673853 
L 293.193907 61.693129 
L 293.518886 67.200616 
L 293.843866 66.553738 
L 294.168845 64.746257 
L 294.493825 64.71417 
L 294.818804 59.124624 
L 295.143784 60.33615 
L 295.468763 67.03452 
L 295.793743 63.427313 
L 296.118722 63.279788 
L 296.768681 67.655718 
L 297.093661 63.296269 
L 297.41864 68.42714 
L 297.74362 63.539235 
L 298.0686 63.719208 
L 298.393579 65.763934 
L 299.043538 61.701759 
L 299.368518 65.314535 
L 299.693497 59.121887 
L 300.018477 71.760719 
L 300.343456 72.21046 
L 300.668436 65.231487 
L 300.993415 65.789634 
L 301.318395 68.859355 
L 301.643374 60.225007 
L 301.968354 64.157696 
L 302.293333 65.986999 
L 302.618313 64.135247 
L 302.943292 65.532449 
L 303.268272 59.313435 
L 303.593251 67.174517 
L 303.918231 69.484526 
L 304.24321 59.899373 
L 304.56819 69.00612 
L 304.89317 67.649293 
L 305.218149 63.634088 
L 305.543129 64.573241 
L 305.868108 63.379412 
L 306.193088 65.150891 
L 306.518067 64.556875 
L 306.843047 62.964 
L 307.168026 63.823356 
L 307.493006 62.725367 
L 307.817985 67.529653 
L 308.142965 62.155017 
L 308.792924 64.268155 
L 309.117903 63.639315 
L 309.442883 68.33128 
L 309.767862 67.740572 
L 310.092842 72.485475 
L 310.417821 66.91047 
L 310.742801 70.499885 
L 311.067781 59.06182 
L 311.39276 61.382568 
L 311.71774 59.792697 
L 312.042719 70.033606 
L 312.692678 57.023176 
L 313.017658 63.395607 
L 313.342637 62.594285 
L 313.667617 60.094856 
L 313.992596 64.658209 
L 314.317576 65.511425 
L 314.642555 69.989962 
L 314.967535 63.838258 
L 315.292514 63.810107 
L 315.617494 62.901025 
L 315.942473 69.547368 
L 316.267453 66.597894 
L 316.592432 66.267165 
L 316.917412 62.152774 
L 317.242391 65.112722 
L 317.567371 72.557346 
L 317.892351 63.970995 
L 318.21733 68.648627 
L 318.54231 66.728521 
L 318.867289 66.020682 
L 319.192269 64.364813 
L 319.517248 64.88021 
L 319.842228 64.876579 
L 320.167207 58.125765 
L 320.492187 67.648266 
L 320.817166 70.633609 
L 321.142146 60.88637 
L 321.467125 63.496352 
L 321.792105 68.597038 
L 322.117084 63.719797 
L 322.442064 66.918207 
L 322.767043 61.671212 
L 323.092023 66.267926 
L 323.741982 67.681512 
L 324.066962 61.665339 
L 324.391941 66.726487 
L 324.716921 59.921061 
L 325.0419 68.64205 
L 325.36688 62.229663 
L 325.691859 67.050126 
L 326.016839 67.378308 
L 326.341818 69.665164 
L 326.666798 63.87964 
L 326.991777 65.367854 
L 327.316757 71.222949 
L 327.641736 59.163458 
L 327.966716 72.605419 
L 328.291695 67.501502 
L 328.616675 67.423301 
L 328.941654 66.768686 
L 329.266634 64.876104 
L 329.591613 60.508139 
L 329.916593 69.667141 
L 330.241572 56.378275 
L 330.566552 71.094832 
L 330.891532 64.096451 
L 331.216511 65.330578 
L 331.541491 67.550068 
L 331.86647 67.87021 
L 332.19145 64.985232 
L 332.516429 66.15646 
L 332.841409 69.629637 
L 333.166388 61.714381 
L 333.491368 66.771917 
L 333.816347 65.953715 
L 334.141327 59.163553 
L 334.466306 66.441454 
L 334.791286 66.377472 
L 335.116265 65.986923 
L 335.441245 62.070505 
L 335.766224 65.926818 
L 336.091204 65.686398 
L 336.416183 68.307424 
L 336.741163 74.324187 
L 337.066143 62.636122 
L 337.391122 59.041937 
L 337.716102 69.045164 
L 338.041081 66.309592 
L 338.366061 64.864242 
L 338.69104 67.37327 
L 339.01602 66.922065 
L 339.340999 60.680394 
L 339.665979 63.337327 
L 339.990958 60.951227 
L 340.315938 63.45997 
L 340.640917 67.543948 
L 340.965897 61.686267 
L 341.290876 63.11278 
L 341.615856 62.678891 
L 341.940835 60.43929 
L 342.265815 71.520128 
L 342.590794 62.935791 
L 342.915774 65.06539 
L 343.240753 70.262278 
L 343.565733 71.811871 
L 344.215692 67.532809 
L 344.540672 71.080385 
L 344.865651 65.930734 
L 345.190631 64.578526 
L 345.51561 70.471828 
L 345.84059 58.979418 
L 346.165569 69.893627 
L 346.490549 65.44174 
L 346.815528 64.322272 
L 347.140508 64.180659 
L 347.465487 66.907068 
L 347.790467 61.652489 
L 348.115446 66.000476 
L 348.440426 67.528646 
L 348.765405 67.381216 
L 349.090385 64.636996 
L 349.415364 70.135587 
L 349.740344 67.678604 
L 350.065324 67.591146 
L 350.390303 66.581737 
L 350.715283 67.624468 
L 351.040262 69.131671 
L 351.365242 66.004905 
L 351.690221 58.772472 
L 352.015201 65.263364 
L 352.34018 67.79294 
L 352.66516 66.202555 
L 352.990139 69.590727 
L 353.315119 68.901345 
L 353.640098 61.1381 
L 353.965078 71.307081 
L 354.290057 61.95001 
L 354.615037 61.604303 
L 354.940016 62.729226 
L 355.264996 68.407314 
L 355.914955 57.403727 
L 356.239934 63.901214 
L 356.564914 67.817898 
L 356.889894 66.072594 
L 357.214873 71.129693 
L 357.539853 67.276004 
L 357.864832 66.39074 
L 358.189812 67.88574 
L 358.514791 58.323966 
L 358.839771 66.838656 
L 359.16475 59.76943 
L 359.48973 62.542543 
L 359.814709 67.623783 
L 360.139689 63.792258 
L 360.464668 67.445522 
L 360.789648 69.426436 
L 361.114627 61.809594 
L 361.439607 66.622054 
L 361.764586 69.393228 
L 362.089566 63.152013 
L 362.414545 67.121636 
L 362.739525 64.359757 
L 363.064505 66.215101 
L 363.389484 66.764732 
L 363.714464 66.538626 
L 364.039443 67.22662 
L 364.364423 64.081377 
L 364.689402 64.905567 
L 365.014382 62.851869 
L 365.339361 68.782808 
L 365.664341 67.890435 
L 365.98932 69.774577 
L 366.3143 62.516046 
L 366.639279 66.813489 
L 366.964259 64.198108 
L 367.289238 68.991864 
L 367.614218 60.905702 
L 367.939197 73.136536 
L 368.264177 69.179193 
L 368.589156 66.844245 
L 368.914136 68.556018 
L 369.564095 64.144828 
L 369.889075 61.984758 
L 370.214054 67.486219 
L 370.539034 66.847571 
L 370.864013 64.876579 
L 371.188993 66.292104 
L 371.513972 65.906783 
L 371.838952 69.913339 
L 372.163931 63.220463 
L 372.488911 63.843372 
L 372.81389 68.924707 
L 373.13887 55.938874 
L 373.463849 58.236052 
L 373.788829 66.327745 
L 374.113808 71.59065 
L 374.438788 70.64089 
L 374.763767 62.16838 
L 375.088747 69.103044 
L 375.413726 62.687939 
L 375.738706 63.160852 
L 376.388665 68.706109 
L 376.713645 65.468561 
L 377.038624 66.850118 
L 377.363604 67.549308 
L 377.688583 65.816683 
L 378.013563 65.202328 
L 378.338542 65.40743 
L 378.663522 64.249888 
L 378.988501 68.349528 
L 379.313481 61.096186 
L 379.63846 65.044462 
L 379.96344 63.55813 
L 380.288419 68.301038 
L 380.613399 61.019145 
L 380.938378 63.034046 
L 381.263358 60.514336 
L 381.588337 64.847971 
L 381.913317 65.978825 
L 382.238296 58.791519 
L 382.563276 66.296876 
L 382.888256 63.960046 
L 383.538215 70.436814 
L 383.863194 68.302463 
L 384.188174 61.663191 
L 384.513153 68.848368 
L 384.838133 64.578887 
L 385.163112 66.630285 
L 385.488092 65.174803 
L 385.813071 61.863579 
L 386.138051 69.128003 
L 386.46303 65.032924 
L 386.78801 69.249011 
L 387.437969 64.487627 
L 388.087928 67.191739 
L 388.412907 61.230519 
L 388.737887 66.843332 
L 389.062867 65.525986 
L 389.387846 59.021065 
L 389.712826 63.638593 
L 390.037805 65.999392 
L 390.362785 76.685842 
L 390.687764 64.475671 
L 391.012744 65.91585 
L 391.337723 72.689132 
L 391.662703 65.006635 
L 391.987682 65.305031 
L 392.312662 65.354643 
L 392.637641 66.978331 
L 392.962621 66.468865 
L 393.2876 60.427315 
L 393.61258 63.891862 
L 394.262539 58.978391 
L 394.587518 67.367625 
L 394.912498 57.951172 
L 395.237477 68.937195 
L 395.562457 64.765949 
L 395.887437 62.173189 
L 396.537396 70.088845 
L 396.862375 58.506638 
L 397.187355 68.334645 
L 397.512334 66.890245 
L 397.837314 62.215236 
L 398.162293 63.319497 
L 398.487273 66.557672 
L 398.487273 66.557672 
" style="fill:none;stroke:#1f77b4;stroke-linecap:square;stroke-width:1.5;"/>
   </g>
   <g id="line2d_11">
    <path clip-path="url(#p64cd68035d)" d="M 73.832727 295.488 
L 74.482686 223.769487 
L 75.457625 191.95378 
L 75.782604 189.306703 
L 76.107584 180.057097 
L 76.432563 175.261526 
L 76.757543 160.464734 
L 77.082523 163.961881 
L 77.407502 156.308781 
L 77.732482 163.402157 
L 78.382441 148.842676 
L 78.70742 150.918956 
L 79.0324 143.75657 
L 79.357379 149.478881 
L 79.682359 144.560725 
L 80.007338 136.216237 
L 80.332318 143.021863 
L 80.657297 139.827949 
L 80.982277 140.10361 
L 81.307256 139.061488 
L 81.632236 132.296987 
L 81.957215 131.989363 
L 82.282195 138.632913 
L 82.932154 129.454731 
L 83.257133 141.288068 
L 83.907093 130.276336 
L 84.232072 131.113869 
L 84.557052 126.209161 
L 84.882031 127.982807 
L 85.207011 128.807054 
L 85.85697 122.011418 
L 86.181949 126.656774 
L 86.506929 125.911564 
L 86.831908 130.525946 
L 87.481867 118.753417 
L 87.806847 121.507464 
L 88.131826 117.005242 
L 88.456806 118.987735 
L 88.781785 117.631174 
L 89.106765 119.994444 
L 89.756724 112.59027 
L 90.081704 114.631042 
L 90.406683 118.639347 
L 90.731663 119.760126 
L 91.056642 114.532065 
L 91.381622 118.49722 
L 91.706601 121.081693 
L 92.031581 116.73536 
L 92.35656 123.286718 
L 92.68154 123.298199 
L 93.006519 116.680026 
L 93.331499 112.553868 
L 93.656478 118.331485 
L 93.981458 116.821753 
L 94.306437 116.898719 
L 94.631417 103.74238 
L 94.956396 113.310369 
L 95.281376 110.500816 
L 95.931335 113.914706 
L 96.256314 112.18383 
L 96.581294 112.156819 
L 96.906274 107.429137 
L 97.231253 117.011876 
L 97.556233 113.473804 
L 97.881212 111.863289 
L 98.206192 114.037596 
L 98.531171 104.882738 
L 98.856151 107.579475 
L 99.18113 111.235191 
L 99.50611 106.428852 
L 100.156069 113.175884 
L 100.481048 112.044972 
L 100.806028 109.42944 
L 101.131007 102.759754 
L 101.455987 111.994524 
L 101.780966 115.694055 
L 102.105946 100.322198 
L 102.430925 106.372663 
L 102.755905 106.768268 
L 103.080885 99.269298 
L 103.405864 106.810809 
L 103.730844 108.097742 
L 104.055823 106.609965 
L 104.380803 101.540282 
L 104.705782 112.564171 
L 105.030762 104.178283 
L 105.355741 108.218484 
L 105.680721 99.875403 
L 106.0057 102.325581 
L 106.33068 111.721942 
L 106.655659 100.731755 
L 106.980639 101.611868 
L 107.305618 97.114931 
L 107.630598 105.734928 
L 107.955577 107.00116 
L 108.280557 100.711701 
L 108.930516 111.775888 
L 109.255495 100.328547 
L 109.580475 97.93281 
L 109.905455 102.989206 
L 110.230434 96.048649 
L 110.555414 99.361185 
L 110.880393 105.539786 
L 111.205373 95.795835 
L 111.530352 102.449193 
L 111.855332 103.28359 
L 112.180311 98.181897 
L 112.505291 99.789162 
L 112.83027 92.455147 
L 113.15525 97.855217 
L 113.480229 105.201929 
L 113.805209 101.967765 
L 114.130188 96.708928 
L 114.455168 94.520041 
L 114.780147 97.352252 
L 115.105127 97.730502 
L 115.430106 96.858107 
L 115.755086 95.407796 
L 116.080066 98.30608 
L 116.405045 105.180506 
L 116.730025 96.327123 
L 117.055004 93.74208 
L 117.704963 101.442902 
L 118.029943 91.329939 
L 118.354922 93.898615 
L 118.679902 95.010157 
L 119.004881 94.2256 
L 119.329861 97.193151 
L 119.65484 84.461728 
L 119.97982 88.711669 
L 120.304799 98.834878 
L 120.629779 97.860235 
L 120.954758 98.121317 
L 121.604717 89.531563 
L 121.929697 88.619193 
L 122.254676 96.372287 
L 122.904636 93.645954 
L 123.229615 93.984515 
L 123.554595 100.062029 
L 123.879574 98.168971 
L 124.204554 100.042469 
L 124.529533 88.49387 
L 124.854513 94.23193 
L 125.179492 89.222827 
L 125.504472 89.724537 
L 125.829451 89.587543 
L 126.47941 93.463701 
L 126.80439 90.347104 
L 127.129369 93.892305 
L 127.454349 91.960546 
L 127.779328 87.31251 
L 128.104308 91.017116 
L 128.429287 88.739497 
L 128.754267 87.707906 
L 129.079247 90.575757 
L 129.404226 94.904508 
L 129.729206 88.102941 
L 130.379165 83.289873 
L 130.704144 91.408634 
L 131.029124 94.85347 
L 131.679083 83.606098 
L 132.004062 91.00535 
L 132.329042 93.703303 
L 132.654021 95.292376 
L 132.979001 84.464009 
L 133.30398 94.376451 
L 133.62896 92.555645 
L 133.953939 84.117484 
L 134.278919 84.455208 
L 134.603898 95.618391 
L 134.928878 90.98923 
L 135.253857 92.860485 
L 136.228796 85.612332 
L 136.553776 100.358542 
L 137.203735 81.358152 
L 137.528714 88.262441 
L 138.178673 91.204711 
L 138.503653 92.540039 
L 138.828632 86.326291 
L 139.153612 90.965717 
L 139.478591 78.832682 
L 139.803571 87.924432 
L 140.12855 87.039015 
L 140.45353 94.266905 
L 140.778509 95.145802 
L 141.103489 83.434489 
L 141.428468 77.72614 
L 141.753448 85.18964 
L 142.078428 89.683498 
L 142.728387 80.261437 
L 143.053366 90.914755 
L 143.378346 91.137782 
L 143.703325 88.714558 
L 144.028305 90.439561 
L 144.353284 81.775332 
L 144.678264 92.381813 
L 145.003243 80.97074 
L 145.328223 84.895179 
L 145.653202 86.446197 
L 145.978182 89.725165 
L 146.303161 84.984272 
L 146.628141 85.150368 
L 146.95312 85.177988 
L 147.2781 83.478665 
L 147.603079 85.202052 
L 147.928059 85.454295 
L 148.253038 86.578287 
L 148.902998 82.475149 
L 149.227977 80.881153 
L 149.552957 85.180345 
L 149.877936 95.797888 
L 150.202916 81.282232 
L 150.527895 73.838406 
L 150.852875 82.95078 
L 151.502834 91.583531 
L 151.827813 84.590682 
L 152.152793 89.072888 
L 152.477772 91.089899 
L 152.802752 84.576939 
L 153.127731 82.690382 
L 153.452711 89.597846 
L 153.77769 78.768832 
L 154.10267 84.461614 
L 154.427649 87.500884 
L 154.752629 82.274495 
L 155.402588 89.324826 
L 155.727568 81.854996 
L 156.052547 81.167915 
L 156.377527 80.061658 
L 156.702506 83.647175 
L 157.027486 84.515522 
L 157.352465 84.137082 
L 157.677445 79.191562 
L 158.327404 83.280882 
L 158.652383 83.402137 
L 159.302342 75.078901 
L 159.627322 97.314862 
L 159.952301 79.698633 
L 160.277281 84.433177 
L 160.60226 83.721898 
L 160.92724 80.944622 
L 161.252219 80.557134 
L 161.902179 88.840661 
L 162.227158 83.61526 
L 162.552138 73.991063 
L 163.202097 77.627523 
L 163.527076 85.628831 
L 163.852056 88.7126 
L 164.177035 81.197131 
L 164.502015 82.147366 
L 164.826994 86.111039 
L 165.151974 87.481914 
L 165.476953 84.568537 
L 165.801933 84.069621 
L 166.126912 83.065363 
L 166.451892 85.893164 
L 166.776871 80.242106 
L 167.101851 83.877692 
L 167.42683 84.687359 
L 167.75181 79.041129 
L 168.07679 78.322684 
L 168.401769 84.10568 
L 168.726749 81.334068 
L 169.051728 83.5957 
L 169.376708 81.615565 
L 169.701687 77.702854 
L 170.026667 76.321088 
L 170.351646 76.25777 
L 171.001605 87.26995 
L 171.326585 89.301351 
L 171.976544 79.72823 
L 172.301523 86.094616 
L 172.626503 78.644859 
L 172.951482 85.054052 
L 173.276462 82.54453 
L 173.601441 78.187704 
L 174.2514 79.678503 
L 174.57638 84.814526 
L 174.90136 79.547155 
L 175.226339 80.070212 
L 175.551319 79.237525 
L 175.876298 82.137463 
L 176.201278 78.46616 
L 176.851237 82.19331 
L 177.176216 81.533981 
L 177.501196 75.229714 
L 177.826175 84.690552 
L 178.151155 74.532387 
L 178.801114 84.4891 
L 179.126093 85.499859 
L 179.451073 76.117488 
L 179.776052 82.609482 
L 180.101032 84.579486 
L 180.426011 76.583025 
L 180.750991 82.309376 
L 181.075971 80.137559 
L 181.40095 84.534341 
L 182.050909 76.228364 
L 182.700868 80.412631 
L 183.025848 80.495508 
L 183.350827 83.346955 
L 183.675807 82.076655 
L 184.000786 78.001326 
L 184.325766 77.618171 
L 184.650745 80.283848 
L 184.975725 80.64309 
L 185.300704 82.360737 
L 185.625684 72.560844 
L 185.950663 79.786871 
L 186.275643 79.776245 
L 186.600622 76.94643 
L 186.925602 77.220285 
L 187.575561 82.708022 
L 187.900541 78.682914 
L 188.22552 80.520998 
L 188.875479 76.466294 
L 189.200459 75.641857 
L 189.525438 83.307094 
L 189.850418 77.087701 
L 190.175397 79.338916 
L 190.500377 72.988935 
L 190.825356 81.310194 
L 191.150336 76.819757 
L 191.800295 82.432665 
L 192.125274 80.125678 
L 192.450254 73.208882 
L 192.775233 80.115756 
L 193.100213 76.989313 
L 193.425192 79.04035 
L 193.750172 80.231898 
L 194.075152 83.524343 
L 194.400131 76.935975 
L 195.05009 77.920749 
L 195.37507 74.757961 
L 195.700049 75.174191 
L 196.025029 84.105775 
L 196.350008 76.23344 
L 196.674988 82.151681 
L 196.999967 78.731138 
L 197.324947 70.179705 
L 197.649926 82.364805 
L 197.974906 82.365888 
L 198.299885 82.007958 
L 198.624865 71.917368 
L 198.949844 83.789435 
L 199.274824 82.95192 
L 199.599803 78.934967 
L 199.924783 81.136912 
L 200.249762 78.983666 
L 200.574742 73.806053 
L 200.899722 81.771834 
L 201.224701 75.010147 
L 201.549681 80.309586 
L 201.87466 76.626802 
L 202.19964 81.968363 
L 202.524619 77.88602 
L 202.849599 84.829238 
L 203.174578 81.878966 
L 203.499558 81.785311 
L 203.824537 76.061508 
L 204.149517 84.715587 
L 204.474496 80.485224 
L 204.799476 79.606556 
L 205.124455 81.516075 
L 205.449435 74.585098 
L 205.774414 83.387595 
L 206.099394 73.145964 
L 206.424373 80.56814 
L 206.749353 82.608189 
L 207.074333 70.46738 
L 207.399312 71.90794 
L 207.724292 83.513983 
L 208.049271 75.516914 
L 208.374251 80.608514 
L 208.69923 83.316979 
L 209.02421 81.929377 
L 209.349189 76.387618 
L 209.674169 78.21751 
L 209.999148 78.508017 
L 210.324128 78.525086 
L 210.649107 83.744499 
L 211.299066 78.716597 
L 211.624046 80.031206 
L 211.949025 76.567913 
L 212.274005 79.215741 
L 212.598984 72.634388 
L 212.923964 73.671017 
L 213.248943 82.509345 
L 213.573923 80.460589 
L 213.898903 83.768564 
L 214.223882 83.049092 
L 214.548862 72.247546 
L 214.873841 83.974141 
L 215.198821 75.634424 
L 215.5238 77.272616 
L 215.84878 75.762447 
L 216.173759 75.692743 
L 216.498739 71.769653 
L 216.823718 81.361935 
L 217.148698 71.821679 
L 217.473677 78.153318 
L 217.798657 78.792213 
L 218.123636 79.697379 
L 218.448616 72.410373 
L 218.773595 76.086181 
L 219.098575 74.726445 
L 219.423554 68.033968 
L 219.748534 77.809929 
L 220.073514 67.979832 
L 220.398493 74.084357 
L 220.723473 74.295218 
L 221.048452 78.431716 
L 221.373432 79.189148 
L 221.698411 72.321451 
L 222.023391 76.360949 
L 222.67335 70.502679 
L 223.323309 77.405314 
L 223.648288 72.967189 
L 223.973268 73.471827 
L 224.298247 82.321028 
L 224.623227 75.843347 
L 224.948206 81.010068 
L 225.273186 75.455193 
L 225.598165 78.036492 
L 225.923145 74.099659 
L 226.248124 77.27235 
L 226.573104 81.645941 
L 226.898084 73.294953 
L 227.223063 72.491007 
L 227.548043 73.176568 
L 227.873022 70.08318 
L 228.198002 74.672746 
L 228.522981 73.667975 
L 228.847961 78.227071 
L 229.17294 77.840343 
L 229.49792 80.794322 
L 229.822899 88.279511 
L 230.147879 77.297441 
L 230.472858 75.83141 
L 230.797838 78.768167 
L 231.122817 77.26372 
L 231.447797 74.418203 
L 231.772776 79.268433 
L 232.097756 87.728131 
L 232.422735 74.054114 
L 232.747715 82.189147 
L 233.072695 70.980306 
L 233.397674 75.017161 
L 233.722654 72.095877 
L 234.047633 72.482909 
L 234.372613 76.008037 
L 234.697592 75.695594 
L 235.022572 68.386044 
L 235.347551 78.183788 
L 235.672531 77.037823 
L 235.99751 80.010259 
L 236.32249 78.726614 
L 236.647469 79.586502 
L 236.972449 81.900807 
L 237.297428 77.317951 
L 237.622408 84.817852 
L 237.947387 75.391895 
L 238.272367 72.811851 
L 238.597346 77.415731 
L 238.922326 78.459507 
L 239.247305 73.720515 
L 239.572285 78.026284 
L 239.897265 80.504537 
L 240.222244 76.413887 
L 240.547224 81.014079 
L 240.872203 75.020773 
L 241.197183 80.60399 
L 241.522162 75.550046 
L 241.847142 72.913205 
L 242.172121 67.516271 
L 242.497101 83.737105 
L 242.82208 73.539288 
L 243.14706 70.046323 
L 243.472039 74.332532 
L 243.797019 74.074472 
L 244.121998 70.494144 
L 244.446978 75.356672 
L 244.771957 75.279612 
L 245.096937 80.983722 
L 245.421916 77.038925 
L 245.746896 80.485433 
L 246.071876 73.258456 
L 246.396855 78.055367 
L 246.721835 80.772272 
L 247.046814 67.111884 
L 247.371794 81.923275 
L 248.021753 78.266038 
L 248.346732 77.890696 
L 248.671712 69.982834 
L 248.996691 79.173885 
L 249.321671 74.397864 
L 249.64665 76.377904 
L 249.97163 77.296623 
L 250.296609 76.857603 
L 250.621589 77.657424 
L 250.946568 73.616786 
L 251.271548 72.834452 
L 251.596527 69.588427 
L 251.921507 71.015566 
L 252.571466 81.089467 
L 252.896446 77.66018 
L 253.221425 71.666475 
L 253.546405 73.644766 
L 253.871384 83.464903 
L 254.196364 73.139653 
L 254.521343 81.121192 
L 254.846323 79.753378 
L 255.171302 74.471598 
L 255.496282 71.109544 
L 255.821261 75.725342 
L 256.146241 73.620036 
L 256.47122 80.163448 
L 256.7962 73.822895 
L 257.121179 70.647029 
L 257.771138 80.587414 
L 258.096118 78.363495 
L 258.421097 77.055881 
L 258.746077 80.166015 
L 259.071057 80.221063 
L 259.396036 76.745187 
L 259.721016 69.128497 
L 260.045995 75.386953 
L 260.370975 74.377449 
L 261.020934 77.960343 
L 261.345913 77.778945 
L 261.670893 86.268715 
L 261.995872 85.623851 
L 262.320852 73.651552 
L 262.645831 72.446679 
L 262.970811 76.136781 
L 263.29579 85.138222 
L 263.62077 79.494387 
L 263.945749 69.584074 
L 264.270729 74.28444 
L 264.595708 72.004503 
L 264.920688 76.492488 
L 265.245667 73.265984 
L 265.570647 74.469108 
L 265.895627 82.472849 
L 266.220606 66.747738 
L 266.545586 76.276931 
L 266.870565 76.895392 
L 267.195545 70.803774 
L 267.520524 76.592149 
L 267.845504 71.680047 
L 268.170483 80.718535 
L 268.495463 73.090345 
L 269.145422 79.987163 
L 269.470401 81.608437 
L 269.795381 68.836773 
L 270.12036 75.689397 
L 270.44534 72.531495 
L 270.770319 77.911301 
L 271.095299 74.034155 
L 271.420278 71.872204 
L 272.070238 73.308506 
L 272.720197 82.157555 
L 273.045176 83.010086 
L 273.370156 75.875604 
L 273.695135 82.188482 
L 274.020115 73.71084 
L 274.670074 80.590189 
L 274.995053 78.73475 
L 275.320033 69.557595 
L 275.969992 74.860094 
L 276.294971 81.624841 
L 276.619951 74.127563 
L 276.94493 73.399879 
L 277.26991 73.741424 
L 277.594889 73.662919 
L 277.919869 75.63853 
L 278.244848 70.941034 
L 278.894808 74.838747 
L 279.219787 71.289935 
L 279.544767 72.019577 
L 279.869746 84.643126 
L 280.194726 76.174475 
L 280.519705 71.545295 
L 280.844685 70.812822 
L 281.169664 67.399236 
L 281.494644 73.5264 
L 281.819623 71.138076 
L 282.144603 77.02541 
L 282.469582 74.717397 
L 282.794562 84.7694 
L 283.119541 78.290787 
L 283.444521 69.365438 
L 283.7695 78.348744 
L 284.09448 78.496706 
L 284.419459 75.163983 
L 284.744439 69.346315 
L 285.069419 74.239485 
L 285.394398 75.46772 
L 285.719378 70.336126 
L 286.044357 74.705536 
L 286.369337 68.511709 
L 286.694316 71.718083 
L 287.019296 72.171151 
L 287.344275 79.983894 
L 287.669255 78.948653 
L 287.994234 74.353479 
L 288.319214 72.75456 
L 288.644193 67.747928 
L 288.969173 74.359049 
L 289.294152 73.212323 
L 289.619132 65.882091 
L 289.944111 78.481747 
L 290.269091 75.585896 
L 290.59407 78.565821 
L 290.91905 70.65564 
L 291.244029 75.693997 
L 291.569009 77.699794 
L 291.893989 81.901643 
L 292.218968 71.910278 
L 292.543948 72.703275 
L 292.868927 83.627844 
L 293.193907 77.770524 
L 293.518886 74.462132 
L 293.843866 79.54476 
L 294.168845 78.531321 
L 294.493825 76.60382 
L 294.818804 71.940615 
L 295.143784 68.913111 
L 295.793743 80.081731 
L 296.118722 74.244827 
L 296.443702 75.528927 
L 296.768681 74.462227 
L 297.093661 71.227359 
L 297.41864 75.764519 
L 297.74362 76.057117 
L 298.0686 76.144556 
L 298.393579 74.244808 
L 298.718559 74.92343 
L 299.043538 73.352377 
L 299.368518 69.772239 
L 299.693497 77.067001 
L 300.018477 66.36428 
L 300.343456 82.990489 
L 300.668436 68.195483 
L 300.993415 70.87076 
L 301.318395 69.103273 
L 301.643374 77.450668 
L 301.968354 67.961774 
L 302.293333 75.172271 
L 302.618313 77.934131 
L 302.943292 73.090858 
L 303.268272 77.808446 
L 303.593251 80.291699 
L 303.918231 80.480111 
L 304.24321 80.12163 
L 304.89317 72.233327 
L 305.218149 74.16769 
L 305.543129 78.644003 
L 305.868108 78.005127 
L 306.193088 69.190275 
L 306.518067 77.463461 
L 306.843047 78.59365 
L 307.168026 75.441488 
L 307.493006 74.703939 
L 308.142965 79.312875 
L 308.467944 74.05248 
L 308.792924 75.408318 
L 309.117903 65.849396 
L 309.442883 72.742128 
L 309.767862 73.824263 
L 310.092842 75.852946 
L 310.417821 76.259576 
L 310.742801 76.28271 
L 311.067781 78.688654 
L 311.39276 75.703045 
L 311.71774 79.117942 
L 312.042719 80.735604 
L 312.367699 78.846805 
L 312.692678 68.350783 
L 313.017658 78.500736 
L 313.342637 70.240704 
L 313.667617 72.803906 
L 313.992596 71.83067 
L 314.317576 79.891703 
L 314.642555 76.497468 
L 314.967535 78.882085 
L 315.292514 71.565958 
L 315.617494 73.73749 
L 315.942473 79.254272 
L 316.592432 70.299155 
L 316.917412 72.097417 
L 317.242391 68.180524 
L 317.567371 78.161872 
L 317.892351 71.801207 
L 318.21733 77.096559 
L 318.54231 71.438087 
L 318.867289 71.714794 
L 319.192269 76.953995 
L 319.517248 75.702095 
L 319.842228 68.06058 
L 320.167207 65.389029 
L 320.492187 73.589793 
L 320.817166 69.212952 
L 321.142146 77.180025 
L 321.467125 73.605247 
L 321.792105 74.244827 
L 322.117084 75.861348 
L 322.442064 80.560061 
L 322.767043 80.77115 
L 323.092023 79.125318 
L 323.417002 79.379119 
L 323.741982 74.047784 
L 324.066962 76.57468 
L 324.391941 76.909781 
L 324.716921 75.308067 
L 325.0419 74.783965 
L 325.36688 76.518149 
L 325.691859 75.355798 
L 326.016839 77.544646 
L 326.341818 65.347325 
L 326.666798 72.80478 
L 326.991777 72.594242 
L 327.316757 72.207153 
L 327.641736 74.199548 
L 327.966716 70.836487 
L 328.291695 72.511802 
L 328.616675 69.560693 
L 328.941654 70.785202 
L 329.266634 74.923392 
L 329.591613 72.836905 
L 329.916593 67.258497 
L 330.241572 76.397635 
L 330.566552 77.590704 
L 330.891532 69.765035 
L 331.216511 79.209659 
L 331.541491 85.37235 
L 331.86647 72.833616 
L 332.19145 77.983021 
L 332.516429 75.155182 
L 332.841409 70.798489 
L 333.166388 75.804475 
L 333.491368 76.175977 
L 333.816347 82.499841 
L 334.141327 74.380186 
L 334.466306 71.081051 
L 334.791286 73.639235 
L 335.116265 73.695766 
L 335.441245 74.074111 
L 335.766224 79.445839 
L 336.091204 74.404992 
L 336.741163 73.252278 
L 337.391122 85.18466 
L 337.716102 71.799857 
L 338.041081 74.397826 
L 338.366061 75.737394 
L 338.69104 66.812557 
L 339.01602 77.321981 
L 339.665979 71.20778 
L 340.315938 83.988055 
L 340.640917 69.827953 
L 340.965897 71.333218 
L 341.290876 75.85441 
L 341.615856 67.503517 
L 341.940835 70.153987 
L 342.265815 81.36241 
L 342.590794 67.593598 
L 342.915774 75.354543 
L 343.565733 82.024381 
L 343.890713 74.18858 
L 344.215692 75.726958 
L 344.540672 82.138717 
L 344.865651 79.477032 
L 345.190631 75.068959 
L 345.51561 75.860398 
L 345.84059 77.265392 
L 346.165569 68.693373 
L 346.490549 76.033052 
L 346.815528 79.749671 
L 347.140508 73.497773 
L 347.465487 82.44502 
L 347.790467 68.96683 
L 348.115446 80.008852 
L 348.440426 83.860147 
L 348.765405 75.00952 
L 349.090385 75.129235 
L 349.415364 78.610244 
L 349.740344 80.111973 
L 350.390303 70.738555 
L 350.715283 78.270334 
L 351.040262 68.962134 
L 351.365242 63.526329 
L 351.690221 72.704054 
L 352.34018 80.577112 
L 352.66516 80.059016 
L 352.990139 76.830079 
L 353.315119 75.344849 
L 353.640098 69.838389 
L 353.965078 76.567077 
L 354.290057 75.891286 
L 354.615037 77.35861 
L 354.940016 77.210439 
L 355.264996 70.929743 
L 355.589975 74.627088 
L 355.914955 66.808376 
L 356.239934 77.425159 
L 356.564914 72.583141 
L 356.889894 72.343767 
L 357.214873 79.214487 
L 357.539853 71.423185 
L 357.864832 67.908094 
L 358.189812 80.98032 
L 358.514791 72.754503 
L 358.839771 73.152275 
L 359.48973 75.927593 
L 359.814709 73.384749 
L 360.139689 71.885985 
L 360.464668 77.795388 
L 360.789648 80.175234 
L 361.114627 76.038811 
L 361.439607 76.323445 
L 361.764586 72.280031 
L 362.089566 70.608328 
L 362.414545 72.826013 
L 362.739525 84.760276 
L 363.064505 74.855437 
L 363.389484 78.945573 
L 363.714464 71.574321 
L 364.364423 74.762029 
L 364.689402 76.089184 
L 365.014382 78.051584 
L 365.339361 76.248019 
L 365.664341 67.582288 
L 366.3143 77.224467 
L 366.639279 73.805293 
L 366.964259 74.467188 
L 367.289238 72.588406 
L 367.614218 66.406498 
L 367.939197 71.771002 
L 368.264177 67.815845 
L 368.589156 73.103404 
L 368.914136 74.720172 
L 369.239115 75.43647 
L 369.564095 68.924403 
L 369.889075 75.133588 
L 370.214054 73.800484 
L 370.539034 71.237548 
L 370.864013 72.392315 
L 371.188993 75.056623 
L 371.513972 78.921166 
L 371.838952 80.364729 
L 372.163931 72.857738 
L 372.488911 70.549364 
L 372.81389 78.633226 
L 373.13887 81.146644 
L 373.463849 72.237205 
L 373.788829 71.073371 
L 374.113808 70.634845 
L 374.438788 72.556073 
L 374.763767 61.333127 
L 375.088747 66.930999 
L 375.413726 76.123894 
L 375.738706 73.771173 
L 376.063686 69.904234 
L 376.388665 78.398451 
L 376.713645 71.646744 
L 377.038624 76.953767 
L 377.363604 76.362945 
L 378.013563 77.426033 
L 378.338542 75.831866 
L 378.663522 77.508701 
L 378.988501 71.3558 
L 379.313481 73.861938 
L 379.63846 74.74724 
L 379.96344 70.53142 
L 380.288419 69.514236 
L 380.613399 73.597549 
L 380.938378 76.134899 
L 381.263358 72.675028 
L 381.588337 81.913866 
L 381.913317 74.674381 
L 382.238296 81.549834 
L 382.563276 72.473101 
L 382.888256 73.175427 
L 383.213235 70.764426 
L 383.538215 73.970192 
L 383.863194 65.042352 
L 384.513153 74.737166 
L 384.838133 71.654537 
L 385.163112 70.816072 
L 385.488092 74.097378 
L 385.813071 75.468442 
L 386.138051 75.856311 
L 386.46303 79.057667 
L 386.78801 70.393969 
L 387.112989 77.256839 
L 387.437969 73.951829 
L 387.762948 77.307876 
L 388.087928 74.020602 
L 388.412907 73.639786 
L 388.737887 69.785906 
L 389.062867 74.82508 
L 389.387846 69.015092 
L 389.712826 71.178887 
L 390.037805 76.156341 
L 390.362785 78.192646 
L 390.687764 68.831755 
L 391.337723 73.585174 
L 391.662703 66.329323 
L 391.987682 71.708807 
L 392.637641 74.375377 
L 392.962621 76.266191 
L 393.2876 76.000186 
L 393.61258 69.077725 
L 393.937559 73.883798 
L 394.262539 67.962135 
L 394.587518 69.343027 
L 395.237477 77.867335 
L 395.562457 75.191393 
L 395.887437 78.424094 
L 396.212416 76.866024 
L 396.537396 73.881802 
L 396.862375 72.488802 
L 397.187355 79.402614 
L 397.512334 74.115531 
L 397.837314 71.059856 
L 398.162293 71.79539 
L 398.487273 76.428315 
L 398.487273 76.428315 
" style="fill:none;stroke:#ff7f0e;stroke-linecap:square;stroke-width:1.5;"/>
   </g>
   <g id="patch_3">
    <path d="M 57.6 307.584 
L 57.6 41.472 
" style="fill:none;stroke:#000000;stroke-linecap:square;stroke-linejoin:miter;stroke-width:0.8;"/>
   </g>
   <g id="patch_4">
    <path d="M 414.72 307.584 
L 414.72 41.472 
" style="fill:none;stroke:#000000;stroke-linecap:square;stroke-linejoin:miter;stroke-width:0.8;"/>
   </g>
   <g id="patch_5">
    <path d="M 57.6 307.584 
L 414.72 307.584 
" style="fill:none;stroke:#000000;stroke-linecap:square;stroke-linejoin:miter;stroke-width:0.8;"/>
   </g>
   <g id="patch_6">
    <path d="M 57.6 41.472 
L 414.72 41.472 
" style="fill:none;stroke:#000000;stroke-linecap:square;stroke-linejoin:miter;stroke-width:0.8;"/>
   </g>
   <g id="text_12">
    <!-- Optimistic Initialization -->
    <defs>
     <path d="M 39.40625 66.21875 
Q 28.65625 66.21875 22.328125 58.203125 
Q 16.015625 50.203125 16.015625 36.375 
Q 16.015625 22.609375 22.328125 14.59375 
Q 28.65625 6.59375 39.40625 6.59375 
Q 50.140625 6.59375 56.421875 14.59375 
Q 62.703125 22.609375 62.703125 36.375 
Q 62.703125 50.203125 56.421875 58.203125 
Q 50.140625 66.21875 39.40625 66.21875 
z
M 39.40625 74.21875 
Q 54.734375 74.21875 63.90625 63.9375 
Q 73.09375 53.65625 73.09375 36.375 
Q 73.09375 19.140625 63.90625 8.859375 
Q 54.734375 -1.421875 39.40625 -1.421875 
Q 24.03125 -1.421875 14.8125 8.828125 
Q 5.609375 19.09375 5.609375 36.375 
Q 5.609375 53.65625 14.8125 63.9375 
Q 24.03125 74.21875 39.40625 74.21875 
z
" id="DejaVuSans-4f"/>
     <path d="M 9.421875 54.6875 
L 18.40625 54.6875 
L 18.40625 0 
L 9.421875 0 
z
M 9.421875 75.984375 
L 18.40625 75.984375 
L 18.40625 64.59375 
L 9.421875 64.59375 
z
" id="DejaVuSans-69"/>
     <path d="M 52 44.1875 
Q 55.375 50.25 60.0625 53.125 
Q 64.75 56 71.09375 56 
Q 79.640625 56 84.28125 50.015625 
Q 88.921875 44.046875 88.921875 33.015625 
L 88.921875 0 
L 79.890625 0 
L 79.890625 32.71875 
Q 79.890625 40.578125 77.09375 44.375 
Q 74.3125 48.1875 68.609375 48.1875 
Q 61.625 48.1875 57.5625 43.546875 
Q 53.515625 38.921875 53.515625 30.90625 
L 53.515625 0 
L 44.484375 0 
L 44.484375 32.71875 
Q 44.484375 40.625 41.703125 44.40625 
Q 38.921875 48.1875 33.109375 48.1875 
Q 26.21875 48.1875 22.15625 43.53125 
Q 18.109375 38.875 18.109375 30.90625 
L 18.109375 0 
L 9.078125 0 
L 9.078125 54.6875 
L 18.109375 54.6875 
L 18.109375 46.1875 
Q 21.1875 51.21875 25.484375 53.609375 
Q 29.78125 56 35.6875 56 
Q 41.65625 56 45.828125 52.96875 
Q 50 49.953125 52 44.1875 
z
" id="DejaVuSans-6d"/>
     <path d="M 48.78125 52.59375 
L 48.78125 44.1875 
Q 44.96875 46.296875 41.140625 47.34375 
Q 37.3125 48.390625 33.40625 48.390625 
Q 24.65625 48.390625 19.8125 42.84375 
Q 14.984375 37.3125 14.984375 27.296875 
Q 14.984375 17.28125 19.8125 11.734375 
Q 24.65625 6.203125 33.40625 6.203125 
Q 37.3125 6.203125 41.140625 7.25 
Q 44.96875 8.296875 48.78125 10.40625 
L 48.78125 2.09375 
Q 45.015625 0.34375 40.984375 -0.53125 
Q 36.96875 -1.421875 32.421875 -1.421875 
Q 20.0625 -1.421875 12.78125 6.34375 
Q 5.515625 14.109375 5.515625 27.296875 
Q 5.515625 40.671875 12.859375 48.328125 
Q 20.21875 56 33.015625 56 
Q 37.15625 56 41.109375 55.140625 
Q 45.0625 54.296875 48.78125 52.59375 
z
" id="DejaVuSans-63"/>
     <path d="M 9.8125 72.90625 
L 19.671875 72.90625 
L 19.671875 0 
L 9.8125 0 
z
" id="DejaVuSans-49"/>
     <path d="M 54.890625 33.015625 
L 54.890625 0 
L 45.90625 0 
L 45.90625 32.71875 
Q 45.90625 40.484375 42.875 44.328125 
Q 39.84375 48.1875 33.796875 48.1875 
Q 26.515625 48.1875 22.3125 43.546875 
Q 18.109375 38.921875 18.109375 30.90625 
L 18.109375 0 
L 9.078125 0 
L 9.078125 54.6875 
L 18.109375 54.6875 
L 18.109375 46.1875 
Q 21.34375 51.125 25.703125 53.5625 
Q 30.078125 56 35.796875 56 
Q 45.21875 56 50.046875 50.171875 
Q 54.890625 44.34375 54.890625 33.015625 
z
" id="DejaVuSans-6e"/>
     <path d="M 9.421875 75.984375 
L 18.40625 75.984375 
L 18.40625 0 
L 9.421875 0 
z
" id="DejaVuSans-6c"/>
     <path d="M 5.515625 54.6875 
L 48.1875 54.6875 
L 48.1875 46.484375 
L 14.40625 7.171875 
L 48.1875 7.171875 
L 48.1875 0 
L 4.296875 0 
L 4.296875 8.203125 
L 38.09375 47.515625 
L 5.515625 47.515625 
z
" id="DejaVuSans-7a"/>
     <path d="M 30.609375 48.390625 
Q 23.390625 48.390625 19.1875 42.75 
Q 14.984375 37.109375 14.984375 27.296875 
Q 14.984375 17.484375 19.15625 11.84375 
Q 23.34375 6.203125 30.609375 6.203125 
Q 37.796875 6.203125 41.984375 11.859375 
Q 46.1875 17.53125 46.1875 27.296875 
Q 46.1875 37.015625 41.984375 42.703125 
Q 37.796875 48.390625 30.609375 48.390625 
z
M 30.609375 56 
Q 42.328125 56 49.015625 48.375 
Q 55.71875 40.765625 55.71875 27.296875 
Q 55.71875 13.875 49.015625 6.21875 
Q 42.328125 -1.421875 30.609375 -1.421875 
Q 18.84375 -1.421875 12.171875 6.21875 
Q 5.515625 13.875 5.515625 27.296875 
Q 5.515625 40.765625 12.171875 48.375 
Q 18.84375 56 30.609375 56 
z
" id="DejaVuSans-6f"/>
    </defs>
    <g transform="translate(167.159063 35.472)scale(0.12 -0.12)">
     <use xlink:href="#DejaVuSans-4f"/>
     <use x="78.710938" xlink:href="#DejaVuSans-70"/>
     <use x="142.1875" xlink:href="#DejaVuSans-74"/>
     <use x="181.396484" xlink:href="#DejaVuSans-69"/>
     <use x="209.179688" xlink:href="#DejaVuSans-6d"/>
     <use x="306.591797" xlink:href="#DejaVuSans-69"/>
     <use x="334.375" xlink:href="#DejaVuSans-73"/>
     <use x="386.474609" xlink:href="#DejaVuSans-74"/>
     <use x="425.683594" xlink:href="#DejaVuSans-69"/>
     <use x="453.466797" xlink:href="#DejaVuSans-63"/>
     <use x="508.447266" xlink:href="#DejaVuSans-20"/>
     <use x="540.234375" xlink:href="#DejaVuSans-49"/>
     <use x="569.726562" xlink:href="#DejaVuSans-6e"/>
     <use x="633.105469" xlink:href="#DejaVuSans-69"/>
     <use x="660.888672" xlink:href="#DejaVuSans-74"/>
     <use x="700.097656" xlink:href="#DejaVuSans-69"/>
     <use x="727.880859" xlink:href="#DejaVuSans-61"/>
     <use x="789.160156" xlink:href="#DejaVuSans-6c"/>
     <use x="816.943359" xlink:href="#DejaVuSans-69"/>
     <use x="844.726562" xlink:href="#DejaVuSans-7a"/>
     <use x="897.216797" xlink:href="#DejaVuSans-61"/>
     <use x="958.496094" xlink:href="#DejaVuSans-74"/>
     <use x="997.705078" xlink:href="#DejaVuSans-69"/>
     <use x="1025.488281" xlink:href="#DejaVuSans-6f"/>
     <use x="1086.669922" xlink:href="#DejaVuSans-6e"/>
    </g>
   </g>
   <g id="legend_1">
    <g id="patch_7">
     <path d="M 309.12 302.584 
L 407.72 302.584 
Q 409.72 302.584 409.72 300.584 
L 409.72 272.22775 
Q 409.72 270.22775 407.72 270.22775 
L 309.12 270.22775 
Q 307.12 270.22775 307.12 272.22775 
L 307.12 300.584 
Q 307.12 302.584 309.12 302.584 
z
" style="fill:#ffffff;opacity:0.8;stroke:#cccccc;stroke-linejoin:miter;"/>
    </g>
    <g id="line2d_12">
     <path d="M 311.12 278.326187 
L 331.12 278.326187 
" style="fill:none;stroke:#1f77b4;stroke-linecap:square;stroke-width:1.5;"/>
    </g>
    <g id="line2d_13"/>
    <g id="text_13">
     <!-- =0, init=5 -->
     <defs>
      <path d="M 19.28125 29.5 
Q 13.8125 30.671875 10.890625 33.84375 
Q 7.953125 36.96875 7.953125 41.5 
Q 7.953125 48.390625 13.53125 52.25 
Q 19.046875 56.0625 28.609375 56.0625 
Q 32.328125 56.0625 36.46875 55.46875 
Q 40.625 54.890625 45.40625 53.71875 
L 45.40625 45.5625 
Q 40.671875 46.96875 36.765625 47.609375 
Q 32.8125 48.25 29.34375 48.25 
Q 23.53125 48.25 20.171875 46 
Q 16.75 43.75 16.75 40.625 
Q 16.75 37.203125 20.0625 35.015625 
Q 23.34375 32.859375 29 32.859375 
L 36.578125 32.859375 
L 36.578125 25.4375 
L 29.34375 25.4375 
Q 22.65625 25.4375 19.140625 22.953125 
Q 15.328125 20.21875 15.328125 15.921875 
Q 15.328125 11.53125 19.4375 8.796875 
Q 23.578125 6.0625 30.953125 6.0625 
Q 35.5 6.0625 39.65625 6.9375 
Q 43.796875 7.859375 47.265625 9.671875 
L 47.265625 1.3125 
Q 42.875 -0.046875 38.765625 -0.734375 
Q 34.625 -1.421875 30.71875 -1.421875 
Q 19.09375 -1.421875 12.796875 3.03125 
Q 6.5 7.46875 6.5 15.921875 
Q 6.5 21.1875 9.859375 24.75 
Q 13.234375 28.328125 19.28125 29.5 
z
" id="DejaVuSans-3b5"/>
      <path d="M 10.59375 45.40625 
L 73.1875 45.40625 
L 73.1875 37.203125 
L 10.59375 37.203125 
z
M 10.59375 25.484375 
L 73.1875 25.484375 
L 73.1875 17.1875 
L 10.59375 17.1875 
z
" id="DejaVuSans-3d"/>
      <path d="M 11.71875 12.40625 
L 22.015625 12.40625 
L 22.015625 4 
L 14.015625 -11.625 
L 7.71875 -11.625 
L 11.71875 4 
z
" id="DejaVuSans-2c"/>
     </defs>
     <g transform="translate(339.12 281.826187)scale(0.1 -0.1)">
      <use xlink:href="#DejaVuSans-3b5"/>
      <use x="54.052734" xlink:href="#DejaVuSans-3d"/>
      <use x="137.841797" xlink:href="#DejaVuSans-30"/>
      <use x="201.464844" xlink:href="#DejaVuSans-2c"/>
      <use x="233.251953" xlink:href="#DejaVuSans-20"/>
      <use x="265.039062" xlink:href="#DejaVuSans-69"/>
      <use x="292.822266" xlink:href="#DejaVuSans-6e"/>
      <use x="356.201172" xlink:href="#DejaVuSans-69"/>
      <use x="383.984375" xlink:href="#DejaVuSans-74"/>
      <use x="423.193359" xlink:href="#DejaVuSans-3d"/>
      <use x="506.982422" xlink:href="#DejaVuSans-35"/>
     </g>
    </g>
    <g id="line2d_14">
     <path d="M 311.12 293.004312 
L 331.12 293.004312 
" style="fill:none;stroke:#ff7f0e;stroke-linecap:square;stroke-width:1.5;"/>
    </g>
    <g id="line2d_15"/>
    <g id="text_14">
     <!-- =0.1, init=0 -->
     <g transform="translate(339.12 296.504312)scale(0.1 -0.1)">
      <use xlink:href="#DejaVuSans-3b5"/>
      <use x="54.052734" xlink:href="#DejaVuSans-3d"/>
      <use x="137.841797" xlink:href="#DejaVuSans-30"/>
      <use x="201.464844" xlink:href="#DejaVuSans-2e"/>
      <use x="233.251953" xlink:href="#DejaVuSans-31"/>
      <use x="296.875" xlink:href="#DejaVuSans-2c"/>
      <use x="328.662109" xlink:href="#DejaVuSans-20"/>
      <use x="360.449219" xlink:href="#DejaVuSans-69"/>
      <use x="388.232422" xlink:href="#DejaVuSans-6e"/>
      <use x="451.611328" xlink:href="#DejaVuSans-69"/>
      <use x="479.394531" xlink:href="#DejaVuSans-74"/>
      <use x="518.603516" xlink:href="#DejaVuSans-3d"/>
      <use x="602.392578" xlink:href="#DejaVuSans-30"/>
     </g>
    </g>
   </g>
  </g>
 </g>
 <defs>
  <clipPath id="p64cd68035d">
   <rect height="266.112" width="357.12" x="57.6" y="41.472"/>
  </clipPath>
 </defs>
</svg>
