<?xml version="1.0" encoding="utf-8" standalone="no"?>
<!DOCTYPE svg PUBLIC "-//W3C//DTD SVG 1.1//EN"
  "http://www.w3.org/Graphics/SVG/1.1/DTD/svg11.dtd">
<!-- Created with matplotlib (http://matplotlib.org/) -->
<svg height="345.6pt" version="1.1" viewBox="0 0 460.8 345.6" width="460.8pt" xmlns="http://www.w3.org/2000/svg" xmlns:xlink="http://www.w3.org/1999/xlink">
 <defs>
  <style type="text/css">
*{stroke-linecap:butt;stroke-linejoin:round;}
  </style>
 </defs>
 <g id="figure_1">
  <g id="patch_1">
   <path d="M 0 345.6 
L 460.8 345.6 
L 460.8 0 
L 0 0 
z
" style="fill:#ffffff;"/>
  </g>
  <g id="axes_1">
   <g id="patch_2">
    <path d="M 57.6 307.584 
L 414.72 307.584 
L 414.72 41.472 
L 57.6 41.472 
z
" style="fill:#ffffff;"/>
   </g>
   <g id="matplotlib.axis_1">
    <g id="xtick_1">
     <g id="line2d_1">
      <defs>
       <path d="M 0 0 
L 0 3.5 
" id="mbb37685e55" style="stroke:#000000;stroke-width:0.8;"/>
      </defs>
      <g>
       <use style="stroke:#000000;stroke-width:0.8;" x="73.832727" xlink:href="#mbb37685e55" y="307.584"/>
      </g>
     </g>
     <g id="text_1">
      <!-- 0 -->
      <defs>
       <path d="M 31.78125 66.40625 
Q 24.171875 66.40625 20.328125 58.90625 
Q 16.5 51.421875 16.5 36.375 
Q 16.5 21.390625 20.328125 13.890625 
Q 24.171875 6.390625 31.78125 6.390625 
Q 39.453125 6.390625 43.28125 13.890625 
Q 47.125 21.390625 47.125 36.375 
Q 47.125 51.421875 43.28125 58.90625 
Q 39.453125 66.40625 31.78125 66.40625 
z
M 31.78125 74.21875 
Q 44.046875 74.21875 50.515625 64.515625 
Q 56.984375 54.828125 56.984375 36.375 
Q 56.984375 17.96875 50.515625 8.265625 
Q 44.046875 -1.421875 31.78125 -1.421875 
Q 19.53125 -1.421875 13.0625 8.265625 
Q 6.59375 17.96875 6.59375 36.375 
Q 6.59375 54.828125 13.0625 64.515625 
Q 19.53125 74.21875 31.78125 74.21875 
z
" id="DejaVuSans-30"/>
      </defs>
      <g transform="translate(70.651477 322.182437)scale(0.1 -0.1)">
       <use xlink:href="#DejaVuSans-30"/>
      </g>
     </g>
    </g>
    <g id="xtick_2">
     <g id="line2d_2">
      <g>
       <use style="stroke:#000000;stroke-width:0.8;" x="155.077609" xlink:href="#mbb37685e55" y="307.584"/>
      </g>
     </g>
     <g id="text_2">
      <!-- 250 -->
      <defs>
       <path d="M 19.1875 8.296875 
L 53.609375 8.296875 
L 53.609375 0 
L 7.328125 0 
L 7.328125 8.296875 
Q 12.9375 14.109375 22.625 23.890625 
Q 32.328125 33.6875 34.8125 36.53125 
Q 39.546875 41.84375 41.421875 45.53125 
Q 43.3125 49.21875 43.3125 52.78125 
Q 43.3125 58.59375 39.234375 62.25 
Q 35.15625 65.921875 28.609375 65.921875 
Q 23.96875 65.921875 18.8125 64.3125 
Q 13.671875 62.703125 7.8125 59.421875 
L 7.8125 69.390625 
Q 13.765625 71.78125 18.9375 73 
Q 24.125 74.21875 28.421875 74.21875 
Q 39.75 74.21875 46.484375 68.546875 
Q 53.21875 62.890625 53.21875 53.421875 
Q 53.21875 48.921875 51.53125 44.890625 
Q 49.859375 40.875 45.40625 35.40625 
Q 44.1875 33.984375 37.640625 27.21875 
Q 31.109375 20.453125 19.1875 8.296875 
z
" id="DejaVuSans-32"/>
       <path d="M 10.796875 72.90625 
L 49.515625 72.90625 
L 49.515625 64.59375 
L 19.828125 64.59375 
L 19.828125 46.734375 
Q 21.96875 47.46875 24.109375 47.828125 
Q 26.265625 48.1875 28.421875 48.1875 
Q 40.625 48.1875 47.75 41.5 
Q 54.890625 34.8125 54.890625 23.390625 
Q 54.890625 11.625 47.5625 5.09375 
Q 40.234375 -1.421875 26.90625 -1.421875 
Q 22.3125 -1.421875 17.546875 -0.640625 
Q 12.796875 0.140625 7.71875 1.703125 
L 7.71875 11.625 
Q 12.109375 9.234375 16.796875 8.0625 
Q 21.484375 6.890625 26.703125 6.890625 
Q 35.15625 6.890625 40.078125 11.328125 
Q 45.015625 15.765625 45.015625 23.390625 
Q 45.015625 31 40.078125 35.4375 
Q 35.15625 39.890625 26.703125 39.890625 
Q 22.75 39.890625 18.8125 39.015625 
Q 14.890625 38.140625 10.796875 36.28125 
z
" id="DejaVuSans-35"/>
      </defs>
      <g transform="translate(145.533859 322.182437)scale(0.1 -0.1)">
       <use xlink:href="#DejaVuSans-32"/>
       <use x="63.623047" xlink:href="#DejaVuSans-35"/>
       <use x="127.246094" xlink:href="#DejaVuSans-30"/>
      </g>
     </g>
    </g>
    <g id="xtick_3">
     <g id="line2d_3">
      <g>
       <use style="stroke:#000000;stroke-width:0.8;" x="236.32249" xlink:href="#mbb37685e55" y="307.584"/>
      </g>
     </g>
     <g id="text_3">
      <!-- 500 -->
      <g transform="translate(226.77874 322.182437)scale(0.1 -0.1)">
       <use xlink:href="#DejaVuSans-35"/>
       <use x="63.623047" xlink:href="#DejaVuSans-30"/>
       <use x="127.246094" xlink:href="#DejaVuSans-30"/>
      </g>
     </g>
    </g>
    <g id="xtick_4">
     <g id="line2d_4">
      <g>
       <use style="stroke:#000000;stroke-width:0.8;" x="317.567371" xlink:href="#mbb37685e55" y="307.584"/>
      </g>
     </g>
     <g id="text_4">
      <!-- 750 -->
      <defs>
       <path d="M 8.203125 72.90625 
L 55.078125 72.90625 
L 55.078125 68.703125 
L 28.609375 0 
L 18.3125 0 
L 43.21875 64.59375 
L 8.203125 64.59375 
z
" id="DejaVuSans-37"/>
      </defs>
      <g transform="translate(308.023621 322.182437)scale(0.1 -0.1)">
       <use xlink:href="#DejaVuSans-37"/>
       <use x="63.623047" xlink:href="#DejaVuSans-35"/>
       <use x="127.246094" xlink:href="#DejaVuSans-30"/>
      </g>
     </g>
    </g>
    <g id="xtick_5">
     <g id="line2d_5">
      <g>
       <use style="stroke:#000000;stroke-width:0.8;" x="398.812252" xlink:href="#mbb37685e55" y="307.584"/>
      </g>
     </g>
     <g id="text_5">
      <!-- 1000 -->
      <defs>
       <path d="M 12.40625 8.296875 
L 28.515625 8.296875 
L 28.515625 63.921875 
L 10.984375 60.40625 
L 10.984375 69.390625 
L 28.421875 72.90625 
L 38.28125 72.90625 
L 38.28125 8.296875 
L 54.390625 8.296875 
L 54.390625 0 
L 12.40625 0 
z
" id="DejaVuSans-31"/>
      </defs>
      <g transform="translate(386.087252 322.182437)scale(0.1 -0.1)">
       <use xlink:href="#DejaVuSans-31"/>
       <use x="63.623047" xlink:href="#DejaVuSans-30"/>
       <use x="127.246094" xlink:href="#DejaVuSans-30"/>
       <use x="190.869141" xlink:href="#DejaVuSans-30"/>
      </g>
     </g>
    </g>
    <g id="text_6">
     <!-- Steps -->
     <defs>
      <path d="M 53.515625 70.515625 
L 53.515625 60.890625 
Q 47.90625 63.578125 42.921875 64.890625 
Q 37.9375 66.21875 33.296875 66.21875 
Q 25.25 66.21875 20.875 63.09375 
Q 16.5 59.96875 16.5 54.203125 
Q 16.5 49.359375 19.40625 46.890625 
Q 22.3125 44.4375 30.421875 42.921875 
L 36.375 41.703125 
Q 47.40625 39.59375 52.65625 34.296875 
Q 57.90625 29 57.90625 20.125 
Q 57.90625 9.515625 50.796875 4.046875 
Q 43.703125 -1.421875 29.984375 -1.421875 
Q 24.8125 -1.421875 18.96875 -0.25 
Q 13.140625 0.921875 6.890625 3.21875 
L 6.890625 13.375 
Q 12.890625 10.015625 18.65625 8.296875 
Q 24.421875 6.59375 29.984375 6.59375 
Q 38.421875 6.59375 43.015625 9.90625 
Q 47.609375 13.234375 47.609375 19.390625 
Q 47.609375 24.75 44.3125 27.78125 
Q 41.015625 30.8125 33.5 32.328125 
L 27.484375 33.5 
Q 16.453125 35.6875 11.515625 40.375 
Q 6.59375 45.0625 6.59375 53.421875 
Q 6.59375 63.09375 13.40625 68.65625 
Q 20.21875 74.21875 32.171875 74.21875 
Q 37.3125 74.21875 42.625 73.28125 
Q 47.953125 72.359375 53.515625 70.515625 
z
" id="DejaVuSans-53"/>
      <path d="M 18.3125 70.21875 
L 18.3125 54.6875 
L 36.8125 54.6875 
L 36.8125 47.703125 
L 18.3125 47.703125 
L 18.3125 18.015625 
Q 18.3125 11.328125 20.140625 9.421875 
Q 21.96875 7.515625 27.59375 7.515625 
L 36.8125 7.515625 
L 36.8125 0 
L 27.59375 0 
Q 17.1875 0 13.234375 3.875 
Q 9.28125 7.765625 9.28125 18.015625 
L 9.28125 47.703125 
L 2.6875 47.703125 
L 2.6875 54.6875 
L 9.28125 54.6875 
L 9.28125 70.21875 
z
" id="DejaVuSans-74"/>
      <path d="M 56.203125 29.59375 
L 56.203125 25.203125 
L 14.890625 25.203125 
Q 15.484375 15.921875 20.484375 11.0625 
Q 25.484375 6.203125 34.421875 6.203125 
Q 39.59375 6.203125 44.453125 7.46875 
Q 49.3125 8.734375 54.109375 11.28125 
L 54.109375 2.78125 
Q 49.265625 0.734375 44.1875 -0.34375 
Q 39.109375 -1.421875 33.890625 -1.421875 
Q 20.796875 -1.421875 13.15625 6.1875 
Q 5.515625 13.8125 5.515625 26.8125 
Q 5.515625 40.234375 12.765625 48.109375 
Q 20.015625 56 32.328125 56 
Q 43.359375 56 49.78125 48.890625 
Q 56.203125 41.796875 56.203125 29.59375 
z
M 47.21875 32.234375 
Q 47.125 39.59375 43.09375 43.984375 
Q 39.0625 48.390625 32.421875 48.390625 
Q 24.90625 48.390625 20.390625 44.140625 
Q 15.875 39.890625 15.1875 32.171875 
z
" id="DejaVuSans-65"/>
      <path d="M 18.109375 8.203125 
L 18.109375 -20.796875 
L 9.078125 -20.796875 
L 9.078125 54.6875 
L 18.109375 54.6875 
L 18.109375 46.390625 
Q 20.953125 51.265625 25.265625 53.625 
Q 29.59375 56 35.59375 56 
Q 45.5625 56 51.78125 48.09375 
Q 58.015625 40.1875 58.015625 27.296875 
Q 58.015625 14.40625 51.78125 6.484375 
Q 45.5625 -1.421875 35.59375 -1.421875 
Q 29.59375 -1.421875 25.265625 0.953125 
Q 20.953125 3.328125 18.109375 8.203125 
z
M 48.6875 27.296875 
Q 48.6875 37.203125 44.609375 42.84375 
Q 40.53125 48.484375 33.40625 48.484375 
Q 26.265625 48.484375 22.1875 42.84375 
Q 18.109375 37.203125 18.109375 27.296875 
Q 18.109375 17.390625 22.1875 11.75 
Q 26.265625 6.109375 33.40625 6.109375 
Q 40.53125 6.109375 44.609375 11.75 
Q 48.6875 17.390625 48.6875 27.296875 
z
" id="DejaVuSans-70"/>
      <path d="M 44.28125 53.078125 
L 44.28125 44.578125 
Q 40.484375 46.53125 36.375 47.5 
Q 32.28125 48.484375 27.875 48.484375 
Q 21.1875 48.484375 17.84375 46.4375 
Q 14.5 44.390625 14.5 40.28125 
Q 14.5 37.15625 16.890625 35.375 
Q 19.28125 33.59375 26.515625 31.984375 
L 29.59375 31.296875 
Q 39.15625 29.25 43.1875 25.515625 
Q 47.21875 21.78125 47.21875 15.09375 
Q 47.21875 7.46875 41.1875 3.015625 
Q 35.15625 -1.421875 24.609375 -1.421875 
Q 20.21875 -1.421875 15.453125 -0.5625 
Q 10.6875 0.296875 5.421875 2 
L 5.421875 11.28125 
Q 10.40625 8.6875 15.234375 7.390625 
Q 20.0625 6.109375 24.8125 6.109375 
Q 31.15625 6.109375 34.5625 8.28125 
Q 37.984375 10.453125 37.984375 14.40625 
Q 37.984375 18.0625 35.515625 20.015625 
Q 33.0625 21.96875 24.703125 23.78125 
L 21.578125 24.515625 
Q 13.234375 26.265625 9.515625 29.90625 
Q 5.8125 33.546875 5.8125 39.890625 
Q 5.8125 47.609375 11.28125 51.796875 
Q 16.75 56 26.8125 56 
Q 31.78125 56 36.171875 55.265625 
Q 40.578125 54.546875 44.28125 53.078125 
z
" id="DejaVuSans-73"/>
     </defs>
     <g transform="translate(222.170156 335.860562)scale(0.1 -0.1)">
      <use xlink:href="#DejaVuSans-53"/>
      <use x="63.476562" xlink:href="#DejaVuSans-74"/>
      <use x="102.685547" xlink:href="#DejaVuSans-65"/>
      <use x="164.208984" xlink:href="#DejaVuSans-70"/>
      <use x="227.685547" xlink:href="#DejaVuSans-73"/>
     </g>
    </g>
   </g>
   <g id="matplotlib.axis_2">
    <g id="ytick_1">
     <g id="line2d_6">
      <defs>
       <path d="M 0 0 
L -3.5 0 
" id="mf565148cde" style="stroke:#000000;stroke-width:0.8;"/>
      </defs>
      <g>
       <use style="stroke:#000000;stroke-width:0.8;" x="57.6" xlink:href="#mf565148cde" y="307.584"/>
      </g>
     </g>
     <g id="text_7">
      <!-- 0 -->
      <g transform="translate(44.2375 311.383219)scale(0.1 -0.1)">
       <use xlink:href="#DejaVuSans-30"/>
      </g>
     </g>
    </g>
    <g id="ytick_2">
     <g id="line2d_7">
      <g>
       <use style="stroke:#000000;stroke-width:0.8;" x="57.6" xlink:href="#mf565148cde" y="254.3616"/>
      </g>
     </g>
     <g id="text_8">
      <!-- 20 -->
      <g transform="translate(37.875 258.160819)scale(0.1 -0.1)">
       <use xlink:href="#DejaVuSans-32"/>
       <use x="63.623047" xlink:href="#DejaVuSans-30"/>
      </g>
     </g>
    </g>
    <g id="ytick_3">
     <g id="line2d_8">
      <g>
       <use style="stroke:#000000;stroke-width:0.8;" x="57.6" xlink:href="#mf565148cde" y="201.1392"/>
      </g>
     </g>
     <g id="text_9">
      <!-- 40 -->
      <defs>
       <path d="M 37.796875 64.3125 
L 12.890625 25.390625 
L 37.796875 25.390625 
z
M 35.203125 72.90625 
L 47.609375 72.90625 
L 47.609375 25.390625 
L 58.015625 25.390625 
L 58.015625 17.1875 
L 47.609375 17.1875 
L 47.609375 0 
L 37.796875 0 
L 37.796875 17.1875 
L 4.890625 17.1875 
L 4.890625 26.703125 
z
" id="DejaVuSans-34"/>
      </defs>
      <g transform="translate(37.875 204.938419)scale(0.1 -0.1)">
       <use xlink:href="#DejaVuSans-34"/>
       <use x="63.623047" xlink:href="#DejaVuSans-30"/>
      </g>
     </g>
    </g>
    <g id="ytick_4">
     <g id="line2d_9">
      <g>
       <use style="stroke:#000000;stroke-width:0.8;" x="57.6" xlink:href="#mf565148cde" y="147.9168"/>
      </g>
     </g>
     <g id="text_10">
      <!-- 60 -->
      <defs>
       <path d="M 33.015625 40.375 
Q 26.375 40.375 22.484375 35.828125 
Q 18.609375 31.296875 18.609375 23.390625 
Q 18.609375 15.53125 22.484375 10.953125 
Q 26.375 6.390625 33.015625 6.390625 
Q 39.65625 6.390625 43.53125 10.953125 
Q 47.40625 15.53125 47.40625 23.390625 
Q 47.40625 31.296875 43.53125 35.828125 
Q 39.65625 40.375 33.015625 40.375 
z
M 52.59375 71.296875 
L 52.59375 62.3125 
Q 48.875 64.0625 45.09375 64.984375 
Q 41.3125 65.921875 37.59375 65.921875 
Q 27.828125 65.921875 22.671875 59.328125 
Q 17.53125 52.734375 16.796875 39.40625 
Q 19.671875 43.65625 24.015625 45.921875 
Q 28.375 48.1875 33.59375 48.1875 
Q 44.578125 48.1875 50.953125 41.515625 
Q 57.328125 34.859375 57.328125 23.390625 
Q 57.328125 12.15625 50.6875 5.359375 
Q 44.046875 -1.421875 33.015625 -1.421875 
Q 20.359375 -1.421875 13.671875 8.265625 
Q 6.984375 17.96875 6.984375 36.375 
Q 6.984375 53.65625 15.1875 63.9375 
Q 23.390625 74.21875 37.203125 74.21875 
Q 40.921875 74.21875 44.703125 73.484375 
Q 48.484375 72.75 52.59375 71.296875 
z
" id="DejaVuSans-36"/>
      </defs>
      <g transform="translate(37.875 151.716019)scale(0.1 -0.1)">
       <use xlink:href="#DejaVuSans-36"/>
       <use x="63.623047" xlink:href="#DejaVuSans-30"/>
      </g>
     </g>
    </g>
    <g id="ytick_5">
     <g id="line2d_10">
      <g>
       <use style="stroke:#000000;stroke-width:0.8;" x="57.6" xlink:href="#mf565148cde" y="94.6944"/>
      </g>
     </g>
     <g id="text_11">
      <!-- 80 -->
      <defs>
       <path d="M 31.78125 34.625 
Q 24.75 34.625 20.71875 30.859375 
Q 16.703125 27.09375 16.703125 20.515625 
Q 16.703125 13.921875 20.71875 10.15625 
Q 24.75 6.390625 31.78125 6.390625 
Q 38.8125 6.390625 42.859375 10.171875 
Q 46.921875 13.96875 46.921875 20.515625 
Q 46.921875 27.09375 42.890625 30.859375 
Q 38.875 34.625 31.78125 34.625 
z
M 21.921875 38.8125 
Q 15.578125 40.375 12.03125 44.71875 
Q 8.5 49.078125 8.5 55.328125 
Q 8.5 64.0625 14.71875 69.140625 
Q 20.953125 74.21875 31.78125 74.21875 
Q 42.671875 74.21875 48.875 69.140625 
Q 55.078125 64.0625 55.078125 55.328125 
Q 55.078125 49.078125 51.53125 44.71875 
Q 48 40.375 41.703125 38.8125 
Q 48.828125 37.15625 52.796875 32.3125 
Q 56.78125 27.484375 56.78125 20.515625 
Q 56.78125 9.90625 50.3125 4.234375 
Q 43.84375 -1.421875 31.78125 -1.421875 
Q 19.734375 -1.421875 13.25 4.234375 
Q 6.78125 9.90625 6.78125 20.515625 
Q 6.78125 27.484375 10.78125 32.3125 
Q 14.796875 37.15625 21.921875 38.8125 
z
M 18.3125 54.390625 
Q 18.3125 48.734375 21.84375 45.5625 
Q 25.390625 42.390625 31.78125 42.390625 
Q 38.140625 42.390625 41.71875 45.5625 
Q 45.3125 48.734375 45.3125 54.390625 
Q 45.3125 60.0625 41.71875 63.234375 
Q 38.140625 66.40625 31.78125 66.40625 
Q 25.390625 66.40625 21.84375 63.234375 
Q 18.3125 60.0625 18.3125 54.390625 
z
" id="DejaVuSans-38"/>
      </defs>
      <g transform="translate(37.875 98.493619)scale(0.1 -0.1)">
       <use xlink:href="#DejaVuSans-38"/>
       <use x="63.623047" xlink:href="#DejaVuSans-30"/>
      </g>
     </g>
    </g>
    <g id="ytick_6">
     <g id="line2d_11">
      <g>
       <use style="stroke:#000000;stroke-width:0.8;" x="57.6" xlink:href="#mf565148cde" y="41.472"/>
      </g>
     </g>
     <g id="text_12">
      <!-- 100 -->
      <g transform="translate(31.5125 45.271219)scale(0.1 -0.1)">
       <use xlink:href="#DejaVuSans-31"/>
       <use x="63.623047" xlink:href="#DejaVuSans-30"/>
       <use x="127.246094" xlink:href="#DejaVuSans-30"/>
      </g>
     </g>
    </g>
    <g id="text_13">
     <!-- Optimal action (%) -->
     <defs>
      <path d="M 39.40625 66.21875 
Q 28.65625 66.21875 22.328125 58.203125 
Q 16.015625 50.203125 16.015625 36.375 
Q 16.015625 22.609375 22.328125 14.59375 
Q 28.65625 6.59375 39.40625 6.59375 
Q 50.140625 6.59375 56.421875 14.59375 
Q 62.703125 22.609375 62.703125 36.375 
Q 62.703125 50.203125 56.421875 58.203125 
Q 50.140625 66.21875 39.40625 66.21875 
z
M 39.40625 74.21875 
Q 54.734375 74.21875 63.90625 63.9375 
Q 73.09375 53.65625 73.09375 36.375 
Q 73.09375 19.140625 63.90625 8.859375 
Q 54.734375 -1.421875 39.40625 -1.421875 
Q 24.03125 -1.421875 14.8125 8.828125 
Q 5.609375 19.09375 5.609375 36.375 
Q 5.609375 53.65625 14.8125 63.9375 
Q 24.03125 74.21875 39.40625 74.21875 
z
" id="DejaVuSans-4f"/>
      <path d="M 9.421875 54.6875 
L 18.40625 54.6875 
L 18.40625 0 
L 9.421875 0 
z
M 9.421875 75.984375 
L 18.40625 75.984375 
L 18.40625 64.59375 
L 9.421875 64.59375 
z
" id="DejaVuSans-69"/>
      <path d="M 52 44.1875 
Q 55.375 50.25 60.0625 53.125 
Q 64.75 56 71.09375 56 
Q 79.640625 56 84.28125 50.015625 
Q 88.921875 44.046875 88.921875 33.015625 
L 88.921875 0 
L 79.890625 0 
L 79.890625 32.71875 
Q 79.890625 40.578125 77.09375 44.375 
Q 74.3125 48.1875 68.609375 48.1875 
Q 61.625 48.1875 57.5625 43.546875 
Q 53.515625 38.921875 53.515625 30.90625 
L 53.515625 0 
L 44.484375 0 
L 44.484375 32.71875 
Q 44.484375 40.625 41.703125 44.40625 
Q 38.921875 48.1875 33.109375 48.1875 
Q 26.21875 48.1875 22.15625 43.53125 
Q 18.109375 38.875 18.109375 30.90625 
L 18.109375 0 
L 9.078125 0 
L 9.078125 54.6875 
L 18.109375 54.6875 
L 18.109375 46.1875 
Q 21.1875 51.21875 25.484375 53.609375 
Q 29.78125 56 35.6875 56 
Q 41.65625 56 45.828125 52.96875 
Q 50 49.953125 52 44.1875 
z
" id="DejaVuSans-6d"/>
      <path d="M 34.28125 27.484375 
Q 23.390625 27.484375 19.1875 25 
Q 14.984375 22.515625 14.984375 16.5 
Q 14.984375 11.71875 18.140625 8.90625 
Q 21.296875 6.109375 26.703125 6.109375 
Q 34.1875 6.109375 38.703125 11.40625 
Q 43.21875 16.703125 43.21875 25.484375 
L 43.21875 27.484375 
z
M 52.203125 31.203125 
L 52.203125 0 
L 43.21875 0 
L 43.21875 8.296875 
Q 40.140625 3.328125 35.546875 0.953125 
Q 30.953125 -1.421875 24.3125 -1.421875 
Q 15.921875 -1.421875 10.953125 3.296875 
Q 6 8.015625 6 15.921875 
Q 6 25.140625 12.171875 29.828125 
Q 18.359375 34.515625 30.609375 34.515625 
L 43.21875 34.515625 
L 43.21875 35.40625 
Q 43.21875 41.609375 39.140625 45 
Q 35.0625 48.390625 27.6875 48.390625 
Q 23 48.390625 18.546875 47.265625 
Q 14.109375 46.140625 10.015625 43.890625 
L 10.015625 52.203125 
Q 14.9375 54.109375 19.578125 55.046875 
Q 24.21875 56 28.609375 56 
Q 40.484375 56 46.34375 49.84375 
Q 52.203125 43.703125 52.203125 31.203125 
z
" id="DejaVuSans-61"/>
      <path d="M 9.421875 75.984375 
L 18.40625 75.984375 
L 18.40625 0 
L 9.421875 0 
z
" id="DejaVuSans-6c"/>
      <path id="DejaVuSans-20"/>
      <path d="M 48.78125 52.59375 
L 48.78125 44.1875 
Q 44.96875 46.296875 41.140625 47.34375 
Q 37.3125 48.390625 33.40625 48.390625 
Q 24.65625 48.390625 19.8125 42.84375 
Q 14.984375 37.3125 14.984375 27.296875 
Q 14.984375 17.28125 19.8125 11.734375 
Q 24.65625 6.203125 33.40625 6.203125 
Q 37.3125 6.203125 41.140625 7.25 
Q 44.96875 8.296875 48.78125 10.40625 
L 48.78125 2.09375 
Q 45.015625 0.34375 40.984375 -0.53125 
Q 36.96875 -1.421875 32.421875 -1.421875 
Q 20.0625 -1.421875 12.78125 6.34375 
Q 5.515625 14.109375 5.515625 27.296875 
Q 5.515625 40.671875 12.859375 48.328125 
Q 20.21875 56 33.015625 56 
Q 37.15625 56 41.109375 55.140625 
Q 45.0625 54.296875 48.78125 52.59375 
z
" id="DejaVuSans-63"/>
      <path d="M 30.609375 48.390625 
Q 23.390625 48.390625 19.1875 42.75 
Q 14.984375 37.109375 14.984375 27.296875 
Q 14.984375 17.484375 19.15625 11.84375 
Q 23.34375 6.203125 30.609375 6.203125 
Q 37.796875 6.203125 41.984375 11.859375 
Q 46.1875 17.53125 46.1875 27.296875 
Q 46.1875 37.015625 41.984375 42.703125 
Q 37.796875 48.390625 30.609375 48.390625 
z
M 30.609375 56 
Q 42.328125 56 49.015625 48.375 
Q 55.71875 40.765625 55.71875 27.296875 
Q 55.71875 13.875 49.015625 6.21875 
Q 42.328125 -1.421875 30.609375 -1.421875 
Q 18.84375 -1.421875 12.171875 6.21875 
Q 5.515625 13.875 5.515625 27.296875 
Q 5.515625 40.765625 12.171875 48.375 
Q 18.84375 56 30.609375 56 
z
" id="DejaVuSans-6f"/>
      <path d="M 54.890625 33.015625 
L 54.890625 0 
L 45.90625 0 
L 45.90625 32.71875 
Q 45.90625 40.484375 42.875 44.328125 
Q 39.84375 48.1875 33.796875 48.1875 
Q 26.515625 48.1875 22.3125 43.546875 
Q 18.109375 38.921875 18.109375 30.90625 
L 18.109375 0 
L 9.078125 0 
L 9.078125 54.6875 
L 18.109375 54.6875 
L 18.109375 46.1875 
Q 21.34375 51.125 25.703125 53.5625 
Q 30.078125 56 35.796875 56 
Q 45.21875 56 50.046875 50.171875 
Q 54.890625 44.34375 54.890625 33.015625 
z
" id="DejaVuSans-6e"/>
      <path d="M 31 75.875 
Q 24.46875 64.65625 21.28125 53.65625 
Q 18.109375 42.671875 18.109375 31.390625 
Q 18.109375 20.125 21.3125 9.0625 
Q 24.515625 -2 31 -13.1875 
L 23.1875 -13.1875 
Q 15.875 -1.703125 12.234375 9.375 
Q 8.59375 20.453125 8.59375 31.390625 
Q 8.59375 42.28125 12.203125 53.3125 
Q 15.828125 64.359375 23.1875 75.875 
z
" id="DejaVuSans-28"/>
      <path d="M 72.703125 32.078125 
Q 68.453125 32.078125 66.03125 28.46875 
Q 63.625 24.859375 63.625 18.40625 
Q 63.625 12.0625 66.03125 8.421875 
Q 68.453125 4.78125 72.703125 4.78125 
Q 76.859375 4.78125 79.265625 8.421875 
Q 81.6875 12.0625 81.6875 18.40625 
Q 81.6875 24.8125 79.265625 28.4375 
Q 76.859375 32.078125 72.703125 32.078125 
z
M 72.703125 38.28125 
Q 80.421875 38.28125 84.953125 32.90625 
Q 89.5 27.546875 89.5 18.40625 
Q 89.5 9.28125 84.9375 3.921875 
Q 80.375 -1.421875 72.703125 -1.421875 
Q 64.890625 -1.421875 60.34375 3.921875 
Q 55.8125 9.28125 55.8125 18.40625 
Q 55.8125 27.59375 60.375 32.9375 
Q 64.9375 38.28125 72.703125 38.28125 
z
M 22.3125 68.015625 
Q 18.109375 68.015625 15.6875 64.375 
Q 13.28125 60.75 13.28125 54.390625 
Q 13.28125 47.953125 15.671875 44.328125 
Q 18.0625 40.71875 22.3125 40.71875 
Q 26.5625 40.71875 28.96875 44.328125 
Q 31.390625 47.953125 31.390625 54.390625 
Q 31.390625 60.6875 28.953125 64.34375 
Q 26.515625 68.015625 22.3125 68.015625 
z
M 66.40625 74.21875 
L 74.21875 74.21875 
L 28.609375 -1.421875 
L 20.796875 -1.421875 
z
M 22.3125 74.21875 
Q 30.03125 74.21875 34.609375 68.875 
Q 39.203125 63.53125 39.203125 54.390625 
Q 39.203125 45.171875 34.640625 39.84375 
Q 30.078125 34.515625 22.3125 34.515625 
Q 14.546875 34.515625 10.03125 39.859375 
Q 5.515625 45.21875 5.515625 54.390625 
Q 5.515625 63.484375 10.046875 68.84375 
Q 14.59375 74.21875 22.3125 74.21875 
z
" id="DejaVuSans-25"/>
      <path d="M 8.015625 75.875 
L 15.828125 75.875 
Q 23.140625 64.359375 26.78125 53.3125 
Q 30.421875 42.28125 30.421875 31.390625 
Q 30.421875 20.453125 26.78125 9.375 
Q 23.140625 -1.703125 15.828125 -13.1875 
L 8.015625 -13.1875 
Q 14.5 -2 17.703125 9.0625 
Q 20.90625 20.125 20.90625 31.390625 
Q 20.90625 42.671875 17.703125 53.65625 
Q 14.5 64.65625 8.015625 75.875 
z
" id="DejaVuSans-29"/>
     </defs>
     <g transform="translate(25.432812 221.531906)rotate(-90)scale(0.1 -0.1)">
      <use xlink:href="#DejaVuSans-4f"/>
      <use x="78.710938" xlink:href="#DejaVuSans-70"/>
      <use x="142.1875" xlink:href="#DejaVuSans-74"/>
      <use x="181.396484" xlink:href="#DejaVuSans-69"/>
      <use x="209.179688" xlink:href="#DejaVuSans-6d"/>
      <use x="306.591797" xlink:href="#DejaVuSans-61"/>
      <use x="367.871094" xlink:href="#DejaVuSans-6c"/>
      <use x="395.654297" xlink:href="#DejaVuSans-20"/>
      <use x="427.441406" xlink:href="#DejaVuSans-61"/>
      <use x="488.720703" xlink:href="#DejaVuSans-63"/>
      <use x="543.701172" xlink:href="#DejaVuSans-74"/>
      <use x="582.910156" xlink:href="#DejaVuSans-69"/>
      <use x="610.693359" xlink:href="#DejaVuSans-6f"/>
      <use x="671.875" xlink:href="#DejaVuSans-6e"/>
      <use x="735.253906" xlink:href="#DejaVuSans-20"/>
      <use x="767.041016" xlink:href="#DejaVuSans-28"/>
      <use x="806.054688" xlink:href="#DejaVuSans-25"/>
      <use x="901.074219" xlink:href="#DejaVuSans-29"/>
     </g>
    </g>
   </g>
   <g id="line2d_12">
    <path clip-path="url(#pecb6aaf360)" d="M 73.832727 277.779454 
L 74.157707 283.234753 
L 74.482686 281.105857 
L 75.132645 283.36781 
L 75.457625 276.71501 
L 75.782604 279.243073 
L 76.107584 280.706687 
L 76.432563 281.37197 
L 76.757543 283.101697 
L 77.082523 196.748348 
L 77.407502 186.369986 
L 79.357379 157.629892 
L 79.682359 157.23072 
L 80.007338 152.839878 
L 80.332318 154.037374 
L 80.657297 150.710974 
L 80.982277 149.114306 
L 81.307256 146.719294 
L 81.632236 145.787906 
L 82.282195 142.062344 
L 82.607174 142.461496 
L 82.932154 140.997892 
L 83.257133 140.731784 
L 83.582113 141.530108 
L 83.907093 141.397064 
L 84.232072 139.93344 
L 84.882031 139.401204 
L 85.207011 138.469816 
L 85.53199 138.735924 
L 85.85697 138.070654 
L 86.181949 136.873148 
L 86.506929 137.671492 
L 87.156888 136.207868 
L 87.481867 136.207868 
L 88.131826 134.345072 
L 88.456806 134.877308 
L 88.781785 134.877308 
L 89.431744 133.94592 
L 89.756724 133.679812 
L 90.081704 134.078964 
L 90.406683 133.679812 
L 90.731663 133.94592 
L 91.056642 133.28064 
L 91.381622 134.345072 
L 91.706601 133.546748 
L 92.031581 133.147576 
L 92.35656 133.28064 
L 92.68154 133.546748 
L 93.656478 132.482296 
L 94.306437 132.748424 
L 94.631417 132.216188 
L 94.956396 131.95008 
L 95.281376 131.95008 
L 95.606355 131.817036 
L 95.931335 132.083144 
L 96.256314 131.683972 
L 96.906274 131.683972 
L 97.231253 131.817036 
L 97.881212 131.151756 
L 98.206192 131.550928 
L 98.531171 131.151756 
L 98.856151 131.018692 
L 99.18113 130.752584 
L 99.50611 131.550928 
L 99.831089 131.018692 
L 100.156069 131.018692 
L 100.481048 130.885648 
L 100.806028 131.018692 
L 101.131007 131.417864 
L 101.455987 130.752584 
L 101.780966 131.018692 
L 102.105946 130.885648 
L 102.430925 130.486476 
L 102.755905 129.688132 
L 103.405864 129.422024 
L 103.730844 129.688132 
L 104.055823 129.555068 
L 104.380803 129.555068 
L 105.030762 129.155916 
L 105.355741 129.422024 
L 105.680721 129.022852 
L 106.0057 129.155916 
L 106.33068 129.155916 
L 106.655659 128.889788 
L 106.980639 129.022852 
L 107.305618 129.022852 
L 107.630598 128.889788 
L 107.955577 129.022852 
L 108.280557 128.756744 
L 108.605536 128.889788 
L 108.930516 128.756744 
L 109.580475 129.022852 
L 109.905455 129.022852 
L 110.230434 128.490636 
L 110.555414 128.62368 
L 110.880393 128.889788 
L 111.205373 128.490636 
L 111.855332 128.756744 
L 112.180311 128.756744 
L 112.505291 128.62368 
L 112.83027 128.62368 
L 113.15525 128.756744 
L 113.480229 128.62368 
L 113.805209 128.62368 
L 114.130188 128.889788 
L 114.455168 128.889788 
L 114.780147 128.490636 
L 115.430106 128.490636 
L 116.080066 128.091464 
L 116.405045 128.091464 
L 116.730025 128.357572 
L 117.379984 127.9584 
L 117.704963 128.091464 
L 118.029943 127.825356 
L 118.354922 128.357572 
L 118.679902 128.224508 
L 119.97982 128.224508 
L 120.304799 128.091464 
L 120.629779 128.224508 
L 121.279738 128.224508 
L 121.604717 128.357572 
L 121.929697 128.357572 
L 122.579656 127.9584 
L 122.904636 128.091464 
L 123.554595 128.091464 
L 123.879574 128.490636 
L 124.529533 128.091464 
L 125.179492 128.091464 
L 125.504472 128.224508 
L 125.829451 127.825356 
L 126.154431 127.9584 
L 126.47941 128.224508 
L 126.80439 128.091464 
L 127.129369 128.224508 
L 127.779328 127.9584 
L 128.104308 127.9584 
L 128.429287 127.825356 
L 128.754267 128.091464 
L 129.079247 127.9584 
L 129.404226 127.9584 
L 129.729206 128.224508 
L 130.054185 127.825356 
L 130.379165 127.825356 
L 130.704144 127.692292 
L 131.354103 127.692292 
L 131.679083 127.559228 
L 132.654021 127.559228 
L 132.979001 127.426184 
L 133.30398 127.426184 
L 133.62896 127.559228 
L 134.603898 127.559228 
L 134.928878 127.692292 
L 135.253857 127.692292 
L 135.578837 127.9584 
L 135.903817 127.559228 
L 136.553776 127.559228 
L 136.878755 127.426184 
L 137.203735 127.559228 
L 138.178673 127.559228 
L 138.503653 127.692292 
L 138.828632 127.559228 
L 140.12855 127.559228 
L 140.45353 127.825356 
L 140.778509 127.692292 
L 141.753448 127.692292 
L 142.403407 127.29312 
L 143.053366 127.825356 
L 143.378346 127.559228 
L 143.703325 127.692292 
L 144.353284 127.426184 
L 145.978182 127.426184 
L 146.303161 127.559228 
L 146.628141 127.426184 
L 147.603079 127.426184 
L 147.928059 127.29312 
L 148.253038 127.29312 
L 148.578018 127.160076 
L 149.227977 127.160076 
L 149.552957 127.29312 
L 150.527895 127.29312 
L 150.852875 127.160076 
L 151.177854 127.426184 
L 151.502834 127.29312 
L 151.827813 127.426184 
L 152.802752 127.426184 
L 153.127731 127.29312 
L 153.452711 127.29312 
L 153.77769 127.426184 
L 154.10267 127.426184 
L 154.427649 127.29312 
L 155.077609 127.29312 
L 155.402588 127.160076 
L 155.727568 127.29312 
L 156.377527 127.29312 
L 156.702506 127.426184 
L 157.027486 127.29312 
L 158.002424 127.29312 
L 158.652383 127.027012 
L 158.977363 127.29312 
L 159.302342 127.29312 
L 159.627322 127.426184 
L 159.952301 127.29312 
L 160.277281 127.426184 
L 160.60226 127.29312 
L 160.92724 127.426184 
L 161.252219 127.29312 
L 161.577199 127.29312 
L 161.902179 127.027012 
L 163.202097 127.027012 
L 163.527076 127.160076 
L 164.502015 127.160076 
L 164.826994 127.027012 
L 165.151974 127.027012 
L 165.476953 127.29312 
L 165.801933 127.027012 
L 168.401769 127.027012 
L 168.726749 126.893948 
L 171.001605 126.893948 
L 171.326585 126.760904 
L 171.651564 126.760904 
L 171.976544 126.893948 
L 178.151155 126.893948 
L 178.476134 126.760904 
L 178.801114 126.893948 
L 184.000786 126.893948 
L 184.325766 126.760904 
L 187.250581 126.760904 
L 187.575561 126.893948 
L 187.900541 126.760904 
L 189.850418 126.760904 
L 190.175397 126.893948 
L 190.500377 126.760904 
L 191.475315 126.760904 
L 191.800295 126.893948 
L 192.125274 126.760904 
L 195.05009 126.760904 
L 195.37507 126.893948 
L 195.700049 126.760904 
L 196.025029 126.893948 
L 196.350008 126.893948 
L 196.674988 126.760904 
L 198.624865 126.760904 
L 198.949844 126.62784 
L 199.274824 126.893948 
L 199.599803 126.760904 
L 205.774414 126.760904 
L 206.099394 126.893948 
L 206.424373 126.760904 
L 211.624046 126.760904 
L 211.949025 126.893948 
L 213.248943 126.893948 
L 213.573923 127.027012 
L 213.898903 126.893948 
L 214.548862 126.893948 
L 214.873841 127.027012 
L 215.198821 126.893948 
L 215.84878 126.893948 
L 216.173759 126.760904 
L 219.098575 126.760904 
L 219.423554 126.62784 
L 225.923145 126.62784 
L 226.248124 126.760904 
L 226.573104 126.62784 
L 229.17294 126.62784 
L 229.49792 126.494796 
L 229.822899 126.62784 
L 231.447797 126.62784 
L 231.772776 126.494796 
L 232.097756 126.494796 
L 232.422735 126.62784 
L 233.722654 126.62784 
L 234.047633 126.494796 
L 260.370975 126.494796 
L 260.695954 126.361732 
L 264.270729 126.361732 
L 264.595708 126.494796 
L 264.920688 126.361732 
L 266.545586 126.361732 
L 266.870565 126.228668 
L 268.495463 126.228668 
L 268.820442 126.095624 
L 270.44534 126.095624 
L 270.770319 126.228668 
L 274.670074 126.228668 
L 274.995053 126.361732 
L 275.320033 126.361732 
L 275.645012 126.228668 
L 318.21733 126.228668 
L 318.54231 126.095624 
L 318.867289 126.228668 
L 342.590794 126.228668 
L 342.915774 126.361732 
L 343.240753 126.228668 
L 385.813071 126.228668 
L 386.138051 126.361732 
L 386.46303 126.228668 
L 398.487273 126.228668 
L 398.487273 126.228668 
" style="fill:none;stroke:#1f77b4;stroke-linecap:square;stroke-width:1.5;"/>
   </g>
   <g id="line2d_13">
    <path clip-path="url(#pecb6aaf360)" d="M 73.832727 280.041407 
L 74.157707 268.59859 
L 75.782604 241.189054 
L 76.107584 240.124602 
L 76.757543 232.274306 
L 77.082523 230.544574 
L 77.407502 224.557054 
L 77.732482 223.75872 
L 78.057461 222.561214 
L 78.382441 219.367878 
L 78.70742 218.303426 
L 79.0324 215.509252 
L 79.357379 217.238974 
L 79.682359 217.10592 
L 80.007338 212.848122 
L 80.332318 212.981176 
L 80.982277 210.45312 
L 81.307256 210.45312 
L 81.632236 208.058108 
L 81.957215 209.78784 
L 82.282195 207.12672 
L 82.607174 205.396988 
L 83.257133 206.860602 
L 84.232072 200.074748 
L 84.557052 203.268094 
L 84.882031 201.405318 
L 85.207011 198.877252 
L 85.53199 197.8128 
L 85.85697 199.675586 
L 86.506929 195.950014 
L 86.831908 197.413628 
L 87.481867 192.224452 
L 87.806847 193.555012 
L 88.131826 193.82112 
L 88.456806 192.357506 
L 88.781785 191.692226 
L 89.106765 192.889732 
L 89.756724 188.232762 
L 90.081704 191.026946 
L 90.406683 190.760828 
L 90.731663 191.293054 
L 91.056642 184.906372 
L 91.381622 188.631934 
L 91.706601 187.301374 
L 92.35656 186.50304 
L 92.68154 187.966654 
L 93.006519 186.636094 
L 93.331499 187.301374 
L 93.656478 186.50304 
L 93.981458 184.773318 
L 94.306437 185.438598 
L 94.631417 182.644414 
L 94.956396 185.17248 
L 95.281376 184.5072 
L 95.606355 181.446908 
L 95.931335 181.1808 
L 96.256314 180.648574 
L 96.581294 181.047746 
L 96.906274 180.914682 
L 97.231253 183.17664 
L 97.556233 182.112188 
L 97.881212 178.918852 
L 98.206192 179.051906 
L 98.531171 179.051906 
L 99.18113 176.390786 
L 99.50611 177.721346 
L 99.831089 176.789958 
L 100.156069 176.656894 
L 100.481048 174.528 
L 100.806028 173.995784 
L 101.131007 172.266052 
L 101.455987 173.995784 
L 101.780966 172.665204 
L 102.105946 172.798268 
L 102.430925 173.86272 
L 102.755905 171.2016 
L 103.080885 170.403266 
L 103.405864 170.935492 
L 103.730844 170.935492 
L 104.055823 169.20576 
L 104.380803 169.072706 
L 104.705782 168.673534 
L 105.030762 168.673534 
L 105.355741 167.742146 
L 105.680721 165.347134 
L 106.0057 168.141318 
L 106.655659 165.21407 
L 106.980639 164.814918 
L 107.305618 165.613242 
L 107.630598 163.750466 
L 107.955577 163.88351 
L 108.280557 163.085186 
L 108.605536 165.081026 
L 109.255495 160.690184 
L 109.580475 162.686014 
L 109.905455 163.617402 
L 110.230434 159.492668 
L 110.555414 159.625732 
L 110.880393 164.814918 
L 111.205373 157.896 
L 111.530352 160.55712 
L 111.855332 159.625732 
L 112.180311 160.823228 
L 112.83027 158.029064 
L 113.15525 157.629892 
L 113.480229 159.492668 
L 113.805209 160.157948 
L 114.455168 157.496828 
L 114.780147 157.23072 
L 115.105127 155.500988 
L 115.430106 154.835708 
L 115.755086 156.831548 
L 116.080066 155.500988 
L 116.405045 158.428216 
L 116.730025 155.101816 
L 117.055004 154.5696 
L 117.379984 156.964612 
L 117.704963 156.166268 
L 118.354922 153.23904 
L 118.679902 152.041534 
L 119.004881 154.5696 
L 119.329861 152.57376 
L 119.65484 151.509318 
L 119.97982 152.307642 
L 120.304799 153.90432 
L 120.629779 153.505148 
L 120.954758 154.303492 
L 121.279738 150.710974 
L 121.604717 150.844038 
L 121.929697 150.178758 
L 122.254676 150.977082 
L 122.579656 148.848198 
L 122.904636 149.779586 
L 123.229615 148.315962 
L 123.554595 151.110146 
L 123.879574 151.24321 
L 124.204554 152.57376 
L 124.854513 147.91679 
L 125.504472 149.24735 
L 125.829451 149.380414 
L 126.154431 147.783746 
L 126.47941 148.315962 
L 127.129369 148.981242 
L 127.779328 146.852358 
L 128.104308 146.985402 
L 128.429287 148.049854 
L 128.754267 144.5904 
L 129.079247 146.852358 
L 129.404226 146.58624 
L 129.729206 147.650682 
L 130.054185 147.384574 
L 130.704144 143.792076 
L 131.029124 145.92096 
L 131.354103 142.727624 
L 131.679083 142.195388 
L 132.004062 144.191228 
L 132.329042 142.59456 
L 132.654021 146.58624 
L 132.979001 142.328452 
L 133.30398 142.328452 
L 133.62896 144.058184 
L 133.953939 143.659012 
L 134.278919 142.727624 
L 134.603898 143.126796 
L 134.928878 142.727624 
L 135.253857 141.796216 
L 135.578837 140.199548 
L 135.903817 140.066504 
L 136.228796 139.002052 
L 136.553776 143.25984 
L 136.878755 138.868988 
L 137.203735 138.336772 
L 137.528714 139.534268 
L 137.853694 139.401204 
L 138.178673 141.130936 
L 138.503653 141.130936 
L 139.153612 137.27232 
L 139.478591 138.60288 
L 139.803571 137.9376 
L 140.778509 137.27232 
L 141.103489 135.010352 
L 141.428468 135.143416 
L 141.753448 133.413704 
L 142.078428 137.9376 
L 142.728387 132.216188 
L 143.053366 134.877308 
L 143.378346 136.207868 
L 143.703325 136.873148 
L 144.028305 134.212028 
L 144.353284 134.744244 
L 144.678264 136.340932 
L 145.003243 134.078964 
L 145.328223 134.078964 
L 145.653202 131.683972 
L 146.303161 134.877308 
L 146.628141 133.679812 
L 146.95312 133.014532 
L 147.2781 128.889788 
L 147.603079 134.744244 
L 147.928059 132.216188 
L 148.253038 131.417864 
L 148.578018 133.94592 
L 148.902998 132.881468 
L 149.227977 129.688132 
L 149.552957 131.018692 
L 149.877936 133.28064 
L 150.202916 131.018692 
L 150.527895 131.417864 
L 150.852875 129.555068 
L 151.177854 129.28896 
L 151.502834 133.413704 
L 151.827813 131.018692 
L 152.152793 134.345072 
L 152.477772 131.151756 
L 152.802752 129.422024 
L 153.127731 129.28896 
L 153.452711 131.417864 
L 154.10267 130.220368 
L 154.427649 129.422024 
L 154.752629 130.486476 
L 155.077609 129.555068 
L 155.402588 127.426184 
L 155.727568 130.61952 
L 156.052547 129.688132 
L 156.377527 129.28896 
L 156.702506 127.160076 
L 157.027486 129.155916 
L 157.352465 129.95424 
L 158.002424 128.490636 
L 158.327404 128.357572 
L 158.652383 129.422024 
L 158.977363 126.494796 
L 159.302342 127.29312 
L 159.627322 128.490636 
L 159.952301 123.96672 
L 160.277281 124.365892 
L 160.60226 127.29312 
L 160.92724 122.370052 
L 161.577199 128.62368 
L 161.902179 125.829496 
L 162.227158 124.099784 
L 162.552138 127.692292 
L 162.877117 124.632 
L 163.202097 126.494796 
L 163.527076 125.164216 
L 163.852056 125.829496 
L 164.177035 126.893948 
L 164.502015 122.236988 
L 165.151974 127.027012 
L 165.476953 126.893948 
L 165.801933 124.898108 
L 166.126912 123.833656 
L 166.451892 119.708932 
L 166.776871 122.503096 
L 167.101851 122.236988 
L 167.42683 121.039492 
L 168.07679 123.434504 
L 168.401769 123.168376 
L 168.726749 124.365892 
L 169.051728 123.168376 
L 169.376708 124.632 
L 169.701687 121.97088 
L 170.026667 120.507256 
L 170.351646 123.168376 
L 170.676626 122.63616 
L 171.001605 121.704772 
L 171.326585 124.365892 
L 171.651564 120.773364 
L 172.301523 123.434504 
L 172.951482 123.700612 
L 173.276462 122.902268 
L 173.601441 120.241148 
L 173.926421 121.704772 
L 174.2514 124.232828 
L 174.57638 123.567548 
L 174.90136 123.30144 
L 175.226339 121.3056 
L 175.551319 121.704772 
L 175.876298 121.438644 
L 176.201278 123.434504 
L 176.526257 122.103924 
L 176.851237 123.434504 
L 177.501196 121.438644 
L 177.826175 122.236988 
L 178.151155 123.434504 
L 178.801114 118.910588 
L 179.126093 120.64032 
L 179.451073 119.841976 
L 179.776052 122.103924 
L 180.101032 119.841976 
L 180.426011 122.103924 
L 181.075971 118.378352 
L 181.40095 122.902268 
L 181.72593 118.777524 
L 182.050909 119.043632 
L 182.375889 119.043632 
L 182.700868 118.245308 
L 183.025848 119.176696 
L 183.350827 122.63616 
L 183.675807 120.906428 
L 184.325766 119.442804 
L 184.650745 118.511416 
L 184.975725 120.241148 
L 185.300704 119.97504 
L 185.625684 119.043632 
L 185.950663 119.97504 
L 186.275643 122.902268 
L 186.600622 118.910588 
L 186.925602 121.438644 
L 187.575561 119.575868 
L 187.900541 120.108084 
L 188.5505 117.846136 
L 188.875479 119.176696 
L 189.200459 119.708932 
L 189.525438 116.781704 
L 189.850418 118.64448 
L 190.175397 118.112244 
L 190.500377 117.9792 
L 190.825356 120.773364 
L 191.150336 119.043632 
L 191.475315 118.910588 
L 191.800295 118.64448 
L 192.125274 120.507256 
L 192.450254 117.580028 
L 192.775233 117.846136 
L 193.100213 115.31808 
L 193.425192 116.781704 
L 193.750172 119.176696 
L 194.075152 118.112244 
L 194.400131 118.777524 
L 194.725111 118.910588 
L 195.05009 119.176696 
L 195.700049 118.245308 
L 196.025029 118.910588 
L 196.350008 116.64864 
L 196.674988 117.180856 
L 196.999967 117.446964 
L 197.324947 114.6528 
L 197.974906 118.777524 
L 198.299885 118.245308 
L 198.624865 115.31808 
L 199.274824 119.97504 
L 199.599803 116.914748 
L 199.924783 115.850296 
L 200.249762 119.442804 
L 200.574742 115.051972 
L 200.899722 115.717252 
L 201.224701 117.9792 
L 201.549681 116.515576 
L 201.87466 117.580028 
L 202.19964 115.98336 
L 202.524619 118.910588 
L 202.849599 116.382532 
L 203.174578 119.97504 
L 203.499558 114.918928 
L 203.824537 113.854476 
L 204.149517 119.30976 
L 204.474496 115.051972 
L 204.799476 117.31392 
L 205.124455 116.914748 
L 205.449435 115.584188 
L 205.774414 115.98336 
L 206.099394 115.584188 
L 206.424373 116.64864 
L 206.749353 115.717252 
L 207.074333 116.515576 
L 207.399312 114.918928 
L 207.724292 114.918928 
L 208.049271 115.31808 
L 208.374251 117.446964 
L 208.69923 115.051972 
L 209.02421 114.918928 
L 209.349189 113.721412 
L 209.674169 115.98336 
L 209.999148 115.98336 
L 210.324128 118.511416 
L 210.649107 119.575868 
L 210.974087 114.386692 
L 211.299066 112.390852 
L 211.624046 114.519756 
L 211.949025 112.523916 
L 212.274005 116.515576 
L 212.598984 111.193356 
L 212.923964 113.455304 
L 213.248943 113.854476 
L 213.573923 113.98752 
L 213.898903 112.257788 
L 214.223882 113.98752 
L 214.548862 111.193356 
L 214.873841 115.31808 
L 215.198821 114.120584 
L 215.5238 111.592508 
L 215.84878 111.592508 
L 216.173759 109.862796 
L 216.498739 110.395012 
L 216.823718 111.592508 
L 217.473677 110.927228 
L 217.798657 111.193356 
L 218.123636 112.923068 
L 218.448616 110.66112 
L 218.773595 113.32224 
L 219.098575 109.99584 
L 219.423554 111.858636 
L 219.748534 111.193356 
L 220.073514 111.459464 
L 220.398493 111.459464 
L 220.723473 111.193356 
L 221.048452 110.395012 
L 221.698411 115.98336 
L 222.023391 113.32224 
L 222.34837 112.257788 
L 222.67335 110.66112 
L 222.998329 109.862796 
L 223.323309 110.395012 
L 223.648288 110.528076 
L 223.973268 108.532216 
L 224.298247 111.725572 
L 224.623227 112.390852 
L 224.948206 112.65696 
L 225.273186 107.733892 
L 225.598165 109.729732 
L 225.923145 109.463624 
L 226.248124 110.528076 
L 226.573104 108.66528 
L 226.898084 109.729732 
L 227.223063 109.99584 
L 227.548043 110.66112 
L 227.873022 108.532216 
L 228.198002 108.532216 
L 228.522981 107.600828 
L 228.847961 109.064452 
L 229.17294 112.257788 
L 229.49792 110.128904 
L 229.822899 111.858636 
L 230.147879 110.794184 
L 230.472858 113.189196 
L 230.797838 113.588368 
L 231.122817 109.197496 
L 231.447797 110.261948 
L 231.772776 108.532216 
L 232.097756 111.858636 
L 232.422735 108.266108 
L 232.747715 111.725572 
L 233.072695 108 
L 233.397674 109.463624 
L 233.722654 109.33056 
L 234.047633 109.596668 
L 234.697592 108.133064 
L 235.022572 110.261948 
L 235.347551 108.66528 
L 235.672531 111.193356 
L 235.99751 112.124744 
L 236.32249 111.725572 
L 236.647469 112.124744 
L 236.972449 110.261948 
L 237.297428 109.064452 
L 237.622408 109.33056 
L 237.947387 108 
L 238.272367 108.133064 
L 238.597346 110.66112 
L 238.922326 109.33056 
L 239.247305 110.794184 
L 239.897265 107.866936 
L 240.222244 108.133064 
L 240.547224 108.798344 
L 240.872203 106.00416 
L 241.197183 109.99584 
L 241.522162 111.193356 
L 241.847142 111.858636 
L 242.172121 108.532216 
L 242.497101 108.931388 
L 242.82208 107.068612 
L 243.14706 107.467784 
L 243.472039 108.798344 
L 243.797019 107.068612 
L 244.121998 108.266108 
L 244.446978 110.66112 
L 244.771957 109.463624 
L 245.096937 107.201656 
L 245.421916 109.33056 
L 245.746896 108.133064 
L 246.071876 104.939708 
L 246.396855 109.596668 
L 246.721835 109.064452 
L 247.046814 107.201656 
L 247.371794 108.532216 
L 247.696773 109.197496 
L 248.021753 110.261948 
L 248.346732 109.729732 
L 248.671712 108.798344 
L 248.996691 104.6736 
L 249.321671 109.463624 
L 249.64665 107.866936 
L 249.97163 108.266108 
L 250.621589 109.596668 
L 250.946568 108.532216 
L 251.271548 105.471924 
L 251.596527 109.197496 
L 251.921507 106.935548 
L 252.246486 107.33472 
L 252.571466 105.072772 
L 252.896446 106.00416 
L 253.221425 106.270268 
L 253.546405 107.866936 
L 253.871384 108.532216 
L 254.196364 104.806644 
L 254.521343 110.66112 
L 254.846323 106.403332 
L 255.171302 107.068612 
L 255.496282 106.137204 
L 255.821261 108.266108 
L 256.146241 107.33472 
L 256.47122 108.931388 
L 256.7962 109.197496 
L 257.121179 106.270268 
L 257.446159 108.798344 
L 257.771138 108 
L 258.096118 105.604988 
L 258.421097 107.733892 
L 258.746077 106.802504 
L 259.071057 107.467784 
L 259.396036 109.729732 
L 259.721016 104.141364 
L 260.045995 103.875256 
L 260.370975 106.66944 
L 260.695954 106.137204 
L 261.020934 106.270268 
L 261.345913 108.931388 
L 261.670893 106.403332 
L 261.995872 110.66112 
L 262.320852 105.871096 
L 262.645831 104.407492 
L 262.970811 104.141364 
L 263.29579 106.66944 
L 263.62077 111.858636 
L 263.945749 106.00416 
L 264.270729 104.274428 
L 264.595708 104.6736 
L 264.920688 108.532216 
L 265.245667 106.935548 
L 265.570647 103.742212 
L 265.895627 107.068612 
L 266.220606 104.274428 
L 266.870565 106.270268 
L 267.195545 105.33888 
L 267.520524 107.201656 
L 268.170483 104.939708 
L 268.495463 105.604988 
L 268.820442 105.871096 
L 269.145422 105.205816 
L 269.470401 104.939708 
L 269.795381 104.939708 
L 270.12036 103.076932 
L 270.44534 104.540536 
L 270.770319 103.609148 
L 271.095299 103.476084 
L 271.420278 103.209976 
L 271.745258 107.467784 
L 272.070238 103.34304 
L 272.395217 103.076932 
L 272.720197 108.133064 
L 273.045176 107.733892 
L 274.020115 103.34304 
L 274.670074 106.270268 
L 275.320033 105.072772 
L 275.645012 103.742212 
L 275.969992 103.609148 
L 276.294971 107.467784 
L 276.619951 102.278588 
L 276.94493 103.476084 
L 277.26991 105.471924 
L 277.594889 102.145524 
L 277.919869 104.806644 
L 278.244848 105.072772 
L 278.569828 106.00416 
L 278.894808 107.33472 
L 279.219787 102.145524 
L 279.544767 102.810804 
L 279.869746 106.403332 
L 280.194726 105.33888 
L 280.519705 106.00416 
L 280.844685 102.544696 
L 281.169664 102.145524 
L 281.494644 104.939708 
L 281.819623 104.407492 
L 282.144603 107.201656 
L 282.469582 103.209976 
L 282.794562 106.137204 
L 283.119541 104.141364 
L 283.7695 103.875256 
L 284.09448 104.141364 
L 284.419459 105.604988 
L 284.744439 100.415812 
L 285.394398 103.209976 
L 285.719378 100.149704 
L 286.044357 103.476084 
L 286.369337 103.476084 
L 286.694316 105.072772 
L 287.019296 102.810804 
L 287.344275 103.609148 
L 287.669255 102.67776 
L 287.994234 104.6736 
L 288.319214 104.6736 
L 288.644193 103.209976 
L 288.969173 105.072772 
L 289.294152 104.806644 
L 289.619132 104.141364 
L 289.944111 101.746352 
L 290.269091 104.141364 
L 290.59407 104.407492 
L 290.91905 101.879416 
L 291.244029 103.476084 
L 291.569009 102.278588 
L 291.893989 105.33888 
L 292.218968 102.943868 
L 292.543948 103.875256 
L 292.868927 103.34304 
L 293.193907 104.407492 
L 293.518886 101.879416 
L 293.843866 105.33888 
L 294.168845 104.274428 
L 294.493825 103.609148 
L 294.818804 105.072772 
L 295.143784 102.01248 
L 295.468763 102.411632 
L 295.793743 104.00832 
L 296.118722 103.742212 
L 296.443702 101.480244 
L 296.768681 100.948028 
L 297.093661 102.544696 
L 297.41864 101.746352 
L 297.74362 103.076932 
L 298.0686 102.278588 
L 298.393579 104.6736 
L 298.718559 104.6736 
L 299.043538 100.149704 
L 299.368518 103.609148 
L 299.693497 99.883576 
L 300.018477 100.948028 
L 300.343456 102.810804 
L 300.993415 100.948028 
L 301.318395 99.617468 
L 301.643374 104.00832 
L 302.293333 100.948028 
L 302.618313 102.810804 
L 302.943292 100.548856 
L 303.593251 104.274428 
L 303.918231 102.810804 
L 304.24321 104.6736 
L 304.56819 101.214136 
L 304.89317 102.411632 
L 305.218149 103.076932 
L 305.543129 100.814964 
L 305.868108 101.480244 
L 306.193088 100.415812 
L 306.518067 101.214136 
L 306.843047 98.553036 
L 307.168026 99.883576 
L 307.493006 100.415812 
L 307.817985 99.883576 
L 308.467944 101.746352 
L 308.792924 100.948028 
L 309.117903 100.948028 
L 309.442883 104.141364 
L 309.767862 101.081072 
L 310.092842 102.411632 
L 310.417821 102.145524 
L 310.742801 102.544696 
L 311.067781 103.34304 
L 311.39276 102.411632 
L 311.71774 102.145524 
L 312.042719 104.806644 
L 312.367699 101.613308 
L 312.692678 99.617468 
L 313.017658 101.613308 
L 313.342637 99.883576 
L 313.667617 102.278588 
L 313.992596 98.419972 
L 314.317576 105.871096 
L 314.642555 103.742212 
L 314.967535 104.407492 
L 315.292514 98.952188 
L 315.617494 101.879416 
L 315.942473 101.480244 
L 316.267453 99.218296 
L 316.592432 102.01248 
L 316.917412 102.411632 
L 317.242391 100.814964 
L 317.567371 101.214136 
L 317.892351 99.750532 
L 318.21733 100.01664 
L 318.54231 101.480244 
L 318.867289 100.814964 
L 319.192269 102.01248 
L 319.517248 100.01664 
L 319.842228 101.480244 
L 320.167207 98.553036 
L 320.492187 99.484424 
L 320.817166 101.613308 
L 321.142146 102.145524 
L 321.467125 102.01248 
L 321.792105 101.613308 
L 322.117084 104.806644 
L 322.442064 100.68192 
L 322.767043 101.613308 
L 323.417002 99.750532 
L 323.741982 97.35552 
L 324.066962 101.081072 
L 324.391941 100.548856 
L 324.716921 100.548856 
L 325.0419 101.613308 
L 325.36688 101.214136 
L 325.691859 100.548856 
L 326.016839 101.081072 
L 326.341818 96.823304 
L 326.666798 99.218296 
L 326.991777 100.548856 
L 327.316757 98.553036 
L 327.641736 101.3472 
L 327.966716 100.282748 
L 328.291695 101.480244 
L 328.616675 96.69024 
L 328.941654 98.286928 
L 329.266634 98.68608 
L 329.591613 100.68192 
L 329.916593 101.613308 
L 330.241572 100.814964 
L 330.566552 98.419972 
L 331.216511 100.814964 
L 331.541491 101.480244 
L 332.19145 99.085252 
L 332.516429 100.282748 
L 332.841409 100.01664 
L 333.166388 101.3472 
L 333.491368 101.081072 
L 333.816347 102.278588 
L 334.141327 100.415812 
L 334.466306 99.617468 
L 334.791286 101.3472 
L 335.116265 99.484424 
L 335.441245 99.883576 
L 335.766224 101.081072 
L 336.091204 103.609148 
L 336.416183 98.553036 
L 336.741163 97.35552 
L 337.066143 100.548856 
L 337.391122 101.081072 
L 337.716102 99.883576 
L 338.041081 97.222476 
L 338.366061 99.35136 
L 339.01602 98.419972 
L 339.340999 98.419972 
L 339.665979 98.553036 
L 339.990958 100.01664 
L 340.315938 99.35136 
L 340.640917 101.879416 
L 341.290876 98.553036 
L 341.615856 100.282748 
L 341.940835 96.956368 
L 342.265815 102.145524 
L 342.590794 99.35136 
L 342.915774 99.218296 
L 343.240753 101.613308 
L 343.565733 99.484424 
L 344.215692 99.883576 
L 344.540672 102.411632 
L 344.865651 99.35136 
L 345.190631 98.286928 
L 345.51561 98.0208 
L 345.84059 100.415812 
L 346.165569 98.0208 
L 346.490549 99.617468 
L 346.815528 98.419972 
L 347.140508 98.819144 
L 347.465487 98.286928 
L 348.115446 98.68608 
L 348.440426 102.411632 
L 348.765405 99.883576 
L 349.090385 98.553036 
L 349.415364 98.952188 
L 349.740344 98.819144 
L 350.065324 96.956368 
L 350.390303 100.149704 
L 350.715283 99.218296 
L 351.040262 100.149704 
L 351.365242 97.621648 
L 351.690221 100.149704 
L 352.015201 99.617468 
L 352.34018 99.484424 
L 352.990139 101.214136 
L 353.315119 98.286928 
L 353.965078 101.613308 
L 354.290057 98.553036 
L 354.615037 97.621648 
L 354.940016 99.484424 
L 355.264996 98.153864 
L 355.589975 97.887756 
L 355.914955 97.089412 
L 356.239934 102.943868 
L 356.564914 96.557196 
L 356.889894 100.282748 
L 357.539853 98.153864 
L 357.864832 97.621648 
L 358.189812 100.415812 
L 358.514791 96.823304 
L 358.839771 99.35136 
L 359.16475 98.553036 
L 359.48973 96.557196 
L 359.814709 97.754692 
L 360.139689 97.754692 
L 360.464668 101.3472 
L 360.789648 97.488584 
L 361.114627 98.419972 
L 361.439607 97.089412 
L 361.764586 97.488584 
L 362.089566 98.153864 
L 362.414545 96.956368 
L 362.739525 101.480244 
L 363.064505 97.754692 
L 363.389484 99.617468 
L 363.714464 98.0208 
L 364.039443 98.68608 
L 364.364423 98.0208 
L 364.689402 99.484424 
L 365.014382 102.544696 
L 365.339361 96.69024 
L 365.98932 96.956368 
L 366.3143 98.153864 
L 366.639279 98.419972 
L 366.964259 98.419972 
L 367.289238 98.553036 
L 367.614218 98.0208 
L 367.939197 98.68608 
L 368.264177 95.625788 
L 368.589156 95.226636 
L 368.914136 95.35968 
L 369.239115 99.35136 
L 369.564095 94.428292 
L 369.889075 98.952188 
L 370.214054 96.02496 
L 370.539034 98.153864 
L 370.864013 97.488584 
L 371.188993 96.158024 
L 371.513972 96.424132 
L 371.838952 98.0208 
L 372.163931 97.35552 
L 372.488911 95.758852 
L 372.81389 99.085252 
L 373.13887 100.149704 
L 373.463849 98.0208 
L 373.788829 93.629948 
L 374.113808 98.419972 
L 374.438788 97.089412 
L 374.763767 93.496904 
L 375.413726 98.819144 
L 375.738706 97.35552 
L 376.063686 98.553036 
L 376.388665 98.419972 
L 376.713645 95.226636 
L 377.038624 96.69024 
L 377.363604 95.891916 
L 377.688583 98.68608 
L 378.013563 100.415812 
L 378.338542 97.754692 
L 378.663522 97.621648 
L 378.988501 94.960508 
L 379.313481 96.02496 
L 379.63846 95.891916 
L 379.96344 94.561356 
L 380.288419 96.69024 
L 380.613399 96.956368 
L 380.938378 94.960508 
L 381.263358 95.758852 
L 381.588337 98.0208 
L 381.913317 97.222476 
L 382.238296 98.419972 
L 382.563276 99.085252 
L 382.888256 97.222476 
L 383.213235 98.68608 
L 383.538215 97.621648 
L 383.863194 94.162184 
L 384.513153 96.69024 
L 384.838133 94.827464 
L 385.163112 100.149704 
L 385.488092 97.754692 
L 385.813071 98.419972 
L 386.138051 96.02496 
L 386.46303 98.0208 
L 386.78801 93.496904 
L 387.437969 96.424132 
L 387.762948 96.956368 
L 388.087928 98.68608 
L 388.412907 93.629948 
L 388.737887 95.35968 
L 389.387846 95.35968 
L 389.712826 99.218296 
L 390.037805 97.887756 
L 390.362785 97.887756 
L 390.687764 94.827464 
L 391.012744 95.758852 
L 391.337723 98.952188 
L 391.662703 96.158024 
L 391.987682 96.557196 
L 392.312662 97.222476 
L 392.637641 95.093572 
L 392.962621 96.69024 
L 393.2876 100.01664 
L 393.61258 95.492744 
L 393.937559 98.153864 
L 394.262539 97.35552 
L 394.587518 95.093572 
L 394.912498 97.887756 
L 395.237477 95.492744 
L 395.562457 96.291068 
L 395.887437 96.424132 
L 396.212416 98.553036 
L 396.537396 96.823304 
L 396.862375 97.887756 
L 397.187355 97.887756 
L 397.837314 95.35968 
L 398.162293 96.557196 
L 398.487273 94.561356 
L 398.487273 94.561356 
" style="fill:none;stroke:#ff7f0e;stroke-linecap:square;stroke-width:1.5;"/>
   </g>
   <g id="patch_3">
    <path d="M 57.6 307.584 
L 57.6 41.472 
" style="fill:none;stroke:#000000;stroke-linecap:square;stroke-linejoin:miter;stroke-width:0.8;"/>
   </g>
   <g id="patch_4">
    <path d="M 414.72 307.584 
L 414.72 41.472 
" style="fill:none;stroke:#000000;stroke-linecap:square;stroke-linejoin:miter;stroke-width:0.8;"/>
   </g>
   <g id="patch_5">
    <path d="M 57.6 307.584 
L 414.72 307.584 
" style="fill:none;stroke:#000000;stroke-linecap:square;stroke-linejoin:miter;stroke-width:0.8;"/>
   </g>
   <g id="patch_6">
    <path d="M 57.6 41.472 
L 414.72 41.472 
" style="fill:none;stroke:#000000;stroke-linecap:square;stroke-linejoin:miter;stroke-width:0.8;"/>
   </g>
   <g id="text_14">
    <!-- Optimistic Initialization -->
    <defs>
     <path d="M 9.8125 72.90625 
L 19.671875 72.90625 
L 19.671875 0 
L 9.8125 0 
z
" id="DejaVuSans-49"/>
     <path d="M 5.515625 54.6875 
L 48.1875 54.6875 
L 48.1875 46.484375 
L 14.40625 7.171875 
L 48.1875 7.171875 
L 48.1875 0 
L 4.296875 0 
L 4.296875 8.203125 
L 38.09375 47.515625 
L 5.515625 47.515625 
z
" id="DejaVuSans-7a"/>
    </defs>
    <g transform="translate(167.159063 35.472)scale(0.12 -0.12)">
     <use xlink:href="#DejaVuSans-4f"/>
     <use x="78.710938" xlink:href="#DejaVuSans-70"/>
     <use x="142.1875" xlink:href="#DejaVuSans-74"/>
     <use x="181.396484" xlink:href="#DejaVuSans-69"/>
     <use x="209.179688" xlink:href="#DejaVuSans-6d"/>
     <use x="306.591797" xlink:href="#DejaVuSans-69"/>
     <use x="334.375" xlink:href="#DejaVuSans-73"/>
     <use x="386.474609" xlink:href="#DejaVuSans-74"/>
     <use x="425.683594" xlink:href="#DejaVuSans-69"/>
     <use x="453.466797" xlink:href="#DejaVuSans-63"/>
     <use x="508.447266" xlink:href="#DejaVuSans-20"/>
     <use x="540.234375" xlink:href="#DejaVuSans-49"/>
     <use x="569.726562" xlink:href="#DejaVuSans-6e"/>
     <use x="633.105469" xlink:href="#DejaVuSans-69"/>
     <use x="660.888672" xlink:href="#DejaVuSans-74"/>
     <use x="700.097656" xlink:href="#DejaVuSans-69"/>
     <use x="727.880859" xlink:href="#DejaVuSans-61"/>
     <use x="789.160156" xlink:href="#DejaVuSans-6c"/>
     <use x="816.943359" xlink:href="#DejaVuSans-69"/>
     <use x="844.726562" xlink:href="#DejaVuSans-7a"/>
     <use x="897.216797" xlink:href="#DejaVuSans-61"/>
     <use x="958.496094" xlink:href="#DejaVuSans-74"/>
     <use x="997.705078" xlink:href="#DejaVuSans-69"/>
     <use x="1025.488281" xlink:href="#DejaVuSans-6f"/>
     <use x="1086.669922" xlink:href="#DejaVuSans-6e"/>
    </g>
   </g>
   <g id="legend_1">
    <g id="patch_7">
     <path d="M 309.12 78.82825 
L 407.72 78.82825 
Q 409.72 78.82825 409.72 76.82825 
L 409.72 48.472 
Q 409.72 46.472 407.72 46.472 
L 309.12 46.472 
Q 307.12 46.472 307.12 48.472 
L 307.12 76.82825 
Q 307.12 78.82825 309.12 78.82825 
z
" style="fill:#ffffff;opacity:0.8;stroke:#cccccc;stroke-linejoin:miter;"/>
    </g>
    <g id="line2d_14">
     <path d="M 311.12 54.570437 
L 331.12 54.570437 
" style="fill:none;stroke:#1f77b4;stroke-linecap:square;stroke-width:1.5;"/>
    </g>
    <g id="line2d_15"/>
    <g id="text_15">
     <!-- =0, init=5 -->
     <defs>
      <path d="M 19.28125 29.5 
Q 13.8125 30.671875 10.890625 33.84375 
Q 7.953125 36.96875 7.953125 41.5 
Q 7.953125 48.390625 13.53125 52.25 
Q 19.046875 56.0625 28.609375 56.0625 
Q 32.328125 56.0625 36.46875 55.46875 
Q 40.625 54.890625 45.40625 53.71875 
L 45.40625 45.5625 
Q 40.671875 46.96875 36.765625 47.609375 
Q 32.8125 48.25 29.34375 48.25 
Q 23.53125 48.25 20.171875 46 
Q 16.75 43.75 16.75 40.625 
Q 16.75 37.203125 20.0625 35.015625 
Q 23.34375 32.859375 29 32.859375 
L 36.578125 32.859375 
L 36.578125 25.4375 
L 29.34375 25.4375 
Q 22.65625 25.4375 19.140625 22.953125 
Q 15.328125 20.21875 15.328125 15.921875 
Q 15.328125 11.53125 19.4375 8.796875 
Q 23.578125 6.0625 30.953125 6.0625 
Q 35.5 6.0625 39.65625 6.9375 
Q 43.796875 7.859375 47.265625 9.671875 
L 47.265625 1.3125 
Q 42.875 -0.046875 38.765625 -0.734375 
Q 34.625 -1.421875 30.71875 -1.421875 
Q 19.09375 -1.421875 12.796875 3.03125 
Q 6.5 7.46875 6.5 15.921875 
Q 6.5 21.1875 9.859375 24.75 
Q 13.234375 28.328125 19.28125 29.5 
z
" id="DejaVuSans-3b5"/>
      <path d="M 10.59375 45.40625 
L 73.1875 45.40625 
L 73.1875 37.203125 
L 10.59375 37.203125 
z
M 10.59375 25.484375 
L 73.1875 25.484375 
L 73.1875 17.1875 
L 10.59375 17.1875 
z
" id="DejaVuSans-3d"/>
      <path d="M 11.71875 12.40625 
L 22.015625 12.40625 
L 22.015625 4 
L 14.015625 -11.625 
L 7.71875 -11.625 
L 11.71875 4 
z
" id="DejaVuSans-2c"/>
     </defs>
     <g transform="translate(339.12 58.070437)scale(0.1 -0.1)">
      <use xlink:href="#DejaVuSans-3b5"/>
      <use x="54.052734" xlink:href="#DejaVuSans-3d"/>
      <use x="137.841797" xlink:href="#DejaVuSans-30"/>
      <use x="201.464844" xlink:href="#DejaVuSans-2c"/>
      <use x="233.251953" xlink:href="#DejaVuSans-20"/>
      <use x="265.039062" xlink:href="#DejaVuSans-69"/>
      <use x="292.822266" xlink:href="#DejaVuSans-6e"/>
      <use x="356.201172" xlink:href="#DejaVuSans-69"/>
      <use x="383.984375" xlink:href="#DejaVuSans-74"/>
      <use x="423.193359" xlink:href="#DejaVuSans-3d"/>
      <use x="506.982422" xlink:href="#DejaVuSans-35"/>
     </g>
    </g>
    <g id="line2d_16">
     <path d="M 311.12 69.248562 
L 331.12 69.248562 
" style="fill:none;stroke:#ff7f0e;stroke-linecap:square;stroke-width:1.5;"/>
    </g>
    <g id="line2d_17"/>
    <g id="text_16">
     <!-- =0.1, init=0 -->
     <defs>
      <path d="M 10.6875 12.40625 
L 21 12.40625 
L 21 0 
L 10.6875 0 
z
" id="DejaVuSans-2e"/>
     </defs>
     <g transform="translate(339.12 72.748562)scale(0.1 -0.1)">
      <use xlink:href="#DejaVuSans-3b5"/>
      <use x="54.052734" xlink:href="#DejaVuSans-3d"/>
      <use x="137.841797" xlink:href="#DejaVuSans-30"/>
      <use x="201.464844" xlink:href="#DejaVuSans-2e"/>
      <use x="233.251953" xlink:href="#DejaVuSans-31"/>
      <use x="296.875" xlink:href="#DejaVuSans-2c"/>
      <use x="328.662109" xlink:href="#DejaVuSans-20"/>
      <use x="360.449219" xlink:href="#DejaVuSans-69"/>
      <use x="388.232422" xlink:href="#DejaVuSans-6e"/>
      <use x="451.611328" xlink:href="#DejaVuSans-69"/>
      <use x="479.394531" xlink:href="#DejaVuSans-74"/>
      <use x="518.603516" xlink:href="#DejaVuSans-3d"/>
      <use x="602.392578" xlink:href="#DejaVuSans-30"/>
     </g>
    </g>
   </g>
  </g>
 </g>
 <defs>
  <clipPath id="pecb6aaf360">
   <rect height="266.112" width="357.12" x="57.6" y="41.472"/>
  </clipPath>
 </defs>
</svg>
