<?xml version="1.0" encoding="utf-8" standalone="no"?>
<!DOCTYPE svg PUBLIC "-//W3C//DTD SVG 1.1//EN"
  "http://www.w3.org/Graphics/SVG/1.1/DTD/svg11.dtd">
<!-- Created with matplotlib (http://matplotlib.org/) -->
<svg height="345.6pt" version="1.1" viewBox="0 0 460.8 345.6" width="460.8pt" xmlns="http://www.w3.org/2000/svg" xmlns:xlink="http://www.w3.org/1999/xlink">
 <defs>
  <style type="text/css">
*{stroke-linecap:butt;stroke-linejoin:round;}
  </style>
 </defs>
 <g id="figure_1">
  <g id="patch_1">
   <path d="M 0 345.6 
L 460.8 345.6 
L 460.8 0 
L 0 0 
z
" style="fill:#ffffff;"/>
  </g>
  <g id="axes_1">
   <g id="patch_2">
    <path d="M 57.6 307.584 
L 414.72 307.584 
L 414.72 41.472 
L 57.6 41.472 
z
" style="fill:#ffffff;"/>
   </g>
   <g id="matplotlib.axis_1">
    <g id="xtick_1">
     <g id="line2d_1">
      <defs>
       <path d="M 0 0 
L 0 3.5 
" id="mce63d28ac5" style="stroke:#000000;stroke-width:0.8;"/>
      </defs>
      <g>
       <use style="stroke:#000000;stroke-width:0.8;" x="73.832727" xlink:href="#mce63d28ac5" y="307.584"/>
      </g>
     </g>
     <g id="text_1">
      <!-- 0 -->
      <defs>
       <path d="M 31.78125 66.40625 
Q 24.171875 66.40625 20.328125 58.90625 
Q 16.5 51.421875 16.5 36.375 
Q 16.5 21.390625 20.328125 13.890625 
Q 24.171875 6.390625 31.78125 6.390625 
Q 39.453125 6.390625 43.28125 13.890625 
Q 47.125 21.390625 47.125 36.375 
Q 47.125 51.421875 43.28125 58.90625 
Q 39.453125 66.40625 31.78125 66.40625 
z
M 31.78125 74.21875 
Q 44.046875 74.21875 50.515625 64.515625 
Q 56.984375 54.828125 56.984375 36.375 
Q 56.984375 17.96875 50.515625 8.265625 
Q 44.046875 -1.421875 31.78125 -1.421875 
Q 19.53125 -1.421875 13.0625 8.265625 
Q 6.59375 17.96875 6.59375 36.375 
Q 6.59375 54.828125 13.0625 64.515625 
Q 19.53125 74.21875 31.78125 74.21875 
z
" id="DejaVuSans-30"/>
      </defs>
      <g transform="translate(70.651477 322.182437)scale(0.1 -0.1)">
       <use xlink:href="#DejaVuSans-30"/>
      </g>
     </g>
    </g>
    <g id="xtick_2">
     <g id="line2d_2">
      <g>
       <use style="stroke:#000000;stroke-width:0.8;" x="155.077609" xlink:href="#mce63d28ac5" y="307.584"/>
      </g>
     </g>
     <g id="text_2">
      <!-- 250 -->
      <defs>
       <path d="M 19.1875 8.296875 
L 53.609375 8.296875 
L 53.609375 0 
L 7.328125 0 
L 7.328125 8.296875 
Q 12.9375 14.109375 22.625 23.890625 
Q 32.328125 33.6875 34.8125 36.53125 
Q 39.546875 41.84375 41.421875 45.53125 
Q 43.3125 49.21875 43.3125 52.78125 
Q 43.3125 58.59375 39.234375 62.25 
Q 35.15625 65.921875 28.609375 65.921875 
Q 23.96875 65.921875 18.8125 64.3125 
Q 13.671875 62.703125 7.8125 59.421875 
L 7.8125 69.390625 
Q 13.765625 71.78125 18.9375 73 
Q 24.125 74.21875 28.421875 74.21875 
Q 39.75 74.21875 46.484375 68.546875 
Q 53.21875 62.890625 53.21875 53.421875 
Q 53.21875 48.921875 51.53125 44.890625 
Q 49.859375 40.875 45.40625 35.40625 
Q 44.1875 33.984375 37.640625 27.21875 
Q 31.109375 20.453125 19.1875 8.296875 
z
" id="DejaVuSans-32"/>
       <path d="M 10.796875 72.90625 
L 49.515625 72.90625 
L 49.515625 64.59375 
L 19.828125 64.59375 
L 19.828125 46.734375 
Q 21.96875 47.46875 24.109375 47.828125 
Q 26.265625 48.1875 28.421875 48.1875 
Q 40.625 48.1875 47.75 41.5 
Q 54.890625 34.8125 54.890625 23.390625 
Q 54.890625 11.625 47.5625 5.09375 
Q 40.234375 -1.421875 26.90625 -1.421875 
Q 22.3125 -1.421875 17.546875 -0.640625 
Q 12.796875 0.140625 7.71875 1.703125 
L 7.71875 11.625 
Q 12.109375 9.234375 16.796875 8.0625 
Q 21.484375 6.890625 26.703125 6.890625 
Q 35.15625 6.890625 40.078125 11.328125 
Q 45.015625 15.765625 45.015625 23.390625 
Q 45.015625 31 40.078125 35.4375 
Q 35.15625 39.890625 26.703125 39.890625 
Q 22.75 39.890625 18.8125 39.015625 
Q 14.890625 38.140625 10.796875 36.28125 
z
" id="DejaVuSans-35"/>
      </defs>
      <g transform="translate(145.533859 322.182437)scale(0.1 -0.1)">
       <use xlink:href="#DejaVuSans-32"/>
       <use x="63.623047" xlink:href="#DejaVuSans-35"/>
       <use x="127.246094" xlink:href="#DejaVuSans-30"/>
      </g>
     </g>
    </g>
    <g id="xtick_3">
     <g id="line2d_3">
      <g>
       <use style="stroke:#000000;stroke-width:0.8;" x="236.32249" xlink:href="#mce63d28ac5" y="307.584"/>
      </g>
     </g>
     <g id="text_3">
      <!-- 500 -->
      <g transform="translate(226.77874 322.182437)scale(0.1 -0.1)">
       <use xlink:href="#DejaVuSans-35"/>
       <use x="63.623047" xlink:href="#DejaVuSans-30"/>
       <use x="127.246094" xlink:href="#DejaVuSans-30"/>
      </g>
     </g>
    </g>
    <g id="xtick_4">
     <g id="line2d_4">
      <g>
       <use style="stroke:#000000;stroke-width:0.8;" x="317.567371" xlink:href="#mce63d28ac5" y="307.584"/>
      </g>
     </g>
     <g id="text_4">
      <!-- 750 -->
      <defs>
       <path d="M 8.203125 72.90625 
L 55.078125 72.90625 
L 55.078125 68.703125 
L 28.609375 0 
L 18.3125 0 
L 43.21875 64.59375 
L 8.203125 64.59375 
z
" id="DejaVuSans-37"/>
      </defs>
      <g transform="translate(308.023621 322.182437)scale(0.1 -0.1)">
       <use xlink:href="#DejaVuSans-37"/>
       <use x="63.623047" xlink:href="#DejaVuSans-35"/>
       <use x="127.246094" xlink:href="#DejaVuSans-30"/>
      </g>
     </g>
    </g>
    <g id="xtick_5">
     <g id="line2d_5">
      <g>
       <use style="stroke:#000000;stroke-width:0.8;" x="398.812252" xlink:href="#mce63d28ac5" y="307.584"/>
      </g>
     </g>
     <g id="text_5">
      <!-- 1000 -->
      <defs>
       <path d="M 12.40625 8.296875 
L 28.515625 8.296875 
L 28.515625 63.921875 
L 10.984375 60.40625 
L 10.984375 69.390625 
L 28.421875 72.90625 
L 38.28125 72.90625 
L 38.28125 8.296875 
L 54.390625 8.296875 
L 54.390625 0 
L 12.40625 0 
z
" id="DejaVuSans-31"/>
      </defs>
      <g transform="translate(386.087252 322.182437)scale(0.1 -0.1)">
       <use xlink:href="#DejaVuSans-31"/>
       <use x="63.623047" xlink:href="#DejaVuSans-30"/>
       <use x="127.246094" xlink:href="#DejaVuSans-30"/>
       <use x="190.869141" xlink:href="#DejaVuSans-30"/>
      </g>
     </g>
    </g>
    <g id="text_6">
     <!-- Steps -->
     <defs>
      <path d="M 53.515625 70.515625 
L 53.515625 60.890625 
Q 47.90625 63.578125 42.921875 64.890625 
Q 37.9375 66.21875 33.296875 66.21875 
Q 25.25 66.21875 20.875 63.09375 
Q 16.5 59.96875 16.5 54.203125 
Q 16.5 49.359375 19.40625 46.890625 
Q 22.3125 44.4375 30.421875 42.921875 
L 36.375 41.703125 
Q 47.40625 39.59375 52.65625 34.296875 
Q 57.90625 29 57.90625 20.125 
Q 57.90625 9.515625 50.796875 4.046875 
Q 43.703125 -1.421875 29.984375 -1.421875 
Q 24.8125 -1.421875 18.96875 -0.25 
Q 13.140625 0.921875 6.890625 3.21875 
L 6.890625 13.375 
Q 12.890625 10.015625 18.65625 8.296875 
Q 24.421875 6.59375 29.984375 6.59375 
Q 38.421875 6.59375 43.015625 9.90625 
Q 47.609375 13.234375 47.609375 19.390625 
Q 47.609375 24.75 44.3125 27.78125 
Q 41.015625 30.8125 33.5 32.328125 
L 27.484375 33.5 
Q 16.453125 35.6875 11.515625 40.375 
Q 6.59375 45.0625 6.59375 53.421875 
Q 6.59375 63.09375 13.40625 68.65625 
Q 20.21875 74.21875 32.171875 74.21875 
Q 37.3125 74.21875 42.625 73.28125 
Q 47.953125 72.359375 53.515625 70.515625 
z
" id="DejaVuSans-53"/>
      <path d="M 18.3125 70.21875 
L 18.3125 54.6875 
L 36.8125 54.6875 
L 36.8125 47.703125 
L 18.3125 47.703125 
L 18.3125 18.015625 
Q 18.3125 11.328125 20.140625 9.421875 
Q 21.96875 7.515625 27.59375 7.515625 
L 36.8125 7.515625 
L 36.8125 0 
L 27.59375 0 
Q 17.1875 0 13.234375 3.875 
Q 9.28125 7.765625 9.28125 18.015625 
L 9.28125 47.703125 
L 2.6875 47.703125 
L 2.6875 54.6875 
L 9.28125 54.6875 
L 9.28125 70.21875 
z
" id="DejaVuSans-74"/>
      <path d="M 56.203125 29.59375 
L 56.203125 25.203125 
L 14.890625 25.203125 
Q 15.484375 15.921875 20.484375 11.0625 
Q 25.484375 6.203125 34.421875 6.203125 
Q 39.59375 6.203125 44.453125 7.46875 
Q 49.3125 8.734375 54.109375 11.28125 
L 54.109375 2.78125 
Q 49.265625 0.734375 44.1875 -0.34375 
Q 39.109375 -1.421875 33.890625 -1.421875 
Q 20.796875 -1.421875 13.15625 6.1875 
Q 5.515625 13.8125 5.515625 26.8125 
Q 5.515625 40.234375 12.765625 48.109375 
Q 20.015625 56 32.328125 56 
Q 43.359375 56 49.78125 48.890625 
Q 56.203125 41.796875 56.203125 29.59375 
z
M 47.21875 32.234375 
Q 47.125 39.59375 43.09375 43.984375 
Q 39.0625 48.390625 32.421875 48.390625 
Q 24.90625 48.390625 20.390625 44.140625 
Q 15.875 39.890625 15.1875 32.171875 
z
" id="DejaVuSans-65"/>
      <path d="M 18.109375 8.203125 
L 18.109375 -20.796875 
L 9.078125 -20.796875 
L 9.078125 54.6875 
L 18.109375 54.6875 
L 18.109375 46.390625 
Q 20.953125 51.265625 25.265625 53.625 
Q 29.59375 56 35.59375 56 
Q 45.5625 56 51.78125 48.09375 
Q 58.015625 40.1875 58.015625 27.296875 
Q 58.015625 14.40625 51.78125 6.484375 
Q 45.5625 -1.421875 35.59375 -1.421875 
Q 29.59375 -1.421875 25.265625 0.953125 
Q 20.953125 3.328125 18.109375 8.203125 
z
M 48.6875 27.296875 
Q 48.6875 37.203125 44.609375 42.84375 
Q 40.53125 48.484375 33.40625 48.484375 
Q 26.265625 48.484375 22.1875 42.84375 
Q 18.109375 37.203125 18.109375 27.296875 
Q 18.109375 17.390625 22.1875 11.75 
Q 26.265625 6.109375 33.40625 6.109375 
Q 40.53125 6.109375 44.609375 11.75 
Q 48.6875 17.390625 48.6875 27.296875 
z
" id="DejaVuSans-70"/>
      <path d="M 44.28125 53.078125 
L 44.28125 44.578125 
Q 40.484375 46.53125 36.375 47.5 
Q 32.28125 48.484375 27.875 48.484375 
Q 21.1875 48.484375 17.84375 46.4375 
Q 14.5 44.390625 14.5 40.28125 
Q 14.5 37.15625 16.890625 35.375 
Q 19.28125 33.59375 26.515625 31.984375 
L 29.59375 31.296875 
Q 39.15625 29.25 43.1875 25.515625 
Q 47.21875 21.78125 47.21875 15.09375 
Q 47.21875 7.46875 41.1875 3.015625 
Q 35.15625 -1.421875 24.609375 -1.421875 
Q 20.21875 -1.421875 15.453125 -0.5625 
Q 10.6875 0.296875 5.421875 2 
L 5.421875 11.28125 
Q 10.40625 8.6875 15.234375 7.390625 
Q 20.0625 6.109375 24.8125 6.109375 
Q 31.15625 6.109375 34.5625 8.28125 
Q 37.984375 10.453125 37.984375 14.40625 
Q 37.984375 18.0625 35.515625 20.015625 
Q 33.0625 21.96875 24.703125 23.78125 
L 21.578125 24.515625 
Q 13.234375 26.265625 9.515625 29.90625 
Q 5.8125 33.546875 5.8125 39.890625 
Q 5.8125 47.609375 11.28125 51.796875 
Q 16.75 56 26.8125 56 
Q 31.78125 56 36.171875 55.265625 
Q 40.578125 54.546875 44.28125 53.078125 
z
" id="DejaVuSans-73"/>
     </defs>
     <g transform="translate(222.170156 335.860562)scale(0.1 -0.1)">
      <use xlink:href="#DejaVuSans-53"/>
      <use x="63.476562" xlink:href="#DejaVuSans-74"/>
      <use x="102.685547" xlink:href="#DejaVuSans-65"/>
      <use x="164.208984" xlink:href="#DejaVuSans-70"/>
      <use x="227.685547" xlink:href="#DejaVuSans-73"/>
     </g>
    </g>
   </g>
   <g id="matplotlib.axis_2">
    <g id="ytick_1">
     <g id="line2d_6">
      <defs>
       <path d="M 0 0 
L -3.5 0 
" id="mb731f109e8" style="stroke:#000000;stroke-width:0.8;"/>
      </defs>
      <g>
       <use style="stroke:#000000;stroke-width:0.8;" x="57.6" xlink:href="#mb731f109e8" y="289.937675"/>
      </g>
     </g>
     <g id="text_7">
      <!-- 0.0 -->
      <defs>
       <path d="M 10.6875 12.40625 
L 21 12.40625 
L 21 0 
L 10.6875 0 
z
" id="DejaVuSans-2e"/>
      </defs>
      <g transform="translate(34.696875 293.736893)scale(0.1 -0.1)">
       <use xlink:href="#DejaVuSans-30"/>
       <use x="63.623047" xlink:href="#DejaVuSans-2e"/>
       <use x="95.410156" xlink:href="#DejaVuSans-30"/>
      </g>
     </g>
    </g>
    <g id="ytick_2">
     <g id="line2d_7">
      <g>
       <use style="stroke:#000000;stroke-width:0.8;" x="57.6" xlink:href="#mb731f109e8" y="216.049598"/>
      </g>
     </g>
     <g id="text_8">
      <!-- 0.5 -->
      <g transform="translate(34.696875 219.848817)scale(0.1 -0.1)">
       <use xlink:href="#DejaVuSans-30"/>
       <use x="63.623047" xlink:href="#DejaVuSans-2e"/>
       <use x="95.410156" xlink:href="#DejaVuSans-35"/>
      </g>
     </g>
    </g>
    <g id="ytick_3">
     <g id="line2d_8">
      <g>
       <use style="stroke:#000000;stroke-width:0.8;" x="57.6" xlink:href="#mb731f109e8" y="142.161521"/>
      </g>
     </g>
     <g id="text_9">
      <!-- 1.0 -->
      <g transform="translate(34.696875 145.96074)scale(0.1 -0.1)">
       <use xlink:href="#DejaVuSans-31"/>
       <use x="63.623047" xlink:href="#DejaVuSans-2e"/>
       <use x="95.410156" xlink:href="#DejaVuSans-30"/>
      </g>
     </g>
    </g>
    <g id="ytick_4">
     <g id="line2d_9">
      <g>
       <use style="stroke:#000000;stroke-width:0.8;" x="57.6" xlink:href="#mb731f109e8" y="68.273445"/>
      </g>
     </g>
     <g id="text_10">
      <!-- 1.5 -->
      <g transform="translate(34.696875 72.072664)scale(0.1 -0.1)">
       <use xlink:href="#DejaVuSans-31"/>
       <use x="63.623047" xlink:href="#DejaVuSans-2e"/>
       <use x="95.410156" xlink:href="#DejaVuSans-35"/>
      </g>
     </g>
    </g>
    <g id="text_11">
     <!-- Average reward -->
     <defs>
      <path d="M 34.1875 63.1875 
L 20.796875 26.90625 
L 47.609375 26.90625 
z
M 28.609375 72.90625 
L 39.796875 72.90625 
L 67.578125 0 
L 57.328125 0 
L 50.6875 18.703125 
L 17.828125 18.703125 
L 11.1875 0 
L 0.78125 0 
z
" id="DejaVuSans-41"/>
      <path d="M 2.984375 54.6875 
L 12.5 54.6875 
L 29.59375 8.796875 
L 46.6875 54.6875 
L 56.203125 54.6875 
L 35.6875 0 
L 23.484375 0 
z
" id="DejaVuSans-76"/>
      <path d="M 41.109375 46.296875 
Q 39.59375 47.171875 37.8125 47.578125 
Q 36.03125 48 33.890625 48 
Q 26.265625 48 22.1875 43.046875 
Q 18.109375 38.09375 18.109375 28.8125 
L 18.109375 0 
L 9.078125 0 
L 9.078125 54.6875 
L 18.109375 54.6875 
L 18.109375 46.1875 
Q 20.953125 51.171875 25.484375 53.578125 
Q 30.03125 56 36.53125 56 
Q 37.453125 56 38.578125 55.875 
Q 39.703125 55.765625 41.0625 55.515625 
z
" id="DejaVuSans-72"/>
      <path d="M 34.28125 27.484375 
Q 23.390625 27.484375 19.1875 25 
Q 14.984375 22.515625 14.984375 16.5 
Q 14.984375 11.71875 18.140625 8.90625 
Q 21.296875 6.109375 26.703125 6.109375 
Q 34.1875 6.109375 38.703125 11.40625 
Q 43.21875 16.703125 43.21875 25.484375 
L 43.21875 27.484375 
z
M 52.203125 31.203125 
L 52.203125 0 
L 43.21875 0 
L 43.21875 8.296875 
Q 40.140625 3.328125 35.546875 0.953125 
Q 30.953125 -1.421875 24.3125 -1.421875 
Q 15.921875 -1.421875 10.953125 3.296875 
Q 6 8.015625 6 15.921875 
Q 6 25.140625 12.171875 29.828125 
Q 18.359375 34.515625 30.609375 34.515625 
L 43.21875 34.515625 
L 43.21875 35.40625 
Q 43.21875 41.609375 39.140625 45 
Q 35.0625 48.390625 27.6875 48.390625 
Q 23 48.390625 18.546875 47.265625 
Q 14.109375 46.140625 10.015625 43.890625 
L 10.015625 52.203125 
Q 14.9375 54.109375 19.578125 55.046875 
Q 24.21875 56 28.609375 56 
Q 40.484375 56 46.34375 49.84375 
Q 52.203125 43.703125 52.203125 31.203125 
z
" id="DejaVuSans-61"/>
      <path d="M 45.40625 27.984375 
Q 45.40625 37.75 41.375 43.109375 
Q 37.359375 48.484375 30.078125 48.484375 
Q 22.859375 48.484375 18.828125 43.109375 
Q 14.796875 37.75 14.796875 27.984375 
Q 14.796875 18.265625 18.828125 12.890625 
Q 22.859375 7.515625 30.078125 7.515625 
Q 37.359375 7.515625 41.375 12.890625 
Q 45.40625 18.265625 45.40625 27.984375 
z
M 54.390625 6.78125 
Q 54.390625 -7.171875 48.1875 -13.984375 
Q 42 -20.796875 29.203125 -20.796875 
Q 24.46875 -20.796875 20.265625 -20.09375 
Q 16.0625 -19.390625 12.109375 -17.921875 
L 12.109375 -9.1875 
Q 16.0625 -11.328125 19.921875 -12.34375 
Q 23.78125 -13.375 27.78125 -13.375 
Q 36.625 -13.375 41.015625 -8.765625 
Q 45.40625 -4.15625 45.40625 5.171875 
L 45.40625 9.625 
Q 42.625 4.78125 38.28125 2.390625 
Q 33.9375 0 27.875 0 
Q 17.828125 0 11.671875 7.65625 
Q 5.515625 15.328125 5.515625 27.984375 
Q 5.515625 40.671875 11.671875 48.328125 
Q 17.828125 56 27.875 56 
Q 33.9375 56 38.28125 53.609375 
Q 42.625 51.21875 45.40625 46.390625 
L 45.40625 54.6875 
L 54.390625 54.6875 
z
" id="DejaVuSans-67"/>
      <path id="DejaVuSans-20"/>
      <path d="M 4.203125 54.6875 
L 13.1875 54.6875 
L 24.421875 12.015625 
L 35.59375 54.6875 
L 46.1875 54.6875 
L 57.421875 12.015625 
L 68.609375 54.6875 
L 77.59375 54.6875 
L 63.28125 0 
L 52.6875 0 
L 40.921875 44.828125 
L 29.109375 0 
L 18.5 0 
z
" id="DejaVuSans-77"/>
      <path d="M 45.40625 46.390625 
L 45.40625 75.984375 
L 54.390625 75.984375 
L 54.390625 0 
L 45.40625 0 
L 45.40625 8.203125 
Q 42.578125 3.328125 38.25 0.953125 
Q 33.9375 -1.421875 27.875 -1.421875 
Q 17.96875 -1.421875 11.734375 6.484375 
Q 5.515625 14.40625 5.515625 27.296875 
Q 5.515625 40.1875 11.734375 48.09375 
Q 17.96875 56 27.875 56 
Q 33.9375 56 38.25 53.625 
Q 42.578125 51.265625 45.40625 46.390625 
z
M 14.796875 27.296875 
Q 14.796875 17.390625 18.875 11.75 
Q 22.953125 6.109375 30.078125 6.109375 
Q 37.203125 6.109375 41.296875 11.75 
Q 45.40625 17.390625 45.40625 27.296875 
Q 45.40625 37.203125 41.296875 42.84375 
Q 37.203125 48.484375 30.078125 48.484375 
Q 22.953125 48.484375 18.875 42.84375 
Q 14.796875 37.203125 14.796875 27.296875 
z
" id="DejaVuSans-64"/>
     </defs>
     <g transform="translate(28.617187 214.452219)rotate(-90)scale(0.1 -0.1)">
      <use xlink:href="#DejaVuSans-41"/>
      <use x="68.330078" xlink:href="#DejaVuSans-76"/>
      <use x="127.509766" xlink:href="#DejaVuSans-65"/>
      <use x="189.033203" xlink:href="#DejaVuSans-72"/>
      <use x="230.146484" xlink:href="#DejaVuSans-61"/>
      <use x="291.425781" xlink:href="#DejaVuSans-67"/>
      <use x="354.902344" xlink:href="#DejaVuSans-65"/>
      <use x="416.425781" xlink:href="#DejaVuSans-20"/>
      <use x="448.212891" xlink:href="#DejaVuSans-72"/>
      <use x="489.294922" xlink:href="#DejaVuSans-65"/>
      <use x="550.818359" xlink:href="#DejaVuSans-77"/>
      <use x="632.605469" xlink:href="#DejaVuSans-61"/>
      <use x="693.884766" xlink:href="#DejaVuSans-72"/>
      <use x="734.982422" xlink:href="#DejaVuSans-64"/>
     </g>
    </g>
   </g>
   <g id="line2d_10">
    <path clip-path="url(#p5e8822e399)" d="M 73.832727 282.606092 
L 74.157707 284.269155 
L 74.482686 292.233391 
L 74.807666 290.477692 
L 75.132645 286.533056 
L 75.457625 295.488 
L 75.782604 278.438781 
L 76.107584 290.63264 
L 76.432563 289.013595 
L 76.757543 285.929063 
L 77.082523 122.928919 
L 77.407502 140.661776 
L 77.732482 140.613138 
L 78.057461 144.576521 
L 78.382441 143.890402 
L 78.70742 139.062376 
L 79.0324 138.505666 
L 79.357379 139.451977 
L 79.682359 133.510743 
L 80.007338 138.351911 
L 80.332318 132.249769 
L 80.657297 130.388502 
L 80.982277 123.174173 
L 81.307256 123.751441 
L 81.632236 118.486513 
L 81.957215 126.126751 
L 82.607174 116.76852 
L 82.932154 117.729682 
L 83.257133 122.608655 
L 83.582113 114.113269 
L 83.907093 119.403353 
L 84.232072 114.376492 
L 84.557052 115.997085 
L 84.882031 115.872045 
L 85.207011 109.594198 
L 85.53199 106.214636 
L 85.85697 114.999228 
L 86.181949 108.765492 
L 86.506929 109.2155 
L 86.831908 105.105232 
L 87.156888 96.87927 
L 87.481867 105.005383 
L 87.806847 109.431317 
L 88.131826 105.975354 
L 88.456806 100.97534 
L 88.781785 109.159445 
L 89.106765 105.25786 
L 89.431744 99.861726 
L 89.756724 101.573184 
L 90.081704 100.570024 
L 90.406683 96.131617 
L 91.056642 101.35712 
L 91.381622 98.514485 
L 91.706601 94.44972 
L 92.35656 96.44517 
L 92.68154 94.666312 
L 93.006519 95.748604 
L 93.331499 95.6094 
L 93.656478 94.38586 
L 93.981458 95.966465 
L 94.306437 95.737999 
L 94.631417 92.212979 
L 95.281376 94.667915 
L 95.606355 91.224635 
L 95.931335 94.913715 
L 96.256314 90.376622 
L 96.581294 91.218751 
L 96.906274 90.14192 
L 97.231253 95.679196 
L 97.556233 88.175484 
L 97.881212 84.502452 
L 98.206192 93.578788 
L 98.856151 80.321472 
L 99.18113 88.25932 
L 99.50611 88.888979 
L 99.831089 92.663991 
L 100.481048 81.78713 
L 100.806028 87.156065 
L 101.131007 82.108046 
L 101.455987 82.189028 
L 101.780966 84.474125 
L 102.105946 83.05804 
L 102.430925 80.149167 
L 102.755905 83.51904 
L 103.080885 81.801945 
L 103.405864 82.87897 
L 103.730844 78.1602 
L 104.055823 80.581577 
L 104.380803 80.850578 
L 104.705782 92.501041 
L 105.030762 94.383253 
L 105.355741 87.162882 
L 106.0057 79.183953 
L 106.33068 81.259328 
L 106.655659 77.674572 
L 106.980639 77.823412 
L 107.305618 75.011324 
L 107.630598 82.800895 
L 107.955577 83.326107 
L 108.280557 83.335232 
L 108.605536 78.323468 
L 108.930516 87.455753 
L 109.255495 80.252575 
L 109.580475 81.417928 
L 109.905455 81.039583 
L 110.230434 74.283154 
L 110.555414 78.819314 
L 110.880393 78.328665 
L 111.205373 84.774043 
L 111.530352 75.028094 
L 111.855332 75.161044 
L 112.180311 75.589191 
L 112.505291 79.478973 
L 112.83027 76.372464 
L 113.15525 78.606932 
L 113.480229 73.995797 
L 113.805209 80.886638 
L 114.130188 80.012447 
L 114.455168 81.330463 
L 114.780147 78.563966 
L 115.105127 80.097886 
L 115.430106 77.798467 
L 115.755086 73.921879 
L 116.080066 79.987644 
L 116.405045 74.849765 
L 116.730025 80.880455 
L 117.055004 79.505926 
L 117.379984 76.173699 
L 117.704963 80.763976 
L 118.029943 77.365811 
L 118.354922 75.941481 
L 118.679902 69.222364 
L 119.004881 73.688798 
L 119.329861 72.624193 
L 119.65484 76.972457 
L 119.97982 74.721483 
L 120.304799 75.782847 
L 120.629779 79.021232 
L 120.954758 74.26959 
L 121.279738 79.010997 
L 121.604717 73.136668 
L 121.929697 78.174557 
L 122.254676 74.239607 
L 122.579656 68.389836 
L 122.904636 77.084796 
L 123.229615 68.457535 
L 123.554595 72.715956 
L 123.879574 72.987723 
L 124.204554 74.873229 
L 124.529533 71.701751 
L 124.854513 72.066232 
L 125.179492 77.922874 
L 125.504472 79.009605 
L 125.829451 67.762079 
L 126.154431 73.881098 
L 126.47941 76.739869 
L 126.80439 72.455957 
L 127.129369 70.019695 
L 127.454349 76.964953 
L 127.779328 68.576516 
L 128.104308 77.905152 
L 128.429287 71.086608 
L 128.754267 72.721012 
L 129.079247 77.472795 
L 129.404226 70.043882 
L 130.054185 75.382041 
L 130.379165 70.389531 
L 130.704144 69.526139 
L 131.354103 78.897424 
L 131.679083 70.915536 
L 132.004062 72.624633 
L 132.329042 73.515207 
L 132.654021 70.147554 
L 132.979001 70.541137 
L 133.30398 72.769474 
L 133.62896 78.240619 
L 133.953939 73.02248 
L 134.278919 72.017752 
L 134.603898 78.776577 
L 135.253857 67.347022 
L 135.578837 67.732836 
L 135.903817 73.33804 
L 136.228796 73.491038 
L 136.553776 73.996731 
L 136.878755 75.159477 
L 137.203735 73.682703 
L 137.528714 68.897097 
L 137.853694 69.05013 
L 138.178673 73.0108 
L 138.503653 71.21008 
L 138.828632 73.081054 
L 139.153612 69.215564 
L 139.478591 67.608694 
L 140.12855 74.847827 
L 140.45353 67.462197 
L 140.778509 69.25277 
L 141.103489 71.920493 
L 141.428468 69.958373 
L 141.753448 69.649031 
L 142.078428 68.596122 
L 142.403407 74.377349 
L 142.728387 71.104999 
L 143.053366 69.173338 
L 143.378346 76.837604 
L 143.703325 67.145298 
L 144.028305 68.558336 
L 144.353284 67.099601 
L 144.678264 75.167281 
L 145.003243 68.928665 
L 145.328223 68.695126 
L 145.653202 73.195595 
L 145.978182 71.385644 
L 146.303161 63.188679 
L 146.628141 75.216959 
L 146.95312 68.945101 
L 147.2781 67.488128 
L 147.603079 68.931977 
L 147.928059 75.00477 
L 148.253038 68.809949 
L 148.578018 68.816996 
L 148.902998 76.423164 
L 149.227977 75.47842 
L 149.552957 75.493164 
L 149.877936 71.676366 
L 150.202916 73.981229 
L 150.527895 66.779495 
L 150.852875 69.611015 
L 151.177854 70.959823 
L 151.827813 67.8481 
L 152.152793 69.346277 
L 152.477772 69.438234 
L 152.802752 73.285808 
L 153.127731 72.327552 
L 153.452711 72.065017 
L 153.77769 70.09282 
L 154.10267 65.612539 
L 154.752629 73.57653 
L 155.077609 66.403687 
L 155.727568 69.318285 
L 156.052547 68.609599 
L 156.377527 62.132142 
L 157.027486 74.400285 
L 157.352465 65.792314 
L 157.677445 72.230927 
L 158.002424 70.183614 
L 158.327404 66.489707 
L 158.652383 69.888101 
L 158.977363 70.689378 
L 159.302342 70.738228 
L 159.627322 72.791918 
L 159.952301 66.747434 
L 160.277281 62.820058 
L 160.60226 63.572362 
L 160.92724 66.490271 
L 161.252219 70.779292 
L 161.577199 67.617485 
L 161.902179 68.369559 
L 162.227158 62.536348 
L 162.552138 63.740069 
L 162.877117 67.118768 
L 163.202097 64.5708 
L 163.527076 66.669323 
L 163.852056 63.882038 
L 164.177035 69.064311 
L 164.502015 64.514217 
L 164.826994 66.784269 
L 165.151974 64.954501 
L 165.476953 72.016167 
L 165.801933 63.308346 
L 166.126912 72.435787 
L 166.451892 66.593274 
L 166.776871 64.110539 
L 167.101851 66.892733 
L 167.42683 66.404568 
L 167.75181 65.617507 
L 168.07679 59.975503 
L 168.401769 70.057182 
L 168.726749 69.213256 
L 169.051728 71.796615 
L 169.376708 69.22668 
L 170.026667 68.708761 
L 170.676626 64.472202 
L 171.001605 73.155553 
L 171.326585 72.453156 
L 171.651564 68.182809 
L 171.976544 65.942087 
L 172.301523 64.588434 
L 172.626503 73.001358 
L 172.951482 69.008062 
L 173.276462 66.806801 
L 173.601441 70.143326 
L 173.926421 61.019902 
L 174.2514 68.182774 
L 174.90136 65.324883 
L 175.226339 70.047793 
L 175.551319 67.863109 
L 175.876298 67.302206 
L 176.201278 69.655689 
L 176.526257 68.72458 
L 176.851237 67.354156 
L 177.176216 64.467551 
L 177.501196 67.000492 
L 177.826175 68.590344 
L 178.151155 71.445434 
L 178.476134 61.313354 
L 178.801114 70.881783 
L 179.126093 69.345449 
L 179.451073 66.636504 
L 179.776052 60.039926 
L 180.101032 68.476984 
L 180.426011 68.90661 
L 180.750991 64.979463 
L 181.075971 71.615273 
L 181.40095 72.626377 
L 181.72593 70.578695 
L 182.050909 67.441745 
L 182.700868 71.668456 
L 183.025848 63.160739 
L 183.350827 69.846809 
L 184.000786 64.887664 
L 184.325766 63.834122 
L 184.650745 66.114991 
L 184.975725 67.504829 
L 185.300704 73.074166 
L 185.625684 65.475485 
L 185.950663 73.791959 
L 186.275643 68.012495 
L 186.600622 65.703986 
L 186.925602 69.313088 
L 187.250581 63.105125 
L 187.575561 68.256551 
L 187.900541 63.926414 
L 188.22552 67.069865 
L 188.5505 66.177811 
L 188.875479 69.49524 
L 189.200459 61.534192 
L 189.525438 62.8026 
L 189.850418 65.19868 
L 190.175397 70.175264 
L 190.500377 61.149012 
L 190.825356 69.329489 
L 191.150336 69.370852 
L 191.475315 65.923555 
L 191.800295 64.600642 
L 192.125274 69.013047 
L 192.450254 64.44273 
L 192.775233 64.630766 
L 193.100213 63.238181 
L 193.750172 70.621608 
L 194.075152 60.281445 
L 194.400131 64.624477 
L 194.725111 59.676907 
L 195.05009 62.488995 
L 195.37507 70.25792 
L 195.700049 58.442357 
L 196.025029 63.7898 
L 196.350008 63.466259 
L 196.674988 62.70372 
L 196.999967 64.319962 
L 197.324947 61.79065 
L 197.974906 72.57152 
L 198.299885 65.461039 
L 198.624865 70.684745 
L 198.949844 64.503612 
L 199.274824 67.770482 
L 199.599803 62.698858 
L 199.924783 63.319885 
L 200.249762 62.595926 
L 200.574742 66.626938 
L 200.899722 66.322793 
L 201.224701 62.796346 
L 201.549681 68.264742 
L 201.87466 61.61181 
L 202.19964 61.716345 
L 202.524619 59.476469 
L 202.849599 68.275999 
L 203.174578 62.938827 
L 203.499558 64.6246 
L 203.824537 64.787163 
L 204.474496 72.00158 
L 204.799476 71.382104 
L 205.124455 66.556561 
L 205.449435 72.687612 
L 205.774414 63.858204 
L 206.099394 66.171892 
L 206.424373 61.106627 
L 206.749353 63.143757 
L 207.074333 60.757085 
L 207.724292 69.421146 
L 208.049271 61.562977 
L 208.374251 66.545815 
L 208.69923 68.532739 
L 209.02421 65.017003 
L 209.349189 68.161335 
L 209.674169 61.413045 
L 210.324128 69.278736 
L 210.649107 63.175414 
L 210.974087 62.585339 
L 211.299066 61.075059 
L 211.624046 65.818703 
L 211.949025 65.039147 
L 212.274005 61.951311 
L 212.598984 66.055959 
L 212.923964 67.349418 
L 213.248943 67.442713 
L 213.573923 59.509605 
L 213.898903 63.065065 
L 214.223882 69.509527 
L 214.548862 67.505921 
L 214.873841 68.607467 
L 215.198821 59.923006 
L 215.5238 66.574301 
L 216.173759 59.954522 
L 216.498739 65.049347 
L 216.823718 64.536572 
L 217.148698 67.986881 
L 217.473677 62.541985 
L 217.798657 69.746079 
L 218.123636 63.433774 
L 218.448616 61.813534 
L 218.773595 73.690877 
L 219.098575 62.591962 
L 219.423554 63.918751 
L 219.748534 69.50914 
L 220.073514 71.392409 
L 220.398493 64.834181 
L 220.723473 62.750227 
L 221.048452 64.953637 
L 221.373432 60.890352 
L 221.698411 65.437733 
L 222.023391 64.339727 
L 222.34837 64.634095 
L 222.67335 62.968933 
L 222.998329 70.517003 
L 223.323309 63.618464 
L 223.648288 64.946626 
L 223.973268 72.090384 
L 224.298247 61.677606 
L 224.623227 69.656359 
L 224.948206 60.527315 
L 225.273186 60.212125 
L 225.598165 62.009991 
L 225.923145 64.623878 
L 226.248124 61.97615 
L 226.573104 63.277025 
L 226.898084 69.0434 
L 227.223063 65.696957 
L 227.548043 65.009974 
L 227.873022 58.135552 
L 228.198002 63.168279 
L 228.522981 65.348225 
L 228.847961 64.367684 
L 229.17294 68.089178 
L 229.49792 62.775524 
L 229.822899 69.685778 
L 230.147879 67.464892 
L 230.472858 58.965367 
L 230.797838 59.396614 
L 231.122817 65.672717 
L 231.447797 60.179306 
L 231.772776 68.262664 
L 232.097756 68.190613 
L 232.422735 57.605072 
L 232.747715 62.544328 
L 233.397674 63.967372 
L 233.722654 66.294096 
L 234.047633 62.193887 
L 234.372613 65.04725 
L 234.697592 65.235921 
L 235.022572 61.334318 
L 235.347551 66.284654 
L 235.672531 61.055082 
L 235.99751 64.522708 
L 236.32249 63.145818 
L 236.647469 67.032272 
L 236.972449 67.827911 
L 237.297428 73.689926 
L 237.622408 63.97699 
L 237.947387 65.532333 
L 238.272367 66.140905 
L 238.597346 69.308349 
L 238.922326 70.700952 
L 239.247305 58.127202 
L 239.572285 65.740487 
L 239.897265 63.447427 
L 240.222244 63.499325 
L 240.547224 66.918382 
L 240.872203 63.216654 
L 241.197183 67.523995 
L 241.522162 58.94192 
L 241.847142 63.754726 
L 242.172121 60.207227 
L 242.497101 62.026708 
L 242.82208 62.689134 
L 243.14706 67.175175 
L 243.472039 63.244892 
L 243.797019 69.335513 
L 244.121998 65.692306 
L 244.446978 67.346053 
L 244.771957 57.497349 
L 245.096937 61.84822 
L 245.421916 64.17498 
L 245.746896 68.267367 
L 246.071876 62.915415 
L 246.396855 59.857632 
L 246.721835 66.823765 
L 247.046814 60.325697 
L 247.371794 64.002111 
L 247.696773 58.847778 
L 248.021753 63.807222 
L 248.346732 71.51974 
L 248.671712 61.795248 
L 248.996691 66.37654 
L 249.321671 65.2309 
L 249.64665 65.333409 
L 249.97163 68.437911 
L 250.296609 68.678373 
L 250.621589 62.472947 
L 250.946568 67.199521 
L 251.596527 67.485028 
L 251.921507 60.35989 
L 252.246486 59.266835 
L 252.571466 66.847336 
L 252.896446 59.397759 
L 253.221425 62.555743 
L 253.546405 60.834843 
L 253.871384 68.10306 
L 254.196364 61.581192 
L 254.521343 65.661072 
L 254.846323 65.688061 
L 255.171302 69.548494 
L 255.821261 65.390821 
L 256.146241 61.36497 
L 256.47122 71.393554 
L 256.7962 68.465568 
L 257.121179 62.243107 
L 257.446159 64.877782 
L 257.771138 65.075877 
L 258.096118 71.046372 
L 258.421097 63.027684 
L 258.746077 64.790792 
L 259.071057 68.183214 
L 259.396036 63.133892 
L 259.721016 67.853173 
L 260.045995 59.840456 
L 260.370975 69.234431 
L 260.695954 60.919084 
L 261.020934 63.141978 
L 261.345913 59.877169 
L 261.670893 65.165473 
L 261.995872 68.504518 
L 262.320852 68.413847 
L 262.645831 70.525617 
L 262.970811 64.75408 
L 263.29579 67.496126 
L 263.62077 65.408878 
L 263.945749 64.137792 
L 264.270729 70.29007 
L 264.595708 58.376543 
L 264.920688 67.509479 
L 265.245667 59.64407 
L 265.570647 64.754309 
L 265.895627 63.396216 
L 266.220606 66.846684 
L 266.545586 65.091591 
L 266.870565 57.201272 
L 267.195545 63.561933 
L 267.520524 65.526783 
L 267.845504 61.807879 
L 268.170483 62.219836 
L 268.495463 63.760046 
L 268.820442 62.911804 
L 269.470401 67.055807 
L 269.795381 58.958585 
L 270.12036 66.567941 
L 270.44534 69.099684 
L 270.770319 60.961716 
L 271.095299 61.005122 
L 271.420278 64.958958 
L 271.745258 62.857123 
L 272.395217 64.940372 
L 272.720197 63.431202 
L 273.045176 66.703111 
L 273.370156 67.204911 
L 273.695135 64.54161 
L 274.020115 66.388643 
L 274.345094 64.822202 
L 274.670074 61.486593 
L 274.995053 67.091815 
L 275.320033 64.923337 
L 275.645012 64.433798 
L 275.969992 61.985803 
L 276.294971 69.021521 
L 276.619951 61.709157 
L 277.26991 69.114852 
L 277.594889 61.438853 
L 277.919869 64.093134 
L 278.244848 62.155748 
L 278.569828 61.529823 
L 278.894808 67.485838 
L 279.219787 62.468349 
L 279.544767 60.845448 
L 279.869746 63.20899 
L 280.194726 63.83525 
L 280.519705 61.34561 
L 280.844685 64.08186 
L 281.169664 59.012209 
L 281.494644 63.259796 
L 281.819623 65.372183 
L 282.144603 65.146747 
L 282.469582 64.11475 
L 282.794562 64.301518 
L 283.119541 65.538516 
L 283.444521 69.729713 
L 283.7695 63.600865 
L 284.09448 69.725098 
L 284.419459 61.743879 
L 284.744439 64.146811 
L 285.394398 57.442685 
L 285.719378 61.907569 
L 286.044357 62.414619 
L 286.369337 68.284702 
L 286.694316 63.63342 
L 287.019296 64.871863 
L 287.344275 64.317478 
L 287.669255 65.260372 
L 287.994234 62.060215 
L 288.319214 67.674967 
L 288.644193 62.454626 
L 288.969173 61.895185 
L 289.294152 60.355046 
L 289.619132 65.117927 
L 289.944111 58.105164 
L 290.269091 66.34624 
L 290.59407 60.191901 
L 290.91905 58.472252 
L 291.244029 61.963607 
L 291.569009 68.797424 
L 291.893989 59.438488 
L 292.218968 68.633839 
L 292.868927 60.399104 
L 293.193907 68.163748 
L 293.518886 65.447774 
L 293.843866 59.25933 
L 294.168845 60.303959 
L 294.493825 66.788304 
L 294.818804 63.013273 
L 295.143784 60.981622 
L 295.468763 65.460352 
L 295.793743 66.452379 
L 296.118722 63.099822 
L 296.443702 57.951867 
L 296.768681 66.942869 
L 297.093661 59.288115 
L 297.41864 66.820083 
L 297.74362 58.772099 
L 298.0686 62.627072 
L 298.393579 59.33434 
L 298.718559 73.803797 
L 299.043538 70.954732 
L 299.368518 61.791936 
L 299.693497 63.419752 
L 300.018477 63.983966 
L 300.343456 58.578478 
L 300.668436 63.533465 
L 300.993415 62.726639 
L 301.318395 59.843204 
L 301.643374 62.925897 
L 301.968354 63.581047 
L 302.293333 63.955393 
L 302.618313 62.804749 
L 302.943292 61.244792 
L 303.268272 60.958862 
L 303.593251 63.946285 
L 303.918231 63.328041 
L 304.56819 63.864475 
L 304.89317 63.140516 
L 305.218149 58.124806 
L 305.543129 63.993338 
L 305.868108 62.927782 
L 306.193088 64.997925 
L 306.518067 63.018153 
L 306.843047 59.55775 
L 307.168026 60.871414 
L 307.493006 63.310636 
L 307.817985 57.251778 
L 308.142965 65.019575 
L 308.467944 57.168964 
L 308.792924 66.595018 
L 309.117903 60.112751 
L 309.442883 66.814834 
L 309.767862 58.428264 
L 310.092842 61.004224 
L 310.417821 66.874694 
L 310.742801 65.850307 
L 311.067781 59.760425 
L 311.39276 59.37447 
L 312.042719 62.97524 
L 312.367699 66.936738 
L 312.692678 61.945286 
L 313.017658 63.784761 
L 313.342637 57.634703 
L 313.667617 65.942827 
L 313.992596 60.842136 
L 314.317576 65.123406 
L 314.642555 59.551162 
L 314.967535 62.840616 
L 315.292514 64.744831 
L 315.617494 63.963531 
L 315.942473 60.912267 
L 316.267453 64.754503 
L 316.592432 65.163359 
L 316.917412 61.556019 
L 317.242391 60.165952 
L 317.567371 56.628549 
L 318.21733 69.1612 
L 318.867289 65.049928 
L 319.192269 61.150879 
L 319.517248 62.360608 
L 319.842228 62.38749 
L 320.167207 60.207809 
L 320.492187 59.200404 
L 320.817166 63.276144 
L 321.142146 63.291998 
L 321.467125 59.694347 
L 321.792105 62.214709 
L 322.117084 57.412104 
L 322.442064 65.904459 
L 322.767043 58.727036 
L 323.092023 65.421826 
L 323.417002 66.186284 
L 323.741982 64.65793 
L 324.066962 66.205222 
L 324.391941 65.872908 
L 324.716921 59.937399 
L 325.0419 58.525682 
L 325.36688 61.171913 
L 325.691859 59.738088 
L 326.016839 67.693851 
L 326.666798 58.217221 
L 326.991777 66.046393 
L 327.316757 65.450769 
L 327.641736 61.270018 
L 328.291695 66.318865 
L 329.266634 56.982196 
L 329.591613 63.743821 
L 329.916593 64.542015 
L 330.241572 60.566688 
L 330.566552 60.672192 
L 331.216511 63.430674 
L 331.541491 61.258409 
L 331.86647 64.260507 
L 332.19145 61.739351 
L 332.516429 67.235845 
L 332.841409 60.784038 
L 333.166388 59.886734 
L 333.491368 65.785831 
L 333.816347 60.857885 
L 334.141327 63.772817 
L 334.466306 67.742525 
L 334.791286 59.44305 
L 335.116265 67.043194 
L 335.441245 65.3323 
L 335.766224 56.702343 
L 336.091204 60.3443 
L 336.416183 60.469798 
L 336.741163 61.239207 
L 337.066143 65.505855 
L 337.391122 65.815004 
L 337.716102 59.925208 
L 338.041081 65.374896 
L 338.69104 67.022301 
L 339.01602 58.092039 
L 339.340999 63.880312 
L 339.665979 56.340188 
L 339.990958 56.042155 
L 340.315938 62.213106 
L 340.640917 55.981784 
L 340.965897 60.483962 
L 341.290876 57.320305 
L 341.615856 61.124613 
L 341.940835 56.915941 
L 342.265815 63.447233 
L 342.590794 58.358997 
L 342.915774 64.037185 
L 343.240753 62.387296 
L 343.565733 63.952116 
L 343.890713 59.520668 
L 344.215692 66.486977 
L 344.540672 62.549525 
L 344.865651 66.086788 
L 345.51561 58.733167 
L 345.84059 65.865368 
L 346.165569 62.740767 
L 346.490549 58.03188 
L 346.815528 60.645292 
L 347.140508 59.733473 
L 347.465487 69.016289 
L 347.790467 63.466505 
L 348.115446 63.195391 
L 348.440426 63.158115 
L 348.765405 62.318029 
L 349.090385 58.653136 
L 349.415364 63.812842 
L 349.740344 65.394696 
L 350.065324 58.974897 
L 350.390303 66.616298 
L 350.715283 62.468807 
L 351.040262 62.247229 
L 351.365242 59.965092 
L 351.690221 60.629966 
L 352.015201 60.661851 
L 352.34018 59.797508 
L 352.66516 62.026814 
L 352.990139 60.892677 
L 353.640098 63.007654 
L 353.965078 61.915426 
L 354.290057 63.443639 
L 354.615037 63.63002 
L 354.940016 59.927639 
L 355.264996 65.455385 
L 355.589975 65.265305 
L 355.914955 59.183474 
L 356.239934 61.765705 
L 356.564914 62.467979 
L 356.889894 67.254712 
L 357.214873 61.223282 
L 357.539853 63.248856 
L 357.864832 60.762211 
L 358.189812 60.517292 
L 358.514791 63.41991 
L 358.839771 64.680937 
L 359.16475 62.524421 
L 359.48973 64.270425 
L 359.814709 59.470144 
L 360.139689 64.617959 
L 360.464668 62.868626 
L 360.789648 63.158749 
L 361.114627 59.427266 
L 361.439607 60.267299 
L 361.764586 57.716214 
L 362.089566 65.090181 
L 362.414545 66.654473 
L 362.739525 62.313502 
L 363.064505 61.438219 
L 363.389484 57.601426 
L 364.039443 64.576103 
L 364.364423 63.61982 
L 364.689402 61.051242 
L 365.014382 56.062925 
L 365.339361 64.603778 
L 365.664341 59.083238 
L 365.98932 59.738599 
L 366.3143 62.578979 
L 366.639279 54.681455 
L 366.964259 59.46301 
L 367.614218 64.370996 
L 367.939197 69.234449 
L 368.589156 64.561763 
L 368.914136 64.88777 
L 369.239115 60.330031 
L 369.564095 59.125517 
L 369.889075 59.091429 
L 370.214054 61.736251 
L 370.539034 66.262475 
L 370.864013 61.884016 
L 371.188993 67.37711 
L 371.513972 63.427626 
L 371.838952 63.424103 
L 372.163931 64.354067 
L 372.488911 61.85613 
L 372.81389 64.974513 
L 373.13887 61.379327 
L 373.463849 59.826522 
L 373.788829 59.307722 
L 374.438788 67.404046 
L 374.763767 65.128743 
L 375.088747 63.734097 
L 375.413726 58.859053 
L 375.738706 65.738091 
L 376.063686 63.439552 
L 376.388665 67.225786 
L 376.713645 57.934162 
L 377.038624 62.870088 
L 377.363604 60.183939 
L 377.688583 61.246589 
L 378.013563 63.806729 
L 378.338542 64.170629 
L 378.663522 59.657053 
L 378.988501 59.766433 
L 379.63846 64.217611 
L 379.96344 59.140684 
L 380.288419 64.412606 
L 380.613399 61.518461 
L 380.938378 62.37958 
L 381.263358 56.35953 
L 381.588337 63.941458 
L 382.238296 59.301909 
L 382.563276 63.328517 
L 382.888256 64.948106 
L 383.213235 60.993108 
L 383.538215 64.150528 
L 383.863194 60.920863 
L 384.188174 62.034231 
L 384.838133 56.498893 
L 385.163112 63.848303 
L 385.488092 56.961831 
L 385.813071 62.240271 
L 386.138051 61.873729 
L 386.46303 57.50517 
L 386.78801 61.949884 
L 387.112989 62.614582 
L 387.437969 61.026737 
L 387.762948 55.856814 
L 388.087928 65.420927 
L 388.412907 61.07298 
L 389.387846 63.840869 
L 389.712826 62.846659 
L 390.037805 62.259825 
L 390.362785 62.96009 
L 390.687764 57.026606 
L 391.012744 60.288139 
L 391.337723 62.2235 
L 391.662703 58.656254 
L 391.987682 68.329271 
L 392.312662 67.204682 
L 392.637641 58.470825 
L 392.962621 56.252335 
L 393.2876 61.434836 
L 393.61258 62.339627 
L 393.937559 53.568 
L 394.262539 64.254693 
L 394.912498 59.213651 
L 395.237477 58.720712 
L 395.562457 63.205168 
L 395.887437 61.063027 
L 396.212416 59.911732 
L 396.537396 64.879385 
L 396.862375 66.66321 
L 397.187355 62.909707 
L 397.512334 62.922937 
L 397.837314 59.862882 
L 398.162293 61.106662 
L 398.487273 63.694883 
L 398.487273 63.694883 
" style="fill:none;stroke:#1f77b4;stroke-linecap:square;stroke-width:1.5;"/>
   </g>
   <g id="line2d_11">
    <path clip-path="url(#p5e8822e399)" d="M 73.832727 289.188534 
L 74.482686 221.738977 
L 75.457625 195.569709 
L 75.782604 184.38399 
L 76.107584 185.791188 
L 76.432563 172.583304 
L 76.757543 174.936673 
L 77.082523 169.935699 
L 77.407502 172.453375 
L 77.732482 162.041672 
L 78.057461 168.275672 
L 78.382441 154.484759 
L 78.70742 151.276657 
L 79.0324 162.445825 
L 79.357379 153.855118 
L 80.007338 148.767674 
L 80.657297 158.189439 
L 80.982277 140.279274 
L 81.307256 150.074662 
L 81.957215 146.036304 
L 82.282195 139.094402 
L 82.607174 147.150446 
L 82.932154 147.443722 
L 83.257133 136.390936 
L 83.582113 142.154387 
L 83.907093 144.958037 
L 84.557052 139.587729 
L 84.882031 134.961356 
L 85.207011 134.46241 
L 85.53199 145.024116 
L 85.85697 136.00912 
L 86.181949 134.573692 
L 86.506929 134.294897 
L 86.831908 136.847479 
L 87.156888 134.001233 
L 87.481867 133.463478 
L 87.806847 131.83221 
L 88.131826 132.896938 
L 88.456806 136.745393 
L 88.781785 129.09839 
L 89.106765 132.188323 
L 89.431744 125.692739 
L 89.756724 134.760125 
L 90.081704 136.508401 
L 90.406683 124.913236 
L 91.056642 132.018572 
L 91.381622 126.066222 
L 91.706601 126.089123 
L 92.031581 129.200142 
L 92.35656 129.31301 
L 92.68154 129.759477 
L 93.006519 118.638683 
L 93.656478 128.691296 
L 94.306437 119.434869 
L 94.631417 124.086662 
L 94.956396 119.872405 
L 95.281376 125.715288 
L 95.606355 115.729617 
L 95.931335 123.028645 
L 96.256314 123.610458 
L 96.581294 119.978613 
L 96.906274 120.3194 
L 97.231253 118.811199 
L 97.556233 124.659984 
L 97.881212 118.75414 
L 98.206192 124.371499 
L 98.531171 119.705473 
L 98.856151 111.945708 
L 99.18113 119.705931 
L 99.50611 110.659455 
L 99.831089 118.815022 
L 100.156069 111.053584 
L 100.481048 113.504626 
L 100.806028 113.433721 
L 101.131007 122.793168 
L 101.455987 112.447702 
L 101.780966 117.592645 
L 102.105946 112.692216 
L 102.430925 117.153911 
L 102.755905 112.851185 
L 103.080885 113.250282 
L 103.405864 112.590764 
L 103.730844 114.238451 
L 104.055823 117.08061 
L 104.380803 102.535262 
L 105.030762 113.48088 
L 105.355741 115.139119 
L 105.680721 109.362896 
L 106.0057 113.697701 
L 106.33068 113.474978 
L 106.655659 109.154196 
L 106.980639 115.395559 
L 107.305618 103.210723 
L 107.630598 108.996371 
L 107.955577 110.608209 
L 108.280557 103.865451 
L 108.605536 107.100858 
L 108.930516 104.08273 
L 109.255495 108.159545 
L 109.580475 104.274853 
L 109.905455 114.840787 
L 110.230434 110.599841 
L 110.555414 107.974943 
L 110.880393 101.906695 
L 111.205373 102.257876 
L 111.530352 111.266512 
L 111.855332 108.242711 
L 112.180311 109.953323 
L 112.505291 103.811509 
L 112.83027 104.448391 
L 113.15525 103.474175 
L 113.480229 101.903771 
L 113.805209 107.90587 
L 114.130188 97.51351 
L 114.455168 107.472439 
L 114.780147 106.73902 
L 115.105127 108.390864 
L 115.430106 101.405424 
L 115.755086 109.276558 
L 116.080066 103.459007 
L 116.405045 103.177728 
L 116.730025 102.419999 
L 117.055004 106.599235 
L 117.379984 103.725665 
L 117.704963 108.442955 
L 118.029943 106.403077 
L 118.354922 107.120078 
L 118.679902 99.043431 
L 119.004881 99.378123 
L 119.329861 104.744169 
L 119.65484 102.710632 
L 119.97982 97.085381 
L 120.304799 97.696384 
L 120.629779 99.274416 
L 120.954758 97.337223 
L 121.279738 103.855955 
L 121.604717 101.588439 
L 121.929697 101.477545 
L 122.254676 96.046073 
L 122.579656 103.003979 
L 122.904636 104.375513 
L 123.229615 106.643029 
L 123.554595 99.650894 
L 123.879574 102.043838 
L 124.204554 103.22117 
L 124.529533 89.417098 
L 124.854513 103.977173 
L 125.179492 105.38401 
L 125.504472 97.301039 
L 125.829451 95.757447 
L 126.154431 99.603647 
L 126.47941 106.415338 
L 126.80439 93.204442 
L 127.129369 102.448396 
L 127.454349 94.241037 
L 127.779328 93.865317 
L 128.104308 96.017147 
L 128.429287 105.259621 
L 128.754267 106.488939 
L 129.079247 95.294174 
L 129.404226 103.881147 
L 129.729206 98.384036 
L 130.054185 97.244491 
L 130.379165 93.876803 
L 130.704144 100.219231 
L 131.029124 99.707407 
L 131.354103 101.209654 
L 131.679083 95.543075 
L 132.004062 96.218096 
L 132.329042 98.650641 
L 132.654021 93.047692 
L 132.979001 99.941369 
L 133.30398 99.743186 
L 133.62896 98.352168 
L 133.953939 101.747356 
L 134.278919 93.896269 
L 134.603898 91.47838 
L 134.928878 94.015267 
L 135.253857 101.686192 
L 135.578837 91.669464 
L 136.228796 98.1923 
L 136.553776 97.172881 
L 136.878755 93.375161 
L 137.528714 97.521261 
L 137.853694 96.489369 
L 138.178673 103.011166 
L 138.503653 95.815599 
L 138.828632 97.137366 
L 139.153612 95.466144 
L 139.478591 91.058901 
L 139.803571 92.058009 
L 140.12855 89.452401 
L 140.45353 96.625877 
L 141.103489 91.508451 
L 141.428468 92.949816 
L 141.753448 90.918164 
L 142.078428 97.678574 
L 142.403407 97.842599 
L 142.728387 95.319559 
L 143.053366 94.611789 
L 143.378346 95.216063 
L 143.703325 98.776844 
L 144.028305 94.128856 
L 144.353284 100.309796 
L 144.678264 92.6085 
L 145.003243 97.43369 
L 145.328223 96.093302 
L 145.653202 89.445108 
L 145.978182 94.646423 
L 146.303161 89.155831 
L 146.628141 92.198534 
L 146.95312 87.943284 
L 147.2781 89.36594 
L 147.603079 95.920574 
L 147.928059 98.29673 
L 148.253038 97.322144 
L 148.578018 93.019752 
L 148.902998 96.22634 
L 149.227977 89.569743 
L 149.552957 96.765487 
L 149.877936 95.61694 
L 150.202916 87.489629 
L 150.527895 87.874985 
L 150.852875 97.489234 
L 151.177854 98.251667 
L 151.502834 90.878457 
L 151.827813 92.832703 
L 152.152793 87.965938 
L 152.477772 95.072543 
L 152.802752 99.342838 
L 153.127731 88.171291 
L 153.452711 93.507266 
L 153.77769 89.445848 
L 154.10267 93.155134 
L 154.427649 88.034307 
L 155.077609 91.306357 
L 155.402588 89.942785 
L 155.727568 93.391579 
L 156.052547 94.775515 
L 156.377527 92.285523 
L 156.702506 93.176062 
L 157.027486 97.571696 
L 157.352465 98.018991 
L 157.677445 92.235299 
L 158.002424 92.454974 
L 158.327404 91.959551 
L 158.652383 88.515619 
L 158.977363 90.110334 
L 159.302342 99.722733 
L 159.627322 90.686739 
L 159.952301 96.095768 
L 160.277281 95.294914 
L 160.60226 89.636086 
L 160.92724 92.138797 
L 161.252219 92.328225 
L 161.577199 90.784967 
L 161.902179 91.404779 
L 162.227158 97.521754 
L 162.552138 92.61796 
L 162.877117 84.825147 
L 163.202097 94.179697 
L 163.527076 83.781224 
L 163.852056 98.01235 
L 164.177035 87.542055 
L 164.502015 90.314965 
L 164.826994 88.367554 
L 165.151974 91.0663 
L 165.476953 88.594452 
L 165.801933 89.346086 
L 166.126912 92.035689 
L 166.451892 89.875755 
L 166.776871 88.933548 
L 167.101851 95.242047 
L 167.42683 89.980572 
L 167.75181 95.158493 
L 168.07679 92.359018 
L 168.401769 93.52911 
L 168.726749 87.170563 
L 169.051728 90.313203 
L 169.376708 90.350691 
L 169.701687 96.680999 
L 170.026667 91.013926 
L 170.351646 92.963645 
L 170.676626 86.380772 
L 171.326585 89.044813 
L 171.651564 94.52672 
L 171.976544 97.986172 
L 172.626503 82.724229 
L 172.951482 91.880789 
L 173.276462 90.925528 
L 173.601441 91.305564 
L 173.926421 89.403533 
L 174.2514 89.69015 
L 174.57638 90.526043 
L 174.90136 92.042841 
L 175.226339 88.742394 
L 175.551319 93.758897 
L 176.201278 89.497393 
L 176.526257 90.402042 
L 176.851237 101.117802 
L 177.501196 83.149733 
L 177.826175 91.895093 
L 178.151155 90.109154 
L 178.476134 86.080749 
L 178.801114 90.210518 
L 179.126093 90.392688 
L 179.451073 89.689745 
L 179.776052 85.246547 
L 180.101032 91.757898 
L 180.426011 95.518024 
L 181.075971 89.421484 
L 181.40095 93.815128 
L 181.72593 86.238837 
L 182.050909 84.812816 
L 182.700868 95.879229 
L 183.025848 86.418488 
L 183.350827 92.87204 
L 183.675807 92.783888 
L 184.000786 90.418143 
L 184.325766 85.428012 
L 184.650745 92.080927 
L 184.975725 86.409927 
L 185.300704 85.375551 
L 185.625684 89.364548 
L 185.950663 89.301535 
L 186.275643 93.346077 
L 186.600622 87.843206 
L 186.925602 92.220625 
L 187.250581 99.895989 
L 187.575561 90.100945 
L 187.900541 88.326561 
L 188.22552 84.217579 
L 188.5505 89.561957 
L 188.875479 83.991509 
L 189.200459 92.28739 
L 189.525438 94.722155 
L 189.850418 87.690913 
L 190.175397 88.2302 
L 190.500377 94.259358 
L 190.825356 91.908605 
L 191.150336 87.67541 
L 191.475315 95.475516 
L 192.450254 83.370447 
L 192.775233 84.198765 
L 193.100213 85.751289 
L 193.425192 89.170752 
L 193.750172 83.678873 
L 194.075152 89.361483 
L 194.400131 91.647408 
L 194.725111 88.397414 
L 195.05009 90.635722 
L 195.37507 83.433725 
L 196.025029 90.269462 
L 196.350008 88.930923 
L 196.674988 83.974457 
L 196.999967 91.131092 
L 197.324947 93.016493 
L 197.649926 87.311123 
L 197.974906 87.792206 
L 198.299885 84.926406 
L 198.624865 87.227393 
L 198.949844 88.623132 
L 199.274824 86.420937 
L 199.599803 77.467827 
L 199.924783 88.808613 
L 200.249762 90.273796 
L 200.574742 84.899224 
L 200.899722 88.021077 
L 201.224701 83.787337 
L 201.549681 91.120417 
L 201.87466 85.893963 
L 202.19964 88.952609 
L 202.524619 85.492135 
L 202.849599 92.01661 
L 203.174578 88.609074 
L 203.499558 87.460139 
L 203.824537 92.666511 
L 204.149517 92.87551 
L 204.474496 91.951501 
L 204.799476 88.391583 
L 205.124455 93.033951 
L 205.449435 83.728956 
L 205.774414 78.607724 
L 206.099394 82.965079 
L 206.424373 84.819986 
L 206.749353 89.955698 
L 207.074333 87.333302 
L 207.399312 82.529093 
L 207.724292 85.89879 
L 208.049271 84.955878 
L 208.374251 93.731415 
L 208.69923 82.776285 
L 209.349189 85.41665 
L 209.674169 84.244796 
L 209.999148 90.314789 
L 210.324128 83.562359 
L 210.649107 87.82078 
L 210.974087 80.3223 
L 211.299066 82.972055 
L 211.624046 87.705763 
L 211.949025 79.775473 
L 212.274005 91.361443 
L 212.598984 88.300084 
L 213.248943 80.285764 
L 213.573923 86.424337 
L 213.898903 83.912994 
L 214.223882 84.364887 
L 214.548862 89.867617 
L 214.873841 91.535862 
L 215.198821 83.276059 
L 215.5238 86.758324 
L 215.84878 85.342679 
L 216.173759 89.261194 
L 216.498739 87.176728 
L 216.823718 97.177725 
L 217.148698 86.093802 
L 217.473677 81.947051 
L 218.123636 86.868373 
L 218.448616 82.963898 
L 218.773595 89.425518 
L 219.098575 84.805294 
L 219.423554 90.193324 
L 219.748534 86.130479 
L 220.398493 88.28208 
L 221.048452 88.229231 
L 221.373432 85.792405 
L 221.698411 92.190747 
L 222.023391 90.82205 
L 222.34837 83.789486 
L 222.67335 84.362491 
L 222.998329 85.172417 
L 223.323309 87.116921 
L 223.648288 83.655514 
L 223.973268 89.149013 
L 224.298247 83.083354 
L 224.623227 83.544496 
L 224.948206 88.367484 
L 225.273186 82.433578 
L 225.598165 91.964061 
L 225.923145 86.289907 
L 226.248124 88.260095 
L 226.573104 85.560663 
L 226.898084 84.747671 
L 227.223063 92.221259 
L 227.548043 87.372375 
L 227.873022 89.317266 
L 228.198002 90.506683 
L 228.522981 89.975675 
L 228.847961 88.082681 
L 229.17294 78.727321 
L 229.49792 87.550141 
L 229.822899 82.399807 
L 230.147879 81.412326 
L 230.472858 82.561489 
L 230.797838 78.881165 
L 231.122817 87.792294 
L 231.447797 81.14935 
L 231.772776 85.67154 
L 232.097756 88.11994 
L 232.422735 85.471595 
L 232.747715 84.785634 
L 233.072695 82.25028 
L 233.397674 85.405252 
L 233.722654 84.210268 
L 234.047633 88.549073 
L 234.372613 83.627751 
L 234.697592 85.551943 
L 235.022572 79.878687 
L 235.347551 78.370909 
L 235.672531 80.574566 
L 235.99751 80.408409 
L 236.32249 78.287302 
L 236.647469 81.115491 
L 236.972449 79.49518 
L 237.297428 83.790578 
L 237.622408 86.350965 
L 237.947387 85.136128 
L 238.272367 80.810659 
L 238.597346 93.104769 
L 238.922326 83.95758 
L 239.247305 83.185229 
L 239.572285 83.546751 
L 240.547224 94.664762 
L 240.872203 81.819121 
L 241.197183 84.593299 
L 241.522162 89.728589 
L 241.847142 82.140636 
L 242.172121 81.626258 
L 242.497101 87.934476 
L 242.82208 84.262325 
L 243.14706 88.376574 
L 243.472039 86.262355 
L 243.797019 86.970882 
L 244.121998 81.226351 
L 244.446978 82.784564 
L 244.771957 88.883782 
L 245.096937 87.714307 
L 245.421916 88.008482 
L 245.746896 86.109058 
L 246.071876 88.614729 
L 246.396855 87.569184 
L 246.721835 83.564297 
L 247.046814 83.297022 
L 247.371794 84.329302 
L 247.696773 89.296197 
L 248.021753 82.19655 
L 248.346732 81.637445 
L 248.671712 83.691293 
L 248.996691 81.318872 
L 249.321671 86.883981 
L 249.64665 83.351157 
L 249.97163 93.756941 
L 250.296609 88.021535 
L 250.946568 91.336093 
L 251.271548 82.510983 
L 251.921507 89.3448 
L 252.246486 85.33609 
L 252.571466 92.334761 
L 252.896446 82.860491 
L 253.221425 84.874931 
L 253.546405 82.663541 
L 253.871384 86.895291 
L 254.196364 85.240469 
L 254.521343 79.892005 
L 254.846323 83.13763 
L 255.171302 84.611885 
L 255.496282 81.379436 
L 255.821261 81.994104 
L 256.146241 87.531344 
L 256.47122 84.783397 
L 256.7962 88.037566 
L 257.121179 83.081575 
L 257.446159 75.072012 
L 257.771138 83.809639 
L 258.096118 79.535698 
L 258.421097 86.559031 
L 258.746077 77.792918 
L 259.071057 80.580784 
L 259.396036 88.623995 
L 259.721016 82.352349 
L 260.045995 83.588678 
L 260.370975 85.331492 
L 260.695954 77.891552 
L 261.020934 83.866134 
L 261.345913 83.793432 
L 261.670893 84.781389 
L 261.995872 78.235915 
L 262.320852 87.477685 
L 262.645831 85.359044 
L 262.970811 85.032245 
L 263.29579 85.643724 
L 263.62077 85.836305 
L 263.945749 82.319389 
L 264.270729 80.997515 
L 264.595708 87.437168 
L 264.920688 90.304184 
L 265.245667 85.704606 
L 265.570647 83.513262 
L 265.895627 84.057606 
L 266.220606 81.304743 
L 266.545586 94.466702 
L 266.870565 88.106076 
L 267.195545 90.466588 
L 267.520524 85.468248 
L 267.845504 87.556765 
L 268.170483 87.580159 
L 268.495463 89.306027 
L 268.820442 85.36484 
L 269.145422 77.467528 
L 269.470401 81.859075 
L 269.795381 88.014348 
L 270.12036 85.563552 
L 270.44534 79.323827 
L 270.770319 86.343813 
L 271.095299 81.31866 
L 271.420278 87.222267 
L 271.745258 83.156074 
L 272.070238 80.588007 
L 272.395217 86.237569 
L 272.720197 82.099185 
L 273.045176 84.697165 
L 273.370156 84.268279 
L 273.695135 81.842146 
L 274.020115 82.342079 
L 274.345094 83.752791 
L 274.670074 89.108161 
L 274.995053 81.833637 
L 275.320033 83.749743 
L 275.645012 84.563052 
L 275.969992 82.090958 
L 276.619951 92.474264 
L 276.94493 83.546821 
L 277.26991 88.376856 
L 277.594889 83.791018 
L 277.919869 89.217699 
L 278.244848 85.399298 
L 278.569828 87.656032 
L 279.544767 81.330586 
L 279.869746 85.9871 
L 280.194726 84.02195 
L 280.519705 78.038155 
L 280.844685 82.33246 
L 281.169664 81.273915 
L 281.494644 90.289967 
L 281.819623 84.525459 
L 282.144603 82.790994 
L 282.469582 82.351521 
L 282.794562 85.744524 
L 283.119541 78.642975 
L 283.444521 82.199633 
L 283.7695 87.975821 
L 284.09448 90.010097 
L 284.419459 78.142778 
L 284.744439 87.462658 
L 285.069419 85.226922 
L 285.394398 83.7811 
L 285.719378 80.814077 
L 286.044357 81.075626 
L 286.369337 84.64377 
L 286.694316 84.361311 
L 287.019296 83.553392 
L 287.344275 89.663321 
L 287.669255 84.420448 
L 287.994234 85.001962 
L 288.319214 81.474423 
L 288.644193 87.616642 
L 288.969173 90.141585 
L 289.294152 86.341575 
L 289.619132 87.120532 
L 289.944111 78.769636 
L 290.269091 83.312912 
L 290.59407 82.705732 
L 290.91905 86.700173 
L 291.244029 82.644656 
L 291.893989 89.256913 
L 292.218968 86.431383 
L 292.543948 80.331954 
L 292.868927 83.77268 
L 293.193907 73.823862 
L 293.518886 85.391723 
L 293.843866 88.084144 
L 294.168845 88.721783 
L 294.493825 81.619441 
L 294.818804 82.112697 
L 295.143784 82.208336 
L 295.468763 84.272613 
L 295.793743 87.912684 
L 296.118722 89.12768 
L 296.443702 81.64893 
L 296.768681 82.660546 
L 297.093661 77.165303 
L 297.41864 76.378753 
L 297.74362 85.899988 
L 298.0686 86.80779 
L 298.393579 86.704841 
L 298.718559 87.484432 
L 299.043538 82.537884 
L 299.368518 88.586666 
L 299.693497 88.457098 
L 300.018477 82.099661 
L 300.343456 79.648301 
L 300.668436 91.857535 
L 300.993415 86.708787 
L 301.318395 86.447079 
L 301.643374 90.040556 
L 301.968354 83.943804 
L 302.293333 83.436843 
L 302.618313 83.661133 
L 302.943292 88.461678 
L 303.593251 81.691703 
L 303.918231 85.183304 
L 304.24321 90.594394 
L 304.89317 82.382156 
L 305.218149 85.844673 
L 305.543129 85.023348 
L 305.868108 84.794777 
L 306.193088 88.381665 
L 306.518067 85.642173 
L 306.843047 76.177381 
L 307.168026 83.223686 
L 307.493006 82.803203 
L 307.817985 90.09425 
L 308.142965 87.932326 
L 308.467944 76.208139 
L 308.792924 81.674034 
L 309.117903 81.998913 
L 309.442883 85.254633 
L 309.767862 82.827425 
L 310.092842 81.45457 
L 310.742801 82.794659 
L 311.067781 78.808039 
L 311.39276 84.986231 
L 311.71774 84.763138 
L 312.042719 80.116066 
L 312.367699 85.487555 
L 312.692678 81.437306 
L 313.017658 86.476816 
L 313.667617 83.86668 
L 313.992596 85.565736 
L 314.317576 82.255177 
L 314.642555 81.968049 
L 314.967535 84.947158 
L 315.292514 83.417165 
L 315.617494 83.265859 
L 315.942473 78.223196 
L 316.267453 90.248393 
L 316.592432 82.894983 
L 316.917412 81.763348 
L 317.567371 87.799852 
L 317.892351 92.857418 
L 318.21733 86.887716 
L 318.867289 79.975453 
L 319.192269 88.229531 
L 319.517248 78.298048 
L 319.842228 81.285524 
L 320.492187 93.238881 
L 320.817166 83.321104 
L 321.142146 81.384263 
L 321.467125 81.094775 
L 321.792105 77.73718 
L 322.117084 79.291959 
L 322.442064 89.762201 
L 322.767043 81.720646 
L 323.092023 86.050501 
L 323.417002 82.827936 
L 323.741982 85.272619 
L 324.066962 82.740594 
L 324.391941 82.514154 
L 324.716921 83.644081 
L 325.0419 85.299642 
L 325.36688 90.02641 
L 325.691859 79.831898 
L 326.016839 81.336012 
L 326.341818 95.021368 
L 326.666798 80.950057 
L 326.991777 88.919085 
L 327.316757 78.055013 
L 327.641736 75.513353 
L 327.966716 79.257114 
L 328.291695 84.318961 
L 328.616675 85.347241 
L 328.941654 83.960787 
L 329.591613 87.182242 
L 330.241572 82.12642 
L 330.566552 81.822803 
L 330.891532 82.67899 
L 331.216511 82.848987 
L 331.541491 86.834373 
L 331.86647 81.894272 
L 332.19145 82.111569 
L 332.516429 78.084838 
L 332.841409 81.689518 
L 333.166388 80.1476 
L 333.491368 90.684942 
L 333.816347 80.111979 
L 334.141327 87.086374 
L 334.466306 87.141425 
L 334.791286 84.389567 
L 335.116265 84.824055 
L 335.441245 75.706022 
L 335.766224 83.846545 
L 336.091204 83.38454 
L 336.416183 87.419886 
L 336.741163 89.486365 
L 337.066143 88.121191 
L 337.391122 79.125731 
L 337.716102 79.875886 
L 338.041081 83.961209 
L 338.69104 81.87655 
L 339.01602 80.073153 
L 339.340999 85.322913 
L 339.665979 81.836015 
L 340.315938 87.32615 
L 340.640917 79.322505 
L 340.965897 88.819201 
L 341.290876 86.545854 
L 341.615856 82.506808 
L 341.940835 82.457307 
L 342.265815 89.207816 
L 342.590794 86.077067 
L 342.915774 88.282115 
L 343.240753 88.168367 
L 343.565733 81.62994 
L 343.890713 86.475424 
L 344.215692 81.438645 
L 344.540672 82.774136 
L 344.865651 85.493686 
L 345.190631 85.547891 
L 345.51561 74.553194 
L 345.84059 88.583971 
L 346.165569 88.11654 
L 346.490549 80.954884 
L 346.815528 85.320429 
L 347.140508 79.432819 
L 347.465487 85.685862 
L 348.115446 79.459032 
L 348.440426 85.334611 
L 348.765405 86.966302 
L 349.090385 86.730613 
L 349.415364 88.483663 
L 349.740344 78.379488 
L 350.065324 82.774576 
L 350.390303 80.896997 
L 350.715283 82.381821 
L 351.040262 81.308319 
L 351.365242 82.263756 
L 351.690221 90.438755 
L 352.34018 79.916016 
L 352.66516 87.652263 
L 352.990139 88.828626 
L 353.315119 86.737255 
L 353.640098 83.692649 
L 353.965078 87.349315 
L 354.290057 80.267179 
L 354.615037 79.855046 
L 355.264996 86.71002 
L 355.589975 88.269326 
L 355.914955 78.755648 
L 356.239934 78.549344 
L 356.564914 85.010154 
L 356.889894 86.028745 
L 357.214873 79.555252 
L 357.539853 84.558965 
L 357.864832 81.836438 
L 358.189812 83.466456 
L 358.514791 88.245791 
L 358.839771 87.919924 
L 359.16475 91.265434 
L 359.48973 85.969502 
L 359.814709 88.296966 
L 360.139689 82.683306 
L 360.464668 85.567181 
L 360.789648 84.123526 
L 361.114627 83.530086 
L 361.439607 81.107423 
L 362.089566 87.737384 
L 362.414545 80.750235 
L 362.739525 84.546211 
L 363.064505 91.495521 
L 363.389484 83.783602 
L 363.714464 81.827648 
L 364.039443 82.738093 
L 364.364423 80.94449 
L 364.689402 86.996479 
L 365.014382 88.870147 
L 365.339361 81.317004 
L 365.664341 87.372269 
L 365.98932 77.688771 
L 366.3143 87.232731 
L 366.964259 80.550255 
L 367.289238 82.537285 
L 367.614218 79.434633 
L 367.939197 84.151959 
L 368.264177 85.066491 
L 368.589156 87.071436 
L 369.239115 77.552879 
L 369.564095 85.816346 
L 369.889075 82.632888 
L 370.214054 85.922466 
L 370.539034 86.75924 
L 371.188993 83.03387 
L 371.513972 80.267707 
L 371.838952 85.283664 
L 372.163931 83.207637 
L 372.488911 86.574674 
L 372.81389 77.938323 
L 373.13887 78.916943 
L 373.463849 83.628103 
L 373.788829 83.195711 
L 374.113808 80.307503 
L 374.438788 84.671058 
L 374.763767 83.157167 
L 375.088747 79.44094 
L 375.738706 91.354784 
L 376.063686 83.596006 
L 376.388665 84.939019 
L 377.038624 77.5712 
L 377.363604 82.301861 
L 377.688583 82.276722 
L 378.013563 82.821471 
L 378.338542 85.842981 
L 378.663522 84.695034 
L 378.988501 88.070068 
L 379.313481 80.3427 
L 379.63846 85.96966 
L 379.96344 85.348316 
L 380.288419 80.566409 
L 380.613399 82.666835 
L 380.938378 82.487202 
L 381.263358 86.038452 
L 381.913317 77.703568 
L 382.238296 89.321371 
L 382.563276 83.992725 
L 382.888256 81.227425 
L 383.213235 85.233176 
L 383.538215 77.906085 
L 383.863194 87.759053 
L 384.188174 84.197003 
L 384.513153 81.860097 
L 384.838133 73.298421 
L 385.163112 89.85141 
L 385.488092 80.66048 
L 385.813071 80.742361 
L 386.46303 89.086493 
L 386.78801 79.641713 
L 387.112989 85.578015 
L 387.437969 81.867848 
L 387.762948 89.781455 
L 388.412907 85.171255 
L 388.737887 89.054079 
L 389.062867 80.665818 
L 389.387846 83.018386 
L 389.712826 87.411395 
L 390.037805 88.921974 
L 390.362785 89.447521 
L 390.687764 84.028715 
L 391.012744 84.469439 
L 391.337723 87.296255 
L 391.662703 80.306428 
L 391.987682 91.692717 
L 392.312662 81.177589 
L 392.637641 81.893286 
L 392.962621 79.50339 
L 393.2876 85.176416 
L 393.61258 83.336906 
L 393.937559 84.609806 
L 394.262539 76.854023 
L 394.587518 85.645221 
L 394.912498 78.633409 
L 395.237477 85.714154 
L 395.562457 82.644867 
L 395.887437 82.400846 
L 396.212416 81.641162 
L 396.537396 80.566022 
L 396.862375 80.693388 
L 397.187355 78.724062 
L 397.512334 80.223226 
L 397.837314 85.197115 
L 398.162293 83.844484 
L 398.487273 81.997134 
L 398.487273 81.997134 
" style="fill:none;stroke:#ff7f0e;stroke-linecap:square;stroke-width:1.5;"/>
   </g>
   <g id="patch_3">
    <path d="M 57.6 307.584 
L 57.6 41.472 
" style="fill:none;stroke:#000000;stroke-linecap:square;stroke-linejoin:miter;stroke-width:0.8;"/>
   </g>
   <g id="patch_4">
    <path d="M 414.72 307.584 
L 414.72 41.472 
" style="fill:none;stroke:#000000;stroke-linecap:square;stroke-linejoin:miter;stroke-width:0.8;"/>
   </g>
   <g id="patch_5">
    <path d="M 57.6 307.584 
L 414.72 307.584 
" style="fill:none;stroke:#000000;stroke-linecap:square;stroke-linejoin:miter;stroke-width:0.8;"/>
   </g>
   <g id="patch_6">
    <path d="M 57.6 41.472 
L 414.72 41.472 
" style="fill:none;stroke:#000000;stroke-linecap:square;stroke-linejoin:miter;stroke-width:0.8;"/>
   </g>
   <g id="legend_1">
    <g id="patch_7">
     <path d="M 291.009063 302.584 
L 407.72 302.584 
Q 409.72 302.584 409.72 300.584 
L 409.72 272.22775 
Q 409.72 270.22775 407.72 270.22775 
L 291.009063 270.22775 
Q 289.009063 270.22775 289.009063 272.22775 
L 289.009063 300.584 
Q 289.009063 302.584 291.009063 302.584 
z
" style="fill:#ffffff;opacity:0.8;stroke:#cccccc;stroke-linejoin:miter;"/>
    </g>
    <g id="line2d_12">
     <path d="M 293.009063 278.326187 
L 313.009063 278.326187 
" style="fill:none;stroke:#1f77b4;stroke-linecap:square;stroke-width:1.5;"/>
    </g>
    <g id="line2d_13"/>
    <g id="text_12">
     <!-- UCB1 -->
     <defs>
      <path d="M 8.6875 72.90625 
L 18.609375 72.90625 
L 18.609375 28.609375 
Q 18.609375 16.890625 22.84375 11.734375 
Q 27.09375 6.59375 36.625 6.59375 
Q 46.09375 6.59375 50.34375 11.734375 
Q 54.59375 16.890625 54.59375 28.609375 
L 54.59375 72.90625 
L 64.5 72.90625 
L 64.5 27.390625 
Q 64.5 13.140625 57.4375 5.859375 
Q 50.390625 -1.421875 36.625 -1.421875 
Q 22.796875 -1.421875 15.734375 5.859375 
Q 8.6875 13.140625 8.6875 27.390625 
z
" id="DejaVuSans-55"/>
      <path d="M 64.40625 67.28125 
L 64.40625 56.890625 
Q 59.421875 61.53125 53.78125 63.8125 
Q 48.140625 66.109375 41.796875 66.109375 
Q 29.296875 66.109375 22.65625 58.46875 
Q 16.015625 50.828125 16.015625 36.375 
Q 16.015625 21.96875 22.65625 14.328125 
Q 29.296875 6.6875 41.796875 6.6875 
Q 48.140625 6.6875 53.78125 8.984375 
Q 59.421875 11.28125 64.40625 15.921875 
L 64.40625 5.609375 
Q 59.234375 2.09375 53.4375 0.328125 
Q 47.65625 -1.421875 41.21875 -1.421875 
Q 24.65625 -1.421875 15.125 8.703125 
Q 5.609375 18.84375 5.609375 36.375 
Q 5.609375 53.953125 15.125 64.078125 
Q 24.65625 74.21875 41.21875 74.21875 
Q 47.75 74.21875 53.53125 72.484375 
Q 59.328125 70.75 64.40625 67.28125 
z
" id="DejaVuSans-43"/>
      <path d="M 19.671875 34.8125 
L 19.671875 8.109375 
L 35.5 8.109375 
Q 43.453125 8.109375 47.28125 11.40625 
Q 51.125 14.703125 51.125 21.484375 
Q 51.125 28.328125 47.28125 31.5625 
Q 43.453125 34.8125 35.5 34.8125 
z
M 19.671875 64.796875 
L 19.671875 42.828125 
L 34.28125 42.828125 
Q 41.5 42.828125 45.03125 45.53125 
Q 48.578125 48.25 48.578125 53.8125 
Q 48.578125 59.328125 45.03125 62.0625 
Q 41.5 64.796875 34.28125 64.796875 
z
M 9.8125 72.90625 
L 35.015625 72.90625 
Q 46.296875 72.90625 52.390625 68.21875 
Q 58.5 63.53125 58.5 54.890625 
Q 58.5 48.1875 55.375 44.234375 
Q 52.25 40.28125 46.1875 39.3125 
Q 53.46875 37.75 57.5 32.78125 
Q 61.53125 27.828125 61.53125 20.40625 
Q 61.53125 10.640625 54.890625 5.3125 
Q 48.25 0 35.984375 0 
L 9.8125 0 
z
" id="DejaVuSans-42"/>
     </defs>
     <g transform="translate(321.009063 281.826187)scale(0.1 -0.1)">
      <use xlink:href="#DejaVuSans-55"/>
      <use x="73.193359" xlink:href="#DejaVuSans-43"/>
      <use x="143.017578" xlink:href="#DejaVuSans-42"/>
      <use x="211.621094" xlink:href="#DejaVuSans-31"/>
     </g>
    </g>
    <g id="line2d_14">
     <path d="M 293.009063 293.004312 
L 313.009063 293.004312 
" style="fill:none;stroke:#ff7f0e;stroke-linecap:square;stroke-width:1.5;"/>
    </g>
    <g id="line2d_15"/>
    <g id="text_13">
     <!-- -greedy (=0.1) -->
     <defs>
      <path d="M 19.28125 29.5 
Q 13.8125 30.671875 10.890625 33.84375 
Q 7.953125 36.96875 7.953125 41.5 
Q 7.953125 48.390625 13.53125 52.25 
Q 19.046875 56.0625 28.609375 56.0625 
Q 32.328125 56.0625 36.46875 55.46875 
Q 40.625 54.890625 45.40625 53.71875 
L 45.40625 45.5625 
Q 40.671875 46.96875 36.765625 47.609375 
Q 32.8125 48.25 29.34375 48.25 
Q 23.53125 48.25 20.171875 46 
Q 16.75 43.75 16.75 40.625 
Q 16.75 37.203125 20.0625 35.015625 
Q 23.34375 32.859375 29 32.859375 
L 36.578125 32.859375 
L 36.578125 25.4375 
L 29.34375 25.4375 
Q 22.65625 25.4375 19.140625 22.953125 
Q 15.328125 20.21875 15.328125 15.921875 
Q 15.328125 11.53125 19.4375 8.796875 
Q 23.578125 6.0625 30.953125 6.0625 
Q 35.5 6.0625 39.65625 6.9375 
Q 43.796875 7.859375 47.265625 9.671875 
L 47.265625 1.3125 
Q 42.875 -0.046875 38.765625 -0.734375 
Q 34.625 -1.421875 30.71875 -1.421875 
Q 19.09375 -1.421875 12.796875 3.03125 
Q 6.5 7.46875 6.5 15.921875 
Q 6.5 21.1875 9.859375 24.75 
Q 13.234375 28.328125 19.28125 29.5 
z
" id="DejaVuSans-3b5"/>
      <path d="M 4.890625 31.390625 
L 31.203125 31.390625 
L 31.203125 23.390625 
L 4.890625 23.390625 
z
" id="DejaVuSans-2d"/>
      <path d="M 32.171875 -5.078125 
Q 28.375 -14.84375 24.75 -17.8125 
Q 21.140625 -20.796875 15.09375 -20.796875 
L 7.90625 -20.796875 
L 7.90625 -13.28125 
L 13.1875 -13.28125 
Q 16.890625 -13.28125 18.9375 -11.515625 
Q 21 -9.765625 23.484375 -3.21875 
L 25.09375 0.875 
L 2.984375 54.6875 
L 12.5 54.6875 
L 29.59375 11.921875 
L 46.6875 54.6875 
L 56.203125 54.6875 
z
" id="DejaVuSans-79"/>
      <path d="M 31 75.875 
Q 24.46875 64.65625 21.28125 53.65625 
Q 18.109375 42.671875 18.109375 31.390625 
Q 18.109375 20.125 21.3125 9.0625 
Q 24.515625 -2 31 -13.1875 
L 23.1875 -13.1875 
Q 15.875 -1.703125 12.234375 9.375 
Q 8.59375 20.453125 8.59375 31.390625 
Q 8.59375 42.28125 12.203125 53.3125 
Q 15.828125 64.359375 23.1875 75.875 
z
" id="DejaVuSans-28"/>
      <path d="M 10.59375 45.40625 
L 73.1875 45.40625 
L 73.1875 37.203125 
L 10.59375 37.203125 
z
M 10.59375 25.484375 
L 73.1875 25.484375 
L 73.1875 17.1875 
L 10.59375 17.1875 
z
" id="DejaVuSans-3d"/>
      <path d="M 8.015625 75.875 
L 15.828125 75.875 
Q 23.140625 64.359375 26.78125 53.3125 
Q 30.421875 42.28125 30.421875 31.390625 
Q 30.421875 20.453125 26.78125 9.375 
Q 23.140625 -1.703125 15.828125 -13.1875 
L 8.015625 -13.1875 
Q 14.5 -2 17.703125 9.0625 
Q 20.90625 20.125 20.90625 31.390625 
Q 20.90625 42.671875 17.703125 53.65625 
Q 14.5 64.65625 8.015625 75.875 
z
" id="DejaVuSans-29"/>
     </defs>
     <g transform="translate(321.009063 296.504312)scale(0.1 -0.1)">
      <use xlink:href="#DejaVuSans-3b5"/>
      <use x="54.052734" xlink:href="#DejaVuSans-2d"/>
      <use x="90.136719" xlink:href="#DejaVuSans-67"/>
      <use x="153.613281" xlink:href="#DejaVuSans-72"/>
      <use x="194.695312" xlink:href="#DejaVuSans-65"/>
      <use x="256.21875" xlink:href="#DejaVuSans-65"/>
      <use x="317.742188" xlink:href="#DejaVuSans-64"/>
      <use x="381.21875" xlink:href="#DejaVuSans-79"/>
      <use x="440.398438" xlink:href="#DejaVuSans-20"/>
      <use x="472.185547" xlink:href="#DejaVuSans-28"/>
      <use x="511.199219" xlink:href="#DejaVuSans-3b5"/>
      <use x="565.251953" xlink:href="#DejaVuSans-3d"/>
      <use x="649.041016" xlink:href="#DejaVuSans-30"/>
      <use x="712.664062" xlink:href="#DejaVuSans-2e"/>
      <use x="744.451172" xlink:href="#DejaVuSans-31"/>
      <use x="808.074219" xlink:href="#DejaVuSans-29"/>
     </g>
    </g>
   </g>
  </g>
 </g>
 <defs>
  <clipPath id="p5e8822e399">
   <rect height="266.112" width="357.12" x="57.6" y="41.472"/>
  </clipPath>
 </defs>
</svg>
