<?xml version="1.0" encoding="utf-8" standalone="no"?>
<!DOCTYPE svg PUBLIC "-//W3C//DTD SVG 1.1//EN"
  "http://www.w3.org/Graphics/SVG/1.1/DTD/svg11.dtd">
<!-- Created with matplotlib (http://matplotlib.org/) -->
<svg height="345.6pt" version="1.1" viewBox="0 0 460.8 345.6" width="460.8pt" xmlns="http://www.w3.org/2000/svg" xmlns:xlink="http://www.w3.org/1999/xlink">
 <defs>
  <style type="text/css">
*{stroke-linecap:butt;stroke-linejoin:round;}
  </style>
 </defs>
 <g id="figure_1">
  <g id="patch_1">
   <path d="M 0 345.6 
L 460.8 345.6 
L 460.8 0 
L 0 0 
z
" style="fill:#ffffff;"/>
  </g>
  <g id="axes_1">
   <g id="patch_2">
    <path d="M 57.6 307.584 
L 414.72 307.584 
L 414.72 41.472 
L 57.6 41.472 
z
" style="fill:#ffffff;"/>
   </g>
   <g id="matplotlib.axis_1">
    <g id="xtick_1">
     <g id="line2d_1">
      <defs>
       <path d="M 0 0 
L 0 3.5 
" id="mfde0be08c6" style="stroke:#000000;stroke-width:0.8;"/>
      </defs>
      <g>
       <use style="stroke:#000000;stroke-width:0.8;" x="73.832727" xlink:href="#mfde0be08c6" y="307.584"/>
      </g>
     </g>
     <g id="text_1">
      <!-- 0 -->
      <defs>
       <path d="M 31.78125 66.40625 
Q 24.171875 66.40625 20.328125 58.90625 
Q 16.5 51.421875 16.5 36.375 
Q 16.5 21.390625 20.328125 13.890625 
Q 24.171875 6.390625 31.78125 6.390625 
Q 39.453125 6.390625 43.28125 13.890625 
Q 47.125 21.390625 47.125 36.375 
Q 47.125 51.421875 43.28125 58.90625 
Q 39.453125 66.40625 31.78125 66.40625 
z
M 31.78125 74.21875 
Q 44.046875 74.21875 50.515625 64.515625 
Q 56.984375 54.828125 56.984375 36.375 
Q 56.984375 17.96875 50.515625 8.265625 
Q 44.046875 -1.421875 31.78125 -1.421875 
Q 19.53125 -1.421875 13.0625 8.265625 
Q 6.59375 17.96875 6.59375 36.375 
Q 6.59375 54.828125 13.0625 64.515625 
Q 19.53125 74.21875 31.78125 74.21875 
z
" id="DejaVuSans-30"/>
      </defs>
      <g transform="translate(70.651477 322.182437)scale(0.1 -0.1)">
       <use xlink:href="#DejaVuSans-30"/>
      </g>
     </g>
    </g>
    <g id="xtick_2">
     <g id="line2d_2">
      <g>
       <use style="stroke:#000000;stroke-width:0.8;" x="155.077609" xlink:href="#mfde0be08c6" y="307.584"/>
      </g>
     </g>
     <g id="text_2">
      <!-- 250 -->
      <defs>
       <path d="M 19.1875 8.296875 
L 53.609375 8.296875 
L 53.609375 0 
L 7.328125 0 
L 7.328125 8.296875 
Q 12.9375 14.109375 22.625 23.890625 
Q 32.328125 33.6875 34.8125 36.53125 
Q 39.546875 41.84375 41.421875 45.53125 
Q 43.3125 49.21875 43.3125 52.78125 
Q 43.3125 58.59375 39.234375 62.25 
Q 35.15625 65.921875 28.609375 65.921875 
Q 23.96875 65.921875 18.8125 64.3125 
Q 13.671875 62.703125 7.8125 59.421875 
L 7.8125 69.390625 
Q 13.765625 71.78125 18.9375 73 
Q 24.125 74.21875 28.421875 74.21875 
Q 39.75 74.21875 46.484375 68.546875 
Q 53.21875 62.890625 53.21875 53.421875 
Q 53.21875 48.921875 51.53125 44.890625 
Q 49.859375 40.875 45.40625 35.40625 
Q 44.1875 33.984375 37.640625 27.21875 
Q 31.109375 20.453125 19.1875 8.296875 
z
" id="DejaVuSans-32"/>
       <path d="M 10.796875 72.90625 
L 49.515625 72.90625 
L 49.515625 64.59375 
L 19.828125 64.59375 
L 19.828125 46.734375 
Q 21.96875 47.46875 24.109375 47.828125 
Q 26.265625 48.1875 28.421875 48.1875 
Q 40.625 48.1875 47.75 41.5 
Q 54.890625 34.8125 54.890625 23.390625 
Q 54.890625 11.625 47.5625 5.09375 
Q 40.234375 -1.421875 26.90625 -1.421875 
Q 22.3125 -1.421875 17.546875 -0.640625 
Q 12.796875 0.140625 7.71875 1.703125 
L 7.71875 11.625 
Q 12.109375 9.234375 16.796875 8.0625 
Q 21.484375 6.890625 26.703125 6.890625 
Q 35.15625 6.890625 40.078125 11.328125 
Q 45.015625 15.765625 45.015625 23.390625 
Q 45.015625 31 40.078125 35.4375 
Q 35.15625 39.890625 26.703125 39.890625 
Q 22.75 39.890625 18.8125 39.015625 
Q 14.890625 38.140625 10.796875 36.28125 
z
" id="DejaVuSans-35"/>
      </defs>
      <g transform="translate(145.533859 322.182437)scale(0.1 -0.1)">
       <use xlink:href="#DejaVuSans-32"/>
       <use x="63.623047" xlink:href="#DejaVuSans-35"/>
       <use x="127.246094" xlink:href="#DejaVuSans-30"/>
      </g>
     </g>
    </g>
    <g id="xtick_3">
     <g id="line2d_3">
      <g>
       <use style="stroke:#000000;stroke-width:0.8;" x="236.32249" xlink:href="#mfde0be08c6" y="307.584"/>
      </g>
     </g>
     <g id="text_3">
      <!-- 500 -->
      <g transform="translate(226.77874 322.182437)scale(0.1 -0.1)">
       <use xlink:href="#DejaVuSans-35"/>
       <use x="63.623047" xlink:href="#DejaVuSans-30"/>
       <use x="127.246094" xlink:href="#DejaVuSans-30"/>
      </g>
     </g>
    </g>
    <g id="xtick_4">
     <g id="line2d_4">
      <g>
       <use style="stroke:#000000;stroke-width:0.8;" x="317.567371" xlink:href="#mfde0be08c6" y="307.584"/>
      </g>
     </g>
     <g id="text_4">
      <!-- 750 -->
      <defs>
       <path d="M 8.203125 72.90625 
L 55.078125 72.90625 
L 55.078125 68.703125 
L 28.609375 0 
L 18.3125 0 
L 43.21875 64.59375 
L 8.203125 64.59375 
z
" id="DejaVuSans-37"/>
      </defs>
      <g transform="translate(308.023621 322.182437)scale(0.1 -0.1)">
       <use xlink:href="#DejaVuSans-37"/>
       <use x="63.623047" xlink:href="#DejaVuSans-35"/>
       <use x="127.246094" xlink:href="#DejaVuSans-30"/>
      </g>
     </g>
    </g>
    <g id="xtick_5">
     <g id="line2d_5">
      <g>
       <use style="stroke:#000000;stroke-width:0.8;" x="398.812252" xlink:href="#mfde0be08c6" y="307.584"/>
      </g>
     </g>
     <g id="text_5">
      <!-- 1000 -->
      <defs>
       <path d="M 12.40625 8.296875 
L 28.515625 8.296875 
L 28.515625 63.921875 
L 10.984375 60.40625 
L 10.984375 69.390625 
L 28.421875 72.90625 
L 38.28125 72.90625 
L 38.28125 8.296875 
L 54.390625 8.296875 
L 54.390625 0 
L 12.40625 0 
z
" id="DejaVuSans-31"/>
      </defs>
      <g transform="translate(386.087252 322.182437)scale(0.1 -0.1)">
       <use xlink:href="#DejaVuSans-31"/>
       <use x="63.623047" xlink:href="#DejaVuSans-30"/>
       <use x="127.246094" xlink:href="#DejaVuSans-30"/>
       <use x="190.869141" xlink:href="#DejaVuSans-30"/>
      </g>
     </g>
    </g>
    <g id="text_6">
     <!-- Steps -->
     <defs>
      <path d="M 53.515625 70.515625 
L 53.515625 60.890625 
Q 47.90625 63.578125 42.921875 64.890625 
Q 37.9375 66.21875 33.296875 66.21875 
Q 25.25 66.21875 20.875 63.09375 
Q 16.5 59.96875 16.5 54.203125 
Q 16.5 49.359375 19.40625 46.890625 
Q 22.3125 44.4375 30.421875 42.921875 
L 36.375 41.703125 
Q 47.40625 39.59375 52.65625 34.296875 
Q 57.90625 29 57.90625 20.125 
Q 57.90625 9.515625 50.796875 4.046875 
Q 43.703125 -1.421875 29.984375 -1.421875 
Q 24.8125 -1.421875 18.96875 -0.25 
Q 13.140625 0.921875 6.890625 3.21875 
L 6.890625 13.375 
Q 12.890625 10.015625 18.65625 8.296875 
Q 24.421875 6.59375 29.984375 6.59375 
Q 38.421875 6.59375 43.015625 9.90625 
Q 47.609375 13.234375 47.609375 19.390625 
Q 47.609375 24.75 44.3125 27.78125 
Q 41.015625 30.8125 33.5 32.328125 
L 27.484375 33.5 
Q 16.453125 35.6875 11.515625 40.375 
Q 6.59375 45.0625 6.59375 53.421875 
Q 6.59375 63.09375 13.40625 68.65625 
Q 20.21875 74.21875 32.171875 74.21875 
Q 37.3125 74.21875 42.625 73.28125 
Q 47.953125 72.359375 53.515625 70.515625 
z
" id="DejaVuSans-53"/>
      <path d="M 18.3125 70.21875 
L 18.3125 54.6875 
L 36.8125 54.6875 
L 36.8125 47.703125 
L 18.3125 47.703125 
L 18.3125 18.015625 
Q 18.3125 11.328125 20.140625 9.421875 
Q 21.96875 7.515625 27.59375 7.515625 
L 36.8125 7.515625 
L 36.8125 0 
L 27.59375 0 
Q 17.1875 0 13.234375 3.875 
Q 9.28125 7.765625 9.28125 18.015625 
L 9.28125 47.703125 
L 2.6875 47.703125 
L 2.6875 54.6875 
L 9.28125 54.6875 
L 9.28125 70.21875 
z
" id="DejaVuSans-74"/>
      <path d="M 56.203125 29.59375 
L 56.203125 25.203125 
L 14.890625 25.203125 
Q 15.484375 15.921875 20.484375 11.0625 
Q 25.484375 6.203125 34.421875 6.203125 
Q 39.59375 6.203125 44.453125 7.46875 
Q 49.3125 8.734375 54.109375 11.28125 
L 54.109375 2.78125 
Q 49.265625 0.734375 44.1875 -0.34375 
Q 39.109375 -1.421875 33.890625 -1.421875 
Q 20.796875 -1.421875 13.15625 6.1875 
Q 5.515625 13.8125 5.515625 26.8125 
Q 5.515625 40.234375 12.765625 48.109375 
Q 20.015625 56 32.328125 56 
Q 43.359375 56 49.78125 48.890625 
Q 56.203125 41.796875 56.203125 29.59375 
z
M 47.21875 32.234375 
Q 47.125 39.59375 43.09375 43.984375 
Q 39.0625 48.390625 32.421875 48.390625 
Q 24.90625 48.390625 20.390625 44.140625 
Q 15.875 39.890625 15.1875 32.171875 
z
" id="DejaVuSans-65"/>
      <path d="M 18.109375 8.203125 
L 18.109375 -20.796875 
L 9.078125 -20.796875 
L 9.078125 54.6875 
L 18.109375 54.6875 
L 18.109375 46.390625 
Q 20.953125 51.265625 25.265625 53.625 
Q 29.59375 56 35.59375 56 
Q 45.5625 56 51.78125 48.09375 
Q 58.015625 40.1875 58.015625 27.296875 
Q 58.015625 14.40625 51.78125 6.484375 
Q 45.5625 -1.421875 35.59375 -1.421875 
Q 29.59375 -1.421875 25.265625 0.953125 
Q 20.953125 3.328125 18.109375 8.203125 
z
M 48.6875 27.296875 
Q 48.6875 37.203125 44.609375 42.84375 
Q 40.53125 48.484375 33.40625 48.484375 
Q 26.265625 48.484375 22.1875 42.84375 
Q 18.109375 37.203125 18.109375 27.296875 
Q 18.109375 17.390625 22.1875 11.75 
Q 26.265625 6.109375 33.40625 6.109375 
Q 40.53125 6.109375 44.609375 11.75 
Q 48.6875 17.390625 48.6875 27.296875 
z
" id="DejaVuSans-70"/>
      <path d="M 44.28125 53.078125 
L 44.28125 44.578125 
Q 40.484375 46.53125 36.375 47.5 
Q 32.28125 48.484375 27.875 48.484375 
Q 21.1875 48.484375 17.84375 46.4375 
Q 14.5 44.390625 14.5 40.28125 
Q 14.5 37.15625 16.890625 35.375 
Q 19.28125 33.59375 26.515625 31.984375 
L 29.59375 31.296875 
Q 39.15625 29.25 43.1875 25.515625 
Q 47.21875 21.78125 47.21875 15.09375 
Q 47.21875 7.46875 41.1875 3.015625 
Q 35.15625 -1.421875 24.609375 -1.421875 
Q 20.21875 -1.421875 15.453125 -0.5625 
Q 10.6875 0.296875 5.421875 2 
L 5.421875 11.28125 
Q 10.40625 8.6875 15.234375 7.390625 
Q 20.0625 6.109375 24.8125 6.109375 
Q 31.15625 6.109375 34.5625 8.28125 
Q 37.984375 10.453125 37.984375 14.40625 
Q 37.984375 18.0625 35.515625 20.015625 
Q 33.0625 21.96875 24.703125 23.78125 
L 21.578125 24.515625 
Q 13.234375 26.265625 9.515625 29.90625 
Q 5.8125 33.546875 5.8125 39.890625 
Q 5.8125 47.609375 11.28125 51.796875 
Q 16.75 56 26.8125 56 
Q 31.78125 56 36.171875 55.265625 
Q 40.578125 54.546875 44.28125 53.078125 
z
" id="DejaVuSans-73"/>
     </defs>
     <g transform="translate(222.170156 335.860562)scale(0.1 -0.1)">
      <use xlink:href="#DejaVuSans-53"/>
      <use x="63.476562" xlink:href="#DejaVuSans-74"/>
      <use x="102.685547" xlink:href="#DejaVuSans-65"/>
      <use x="164.208984" xlink:href="#DejaVuSans-70"/>
      <use x="227.685547" xlink:href="#DejaVuSans-73"/>
     </g>
    </g>
   </g>
   <g id="matplotlib.axis_2">
    <g id="ytick_1">
     <g id="line2d_6">
      <defs>
       <path d="M 0 0 
L -3.5 0 
" id="m0b7ad4a948" style="stroke:#000000;stroke-width:0.8;"/>
      </defs>
      <g>
       <use style="stroke:#000000;stroke-width:0.8;" x="57.6" xlink:href="#m0b7ad4a948" y="307.584"/>
      </g>
     </g>
     <g id="text_7">
      <!-- 0 -->
      <g transform="translate(44.2375 311.383219)scale(0.1 -0.1)">
       <use xlink:href="#DejaVuSans-30"/>
      </g>
     </g>
    </g>
    <g id="ytick_2">
     <g id="line2d_7">
      <g>
       <use style="stroke:#000000;stroke-width:0.8;" x="57.6" xlink:href="#m0b7ad4a948" y="254.3616"/>
      </g>
     </g>
     <g id="text_8">
      <!-- 20 -->
      <g transform="translate(37.875 258.160819)scale(0.1 -0.1)">
       <use xlink:href="#DejaVuSans-32"/>
       <use x="63.623047" xlink:href="#DejaVuSans-30"/>
      </g>
     </g>
    </g>
    <g id="ytick_3">
     <g id="line2d_8">
      <g>
       <use style="stroke:#000000;stroke-width:0.8;" x="57.6" xlink:href="#m0b7ad4a948" y="201.1392"/>
      </g>
     </g>
     <g id="text_9">
      <!-- 40 -->
      <defs>
       <path d="M 37.796875 64.3125 
L 12.890625 25.390625 
L 37.796875 25.390625 
z
M 35.203125 72.90625 
L 47.609375 72.90625 
L 47.609375 25.390625 
L 58.015625 25.390625 
L 58.015625 17.1875 
L 47.609375 17.1875 
L 47.609375 0 
L 37.796875 0 
L 37.796875 17.1875 
L 4.890625 17.1875 
L 4.890625 26.703125 
z
" id="DejaVuSans-34"/>
      </defs>
      <g transform="translate(37.875 204.938419)scale(0.1 -0.1)">
       <use xlink:href="#DejaVuSans-34"/>
       <use x="63.623047" xlink:href="#DejaVuSans-30"/>
      </g>
     </g>
    </g>
    <g id="ytick_4">
     <g id="line2d_9">
      <g>
       <use style="stroke:#000000;stroke-width:0.8;" x="57.6" xlink:href="#m0b7ad4a948" y="147.9168"/>
      </g>
     </g>
     <g id="text_10">
      <!-- 60 -->
      <defs>
       <path d="M 33.015625 40.375 
Q 26.375 40.375 22.484375 35.828125 
Q 18.609375 31.296875 18.609375 23.390625 
Q 18.609375 15.53125 22.484375 10.953125 
Q 26.375 6.390625 33.015625 6.390625 
Q 39.65625 6.390625 43.53125 10.953125 
Q 47.40625 15.53125 47.40625 23.390625 
Q 47.40625 31.296875 43.53125 35.828125 
Q 39.65625 40.375 33.015625 40.375 
z
M 52.59375 71.296875 
L 52.59375 62.3125 
Q 48.875 64.0625 45.09375 64.984375 
Q 41.3125 65.921875 37.59375 65.921875 
Q 27.828125 65.921875 22.671875 59.328125 
Q 17.53125 52.734375 16.796875 39.40625 
Q 19.671875 43.65625 24.015625 45.921875 
Q 28.375 48.1875 33.59375 48.1875 
Q 44.578125 48.1875 50.953125 41.515625 
Q 57.328125 34.859375 57.328125 23.390625 
Q 57.328125 12.15625 50.6875 5.359375 
Q 44.046875 -1.421875 33.015625 -1.421875 
Q 20.359375 -1.421875 13.671875 8.265625 
Q 6.984375 17.96875 6.984375 36.375 
Q 6.984375 53.65625 15.1875 63.9375 
Q 23.390625 74.21875 37.203125 74.21875 
Q 40.921875 74.21875 44.703125 73.484375 
Q 48.484375 72.75 52.59375 71.296875 
z
" id="DejaVuSans-36"/>
      </defs>
      <g transform="translate(37.875 151.716019)scale(0.1 -0.1)">
       <use xlink:href="#DejaVuSans-36"/>
       <use x="63.623047" xlink:href="#DejaVuSans-30"/>
      </g>
     </g>
    </g>
    <g id="ytick_5">
     <g id="line2d_10">
      <g>
       <use style="stroke:#000000;stroke-width:0.8;" x="57.6" xlink:href="#m0b7ad4a948" y="94.6944"/>
      </g>
     </g>
     <g id="text_11">
      <!-- 80 -->
      <defs>
       <path d="M 31.78125 34.625 
Q 24.75 34.625 20.71875 30.859375 
Q 16.703125 27.09375 16.703125 20.515625 
Q 16.703125 13.921875 20.71875 10.15625 
Q 24.75 6.390625 31.78125 6.390625 
Q 38.8125 6.390625 42.859375 10.171875 
Q 46.921875 13.96875 46.921875 20.515625 
Q 46.921875 27.09375 42.890625 30.859375 
Q 38.875 34.625 31.78125 34.625 
z
M 21.921875 38.8125 
Q 15.578125 40.375 12.03125 44.71875 
Q 8.5 49.078125 8.5 55.328125 
Q 8.5 64.0625 14.71875 69.140625 
Q 20.953125 74.21875 31.78125 74.21875 
Q 42.671875 74.21875 48.875 69.140625 
Q 55.078125 64.0625 55.078125 55.328125 
Q 55.078125 49.078125 51.53125 44.71875 
Q 48 40.375 41.703125 38.8125 
Q 48.828125 37.15625 52.796875 32.3125 
Q 56.78125 27.484375 56.78125 20.515625 
Q 56.78125 9.90625 50.3125 4.234375 
Q 43.84375 -1.421875 31.78125 -1.421875 
Q 19.734375 -1.421875 13.25 4.234375 
Q 6.78125 9.90625 6.78125 20.515625 
Q 6.78125 27.484375 10.78125 32.3125 
Q 14.796875 37.15625 21.921875 38.8125 
z
M 18.3125 54.390625 
Q 18.3125 48.734375 21.84375 45.5625 
Q 25.390625 42.390625 31.78125 42.390625 
Q 38.140625 42.390625 41.71875 45.5625 
Q 45.3125 48.734375 45.3125 54.390625 
Q 45.3125 60.0625 41.71875 63.234375 
Q 38.140625 66.40625 31.78125 66.40625 
Q 25.390625 66.40625 21.84375 63.234375 
Q 18.3125 60.0625 18.3125 54.390625 
z
" id="DejaVuSans-38"/>
      </defs>
      <g transform="translate(37.875 98.493619)scale(0.1 -0.1)">
       <use xlink:href="#DejaVuSans-38"/>
       <use x="63.623047" xlink:href="#DejaVuSans-30"/>
      </g>
     </g>
    </g>
    <g id="ytick_6">
     <g id="line2d_11">
      <g>
       <use style="stroke:#000000;stroke-width:0.8;" x="57.6" xlink:href="#m0b7ad4a948" y="41.472"/>
      </g>
     </g>
     <g id="text_12">
      <!-- 100 -->
      <g transform="translate(31.5125 45.271219)scale(0.1 -0.1)">
       <use xlink:href="#DejaVuSans-31"/>
       <use x="63.623047" xlink:href="#DejaVuSans-30"/>
       <use x="127.246094" xlink:href="#DejaVuSans-30"/>
      </g>
     </g>
    </g>
    <g id="text_13">
     <!-- Optimal action (%) -->
     <defs>
      <path d="M 39.40625 66.21875 
Q 28.65625 66.21875 22.328125 58.203125 
Q 16.015625 50.203125 16.015625 36.375 
Q 16.015625 22.609375 22.328125 14.59375 
Q 28.65625 6.59375 39.40625 6.59375 
Q 50.140625 6.59375 56.421875 14.59375 
Q 62.703125 22.609375 62.703125 36.375 
Q 62.703125 50.203125 56.421875 58.203125 
Q 50.140625 66.21875 39.40625 66.21875 
z
M 39.40625 74.21875 
Q 54.734375 74.21875 63.90625 63.9375 
Q 73.09375 53.65625 73.09375 36.375 
Q 73.09375 19.140625 63.90625 8.859375 
Q 54.734375 -1.421875 39.40625 -1.421875 
Q 24.03125 -1.421875 14.8125 8.828125 
Q 5.609375 19.09375 5.609375 36.375 
Q 5.609375 53.65625 14.8125 63.9375 
Q 24.03125 74.21875 39.40625 74.21875 
z
" id="DejaVuSans-4f"/>
      <path d="M 9.421875 54.6875 
L 18.40625 54.6875 
L 18.40625 0 
L 9.421875 0 
z
M 9.421875 75.984375 
L 18.40625 75.984375 
L 18.40625 64.59375 
L 9.421875 64.59375 
z
" id="DejaVuSans-69"/>
      <path d="M 52 44.1875 
Q 55.375 50.25 60.0625 53.125 
Q 64.75 56 71.09375 56 
Q 79.640625 56 84.28125 50.015625 
Q 88.921875 44.046875 88.921875 33.015625 
L 88.921875 0 
L 79.890625 0 
L 79.890625 32.71875 
Q 79.890625 40.578125 77.09375 44.375 
Q 74.3125 48.1875 68.609375 48.1875 
Q 61.625 48.1875 57.5625 43.546875 
Q 53.515625 38.921875 53.515625 30.90625 
L 53.515625 0 
L 44.484375 0 
L 44.484375 32.71875 
Q 44.484375 40.625 41.703125 44.40625 
Q 38.921875 48.1875 33.109375 48.1875 
Q 26.21875 48.1875 22.15625 43.53125 
Q 18.109375 38.875 18.109375 30.90625 
L 18.109375 0 
L 9.078125 0 
L 9.078125 54.6875 
L 18.109375 54.6875 
L 18.109375 46.1875 
Q 21.1875 51.21875 25.484375 53.609375 
Q 29.78125 56 35.6875 56 
Q 41.65625 56 45.828125 52.96875 
Q 50 49.953125 52 44.1875 
z
" id="DejaVuSans-6d"/>
      <path d="M 34.28125 27.484375 
Q 23.390625 27.484375 19.1875 25 
Q 14.984375 22.515625 14.984375 16.5 
Q 14.984375 11.71875 18.140625 8.90625 
Q 21.296875 6.109375 26.703125 6.109375 
Q 34.1875 6.109375 38.703125 11.40625 
Q 43.21875 16.703125 43.21875 25.484375 
L 43.21875 27.484375 
z
M 52.203125 31.203125 
L 52.203125 0 
L 43.21875 0 
L 43.21875 8.296875 
Q 40.140625 3.328125 35.546875 0.953125 
Q 30.953125 -1.421875 24.3125 -1.421875 
Q 15.921875 -1.421875 10.953125 3.296875 
Q 6 8.015625 6 15.921875 
Q 6 25.140625 12.171875 29.828125 
Q 18.359375 34.515625 30.609375 34.515625 
L 43.21875 34.515625 
L 43.21875 35.40625 
Q 43.21875 41.609375 39.140625 45 
Q 35.0625 48.390625 27.6875 48.390625 
Q 23 48.390625 18.546875 47.265625 
Q 14.109375 46.140625 10.015625 43.890625 
L 10.015625 52.203125 
Q 14.9375 54.109375 19.578125 55.046875 
Q 24.21875 56 28.609375 56 
Q 40.484375 56 46.34375 49.84375 
Q 52.203125 43.703125 52.203125 31.203125 
z
" id="DejaVuSans-61"/>
      <path d="M 9.421875 75.984375 
L 18.40625 75.984375 
L 18.40625 0 
L 9.421875 0 
z
" id="DejaVuSans-6c"/>
      <path id="DejaVuSans-20"/>
      <path d="M 48.78125 52.59375 
L 48.78125 44.1875 
Q 44.96875 46.296875 41.140625 47.34375 
Q 37.3125 48.390625 33.40625 48.390625 
Q 24.65625 48.390625 19.8125 42.84375 
Q 14.984375 37.3125 14.984375 27.296875 
Q 14.984375 17.28125 19.8125 11.734375 
Q 24.65625 6.203125 33.40625 6.203125 
Q 37.3125 6.203125 41.140625 7.25 
Q 44.96875 8.296875 48.78125 10.40625 
L 48.78125 2.09375 
Q 45.015625 0.34375 40.984375 -0.53125 
Q 36.96875 -1.421875 32.421875 -1.421875 
Q 20.0625 -1.421875 12.78125 6.34375 
Q 5.515625 14.109375 5.515625 27.296875 
Q 5.515625 40.671875 12.859375 48.328125 
Q 20.21875 56 33.015625 56 
Q 37.15625 56 41.109375 55.140625 
Q 45.0625 54.296875 48.78125 52.59375 
z
" id="DejaVuSans-63"/>
      <path d="M 30.609375 48.390625 
Q 23.390625 48.390625 19.1875 42.75 
Q 14.984375 37.109375 14.984375 27.296875 
Q 14.984375 17.484375 19.15625 11.84375 
Q 23.34375 6.203125 30.609375 6.203125 
Q 37.796875 6.203125 41.984375 11.859375 
Q 46.1875 17.53125 46.1875 27.296875 
Q 46.1875 37.015625 41.984375 42.703125 
Q 37.796875 48.390625 30.609375 48.390625 
z
M 30.609375 56 
Q 42.328125 56 49.015625 48.375 
Q 55.71875 40.765625 55.71875 27.296875 
Q 55.71875 13.875 49.015625 6.21875 
Q 42.328125 -1.421875 30.609375 -1.421875 
Q 18.84375 -1.421875 12.171875 6.21875 
Q 5.515625 13.875 5.515625 27.296875 
Q 5.515625 40.765625 12.171875 48.375 
Q 18.84375 56 30.609375 56 
z
" id="DejaVuSans-6f"/>
      <path d="M 54.890625 33.015625 
L 54.890625 0 
L 45.90625 0 
L 45.90625 32.71875 
Q 45.90625 40.484375 42.875 44.328125 
Q 39.84375 48.1875 33.796875 48.1875 
Q 26.515625 48.1875 22.3125 43.546875 
Q 18.109375 38.921875 18.109375 30.90625 
L 18.109375 0 
L 9.078125 0 
L 9.078125 54.6875 
L 18.109375 54.6875 
L 18.109375 46.1875 
Q 21.34375 51.125 25.703125 53.5625 
Q 30.078125 56 35.796875 56 
Q 45.21875 56 50.046875 50.171875 
Q 54.890625 44.34375 54.890625 33.015625 
z
" id="DejaVuSans-6e"/>
      <path d="M 31 75.875 
Q 24.46875 64.65625 21.28125 53.65625 
Q 18.109375 42.671875 18.109375 31.390625 
Q 18.109375 20.125 21.3125 9.0625 
Q 24.515625 -2 31 -13.1875 
L 23.1875 -13.1875 
Q 15.875 -1.703125 12.234375 9.375 
Q 8.59375 20.453125 8.59375 31.390625 
Q 8.59375 42.28125 12.203125 53.3125 
Q 15.828125 64.359375 23.1875 75.875 
z
" id="DejaVuSans-28"/>
      <path d="M 72.703125 32.078125 
Q 68.453125 32.078125 66.03125 28.46875 
Q 63.625 24.859375 63.625 18.40625 
Q 63.625 12.0625 66.03125 8.421875 
Q 68.453125 4.78125 72.703125 4.78125 
Q 76.859375 4.78125 79.265625 8.421875 
Q 81.6875 12.0625 81.6875 18.40625 
Q 81.6875 24.8125 79.265625 28.4375 
Q 76.859375 32.078125 72.703125 32.078125 
z
M 72.703125 38.28125 
Q 80.421875 38.28125 84.953125 32.90625 
Q 89.5 27.546875 89.5 18.40625 
Q 89.5 9.28125 84.9375 3.921875 
Q 80.375 -1.421875 72.703125 -1.421875 
Q 64.890625 -1.421875 60.34375 3.921875 
Q 55.8125 9.28125 55.8125 18.40625 
Q 55.8125 27.59375 60.375 32.9375 
Q 64.9375 38.28125 72.703125 38.28125 
z
M 22.3125 68.015625 
Q 18.109375 68.015625 15.6875 64.375 
Q 13.28125 60.75 13.28125 54.390625 
Q 13.28125 47.953125 15.671875 44.328125 
Q 18.0625 40.71875 22.3125 40.71875 
Q 26.5625 40.71875 28.96875 44.328125 
Q 31.390625 47.953125 31.390625 54.390625 
Q 31.390625 60.6875 28.953125 64.34375 
Q 26.515625 68.015625 22.3125 68.015625 
z
M 66.40625 74.21875 
L 74.21875 74.21875 
L 28.609375 -1.421875 
L 20.796875 -1.421875 
z
M 22.3125 74.21875 
Q 30.03125 74.21875 34.609375 68.875 
Q 39.203125 63.53125 39.203125 54.390625 
Q 39.203125 45.171875 34.640625 39.84375 
Q 30.078125 34.515625 22.3125 34.515625 
Q 14.546875 34.515625 10.03125 39.859375 
Q 5.515625 45.21875 5.515625 54.390625 
Q 5.515625 63.484375 10.046875 68.84375 
Q 14.59375 74.21875 22.3125 74.21875 
z
" id="DejaVuSans-25"/>
      <path d="M 8.015625 75.875 
L 15.828125 75.875 
Q 23.140625 64.359375 26.78125 53.3125 
Q 30.421875 42.28125 30.421875 31.390625 
Q 30.421875 20.453125 26.78125 9.375 
Q 23.140625 -1.703125 15.828125 -13.1875 
L 8.015625 -13.1875 
Q 14.5 -2 17.703125 9.0625 
Q 20.90625 20.125 20.90625 31.390625 
Q 20.90625 42.671875 17.703125 53.65625 
Q 14.5 64.65625 8.015625 75.875 
z
" id="DejaVuSans-29"/>
     </defs>
     <g transform="translate(25.432812 221.531906)rotate(-90)scale(0.1 -0.1)">
      <use xlink:href="#DejaVuSans-4f"/>
      <use x="78.710938" xlink:href="#DejaVuSans-70"/>
      <use x="142.1875" xlink:href="#DejaVuSans-74"/>
      <use x="181.396484" xlink:href="#DejaVuSans-69"/>
      <use x="209.179688" xlink:href="#DejaVuSans-6d"/>
      <use x="306.591797" xlink:href="#DejaVuSans-61"/>
      <use x="367.871094" xlink:href="#DejaVuSans-6c"/>
      <use x="395.654297" xlink:href="#DejaVuSans-20"/>
      <use x="427.441406" xlink:href="#DejaVuSans-61"/>
      <use x="488.720703" xlink:href="#DejaVuSans-63"/>
      <use x="543.701172" xlink:href="#DejaVuSans-74"/>
      <use x="582.910156" xlink:href="#DejaVuSans-69"/>
      <use x="610.693359" xlink:href="#DejaVuSans-6f"/>
      <use x="671.875" xlink:href="#DejaVuSans-6e"/>
      <use x="735.253906" xlink:href="#DejaVuSans-20"/>
      <use x="767.041016" xlink:href="#DejaVuSans-28"/>
      <use x="806.054688" xlink:href="#DejaVuSans-25"/>
      <use x="901.074219" xlink:href="#DejaVuSans-29"/>
     </g>
    </g>
   </g>
   <g id="line2d_12">
    <path clip-path="url(#p98da7881d8)" d="M 73.832727 279.775294 
L 74.157707 281.37197 
L 74.482686 279.64224 
L 74.807666 281.63808 
L 75.132645 282.569473 
L 75.457625 282.436417 
L 75.782604 277.6464 
L 76.107584 281.505023 
L 76.432563 280.706687 
L 76.757543 282.436417 
L 77.082523 186.236932 
L 77.407502 200.740038 
L 77.732482 203.534212 
L 78.057461 203.401148 
L 78.382441 195.81696 
L 78.70742 195.950014 
L 79.0324 195.683906 
L 79.357379 194.220292 
L 79.682359 189.16416 
L 80.007338 188.232762 
L 80.657297 182.777468 
L 80.982277 181.047746 
L 81.307256 173.064376 
L 81.632236 174.128828 
L 81.957215 170.669374 
L 82.282195 172.931332 
L 82.607174 170.669374 
L 82.932154 166.810758 
L 83.257133 167.87521 
L 83.582113 166.810758 
L 83.907093 168.939642 
L 84.232072 170.004094 
L 84.557052 160.956292 
L 84.882031 159.625732 
L 85.207011 157.097656 
L 85.53199 158.694344 
L 85.85697 157.629892 
L 86.181949 155.634052 
L 86.506929 151.775426 
L 86.831908 152.57376 
L 87.481867 145.92096 
L 88.131826 148.981242 
L 88.456806 144.989572 
L 88.781785 147.517638 
L 89.106765 147.517638 
L 89.431744 149.646522 
L 89.756724 142.328452 
L 90.081704 143.392904 
L 90.406683 138.735924 
L 90.731663 139.26816 
L 91.056642 135.542588 
L 91.381622 137.9376 
L 91.706601 136.740084 
L 92.031581 133.812856 
L 92.35656 133.413704 
L 92.68154 136.740084 
L 93.006519 136.473976 
L 93.331499 135.27648 
L 93.656478 135.675632 
L 93.981458 133.812856 
L 94.306437 133.812856 
L 94.631417 130.885648 
L 94.956396 133.413704 
L 95.281376 131.95008 
L 95.606355 133.014532 
L 95.931335 126.760904 
L 96.256314 128.62368 
L 96.581294 129.555068 
L 96.906274 129.28896 
L 97.231253 128.490636 
L 97.556233 123.700612 
L 97.881212 124.365892 
L 98.206192 123.30144 
L 98.531171 122.769204 
L 98.856151 124.099784 
L 99.18113 121.438644 
L 99.50611 125.031172 
L 99.831089 123.30144 
L 100.156069 123.168376 
L 100.481048 121.3056 
L 100.806028 117.713072 
L 101.131007 121.438644 
L 101.455987 116.914748 
L 101.780966 114.120584 
L 102.105946 113.854476 
L 102.755905 115.717252 
L 103.080885 115.31808 
L 103.405864 111.858636 
L 103.730844 111.459464 
L 104.055823 111.858636 
L 104.380803 116.382532 
L 104.705782 116.781704 
L 105.030762 118.245308 
L 105.355741 115.051972 
L 106.0057 112.923068 
L 106.33068 113.189196 
L 106.655659 113.189196 
L 106.980639 114.386692 
L 107.305618 114.785864 
L 107.630598 114.6528 
L 107.955577 113.721412 
L 108.605536 110.395012 
L 108.930516 111.193356 
L 109.255495 108.133064 
L 109.580475 111.725572 
L 109.905455 110.128904 
L 110.230434 109.463624 
L 110.555414 111.592508 
L 110.880393 109.463624 
L 111.205373 108.532216 
L 111.530352 106.802504 
L 111.855332 109.862796 
L 112.505291 105.33888 
L 113.15525 109.862796 
L 113.480229 108.798344 
L 113.805209 110.794184 
L 114.130188 104.407492 
L 114.455168 105.33888 
L 114.780147 108.133064 
L 115.105127 106.66944 
L 115.430106 108.66528 
L 115.755086 104.6736 
L 116.080066 105.871096 
L 116.405045 104.939708 
L 116.730025 106.536376 
L 117.055004 106.137204 
L 117.379984 103.609148 
L 117.704963 106.536376 
L 118.029943 105.738052 
L 118.354922 100.814964 
L 118.679902 100.282748 
L 119.004881 99.218296 
L 119.329861 102.544696 
L 119.65484 103.209976 
L 119.97982 102.943868 
L 120.304799 104.141364 
L 120.629779 102.411632 
L 120.954758 99.484424 
L 121.279738 99.617468 
L 121.604717 98.68608 
L 121.929697 99.484424 
L 122.254676 97.621648 
L 122.579656 96.956368 
L 122.904636 97.089412 
L 123.229615 98.153864 
L 123.554595 97.089412 
L 123.879574 99.750532 
L 124.204554 99.218296 
L 124.529533 98.0208 
L 124.854513 99.35136 
L 125.179492 101.746352 
L 125.504472 98.419972 
L 125.829451 100.548856 
L 126.154431 98.419972 
L 126.47941 98.952188 
L 126.80439 100.548856 
L 127.129369 99.218296 
L 127.454349 98.553036 
L 127.779328 99.35136 
L 128.104308 98.153864 
L 128.429287 96.02496 
L 128.754267 96.557196 
L 129.079247 98.153864 
L 129.729206 94.561356 
L 130.054185 97.35552 
L 130.379165 97.621648 
L 130.704144 98.153864 
L 131.029124 96.02496 
L 131.354103 97.887756 
L 131.679083 98.553036 
L 132.004062 98.286928 
L 132.329042 96.158024 
L 132.979001 93.36384 
L 133.30398 93.763012 
L 133.62896 93.763012 
L 133.953939 94.295228 
L 134.278919 90.835784 
L 134.603898 94.960508 
L 134.928878 92.831624 
L 135.253857 94.162184 
L 135.578837 96.291068 
L 136.228796 94.02912 
L 136.553776 95.891916 
L 137.203735 92.964668 
L 137.528714 91.368 
L 137.853694 91.368 
L 138.178673 91.634108 
L 138.503653 93.230796 
L 138.828632 92.831624 
L 139.153612 93.496904 
L 139.478591 91.101892 
L 139.803571 90.303548 
L 140.12855 95.226636 
L 140.45353 90.968828 
L 140.778509 92.166344 
L 141.428468 89.904376 
L 141.753448 92.166344 
L 142.078428 91.368 
L 142.403407 91.634108 
L 142.728387 93.36384 
L 143.053366 93.230796 
L 143.378346 88.972988 
L 143.703325 89.239096 
L 144.028305 90.70272 
L 144.353284 88.307708 
L 144.678264 92.964668 
L 145.328223 91.234936 
L 145.653202 89.505204 
L 145.978182 92.831624 
L 146.303161 90.436612 
L 146.628141 92.166344 
L 146.95312 90.569656 
L 147.2781 91.767172 
L 147.603079 89.638268 
L 147.928059 91.234936 
L 148.578018 88.573816 
L 149.227977 92.03328 
L 149.552957 91.900216 
L 149.877936 91.234936 
L 150.202916 90.303548 
L 150.527895 90.03744 
L 150.852875 88.972988 
L 151.177854 90.303548 
L 151.502834 90.303548 
L 151.827813 88.0416 
L 152.152793 88.0416 
L 152.477772 87.37632 
L 152.802752 90.436612 
L 153.127731 92.166344 
L 153.452711 89.904376 
L 153.77769 88.573816 
L 154.10267 88.70688 
L 154.427649 88.972988 
L 155.402588 87.908536 
L 155.727568 85.912696 
L 156.052547 86.444932 
L 156.377527 85.779632 
L 156.702506 85.779632 
L 157.027486 85.912696 
L 157.352465 91.101892 
L 158.002424 86.844084 
L 158.327404 85.779632 
L 158.977363 86.444932 
L 159.302342 87.37632 
L 159.627322 87.908536 
L 160.277281 83.517704 
L 160.60226 82.985468 
L 160.92724 84.981308 
L 161.252219 85.912696 
L 161.577199 86.178804 
L 161.902179 83.118532 
L 162.227158 84.04992 
L 162.552138 86.311868 
L 162.877117 84.981308 
L 163.202097 85.912696 
L 163.527076 85.247416 
L 163.852056 87.110212 
L 164.177035 86.71104 
L 164.502015 88.0416 
L 164.826994 87.509364 
L 165.151974 88.174644 
L 165.476953 86.04576 
L 165.801933 85.513524 
L 166.126912 87.110212 
L 166.451892 85.247416 
L 166.776871 85.114352 
L 167.101851 83.916856 
L 167.42683 82.187144 
L 167.75181 82.71936 
L 168.07679 82.71936 
L 168.401769 83.251576 
L 168.726749 84.182964 
L 169.376708 84.7152 
L 169.701687 86.844084 
L 170.026667 86.178804 
L 170.351646 86.577976 
L 170.676626 87.509364 
L 171.326585 82.852424 
L 171.651564 82.852424 
L 171.976544 84.316028 
L 172.301523 81.654928 
L 172.626503 83.517704 
L 172.951482 82.320188 
L 173.276462 81.921036 
L 173.601441 83.38464 
L 173.926421 83.650748 
L 174.2514 84.182964 
L 174.57638 85.513524 
L 175.226339 84.449072 
L 176.201278 79.792132 
L 176.526257 82.71936 
L 176.851237 80.05824 
L 177.176216 81.122692 
L 177.501196 81.787972 
L 177.826175 81.255756 
L 178.151155 81.3888 
L 178.476134 80.191304 
L 178.801114 83.783812 
L 179.451073 80.324368 
L 179.776052 83.251576 
L 180.101032 82.985468 
L 180.750991 81.3888 
L 181.075971 81.521864 
L 181.40095 84.848244 
L 181.72593 81.521864 
L 182.050909 82.985468 
L 182.375889 81.654928 
L 182.700868 82.187144 
L 183.025848 81.521864 
L 183.350827 81.521864 
L 184.000786 79.792132 
L 184.325766 79.526024 
L 184.650745 80.72352 
L 184.975725 79.792132 
L 185.300704 80.324368 
L 185.625684 80.191304 
L 185.950663 79.39296 
L 186.600622 80.856584 
L 186.925602 80.324368 
L 187.250581 81.3888 
L 187.575561 79.126852 
L 187.900541 78.860744 
L 188.22552 79.259916 
L 188.5505 78.0624 
L 188.875479 80.72352 
L 189.525438 79.526024 
L 189.850418 77.663228 
L 190.500377 79.659068 
L 190.825356 77.39712 
L 191.150336 77.131012 
L 191.475315 76.598796 
L 191.800295 76.864904 
L 192.125274 76.199624 
L 192.775233 78.328508 
L 193.100213 76.997948 
L 193.425192 76.997948 
L 193.750172 79.126852 
L 194.075152 80.05824 
L 194.400131 79.126852 
L 194.725111 79.526024 
L 195.05009 78.461572 
L 195.37507 80.324368 
L 195.700049 77.39712 
L 196.025029 77.663228 
L 196.350008 76.997948 
L 196.674988 77.264076 
L 197.324947 80.05824 
L 197.649926 78.594636 
L 198.299885 80.989648 
L 198.624865 78.594636 
L 198.949844 78.594636 
L 199.274824 78.0624 
L 199.599803 81.122692 
L 199.924783 78.461572 
L 200.574742 77.796292 
L 200.899722 79.259916 
L 201.224701 79.792132 
L 201.549681 78.860744 
L 201.87466 79.126852 
L 202.19964 77.264076 
L 202.524619 79.925196 
L 202.849599 79.259916 
L 203.174578 81.122692 
L 203.499558 79.526024 
L 203.824537 82.320188 
L 204.149517 81.255756 
L 204.474496 78.860744 
L 204.799476 80.590476 
L 205.124455 80.457412 
L 205.774414 78.195464 
L 206.099394 81.255756 
L 206.424373 76.997948 
L 206.749353 78.195464 
L 207.074333 78.461572 
L 207.399312 77.663228 
L 207.724292 80.457412 
L 208.049271 80.324368 
L 208.374251 81.255756 
L 209.02421 76.864904 
L 209.349189 78.328508 
L 209.674169 81.255756 
L 210.324128 79.39296 
L 210.649107 78.461572 
L 210.974087 79.792132 
L 211.299066 80.05824 
L 211.949025 78.72768 
L 212.274005 78.328508 
L 212.598984 80.989648 
L 212.923964 79.126852 
L 213.248943 79.792132 
L 213.573923 77.39712 
L 213.898903 78.594636 
L 214.223882 77.530184 
L 214.548862 76.864904 
L 214.873841 76.465732 
L 215.198821 76.598796 
L 215.5238 75.800452 
L 215.84878 75.933496 
L 216.173759 74.602936 
L 216.823718 77.131012 
L 217.148698 76.465732 
L 217.473677 73.804612 
L 217.798657 74.336828 
L 218.123636 75.534344 
L 218.448616 76.199624 
L 218.773595 74.203784 
L 219.098575 76.864904 
L 219.423554 76.199624 
L 219.748534 76.465732 
L 220.073514 78.328508 
L 220.398493 75.800452 
L 220.723473 77.264076 
L 221.048452 75.933496 
L 221.373432 75.40128 
L 221.698411 77.131012 
L 222.023391 77.264076 
L 222.34837 76.465732 
L 222.67335 77.796292 
L 222.998329 77.530184 
L 223.323309 78.461572 
L 223.648288 80.989648 
L 223.973268 77.39712 
L 224.298247 75.667388 
L 224.623227 78.594636 
L 224.948206 75.800452 
L 225.273186 75.534344 
L 225.598165 76.864904 
L 225.923145 74.736 
L 226.248124 76.199624 
L 226.573104 74.07072 
L 226.898084 75.667388 
L 227.223063 75.800452 
L 227.548043 76.997948 
L 227.873022 76.598796 
L 228.198002 76.598796 
L 228.522981 75.135172 
L 228.847961 74.602936 
L 229.17294 74.602936 
L 229.49792 74.736 
L 229.822899 77.663228 
L 230.147879 76.598796 
L 230.472858 76.73184 
L 230.797838 75.40128 
L 231.122817 75.135172 
L 231.447797 71.808772 
L 231.772776 72.340988 
L 232.097756 74.336828 
L 232.422735 73.272376 
L 232.747715 73.272376 
L 233.072695 75.667388 
L 233.397674 75.667388 
L 233.722654 78.195464 
L 234.047633 76.332668 
L 234.372613 76.73184 
L 235.022572 74.07072 
L 235.347551 75.268216 
L 235.672531 74.736 
L 235.99751 74.469892 
L 236.32249 74.736 
L 236.647469 74.07072 
L 236.972449 74.336828 
L 237.297428 73.538504 
L 238.272367 76.199624 
L 238.597346 77.663228 
L 238.922326 78.461572 
L 239.247305 76.598796 
L 239.572285 76.73184 
L 239.897265 76.465732 
L 240.222244 78.195464 
L 240.547224 75.667388 
L 240.872203 76.199624 
L 241.197183 75.933496 
L 241.522162 76.332668 
L 241.847142 77.131012 
L 242.497101 76.465732 
L 242.82208 75.534344 
L 243.14706 76.864904 
L 243.472039 77.264076 
L 243.797019 79.39296 
L 244.121998 77.530184 
L 244.446978 79.126852 
L 244.771957 79.925196 
L 245.421916 76.199624 
L 245.746896 77.264076 
L 246.071876 78.860744 
L 246.396855 77.530184 
L 246.721835 75.667388 
L 247.046814 75.135172 
L 247.371794 76.997948 
L 247.696773 76.598796 
L 248.021753 76.465732 
L 248.346732 77.530184 
L 248.671712 77.663228 
L 248.996691 76.06656 
L 249.321671 76.199624 
L 249.64665 78.0624 
L 249.97163 75.534344 
L 250.296609 78.328508 
L 250.621589 77.530184 
L 250.946568 74.736 
L 251.271548 73.671548 
L 251.596527 75.667388 
L 251.921507 73.671548 
L 252.246486 74.07072 
L 252.571466 73.804612 
L 252.896446 75.268216 
L 253.546405 76.06656 
L 253.871384 75.002108 
L 254.196364 74.336828 
L 254.521343 74.602936 
L 254.846323 74.602936 
L 255.171302 75.002108 
L 255.496282 74.736 
L 255.821261 76.997948 
L 256.146241 76.332668 
L 256.47122 75.268216 
L 256.7962 76.332668 
L 257.121179 76.73184 
L 257.446159 76.598796 
L 258.096118 75.667388 
L 258.421097 74.869064 
L 258.746077 76.199624 
L 259.071057 76.06656 
L 259.396036 75.268216 
L 259.721016 75.933496 
L 260.045995 77.131012 
L 260.370975 75.002108 
L 260.695954 76.997948 
L 261.020934 74.602936 
L 261.345913 75.667388 
L 261.995872 73.006268 
L 262.320852 76.465732 
L 262.645831 75.534344 
L 262.970811 75.667388 
L 263.29579 78.860744 
L 263.62077 74.736 
L 263.945749 75.268216 
L 264.270729 76.332668 
L 264.920688 77.264076 
L 265.245667 76.997948 
L 265.570647 75.268216 
L 265.895627 74.336828 
L 266.545586 78.0624 
L 266.870565 76.465732 
L 267.195545 76.73184 
L 267.520524 76.06656 
L 267.845504 75.667388 
L 268.170483 77.131012 
L 268.495463 76.199624 
L 268.820442 76.997948 
L 269.145422 76.864904 
L 269.470401 76.465732 
L 269.795381 75.667388 
L 270.12036 75.534344 
L 270.770319 77.39712 
L 271.095299 74.469892 
L 271.420278 75.933496 
L 271.745258 75.002108 
L 272.070238 75.268216 
L 272.395217 76.73184 
L 272.720197 76.864904 
L 273.370156 75.667388 
L 273.695135 75.667388 
L 274.020115 76.06656 
L 274.345094 73.937656 
L 274.670074 73.40544 
L 274.995053 73.671548 
L 275.645012 72.607096 
L 275.969992 74.869064 
L 276.294971 74.203784 
L 276.619951 74.869064 
L 276.94493 73.139332 
L 277.26991 73.40544 
L 277.594889 72.74016 
L 277.919869 72.74016 
L 278.244848 71.941816 
L 278.569828 73.006268 
L 278.894808 71.143492 
L 279.219787 70.212084 
L 279.869746 70.74432 
L 280.194726 70.74432 
L 280.519705 72.207924 
L 280.844685 71.808772 
L 281.169664 71.808772 
L 281.494644 70.478212 
L 281.819623 71.542644 
L 282.144603 73.139332 
L 282.469582 73.40544 
L 282.794562 72.607096 
L 283.119541 73.272376 
L 283.444521 72.340988 
L 283.7695 70.345148 
L 284.419459 70.611256 
L 284.744439 70.611256 
L 285.069419 70.07904 
L 285.394398 70.345148 
L 285.719378 69.812932 
L 286.044357 71.542644 
L 286.369337 70.07904 
L 286.694316 72.207924 
L 287.019296 72.74016 
L 287.344275 70.877364 
L 287.669255 70.74432 
L 287.994234 71.4096 
L 288.319214 71.808772 
L 288.644193 69.945976 
L 288.969173 69.812932 
L 289.294152 70.74432 
L 289.619132 70.478212 
L 289.944111 71.010428 
L 290.269091 71.143492 
L 290.59407 69.280696 
L 291.244029 69.546804 
L 291.569009 68.482352 
L 291.893989 69.280696 
L 292.543948 69.812932 
L 293.193907 68.482352 
L 293.518886 69.812932 
L 293.843866 67.950136 
L 294.168845 67.817072 
L 294.493825 65.821252 
L 294.818804 66.885704 
L 295.143784 65.022928 
L 295.468763 65.821252 
L 295.793743 67.151812 
L 296.118722 66.486532 
L 296.443702 66.75264 
L 296.768681 66.486532 
L 297.093661 65.155972 
L 297.41864 65.821252 
L 297.74362 69.014588 
L 298.393579 69.679868 
L 298.718559 71.143492 
L 299.043538 69.679868 
L 299.368518 69.280696 
L 299.693497 67.950136 
L 300.018477 68.482352 
L 300.343456 66.885704 
L 300.668436 68.349308 
L 300.993415 68.615416 
L 301.318395 68.216244 
L 301.643374 68.216244 
L 301.968354 67.817072 
L 302.293333 68.615416 
L 302.618313 68.615416 
L 302.943292 68.216244 
L 303.268272 70.212084 
L 303.593251 68.0832 
L 303.918231 69.147632 
L 304.24321 68.74848 
L 304.56819 69.546804 
L 304.89317 69.546804 
L 305.218149 69.679868 
L 305.543129 68.0832 
L 305.868108 69.546804 
L 306.193088 69.945976 
L 306.518067 69.812932 
L 307.168026 68.615416 
L 307.493006 68.615416 
L 307.817985 70.611256 
L 308.142965 70.345148 
L 308.467944 70.74432 
L 308.792924 70.877364 
L 309.117903 70.877364 
L 309.442883 68.881524 
L 309.767862 68.482352 
L 310.092842 69.945976 
L 310.417821 69.147632 
L 310.742801 69.945976 
L 311.067781 70.212084 
L 311.39276 71.010428 
L 311.71774 68.74848 
L 312.042719 68.482352 
L 312.692678 69.147632 
L 313.017658 68.74848 
L 313.342637 67.684028 
L 313.667617 69.41376 
L 314.317576 70.07904 
L 314.642555 68.349308 
L 314.967535 67.950136 
L 315.292514 69.945976 
L 315.617494 70.212084 
L 315.942473 71.143492 
L 316.267453 69.812932 
L 316.592432 71.4096 
L 316.917412 71.675708 
L 317.242391 69.945976 
L 317.567371 69.014588 
L 317.892351 69.546804 
L 318.21733 71.542644 
L 318.54231 69.41376 
L 318.867289 68.881524 
L 319.192269 67.550964 
L 319.517248 67.41792 
L 319.842228 68.482352 
L 320.167207 67.550964 
L 320.492187 69.41376 
L 320.817166 67.950136 
L 321.142146 67.41792 
L 321.467125 67.550964 
L 321.792105 68.216244 
L 322.117084 66.75264 
L 322.442064 66.353468 
L 322.767043 68.482352 
L 323.092023 67.950136 
L 323.417002 66.353468 
L 323.741982 67.151812 
L 324.066962 67.018748 
L 324.391941 67.41792 
L 324.716921 70.212084 
L 325.0419 67.950136 
L 325.36688 68.881524 
L 325.691859 69.014588 
L 326.016839 69.812932 
L 326.341818 67.950136 
L 326.666798 66.75264 
L 326.991777 69.147632 
L 327.641736 68.216244 
L 327.966716 69.41376 
L 328.291695 67.950136 
L 328.616675 67.151812 
L 328.941654 69.41376 
L 329.591613 68.0832 
L 329.916593 69.679868 
L 330.241572 68.615416 
L 330.566552 68.615416 
L 330.891532 67.41792 
L 331.216511 68.482352 
L 331.541491 69.147632 
L 331.86647 68.74848 
L 332.19145 67.817072 
L 332.516429 66.486532 
L 332.841409 67.284856 
L 333.166388 66.220424 
L 333.491368 68.74848 
L 333.816347 68.0832 
L 334.141327 68.881524 
L 334.466306 70.212084 
L 334.791286 69.280696 
L 335.116265 66.885704 
L 335.441245 68.216244 
L 335.766224 67.284856 
L 336.091204 65.555144 
L 336.416183 66.885704 
L 336.741163 65.954296 
L 337.066143 66.220424 
L 337.391122 68.216244 
L 337.716102 67.151812 
L 338.041081 67.41792 
L 338.69104 65.555144 
L 339.01602 67.550964 
L 339.340999 68.482352 
L 339.665979 66.619576 
L 339.990958 66.885704 
L 340.315938 67.41792 
L 340.640917 66.08736 
L 340.965897 66.885704 
L 341.290876 66.353468 
L 341.615856 65.555144 
L 341.940835 66.220424 
L 342.265815 68.349308 
L 342.590794 66.619576 
L 342.915774 65.555144 
L 343.240753 68.615416 
L 343.565733 67.151812 
L 343.890713 66.75264 
L 344.215692 68.0832 
L 344.540672 68.216244 
L 344.865651 68.482352 
L 345.190631 68.482352 
L 345.51561 67.684028 
L 345.84059 68.349308 
L 346.165569 67.950136 
L 346.490549 66.486532 
L 346.815528 66.619576 
L 347.140508 67.018748 
L 347.465487 67.684028 
L 347.790467 66.75264 
L 348.115446 67.684028 
L 348.440426 69.945976 
L 348.765405 68.482352 
L 349.090385 67.550964 
L 349.415364 67.817072 
L 350.065324 69.679868 
L 350.390303 67.41792 
L 350.715283 68.349308 
L 351.040262 68.216244 
L 351.690221 68.615416 
L 352.015201 66.75264 
L 352.34018 67.550964 
L 352.66516 67.018748 
L 352.990139 68.216244 
L 353.315119 67.950136 
L 353.640098 69.945976 
L 353.965078 68.74848 
L 354.290057 69.280696 
L 354.615037 69.014588 
L 354.940016 69.280696 
L 355.264996 69.945976 
L 355.589975 69.147632 
L 355.914955 69.546804 
L 356.239934 69.280696 
L 356.564914 70.611256 
L 357.214873 67.41792 
L 357.539853 67.151812 
L 358.189812 68.881524 
L 358.514791 66.75264 
L 358.839771 65.954296 
L 359.16475 66.75264 
L 359.48973 68.216244 
L 359.814709 66.75264 
L 360.139689 67.284856 
L 360.464668 67.284856 
L 360.789648 67.684028 
L 361.114627 68.349308 
L 361.439607 66.885704 
L 361.764586 68.216244 
L 362.089566 68.216244 
L 362.739525 70.07904 
L 363.389484 67.284856 
L 363.714464 68.74848 
L 364.039443 69.014588 
L 364.364423 70.212084 
L 364.689402 69.147632 
L 365.014382 68.615416 
L 365.339361 69.546804 
L 365.664341 69.014588 
L 365.98932 69.280696 
L 366.3143 68.482352 
L 366.639279 68.216244 
L 366.964259 68.74848 
L 367.289238 69.679868 
L 367.614218 70.212084 
L 367.939197 69.280696 
L 368.264177 71.143492 
L 368.589156 71.808772 
L 368.914136 70.345148 
L 369.239115 70.478212 
L 369.564095 68.216244 
L 369.889075 70.07904 
L 370.214054 69.280696 
L 370.539034 70.611256 
L 370.864013 70.212084 
L 371.188993 70.07904 
L 371.513972 69.014588 
L 371.838952 70.07904 
L 372.163931 68.482352 
L 372.488911 68.0832 
L 372.81389 67.151812 
L 373.13887 68.881524 
L 373.463849 67.950136 
L 373.788829 70.212084 
L 374.113808 69.41376 
L 374.438788 70.07904 
L 374.763767 68.881524 
L 375.088747 69.280696 
L 375.413726 67.550964 
L 376.063686 67.151812 
L 376.388665 68.74848 
L 377.038624 67.950136 
L 377.363604 69.014588 
L 377.688583 67.950136 
L 378.013563 68.881524 
L 378.338542 68.216244 
L 378.663522 68.0832 
L 378.988501 68.881524 
L 379.313481 67.41792 
L 379.63846 67.151812 
L 379.96344 68.216244 
L 380.613399 68.615416 
L 380.938378 67.41792 
L 381.263358 66.885704 
L 381.588337 67.684028 
L 381.913317 66.75264 
L 382.238296 66.75264 
L 382.563276 67.41792 
L 382.888256 66.885704 
L 383.213235 67.018748 
L 383.538215 67.41792 
L 383.863194 66.353468 
L 384.188174 66.353468 
L 384.513153 65.821252 
L 384.838133 65.022928 
L 385.163112 65.555144 
L 385.488092 67.018748 
L 385.813071 67.817072 
L 386.138051 67.817072 
L 386.46303 67.550964 
L 386.78801 68.74848 
L 387.112989 67.284856 
L 387.437969 69.147632 
L 387.762948 69.679868 
L 388.087928 66.885704 
L 388.412907 67.684028 
L 388.737887 65.954296 
L 389.062867 67.018748 
L 389.387846 67.41792 
L 389.712826 65.688188 
L 390.362785 67.817072 
L 391.012744 67.41792 
L 391.337723 66.353468 
L 391.662703 66.220424 
L 391.987682 68.216244 
L 392.312662 67.684028 
L 392.637641 68.216244 
L 392.962621 67.151812 
L 393.2876 68.216244 
L 393.937559 66.486532 
L 394.262539 66.885704 
L 394.587518 65.688188 
L 394.912498 66.486532 
L 395.237477 65.954296 
L 395.562457 65.155972 
L 395.887437 64.7568 
L 396.537396 63.42624 
L 396.862375 62.894024 
L 397.512334 65.42208 
L 397.837314 65.688188 
L 398.162293 65.688188 
L 398.487273 66.353468 
L 398.487273 66.353468 
" style="fill:none;stroke:#1f77b4;stroke-linecap:square;stroke-width:1.5;"/>
   </g>
   <g id="line2d_13">
    <path clip-path="url(#p98da7881d8)" d="M 73.832727 281.105857 
L 74.807666 256.224381 
L 76.432563 235.467647 
L 76.757543 234.802367 
L 77.732482 225.621506 
L 78.057461 224.690108 
L 78.382441 219.500932 
L 78.70742 220.299266 
L 79.0324 218.968706 
L 79.357379 218.170372 
L 79.682359 214.977026 
L 80.007338 215.243134 
L 80.332318 215.243134 
L 80.657297 214.977026 
L 80.982277 212.44896 
L 81.307256 210.985346 
L 81.632236 207.792 
L 81.957215 209.12256 
L 82.282195 209.654786 
L 82.607174 207.792 
L 82.932154 206.727548 
L 83.582113 204.066428 
L 83.907093 204.199482 
L 84.232072 203.001986 
L 84.557052 203.80032 
L 84.882031 198.611134 
L 85.207011 199.941694 
L 85.53199 199.80864 
L 85.85697 200.074748 
L 86.181949 199.675586 
L 86.506929 199.010306 
L 86.831908 198.611134 
L 87.156888 195.950014 
L 87.481867 195.15168 
L 87.806847 193.288894 
L 88.131826 195.15168 
L 88.456806 194.885572 
L 88.781785 192.357506 
L 89.106765 193.022786 
L 89.431744 188.898042 
L 89.756724 192.49056 
L 90.406683 186.103878 
L 90.731663 184.5072 
L 91.056642 187.301374 
L 91.381622 183.974974 
L 91.706601 185.83776 
L 92.031581 184.906372 
L 92.35656 182.777468 
L 92.68154 183.043586 
L 93.006519 181.446908 
L 93.331499 181.979134 
L 93.656478 181.84608 
L 93.981458 180.249402 
L 94.306437 181.84608 
L 94.631417 179.18496 
L 94.956396 178.120518 
L 95.281376 177.721346 
L 95.606355 176.257732 
L 95.931335 176.257732 
L 96.256314 175.991614 
L 96.581294 176.789958 
L 96.906274 174.261892 
L 97.231253 174.794108 
L 97.556233 174.394936 
L 97.881212 173.596612 
L 98.206192 171.334654 
L 98.531171 171.86688 
L 98.856151 170.669374 
L 99.18113 170.802428 
L 99.50611 172.798268 
L 100.481048 170.270212 
L 100.806028 168.008254 
L 101.131007 166.810758 
L 101.455987 168.806598 
L 102.105946 166.278522 
L 102.430925 166.012414 
L 102.755905 165.081026 
L 103.080885 165.480198 
L 103.405864 166.54465 
L 103.730844 164.016574 
L 104.055823 163.085186 
L 104.380803 162.686014 
L 104.705782 164.415746 
L 105.030762 162.020734 
L 105.355741 163.750466 
L 105.680721 162.819068 
L 106.0057 160.690184 
L 106.33068 160.956292 
L 106.655659 161.488508 
L 106.980639 162.286852 
L 107.305618 157.896 
L 107.630598 158.029064 
L 107.955577 160.291012 
L 108.280557 158.029064 
L 108.605536 157.896 
L 108.930516 153.90432 
L 109.255495 156.698504 
L 109.580475 155.90016 
L 109.905455 155.500988 
L 110.230434 157.762936 
L 110.555414 156.964612 
L 110.880393 153.771266 
L 111.205373 156.831548 
L 111.530352 154.835708 
L 111.855332 154.436536 
L 112.180311 151.24321 
L 112.505291 150.178758 
L 112.83027 154.5696 
L 113.15525 154.835708 
L 113.480229 152.706814 
L 113.805209 151.90849 
L 114.130188 153.90432 
L 114.455168 150.311802 
L 114.780147 152.307642 
L 115.105127 147.517638 
L 115.755086 152.972932 
L 116.080066 147.91679 
L 116.405045 148.58207 
L 116.730025 150.710974 
L 117.055004 147.91679 
L 117.379984 148.449026 
L 117.704963 149.646522 
L 118.029943 149.380414 
L 118.354922 149.646522 
L 118.679902 147.517638 
L 119.004881 146.58624 
L 119.329861 149.24735 
L 119.97982 145.654852 
L 120.304799 145.25568 
L 120.629779 142.195388 
L 120.954758 142.993732 
L 121.604717 145.25568 
L 121.929697 140.332612 
L 122.254676 143.525948 
L 122.579656 139.667332 
L 122.904636 142.727624 
L 123.229615 141.397064 
L 123.554595 141.530108 
L 123.879574 142.328452 
L 124.529533 139.135096 
L 124.854513 139.401204 
L 125.179492 141.92928 
L 125.504472 137.405374 
L 125.829451 139.93344 
L 126.154431 140.731784 
L 126.47941 140.465656 
L 126.80439 136.873148 
L 127.129369 139.401204 
L 127.454349 139.534268 
L 127.779328 139.93344 
L 128.104308 136.340932 
L 128.429287 138.070654 
L 128.754267 136.340932 
L 129.079247 135.409524 
L 129.404226 137.804536 
L 129.729206 135.542588 
L 130.054185 136.074804 
L 130.379165 135.542588 
L 130.704144 136.60704 
L 131.029124 136.60704 
L 131.679083 136.340932 
L 132.004062 135.409524 
L 132.329042 138.469816 
L 132.654021 134.744244 
L 132.979001 135.143416 
L 133.30398 133.812856 
L 133.62896 135.542588 
L 133.953939 136.074804 
L 134.278919 135.94176 
L 134.603898 135.675632 
L 134.928878 135.94176 
L 135.253857 138.60288 
L 135.903817 131.550928 
L 136.228796 134.345072 
L 136.553776 134.877308 
L 136.878755 130.752584 
L 137.203735 133.147576 
L 137.528714 132.083144 
L 137.853694 134.877308 
L 138.178673 131.683972 
L 138.503653 131.417864 
L 138.828632 131.417864 
L 139.153612 130.087304 
L 139.478591 131.417864 
L 140.12855 131.018692 
L 140.45353 132.748424 
L 140.778509 132.083144 
L 141.103489 130.61952 
L 141.428468 129.688132 
L 141.753448 130.61952 
L 142.078428 131.018692 
L 142.403407 131.151756 
L 142.728387 132.083144 
L 143.053366 131.018692 
L 143.378346 128.224508 
L 143.703325 129.688132 
L 144.028305 128.357572 
L 144.353284 129.821196 
L 144.678264 132.61536 
L 145.003243 128.490636 
L 145.328223 130.087304 
L 145.653202 128.091464 
L 145.978182 129.155916 
L 146.303161 128.756744 
L 146.628141 125.696452 
L 146.95312 126.893948 
L 147.2781 130.087304 
L 147.603079 127.160076 
L 148.253038 129.95424 
L 148.578018 128.357572 
L 148.902998 127.825356 
L 149.227977 127.027012 
L 149.552957 128.62368 
L 149.877936 125.29728 
L 150.202916 128.490636 
L 150.527895 125.563388 
L 150.852875 126.760904 
L 151.177854 129.28896 
L 151.502834 125.29728 
L 151.827813 124.765064 
L 152.152793 125.696452 
L 152.477772 128.889788 
L 152.802752 128.62368 
L 153.127731 127.160076 
L 153.452711 124.365892 
L 153.77769 123.833656 
L 154.10267 127.9584 
L 154.427649 123.035332 
L 154.752629 125.164216 
L 155.077609 122.370052 
L 155.727568 126.760904 
L 156.052547 122.63616 
L 156.377527 125.031172 
L 156.702506 125.563388 
L 157.027486 127.825356 
L 157.677445 124.632 
L 158.002424 124.365892 
L 158.327404 123.700612 
L 158.652383 124.765064 
L 158.977363 124.632 
L 159.302342 124.232828 
L 159.627322 123.30144 
L 159.952301 123.96672 
L 160.60226 121.837816 
L 160.92724 124.099784 
L 161.252219 121.837816 
L 161.577199 121.571708 
L 161.902179 122.103924 
L 162.227158 123.833656 
L 162.552138 121.571708 
L 162.877117 120.374212 
L 163.202097 121.438644 
L 163.527076 122.902268 
L 163.852056 122.503096 
L 164.177035 121.3056 
L 164.502015 120.64032 
L 164.826994 123.30144 
L 165.151974 119.30976 
L 165.476953 119.841976 
L 165.801933 121.039492 
L 166.126912 121.172536 
L 166.451892 120.108084 
L 166.776871 120.108084 
L 167.101851 120.906428 
L 167.42683 122.236988 
L 168.07679 119.841976 
L 168.401769 120.906428 
L 168.726749 119.30976 
L 169.051728 118.511416 
L 169.376708 120.906428 
L 169.701687 118.910588 
L 170.026667 119.97504 
L 170.351646 120.374212 
L 170.676626 116.914748 
L 171.001605 119.30976 
L 171.326585 115.717252 
L 171.651564 116.914748 
L 171.976544 119.708932 
L 172.301523 120.108084 
L 172.626503 119.043632 
L 172.951482 117.180856 
L 173.276462 120.108084 
L 173.601441 117.846136 
L 173.926421 116.781704 
L 174.2514 118.112244 
L 174.57638 117.047812 
L 174.90136 121.172536 
L 175.226339 116.382532 
L 175.551319 118.112244 
L 175.876298 119.043632 
L 176.201278 117.713072 
L 176.526257 119.043632 
L 176.851237 115.98336 
L 177.176216 116.64864 
L 177.501196 118.112244 
L 177.826175 115.850296 
L 178.151155 115.98336 
L 178.476134 117.31392 
L 178.801114 114.120584 
L 179.126093 117.9792 
L 179.776052 114.785864 
L 180.426011 116.382532 
L 180.750991 112.923068 
L 181.40095 117.9792 
L 181.72593 115.584188 
L 182.050909 116.515576 
L 182.375889 117.9792 
L 183.025848 116.249468 
L 183.350827 114.918928 
L 183.675807 114.918928 
L 184.000786 114.519756 
L 184.325766 112.923068 
L 184.650745 113.854476 
L 184.975725 113.588368 
L 185.300704 113.98752 
L 185.625684 113.721412 
L 185.950663 116.249468 
L 186.275643 114.120584 
L 186.600622 113.854476 
L 186.925602 114.918928 
L 187.250581 115.051972 
L 187.575561 112.923068 
L 187.900541 109.729732 
L 188.22552 109.99584 
L 188.5505 115.31808 
L 188.875479 111.193356 
L 189.200459 113.721412 
L 189.525438 111.99168 
L 189.850418 114.519756 
L 190.175397 112.124744 
L 190.500377 112.790024 
L 190.825356 111.858636 
L 191.150336 112.790024 
L 191.475315 112.523916 
L 191.800295 111.99168 
L 192.125274 110.128904 
L 192.450254 109.33056 
L 192.775233 111.99168 
L 193.100213 109.463624 
L 193.425192 111.459464 
L 193.750172 110.261948 
L 194.075152 109.862796 
L 194.400131 110.794184 
L 195.05009 108.66528 
L 195.37507 111.3264 
L 195.700049 109.596668 
L 196.025029 113.455304 
L 196.350008 107.201656 
L 196.674988 110.395012 
L 197.324947 112.124744 
L 197.974906 108 
L 198.299885 111.193356 
L 198.624865 112.390852 
L 198.949844 107.201656 
L 199.274824 110.128904 
L 199.599803 106.66944 
L 199.924783 107.733892 
L 200.249762 110.528076 
L 200.574742 109.862796 
L 201.224701 107.866936 
L 201.549681 111.3264 
L 201.87466 110.794184 
L 202.19964 114.253648 
L 202.524619 109.729732 
L 202.849599 110.66112 
L 203.174578 113.455304 
L 203.499558 108.798344 
L 203.824537 110.528076 
L 204.149517 110.395012 
L 204.474496 109.596668 
L 204.799476 113.056132 
L 205.124455 110.927228 
L 205.449435 110.927228 
L 205.774414 108.532216 
L 206.099394 108.399172 
L 206.424373 107.866936 
L 206.749353 110.261948 
L 207.074333 110.128904 
L 207.399312 107.068612 
L 207.724292 108.931388 
L 208.049271 106.270268 
L 208.374251 108.399172 
L 208.69923 107.068612 
L 209.02421 108.266108 
L 209.349189 105.871096 
L 209.674169 108.133064 
L 209.999148 107.733892 
L 210.324128 103.875256 
L 210.649107 105.871096 
L 210.974087 105.471924 
L 211.299066 106.137204 
L 211.624046 105.33888 
L 211.949025 102.145524 
L 212.274005 108.266108 
L 213.248943 105.072772 
L 213.573923 106.802504 
L 213.898903 106.536376 
L 214.223882 105.072772 
L 214.548862 109.197496 
L 214.873841 109.33056 
L 215.198821 104.806644 
L 215.5238 107.467784 
L 215.84878 106.137204 
L 216.173759 106.00416 
L 216.498739 105.738052 
L 216.823718 106.935548 
L 217.148698 106.137204 
L 217.473677 107.201656 
L 217.798657 106.802504 
L 218.123636 103.476084 
L 218.448616 103.34304 
L 218.773595 106.137204 
L 219.098575 103.34304 
L 219.423554 107.33472 
L 219.748534 106.270268 
L 220.073514 106.270268 
L 220.398493 103.609148 
L 220.723473 108.66528 
L 221.048452 106.802504 
L 221.373432 107.201656 
L 221.698411 104.939708 
L 222.023391 105.471924 
L 222.34837 106.802504 
L 222.67335 105.604988 
L 222.998329 103.076932 
L 223.323309 106.00416 
L 223.648288 105.205816 
L 223.973268 106.270268 
L 224.298247 103.742212 
L 224.623227 104.806644 
L 225.273186 105.072772 
L 225.598165 106.802504 
L 225.923145 106.66944 
L 226.248124 105.871096 
L 226.573104 103.875256 
L 226.898084 104.806644 
L 227.223063 104.141364 
L 227.548043 105.33888 
L 227.873022 104.939708 
L 228.198002 101.746352 
L 228.522981 104.407492 
L 228.847961 102.67776 
L 229.17294 102.67776 
L 229.49792 103.875256 
L 229.822899 101.214136 
L 230.147879 104.407492 
L 230.797838 101.3472 
L 231.122817 102.810804 
L 231.447797 100.948028 
L 232.097756 102.278588 
L 232.422735 104.407492 
L 232.747715 101.3472 
L 233.072695 106.66944 
L 233.397674 102.411632 
L 233.722654 103.476084 
L 234.047633 102.67776 
L 234.372613 102.278588 
L 234.697592 104.540536 
L 235.022572 99.750532 
L 235.347551 102.278588 
L 235.672531 100.814964 
L 235.99751 103.076932 
L 236.32249 101.3472 
L 236.972449 102.145524 
L 237.297428 101.3472 
L 237.622408 103.476084 
L 237.947387 100.415812 
L 238.597346 103.34304 
L 238.922326 102.810804 
L 239.247305 102.943868 
L 239.897265 102.145524 
L 240.222244 104.540536 
L 240.547224 103.076932 
L 240.872203 100.68192 
L 241.197183 100.415812 
L 241.522162 100.948028 
L 241.847142 101.214136 
L 242.172121 103.076932 
L 242.497101 103.476084 
L 242.82208 98.553036 
L 243.14706 102.810804 
L 243.472039 101.746352 
L 243.797019 100.149704 
L 244.121998 100.814964 
L 244.446978 100.68192 
L 244.771957 103.742212 
L 245.096937 100.948028 
L 245.421916 101.214136 
L 245.746896 102.544696 
L 246.071876 102.810804 
L 246.396855 99.750532 
L 246.721835 101.480244 
L 247.046814 100.01664 
L 247.371794 101.480244 
L 247.696773 100.282748 
L 248.021753 101.613308 
L 248.346732 100.149704 
L 248.996691 99.883576 
L 249.321671 99.484424 
L 249.64665 103.875256 
L 249.97163 104.806644 
L 250.296609 98.819144 
L 250.621589 99.750532 
L 250.946568 101.081072 
L 251.271548 100.415812 
L 251.596527 98.419972 
L 252.246486 100.68192 
L 252.571466 103.34304 
L 253.221425 98.553036 
L 253.546405 100.68192 
L 253.871384 99.883576 
L 254.196364 100.68192 
L 254.521343 98.553036 
L 254.846323 100.149704 
L 255.171302 98.286928 
L 255.496282 98.419972 
L 255.821261 98.286928 
L 256.47122 100.149704 
L 256.7962 98.153864 
L 257.121179 101.746352 
L 257.446159 99.085252 
L 257.771138 98.68608 
L 258.096118 98.819144 
L 258.421097 102.67776 
L 258.746077 98.819144 
L 259.071057 98.419972 
L 259.396036 101.613308 
L 259.721016 100.548856 
L 260.045995 98.153864 
L 260.370975 98.286928 
L 260.695954 98.952188 
L 261.020934 100.415812 
L 261.345913 97.887756 
L 261.670893 100.948028 
L 261.995872 99.35136 
L 262.320852 101.3472 
L 262.645831 99.218296 
L 262.970811 100.149704 
L 263.29579 100.548856 
L 263.62077 98.952188 
L 263.945749 102.810804 
L 264.270729 100.01664 
L 264.595708 101.214136 
L 264.920688 101.746352 
L 265.245667 100.149704 
L 265.570647 100.948028 
L 265.895627 100.01664 
L 266.220606 97.488584 
L 266.545586 101.081072 
L 266.870565 96.823304 
L 268.170483 102.943868 
L 268.495463 99.883576 
L 268.820442 97.887756 
L 269.145422 99.617468 
L 269.470401 98.286928 
L 269.795381 101.3472 
L 270.12036 101.480244 
L 270.44534 100.01664 
L 270.770319 100.282748 
L 271.095299 101.081072 
L 271.420278 101.480244 
L 271.745258 98.819144 
L 272.070238 98.952188 
L 272.395217 98.553036 
L 272.720197 99.218296 
L 273.045176 98.0208 
L 273.370156 99.484424 
L 273.695135 96.158024 
L 274.345094 100.282748 
L 274.670074 99.750532 
L 274.995053 98.952188 
L 275.320033 98.819144 
L 275.645012 98.952188 
L 275.969992 98.68608 
L 276.294971 98.819144 
L 276.619951 100.814964 
L 276.94493 94.960508 
L 277.26991 101.613308 
L 277.594889 100.68192 
L 277.919869 101.613308 
L 278.244848 99.35136 
L 278.569828 99.617468 
L 278.894808 96.02496 
L 279.869746 99.750532 
L 280.194726 98.0208 
L 280.519705 99.484424 
L 280.844685 97.754692 
L 281.169664 98.0208 
L 281.494644 95.758852 
L 281.819623 100.68192 
L 282.144603 98.419972 
L 282.469582 99.085252 
L 282.794562 100.548856 
L 283.119541 96.158024 
L 283.444521 98.0208 
L 283.7695 100.548856 
L 284.744439 97.621648 
L 285.069419 97.754692 
L 285.394398 98.553036 
L 285.719378 98.553036 
L 286.044357 99.218296 
L 286.369337 96.291068 
L 286.694316 97.089412 
L 287.019296 96.557196 
L 287.344275 100.948028 
L 287.994234 98.0208 
L 288.644193 101.746352 
L 289.294152 98.952188 
L 289.619132 98.286928 
L 289.944111 96.823304 
L 290.269091 97.754692 
L 290.59407 96.823304 
L 290.91905 101.3472 
L 291.244029 97.887756 
L 291.569009 100.814964 
L 291.893989 98.419972 
L 292.218968 98.0208 
L 292.543948 98.153864 
L 292.868927 96.823304 
L 293.518886 95.093572 
L 293.843866 97.222476 
L 294.168845 97.887756 
L 294.493825 95.891916 
L 295.143784 97.488584 
L 295.468763 95.758852 
L 295.793743 97.35552 
L 296.118722 97.089412 
L 296.443702 96.02496 
L 296.768681 94.428292 
L 297.093661 95.093572 
L 297.41864 96.557196 
L 297.74362 97.488584 
L 298.0686 101.081072 
L 298.393579 94.6944 
L 298.718559 97.222476 
L 299.043538 96.291068 
L 299.368518 96.69024 
L 299.693497 99.750532 
L 300.018477 95.758852 
L 300.668436 99.750532 
L 300.993415 95.625788 
L 301.318395 96.956368 
L 301.968354 97.35552 
L 302.293333 97.488584 
L 302.618313 98.68608 
L 302.943292 95.093572 
L 303.268272 95.226636 
L 303.593251 94.6944 
L 303.918231 100.01664 
L 304.24321 97.488584 
L 304.56819 96.956368 
L 304.89317 94.960508 
L 305.218149 95.35968 
L 305.543129 98.553036 
L 305.868108 98.153864 
L 306.193088 96.158024 
L 306.518067 97.754692 
L 306.843047 94.6944 
L 307.168026 94.827464 
L 307.493006 98.153864 
L 307.817985 97.089412 
L 308.142965 98.0208 
L 308.467944 94.428292 
L 308.792924 96.69024 
L 309.117903 96.291068 
L 309.442883 97.35552 
L 309.767862 96.158024 
L 310.092842 96.69024 
L 310.417821 95.758852 
L 310.742801 96.02496 
L 311.067781 95.35968 
L 311.71774 99.484424 
L 312.042719 93.496904 
L 312.367699 98.286928 
L 312.692678 94.02912 
L 313.017658 96.158024 
L 313.342637 97.222476 
L 313.667617 96.557196 
L 313.992596 95.35968 
L 314.317576 94.960508 
L 314.642555 96.291068 
L 314.967535 95.35968 
L 315.292514 96.69024 
L 315.617494 94.6944 
L 315.942473 94.6944 
L 316.267453 93.763012 
L 316.592432 94.428292 
L 316.917412 96.69024 
L 317.242391 98.0208 
L 317.567371 98.819144 
L 317.892351 95.35968 
L 318.21733 95.625788 
L 318.54231 94.561356 
L 318.867289 94.960508 
L 319.192269 96.69024 
L 319.842228 92.299388 
L 320.167207 96.291068 
L 320.492187 95.226636 
L 320.817166 95.891916 
L 321.142146 95.625788 
L 321.467125 95.758852 
L 321.792105 95.35968 
L 322.117084 94.561356 
L 322.442064 95.093572 
L 322.767043 96.424132 
L 323.092023 96.956368 
L 323.417002 96.956368 
L 323.741982 94.561356 
L 324.066962 94.561356 
L 324.391941 94.827464 
L 324.716921 95.625788 
L 325.0419 93.36384 
L 325.36688 100.149704 
L 325.691859 96.02496 
L 326.016839 95.35968 
L 326.341818 100.814964 
L 326.666798 93.763012 
L 326.991777 95.492744 
L 327.316757 93.629948 
L 327.641736 93.629948 
L 327.966716 96.02496 
L 328.291695 92.432452 
L 328.616675 95.492744 
L 328.941654 94.295228 
L 329.266634 93.763012 
L 329.591613 94.428292 
L 329.916593 96.823304 
L 330.241572 95.093572 
L 330.891532 94.162184 
L 331.216511 93.763012 
L 331.541491 97.887756 
L 331.86647 92.565496 
L 332.19145 97.35552 
L 332.841409 92.166344 
L 333.166388 93.896076 
L 333.491368 97.222476 
L 333.816347 93.36384 
L 334.141327 96.158024 
L 334.466306 94.561356 
L 334.791286 95.758852 
L 335.116265 93.496904 
L 335.441245 92.831624 
L 335.766224 95.758852 
L 336.091204 95.35968 
L 336.741163 93.230796 
L 337.066143 97.887756 
L 337.391122 95.093572 
L 337.716102 94.162184 
L 338.366061 98.68608 
L 338.69104 93.896076 
L 339.01602 93.629948 
L 339.340999 93.896076 
L 339.665979 95.35968 
L 339.990958 95.492744 
L 340.315938 95.492744 
L 340.640917 95.35968 
L 340.965897 96.823304 
L 341.290876 92.831624 
L 341.615856 94.02912 
L 341.940835 97.754692 
L 342.265815 95.758852 
L 342.590794 92.964668 
L 342.915774 95.492744 
L 343.240753 92.69856 
L 343.565733 92.831624 
L 343.890713 96.291068 
L 344.215692 93.230796 
L 344.540672 92.831624 
L 344.865651 93.230796 
L 345.190631 95.226636 
L 345.51561 93.230796 
L 345.84059 96.557196 
L 346.165569 95.891916 
L 346.490549 93.896076 
L 346.815528 95.093572 
L 347.140508 95.625788 
L 347.465487 94.827464 
L 347.790467 92.03328 
L 348.115446 92.831624 
L 348.440426 94.6944 
L 348.765405 94.6944 
L 349.090385 95.093572 
L 349.415364 94.295228 
L 349.740344 93.896076 
L 350.065324 92.831624 
L 350.390303 94.162184 
L 350.715283 91.501064 
L 351.040262 92.831624 
L 351.365242 92.03328 
L 351.690221 96.69024 
L 352.015201 96.02496 
L 352.34018 90.569656 
L 352.66516 95.093572 
L 352.990139 92.831624 
L 353.315119 93.629948 
L 353.640098 95.492744 
L 353.965078 94.162184 
L 354.290057 93.629948 
L 354.615037 93.896076 
L 354.940016 95.093572 
L 355.264996 94.162184 
L 355.589975 95.093572 
L 355.914955 93.896076 
L 356.239934 91.501064 
L 356.889894 94.162184 
L 357.214873 93.230796 
L 357.539853 93.896076 
L 357.864832 93.496904 
L 358.189812 91.767172 
L 358.514791 96.158024 
L 358.839771 92.69856 
L 359.16475 95.758852 
L 359.48973 93.496904 
L 359.814709 93.097732 
L 360.139689 92.432452 
L 360.464668 95.492744 
L 360.789648 91.368 
L 361.114627 95.625788 
L 361.439607 93.36384 
L 361.764586 94.960508 
L 362.089566 95.35968 
L 362.414545 92.03328 
L 362.739525 95.492744 
L 363.389484 95.891916 
L 363.714464 94.162184 
L 364.039443 93.496904 
L 364.364423 92.432452 
L 365.014382 97.488584 
L 365.339361 94.428292 
L 365.664341 95.093572 
L 365.98932 91.101892 
L 366.3143 94.561356 
L 366.639279 94.6944 
L 366.964259 93.763012 
L 367.289238 92.299388 
L 367.614218 91.501064 
L 367.939197 92.299388 
L 368.264177 91.501064 
L 368.589156 94.827464 
L 368.914136 91.101892 
L 369.239115 90.569656 
L 369.564095 93.097732 
L 369.889075 92.69856 
L 370.214054 94.295228 
L 370.539034 95.226636 
L 370.864013 92.964668 
L 371.188993 92.03328 
L 371.838952 95.226636 
L 372.163931 94.561356 
L 372.488911 94.295228 
L 373.13887 90.03744 
L 373.463849 93.36384 
L 373.788829 90.835784 
L 374.113808 94.428292 
L 374.438788 93.896076 
L 374.763767 94.6944 
L 375.088747 90.835784 
L 375.413726 93.763012 
L 375.738706 94.428292 
L 376.063686 93.896076 
L 376.388665 93.896076 
L 376.713645 90.303548 
L 377.038624 91.101892 
L 377.363604 94.162184 
L 377.688583 91.634108 
L 378.013563 91.900216 
L 378.338542 92.964668 
L 378.663522 94.827464 
L 378.988501 93.230796 
L 379.313481 92.565496 
L 379.63846 95.226636 
L 380.288419 91.900216 
L 380.613399 92.166344 
L 380.938378 94.02912 
L 381.263358 93.230796 
L 381.588337 96.02496 
L 381.913317 94.295228 
L 382.238296 93.629948 
L 382.563276 93.763012 
L 382.888256 89.239096 
L 383.213235 95.093572 
L 383.538215 90.569656 
L 383.863194 92.166344 
L 384.188174 96.557196 
L 384.513153 93.230796 
L 384.838133 93.230796 
L 385.163112 95.35968 
L 385.488092 92.432452 
L 385.813071 91.234936 
L 386.138051 93.230796 
L 386.46303 92.03328 
L 386.78801 92.964668 
L 387.112989 92.69856 
L 387.437969 93.36384 
L 387.762948 94.428292 
L 388.412907 91.234936 
L 388.737887 94.162184 
L 389.062867 92.299388 
L 389.387846 92.964668 
L 389.712826 92.565496 
L 390.037805 94.960508 
L 390.362785 92.964668 
L 391.012744 90.968828 
L 391.337723 94.6944 
L 391.662703 94.6944 
L 391.987682 92.166344 
L 392.312662 92.03328 
L 392.637641 92.432452 
L 393.2876 91.234936 
L 393.61258 96.291068 
L 393.937559 94.02912 
L 394.262539 89.904376 
L 394.587518 93.230796 
L 394.912498 92.69856 
L 395.562457 95.492744 
L 395.887437 94.960508 
L 396.212416 90.03744 
L 396.537396 94.428292 
L 396.862375 91.101892 
L 397.187355 91.101892 
L 397.512334 90.835784 
L 397.837314 93.230796 
L 398.162293 94.561356 
L 398.487273 93.896076 
L 398.487273 93.896076 
" style="fill:none;stroke:#ff7f0e;stroke-linecap:square;stroke-width:1.5;"/>
   </g>
   <g id="patch_3">
    <path d="M 57.6 307.584 
L 57.6 41.472 
" style="fill:none;stroke:#000000;stroke-linecap:square;stroke-linejoin:miter;stroke-width:0.8;"/>
   </g>
   <g id="patch_4">
    <path d="M 414.72 307.584 
L 414.72 41.472 
" style="fill:none;stroke:#000000;stroke-linecap:square;stroke-linejoin:miter;stroke-width:0.8;"/>
   </g>
   <g id="patch_5">
    <path d="M 57.6 307.584 
L 414.72 307.584 
" style="fill:none;stroke:#000000;stroke-linecap:square;stroke-linejoin:miter;stroke-width:0.8;"/>
   </g>
   <g id="patch_6">
    <path d="M 57.6 41.472 
L 414.72 41.472 
" style="fill:none;stroke:#000000;stroke-linecap:square;stroke-linejoin:miter;stroke-width:0.8;"/>
   </g>
   <g id="legend_1">
    <g id="patch_7">
     <path d="M 64.6 78.82825 
L 181.310937 78.82825 
Q 183.310937 78.82825 183.310937 76.82825 
L 183.310937 48.472 
Q 183.310937 46.472 181.310937 46.472 
L 64.6 46.472 
Q 62.6 46.472 62.6 48.472 
L 62.6 76.82825 
Q 62.6 78.82825 64.6 78.82825 
z
" style="fill:#ffffff;opacity:0.8;stroke:#cccccc;stroke-linejoin:miter;"/>
    </g>
    <g id="line2d_14">
     <path d="M 66.6 54.570437 
L 86.6 54.570437 
" style="fill:none;stroke:#1f77b4;stroke-linecap:square;stroke-width:1.5;"/>
    </g>
    <g id="line2d_15"/>
    <g id="text_14">
     <!-- UCB1 -->
     <defs>
      <path d="M 8.6875 72.90625 
L 18.609375 72.90625 
L 18.609375 28.609375 
Q 18.609375 16.890625 22.84375 11.734375 
Q 27.09375 6.59375 36.625 6.59375 
Q 46.09375 6.59375 50.34375 11.734375 
Q 54.59375 16.890625 54.59375 28.609375 
L 54.59375 72.90625 
L 64.5 72.90625 
L 64.5 27.390625 
Q 64.5 13.140625 57.4375 5.859375 
Q 50.390625 -1.421875 36.625 -1.421875 
Q 22.796875 -1.421875 15.734375 5.859375 
Q 8.6875 13.140625 8.6875 27.390625 
z
" id="DejaVuSans-55"/>
      <path d="M 64.40625 67.28125 
L 64.40625 56.890625 
Q 59.421875 61.53125 53.78125 63.8125 
Q 48.140625 66.109375 41.796875 66.109375 
Q 29.296875 66.109375 22.65625 58.46875 
Q 16.015625 50.828125 16.015625 36.375 
Q 16.015625 21.96875 22.65625 14.328125 
Q 29.296875 6.6875 41.796875 6.6875 
Q 48.140625 6.6875 53.78125 8.984375 
Q 59.421875 11.28125 64.40625 15.921875 
L 64.40625 5.609375 
Q 59.234375 2.09375 53.4375 0.328125 
Q 47.65625 -1.421875 41.21875 -1.421875 
Q 24.65625 -1.421875 15.125 8.703125 
Q 5.609375 18.84375 5.609375 36.375 
Q 5.609375 53.953125 15.125 64.078125 
Q 24.65625 74.21875 41.21875 74.21875 
Q 47.75 74.21875 53.53125 72.484375 
Q 59.328125 70.75 64.40625 67.28125 
z
" id="DejaVuSans-43"/>
      <path d="M 19.671875 34.8125 
L 19.671875 8.109375 
L 35.5 8.109375 
Q 43.453125 8.109375 47.28125 11.40625 
Q 51.125 14.703125 51.125 21.484375 
Q 51.125 28.328125 47.28125 31.5625 
Q 43.453125 34.8125 35.5 34.8125 
z
M 19.671875 64.796875 
L 19.671875 42.828125 
L 34.28125 42.828125 
Q 41.5 42.828125 45.03125 45.53125 
Q 48.578125 48.25 48.578125 53.8125 
Q 48.578125 59.328125 45.03125 62.0625 
Q 41.5 64.796875 34.28125 64.796875 
z
M 9.8125 72.90625 
L 35.015625 72.90625 
Q 46.296875 72.90625 52.390625 68.21875 
Q 58.5 63.53125 58.5 54.890625 
Q 58.5 48.1875 55.375 44.234375 
Q 52.25 40.28125 46.1875 39.3125 
Q 53.46875 37.75 57.5 32.78125 
Q 61.53125 27.828125 61.53125 20.40625 
Q 61.53125 10.640625 54.890625 5.3125 
Q 48.25 0 35.984375 0 
L 9.8125 0 
z
" id="DejaVuSans-42"/>
     </defs>
     <g transform="translate(94.6 58.070437)scale(0.1 -0.1)">
      <use xlink:href="#DejaVuSans-55"/>
      <use x="73.193359" xlink:href="#DejaVuSans-43"/>
      <use x="143.017578" xlink:href="#DejaVuSans-42"/>
      <use x="211.621094" xlink:href="#DejaVuSans-31"/>
     </g>
    </g>
    <g id="line2d_16">
     <path d="M 66.6 69.248562 
L 86.6 69.248562 
" style="fill:none;stroke:#ff7f0e;stroke-linecap:square;stroke-width:1.5;"/>
    </g>
    <g id="line2d_17"/>
    <g id="text_15">
     <!-- -greedy (=0.1) -->
     <defs>
      <path d="M 19.28125 29.5 
Q 13.8125 30.671875 10.890625 33.84375 
Q 7.953125 36.96875 7.953125 41.5 
Q 7.953125 48.390625 13.53125 52.25 
Q 19.046875 56.0625 28.609375 56.0625 
Q 32.328125 56.0625 36.46875 55.46875 
Q 40.625 54.890625 45.40625 53.71875 
L 45.40625 45.5625 
Q 40.671875 46.96875 36.765625 47.609375 
Q 32.8125 48.25 29.34375 48.25 
Q 23.53125 48.25 20.171875 46 
Q 16.75 43.75 16.75 40.625 
Q 16.75 37.203125 20.0625 35.015625 
Q 23.34375 32.859375 29 32.859375 
L 36.578125 32.859375 
L 36.578125 25.4375 
L 29.34375 25.4375 
Q 22.65625 25.4375 19.140625 22.953125 
Q 15.328125 20.21875 15.328125 15.921875 
Q 15.328125 11.53125 19.4375 8.796875 
Q 23.578125 6.0625 30.953125 6.0625 
Q 35.5 6.0625 39.65625 6.9375 
Q 43.796875 7.859375 47.265625 9.671875 
L 47.265625 1.3125 
Q 42.875 -0.046875 38.765625 -0.734375 
Q 34.625 -1.421875 30.71875 -1.421875 
Q 19.09375 -1.421875 12.796875 3.03125 
Q 6.5 7.46875 6.5 15.921875 
Q 6.5 21.1875 9.859375 24.75 
Q 13.234375 28.328125 19.28125 29.5 
z
" id="DejaVuSans-3b5"/>
      <path d="M 4.890625 31.390625 
L 31.203125 31.390625 
L 31.203125 23.390625 
L 4.890625 23.390625 
z
" id="DejaVuSans-2d"/>
      <path d="M 45.40625 27.984375 
Q 45.40625 37.75 41.375 43.109375 
Q 37.359375 48.484375 30.078125 48.484375 
Q 22.859375 48.484375 18.828125 43.109375 
Q 14.796875 37.75 14.796875 27.984375 
Q 14.796875 18.265625 18.828125 12.890625 
Q 22.859375 7.515625 30.078125 7.515625 
Q 37.359375 7.515625 41.375 12.890625 
Q 45.40625 18.265625 45.40625 27.984375 
z
M 54.390625 6.78125 
Q 54.390625 -7.171875 48.1875 -13.984375 
Q 42 -20.796875 29.203125 -20.796875 
Q 24.46875 -20.796875 20.265625 -20.09375 
Q 16.0625 -19.390625 12.109375 -17.921875 
L 12.109375 -9.1875 
Q 16.0625 -11.328125 19.921875 -12.34375 
Q 23.78125 -13.375 27.78125 -13.375 
Q 36.625 -13.375 41.015625 -8.765625 
Q 45.40625 -4.15625 45.40625 5.171875 
L 45.40625 9.625 
Q 42.625 4.78125 38.28125 2.390625 
Q 33.9375 0 27.875 0 
Q 17.828125 0 11.671875 7.65625 
Q 5.515625 15.328125 5.515625 27.984375 
Q 5.515625 40.671875 11.671875 48.328125 
Q 17.828125 56 27.875 56 
Q 33.9375 56 38.28125 53.609375 
Q 42.625 51.21875 45.40625 46.390625 
L 45.40625 54.6875 
L 54.390625 54.6875 
z
" id="DejaVuSans-67"/>
      <path d="M 41.109375 46.296875 
Q 39.59375 47.171875 37.8125 47.578125 
Q 36.03125 48 33.890625 48 
Q 26.265625 48 22.1875 43.046875 
Q 18.109375 38.09375 18.109375 28.8125 
L 18.109375 0 
L 9.078125 0 
L 9.078125 54.6875 
L 18.109375 54.6875 
L 18.109375 46.1875 
Q 20.953125 51.171875 25.484375 53.578125 
Q 30.03125 56 36.53125 56 
Q 37.453125 56 38.578125 55.875 
Q 39.703125 55.765625 41.0625 55.515625 
z
" id="DejaVuSans-72"/>
      <path d="M 45.40625 46.390625 
L 45.40625 75.984375 
L 54.390625 75.984375 
L 54.390625 0 
L 45.40625 0 
L 45.40625 8.203125 
Q 42.578125 3.328125 38.25 0.953125 
Q 33.9375 -1.421875 27.875 -1.421875 
Q 17.96875 -1.421875 11.734375 6.484375 
Q 5.515625 14.40625 5.515625 27.296875 
Q 5.515625 40.1875 11.734375 48.09375 
Q 17.96875 56 27.875 56 
Q 33.9375 56 38.25 53.625 
Q 42.578125 51.265625 45.40625 46.390625 
z
M 14.796875 27.296875 
Q 14.796875 17.390625 18.875 11.75 
Q 22.953125 6.109375 30.078125 6.109375 
Q 37.203125 6.109375 41.296875 11.75 
Q 45.40625 17.390625 45.40625 27.296875 
Q 45.40625 37.203125 41.296875 42.84375 
Q 37.203125 48.484375 30.078125 48.484375 
Q 22.953125 48.484375 18.875 42.84375 
Q 14.796875 37.203125 14.796875 27.296875 
z
" id="DejaVuSans-64"/>
      <path d="M 32.171875 -5.078125 
Q 28.375 -14.84375 24.75 -17.8125 
Q 21.140625 -20.796875 15.09375 -20.796875 
L 7.90625 -20.796875 
L 7.90625 -13.28125 
L 13.1875 -13.28125 
Q 16.890625 -13.28125 18.9375 -11.515625 
Q 21 -9.765625 23.484375 -3.21875 
L 25.09375 0.875 
L 2.984375 54.6875 
L 12.5 54.6875 
L 29.59375 11.921875 
L 46.6875 54.6875 
L 56.203125 54.6875 
z
" id="DejaVuSans-79"/>
      <path d="M 10.59375 45.40625 
L 73.1875 45.40625 
L 73.1875 37.203125 
L 10.59375 37.203125 
z
M 10.59375 25.484375 
L 73.1875 25.484375 
L 73.1875 17.1875 
L 10.59375 17.1875 
z
" id="DejaVuSans-3d"/>
      <path d="M 10.6875 12.40625 
L 21 12.40625 
L 21 0 
L 10.6875 0 
z
" id="DejaVuSans-2e"/>
     </defs>
     <g transform="translate(94.6 72.748562)scale(0.1 -0.1)">
      <use xlink:href="#DejaVuSans-3b5"/>
      <use x="54.052734" xlink:href="#DejaVuSans-2d"/>
      <use x="90.136719" xlink:href="#DejaVuSans-67"/>
      <use x="153.613281" xlink:href="#DejaVuSans-72"/>
      <use x="194.695312" xlink:href="#DejaVuSans-65"/>
      <use x="256.21875" xlink:href="#DejaVuSans-65"/>
      <use x="317.742188" xlink:href="#DejaVuSans-64"/>
      <use x="381.21875" xlink:href="#DejaVuSans-79"/>
      <use x="440.398438" xlink:href="#DejaVuSans-20"/>
      <use x="472.185547" xlink:href="#DejaVuSans-28"/>
      <use x="511.199219" xlink:href="#DejaVuSans-3b5"/>
      <use x="565.251953" xlink:href="#DejaVuSans-3d"/>
      <use x="649.041016" xlink:href="#DejaVuSans-30"/>
      <use x="712.664062" xlink:href="#DejaVuSans-2e"/>
      <use x="744.451172" xlink:href="#DejaVuSans-31"/>
      <use x="808.074219" xlink:href="#DejaVuSans-29"/>
     </g>
    </g>
   </g>
  </g>
 </g>
 <defs>
  <clipPath id="p98da7881d8">
   <rect height="266.112" width="357.12" x="57.6" y="41.472"/>
  </clipPath>
 </defs>
</svg>
