<?xml version="1.0" encoding="utf-8" standalone="no"?>
<!DOCTYPE svg PUBLIC "-//W3C//DTD SVG 1.1//EN"
  "http://www.w3.org/Graphics/SVG/1.1/DTD/svg11.dtd">
<!-- Created with matplotlib (http://matplotlib.org/) -->
<svg height="345.6pt" version="1.1" viewBox="0 0 460.8 345.6" width="460.8pt" xmlns="http://www.w3.org/2000/svg" xmlns:xlink="http://www.w3.org/1999/xlink">
 <defs>
  <style type="text/css">
*{stroke-linecap:butt;stroke-linejoin:round;}
  </style>
 </defs>
 <g id="figure_1">
  <g id="patch_1">
   <path d="M 0 345.6 
L 460.8 345.6 
L 460.8 0 
L 0 0 
z
" style="fill:#ffffff;"/>
  </g>
  <g id="axes_1">
   <g id="patch_2">
    <path d="M 57.6 307.584 
L 414.72 307.584 
L 414.72 41.472 
L 57.6 41.472 
z
" style="fill:#ffffff;"/>
   </g>
   <g id="matplotlib.axis_1">
    <g id="xtick_1">
     <g id="line2d_1">
      <defs>
       <path d="M 0 0 
L 0 3.5 
" id="m2db65eb1c9" style="stroke:#000000;stroke-width:0.8;"/>
      </defs>
      <g>
       <use style="stroke:#000000;stroke-width:0.8;" x="73.832727" xlink:href="#m2db65eb1c9" y="307.584"/>
      </g>
     </g>
     <g id="text_1">
      <!-- 0 -->
      <defs>
       <path d="M 31.78125 66.40625 
Q 24.171875 66.40625 20.328125 58.90625 
Q 16.5 51.421875 16.5 36.375 
Q 16.5 21.390625 20.328125 13.890625 
Q 24.171875 6.390625 31.78125 6.390625 
Q 39.453125 6.390625 43.28125 13.890625 
Q 47.125 21.390625 47.125 36.375 
Q 47.125 51.421875 43.28125 58.90625 
Q 39.453125 66.40625 31.78125 66.40625 
z
M 31.78125 74.21875 
Q 44.046875 74.21875 50.515625 64.515625 
Q 56.984375 54.828125 56.984375 36.375 
Q 56.984375 17.96875 50.515625 8.265625 
Q 44.046875 -1.421875 31.78125 -1.421875 
Q 19.53125 -1.421875 13.0625 8.265625 
Q 6.59375 17.96875 6.59375 36.375 
Q 6.59375 54.828125 13.0625 64.515625 
Q 19.53125 74.21875 31.78125 74.21875 
z
" id="DejaVuSans-30"/>
      </defs>
      <g transform="translate(70.651477 322.182437)scale(0.1 -0.1)">
       <use xlink:href="#DejaVuSans-30"/>
      </g>
     </g>
    </g>
    <g id="xtick_2">
     <g id="line2d_2">
      <g>
       <use style="stroke:#000000;stroke-width:0.8;" x="155.077609" xlink:href="#m2db65eb1c9" y="307.584"/>
      </g>
     </g>
     <g id="text_2">
      <!-- 250 -->
      <defs>
       <path d="M 19.1875 8.296875 
L 53.609375 8.296875 
L 53.609375 0 
L 7.328125 0 
L 7.328125 8.296875 
Q 12.9375 14.109375 22.625 23.890625 
Q 32.328125 33.6875 34.8125 36.53125 
Q 39.546875 41.84375 41.421875 45.53125 
Q 43.3125 49.21875 43.3125 52.78125 
Q 43.3125 58.59375 39.234375 62.25 
Q 35.15625 65.921875 28.609375 65.921875 
Q 23.96875 65.921875 18.8125 64.3125 
Q 13.671875 62.703125 7.8125 59.421875 
L 7.8125 69.390625 
Q 13.765625 71.78125 18.9375 73 
Q 24.125 74.21875 28.421875 74.21875 
Q 39.75 74.21875 46.484375 68.546875 
Q 53.21875 62.890625 53.21875 53.421875 
Q 53.21875 48.921875 51.53125 44.890625 
Q 49.859375 40.875 45.40625 35.40625 
Q 44.1875 33.984375 37.640625 27.21875 
Q 31.109375 20.453125 19.1875 8.296875 
z
" id="DejaVuSans-32"/>
       <path d="M 10.796875 72.90625 
L 49.515625 72.90625 
L 49.515625 64.59375 
L 19.828125 64.59375 
L 19.828125 46.734375 
Q 21.96875 47.46875 24.109375 47.828125 
Q 26.265625 48.1875 28.421875 48.1875 
Q 40.625 48.1875 47.75 41.5 
Q 54.890625 34.8125 54.890625 23.390625 
Q 54.890625 11.625 47.5625 5.09375 
Q 40.234375 -1.421875 26.90625 -1.421875 
Q 22.3125 -1.421875 17.546875 -0.640625 
Q 12.796875 0.140625 7.71875 1.703125 
L 7.71875 11.625 
Q 12.109375 9.234375 16.796875 8.0625 
Q 21.484375 6.890625 26.703125 6.890625 
Q 35.15625 6.890625 40.078125 11.328125 
Q 45.015625 15.765625 45.015625 23.390625 
Q 45.015625 31 40.078125 35.4375 
Q 35.15625 39.890625 26.703125 39.890625 
Q 22.75 39.890625 18.8125 39.015625 
Q 14.890625 38.140625 10.796875 36.28125 
z
" id="DejaVuSans-35"/>
      </defs>
      <g transform="translate(145.533859 322.182437)scale(0.1 -0.1)">
       <use xlink:href="#DejaVuSans-32"/>
       <use x="63.623047" xlink:href="#DejaVuSans-35"/>
       <use x="127.246094" xlink:href="#DejaVuSans-30"/>
      </g>
     </g>
    </g>
    <g id="xtick_3">
     <g id="line2d_3">
      <g>
       <use style="stroke:#000000;stroke-width:0.8;" x="236.32249" xlink:href="#m2db65eb1c9" y="307.584"/>
      </g>
     </g>
     <g id="text_3">
      <!-- 500 -->
      <g transform="translate(226.77874 322.182437)scale(0.1 -0.1)">
       <use xlink:href="#DejaVuSans-35"/>
       <use x="63.623047" xlink:href="#DejaVuSans-30"/>
       <use x="127.246094" xlink:href="#DejaVuSans-30"/>
      </g>
     </g>
    </g>
    <g id="xtick_4">
     <g id="line2d_4">
      <g>
       <use style="stroke:#000000;stroke-width:0.8;" x="317.567371" xlink:href="#m2db65eb1c9" y="307.584"/>
      </g>
     </g>
     <g id="text_4">
      <!-- 750 -->
      <defs>
       <path d="M 8.203125 72.90625 
L 55.078125 72.90625 
L 55.078125 68.703125 
L 28.609375 0 
L 18.3125 0 
L 43.21875 64.59375 
L 8.203125 64.59375 
z
" id="DejaVuSans-37"/>
      </defs>
      <g transform="translate(308.023621 322.182437)scale(0.1 -0.1)">
       <use xlink:href="#DejaVuSans-37"/>
       <use x="63.623047" xlink:href="#DejaVuSans-35"/>
       <use x="127.246094" xlink:href="#DejaVuSans-30"/>
      </g>
     </g>
    </g>
    <g id="xtick_5">
     <g id="line2d_5">
      <g>
       <use style="stroke:#000000;stroke-width:0.8;" x="398.812252" xlink:href="#m2db65eb1c9" y="307.584"/>
      </g>
     </g>
     <g id="text_5">
      <!-- 1000 -->
      <defs>
       <path d="M 12.40625 8.296875 
L 28.515625 8.296875 
L 28.515625 63.921875 
L 10.984375 60.40625 
L 10.984375 69.390625 
L 28.421875 72.90625 
L 38.28125 72.90625 
L 38.28125 8.296875 
L 54.390625 8.296875 
L 54.390625 0 
L 12.40625 0 
z
" id="DejaVuSans-31"/>
      </defs>
      <g transform="translate(386.087252 322.182437)scale(0.1 -0.1)">
       <use xlink:href="#DejaVuSans-31"/>
       <use x="63.623047" xlink:href="#DejaVuSans-30"/>
       <use x="127.246094" xlink:href="#DejaVuSans-30"/>
       <use x="190.869141" xlink:href="#DejaVuSans-30"/>
      </g>
     </g>
    </g>
    <g id="text_6">
     <!-- Steps -->
     <defs>
      <path d="M 53.515625 70.515625 
L 53.515625 60.890625 
Q 47.90625 63.578125 42.921875 64.890625 
Q 37.9375 66.21875 33.296875 66.21875 
Q 25.25 66.21875 20.875 63.09375 
Q 16.5 59.96875 16.5 54.203125 
Q 16.5 49.359375 19.40625 46.890625 
Q 22.3125 44.4375 30.421875 42.921875 
L 36.375 41.703125 
Q 47.40625 39.59375 52.65625 34.296875 
Q 57.90625 29 57.90625 20.125 
Q 57.90625 9.515625 50.796875 4.046875 
Q 43.703125 -1.421875 29.984375 -1.421875 
Q 24.8125 -1.421875 18.96875 -0.25 
Q 13.140625 0.921875 6.890625 3.21875 
L 6.890625 13.375 
Q 12.890625 10.015625 18.65625 8.296875 
Q 24.421875 6.59375 29.984375 6.59375 
Q 38.421875 6.59375 43.015625 9.90625 
Q 47.609375 13.234375 47.609375 19.390625 
Q 47.609375 24.75 44.3125 27.78125 
Q 41.015625 30.8125 33.5 32.328125 
L 27.484375 33.5 
Q 16.453125 35.6875 11.515625 40.375 
Q 6.59375 45.0625 6.59375 53.421875 
Q 6.59375 63.09375 13.40625 68.65625 
Q 20.21875 74.21875 32.171875 74.21875 
Q 37.3125 74.21875 42.625 73.28125 
Q 47.953125 72.359375 53.515625 70.515625 
z
" id="DejaVuSans-53"/>
      <path d="M 18.3125 70.21875 
L 18.3125 54.6875 
L 36.8125 54.6875 
L 36.8125 47.703125 
L 18.3125 47.703125 
L 18.3125 18.015625 
Q 18.3125 11.328125 20.140625 9.421875 
Q 21.96875 7.515625 27.59375 7.515625 
L 36.8125 7.515625 
L 36.8125 0 
L 27.59375 0 
Q 17.1875 0 13.234375 3.875 
Q 9.28125 7.765625 9.28125 18.015625 
L 9.28125 47.703125 
L 2.6875 47.703125 
L 2.6875 54.6875 
L 9.28125 54.6875 
L 9.28125 70.21875 
z
" id="DejaVuSans-74"/>
      <path d="M 56.203125 29.59375 
L 56.203125 25.203125 
L 14.890625 25.203125 
Q 15.484375 15.921875 20.484375 11.0625 
Q 25.484375 6.203125 34.421875 6.203125 
Q 39.59375 6.203125 44.453125 7.46875 
Q 49.3125 8.734375 54.109375 11.28125 
L 54.109375 2.78125 
Q 49.265625 0.734375 44.1875 -0.34375 
Q 39.109375 -1.421875 33.890625 -1.421875 
Q 20.796875 -1.421875 13.15625 6.1875 
Q 5.515625 13.8125 5.515625 26.8125 
Q 5.515625 40.234375 12.765625 48.109375 
Q 20.015625 56 32.328125 56 
Q 43.359375 56 49.78125 48.890625 
Q 56.203125 41.796875 56.203125 29.59375 
z
M 47.21875 32.234375 
Q 47.125 39.59375 43.09375 43.984375 
Q 39.0625 48.390625 32.421875 48.390625 
Q 24.90625 48.390625 20.390625 44.140625 
Q 15.875 39.890625 15.1875 32.171875 
z
" id="DejaVuSans-65"/>
      <path d="M 18.109375 8.203125 
L 18.109375 -20.796875 
L 9.078125 -20.796875 
L 9.078125 54.6875 
L 18.109375 54.6875 
L 18.109375 46.390625 
Q 20.953125 51.265625 25.265625 53.625 
Q 29.59375 56 35.59375 56 
Q 45.5625 56 51.78125 48.09375 
Q 58.015625 40.1875 58.015625 27.296875 
Q 58.015625 14.40625 51.78125 6.484375 
Q 45.5625 -1.421875 35.59375 -1.421875 
Q 29.59375 -1.421875 25.265625 0.953125 
Q 20.953125 3.328125 18.109375 8.203125 
z
M 48.6875 27.296875 
Q 48.6875 37.203125 44.609375 42.84375 
Q 40.53125 48.484375 33.40625 48.484375 
Q 26.265625 48.484375 22.1875 42.84375 
Q 18.109375 37.203125 18.109375 27.296875 
Q 18.109375 17.390625 22.1875 11.75 
Q 26.265625 6.109375 33.40625 6.109375 
Q 40.53125 6.109375 44.609375 11.75 
Q 48.6875 17.390625 48.6875 27.296875 
z
" id="DejaVuSans-70"/>
      <path d="M 44.28125 53.078125 
L 44.28125 44.578125 
Q 40.484375 46.53125 36.375 47.5 
Q 32.28125 48.484375 27.875 48.484375 
Q 21.1875 48.484375 17.84375 46.4375 
Q 14.5 44.390625 14.5 40.28125 
Q 14.5 37.15625 16.890625 35.375 
Q 19.28125 33.59375 26.515625 31.984375 
L 29.59375 31.296875 
Q 39.15625 29.25 43.1875 25.515625 
Q 47.21875 21.78125 47.21875 15.09375 
Q 47.21875 7.46875 41.1875 3.015625 
Q 35.15625 -1.421875 24.609375 -1.421875 
Q 20.21875 -1.421875 15.453125 -0.5625 
Q 10.6875 0.296875 5.421875 2 
L 5.421875 11.28125 
Q 10.40625 8.6875 15.234375 7.390625 
Q 20.0625 6.109375 24.8125 6.109375 
Q 31.15625 6.109375 34.5625 8.28125 
Q 37.984375 10.453125 37.984375 14.40625 
Q 37.984375 18.0625 35.515625 20.015625 
Q 33.0625 21.96875 24.703125 23.78125 
L 21.578125 24.515625 
Q 13.234375 26.265625 9.515625 29.90625 
Q 5.8125 33.546875 5.8125 39.890625 
Q 5.8125 47.609375 11.28125 51.796875 
Q 16.75 56 26.8125 56 
Q 31.78125 56 36.171875 55.265625 
Q 40.578125 54.546875 44.28125 53.078125 
z
" id="DejaVuSans-73"/>
     </defs>
     <g transform="translate(222.170156 335.860562)scale(0.1 -0.1)">
      <use xlink:href="#DejaVuSans-53"/>
      <use x="63.476562" xlink:href="#DejaVuSans-74"/>
      <use x="102.685547" xlink:href="#DejaVuSans-65"/>
      <use x="164.208984" xlink:href="#DejaVuSans-70"/>
      <use x="227.685547" xlink:href="#DejaVuSans-73"/>
     </g>
    </g>
   </g>
   <g id="matplotlib.axis_2">
    <g id="ytick_1">
     <g id="line2d_6">
      <defs>
       <path d="M 0 0 
L -3.5 0 
" id="mc19a182b62" style="stroke:#000000;stroke-width:0.8;"/>
      </defs>
      <g>
       <use style="stroke:#000000;stroke-width:0.8;" x="57.6" xlink:href="#mc19a182b62" y="288.163126"/>
      </g>
     </g>
     <g id="text_7">
      <!-- 0.0 -->
      <defs>
       <path d="M 10.6875 12.40625 
L 21 12.40625 
L 21 0 
L 10.6875 0 
z
" id="DejaVuSans-2e"/>
      </defs>
      <g transform="translate(34.696875 291.962345)scale(0.1 -0.1)">
       <use xlink:href="#DejaVuSans-30"/>
       <use x="63.623047" xlink:href="#DejaVuSans-2e"/>
       <use x="95.410156" xlink:href="#DejaVuSans-30"/>
      </g>
     </g>
    </g>
    <g id="ytick_2">
     <g id="line2d_7">
      <g>
       <use style="stroke:#000000;stroke-width:0.8;" x="57.6" xlink:href="#mc19a182b62" y="214.622665"/>
      </g>
     </g>
     <g id="text_8">
      <!-- 0.5 -->
      <g transform="translate(34.696875 218.421884)scale(0.1 -0.1)">
       <use xlink:href="#DejaVuSans-30"/>
       <use x="63.623047" xlink:href="#DejaVuSans-2e"/>
       <use x="95.410156" xlink:href="#DejaVuSans-35"/>
      </g>
     </g>
    </g>
    <g id="ytick_3">
     <g id="line2d_8">
      <g>
       <use style="stroke:#000000;stroke-width:0.8;" x="57.6" xlink:href="#mc19a182b62" y="141.082205"/>
      </g>
     </g>
     <g id="text_9">
      <!-- 1.0 -->
      <g transform="translate(34.696875 144.881423)scale(0.1 -0.1)">
       <use xlink:href="#DejaVuSans-31"/>
       <use x="63.623047" xlink:href="#DejaVuSans-2e"/>
       <use x="95.410156" xlink:href="#DejaVuSans-30"/>
      </g>
     </g>
    </g>
    <g id="ytick_4">
     <g id="line2d_9">
      <g>
       <use style="stroke:#000000;stroke-width:0.8;" x="57.6" xlink:href="#mc19a182b62" y="67.541744"/>
      </g>
     </g>
     <g id="text_10">
      <!-- 1.5 -->
      <g transform="translate(34.696875 71.340963)scale(0.1 -0.1)">
       <use xlink:href="#DejaVuSans-31"/>
       <use x="63.623047" xlink:href="#DejaVuSans-2e"/>
       <use x="95.410156" xlink:href="#DejaVuSans-35"/>
      </g>
     </g>
    </g>
    <g id="text_11">
     <!-- Average reward -->
     <defs>
      <path d="M 34.1875 63.1875 
L 20.796875 26.90625 
L 47.609375 26.90625 
z
M 28.609375 72.90625 
L 39.796875 72.90625 
L 67.578125 0 
L 57.328125 0 
L 50.6875 18.703125 
L 17.828125 18.703125 
L 11.1875 0 
L 0.78125 0 
z
" id="DejaVuSans-41"/>
      <path d="M 2.984375 54.6875 
L 12.5 54.6875 
L 29.59375 8.796875 
L 46.6875 54.6875 
L 56.203125 54.6875 
L 35.6875 0 
L 23.484375 0 
z
" id="DejaVuSans-76"/>
      <path d="M 41.109375 46.296875 
Q 39.59375 47.171875 37.8125 47.578125 
Q 36.03125 48 33.890625 48 
Q 26.265625 48 22.1875 43.046875 
Q 18.109375 38.09375 18.109375 28.8125 
L 18.109375 0 
L 9.078125 0 
L 9.078125 54.6875 
L 18.109375 54.6875 
L 18.109375 46.1875 
Q 20.953125 51.171875 25.484375 53.578125 
Q 30.03125 56 36.53125 56 
Q 37.453125 56 38.578125 55.875 
Q 39.703125 55.765625 41.0625 55.515625 
z
" id="DejaVuSans-72"/>
      <path d="M 34.28125 27.484375 
Q 23.390625 27.484375 19.1875 25 
Q 14.984375 22.515625 14.984375 16.5 
Q 14.984375 11.71875 18.140625 8.90625 
Q 21.296875 6.109375 26.703125 6.109375 
Q 34.1875 6.109375 38.703125 11.40625 
Q 43.21875 16.703125 43.21875 25.484375 
L 43.21875 27.484375 
z
M 52.203125 31.203125 
L 52.203125 0 
L 43.21875 0 
L 43.21875 8.296875 
Q 40.140625 3.328125 35.546875 0.953125 
Q 30.953125 -1.421875 24.3125 -1.421875 
Q 15.921875 -1.421875 10.953125 3.296875 
Q 6 8.015625 6 15.921875 
Q 6 25.140625 12.171875 29.828125 
Q 18.359375 34.515625 30.609375 34.515625 
L 43.21875 34.515625 
L 43.21875 35.40625 
Q 43.21875 41.609375 39.140625 45 
Q 35.0625 48.390625 27.6875 48.390625 
Q 23 48.390625 18.546875 47.265625 
Q 14.109375 46.140625 10.015625 43.890625 
L 10.015625 52.203125 
Q 14.9375 54.109375 19.578125 55.046875 
Q 24.21875 56 28.609375 56 
Q 40.484375 56 46.34375 49.84375 
Q 52.203125 43.703125 52.203125 31.203125 
z
" id="DejaVuSans-61"/>
      <path d="M 45.40625 27.984375 
Q 45.40625 37.75 41.375 43.109375 
Q 37.359375 48.484375 30.078125 48.484375 
Q 22.859375 48.484375 18.828125 43.109375 
Q 14.796875 37.75 14.796875 27.984375 
Q 14.796875 18.265625 18.828125 12.890625 
Q 22.859375 7.515625 30.078125 7.515625 
Q 37.359375 7.515625 41.375 12.890625 
Q 45.40625 18.265625 45.40625 27.984375 
z
M 54.390625 6.78125 
Q 54.390625 -7.171875 48.1875 -13.984375 
Q 42 -20.796875 29.203125 -20.796875 
Q 24.46875 -20.796875 20.265625 -20.09375 
Q 16.0625 -19.390625 12.109375 -17.921875 
L 12.109375 -9.1875 
Q 16.0625 -11.328125 19.921875 -12.34375 
Q 23.78125 -13.375 27.78125 -13.375 
Q 36.625 -13.375 41.015625 -8.765625 
Q 45.40625 -4.15625 45.40625 5.171875 
L 45.40625 9.625 
Q 42.625 4.78125 38.28125 2.390625 
Q 33.9375 0 27.875 0 
Q 17.828125 0 11.671875 7.65625 
Q 5.515625 15.328125 5.515625 27.984375 
Q 5.515625 40.671875 11.671875 48.328125 
Q 17.828125 56 27.875 56 
Q 33.9375 56 38.28125 53.609375 
Q 42.625 51.21875 45.40625 46.390625 
L 45.40625 54.6875 
L 54.390625 54.6875 
z
" id="DejaVuSans-67"/>
      <path id="DejaVuSans-20"/>
      <path d="M 4.203125 54.6875 
L 13.1875 54.6875 
L 24.421875 12.015625 
L 35.59375 54.6875 
L 46.1875 54.6875 
L 57.421875 12.015625 
L 68.609375 54.6875 
L 77.59375 54.6875 
L 63.28125 0 
L 52.6875 0 
L 40.921875 44.828125 
L 29.109375 0 
L 18.5 0 
z
" id="DejaVuSans-77"/>
      <path d="M 45.40625 46.390625 
L 45.40625 75.984375 
L 54.390625 75.984375 
L 54.390625 0 
L 45.40625 0 
L 45.40625 8.203125 
Q 42.578125 3.328125 38.25 0.953125 
Q 33.9375 -1.421875 27.875 -1.421875 
Q 17.96875 -1.421875 11.734375 6.484375 
Q 5.515625 14.40625 5.515625 27.296875 
Q 5.515625 40.1875 11.734375 48.09375 
Q 17.96875 56 27.875 56 
Q 33.9375 56 38.25 53.625 
Q 42.578125 51.265625 45.40625 46.390625 
z
M 14.796875 27.296875 
Q 14.796875 17.390625 18.875 11.75 
Q 22.953125 6.109375 30.078125 6.109375 
Q 37.203125 6.109375 41.296875 11.75 
Q 45.40625 17.390625 45.40625 27.296875 
Q 45.40625 37.203125 41.296875 42.84375 
Q 37.203125 48.484375 30.078125 48.484375 
Q 22.953125 48.484375 18.875 42.84375 
Q 14.796875 37.203125 14.796875 27.296875 
z
" id="DejaVuSans-64"/>
     </defs>
     <g transform="translate(28.617187 214.452219)rotate(-90)scale(0.1 -0.1)">
      <use xlink:href="#DejaVuSans-41"/>
      <use x="68.330078" xlink:href="#DejaVuSans-76"/>
      <use x="127.509766" xlink:href="#DejaVuSans-65"/>
      <use x="189.033203" xlink:href="#DejaVuSans-72"/>
      <use x="230.146484" xlink:href="#DejaVuSans-61"/>
      <use x="291.425781" xlink:href="#DejaVuSans-67"/>
      <use x="354.902344" xlink:href="#DejaVuSans-65"/>
      <use x="416.425781" xlink:href="#DejaVuSans-20"/>
      <use x="448.212891" xlink:href="#DejaVuSans-72"/>
      <use x="489.294922" xlink:href="#DejaVuSans-65"/>
      <use x="550.818359" xlink:href="#DejaVuSans-77"/>
      <use x="632.605469" xlink:href="#DejaVuSans-61"/>
      <use x="693.884766" xlink:href="#DejaVuSans-72"/>
      <use x="734.982422" xlink:href="#DejaVuSans-64"/>
     </g>
    </g>
   </g>
   <g id="line2d_10">
    <path clip-path="url(#p6b0ac4f994)" d="M 73.832727 288.266096 
L 74.157707 291.116899 
L 74.482686 292.547364 
L 74.807666 275.929829 
L 75.132645 285.694695 
L 75.457625 291.9226 
L 75.782604 293.867683 
L 76.107584 287.841084 
L 76.432563 294.42399 
L 76.757543 292.2165 
L 77.082523 133.657436 
L 77.407502 145.756972 
L 77.732482 146.342965 
L 78.057461 150.071208 
L 78.382441 147.139034 
L 78.70742 146.319312 
L 79.0324 148.23055 
L 79.357379 144.471667 
L 79.682359 143.654777 
L 80.007338 136.179021 
L 80.332318 139.940972 
L 80.657297 140.435888 
L 80.982277 133.917439 
L 81.307256 133.169639 
L 81.632236 125.858399 
L 81.957215 132.026039 
L 82.282195 129.656469 
L 82.607174 124.681451 
L 82.932154 121.522824 
L 83.257133 123.996754 
L 83.582113 121.100409 
L 83.907093 113.989874 
L 84.232072 120.981953 
L 84.557052 115.451039 
L 84.882031 115.948532 
L 85.53199 113.132455 
L 85.85697 112.687755 
L 86.181949 119.413695 
L 86.506929 108.233637 
L 87.156888 113.47092 
L 87.481867 109.786782 
L 87.806847 114.229836 
L 88.131826 116.945324 
L 88.456806 112.54207 
L 88.781785 100.966266 
L 89.106765 115.180112 
L 89.431744 107.556374 
L 89.756724 108.607029 
L 90.081704 110.577697 
L 90.406683 110.107661 
L 90.731663 108.152089 
L 91.056642 104.76879 
L 91.381622 113.576208 
L 92.031581 97.151048 
L 92.35656 103.877724 
L 92.68154 101.147456 
L 93.006519 100.83196 
L 93.331499 101.859208 
L 93.656478 99.071448 
L 93.981458 101.9838 
L 94.306437 106.215822 
L 94.631417 96.617121 
L 94.956396 99.178366 
L 95.281376 95.527752 
L 95.931335 97.517935 
L 96.256314 98.751095 
L 96.581294 98.2893 
L 96.906274 96.681784 
L 97.231253 96.990986 
L 97.556233 95.394393 
L 97.881212 87.174081 
L 98.206192 91.906471 
L 98.531171 93.588943 
L 98.856151 89.832672 
L 99.18113 91.580017 
L 99.50611 88.500799 
L 99.831089 89.055574 
L 100.156069 91.923321 
L 100.481048 90.230768 
L 100.806028 92.673804 
L 101.131007 91.911907 
L 101.455987 94.85091 
L 101.780966 93.559241 
L 102.105946 95.302202 
L 102.430925 88.171592 
L 102.755905 87.947287 
L 103.080885 96.890502 
L 103.405864 90.604423 
L 103.730844 93.246953 
L 104.380803 91.907874 
L 104.705782 89.592587 
L 105.030762 90.47578 
L 105.355741 84.295375 
L 105.680721 89.314244 
L 106.0057 88.287768 
L 106.33068 90.828657 
L 106.655659 86.928157 
L 106.980639 84.428383 
L 107.305618 87.218773 
L 107.630598 88.137472 
L 107.955577 94.247953 
L 108.280557 85.420915 
L 108.605536 86.938888 
L 108.930516 86.85627 
L 109.255495 90.234135 
L 109.580475 88.097548 
L 109.905455 81.350972 
L 110.555414 90.723282 
L 110.880393 84.650619 
L 111.205373 91.334689 
L 111.530352 87.075473 
L 111.855332 89.40789 
L 112.180311 83.433853 
L 112.505291 83.081326 
L 112.83027 90.509619 
L 113.15525 83.286257 
L 113.480229 83.932328 
L 113.805209 87.887182 
L 114.130188 85.899893 
L 114.455168 82.129788 
L 114.780147 86.62553 
L 115.105127 82.659245 
L 115.430106 85.783944 
L 115.755086 86.179919 
L 116.080066 86.297603 
L 116.405045 80.69964 
L 116.730025 84.121671 
L 117.055004 86.030201 
L 117.379984 85.587324 
L 117.704963 84.855112 
L 118.029943 93.377016 
L 118.354922 87.480442 
L 118.679902 72.532717 
L 119.004881 88.997257 
L 119.329861 83.931714 
L 119.65484 82.736637 
L 119.97982 79.108851 
L 120.304799 77.429308 
L 120.629779 82.76725 
L 120.954758 81.279383 
L 121.279738 77.287708 
L 121.604717 85.38818 
L 121.929697 78.113672 
L 122.254676 79.469636 
L 122.579656 77.485503 
L 122.904636 79.190767 
L 123.229615 76.891681 
L 123.554595 77.927117 
L 123.879574 77.857877 
L 124.204554 77.662345 
L 124.529533 84.570474 
L 124.854513 82.384952 
L 125.179492 79.43869 
L 125.504472 80.48831 
L 125.829451 77.734933 
L 126.154431 87.293676 
L 126.47941 74.690677 
L 126.80439 82.730027 
L 127.129369 77.786359 
L 127.454349 83.712003 
L 127.779328 78.34834 
L 128.104308 82.552869 
L 128.754267 81.416827 
L 129.079247 82.674218 
L 129.404226 81.80947 
L 129.729206 84.403539 
L 130.054185 83.834088 
L 130.379165 81.886442 
L 130.704144 78.651878 
L 131.029124 80.303999 
L 131.354103 74.825667 
L 131.679083 79.947036 
L 132.004062 75.777591 
L 132.329042 78.947614 
L 132.654021 77.055128 
L 132.979001 79.718032 
L 133.30398 77.700778 
L 133.62896 77.580148 
L 133.953939 80.387809 
L 134.278919 74.240472 
L 134.603898 72.918838 
L 134.928878 79.190434 
L 135.253857 75.461884 
L 135.578837 73.87234 
L 135.903817 82.532443 
L 136.228796 78.630224 
L 136.553776 79.936709 
L 136.878755 69.109354 
L 137.203735 77.19131 
L 137.528714 78.662345 
L 137.853694 82.16638 
L 138.178673 80.91055 
L 138.503653 85.238673 
L 138.828632 76.641585 
L 139.153612 79.984575 
L 139.478591 80.210441 
L 139.803571 82.820657 
L 140.12855 71.610109 
L 140.45353 82.801318 
L 140.778509 77.036542 
L 141.103489 73.890961 
L 141.428468 77.09712 
L 142.078428 74.702617 
L 142.403407 75.389103 
L 142.728387 82.607994 
L 143.053366 80.384284 
L 143.378346 72.618771 
L 143.703325 73.360908 
L 144.028305 76.008628 
L 144.353284 75.623665 
L 144.678264 76.98794 
L 145.003243 73.097626 
L 145.328223 72.309955 
L 145.653202 78.282396 
L 145.978182 77.920805 
L 146.303161 78.769843 
L 146.628141 78.735197 
L 146.95312 80.578555 
L 147.2781 73.684277 
L 147.603079 71.529806 
L 147.928059 77.428221 
L 148.253038 71.126012 
L 148.578018 72.868938 
L 148.902998 75.487676 
L 149.227977 79.494131 
L 149.552957 71.89515 
L 149.877936 74.314235 
L 150.202916 83.813943 
L 150.852875 70.51264 
L 151.177854 75.296071 
L 151.502834 65.419342 
L 151.827813 71.225812 
L 152.477772 75.469388 
L 152.802752 75.112917 
L 153.127731 77.385738 
L 153.452711 76.386333 
L 153.77769 77.062229 
L 154.10267 80.148705 
L 154.752629 75.359051 
L 155.077609 79.238248 
L 155.402588 76.217101 
L 156.052547 78.044696 
L 156.377527 81.330685 
L 156.702506 77.893979 
L 157.027486 72.786934 
L 157.352465 76.688241 
L 157.677445 70.377843 
L 158.002424 77.855633 
L 158.327404 77.151877 
L 158.652383 75.310203 
L 158.977363 80.240791 
L 159.302342 78.148529 
L 159.627322 75.050147 
L 159.952301 78.406673 
L 160.277281 72.91349 
L 160.60226 71.620349 
L 160.92724 75.880389 
L 161.252219 75.815235 
L 161.577199 80.138571 
L 161.902179 81.345466 
L 162.227158 73.734685 
L 162.552138 74.636569 
L 162.877117 77.221081 
L 163.202097 70.33927 
L 163.527076 77.310344 
L 163.852056 73.092489 
L 164.177035 77.133239 
L 164.502015 71.874022 
L 164.826994 71.961251 
L 165.151974 73.574816 
L 165.476953 70.702194 
L 165.801933 77.541066 
L 166.126912 71.416014 
L 166.451892 73.901954 
L 166.776871 81.869312 
L 167.42683 74.710209 
L 168.07679 78.79318 
L 168.401769 77.491149 
L 168.726749 75.05055 
L 169.051728 77.303436 
L 169.376708 76.151754 
L 169.701687 79.129839 
L 170.026667 72.387242 
L 170.351646 77.893488 
L 170.676626 71.684328 
L 171.326585 75.27091 
L 171.651564 75.347373 
L 171.976544 75.144564 
L 172.301523 73.218028 
L 172.626503 75.035927 
L 172.951482 73.516482 
L 173.276462 81.233165 
L 173.601441 73.804942 
L 173.926421 76.10131 
L 174.90136 68.418046 
L 175.226339 76.895924 
L 175.551319 74.152892 
L 175.876298 76.625612 
L 176.201278 75.761688 
L 176.526257 68.926077 
L 176.851237 69.233771 
L 177.176216 77.023094 
L 177.501196 75.989815 
L 178.151155 71.032436 
L 178.476134 79.120984 
L 178.801114 73.821581 
L 179.126093 75.170935 
L 179.451073 69.880859 
L 179.776052 74.571239 
L 180.101032 77.325458 
L 180.426011 69.413804 
L 180.750991 76.993585 
L 181.075971 72.320721 
L 181.40095 72.713417 
L 181.72593 67.244272 
L 182.375889 75.584355 
L 182.700868 69.129903 
L 183.025848 75.790986 
L 183.350827 71.426254 
L 183.675807 72.309745 
L 184.325766 76.022778 
L 184.650745 74.861768 
L 184.975725 76.688206 
L 185.625684 71.052722 
L 185.950663 75.432586 
L 186.275643 70.083983 
L 186.600622 73.106709 
L 186.925602 77.443563 
L 187.250581 72.917593 
L 187.575561 73.114318 
L 187.900541 72.848284 
L 188.22552 74.054986 
L 188.5505 73.130834 
L 189.200459 78.402115 
L 189.525438 76.483363 
L 189.850418 84.53553 
L 190.175397 67.488004 
L 190.500377 75.348233 
L 190.825356 72.439194 
L 191.150336 71.072131 
L 191.475315 76.054286 
L 191.800295 77.681895 
L 192.125274 69.565626 
L 192.450254 71.795262 
L 192.775233 76.884387 
L 193.425192 71.62503 
L 193.750172 71.469684 
L 194.075152 65.982585 
L 194.400131 74.218572 
L 194.725111 71.478521 
L 195.05009 74.223236 
L 195.700049 73.461655 
L 196.025029 73.717608 
L 196.350008 75.192483 
L 196.674988 74.31718 
L 197.324947 73.483133 
L 197.649926 79.119775 
L 197.974906 74.092086 
L 198.624865 71.867955 
L 198.949844 72.851475 
L 199.274824 71.524528 
L 199.599803 75.902586 
L 199.924783 75.107113 
L 200.249762 72.485219 
L 200.574742 78.52157 
L 201.224701 74.339044 
L 201.549681 75.328209 
L 201.87466 78.377848 
L 202.524619 67.982043 
L 202.849599 75.842517 
L 203.174578 70.452974 
L 203.499558 77.383213 
L 203.824537 73.196234 
L 204.149517 75.783026 
L 204.474496 68.261911 
L 204.799476 75.574343 
L 205.124455 69.045304 
L 205.449435 68.176331 
L 205.774414 71.828716 
L 206.099394 72.572939 
L 206.424373 63.562851 
L 207.074333 76.661696 
L 207.399312 68.329415 
L 207.724292 72.332451 
L 208.049271 74.179315 
L 208.374251 73.550321 
L 208.69923 67.130129 
L 209.349189 75.019867 
L 209.674169 73.100116 
L 209.999148 76.70737 
L 210.324128 70.817774 
L 210.649107 67.398233 
L 210.974087 68.973855 
L 211.299066 62.594393 
L 211.624046 78.761813 
L 212.274005 66.632233 
L 212.598984 74.137059 
L 212.923964 70.192515 
L 213.573923 82.446249 
L 213.898903 65.694108 
L 214.223882 77.915212 
L 214.548862 73.642459 
L 215.198821 74.528283 
L 215.5238 74.442632 
L 215.84878 68.167248 
L 216.173759 76.400693 
L 216.498739 69.776973 
L 216.823718 74.349161 
L 217.148698 73.520111 
L 217.473677 67.49542 
L 218.123636 68.888047 
L 218.448616 77.904569 
L 218.773595 69.45108 
L 219.098575 72.747361 
L 219.423554 65.31095 
L 219.748534 74.2107 
L 220.073514 68.415328 
L 220.398493 68.226494 
L 220.723473 62.714375 
L 221.048452 74.419821 
L 221.373432 63.795222 
L 221.698411 72.145439 
L 222.023391 69.862028 
L 222.34837 66.747357 
L 222.67335 69.728178 
L 222.998329 70.840971 
L 223.323309 69.750813 
L 223.648288 71.477293 
L 223.973268 67.86264 
L 224.298247 67.543515 
L 224.623227 75.315252 
L 224.948206 70.396025 
L 225.273186 77.407356 
L 225.598165 70.724637 
L 225.923145 71.170739 
L 226.248124 67.422762 
L 226.573104 68.500032 
L 226.898084 71.343689 
L 227.223063 67.672824 
L 227.873022 71.390258 
L 228.198002 72.239909 
L 228.522981 71.782445 
L 228.847961 71.015954 
L 229.17294 73.174721 
L 229.49792 69.760702 
L 229.822899 77.924014 
L 230.147879 74.174616 
L 230.472858 76.337783 
L 230.797838 70.636777 
L 231.122817 73.403689 
L 231.447797 77.17439 
L 231.772776 71.271048 
L 232.097756 73.055739 
L 232.422735 71.345302 
L 232.747715 70.567292 
L 233.072695 67.856749 
L 233.722654 75.006191 
L 234.047633 68.582773 
L 234.697592 75.00961 
L 235.022572 68.480044 
L 235.347551 70.484219 
L 235.672531 68.467245 
L 235.99751 74.563735 
L 236.32249 71.453571 
L 236.647469 70.078618 
L 236.972449 64.306987 
L 237.297428 71.041939 
L 237.622408 71.948627 
L 237.947387 69.966194 
L 238.272367 69.617735 
L 238.597346 74.299016 
L 238.922326 70.389415 
L 239.247305 67.833622 
L 239.897265 73.657205 
L 240.222244 65.37791 
L 240.547224 67.602199 
L 240.872203 66.795943 
L 241.197183 72.839552 
L 241.522162 73.418558 
L 241.847142 68.088786 
L 242.172121 71.722831 
L 242.497101 68.744185 
L 242.82208 72.813673 
L 243.14706 71.176771 
L 243.472039 61.946253 
L 243.797019 71.349475 
L 244.121998 72.93716 
L 244.446978 69.536292 
L 244.771957 71.806711 
L 245.096937 72.217852 
L 245.746896 72.142511 
L 246.071876 67.013234 
L 246.396855 79.027952 
L 246.721835 63.42155 
L 247.046814 68.511938 
L 247.371794 69.5523 
L 247.696773 69.325979 
L 248.021753 69.799346 
L 248.346732 68.260719 
L 248.671712 68.851227 
L 248.996691 74.813288 
L 249.321671 73.7505 
L 249.64665 71.774222 
L 249.97163 73.96283 
L 250.296609 62.115047 
L 250.621589 65.330325 
L 250.946568 66.355556 
L 251.271548 72.347459 
L 251.596527 70.757547 
L 251.921507 67.250005 
L 252.246486 65.514548 
L 252.571466 68.27578 
L 252.896446 65.620713 
L 253.221425 70.268785 
L 253.546405 70.272222 
L 253.871384 66.044688 
L 254.196364 71.829452 
L 254.521343 72.413683 
L 254.846323 70.726969 
L 255.171302 71.709383 
L 255.496282 68.481307 
L 255.821261 73.561683 
L 256.146241 70.03389 
L 256.47122 68.015637 
L 256.7962 75.941107 
L 257.121179 63.485897 
L 257.446159 71.338815 
L 257.771138 68.02756 
L 258.096118 67.792699 
L 258.421097 71.715976 
L 259.071057 71.005873 
L 259.396036 70.905213 
L 260.045995 75.594682 
L 260.370975 69.699458 
L 260.695954 69.645297 
L 261.020934 66.452498 
L 261.345913 69.081493 
L 261.670893 67.246569 
L 261.995872 73.892065 
L 262.320852 66.484146 
L 262.645831 68.488723 
L 262.970811 65.178994 
L 263.29579 71.517936 
L 263.62077 67.226353 
L 263.945749 71.763509 
L 264.270729 71.626135 
L 264.595708 72.060963 
L 264.920688 66.267187 
L 265.245667 69.134514 
L 265.570647 66.802184 
L 265.895627 68.020511 
L 266.220606 70.09659 
L 266.545586 65.495016 
L 266.870565 72.330399 
L 267.195545 71.045726 
L 267.520524 63.284929 
L 267.845504 64.486687 
L 268.170483 71.671125 
L 268.495463 67.020125 
L 268.820442 67.557173 
L 269.145422 76.350074 
L 269.470401 70.235472 
L 269.795381 70.617139 
L 270.12036 66.938437 
L 270.44534 72.231107 
L 270.770319 68.380455 
L 271.420278 72.160413 
L 271.745258 68.704314 
L 272.070238 68.991389 
L 272.395217 73.733423 
L 272.720197 69.300047 
L 273.045176 68.253653 
L 273.695135 74.138497 
L 274.020115 69.351034 
L 274.345094 66.788438 
L 274.670074 69.845827 
L 274.995053 67.282898 
L 275.320033 71.670196 
L 275.645012 65.732155 
L 275.969992 73.51287 
L 276.619951 64.760962 
L 276.94493 60.472991 
L 277.26991 68.880157 
L 277.594889 64.314176 
L 277.919869 71.221919 
L 278.244848 71.21289 
L 278.569828 65.962579 
L 278.894808 68.450115 
L 279.219787 74.338378 
L 279.544767 71.789634 
L 279.869746 77.134922 
L 280.194726 73.787548 
L 280.519705 73.200302 
L 280.844685 73.347284 
L 281.169664 64.716287 
L 281.494644 74.281921 
L 281.819623 64.777934 
L 282.144603 70.173211 
L 282.469582 68.77955 
L 282.794562 68.321542 
L 283.119541 73.586686 
L 283.444521 66.8814 
L 283.7695 67.604601 
L 284.09448 71.316144 
L 284.419459 66.011024 
L 284.744439 64.81365 
L 285.069419 65.077388 
L 285.394398 71.356453 
L 285.719378 69.699984 
L 286.044357 67.246008 
L 286.369337 71.369954 
L 286.694316 73.572554 
L 287.344275 69.396937 
L 287.669255 68.733192 
L 287.994234 70.631622 
L 288.319214 66.740397 
L 288.644193 64.35829 
L 288.969173 67.030838 
L 289.294152 74.324912 
L 289.619132 67.705857 
L 289.944111 70.511202 
L 290.269091 74.412755 
L 290.59407 65.882469 
L 290.91905 70.350105 
L 291.244029 70.231036 
L 291.569009 65.858413 
L 291.893989 71.238488 
L 292.218968 67.501943 
L 292.543948 67.580493 
L 292.868927 69.871023 
L 293.193907 70.666443 
L 293.518886 64.919552 
L 293.843866 70.335851 
L 294.168845 66.404895 
L 294.493825 70.397814 
L 294.818804 68.000032 
L 295.143784 70.971718 
L 295.468763 67.670983 
L 295.793743 68.154554 
L 296.118722 62.771569 
L 296.443702 74.772611 
L 296.768681 70.584457 
L 297.093661 68.15501 
L 297.41864 70.086175 
L 297.74362 68.439945 
L 298.0686 73.786216 
L 298.393579 63.936524 
L 299.043538 73.641793 
L 299.368518 74.148141 
L 299.693497 68.196424 
L 300.018477 68.81381 
L 300.343456 76.077535 
L 300.668436 66.621801 
L 300.993415 68.529804 
L 301.318395 68.386994 
L 301.643374 70.010536 
L 301.968354 69.462652 
L 302.293333 67.936596 
L 302.618313 63.976324 
L 302.943292 71.41014 
L 303.268272 66.255545 
L 303.918231 73.478434 
L 304.24321 64.560783 
L 304.56819 64.510304 
L 304.89317 74.390259 
L 305.218149 69.532663 
L 305.543129 66.949921 
L 305.868108 65.718427 
L 306.193088 72.521285 
L 306.518067 66.03892 
L 307.168026 72.578988 
L 307.493006 74.779536 
L 307.817985 68.580704 
L 308.142965 66.675313 
L 308.467944 69.693041 
L 308.792924 71.342181 
L 309.117903 68.359765 
L 309.442883 76.993147 
L 309.767862 70.092557 
L 310.092842 71.754672 
L 310.417821 66.195581 
L 310.742801 71.019321 
L 311.067781 66.538131 
L 311.39276 69.672755 
L 311.71774 76.22606 
L 312.042719 70.904863 
L 312.367699 68.407982 
L 312.692678 67.758615 
L 313.017658 65.470609 
L 313.342637 68.925305 
L 313.667617 68.972172 
L 313.992596 72.591507 
L 314.317576 68.70491 
L 314.642555 68.757738 
L 314.967535 72.355945 
L 315.292514 65.538955 
L 315.617494 69.664654 
L 315.942473 66.395918 
L 316.267453 72.875145 
L 316.592432 71.44526 
L 316.917412 63.568708 
L 317.242391 69.764752 
L 317.567371 57.162946 
L 317.892351 65.321523 
L 318.21733 70.391642 
L 318.54231 70.590085 
L 318.867289 67.200386 
L 319.192269 70.024159 
L 319.517248 66.889343 
L 319.842228 69.140177 
L 320.492187 70.162743 
L 320.817166 67.097289 
L 321.142146 65.500311 
L 321.467125 67.287755 
L 321.792105 66.360763 
L 322.117084 67.976993 
L 322.442064 64.979113 
L 322.767043 71.402338 
L 323.092023 70.268733 
L 323.741982 65.652308 
L 324.066962 66.594694 
L 324.391941 63.542565 
L 324.716921 72.200617 
L 325.0419 68.554386 
L 325.36688 67.002854 
L 325.691859 69.024755 
L 326.016839 69.235875 
L 326.341818 72.809693 
L 326.666798 72.073885 
L 326.991777 72.598538 
L 327.316757 66.767538 
L 327.641736 70.89159 
L 327.966716 68.89215 
L 328.291695 70.752532 
L 328.616675 67.284248 
L 328.941654 67.477905 
L 329.266634 72.554546 
L 329.591613 74.138708 
L 329.916593 67.478939 
L 330.241572 73.414297 
L 330.566552 69.175244 
L 330.891532 67.1845 
L 331.216511 70.678296 
L 331.541491 68.14698 
L 331.86647 75.44663 
L 332.516429 71.371146 
L 332.841409 73.011257 
L 333.166388 66.700052 
L 333.816347 72.338429 
L 334.466306 68.014708 
L 334.791286 64.283475 
L 335.116265 71.602254 
L 335.441245 67.689656 
L 335.766224 68.931144 
L 336.091204 70.66739 
L 336.416183 70.874144 
L 336.741163 68.579634 
L 337.066143 73.424589 
L 337.391122 68.138195 
L 337.716102 73.68319 
L 338.041081 64.324941 
L 338.366061 71.3247 
L 338.69104 66.220215 
L 339.01602 67.846895 
L 339.340999 66.762524 
L 339.665979 64.744796 
L 339.990958 69.564924 
L 340.640917 68.511727 
L 341.290876 65.455513 
L 341.615856 69.989461 
L 341.940835 69.939175 
L 342.265815 69.15224 
L 342.590794 71.95145 
L 342.915774 68.561697 
L 343.240753 67.678539 
L 343.565733 73.406845 
L 343.890713 63.850803 
L 344.215692 70.932548 
L 344.540672 69.380911 
L 344.865651 65.826485 
L 345.190631 58.924072 
L 345.51561 75.186557 
L 345.84059 68.49081 
L 346.165569 66.861272 
L 346.490549 73.237648 
L 346.815528 63.859745 
L 347.140508 68.301694 
L 347.465487 69.428129 
L 347.790467 64.862428 
L 348.115446 68.960653 
L 348.440426 58.305405 
L 348.765405 72.411351 
L 349.090385 61.322765 
L 349.415364 66.244289 
L 349.740344 68.516058 
L 350.065324 67.287299 
L 350.390303 68.238118 
L 350.715283 63.406366 
L 351.040262 66.271483 
L 351.365242 70.67386 
L 351.690221 70.793753 
L 352.34018 66.254406 
L 352.66516 68.94859 
L 352.990139 67.683624 
L 353.315119 69.595538 
L 353.640098 68.293331 
L 353.965078 72.436757 
L 354.290057 71.044955 
L 354.615037 62.860831 
L 354.940016 69.201737 
L 355.264996 65.688217 
L 355.589975 73.057089 
L 355.914955 72.358786 
L 356.239934 70.643106 
L 356.564914 70.968509 
L 356.889894 71.593645 
L 357.214873 68.069885 
L 357.539853 68.874441 
L 357.864832 70.199704 
L 358.189812 69.615718 
L 358.514791 67.75339 
L 358.839771 69.400233 
L 359.16475 63.742499 
L 359.48973 66.360079 
L 359.814709 65.602338 
L 360.139689 65.186025 
L 360.464668 70.706753 
L 360.789648 62.047421 
L 361.114627 63.364882 
L 361.439607 66.875141 
L 361.764586 71.853876 
L 362.089566 67.964895 
L 362.414545 60.7557 
L 362.739525 64.281844 
L 363.064505 71.053248 
L 363.389484 70.419643 
L 363.714464 63.902807 
L 364.039443 63.71534 
L 364.689402 72.005733 
L 365.014382 66.650468 
L 365.339361 67.791507 
L 365.664341 68.234015 
L 365.98932 67.707557 
L 366.3143 71.563102 
L 366.639279 71.337955 
L 366.964259 67.343003 
L 367.289238 70.173088 
L 367.614218 70.754636 
L 367.939197 65.241939 
L 368.264177 67.847667 
L 368.589156 67.782074 
L 368.914136 67.064888 
L 369.239115 70.433827 
L 369.564095 69.686536 
L 369.889075 69.599886 
L 370.214054 68.401986 
L 370.539034 64.903228 
L 370.864013 70.718781 
L 371.188993 71.386593 
L 371.513972 67.368636 
L 371.838952 67.60134 
L 372.163931 68.456514 
L 372.488911 64.665808 
L 372.81389 69.625222 
L 373.13887 64.60004 
L 373.463849 70.215484 
L 373.788829 69.574971 
L 374.113808 74.157784 
L 374.438788 65.199894 
L 374.763767 65.243762 
L 375.088747 73.208209 
L 375.413726 68.757966 
L 375.738706 66.6437 
L 376.063686 68.579739 
L 376.388665 68.803571 
L 376.713645 74.743119 
L 377.038624 76.224009 
L 377.363604 72.936705 
L 377.688583 64.828676 
L 378.013563 69.770153 
L 378.338542 66.649924 
L 378.663522 65.559942 
L 378.988501 71.068905 
L 379.313481 61.912256 
L 379.96344 69.914453 
L 380.613399 63.515266 
L 381.263358 70.707436 
L 381.588337 66.562696 
L 381.913317 63.950463 
L 382.238296 69.09296 
L 382.563276 66.58854 
L 382.888256 63.120098 
L 383.213235 67.648803 
L 383.538215 70.557841 
L 383.863194 65.553823 
L 384.188174 69.92506 
L 384.838133 64.576791 
L 385.163112 67.634513 
L 385.488092 67.166406 
L 385.813071 66.162793 
L 386.138051 67.610475 
L 386.46303 65.219812 
L 386.78801 73.34078 
L 387.112989 75.69962 
L 387.437969 63.426371 
L 387.762948 62.512197 
L 388.087928 65.870985 
L 388.412907 66.344492 
L 388.737887 67.228492 
L 389.062867 71.151154 
L 389.387846 58.422265 
L 389.712826 66.276866 
L 390.037805 65.360307 
L 390.687764 73.603535 
L 391.012744 65.034694 
L 391.337723 71.827664 
L 391.662703 69.213607 
L 391.987682 65.140473 
L 392.312662 64.004273 
L 392.637641 72.054353 
L 392.962621 71.147753 
L 393.2876 65.503257 
L 393.61258 69.513621 
L 393.937559 63.353099 
L 394.262539 60.938047 
L 394.912498 74.00591 
L 395.562457 69.71515 
L 395.887437 68.823927 
L 396.212416 73.328366 
L 396.537396 66.587085 
L 396.862375 69.586157 
L 397.187355 66.744201 
L 397.512334 62.659583 
L 397.837314 70.057368 
L 398.162293 67.066764 
L 398.487273 68.15394 
L 398.487273 68.15394 
" style="fill:none;stroke:#1f77b4;stroke-linecap:square;stroke-width:1.5;"/>
   </g>
   <g id="line2d_11">
    <path clip-path="url(#p6b0ac4f994)" d="M 73.832727 290.632818 
L 74.157707 293.57489 
L 74.482686 289.811429 
L 74.807666 282.258501 
L 75.132645 280.085817 
L 75.457625 295.488 
L 75.782604 290.833959 
L 76.107584 284.338097 
L 76.757543 293.748008 
L 77.082523 132.822197 
L 77.407502 150.074303 
L 77.732482 151.723723 
L 78.057461 138.474478 
L 78.382441 142.206727 
L 78.70742 138.139046 
L 79.0324 132.66422 
L 79.357379 136.059916 
L 79.682359 129.60471 
L 80.007338 118.598041 
L 80.332318 120.399564 
L 80.657297 117.135859 
L 80.982277 116.380204 
L 81.307256 110.418721 
L 81.632236 112.021591 
L 81.957215 104.381512 
L 82.282195 102.417261 
L 82.607174 105.750591 
L 82.932154 100.919049 
L 83.257133 106.466988 
L 83.582113 103.530159 
L 83.907093 96.412348 
L 84.232072 102.779536 
L 84.557052 100.107392 
L 84.882031 103.531106 
L 85.53199 97.167565 
L 85.85697 96.950922 
L 86.181949 103.748328 
L 86.506929 88.608068 
L 86.831908 94.416116 
L 87.156888 95.926953 
L 87.481867 94.411768 
L 87.806847 94.713308 
L 88.131826 82.729273 
L 88.456806 85.682829 
L 88.781785 92.96428 
L 89.431744 85.933522 
L 89.756724 84.532532 
L 90.081704 86.524661 
L 90.406683 85.105804 
L 90.731663 85.659737 
L 91.056642 91.204942 
L 91.381622 90.944659 
L 91.706601 95.656903 
L 92.031581 86.361407 
L 92.35656 94.134565 
L 92.68154 84.0936 
L 93.006519 85.474532 
L 93.331499 89.867634 
L 93.656478 84.889424 
L 93.981458 86.045262 
L 94.306437 79.622089 
L 94.631417 84.697065 
L 94.956396 82.940866 
L 95.281376 83.967921 
L 95.606355 77.479997 
L 95.931335 80.890316 
L 96.256314 78.141691 
L 96.581294 85.162472 
L 96.906274 75.644161 
L 97.231253 80.280364 
L 97.556233 81.306068 
L 97.881212 84.697925 
L 98.206192 82.230325 
L 98.531171 78.120931 
L 98.856151 83.675358 
L 99.18113 85.132841 
L 99.50611 80.511209 
L 99.831089 79.499461 
L 100.156069 77.909093 
L 100.481048 83.376519 
L 100.806028 81.322392 
L 101.131007 74.924415 
L 101.455987 84.210215 
L 101.780966 74.379073 
L 102.105946 81.000198 
L 102.430925 71.981221 
L 102.755905 76.545554 
L 103.080885 79.066947 
L 103.405864 69.228616 
L 103.730844 80.494359 
L 104.380803 68.386013 
L 105.030762 79.709827 
L 105.355741 78.407024 
L 105.680721 78.916983 
L 106.0057 83.033267 
L 106.33068 80.317465 
L 106.655659 84.645167 
L 106.980639 76.872395 
L 107.305618 72.995845 
L 107.630598 71.990707 
L 107.955577 77.079902 
L 108.280557 75.851757 
L 108.605536 83.722944 
L 109.255495 72.509748 
L 109.580475 73.561122 
L 109.905455 75.076307 
L 110.230434 79.028531 
L 110.555414 77.146301 
L 110.880393 79.26958 
L 111.205373 77.039278 
L 111.855332 76.227936 
L 112.180311 74.66343 
L 112.505291 79.087566 
L 112.83027 74.881283 
L 113.480229 72.442385 
L 113.805209 74.034103 
L 114.130188 75.03342 
L 114.455168 78.219697 
L 115.430106 69.070026 
L 115.755086 75.152332 
L 116.080066 70.557666 
L 116.405045 73.989305 
L 116.730025 73.210927 
L 117.055004 66.237416 
L 117.379984 73.235912 
L 117.704963 68.374458 
L 118.029943 66.740134 
L 118.354922 66.719006 
L 119.004881 74.15696 
L 119.329861 67.284634 
L 119.65484 74.839343 
L 119.97982 74.065769 
L 120.304799 72.043167 
L 120.629779 68.883085 
L 120.954758 80.920824 
L 121.279738 74.195095 
L 121.604717 80.239003 
L 121.929697 75.27752 
L 122.254676 72.508837 
L 122.579656 73.051478 
L 123.229615 79.025866 
L 123.554595 79.564001 
L 123.879574 73.999896 
L 124.204554 72.116404 
L 124.529533 68.286861 
L 124.854513 70.889661 
L 125.179492 76.580516 
L 125.504472 76.144249 
L 125.829451 80.083709 
L 126.154431 70.887242 
L 126.47941 75.518114 
L 126.80439 72.697496 
L 127.129369 68.696073 
L 127.454349 73.838238 
L 127.779328 74.960727 
L 128.104308 72.232422 
L 128.429287 73.998844 
L 128.754267 70.769662 
L 129.079247 70.635251 
L 129.404226 71.96886 
L 129.729206 71.925465 
L 130.054185 76.565227 
L 130.379165 75.989587 
L 130.704144 64.480094 
L 131.354103 78.666922 
L 131.679083 66.139842 
L 132.004062 73.095505 
L 132.329042 64.489966 
L 132.654021 68.364289 
L 132.979001 69.586578 
L 133.30398 72.464617 
L 133.62896 70.242976 
L 133.953939 66.939664 
L 134.603898 70.442051 
L 134.928878 70.959374 
L 135.253857 70.030191 
L 135.578837 69.518373 
L 135.903817 68.677997 
L 136.228796 70.975224 
L 136.553776 68.435983 
L 136.878755 68.947257 
L 137.203735 70.763123 
L 137.528714 70.30273 
L 137.853694 68.43558 
L 138.178673 69.871952 
L 138.503653 71.820755 
L 138.828632 64.453216 
L 139.153612 67.80222 
L 139.478591 65.213535 
L 139.803571 67.102321 
L 140.12855 63.587065 
L 141.103489 76.477402 
L 141.428468 71.570519 
L 141.753448 73.232493 
L 142.078428 66.372178 
L 142.403407 68.204577 
L 142.728387 75.816462 
L 143.053366 74.90732 
L 143.378346 78.636659 
L 143.703325 67.294891 
L 144.028305 70.059103 
L 144.353284 71.446645 
L 144.678264 70.453851 
L 145.003243 74.794598 
L 145.328223 75.515571 
L 145.653202 69.884558 
L 145.978182 74.123611 
L 146.303161 68.356276 
L 146.628141 66.791314 
L 146.95312 78.180177 
L 147.2781 74.14658 
L 147.603079 71.995897 
L 147.928059 71.603552 
L 148.253038 69.77238 
L 148.578018 75.653735 
L 148.902998 74.33033 
L 149.552957 66.303973 
L 149.877936 66.073969 
L 150.202916 68.852121 
L 150.527895 73.066206 
L 150.852875 67.756405 
L 151.177854 70.181434 
L 151.502834 75.377215 
L 151.827813 59.844348 
L 152.152793 67.252425 
L 152.477772 69.410665 
L 152.802752 67.50168 
L 153.127731 72.31092 
L 153.452711 67.986163 
L 153.77769 70.634147 
L 154.10267 65.725773 
L 154.427649 70.08614 
L 154.752629 64.271903 
L 155.077609 69.751041 
L 155.402588 68.458917 
L 155.727568 66.53366 
L 156.052547 65.794627 
L 156.377527 69.757353 
L 156.702506 63.570864 
L 157.027486 74.627907 
L 157.352465 68.968367 
L 158.002424 61.238412 
L 158.327404 69.125309 
L 158.652383 65.576038 
L 158.977363 64.366285 
L 159.302342 69.59282 
L 159.952301 64.545038 
L 160.277281 71.069326 
L 160.60226 69.191463 
L 160.92724 72.839026 
L 161.252219 71.514271 
L 161.577199 68.178768 
L 161.902179 61.241638 
L 162.552138 71.902426 
L 162.877117 69.288738 
L 163.202097 68.435878 
L 163.527076 69.027052 
L 163.852056 68.505678 
L 164.177035 66.330518 
L 164.502015 69.067238 
L 164.826994 64.978219 
L 165.151974 69.535714 
L 165.476953 68.380419 
L 165.801933 71.939965 
L 166.126912 74.25036 
L 166.451892 69.629815 
L 166.776871 67.866883 
L 167.101851 64.959809 
L 167.42683 70.313145 
L 167.75181 64.571794 
L 168.07679 72.270014 
L 168.401769 61.778669 
L 168.726749 67.684571 
L 169.051728 59.083801 
L 169.376708 75.641251 
L 169.701687 64.648643 
L 170.026667 71.019987 
L 170.351646 69.413137 
L 171.001605 63.293363 
L 171.326585 62.744637 
L 171.651564 64.455232 
L 171.976544 70.206507 
L 172.301523 66.776305 
L 172.626503 68.07788 
L 172.951482 68.552948 
L 173.276462 68.823559 
L 173.601441 66.286474 
L 173.926421 72.795263 
L 174.2514 75.595804 
L 174.90136 70.740119 
L 175.226339 70.90211 
L 175.551319 80.473003 
L 175.876298 75.9895 
L 176.201278 69.279252 
L 176.526257 71.560297 
L 176.851237 69.654239 
L 177.176216 68.857767 
L 177.826175 73.568942 
L 178.151155 79.240913 
L 178.476134 71.161219 
L 178.801114 70.422063 
L 179.126093 69.030681 
L 179.451073 71.558561 
L 179.776052 72.342462 
L 180.101032 63.600987 
L 180.426011 68.479518 
L 181.40095 74.0074 
L 181.72593 72.046446 
L 182.050909 67.571726 
L 182.375889 72.101553 
L 182.700868 70.723462 
L 183.025848 65.044162 
L 183.350827 64.320891 
L 183.675807 74.008995 
L 184.000786 68.928076 
L 184.325766 69.753128 
L 184.650745 75.750133 
L 184.975725 75.597593 
L 185.300704 70.321035 
L 185.625684 67.367988 
L 185.950663 70.749482 
L 186.275643 65.931615 
L 186.925602 71.984938 
L 187.250581 68.795979 
L 187.575561 71.35861 
L 187.900541 64.878927 
L 188.22552 67.375334 
L 188.5505 67.720549 
L 188.875479 68.659622 
L 189.200459 73.638374 
L 189.525438 65.642525 
L 189.850418 65.169578 
L 190.500377 72.239401 
L 190.825356 67.187166 
L 191.150336 73.645265 
L 191.475315 61.922408 
L 191.800295 63.020122 
L 192.125274 69.803151 
L 192.450254 68.210819 
L 192.775233 73.275625 
L 193.100213 70.767173 
L 193.425192 71.20144 
L 193.750172 58.37077 
L 194.075152 65.853434 
L 194.400131 63.762347 
L 194.725111 67.360553 
L 195.05009 62.852731 
L 195.37507 72.589525 
L 195.700049 64.506465 
L 196.025029 68.294471 
L 196.674988 66.62678 
L 196.999967 67.409857 
L 197.324947 66.563835 
L 197.649926 63.657953 
L 197.974906 63.761172 
L 198.299885 65.783932 
L 198.624865 65.660251 
L 198.949844 63.115136 
L 199.274824 72.431777 
L 199.599803 72.122418 
L 199.924783 65.97992 
L 200.249762 69.236909 
L 200.574742 67.432213 
L 200.899722 64.68655 
L 201.224701 67.219041 
L 201.549681 74.693745 
L 201.87466 64.326782 
L 202.19964 69.32512 
L 202.524619 63.928914 
L 202.849599 69.536836 
L 203.499558 61.215724 
L 203.824537 73.474682 
L 204.149517 58.817065 
L 204.474496 58.765412 
L 204.799476 66.19644 
L 205.124455 65.249811 
L 205.449435 63.328219 
L 205.774414 71.799926 
L 206.099394 66.161408 
L 206.424373 64.615487 
L 206.749353 63.894128 
L 207.074333 63.974273 
L 207.399312 66.704558 
L 207.724292 62.458755 
L 208.049271 65.350137 
L 208.374251 73.17565 
L 208.69923 68.498805 
L 209.02421 68.936579 
L 209.349189 62.159688 
L 209.674169 66.659901 
L 209.999148 68.469998 
L 210.324128 66.24222 
L 210.649107 72.055633 
L 210.974087 65.052508 
L 211.299066 67.69574 
L 211.624046 65.902054 
L 211.949025 62.691195 
L 212.274005 61.361216 
L 212.598984 66.858046 
L 212.923964 63.773323 
L 213.248943 63.725316 
L 213.573923 69.079477 
L 213.898903 69.566187 
L 214.223882 68.872372 
L 214.548862 62.989211 
L 214.873841 73.113932 
L 215.198821 65.966717 
L 215.5238 65.496945 
L 215.84878 69.68352 
L 216.173759 63.613523 
L 216.498739 60.609383 
L 216.823718 68.831677 
L 217.148698 64.802516 
L 217.473677 58.432961 
L 217.798657 59.50285 
L 218.123636 65.419184 
L 218.448616 62.395459 
L 218.773595 67.308479 
L 219.098575 69.759983 
L 219.423554 64.138596 
L 220.073514 71.717291 
L 220.398493 67.747533 
L 220.723473 67.387625 
L 221.048452 70.467562 
L 221.373432 70.998964 
L 221.698411 72.789161 
L 222.023391 64.936612 
L 222.34837 70.211749 
L 222.67335 72.441894 
L 222.998329 69.384365 
L 223.323309 68.377246 
L 223.648288 67.902406 
L 223.973268 64.341861 
L 224.298247 67.232069 
L 224.623227 75.220291 
L 224.948206 71.573078 
L 225.273186 64.290418 
L 225.598165 67.558436 
L 225.923145 67.378052 
L 226.248124 67.346842 
L 226.573104 68.452236 
L 226.898084 68.145805 
L 227.223063 63.962228 
L 227.548043 70.748009 
L 227.873022 67.084525 
L 228.198002 69.173087 
L 228.522981 67.719848 
L 228.847961 72.101623 
L 229.17294 73.050426 
L 229.822899 59.569477 
L 230.147879 71.826541 
L 230.472858 64.176538 
L 230.797838 70.795735 
L 231.122817 69.076671 
L 231.447797 66.755002 
L 231.772776 65.891481 
L 232.097756 65.681905 
L 232.422735 62.382958 
L 233.072695 72.238349 
L 233.397674 62.960772 
L 233.722654 63.081577 
L 234.047633 69.117191 
L 234.372613 68.921939 
L 234.697592 65.907752 
L 235.022572 73.810237 
L 235.347551 64.563133 
L 235.99751 69.832361 
L 236.32249 64.340932 
L 236.647469 72.480503 
L 236.972449 67.858485 
L 237.297428 68.828047 
L 237.622408 69.142492 
L 237.947387 66.791472 
L 238.272367 61.818505 
L 238.597346 71.905196 
L 238.922326 65.209362 
L 239.247305 67.707698 
L 239.572285 66.490195 
L 240.222244 62.589817 
L 240.547224 63.187636 
L 240.872203 62.497328 
L 241.197183 69.001348 
L 241.522162 62.747653 
L 242.497101 71.915173 
L 242.82208 65.273814 
L 243.14706 65.711624 
L 243.472039 61.673749 
L 243.797019 64.94224 
L 244.121998 61.859533 
L 244.446978 69.692866 
L 244.771957 68.276008 
L 245.096937 61.745303 
L 246.071876 68.414382 
L 246.396855 69.201702 
L 246.721835 65.534291 
L 247.371794 64.357887 
L 247.696773 65.127428 
L 248.021753 61.722615 
L 248.346732 68.719866 
L 248.671712 65.981586 
L 248.996691 67.431494 
L 249.321671 62.892707 
L 249.64665 64.757754 
L 249.97163 65.715674 
L 250.296609 59.581066 
L 250.621589 69.717938 
L 250.946568 68.528244 
L 251.271548 64.010146 
L 251.596527 62.248652 
L 251.921507 64.031923 
L 252.246486 72.47121 
L 252.571466 65.786614 
L 252.896446 64.258858 
L 253.221425 64.288384 
L 253.546405 71.295945 
L 253.871384 69.232613 
L 254.196364 69.069237 
L 254.521343 60.891268 
L 254.846323 72.728197 
L 255.171302 65.042601 
L 255.821261 60.134315 
L 256.146241 68.294769 
L 256.47122 66.836375 
L 256.7962 66.68813 
L 257.121179 61.992138 
L 257.446159 62.77234 
L 257.771138 62.899475 
L 258.096118 65.89974 
L 258.421097 63.526242 
L 258.746077 63.295134 
L 259.396036 63.470766 
L 259.721016 65.001906 
L 260.045995 65.299378 
L 260.370975 68.325891 
L 260.695954 65.162179 
L 261.020934 60.323098 
L 261.345913 68.342354 
L 261.670893 63.032413 
L 262.320852 63.146012 
L 262.645831 67.599534 
L 262.970811 74.890733 
L 263.29579 62.970783 
L 263.62077 65.881224 
L 263.945749 62.023155 
L 264.270729 66.329992 
L 264.595708 63.310213 
L 264.920688 68.828591 
L 265.245667 68.839409 
L 265.570647 67.041077 
L 265.895627 62.40512 
L 266.220606 64.72679 
L 266.545586 71.694568 
L 266.870565 67.609423 
L 267.195545 71.345302 
L 267.520524 68.402547 
L 267.845504 60.74027 
L 268.170483 61.479935 
L 268.820442 67.986882 
L 269.145422 66.843493 
L 269.470401 62.424126 
L 269.795381 62.010022 
L 270.12036 69.650329 
L 270.44534 67.341933 
L 270.770319 62.079279 
L 271.095299 63.660828 
L 271.420278 68.627325 
L 271.745258 66.387712 
L 272.395217 66.084419 
L 272.720197 67.569745 
L 273.045176 68.510342 
L 273.370156 67.02549 
L 273.695135 64.234223 
L 274.020115 70.832187 
L 274.345094 69.051037 
L 274.670074 64.882311 
L 274.995053 62.470309 
L 275.320033 58.843681 
L 275.645012 68.442979 
L 275.969992 66.425006 
L 276.294971 66.600533 
L 276.619951 64.551859 
L 276.94493 68.095151 
L 277.26991 61.497626 
L 277.919869 66.408349 
L 278.244848 67.083263 
L 278.569828 63.130215 
L 278.894808 65.664459 
L 279.219787 63.084645 
L 279.544767 67.678084 
L 279.869746 63.005377 
L 280.194726 62.748424 
L 280.519705 65.791331 
L 280.844685 66.348893 
L 281.169664 66.675383 
L 281.494644 64.940697 
L 281.819623 61.455248 
L 282.144603 65.919062 
L 282.469582 60.568899 
L 282.794562 65.135686 
L 283.119541 65.121151 
L 283.444521 65.463789 
L 283.7695 61.195946 
L 284.09448 69.741082 
L 284.419459 65.703067 
L 284.744439 65.189514 
L 285.069419 57.470236 
L 285.394398 65.678994 
L 285.719378 67.055753 
L 286.044357 61.093919 
L 286.369337 68.92641 
L 286.694316 61.079489 
L 287.019296 68.329415 
L 287.344275 64.535062 
L 287.669255 64.938944 
L 287.994234 62.983425 
L 288.644193 65.404596 
L 288.969173 64.664774 
L 289.294152 64.584839 
L 289.619132 67.197107 
L 289.944111 64.123237 
L 290.269091 64.45262 
L 290.59407 62.802673 
L 290.91905 65.655412 
L 291.244029 64.748198 
L 291.569009 67.952692 
L 291.893989 64.461947 
L 292.218968 64.796239 
L 292.543948 64.324626 
L 292.868927 66.852102 
L 293.193907 66.966437 
L 293.518886 72.033681 
L 293.843866 66.617067 
L 294.168845 65.210186 
L 294.493825 71.933969 
L 294.818804 64.611788 
L 295.143784 73.349055 
L 295.468763 65.147644 
L 295.793743 73.58118 
L 296.118722 69.942156 
L 296.443702 64.558346 
L 296.768681 70.37737 
L 297.093661 68.607915 
L 297.41864 69.657273 
L 297.74362 70.151329 
L 298.0686 65.232418 
L 298.393579 68.318246 
L 298.718559 66.155342 
L 299.043538 70.456235 
L 299.368518 61.910362 
L 299.693497 66.669807 
L 300.018477 64.927985 
L 300.668436 72.128046 
L 300.993415 70.483605 
L 301.318395 71.156835 
L 301.643374 67.900162 
L 301.968354 69.101849 
L 302.293333 63.258612 
L 302.618313 63.765801 
L 302.943292 63.849277 
L 303.268272 69.31716 
L 303.593251 70.377949 
L 303.918231 66.733822 
L 304.24321 66.237591 
L 304.89317 71.598782 
L 305.218149 68.384592 
L 305.543129 68.451325 
L 305.868108 70.214818 
L 306.193088 65.096885 
L 306.518067 64.535272 
L 306.843047 65.587452 
L 307.168026 61.85785 
L 307.493006 62.612786 
L 307.817985 64.946816 
L 308.142965 66.01148 
L 308.467944 67.559716 
L 308.792924 63.237326 
L 309.117903 65.827712 
L 309.442883 66.571392 
L 309.767862 63.035131 
L 310.092842 70.578268 
L 310.417821 70.835606 
L 310.742801 61.754227 
L 311.067781 67.218463 
L 311.39276 60.74695 
L 311.71774 69.640441 
L 312.042719 68.246955 
L 312.692678 62.489964 
L 313.017658 63.92937 
L 313.342637 72.166409 
L 313.992596 63.561835 
L 314.317576 70.49523 
L 314.642555 61.016895 
L 314.967535 63.326028 
L 315.292514 63.562413 
L 315.617494 69.01455 
L 315.942473 65.227807 
L 316.267453 70.90488 
L 316.592432 70.75511 
L 316.917412 71.633884 
L 317.242391 67.059891 
L 317.567371 64.704487 
L 317.892351 67.810075 
L 318.21733 68.907667 
L 318.54231 67.264593 
L 318.867289 72.476663 
L 319.192269 67.252828 
L 319.517248 66.612385 
L 320.167207 63.943765 
L 320.492187 64.739869 
L 320.817166 62.339212 
L 321.142146 68.074356 
L 321.467125 65.091029 
L 321.792105 67.555332 
L 322.117084 63.794187 
L 322.442064 63.787717 
L 322.767043 68.125501 
L 323.092023 66.983655 
L 323.417002 72.557211 
L 323.741982 71.534487 
L 324.066962 68.42257 
L 324.716921 65.287631 
L 325.0419 65.278268 
L 325.36688 63.273778 
L 325.691859 72.857155 
L 326.016839 63.638683 
L 326.341818 69.168231 
L 326.666798 64.683184 
L 326.991777 67.095869 
L 327.316757 59.761625 
L 327.641736 66.710958 
L 327.966716 66.603198 
L 328.291695 71.20784 
L 328.616675 74.232915 
L 328.941654 66.856801 
L 329.266634 63.385203 
L 329.916593 71.202931 
L 330.241572 63.978972 
L 330.566552 70.954114 
L 330.891532 61.477655 
L 331.216511 67.914031 
L 331.541491 55.805088 
L 331.86647 62.535639 
L 332.19145 63.563816 
L 332.516429 63.661267 
L 332.841409 68.605145 
L 333.166388 66.751285 
L 333.491368 69.068097 
L 333.816347 65.265644 
L 334.141327 59.884482 
L 334.791286 67.716078 
L 335.116265 64.677398 
L 335.441245 70.046199 
L 335.766224 66.205943 
L 336.091204 64.926758 
L 336.416183 64.936542 
L 336.741163 66.209099 
L 337.066143 59.479302 
L 337.391122 62.552068 
L 337.716102 63.453303 
L 338.041081 68.906808 
L 338.366061 66.045863 
L 338.69104 72.300557 
L 339.01602 64.502327 
L 339.340999 66.106985 
L 339.990958 61.494014 
L 340.315938 66.761209 
L 340.640917 63.534079 
L 340.965897 66.601935 
L 341.290876 61.378679 
L 341.615856 63.530362 
L 341.940835 68.329275 
L 342.265815 66.1663 
L 342.590794 68.748306 
L 342.915774 66.17419 
L 343.240753 67.053245 
L 343.565733 64.914327 
L 343.890713 65.32638 
L 344.540672 64.025839 
L 344.865651 64.736713 
L 345.190631 68.000874 
L 345.51561 61.5861 
L 345.84059 63.765731 
L 346.165569 64.772289 
L 346.490549 66.298765 
L 346.815528 65.223213 
L 347.140508 57.242916 
L 347.465487 66.700982 
L 347.790467 67.270449 
L 348.115446 65.266117 
L 348.440426 72.159063 
L 348.765405 74.268735 
L 349.090385 71.665287 
L 349.415364 64.85317 
L 349.740344 63.281686 
L 350.065324 67.422639 
L 350.390303 62.998013 
L 350.715283 65.520913 
L 351.040262 65.889185 
L 351.365242 69.706769 
L 352.015201 61.543528 
L 352.34018 66.063817 
L 352.66516 68.82263 
L 352.990139 60.066672 
L 353.315119 57.467746 
L 353.640098 72.573149 
L 353.965078 68.484778 
L 354.290057 66.526051 
L 354.615037 69.855821 
L 354.940016 61.617905 
L 355.264996 68.787405 
L 355.589975 66.287123 
L 355.914955 69.700528 
L 356.239934 69.334623 
L 356.564914 63.11873 
L 356.889894 60.742444 
L 357.214873 65.058767 
L 357.539853 64.01069 
L 357.864832 67.858765 
L 358.189812 63.329306 
L 358.514791 69.960759 
L 358.839771 63.115241 
L 359.16475 69.566695 
L 359.814709 62.858289 
L 360.139689 67.895673 
L 360.464668 62.052015 
L 360.789648 66.285492 
L 361.114627 56.663752 
L 361.439607 66.001258 
L 361.764586 66.072847 
L 362.089566 64.701804 
L 362.414545 67.684676 
L 362.739525 67.550072 
L 363.064505 68.021809 
L 363.389484 63.652745 
L 363.714464 53.568 
L 364.039443 63.016265 
L 364.364423 64.603582 
L 364.689402 64.09578 
L 365.014382 67.904791 
L 365.339361 56.839419 
L 365.664341 64.650484 
L 365.98932 63.435857 
L 366.3143 71.07427 
L 366.639279 64.188935 
L 366.964259 68.55016 
L 367.289238 59.859567 
L 367.614218 68.565572 
L 367.939197 66.710222 
L 368.264177 60.419374 
L 368.589156 66.383153 
L 368.914136 66.472854 
L 369.239115 70.314144 
L 369.564095 65.161145 
L 369.889075 66.973328 
L 370.214054 61.543949 
L 370.539034 67.600866 
L 370.864013 68.562574 
L 371.188993 63.704714 
L 371.513972 65.502643 
L 371.838952 70.340585 
L 372.163931 63.069058 
L 372.81389 68.862027 
L 373.13887 63.865671 
L 373.788829 66.285247 
L 374.113808 60.388199 
L 374.763767 66.620994 
L 375.088747 66.125079 
L 375.413726 67.833324 
L 375.738706 64.796818 
L 376.063686 60.687898 
L 376.713645 65.27015 
L 377.038624 62.251773 
L 377.363604 69.942173 
L 377.688583 70.397376 
L 378.013563 72.986517 
L 378.338542 64.580806 
L 378.663522 63.649414 
L 378.988501 60.326394 
L 379.313481 63.088415 
L 379.63846 68.091329 
L 380.288419 64.768957 
L 380.613399 66.522299 
L 380.938378 64.646574 
L 381.263358 72.721727 
L 381.588337 61.547105 
L 381.913317 64.924847 
L 382.563276 60.594182 
L 382.888256 61.857306 
L 383.213235 71.176666 
L 383.538215 62.185286 
L 384.188174 54.872346 
L 384.838133 68.277481 
L 385.163112 64.806128 
L 385.488092 65.6808 
L 385.813071 64.381714 
L 386.138051 69.297171 
L 386.46303 70.507187 
L 386.78801 65.794066 
L 387.112989 65.429844 
L 387.762948 65.044162 
L 388.087928 66.608616 
L 388.412907 73.509258 
L 388.737887 69.34509 
L 389.062867 63.476499 
L 389.387846 66.483743 
L 389.712826 60.942027 
L 390.037805 66.449693 
L 390.362785 56.580784 
L 390.687764 65.546669 
L 391.012744 67.119627 
L 391.337723 66.177206 
L 391.662703 66.891307 
L 391.987682 64.750179 
L 392.312662 67.426549 
L 392.637641 58.918514 
L 392.962621 68.746131 
L 393.2876 62.700751 
L 393.61258 63.85182 
L 393.937559 65.824276 
L 394.262539 62.6215 
L 394.587518 66.075372 
L 395.237477 63.049 
L 395.887437 71.460724 
L 396.212416 65.699894 
L 396.537396 63.486073 
L 396.862375 62.605054 
L 397.187355 67.77457 
L 397.512334 69.81965 
L 397.837314 64.971696 
L 398.162293 74.240699 
L 398.487273 68.173858 
L 398.487273 68.173858 
" style="fill:none;stroke:#ff7f0e;stroke-linecap:square;stroke-width:1.5;"/>
   </g>
   <g id="line2d_12">
    <path clip-path="url(#p6b0ac4f994)" d="M 73.832727 292.418134 
L 74.157707 249.322936 
L 74.482686 234.730061 
L 74.807666 209.00667 
L 75.132645 195.497544 
L 75.457625 200.378504 
L 75.782604 186.29209 
L 76.107584 181.824717 
L 76.432563 173.865802 
L 76.757543 180.243624 
L 77.082523 168.992197 
L 77.407502 169.005619 
L 77.732482 168.742083 
L 78.057461 163.292891 
L 78.382441 160.889674 
L 78.70742 159.529896 
L 79.0324 162.296423 
L 79.357379 151.248375 
L 79.682359 152.929435 
L 80.007338 149.918019 
L 80.332318 159.265729 
L 80.657297 145.244286 
L 80.982277 149.150046 
L 81.307256 141.278544 
L 81.957215 149.533818 
L 82.282195 144.437477 
L 82.607174 141.790791 
L 82.932154 143.328699 
L 83.257133 143.653541 
L 83.582113 136.874536 
L 83.907093 142.876898 
L 84.232072 133.011961 
L 84.557052 135.755045 
L 84.882031 144.796062 
L 85.207011 137.547539 
L 85.53199 137.256887 
L 86.181949 136.231148 
L 86.506929 127.439176 
L 86.831908 137.86677 
L 87.156888 136.278909 
L 87.481867 136.844081 
L 87.806847 133.52434 
L 88.131826 128.822369 
L 88.456806 128.033366 
L 89.106765 134.23958 
L 89.431744 130.379091 
L 89.756724 133.268983 
L 90.081704 127.767016 
L 90.406683 129.717257 
L 90.731663 125.523388 
L 91.056642 134.942196 
L 91.381622 127.792615 
L 91.706601 132.559651 
L 92.031581 126.770224 
L 92.35656 130.069626 
L 92.68154 125.445189 
L 93.006519 128.227531 
L 93.331499 121.620976 
L 93.656478 124.43423 
L 93.981458 131.561895 
L 94.306437 123.763244 
L 94.631417 129.198496 
L 94.956396 126.054317 
L 95.281376 124.875405 
L 95.606355 123.154782 
L 96.256314 126.215642 
L 96.581294 119.98318 
L 96.906274 122.788491 
L 97.231253 116.634895 
L 97.881212 121.156165 
L 98.206192 117.171592 
L 98.531171 123.10134 
L 98.856151 121.715499 
L 99.50611 123.493457 
L 99.831089 121.524893 
L 100.156069 114.271987 
L 100.481048 116.497398 
L 100.806028 117.195823 
L 101.131007 121.690391 
L 101.455987 112.814276 
L 101.780966 119.678783 
L 102.105946 115.57898 
L 102.430925 117.071459 
L 102.755905 120.199735 
L 103.080885 115.457193 
L 103.405864 107.415283 
L 103.730844 118.865004 
L 104.055823 118.4047 
L 104.705782 112.53546 
L 105.030762 113.86856 
L 105.355741 112.084448 
L 105.680721 114.580505 
L 106.0057 114.527817 
L 106.33068 111.846064 
L 106.655659 117.865652 
L 106.980639 114.658774 
L 107.305618 120.516652 
L 107.630598 112.020574 
L 107.955577 116.042616 
L 108.280557 110.5899 
L 108.605536 112.320185 
L 109.255495 113.441306 
L 109.580475 107.888703 
L 109.905455 111.002023 
L 110.230434 111.688859 
L 110.555414 113.99012 
L 110.880393 114.884113 
L 111.205373 111.329214 
L 111.530352 105.678125 
L 111.855332 108.885845 
L 112.180311 106.714244 
L 112.505291 113.360004 
L 112.83027 112.024063 
L 113.480229 105.2572 
L 113.805209 108.389194 
L 114.130188 112.650549 
L 114.455168 108.059338 
L 114.780147 108.440356 
L 115.105127 106.987275 
L 115.430106 101.855122 
L 116.405045 111.578206 
L 116.730025 108.495078 
L 117.055004 109.86691 
L 117.379984 104.507068 
L 117.704963 111.185054 
L 118.029943 102.460639 
L 118.354922 110.130718 
L 118.679902 110.866244 
L 119.004881 102.4612 
L 119.329861 104.272068 
L 119.65484 109.057077 
L 119.97982 109.80037 
L 120.629779 104.960114 
L 120.954758 107.81757 
L 121.279738 108.443407 
L 121.929697 104.9079 
L 122.254676 105.551323 
L 123.229615 99.752358 
L 123.554595 98.298873 
L 123.879574 105.920349 
L 124.204554 107.266074 
L 124.529533 104.332699 
L 124.854513 106.936288 
L 125.179492 103.644793 
L 125.504472 108.428381 
L 125.829451 107.654667 
L 126.154431 102.699987 
L 126.47941 107.712176 
L 126.80439 102.454029 
L 127.129369 101.13655 
L 127.454349 103.925292 
L 127.779328 102.95054 
L 128.104308 105.445053 
L 128.429287 104.934954 
L 128.754267 110.178373 
L 129.079247 102.172582 
L 129.404226 101.977681 
L 129.729206 102.195218 
L 130.054185 106.092597 
L 130.379165 98.243695 
L 130.704144 106.053673 
L 131.029124 101.364502 
L 131.354103 108.047731 
L 131.679083 99.644615 
L 132.004062 103.347058 
L 132.329042 98.252462 
L 132.654021 108.847219 
L 132.979001 101.128222 
L 133.30398 97.412734 
L 133.62896 96.073234 
L 133.953939 96.398339 
L 134.278919 106.802595 
L 134.603898 98.799995 
L 134.928878 102.112618 
L 135.253857 104.177791 
L 135.578837 99.061436 
L 135.903817 106.742052 
L 136.228796 104.426695 
L 136.553776 99.25518 
L 136.878755 104.609972 
L 137.203735 101.998633 
L 137.528714 102.634518 
L 137.853694 112.263605 
L 138.178673 102.467722 
L 138.503653 105.711053 
L 139.478591 97.378492 
L 139.803571 96.466824 
L 140.12855 101.379564 
L 140.45353 101.046306 
L 141.103489 103.340045 
L 141.428468 95.405334 
L 141.753448 105.462148 
L 142.078428 99.72981 
L 142.403407 88.017894 
L 142.728387 97.850158 
L 143.053366 103.641952 
L 143.378346 93.971557 
L 143.703325 97.305938 
L 144.028305 106.471915 
L 144.678264 92.258086 
L 145.328223 101.083687 
L 145.653202 101.271821 
L 145.978182 104.260198 
L 146.303161 99.52395 
L 146.628141 97.472365 
L 146.95312 99.68254 
L 147.2781 104.863575 
L 147.603079 102.75648 
L 147.928059 94.394463 
L 148.253038 102.11516 
L 148.578018 101.325876 
L 148.902998 104.357877 
L 149.227977 96.863044 
L 149.877936 93.655657 
L 150.202916 102.448681 
L 150.527895 99.326489 
L 150.852875 99.486113 
L 151.177854 96.543813 
L 151.502834 99.67877 
L 151.827813 100.15489 
L 152.152793 101.918909 
L 152.477772 94.451534 
L 152.802752 93.847718 
L 153.127731 95.697704 
L 153.452711 103.33233 
L 153.77769 93.442644 
L 154.10267 92.645803 
L 154.427649 99.266612 
L 154.752629 94.642245 
L 155.077609 93.201647 
L 155.402588 93.229963 
L 155.727568 87.853062 
L 156.052547 95.368987 
L 156.377527 97.81332 
L 156.702506 85.675149 
L 157.027486 96.284249 
L 157.352465 92.798308 
L 157.677445 104.840151 
L 158.327404 98.280217 
L 158.652383 98.89685 
L 158.977363 96.375247 
L 159.302342 97.451448 
L 159.627322 99.299592 
L 159.952301 103.369957 
L 160.277281 97.750954 
L 160.60226 96.024439 
L 160.92724 90.292047 
L 161.577199 97.723584 
L 161.902179 92.92362 
L 162.552138 96.731053 
L 163.202097 102.160537 
L 163.527076 96.56147 
L 163.852056 100.122804 
L 164.177035 100.144317 
L 164.502015 105.87073 
L 164.826994 91.117187 
L 165.151974 91.201085 
L 165.476953 91.782159 
L 165.801933 95.284985 
L 166.126912 95.521615 
L 166.451892 98.930216 
L 166.776871 92.592606 
L 167.101851 99.951292 
L 167.42683 95.381839 
L 167.75181 93.736276 
L 168.07679 102.373708 
L 168.401769 101.013922 
L 168.726749 102.814463 
L 169.051728 93.172191 
L 169.376708 98.767225 
L 169.701687 100.678999 
L 170.676626 94.071462 
L 171.001605 98.241556 
L 171.326585 92.41082 
L 171.651564 97.811935 
L 171.976544 94.293067 
L 172.301523 95.002451 
L 172.626503 96.47929 
L 172.951482 95.984673 
L 173.601441 105.53109 
L 173.926421 97.327294 
L 174.2514 98.389293 
L 174.57638 93.721127 
L 174.90136 95.657955 
L 175.226339 99.601465 
L 175.551319 93.724055 
L 175.876298 100.380212 
L 176.201278 93.150888 
L 176.526257 99.883876 
L 176.851237 95.769573 
L 177.176216 94.07169 
L 177.501196 90.840124 
L 177.826175 92.591888 
L 178.151155 95.229404 
L 178.476134 92.048089 
L 178.801114 94.280373 
L 179.126093 94.163951 
L 179.451073 92.99705 
L 179.776052 98.028385 
L 180.101032 91.683727 
L 180.426011 95.232314 
L 180.750991 95.095571 
L 181.075971 94.360343 
L 181.40095 95.271975 
L 181.72593 96.842969 
L 182.050909 93.647452 
L 182.375889 96.366656 
L 182.700868 95.053351 
L 183.025848 91.777478 
L 183.350827 93.58356 
L 183.675807 94.133636 
L 184.000786 96.361904 
L 184.325766 96.170843 
L 184.650745 93.601549 
L 184.975725 89.52177 
L 185.625684 102.458166 
L 185.950663 94.267573 
L 186.275643 98.903706 
L 186.600622 88.419514 
L 186.925602 88.922302 
L 187.250581 95.680153 
L 187.575561 87.483388 
L 187.900541 90.524049 
L 188.5505 99.301013 
L 188.875479 100.360452 
L 189.200459 94.02563 
L 189.525438 95.366042 
L 189.850418 87.649149 
L 190.175397 94.745254 
L 190.500377 93.528382 
L 190.825356 103.706528 
L 191.150336 96.921957 
L 191.475315 94.974871 
L 191.800295 90.722773 
L 192.125274 101.594225 
L 192.450254 95.250374 
L 192.775233 94.50075 
L 193.100213 88.17054 
L 193.425192 90.030537 
L 193.750172 93.074179 
L 194.075152 90.137823 
L 194.400131 90.399177 
L 194.725111 93.480569 
L 195.05009 91.784281 
L 195.37507 87.126688 
L 195.700049 101.465284 
L 196.025029 93.950727 
L 196.350008 96.857854 
L 196.674988 84.847748 
L 197.324947 93.067324 
L 197.649926 95.542954 
L 197.974906 95.754109 
L 198.624865 92.647889 
L 198.949844 97.933845 
L 199.274824 96.430951 
L 199.599803 95.812232 
L 199.924783 90.572722 
L 200.249762 95.507764 
L 200.574742 96.706348 
L 200.899722 96.61961 
L 201.224701 89.798184 
L 201.87466 85.670713 
L 202.19964 95.398478 
L 202.524619 87.371314 
L 202.849599 98.818405 
L 203.174578 97.049407 
L 203.499558 91.667509 
L 204.149517 86.785505 
L 204.474496 91.182885 
L 204.799476 91.776268 
L 205.124455 91.465734 
L 205.449435 95.819298 
L 205.774414 92.771587 
L 206.099394 91.364759 
L 206.424373 89.055591 
L 206.749353 89.309913 
L 207.074333 87.884535 
L 207.399312 89.828604 
L 207.724292 87.726313 
L 208.049271 97.312163 
L 208.374251 94.472486 
L 208.69923 95.247551 
L 209.02421 95.659656 
L 209.349189 92.421796 
L 209.674169 93.379786 
L 209.999148 93.060187 
L 210.324128 96.117418 
L 210.974087 90.585118 
L 211.299066 89.930193 
L 211.624046 87.669961 
L 211.949025 93.305568 
L 212.274005 86.384726 
L 212.598984 91.101057 
L 212.923964 92.23766 
L 213.248943 88.857464 
L 213.573923 90.821662 
L 213.898903 101.16527 
L 214.223882 90.789505 
L 214.548862 92.511953 
L 214.873841 89.064884 
L 215.198821 90.848383 
L 215.5238 96.729948 
L 216.173759 88.491752 
L 216.498739 93.904334 
L 216.823718 88.678605 
L 217.148698 93.866461 
L 217.473677 95.975345 
L 217.798657 96.480974 
L 218.123636 95.640702 
L 218.448616 95.746271 
L 218.773595 88.983704 
L 219.098575 89.4182 
L 219.423554 84.586552 
L 219.748534 89.152709 
L 220.073514 87.956474 
L 220.398493 92.025734 
L 220.723473 98.577777 
L 221.048452 89.301497 
L 221.373432 85.897157 
L 221.698411 89.44734 
L 222.023391 90.824257 
L 222.34837 90.838371 
L 222.67335 98.669564 
L 222.998329 95.626115 
L 223.323309 90.043687 
L 223.648288 95.351103 
L 223.973268 95.67633 
L 224.298247 93.084804 
L 224.623227 96.932968 
L 224.948206 96.899689 
L 225.273186 93.471609 
L 225.598165 88.782035 
L 225.923145 87.092393 
L 226.248124 91.354467 
L 226.573104 88.027607 
L 226.898084 94.969997 
L 227.223063 96.64826 
L 227.548043 93.11256 
L 227.873022 95.879823 
L 228.522981 91.303462 
L 228.847961 94.904352 
L 229.17294 91.459352 
L 229.49792 97.36173 
L 229.822899 91.154691 
L 230.147879 92.275427 
L 230.472858 90.043441 
L 230.797838 90.877996 
L 231.122817 89.279826 
L 231.447797 92.933999 
L 231.772776 88.101826 
L 232.097756 90.025452 
L 232.422735 84.955999 
L 232.747715 96.929794 
L 233.072695 95.565309 
L 233.397674 90.345928 
L 233.722654 89.626812 
L 234.372613 93.975835 
L 234.697592 89.23843 
L 235.022572 90.617503 
L 235.347551 91.015494 
L 235.672531 93.051193 
L 235.99751 92.466874 
L 236.32249 89.532886 
L 236.647469 94.800308 
L 236.972449 96.589278 
L 237.297428 92.37819 
L 237.622408 97.2583 
L 237.947387 88.650324 
L 238.272367 96.14712 
L 238.597346 93.07581 
L 238.922326 93.089959 
L 239.247305 96.809637 
L 239.572285 89.358288 
L 239.897265 91.500117 
L 240.222244 84.708813 
L 240.872203 88.250562 
L 241.522162 93.541848 
L 241.847142 89.687758 
L 242.172121 91.664195 
L 242.497101 91.905367 
L 243.14706 89.373332 
L 243.472039 90.64133 
L 243.797019 82.727222 
L 244.121998 90.023558 
L 244.446978 90.690021 
L 244.771957 84.719263 
L 245.096937 88.886885 
L 245.421916 82.239091 
L 246.071876 91.06343 
L 246.396855 90.15313 
L 246.721835 90.784841 
L 247.046814 95.520002 
L 247.371794 86.976935 
L 247.696773 90.613663 
L 248.346732 95.575285 
L 248.671712 90.565358 
L 248.996691 88.957246 
L 249.321671 89.239306 
L 249.64665 94.002433 
L 249.97163 87.599441 
L 250.296609 92.270658 
L 250.621589 91.771938 
L 250.946568 94.816474 
L 251.271548 85.308333 
L 251.596527 89.046912 
L 251.921507 94.774026 
L 252.246486 87.992628 
L 252.571466 95.068833 
L 252.896446 91.823521 
L 253.221425 90.365372 
L 253.546405 90.113101 
L 253.871384 95.784021 
L 254.196364 91.674837 
L 254.521343 90.934489 
L 254.846323 88.630038 
L 255.171302 91.543039 
L 255.496282 96.426655 
L 255.821261 89.311491 
L 256.146241 94.381979 
L 256.47122 97.102673 
L 257.121179 86.083257 
L 257.446159 91.491648 
L 257.771138 93.854416 
L 258.096118 93.809373 
L 258.421097 88.450688 
L 258.746077 93.537535 
L 259.071057 89.629688 
L 259.396036 89.927352 
L 259.721016 91.672891 
L 260.045995 94.325889 
L 260.370975 93.679397 
L 260.695954 87.112468 
L 261.020934 85.933189 
L 261.345913 97.541552 
L 261.670893 84.112747 
L 261.995872 90.434962 
L 262.320852 83.50446 
L 262.645831 87.435118 
L 262.970811 95.196564 
L 263.29579 90.812667 
L 263.945749 94.087961 
L 264.270729 94.877122 
L 264.595708 89.134123 
L 264.920688 91.028959 
L 265.245667 88.613381 
L 265.570647 88.903717 
L 265.895627 90.48907 
L 266.220606 85.960734 
L 266.545586 91.212131 
L 266.870565 88.854115 
L 267.195545 94.572707 
L 267.520524 87.684198 
L 267.845504 86.844663 
L 268.170483 94.40244 
L 268.495463 86.140521 
L 268.820442 91.598725 
L 269.145422 89.137279 
L 269.470401 82.714966 
L 269.795381 86.848608 
L 270.12036 87.802285 
L 270.44534 97.809095 
L 270.770319 94.629954 
L 271.095299 89.131809 
L 271.745258 95.360641 
L 272.070238 86.22917 
L 272.395217 89.314858 
L 272.720197 96.538448 
L 273.370156 84.940184 
L 273.695135 93.578458 
L 274.020115 90.798798 
L 274.345094 90.383098 
L 274.670074 85.168083 
L 274.995053 92.183061 
L 275.320033 88.781982 
L 275.645012 86.926842 
L 275.969992 90.793784 
L 276.294971 91.287139 
L 276.619951 86.306668 
L 276.94493 87.201082 
L 277.26991 91.119835 
L 277.594889 89.043476 
L 277.919869 91.883748 
L 278.569828 88.298761 
L 278.894808 91.194352 
L 279.219787 95.833307 
L 279.544767 86.379291 
L 279.869746 85.106821 
L 280.194726 94.268678 
L 280.519705 86.53995 
L 280.844685 93.467454 
L 281.169664 89.374997 
L 281.494644 88.741287 
L 281.819623 92.373141 
L 282.144603 94.262699 
L 282.469582 94.956286 
L 282.794562 86.663858 
L 283.119541 92.837741 
L 283.444521 92.855853 
L 283.7695 86.612994 
L 284.09448 91.237677 
L 284.419459 88.213514 
L 284.744439 88.782649 
L 285.069419 96.747815 
L 285.394398 86.272092 
L 285.719378 85.742004 
L 286.044357 94.604828 
L 286.369337 91.073529 
L 286.694316 89.901193 
L 287.019296 85.103227 
L 287.344275 91.148835 
L 287.994234 92.5237 
L 288.319214 91.187707 
L 288.644193 86.86302 
L 288.969173 92.881645 
L 289.619132 84.40978 
L 289.944111 88.187424 
L 290.269091 89.774075 
L 290.59407 87.207184 
L 290.91905 96.097009 
L 291.569009 82.640466 
L 291.893989 93.900827 
L 292.218968 90.809599 
L 292.543948 90.117309 
L 292.868927 91.120694 
L 293.193907 88.089553 
L 293.518886 94.44808 
L 293.843866 91.913485 
L 294.168845 91.021209 
L 294.493825 83.723119 
L 294.818804 88.862285 
L 295.143784 88.308738 
L 295.468763 96.446591 
L 295.793743 86.83239 
L 296.118722 92.986354 
L 296.443702 89.590676 
L 296.768681 91.130565 
L 297.093661 90.897231 
L 297.41864 93.274305 
L 297.74362 88.869229 
L 298.0686 90.287804 
L 298.393579 84.046839 
L 298.718559 93.347437 
L 299.368518 88.634088 
L 299.693497 80.021273 
L 300.018477 93.504519 
L 300.343456 82.833018 
L 300.668436 84.392528 
L 300.993415 92.240816 
L 301.318395 79.064965 
L 301.643374 94.375386 
L 301.968354 90.029151 
L 302.293333 82.284117 
L 302.618313 92.498575 
L 302.943292 92.330517 
L 303.268272 85.04342 
L 303.593251 91.733136 
L 303.918231 88.084065 
L 304.24321 88.819223 
L 304.56819 87.932997 
L 305.218149 95.11868 
L 305.543129 93.165388 
L 305.868108 85.589376 
L 306.193088 90.262013 
L 306.518067 89.204537 
L 306.843047 89.07316 
L 307.168026 86.284839 
L 307.493006 88.001465 
L 307.817985 91.595376 
L 308.142965 90.34086 
L 308.467944 96.149627 
L 308.792924 88.47243 
L 309.117903 91.500292 
L 309.442883 90.55205 
L 309.767862 83.307192 
L 310.092842 93.108071 
L 310.417821 91.969241 
L 310.742801 85.399436 
L 311.067781 92.644838 
L 311.39276 95.239766 
L 311.71774 86.691859 
L 312.367699 84.480388 
L 312.692678 92.460001 
L 313.017658 94.068674 
L 313.342637 92.256035 
L 313.667617 87.889339 
L 313.992596 89.387341 
L 314.317576 94.800344 
L 314.642555 95.091521 
L 314.967535 88.793432 
L 315.292514 87.832478 
L 315.617494 96.626711 
L 316.267453 81.689524 
L 316.592432 89.566059 
L 316.917412 82.731237 
L 317.242391 89.362426 
L 317.567371 88.694035 
L 317.892351 90.299026 
L 318.21733 98.991653 
L 318.54231 90.436768 
L 318.867289 86.890495 
L 319.192269 90.640331 
L 319.517248 90.990999 
L 319.842228 88.393845 
L 320.167207 90.844578 
L 320.492187 88.990419 
L 320.817166 93.612718 
L 321.142146 93.573566 
L 321.467125 91.818121 
L 321.792105 91.216444 
L 322.117084 82.920966 
L 322.442064 95.880524 
L 322.767043 94.254441 
L 323.092023 85.913867 
L 323.417002 85.240654 
L 323.741982 86.927351 
L 324.066962 86.747282 
L 324.391941 87.864424 
L 324.716921 86.192332 
L 325.0419 85.459892 
L 325.36688 86.535023 
L 325.691859 93.354889 
L 326.016839 91.8622 
L 326.341818 88.787751 
L 326.666798 89.097531 
L 326.991777 89.669138 
L 327.316757 88.051312 
L 327.641736 89.98239 
L 327.966716 89.009057 
L 328.291695 88.716337 
L 328.616675 88.705852 
L 328.941654 89.180867 
L 329.266634 89.859498 
L 329.591613 89.464839 
L 329.916593 86.964416 
L 330.241572 87.524644 
L 330.566552 87.255278 
L 330.891532 88.430841 
L 331.216511 97.034223 
L 331.86647 88.614626 
L 332.19145 92.562729 
L 332.516429 92.31379 
L 332.841409 88.451442 
L 333.166388 89.462033 
L 333.491368 88.385359 
L 333.816347 85.902803 
L 334.466306 85.769532 
L 334.791286 96.306025 
L 335.116265 87.724718 
L 335.766224 88.708517 
L 336.091204 85.717545 
L 336.416183 88.836178 
L 336.741163 94.402879 
L 337.066143 87.215232 
L 337.391122 86.041755 
L 337.716102 85.985596 
L 338.041081 89.698524 
L 338.366061 95.953691 
L 338.69104 90.251089 
L 339.01602 90.23061 
L 339.340999 87.345593 
L 339.665979 87.195507 
L 339.990958 86.604701 
L 340.315938 84.757977 
L 340.640917 85.280016 
L 340.965897 83.773721 
L 341.290876 96.842495 
L 341.615856 87.744004 
L 341.940835 92.101636 
L 342.265815 98.373109 
L 342.590794 88.439011 
L 342.915774 93.521351 
L 343.240753 93.036517 
L 343.565733 89.706291 
L 343.890713 89.002255 
L 344.215692 95.68138 
L 344.540672 89.021033 
L 344.865651 85.461294 
L 345.190631 89.816278 
L 345.51561 90.060536 
L 345.84059 89.767272 
L 346.165569 84.361493 
L 346.490549 85.453422 
L 346.815528 91.388412 
L 347.140508 94.800186 
L 347.465487 86.496432 
L 347.790467 92.657445 
L 348.115446 86.090411 
L 348.440426 91.780617 
L 348.765405 87.965048 
L 349.090385 85.573719 
L 349.415364 88.778493 
L 350.065324 89.91692 
L 350.390303 91.945413 
L 350.715283 85.535583 
L 351.040262 86.451529 
L 351.365242 86.545578 
L 352.015201 94.713781 
L 352.34018 92.291803 
L 352.66516 92.831657 
L 352.990139 94.134442 
L 353.315119 90.59797 
L 353.640098 89.520104 
L 353.965078 86.931594 
L 354.290057 86.587991 
L 354.615037 85.113607 
L 354.940016 84.739146 
L 355.264996 80.207372 
L 355.589975 95.329292 
L 356.239934 83.940113 
L 356.564914 94.580913 
L 356.889894 88.909538 
L 357.214873 95.781952 
L 357.539853 87.718949 
L 357.864832 95.509991 
L 358.189812 85.942306 
L 358.514791 94.306568 
L 358.839771 86.113765 
L 359.16475 90.225789 
L 359.48973 80.321602 
L 360.139689 88.701258 
L 360.464668 86.629773 
L 360.789648 87.024766 
L 361.114627 90.120658 
L 361.764586 86.177061 
L 362.089566 92.543127 
L 362.414545 90.800288 
L 362.739525 90.014195 
L 363.064505 82.290973 
L 363.389484 81.567492 
L 364.039443 91.537972 
L 364.364423 84.100193 
L 364.689402 89.498468 
L 365.014382 82.789939 
L 365.339361 91.529678 
L 365.664341 89.20573 
L 365.98932 88.762433 
L 366.3143 87.083643 
L 366.964259 93.158865 
L 367.289238 86.164033 
L 367.939197 92.508043 
L 368.264177 86.468273 
L 368.589156 88.986159 
L 368.914136 85.658493 
L 369.239115 84.947933 
L 369.564095 84.926718 
L 370.214054 91.703101 
L 370.539034 86.403996 
L 370.864013 87.887901 
L 371.188993 86.091673 
L 371.838952 91.738484 
L 372.488911 89.985756 
L 372.81389 94.237416 
L 373.13887 92.166843 
L 373.463849 95.767925 
L 373.788829 85.470201 
L 374.113808 85.943551 
L 374.438788 91.522314 
L 374.763767 92.292049 
L 375.088747 89.487071 
L 375.413726 93.574144 
L 375.738706 76.255113 
L 376.063686 89.24127 
L 376.388665 95.337918 
L 376.713645 88.594988 
L 377.038624 89.795887 
L 377.363604 83.778385 
L 377.688583 90.859569 
L 378.013563 83.914497 
L 378.338542 88.383991 
L 378.663522 88.549121 
L 378.988501 84.434941 
L 379.313481 89.844034 
L 379.63846 88.651095 
L 379.96344 94.931616 
L 380.288419 90.306723 
L 380.613399 92.817227 
L 380.938378 87.92693 
L 381.263358 84.831406 
L 381.588337 80.507649 
L 381.913317 81.412374 
L 382.238296 91.771131 
L 382.888256 87.169838 
L 383.213235 89.129021 
L 383.538215 83.008808 
L 383.863194 90.035919 
L 384.188174 89.116958 
L 384.513153 96.469472 
L 384.838133 93.748777 
L 385.163112 93.425216 
L 385.488092 89.004709 
L 385.813071 86.776423 
L 386.138051 80.613709 
L 386.78801 91.561905 
L 387.762948 82.408008 
L 388.087928 89.650342 
L 388.412907 88.285752 
L 388.737887 91.504202 
L 389.062867 88.32031 
L 389.387846 88.736939 
L 389.712826 85.986683 
L 390.037805 93.185288 
L 390.362785 86.371874 
L 391.012744 84.168924 
L 391.337723 94.551264 
L 391.662703 89.450514 
L 391.987682 86.603789 
L 392.312662 91.29175 
L 392.637641 93.389167 
L 392.962621 84.577382 
L 393.2876 94.860606 
L 393.61258 88.076297 
L 393.937559 90.982005 
L 394.262539 90.411801 
L 394.587518 91.007007 
L 394.912498 90.664247 
L 395.562457 86.968957 
L 395.887437 80.451928 
L 396.537396 92.236573 
L 396.862375 87.08445 
L 397.187355 90.835408 
L 397.512334 92.264153 
L 397.837314 92.607422 
L 398.162293 94.497261 
L 398.487273 91.070391 
L 398.487273 91.070391 
" style="fill:none;stroke:#2ca02c;stroke-linecap:square;stroke-width:1.5;"/>
   </g>
   <g id="patch_3">
    <path d="M 57.6 307.584 
L 57.6 41.472 
" style="fill:none;stroke:#000000;stroke-linecap:square;stroke-linejoin:miter;stroke-width:0.8;"/>
   </g>
   <g id="patch_4">
    <path d="M 414.72 307.584 
L 414.72 41.472 
" style="fill:none;stroke:#000000;stroke-linecap:square;stroke-linejoin:miter;stroke-width:0.8;"/>
   </g>
   <g id="patch_5">
    <path d="M 57.6 307.584 
L 414.72 307.584 
" style="fill:none;stroke:#000000;stroke-linecap:square;stroke-linejoin:miter;stroke-width:0.8;"/>
   </g>
   <g id="patch_6">
    <path d="M 57.6 41.472 
L 414.72 41.472 
" style="fill:none;stroke:#000000;stroke-linecap:square;stroke-linejoin:miter;stroke-width:0.8;"/>
   </g>
   <g id="legend_1">
    <g id="patch_7">
     <path d="M 291.009063 302.584 
L 407.72 302.584 
Q 409.72 302.584 409.72 300.584 
L 409.72 257.549625 
Q 409.72 255.549625 407.72 255.549625 
L 291.009063 255.549625 
Q 289.009063 255.549625 289.009063 257.549625 
L 289.009063 300.584 
Q 289.009063 302.584 291.009063 302.584 
z
" style="fill:#ffffff;opacity:0.8;stroke:#cccccc;stroke-linejoin:miter;"/>
    </g>
    <g id="line2d_13">
     <path d="M 293.009063 263.648062 
L 313.009063 263.648062 
" style="fill:none;stroke:#1f77b4;stroke-linecap:square;stroke-width:1.5;"/>
    </g>
    <g id="line2d_14"/>
    <g id="text_12">
     <!-- UCB1 -->
     <defs>
      <path d="M 8.6875 72.90625 
L 18.609375 72.90625 
L 18.609375 28.609375 
Q 18.609375 16.890625 22.84375 11.734375 
Q 27.09375 6.59375 36.625 6.59375 
Q 46.09375 6.59375 50.34375 11.734375 
Q 54.59375 16.890625 54.59375 28.609375 
L 54.59375 72.90625 
L 64.5 72.90625 
L 64.5 27.390625 
Q 64.5 13.140625 57.4375 5.859375 
Q 50.390625 -1.421875 36.625 -1.421875 
Q 22.796875 -1.421875 15.734375 5.859375 
Q 8.6875 13.140625 8.6875 27.390625 
z
" id="DejaVuSans-55"/>
      <path d="M 64.40625 67.28125 
L 64.40625 56.890625 
Q 59.421875 61.53125 53.78125 63.8125 
Q 48.140625 66.109375 41.796875 66.109375 
Q 29.296875 66.109375 22.65625 58.46875 
Q 16.015625 50.828125 16.015625 36.375 
Q 16.015625 21.96875 22.65625 14.328125 
Q 29.296875 6.6875 41.796875 6.6875 
Q 48.140625 6.6875 53.78125 8.984375 
Q 59.421875 11.28125 64.40625 15.921875 
L 64.40625 5.609375 
Q 59.234375 2.09375 53.4375 0.328125 
Q 47.65625 -1.421875 41.21875 -1.421875 
Q 24.65625 -1.421875 15.125 8.703125 
Q 5.609375 18.84375 5.609375 36.375 
Q 5.609375 53.953125 15.125 64.078125 
Q 24.65625 74.21875 41.21875 74.21875 
Q 47.75 74.21875 53.53125 72.484375 
Q 59.328125 70.75 64.40625 67.28125 
z
" id="DejaVuSans-43"/>
      <path d="M 19.671875 34.8125 
L 19.671875 8.109375 
L 35.5 8.109375 
Q 43.453125 8.109375 47.28125 11.40625 
Q 51.125 14.703125 51.125 21.484375 
Q 51.125 28.328125 47.28125 31.5625 
Q 43.453125 34.8125 35.5 34.8125 
z
M 19.671875 64.796875 
L 19.671875 42.828125 
L 34.28125 42.828125 
Q 41.5 42.828125 45.03125 45.53125 
Q 48.578125 48.25 48.578125 53.8125 
Q 48.578125 59.328125 45.03125 62.0625 
Q 41.5 64.796875 34.28125 64.796875 
z
M 9.8125 72.90625 
L 35.015625 72.90625 
Q 46.296875 72.90625 52.390625 68.21875 
Q 58.5 63.53125 58.5 54.890625 
Q 58.5 48.1875 55.375 44.234375 
Q 52.25 40.28125 46.1875 39.3125 
Q 53.46875 37.75 57.5 32.78125 
Q 61.53125 27.828125 61.53125 20.40625 
Q 61.53125 10.640625 54.890625 5.3125 
Q 48.25 0 35.984375 0 
L 9.8125 0 
z
" id="DejaVuSans-42"/>
     </defs>
     <g transform="translate(321.009063 267.148062)scale(0.1 -0.1)">
      <use xlink:href="#DejaVuSans-55"/>
      <use x="73.193359" xlink:href="#DejaVuSans-43"/>
      <use x="143.017578" xlink:href="#DejaVuSans-42"/>
      <use x="211.621094" xlink:href="#DejaVuSans-31"/>
     </g>
    </g>
    <g id="line2d_15">
     <path d="M 293.009063 278.326188 
L 313.009063 278.326188 
" style="fill:none;stroke:#ff7f0e;stroke-linecap:square;stroke-width:1.5;"/>
    </g>
    <g id="line2d_16"/>
    <g id="text_13">
     <!-- UCB2 (=0.5) -->
     <defs>
      <path d="M 31 75.875 
Q 24.46875 64.65625 21.28125 53.65625 
Q 18.109375 42.671875 18.109375 31.390625 
Q 18.109375 20.125 21.3125 9.0625 
Q 24.515625 -2 31 -13.1875 
L 23.1875 -13.1875 
Q 15.875 -1.703125 12.234375 9.375 
Q 8.59375 20.453125 8.59375 31.390625 
Q 8.59375 42.28125 12.203125 53.3125 
Q 15.828125 64.359375 23.1875 75.875 
z
" id="DejaVuSans-28"/>
      <path d="M 41.3125 25.4375 
L 39.15625 36.71875 
Q 36.96875 48.296875 28.265625 48.296875 
Q 21.734375 48.296875 18.75 42.921875 
Q 14.984375 36.1875 14.984375 27.296875 
Q 14.984375 16.546875 18.65625 11.421875 
Q 22.359375 6.203125 28.265625 6.203125 
Q 34.8125 6.203125 38.328125 16.609375 
z
M 46.34375 40.375 
L 51.171875 54.6875 
L 59.1875 54.6875 
L 49.171875 25.046875 
L 51.125 14.359375 
Q 51.5625 11.96875 53.265625 9.96875 
Q 55.28125 7.625 56.84375 7.625 
L 61.140625 7.625 
L 61.140625 0 
L 55.765625 0 
Q 51.171875 0 47.078125 4.109375 
Q 45.0625 6.15625 44.234375 10.453125 
Q 42 5.03125 37.40625 0.78125 
Q 35.25 -1.21875 28.265625 -1.21875 
Q 16.796875 -1.21875 11.234375 6.203125 
Q 5.515625 13.875 5.515625 27.296875 
Q 5.515625 41.65625 11.71875 48.390625 
Q 18.609375 55.90625 28.265625 55.90625 
Q 43.453125 55.90625 46.34375 40.375 
z
" id="DejaVuSans-3b1"/>
      <path d="M 10.59375 45.40625 
L 73.1875 45.40625 
L 73.1875 37.203125 
L 10.59375 37.203125 
z
M 10.59375 25.484375 
L 73.1875 25.484375 
L 73.1875 17.1875 
L 10.59375 17.1875 
z
" id="DejaVuSans-3d"/>
      <path d="M 8.015625 75.875 
L 15.828125 75.875 
Q 23.140625 64.359375 26.78125 53.3125 
Q 30.421875 42.28125 30.421875 31.390625 
Q 30.421875 20.453125 26.78125 9.375 
Q 23.140625 -1.703125 15.828125 -13.1875 
L 8.015625 -13.1875 
Q 14.5 -2 17.703125 9.0625 
Q 20.90625 20.125 20.90625 31.390625 
Q 20.90625 42.671875 17.703125 53.65625 
Q 14.5 64.65625 8.015625 75.875 
z
" id="DejaVuSans-29"/>
     </defs>
     <g transform="translate(321.009063 281.826188)scale(0.1 -0.1)">
      <use xlink:href="#DejaVuSans-55"/>
      <use x="73.193359" xlink:href="#DejaVuSans-43"/>
      <use x="143.017578" xlink:href="#DejaVuSans-42"/>
      <use x="211.621094" xlink:href="#DejaVuSans-32"/>
      <use x="275.244141" xlink:href="#DejaVuSans-20"/>
      <use x="307.03125" xlink:href="#DejaVuSans-28"/>
      <use x="346.044922" xlink:href="#DejaVuSans-3b1"/>
      <use x="411.962891" xlink:href="#DejaVuSans-3d"/>
      <use x="495.751953" xlink:href="#DejaVuSans-30"/>
      <use x="559.375" xlink:href="#DejaVuSans-2e"/>
      <use x="591.162109" xlink:href="#DejaVuSans-35"/>
      <use x="654.785156" xlink:href="#DejaVuSans-29"/>
     </g>
    </g>
    <g id="line2d_17">
     <path d="M 293.009063 293.004312 
L 313.009063 293.004312 
" style="fill:none;stroke:#2ca02c;stroke-linecap:square;stroke-width:1.5;"/>
    </g>
    <g id="line2d_18"/>
    <g id="text_14">
     <!-- -greedy (=0.1) -->
     <defs>
      <path d="M 19.28125 29.5 
Q 13.8125 30.671875 10.890625 33.84375 
Q 7.953125 36.96875 7.953125 41.5 
Q 7.953125 48.390625 13.53125 52.25 
Q 19.046875 56.0625 28.609375 56.0625 
Q 32.328125 56.0625 36.46875 55.46875 
Q 40.625 54.890625 45.40625 53.71875 
L 45.40625 45.5625 
Q 40.671875 46.96875 36.765625 47.609375 
Q 32.8125 48.25 29.34375 48.25 
Q 23.53125 48.25 20.171875 46 
Q 16.75 43.75 16.75 40.625 
Q 16.75 37.203125 20.0625 35.015625 
Q 23.34375 32.859375 29 32.859375 
L 36.578125 32.859375 
L 36.578125 25.4375 
L 29.34375 25.4375 
Q 22.65625 25.4375 19.140625 22.953125 
Q 15.328125 20.21875 15.328125 15.921875 
Q 15.328125 11.53125 19.4375 8.796875 
Q 23.578125 6.0625 30.953125 6.0625 
Q 35.5 6.0625 39.65625 6.9375 
Q 43.796875 7.859375 47.265625 9.671875 
L 47.265625 1.3125 
Q 42.875 -0.046875 38.765625 -0.734375 
Q 34.625 -1.421875 30.71875 -1.421875 
Q 19.09375 -1.421875 12.796875 3.03125 
Q 6.5 7.46875 6.5 15.921875 
Q 6.5 21.1875 9.859375 24.75 
Q 13.234375 28.328125 19.28125 29.5 
z
" id="DejaVuSans-3b5"/>
      <path d="M 4.890625 31.390625 
L 31.203125 31.390625 
L 31.203125 23.390625 
L 4.890625 23.390625 
z
" id="DejaVuSans-2d"/>
      <path d="M 32.171875 -5.078125 
Q 28.375 -14.84375 24.75 -17.8125 
Q 21.140625 -20.796875 15.09375 -20.796875 
L 7.90625 -20.796875 
L 7.90625 -13.28125 
L 13.1875 -13.28125 
Q 16.890625 -13.28125 18.9375 -11.515625 
Q 21 -9.765625 23.484375 -3.21875 
L 25.09375 0.875 
L 2.984375 54.6875 
L 12.5 54.6875 
L 29.59375 11.921875 
L 46.6875 54.6875 
L 56.203125 54.6875 
z
" id="DejaVuSans-79"/>
     </defs>
     <g transform="translate(321.009063 296.504312)scale(0.1 -0.1)">
      <use xlink:href="#DejaVuSans-3b5"/>
      <use x="54.052734" xlink:href="#DejaVuSans-2d"/>
      <use x="90.136719" xlink:href="#DejaVuSans-67"/>
      <use x="153.613281" xlink:href="#DejaVuSans-72"/>
      <use x="194.695312" xlink:href="#DejaVuSans-65"/>
      <use x="256.21875" xlink:href="#DejaVuSans-65"/>
      <use x="317.742188" xlink:href="#DejaVuSans-64"/>
      <use x="381.21875" xlink:href="#DejaVuSans-79"/>
      <use x="440.398438" xlink:href="#DejaVuSans-20"/>
      <use x="472.185547" xlink:href="#DejaVuSans-28"/>
      <use x="511.199219" xlink:href="#DejaVuSans-3b5"/>
      <use x="565.251953" xlink:href="#DejaVuSans-3d"/>
      <use x="649.041016" xlink:href="#DejaVuSans-30"/>
      <use x="712.664062" xlink:href="#DejaVuSans-2e"/>
      <use x="744.451172" xlink:href="#DejaVuSans-31"/>
      <use x="808.074219" xlink:href="#DejaVuSans-29"/>
     </g>
    </g>
   </g>
  </g>
 </g>
 <defs>
  <clipPath id="p6b0ac4f994">
   <rect height="266.112" width="357.12" x="57.6" y="41.472"/>
  </clipPath>
 </defs>
</svg>
