<?xml version="1.0" encoding="utf-8" standalone="no"?>
<!DOCTYPE svg PUBLIC "-//W3C//DTD SVG 1.1//EN"
  "http://www.w3.org/Graphics/SVG/1.1/DTD/svg11.dtd">
<!-- Created with matplotlib (http://matplotlib.org/) -->
<svg height="345.6pt" version="1.1" viewBox="0 0 460.8 345.6" width="460.8pt" xmlns="http://www.w3.org/2000/svg" xmlns:xlink="http://www.w3.org/1999/xlink">
 <defs>
  <style type="text/css">
*{stroke-linecap:butt;stroke-linejoin:round;}
  </style>
 </defs>
 <g id="figure_1">
  <g id="patch_1">
   <path d="M 0 345.6 
L 460.8 345.6 
L 460.8 0 
L 0 0 
z
" style="fill:#ffffff;"/>
  </g>
  <g id="axes_1">
   <g id="patch_2">
    <path d="M 57.6 307.584 
L 414.72 307.584 
L 414.72 41.472 
L 57.6 41.472 
z
" style="fill:#ffffff;"/>
   </g>
   <g id="matplotlib.axis_1">
    <g id="xtick_1">
     <g id="line2d_1">
      <defs>
       <path d="M 0 0 
L 0 3.5 
" id="mb1150d9dcc" style="stroke:#000000;stroke-width:0.8;"/>
      </defs>
      <g>
       <use style="stroke:#000000;stroke-width:0.8;" x="73.832727" xlink:href="#mb1150d9dcc" y="307.584"/>
      </g>
     </g>
     <g id="text_1">
      <!-- 0 -->
      <defs>
       <path d="M 31.78125 66.40625 
Q 24.171875 66.40625 20.328125 58.90625 
Q 16.5 51.421875 16.5 36.375 
Q 16.5 21.390625 20.328125 13.890625 
Q 24.171875 6.390625 31.78125 6.390625 
Q 39.453125 6.390625 43.28125 13.890625 
Q 47.125 21.390625 47.125 36.375 
Q 47.125 51.421875 43.28125 58.90625 
Q 39.453125 66.40625 31.78125 66.40625 
z
M 31.78125 74.21875 
Q 44.046875 74.21875 50.515625 64.515625 
Q 56.984375 54.828125 56.984375 36.375 
Q 56.984375 17.96875 50.515625 8.265625 
Q 44.046875 -1.421875 31.78125 -1.421875 
Q 19.53125 -1.421875 13.0625 8.265625 
Q 6.59375 17.96875 6.59375 36.375 
Q 6.59375 54.828125 13.0625 64.515625 
Q 19.53125 74.21875 31.78125 74.21875 
z
" id="DejaVuSans-30"/>
      </defs>
      <g transform="translate(70.651477 322.182437)scale(0.1 -0.1)">
       <use xlink:href="#DejaVuSans-30"/>
      </g>
     </g>
    </g>
    <g id="xtick_2">
     <g id="line2d_2">
      <g>
       <use style="stroke:#000000;stroke-width:0.8;" x="155.077609" xlink:href="#mb1150d9dcc" y="307.584"/>
      </g>
     </g>
     <g id="text_2">
      <!-- 250 -->
      <defs>
       <path d="M 19.1875 8.296875 
L 53.609375 8.296875 
L 53.609375 0 
L 7.328125 0 
L 7.328125 8.296875 
Q 12.9375 14.109375 22.625 23.890625 
Q 32.328125 33.6875 34.8125 36.53125 
Q 39.546875 41.84375 41.421875 45.53125 
Q 43.3125 49.21875 43.3125 52.78125 
Q 43.3125 58.59375 39.234375 62.25 
Q 35.15625 65.921875 28.609375 65.921875 
Q 23.96875 65.921875 18.8125 64.3125 
Q 13.671875 62.703125 7.8125 59.421875 
L 7.8125 69.390625 
Q 13.765625 71.78125 18.9375 73 
Q 24.125 74.21875 28.421875 74.21875 
Q 39.75 74.21875 46.484375 68.546875 
Q 53.21875 62.890625 53.21875 53.421875 
Q 53.21875 48.921875 51.53125 44.890625 
Q 49.859375 40.875 45.40625 35.40625 
Q 44.1875 33.984375 37.640625 27.21875 
Q 31.109375 20.453125 19.1875 8.296875 
z
" id="DejaVuSans-32"/>
       <path d="M 10.796875 72.90625 
L 49.515625 72.90625 
L 49.515625 64.59375 
L 19.828125 64.59375 
L 19.828125 46.734375 
Q 21.96875 47.46875 24.109375 47.828125 
Q 26.265625 48.1875 28.421875 48.1875 
Q 40.625 48.1875 47.75 41.5 
Q 54.890625 34.8125 54.890625 23.390625 
Q 54.890625 11.625 47.5625 5.09375 
Q 40.234375 -1.421875 26.90625 -1.421875 
Q 22.3125 -1.421875 17.546875 -0.640625 
Q 12.796875 0.140625 7.71875 1.703125 
L 7.71875 11.625 
Q 12.109375 9.234375 16.796875 8.0625 
Q 21.484375 6.890625 26.703125 6.890625 
Q 35.15625 6.890625 40.078125 11.328125 
Q 45.015625 15.765625 45.015625 23.390625 
Q 45.015625 31 40.078125 35.4375 
Q 35.15625 39.890625 26.703125 39.890625 
Q 22.75 39.890625 18.8125 39.015625 
Q 14.890625 38.140625 10.796875 36.28125 
z
" id="DejaVuSans-35"/>
      </defs>
      <g transform="translate(145.533859 322.182437)scale(0.1 -0.1)">
       <use xlink:href="#DejaVuSans-32"/>
       <use x="63.623047" xlink:href="#DejaVuSans-35"/>
       <use x="127.246094" xlink:href="#DejaVuSans-30"/>
      </g>
     </g>
    </g>
    <g id="xtick_3">
     <g id="line2d_3">
      <g>
       <use style="stroke:#000000;stroke-width:0.8;" x="236.32249" xlink:href="#mb1150d9dcc" y="307.584"/>
      </g>
     </g>
     <g id="text_3">
      <!-- 500 -->
      <g transform="translate(226.77874 322.182437)scale(0.1 -0.1)">
       <use xlink:href="#DejaVuSans-35"/>
       <use x="63.623047" xlink:href="#DejaVuSans-30"/>
       <use x="127.246094" xlink:href="#DejaVuSans-30"/>
      </g>
     </g>
    </g>
    <g id="xtick_4">
     <g id="line2d_4">
      <g>
       <use style="stroke:#000000;stroke-width:0.8;" x="317.567371" xlink:href="#mb1150d9dcc" y="307.584"/>
      </g>
     </g>
     <g id="text_4">
      <!-- 750 -->
      <defs>
       <path d="M 8.203125 72.90625 
L 55.078125 72.90625 
L 55.078125 68.703125 
L 28.609375 0 
L 18.3125 0 
L 43.21875 64.59375 
L 8.203125 64.59375 
z
" id="DejaVuSans-37"/>
      </defs>
      <g transform="translate(308.023621 322.182437)scale(0.1 -0.1)">
       <use xlink:href="#DejaVuSans-37"/>
       <use x="63.623047" xlink:href="#DejaVuSans-35"/>
       <use x="127.246094" xlink:href="#DejaVuSans-30"/>
      </g>
     </g>
    </g>
    <g id="xtick_5">
     <g id="line2d_5">
      <g>
       <use style="stroke:#000000;stroke-width:0.8;" x="398.812252" xlink:href="#mb1150d9dcc" y="307.584"/>
      </g>
     </g>
     <g id="text_5">
      <!-- 1000 -->
      <defs>
       <path d="M 12.40625 8.296875 
L 28.515625 8.296875 
L 28.515625 63.921875 
L 10.984375 60.40625 
L 10.984375 69.390625 
L 28.421875 72.90625 
L 38.28125 72.90625 
L 38.28125 8.296875 
L 54.390625 8.296875 
L 54.390625 0 
L 12.40625 0 
z
" id="DejaVuSans-31"/>
      </defs>
      <g transform="translate(386.087252 322.182437)scale(0.1 -0.1)">
       <use xlink:href="#DejaVuSans-31"/>
       <use x="63.623047" xlink:href="#DejaVuSans-30"/>
       <use x="127.246094" xlink:href="#DejaVuSans-30"/>
       <use x="190.869141" xlink:href="#DejaVuSans-30"/>
      </g>
     </g>
    </g>
    <g id="text_6">
     <!-- Steps -->
     <defs>
      <path d="M 53.515625 70.515625 
L 53.515625 60.890625 
Q 47.90625 63.578125 42.921875 64.890625 
Q 37.9375 66.21875 33.296875 66.21875 
Q 25.25 66.21875 20.875 63.09375 
Q 16.5 59.96875 16.5 54.203125 
Q 16.5 49.359375 19.40625 46.890625 
Q 22.3125 44.4375 30.421875 42.921875 
L 36.375 41.703125 
Q 47.40625 39.59375 52.65625 34.296875 
Q 57.90625 29 57.90625 20.125 
Q 57.90625 9.515625 50.796875 4.046875 
Q 43.703125 -1.421875 29.984375 -1.421875 
Q 24.8125 -1.421875 18.96875 -0.25 
Q 13.140625 0.921875 6.890625 3.21875 
L 6.890625 13.375 
Q 12.890625 10.015625 18.65625 8.296875 
Q 24.421875 6.59375 29.984375 6.59375 
Q 38.421875 6.59375 43.015625 9.90625 
Q 47.609375 13.234375 47.609375 19.390625 
Q 47.609375 24.75 44.3125 27.78125 
Q 41.015625 30.8125 33.5 32.328125 
L 27.484375 33.5 
Q 16.453125 35.6875 11.515625 40.375 
Q 6.59375 45.0625 6.59375 53.421875 
Q 6.59375 63.09375 13.40625 68.65625 
Q 20.21875 74.21875 32.171875 74.21875 
Q 37.3125 74.21875 42.625 73.28125 
Q 47.953125 72.359375 53.515625 70.515625 
z
" id="DejaVuSans-53"/>
      <path d="M 18.3125 70.21875 
L 18.3125 54.6875 
L 36.8125 54.6875 
L 36.8125 47.703125 
L 18.3125 47.703125 
L 18.3125 18.015625 
Q 18.3125 11.328125 20.140625 9.421875 
Q 21.96875 7.515625 27.59375 7.515625 
L 36.8125 7.515625 
L 36.8125 0 
L 27.59375 0 
Q 17.1875 0 13.234375 3.875 
Q 9.28125 7.765625 9.28125 18.015625 
L 9.28125 47.703125 
L 2.6875 47.703125 
L 2.6875 54.6875 
L 9.28125 54.6875 
L 9.28125 70.21875 
z
" id="DejaVuSans-74"/>
      <path d="M 56.203125 29.59375 
L 56.203125 25.203125 
L 14.890625 25.203125 
Q 15.484375 15.921875 20.484375 11.0625 
Q 25.484375 6.203125 34.421875 6.203125 
Q 39.59375 6.203125 44.453125 7.46875 
Q 49.3125 8.734375 54.109375 11.28125 
L 54.109375 2.78125 
Q 49.265625 0.734375 44.1875 -0.34375 
Q 39.109375 -1.421875 33.890625 -1.421875 
Q 20.796875 -1.421875 13.15625 6.1875 
Q 5.515625 13.8125 5.515625 26.8125 
Q 5.515625 40.234375 12.765625 48.109375 
Q 20.015625 56 32.328125 56 
Q 43.359375 56 49.78125 48.890625 
Q 56.203125 41.796875 56.203125 29.59375 
z
M 47.21875 32.234375 
Q 47.125 39.59375 43.09375 43.984375 
Q 39.0625 48.390625 32.421875 48.390625 
Q 24.90625 48.390625 20.390625 44.140625 
Q 15.875 39.890625 15.1875 32.171875 
z
" id="DejaVuSans-65"/>
      <path d="M 18.109375 8.203125 
L 18.109375 -20.796875 
L 9.078125 -20.796875 
L 9.078125 54.6875 
L 18.109375 54.6875 
L 18.109375 46.390625 
Q 20.953125 51.265625 25.265625 53.625 
Q 29.59375 56 35.59375 56 
Q 45.5625 56 51.78125 48.09375 
Q 58.015625 40.1875 58.015625 27.296875 
Q 58.015625 14.40625 51.78125 6.484375 
Q 45.5625 -1.421875 35.59375 -1.421875 
Q 29.59375 -1.421875 25.265625 0.953125 
Q 20.953125 3.328125 18.109375 8.203125 
z
M 48.6875 27.296875 
Q 48.6875 37.203125 44.609375 42.84375 
Q 40.53125 48.484375 33.40625 48.484375 
Q 26.265625 48.484375 22.1875 42.84375 
Q 18.109375 37.203125 18.109375 27.296875 
Q 18.109375 17.390625 22.1875 11.75 
Q 26.265625 6.109375 33.40625 6.109375 
Q 40.53125 6.109375 44.609375 11.75 
Q 48.6875 17.390625 48.6875 27.296875 
z
" id="DejaVuSans-70"/>
      <path d="M 44.28125 53.078125 
L 44.28125 44.578125 
Q 40.484375 46.53125 36.375 47.5 
Q 32.28125 48.484375 27.875 48.484375 
Q 21.1875 48.484375 17.84375 46.4375 
Q 14.5 44.390625 14.5 40.28125 
Q 14.5 37.15625 16.890625 35.375 
Q 19.28125 33.59375 26.515625 31.984375 
L 29.59375 31.296875 
Q 39.15625 29.25 43.1875 25.515625 
Q 47.21875 21.78125 47.21875 15.09375 
Q 47.21875 7.46875 41.1875 3.015625 
Q 35.15625 -1.421875 24.609375 -1.421875 
Q 20.21875 -1.421875 15.453125 -0.5625 
Q 10.6875 0.296875 5.421875 2 
L 5.421875 11.28125 
Q 10.40625 8.6875 15.234375 7.390625 
Q 20.0625 6.109375 24.8125 6.109375 
Q 31.15625 6.109375 34.5625 8.28125 
Q 37.984375 10.453125 37.984375 14.40625 
Q 37.984375 18.0625 35.515625 20.015625 
Q 33.0625 21.96875 24.703125 23.78125 
L 21.578125 24.515625 
Q 13.234375 26.265625 9.515625 29.90625 
Q 5.8125 33.546875 5.8125 39.890625 
Q 5.8125 47.609375 11.28125 51.796875 
Q 16.75 56 26.8125 56 
Q 31.78125 56 36.171875 55.265625 
Q 40.578125 54.546875 44.28125 53.078125 
z
" id="DejaVuSans-73"/>
     </defs>
     <g transform="translate(222.170156 335.860562)scale(0.1 -0.1)">
      <use xlink:href="#DejaVuSans-53"/>
      <use x="63.476562" xlink:href="#DejaVuSans-74"/>
      <use x="102.685547" xlink:href="#DejaVuSans-65"/>
      <use x="164.208984" xlink:href="#DejaVuSans-70"/>
      <use x="227.685547" xlink:href="#DejaVuSans-73"/>
     </g>
    </g>
   </g>
   <g id="matplotlib.axis_2">
    <g id="ytick_1">
     <g id="line2d_6">
      <defs>
       <path d="M 0 0 
L -3.5 0 
" id="m5294ae3451" style="stroke:#000000;stroke-width:0.8;"/>
      </defs>
      <g>
       <use style="stroke:#000000;stroke-width:0.8;" x="57.6" xlink:href="#m5294ae3451" y="307.584"/>
      </g>
     </g>
     <g id="text_7">
      <!-- 0 -->
      <g transform="translate(44.2375 311.383219)scale(0.1 -0.1)">
       <use xlink:href="#DejaVuSans-30"/>
      </g>
     </g>
    </g>
    <g id="ytick_2">
     <g id="line2d_7">
      <g>
       <use style="stroke:#000000;stroke-width:0.8;" x="57.6" xlink:href="#m5294ae3451" y="254.3616"/>
      </g>
     </g>
     <g id="text_8">
      <!-- 20 -->
      <g transform="translate(37.875 258.160819)scale(0.1 -0.1)">
       <use xlink:href="#DejaVuSans-32"/>
       <use x="63.623047" xlink:href="#DejaVuSans-30"/>
      </g>
     </g>
    </g>
    <g id="ytick_3">
     <g id="line2d_8">
      <g>
       <use style="stroke:#000000;stroke-width:0.8;" x="57.6" xlink:href="#m5294ae3451" y="201.1392"/>
      </g>
     </g>
     <g id="text_9">
      <!-- 40 -->
      <defs>
       <path d="M 37.796875 64.3125 
L 12.890625 25.390625 
L 37.796875 25.390625 
z
M 35.203125 72.90625 
L 47.609375 72.90625 
L 47.609375 25.390625 
L 58.015625 25.390625 
L 58.015625 17.1875 
L 47.609375 17.1875 
L 47.609375 0 
L 37.796875 0 
L 37.796875 17.1875 
L 4.890625 17.1875 
L 4.890625 26.703125 
z
" id="DejaVuSans-34"/>
      </defs>
      <g transform="translate(37.875 204.938419)scale(0.1 -0.1)">
       <use xlink:href="#DejaVuSans-34"/>
       <use x="63.623047" xlink:href="#DejaVuSans-30"/>
      </g>
     </g>
    </g>
    <g id="ytick_4">
     <g id="line2d_9">
      <g>
       <use style="stroke:#000000;stroke-width:0.8;" x="57.6" xlink:href="#m5294ae3451" y="147.9168"/>
      </g>
     </g>
     <g id="text_10">
      <!-- 60 -->
      <defs>
       <path d="M 33.015625 40.375 
Q 26.375 40.375 22.484375 35.828125 
Q 18.609375 31.296875 18.609375 23.390625 
Q 18.609375 15.53125 22.484375 10.953125 
Q 26.375 6.390625 33.015625 6.390625 
Q 39.65625 6.390625 43.53125 10.953125 
Q 47.40625 15.53125 47.40625 23.390625 
Q 47.40625 31.296875 43.53125 35.828125 
Q 39.65625 40.375 33.015625 40.375 
z
M 52.59375 71.296875 
L 52.59375 62.3125 
Q 48.875 64.0625 45.09375 64.984375 
Q 41.3125 65.921875 37.59375 65.921875 
Q 27.828125 65.921875 22.671875 59.328125 
Q 17.53125 52.734375 16.796875 39.40625 
Q 19.671875 43.65625 24.015625 45.921875 
Q 28.375 48.1875 33.59375 48.1875 
Q 44.578125 48.1875 50.953125 41.515625 
Q 57.328125 34.859375 57.328125 23.390625 
Q 57.328125 12.15625 50.6875 5.359375 
Q 44.046875 -1.421875 33.015625 -1.421875 
Q 20.359375 -1.421875 13.671875 8.265625 
Q 6.984375 17.96875 6.984375 36.375 
Q 6.984375 53.65625 15.1875 63.9375 
Q 23.390625 74.21875 37.203125 74.21875 
Q 40.921875 74.21875 44.703125 73.484375 
Q 48.484375 72.75 52.59375 71.296875 
z
" id="DejaVuSans-36"/>
      </defs>
      <g transform="translate(37.875 151.716019)scale(0.1 -0.1)">
       <use xlink:href="#DejaVuSans-36"/>
       <use x="63.623047" xlink:href="#DejaVuSans-30"/>
      </g>
     </g>
    </g>
    <g id="ytick_5">
     <g id="line2d_10">
      <g>
       <use style="stroke:#000000;stroke-width:0.8;" x="57.6" xlink:href="#m5294ae3451" y="94.6944"/>
      </g>
     </g>
     <g id="text_11">
      <!-- 80 -->
      <defs>
       <path d="M 31.78125 34.625 
Q 24.75 34.625 20.71875 30.859375 
Q 16.703125 27.09375 16.703125 20.515625 
Q 16.703125 13.921875 20.71875 10.15625 
Q 24.75 6.390625 31.78125 6.390625 
Q 38.8125 6.390625 42.859375 10.171875 
Q 46.921875 13.96875 46.921875 20.515625 
Q 46.921875 27.09375 42.890625 30.859375 
Q 38.875 34.625 31.78125 34.625 
z
M 21.921875 38.8125 
Q 15.578125 40.375 12.03125 44.71875 
Q 8.5 49.078125 8.5 55.328125 
Q 8.5 64.0625 14.71875 69.140625 
Q 20.953125 74.21875 31.78125 74.21875 
Q 42.671875 74.21875 48.875 69.140625 
Q 55.078125 64.0625 55.078125 55.328125 
Q 55.078125 49.078125 51.53125 44.71875 
Q 48 40.375 41.703125 38.8125 
Q 48.828125 37.15625 52.796875 32.3125 
Q 56.78125 27.484375 56.78125 20.515625 
Q 56.78125 9.90625 50.3125 4.234375 
Q 43.84375 -1.421875 31.78125 -1.421875 
Q 19.734375 -1.421875 13.25 4.234375 
Q 6.78125 9.90625 6.78125 20.515625 
Q 6.78125 27.484375 10.78125 32.3125 
Q 14.796875 37.15625 21.921875 38.8125 
z
M 18.3125 54.390625 
Q 18.3125 48.734375 21.84375 45.5625 
Q 25.390625 42.390625 31.78125 42.390625 
Q 38.140625 42.390625 41.71875 45.5625 
Q 45.3125 48.734375 45.3125 54.390625 
Q 45.3125 60.0625 41.71875 63.234375 
Q 38.140625 66.40625 31.78125 66.40625 
Q 25.390625 66.40625 21.84375 63.234375 
Q 18.3125 60.0625 18.3125 54.390625 
z
" id="DejaVuSans-38"/>
      </defs>
      <g transform="translate(37.875 98.493619)scale(0.1 -0.1)">
       <use xlink:href="#DejaVuSans-38"/>
       <use x="63.623047" xlink:href="#DejaVuSans-30"/>
      </g>
     </g>
    </g>
    <g id="ytick_6">
     <g id="line2d_11">
      <g>
       <use style="stroke:#000000;stroke-width:0.8;" x="57.6" xlink:href="#m5294ae3451" y="41.472"/>
      </g>
     </g>
     <g id="text_12">
      <!-- 100 -->
      <g transform="translate(31.5125 45.271219)scale(0.1 -0.1)">
       <use xlink:href="#DejaVuSans-31"/>
       <use x="63.623047" xlink:href="#DejaVuSans-30"/>
       <use x="127.246094" xlink:href="#DejaVuSans-30"/>
      </g>
     </g>
    </g>
    <g id="text_13">
     <!-- Optimal action (%) -->
     <defs>
      <path d="M 39.40625 66.21875 
Q 28.65625 66.21875 22.328125 58.203125 
Q 16.015625 50.203125 16.015625 36.375 
Q 16.015625 22.609375 22.328125 14.59375 
Q 28.65625 6.59375 39.40625 6.59375 
Q 50.140625 6.59375 56.421875 14.59375 
Q 62.703125 22.609375 62.703125 36.375 
Q 62.703125 50.203125 56.421875 58.203125 
Q 50.140625 66.21875 39.40625 66.21875 
z
M 39.40625 74.21875 
Q 54.734375 74.21875 63.90625 63.9375 
Q 73.09375 53.65625 73.09375 36.375 
Q 73.09375 19.140625 63.90625 8.859375 
Q 54.734375 -1.421875 39.40625 -1.421875 
Q 24.03125 -1.421875 14.8125 8.828125 
Q 5.609375 19.09375 5.609375 36.375 
Q 5.609375 53.65625 14.8125 63.9375 
Q 24.03125 74.21875 39.40625 74.21875 
z
" id="DejaVuSans-4f"/>
      <path d="M 9.421875 54.6875 
L 18.40625 54.6875 
L 18.40625 0 
L 9.421875 0 
z
M 9.421875 75.984375 
L 18.40625 75.984375 
L 18.40625 64.59375 
L 9.421875 64.59375 
z
" id="DejaVuSans-69"/>
      <path d="M 52 44.1875 
Q 55.375 50.25 60.0625 53.125 
Q 64.75 56 71.09375 56 
Q 79.640625 56 84.28125 50.015625 
Q 88.921875 44.046875 88.921875 33.015625 
L 88.921875 0 
L 79.890625 0 
L 79.890625 32.71875 
Q 79.890625 40.578125 77.09375 44.375 
Q 74.3125 48.1875 68.609375 48.1875 
Q 61.625 48.1875 57.5625 43.546875 
Q 53.515625 38.921875 53.515625 30.90625 
L 53.515625 0 
L 44.484375 0 
L 44.484375 32.71875 
Q 44.484375 40.625 41.703125 44.40625 
Q 38.921875 48.1875 33.109375 48.1875 
Q 26.21875 48.1875 22.15625 43.53125 
Q 18.109375 38.875 18.109375 30.90625 
L 18.109375 0 
L 9.078125 0 
L 9.078125 54.6875 
L 18.109375 54.6875 
L 18.109375 46.1875 
Q 21.1875 51.21875 25.484375 53.609375 
Q 29.78125 56 35.6875 56 
Q 41.65625 56 45.828125 52.96875 
Q 50 49.953125 52 44.1875 
z
" id="DejaVuSans-6d"/>
      <path d="M 34.28125 27.484375 
Q 23.390625 27.484375 19.1875 25 
Q 14.984375 22.515625 14.984375 16.5 
Q 14.984375 11.71875 18.140625 8.90625 
Q 21.296875 6.109375 26.703125 6.109375 
Q 34.1875 6.109375 38.703125 11.40625 
Q 43.21875 16.703125 43.21875 25.484375 
L 43.21875 27.484375 
z
M 52.203125 31.203125 
L 52.203125 0 
L 43.21875 0 
L 43.21875 8.296875 
Q 40.140625 3.328125 35.546875 0.953125 
Q 30.953125 -1.421875 24.3125 -1.421875 
Q 15.921875 -1.421875 10.953125 3.296875 
Q 6 8.015625 6 15.921875 
Q 6 25.140625 12.171875 29.828125 
Q 18.359375 34.515625 30.609375 34.515625 
L 43.21875 34.515625 
L 43.21875 35.40625 
Q 43.21875 41.609375 39.140625 45 
Q 35.0625 48.390625 27.6875 48.390625 
Q 23 48.390625 18.546875 47.265625 
Q 14.109375 46.140625 10.015625 43.890625 
L 10.015625 52.203125 
Q 14.9375 54.109375 19.578125 55.046875 
Q 24.21875 56 28.609375 56 
Q 40.484375 56 46.34375 49.84375 
Q 52.203125 43.703125 52.203125 31.203125 
z
" id="DejaVuSans-61"/>
      <path d="M 9.421875 75.984375 
L 18.40625 75.984375 
L 18.40625 0 
L 9.421875 0 
z
" id="DejaVuSans-6c"/>
      <path id="DejaVuSans-20"/>
      <path d="M 48.78125 52.59375 
L 48.78125 44.1875 
Q 44.96875 46.296875 41.140625 47.34375 
Q 37.3125 48.390625 33.40625 48.390625 
Q 24.65625 48.390625 19.8125 42.84375 
Q 14.984375 37.3125 14.984375 27.296875 
Q 14.984375 17.28125 19.8125 11.734375 
Q 24.65625 6.203125 33.40625 6.203125 
Q 37.3125 6.203125 41.140625 7.25 
Q 44.96875 8.296875 48.78125 10.40625 
L 48.78125 2.09375 
Q 45.015625 0.34375 40.984375 -0.53125 
Q 36.96875 -1.421875 32.421875 -1.421875 
Q 20.0625 -1.421875 12.78125 6.34375 
Q 5.515625 14.109375 5.515625 27.296875 
Q 5.515625 40.671875 12.859375 48.328125 
Q 20.21875 56 33.015625 56 
Q 37.15625 56 41.109375 55.140625 
Q 45.0625 54.296875 48.78125 52.59375 
z
" id="DejaVuSans-63"/>
      <path d="M 30.609375 48.390625 
Q 23.390625 48.390625 19.1875 42.75 
Q 14.984375 37.109375 14.984375 27.296875 
Q 14.984375 17.484375 19.15625 11.84375 
Q 23.34375 6.203125 30.609375 6.203125 
Q 37.796875 6.203125 41.984375 11.859375 
Q 46.1875 17.53125 46.1875 27.296875 
Q 46.1875 37.015625 41.984375 42.703125 
Q 37.796875 48.390625 30.609375 48.390625 
z
M 30.609375 56 
Q 42.328125 56 49.015625 48.375 
Q 55.71875 40.765625 55.71875 27.296875 
Q 55.71875 13.875 49.015625 6.21875 
Q 42.328125 -1.421875 30.609375 -1.421875 
Q 18.84375 -1.421875 12.171875 6.21875 
Q 5.515625 13.875 5.515625 27.296875 
Q 5.515625 40.765625 12.171875 48.375 
Q 18.84375 56 30.609375 56 
z
" id="DejaVuSans-6f"/>
      <path d="M 54.890625 33.015625 
L 54.890625 0 
L 45.90625 0 
L 45.90625 32.71875 
Q 45.90625 40.484375 42.875 44.328125 
Q 39.84375 48.1875 33.796875 48.1875 
Q 26.515625 48.1875 22.3125 43.546875 
Q 18.109375 38.921875 18.109375 30.90625 
L 18.109375 0 
L 9.078125 0 
L 9.078125 54.6875 
L 18.109375 54.6875 
L 18.109375 46.1875 
Q 21.34375 51.125 25.703125 53.5625 
Q 30.078125 56 35.796875 56 
Q 45.21875 56 50.046875 50.171875 
Q 54.890625 44.34375 54.890625 33.015625 
z
" id="DejaVuSans-6e"/>
      <path d="M 31 75.875 
Q 24.46875 64.65625 21.28125 53.65625 
Q 18.109375 42.671875 18.109375 31.390625 
Q 18.109375 20.125 21.3125 9.0625 
Q 24.515625 -2 31 -13.1875 
L 23.1875 -13.1875 
Q 15.875 -1.703125 12.234375 9.375 
Q 8.59375 20.453125 8.59375 31.390625 
Q 8.59375 42.28125 12.203125 53.3125 
Q 15.828125 64.359375 23.1875 75.875 
z
" id="DejaVuSans-28"/>
      <path d="M 72.703125 32.078125 
Q 68.453125 32.078125 66.03125 28.46875 
Q 63.625 24.859375 63.625 18.40625 
Q 63.625 12.0625 66.03125 8.421875 
Q 68.453125 4.78125 72.703125 4.78125 
Q 76.859375 4.78125 79.265625 8.421875 
Q 81.6875 12.0625 81.6875 18.40625 
Q 81.6875 24.8125 79.265625 28.4375 
Q 76.859375 32.078125 72.703125 32.078125 
z
M 72.703125 38.28125 
Q 80.421875 38.28125 84.953125 32.90625 
Q 89.5 27.546875 89.5 18.40625 
Q 89.5 9.28125 84.9375 3.921875 
Q 80.375 -1.421875 72.703125 -1.421875 
Q 64.890625 -1.421875 60.34375 3.921875 
Q 55.8125 9.28125 55.8125 18.40625 
Q 55.8125 27.59375 60.375 32.9375 
Q 64.9375 38.28125 72.703125 38.28125 
z
M 22.3125 68.015625 
Q 18.109375 68.015625 15.6875 64.375 
Q 13.28125 60.75 13.28125 54.390625 
Q 13.28125 47.953125 15.671875 44.328125 
Q 18.0625 40.71875 22.3125 40.71875 
Q 26.5625 40.71875 28.96875 44.328125 
Q 31.390625 47.953125 31.390625 54.390625 
Q 31.390625 60.6875 28.953125 64.34375 
Q 26.515625 68.015625 22.3125 68.015625 
z
M 66.40625 74.21875 
L 74.21875 74.21875 
L 28.609375 -1.421875 
L 20.796875 -1.421875 
z
M 22.3125 74.21875 
Q 30.03125 74.21875 34.609375 68.875 
Q 39.203125 63.53125 39.203125 54.390625 
Q 39.203125 45.171875 34.640625 39.84375 
Q 30.078125 34.515625 22.3125 34.515625 
Q 14.546875 34.515625 10.03125 39.859375 
Q 5.515625 45.21875 5.515625 54.390625 
Q 5.515625 63.484375 10.046875 68.84375 
Q 14.59375 74.21875 22.3125 74.21875 
z
" id="DejaVuSans-25"/>
      <path d="M 8.015625 75.875 
L 15.828125 75.875 
Q 23.140625 64.359375 26.78125 53.3125 
Q 30.421875 42.28125 30.421875 31.390625 
Q 30.421875 20.453125 26.78125 9.375 
Q 23.140625 -1.703125 15.828125 -13.1875 
L 8.015625 -13.1875 
Q 14.5 -2 17.703125 9.0625 
Q 20.90625 20.125 20.90625 31.390625 
Q 20.90625 42.671875 17.703125 53.65625 
Q 14.5 64.65625 8.015625 75.875 
z
" id="DejaVuSans-29"/>
     </defs>
     <g transform="translate(25.432812 221.531906)rotate(-90)scale(0.1 -0.1)">
      <use xlink:href="#DejaVuSans-4f"/>
      <use x="78.710938" xlink:href="#DejaVuSans-70"/>
      <use x="142.1875" xlink:href="#DejaVuSans-74"/>
      <use x="181.396484" xlink:href="#DejaVuSans-69"/>
      <use x="209.179688" xlink:href="#DejaVuSans-6d"/>
      <use x="306.591797" xlink:href="#DejaVuSans-61"/>
      <use x="367.871094" xlink:href="#DejaVuSans-6c"/>
      <use x="395.654297" xlink:href="#DejaVuSans-20"/>
      <use x="427.441406" xlink:href="#DejaVuSans-61"/>
      <use x="488.720703" xlink:href="#DejaVuSans-63"/>
      <use x="543.701172" xlink:href="#DejaVuSans-74"/>
      <use x="582.910156" xlink:href="#DejaVuSans-69"/>
      <use x="610.693359" xlink:href="#DejaVuSans-6f"/>
      <use x="671.875" xlink:href="#DejaVuSans-6e"/>
      <use x="735.253906" xlink:href="#DejaVuSans-20"/>
      <use x="767.041016" xlink:href="#DejaVuSans-28"/>
      <use x="806.054688" xlink:href="#DejaVuSans-25"/>
      <use x="901.074219" xlink:href="#DejaVuSans-29"/>
     </g>
    </g>
   </g>
   <g id="line2d_12">
    <path clip-path="url(#pe078d61eb3)" d="M 73.832727 279.243073 
L 74.157707 280.041407 
L 74.482686 282.569473 
L 75.132645 277.6464 
L 75.457625 286.827263 
L 75.782604 281.90419 
L 76.107584 280.30752 
L 76.432563 280.706687 
L 76.757543 280.573633 
L 77.082523 190.627774 
L 77.407502 205.929214 
L 77.732482 205.929214 
L 78.057461 209.920894 
L 78.382441 203.933374 
L 78.70742 200.207812 
L 79.0324 198.211962 
L 79.357379 198.744188 
L 79.682359 197.280574 
L 80.332318 188.898042 
L 80.657297 187.16832 
L 80.982277 187.16832 
L 81.632236 184.5072 
L 81.957215 183.17664 
L 82.282195 181.1808 
L 82.607174 172.132988 
L 82.932154 170.137148 
L 83.257133 173.596612 
L 83.582113 168.54049 
L 83.907093 165.746306 
L 84.232072 168.407426 
L 84.557052 166.54465 
L 85.207011 162.020734 
L 85.53199 156.964612 
L 85.85697 157.762936 
L 86.181949 159.492668 
L 86.506929 158.694344 
L 86.831908 160.55712 
L 87.156888 155.767096 
L 87.481867 159.359624 
L 87.806847 154.303492 
L 88.131826 158.295172 
L 88.781785 153.23904 
L 89.106765 156.299332 
L 89.431744 153.505148 
L 89.756724 148.315962 
L 90.081704 145.787906 
L 90.406683 148.981242 
L 91.056642 146.320122 
L 91.381622 147.91679 
L 92.35656 140.465656 
L 92.68154 141.92928 
L 93.006519 140.997892 
L 93.331499 139.401204 
L 93.656478 139.002052 
L 93.981458 136.473976 
L 94.631417 134.212028 
L 94.956396 136.340932 
L 95.281376 133.147576 
L 95.606355 134.877308 
L 95.931335 135.808696 
L 96.256314 132.61536 
L 96.581294 136.60704 
L 96.906274 133.014532 
L 97.231253 131.018692 
L 97.556233 131.151756 
L 97.881212 128.224508 
L 98.206192 129.28896 
L 98.531171 131.2848 
L 98.856151 127.160076 
L 99.18113 127.160076 
L 99.50611 126.494796 
L 99.831089 125.031172 
L 100.156069 124.232828 
L 100.481048 128.091464 
L 100.806028 126.361732 
L 101.131007 123.30144 
L 101.455987 125.829496 
L 101.780966 124.498936 
L 102.105946 122.63616 
L 102.430925 121.438644 
L 102.755905 124.099784 
L 103.080885 120.374212 
L 103.405864 124.099784 
L 103.730844 122.103924 
L 104.055823 121.3056 
L 104.380803 121.438644 
L 104.705782 122.902268 
L 105.030762 120.773364 
L 105.355741 120.906428 
L 105.680721 119.708932 
L 106.0057 119.708932 
L 106.33068 118.777524 
L 106.655659 118.64448 
L 106.980639 117.580028 
L 107.305618 114.785864 
L 107.630598 115.98336 
L 107.955577 116.64864 
L 108.280557 114.785864 
L 108.605536 114.918928 
L 108.930516 115.31808 
L 109.255495 112.390852 
L 109.905455 117.31392 
L 110.230434 112.257788 
L 110.555414 116.64864 
L 110.880393 113.98752 
L 111.205373 115.584188 
L 111.530352 116.382532 
L 111.855332 113.189196 
L 112.180311 113.721412 
L 112.505291 114.519756 
L 112.83027 115.850296 
L 113.15525 112.790024 
L 113.480229 112.124744 
L 113.805209 113.455304 
L 114.130188 112.923068 
L 114.455168 110.927228 
L 114.780147 114.386692 
L 115.105127 114.6528 
L 115.430106 112.523916 
L 115.755086 112.790024 
L 116.080066 108.798344 
L 116.405045 109.463624 
L 116.730025 108.133064 
L 117.055004 106.137204 
L 117.379984 111.193356 
L 117.704963 112.124744 
L 118.029943 110.528076 
L 118.354922 112.790024 
L 118.679902 109.463624 
L 119.004881 108.798344 
L 119.65484 105.604988 
L 119.97982 106.270268 
L 120.304799 105.871096 
L 120.629779 106.66944 
L 120.954758 104.407492 
L 121.279738 104.407492 
L 121.929697 106.66944 
L 122.254676 105.205816 
L 122.579656 104.939708 
L 122.904636 103.742212 
L 123.229615 104.407492 
L 123.554595 104.6736 
L 123.879574 102.810804 
L 124.204554 102.810804 
L 124.529533 101.480244 
L 124.854513 100.814964 
L 125.179492 102.01248 
L 125.504472 101.879416 
L 125.829451 99.484424 
L 126.154431 102.943868 
L 126.47941 102.01248 
L 126.80439 103.875256 
L 127.129369 100.282748 
L 127.454349 103.476084 
L 127.779328 100.282748 
L 128.104308 102.145524 
L 128.429287 101.480244 
L 128.754267 103.209976 
L 129.079247 102.67776 
L 129.404226 103.609148 
L 130.379165 101.3472 
L 130.704144 102.544696 
L 131.029124 100.282748 
L 131.354103 102.67776 
L 132.004062 98.153864 
L 132.329042 97.887756 
L 132.654021 98.553036 
L 132.979001 101.879416 
L 133.30398 100.548856 
L 133.62896 96.02496 
L 133.953939 100.948028 
L 134.278919 97.089412 
L 134.603898 98.153864 
L 134.928878 98.419972 
L 135.253857 99.484424 
L 135.578837 97.222476 
L 135.903817 98.286928 
L 136.228796 101.3472 
L 136.553776 98.68608 
L 136.878755 94.960508 
L 137.203735 97.35552 
L 137.528714 96.424132 
L 138.178673 98.819144 
L 138.503653 98.68608 
L 138.828632 96.956368 
L 139.153612 101.214136 
L 139.478591 101.081072 
L 139.803571 100.01664 
L 140.12855 102.411632 
L 140.45353 101.480244 
L 140.778509 101.480244 
L 141.103489 97.35552 
L 141.428468 98.0208 
L 141.753448 97.488584 
L 142.078428 100.01664 
L 142.403407 97.488584 
L 142.728387 101.480244 
L 143.053366 98.553036 
L 143.378346 98.0208 
L 143.703325 96.956368 
L 144.028305 98.553036 
L 144.353284 93.36384 
L 144.678264 96.02496 
L 145.328223 96.69024 
L 145.653202 98.0208 
L 145.978182 94.960508 
L 146.303161 95.226636 
L 146.628141 93.36384 
L 146.95312 92.964668 
L 147.2781 98.0208 
L 147.603079 92.166344 
L 147.928059 92.565496 
L 148.253038 93.896076 
L 148.902998 90.03744 
L 149.552957 92.166344 
L 149.877936 92.432452 
L 150.202916 95.758852 
L 150.527895 93.763012 
L 150.852875 93.230796 
L 151.177854 91.767172 
L 151.502834 91.634108 
L 152.152793 88.307708 
L 152.477772 89.106052 
L 152.802752 88.573816 
L 153.127731 92.432452 
L 153.452711 90.436612 
L 153.77769 91.501064 
L 154.10267 89.505204 
L 154.427649 90.968828 
L 154.752629 89.771332 
L 155.077609 93.097732 
L 155.402588 87.908536 
L 155.727568 91.501064 
L 156.052547 92.69856 
L 156.702506 90.303548 
L 157.352465 89.771332 
L 157.677445 88.307708 
L 158.002424 89.904376 
L 158.327404 87.642428 
L 158.652383 87.775492 
L 158.977363 89.239096 
L 159.302342 91.368 
L 159.627322 88.573816 
L 159.952301 90.70272 
L 160.277281 90.70272 
L 160.60226 90.03744 
L 160.92724 90.835784 
L 161.252219 93.230796 
L 161.902179 94.162184 
L 162.227158 94.960508 
L 162.552138 93.097732 
L 162.877117 92.565496 
L 163.202097 91.368 
L 163.527076 88.839924 
L 163.852056 89.106052 
L 164.177035 90.303548 
L 164.502015 90.170504 
L 164.826994 90.835784 
L 165.151974 88.839924 
L 165.476953 90.303548 
L 165.801933 89.638268 
L 166.126912 88.174644 
L 166.451892 88.839924 
L 166.776871 87.642428 
L 167.42683 91.767172 
L 167.75181 91.101892 
L 168.07679 89.904376 
L 168.401769 86.444932 
L 169.051728 89.106052 
L 169.376708 88.0416 
L 169.701687 86.577976 
L 170.026667 87.110212 
L 170.351646 87.110212 
L 170.676626 86.577976 
L 171.001605 86.844084 
L 171.326585 87.775492 
L 171.651564 90.835784 
L 171.976544 88.174644 
L 172.301523 87.908536 
L 172.626503 86.977148 
L 172.951482 88.573816 
L 173.276462 88.70688 
L 173.601441 88.0416 
L 173.926421 85.779632 
L 174.2514 85.513524 
L 174.57638 85.779632 
L 174.90136 86.444932 
L 175.226339 84.7152 
L 175.551319 86.977148 
L 175.876298 86.844084 
L 176.201278 82.852424 
L 176.526257 84.582136 
L 176.851237 84.582136 
L 177.176216 85.779632 
L 177.501196 84.848244 
L 177.826175 87.243256 
L 178.151155 84.449072 
L 178.476134 84.7152 
L 178.801114 87.110212 
L 179.451073 86.71104 
L 179.776052 85.114352 
L 180.426011 83.251576 
L 181.075971 86.577976 
L 181.40095 84.981308 
L 182.050909 83.517704 
L 182.375889 84.7152 
L 182.700868 83.783812 
L 183.025848 83.783812 
L 183.350827 83.916856 
L 183.675807 85.114352 
L 184.000786 87.509364 
L 184.325766 84.848244 
L 184.650745 86.844084 
L 184.975725 85.38048 
L 185.300704 86.71104 
L 185.625684 85.779632 
L 185.950663 82.320188 
L 186.275643 83.517704 
L 186.600622 85.646588 
L 186.925602 85.912696 
L 187.575561 83.517704 
L 187.900541 83.650748 
L 188.22552 82.453252 
L 188.5505 82.453252 
L 189.200459 84.182964 
L 189.525438 83.517704 
L 189.850418 83.517704 
L 190.500377 80.457412 
L 190.825356 81.921036 
L 191.150336 81.921036 
L 191.800295 78.993788 
L 192.125274 80.05824 
L 192.450254 82.05408 
L 192.775233 81.787972 
L 193.100213 82.453252 
L 193.425192 82.05408 
L 193.750172 81.3888 
L 194.075152 82.985468 
L 194.400131 82.05408 
L 194.725111 83.517704 
L 195.05009 83.783812 
L 195.37507 83.650748 
L 195.700049 84.848244 
L 196.025029 83.783812 
L 196.350008 83.118532 
L 196.674988 83.118532 
L 196.999967 82.985468 
L 197.324947 82.71936 
L 197.649926 84.582136 
L 197.974906 82.05408 
L 198.299885 83.650748 
L 198.624865 81.3888 
L 198.949844 82.985468 
L 199.274824 81.3888 
L 199.599803 81.521864 
L 199.924783 82.852424 
L 200.249762 82.05408 
L 200.574742 80.457412 
L 200.899722 80.324368 
L 201.224701 80.72352 
L 201.549681 80.856584 
L 201.87466 81.787972 
L 202.19964 83.251576 
L 202.524619 82.187144 
L 202.849599 82.05408 
L 203.174578 84.316028 
L 203.499558 83.118532 
L 203.824537 79.925196 
L 204.149517 81.921036 
L 204.474496 81.122692 
L 204.799476 81.521864 
L 205.124455 82.985468 
L 205.449435 81.787972 
L 205.774414 81.654928 
L 206.099394 81.787972 
L 206.424373 81.787972 
L 206.749353 80.590476 
L 207.074333 83.650748 
L 207.724292 79.259916 
L 208.049271 80.72352 
L 208.374251 78.461572 
L 208.69923 77.131012 
L 209.02421 79.659068 
L 209.349189 78.993788 
L 209.674169 79.792132 
L 209.999148 79.925196 
L 210.324128 79.925196 
L 210.649107 80.05824 
L 210.974087 77.264076 
L 211.299066 77.929356 
L 211.624046 76.864904 
L 211.949025 77.264076 
L 212.274005 76.199624 
L 212.598984 78.860744 
L 212.923964 78.993788 
L 213.248943 80.457412 
L 213.898903 79.259916 
L 214.223882 76.465732 
L 214.548862 76.997948 
L 214.873841 78.0624 
L 215.198821 78.328508 
L 215.5238 78.860744 
L 215.84878 78.993788 
L 216.173759 79.925196 
L 216.498739 79.39296 
L 216.823718 80.989648 
L 217.148698 78.860744 
L 217.473677 79.39296 
L 217.798657 77.929356 
L 218.123636 80.856584 
L 218.448616 79.39296 
L 218.773595 80.191304 
L 219.098575 79.925196 
L 219.748534 81.521864 
L 220.073514 79.659068 
L 220.398493 81.3888 
L 220.723473 80.72352 
L 221.048452 81.921036 
L 221.698411 81.921036 
L 222.023391 80.457412 
L 222.34837 80.856584 
L 222.67335 79.792132 
L 222.998329 79.259916 
L 223.323309 81.3888 
L 223.648288 79.126852 
L 223.973268 79.659068 
L 224.623227 77.264076 
L 224.948206 76.598796 
L 225.273186 77.530184 
L 225.598165 78.0624 
L 225.923145 77.530184 
L 226.248124 77.39712 
L 226.573104 77.39712 
L 226.898084 76.73184 
L 227.223063 77.39712 
L 227.548043 78.461572 
L 227.873022 78.72768 
L 228.198002 77.663228 
L 228.522981 77.796292 
L 228.847961 76.199624 
L 229.17294 76.332668 
L 230.147879 78.461572 
L 230.472858 76.199624 
L 230.797838 78.860744 
L 231.122817 77.796292 
L 231.447797 78.0624 
L 231.772776 77.39712 
L 232.097756 78.860744 
L 232.422735 77.929356 
L 232.747715 78.461572 
L 233.072695 78.461572 
L 233.397674 78.993788 
L 233.722654 78.860744 
L 234.372613 80.191304 
L 234.697592 80.324368 
L 235.022572 80.856584 
L 235.347551 78.195464 
L 235.672531 77.530184 
L 235.99751 78.0624 
L 236.32249 78.195464 
L 236.647469 79.792132 
L 236.972449 78.328508 
L 237.297428 78.328508 
L 237.622408 77.39712 
L 237.947387 77.131012 
L 238.272367 78.328508 
L 238.597346 78.461572 
L 238.922326 75.800452 
L 239.247305 77.530184 
L 239.572285 77.663228 
L 239.897265 75.667388 
L 240.222244 76.199624 
L 240.547224 75.667388 
L 240.872203 77.796292 
L 241.197183 76.598796 
L 241.522162 77.39712 
L 241.847142 76.864904 
L 242.172121 77.264076 
L 242.497101 78.328508 
L 242.82208 77.264076 
L 243.14706 77.530184 
L 243.472039 76.73184 
L 243.797019 77.663228 
L 244.121998 75.135172 
L 244.446978 77.796292 
L 244.771957 77.264076 
L 245.096937 79.39296 
L 245.421916 79.526024 
L 245.746896 79.126852 
L 246.071876 78.195464 
L 246.396855 78.195464 
L 246.721835 77.264076 
L 247.046814 77.39712 
L 247.696773 76.332668 
L 248.021753 76.465732 
L 248.346732 76.06656 
L 248.996691 78.993788 
L 249.321671 78.195464 
L 249.64665 78.195464 
L 249.97163 78.993788 
L 250.296609 76.06656 
L 250.621589 76.199624 
L 250.946568 76.864904 
L 251.271548 78.195464 
L 251.596527 77.530184 
L 251.921507 75.40128 
L 252.246486 75.268216 
L 252.571466 74.07072 
L 252.896446 76.199624 
L 253.221425 75.002108 
L 253.546405 74.736 
L 254.196364 73.804612 
L 254.521343 75.268216 
L 254.846323 73.538504 
L 255.171302 74.469892 
L 255.496282 73.40544 
L 255.821261 73.804612 
L 256.146241 73.671548 
L 256.47122 74.203784 
L 257.121179 76.332668 
L 257.446159 78.72768 
L 257.771138 76.598796 
L 258.096118 76.06656 
L 258.421097 76.997948 
L 258.746077 77.131012 
L 259.071057 78.461572 
L 259.396036 78.461572 
L 259.721016 78.860744 
L 260.370975 77.264076 
L 260.695954 77.39712 
L 261.020934 77.264076 
L 261.345913 76.465732 
L 261.670893 77.39712 
L 261.995872 78.860744 
L 262.320852 78.0624 
L 262.645831 78.0624 
L 262.970811 78.461572 
L 263.29579 75.933496 
L 263.62077 76.864904 
L 263.945749 77.264076 
L 264.270729 76.997948 
L 264.595708 76.199624 
L 264.920688 75.800452 
L 265.245667 77.39712 
L 265.570647 77.663228 
L 265.895627 76.73184 
L 266.220606 78.195464 
L 266.545586 75.667388 
L 266.870565 77.663228 
L 267.195545 76.199624 
L 267.520524 75.40128 
L 267.845504 76.598796 
L 268.170483 76.997948 
L 268.495463 76.73184 
L 268.820442 74.736 
L 269.145422 76.997948 
L 269.470401 76.332668 
L 269.795381 74.07072 
L 270.12036 74.336828 
L 270.44534 76.332668 
L 270.770319 76.997948 
L 271.095299 76.332668 
L 271.745258 75.800452 
L 272.070238 75.268216 
L 272.720197 77.530184 
L 273.045176 77.264076 
L 273.370156 77.39712 
L 273.695135 77.929356 
L 274.020115 78.195464 
L 274.345094 75.002108 
L 274.670074 76.199624 
L 274.995053 75.667388 
L 275.320033 74.336828 
L 275.645012 73.804612 
L 275.969992 73.671548 
L 276.294971 76.06656 
L 276.94493 72.340988 
L 277.594889 74.869064 
L 277.919869 74.602936 
L 278.569828 73.40544 
L 278.894808 73.671548 
L 279.544767 76.06656 
L 279.869746 76.332668 
L 280.194726 75.135172 
L 280.844685 75.135172 
L 281.169664 74.602936 
L 281.494644 75.268216 
L 281.819623 74.469892 
L 282.144603 75.002108 
L 282.469582 75.002108 
L 282.794562 73.40544 
L 283.119541 72.873204 
L 283.444521 74.203784 
L 283.7695 74.736 
L 284.09448 73.671548 
L 284.419459 74.869064 
L 284.744439 75.268216 
L 285.069419 74.469892 
L 285.394398 75.002108 
L 285.719378 73.272376 
L 286.044357 74.203784 
L 286.369337 76.465732 
L 286.694316 76.73184 
L 287.019296 75.800452 
L 287.344275 75.40128 
L 287.669255 75.534344 
L 287.994234 73.804612 
L 288.319214 71.143492 
L 288.644193 73.671548 
L 288.969173 74.336828 
L 289.294152 74.203784 
L 289.619132 75.135172 
L 289.944111 74.336828 
L 290.269091 74.336828 
L 290.59407 72.873204 
L 290.91905 73.139332 
L 291.244029 73.671548 
L 291.569009 73.139332 
L 292.218968 73.139332 
L 292.543948 73.804612 
L 292.868927 75.40128 
L 293.193907 75.40128 
L 293.518886 74.602936 
L 293.843866 75.002108 
L 294.168845 72.74016 
L 294.493825 73.139332 
L 294.818804 73.937656 
L 295.143784 74.07072 
L 295.468763 73.40544 
L 295.793743 74.469892 
L 296.118722 73.538504 
L 296.443702 73.139332 
L 296.768681 73.139332 
L 297.093661 74.336828 
L 297.41864 72.607096 
L 297.74362 71.542644 
L 298.0686 71.4096 
L 298.393579 71.675708 
L 298.718559 72.607096 
L 299.043538 70.611256 
L 299.368518 71.808772 
L 299.693497 70.74432 
L 300.018477 72.607096 
L 300.343456 72.340988 
L 300.668436 73.937656 
L 300.993415 74.602936 
L 301.318395 73.804612 
L 301.643374 72.474052 
L 301.968354 73.804612 
L 302.293333 72.207924 
L 302.618313 71.808772 
L 303.268272 74.736 
L 303.593251 72.340988 
L 303.918231 74.07072 
L 304.24321 72.340988 
L 304.56819 72.340988 
L 304.89317 73.006268 
L 305.218149 70.07904 
L 305.868108 71.276536 
L 306.193088 70.212084 
L 306.518067 72.340988 
L 306.843047 73.006268 
L 307.168026 72.07488 
L 307.493006 72.607096 
L 307.817985 69.41376 
L 308.142965 71.542644 
L 308.467944 71.010428 
L 308.792924 71.941816 
L 309.117903 71.010428 
L 309.442883 70.478212 
L 309.767862 71.010428 
L 310.092842 72.474052 
L 310.417821 69.41376 
L 310.742801 69.812932 
L 311.067781 70.478212 
L 311.39276 70.611256 
L 311.71774 70.877364 
L 312.042719 71.808772 
L 312.367699 69.812932 
L 312.692678 70.478212 
L 313.017658 70.212084 
L 313.342637 70.74432 
L 313.667617 71.675708 
L 313.992596 72.207924 
L 314.317576 69.679868 
L 314.642555 70.74432 
L 314.967535 70.345148 
L 315.617494 71.276536 
L 315.942473 70.07904 
L 316.267453 71.808772 
L 316.592432 71.4096 
L 317.242391 69.546804 
L 317.567371 69.945976 
L 317.892351 70.07904 
L 318.21733 71.675708 
L 318.54231 71.542644 
L 318.867289 72.474052 
L 319.192269 72.340988 
L 319.517248 73.006268 
L 319.842228 71.143492 
L 320.167207 71.941816 
L 320.492187 69.812932 
L 320.817166 69.546804 
L 321.142146 70.345148 
L 321.467125 70.611256 
L 321.792105 71.4096 
L 322.117084 71.542644 
L 322.442064 71.143492 
L 322.767043 70.478212 
L 323.092023 71.808772 
L 323.417002 70.74432 
L 323.741982 71.143492 
L 324.066962 71.143492 
L 324.716921 70.877364 
L 325.0419 70.478212 
L 325.36688 71.941816 
L 325.691859 71.010428 
L 326.016839 73.006268 
L 326.341818 72.74016 
L 326.666798 71.808772 
L 326.991777 70.07904 
L 327.316757 70.212084 
L 327.641736 69.147632 
L 327.966716 70.212084 
L 328.291695 69.280696 
L 328.616675 69.945976 
L 328.941654 68.74848 
L 329.591613 71.4096 
L 329.916593 69.41376 
L 330.241572 69.41376 
L 330.566552 68.216244 
L 330.891532 67.550964 
L 331.216511 67.550964 
L 331.541491 68.881524 
L 331.86647 66.619576 
L 332.19145 67.817072 
L 332.841409 67.817072 
L 333.166388 67.41792 
L 333.491368 68.0832 
L 333.816347 67.018748 
L 334.141327 68.74848 
L 334.466306 69.280696 
L 334.791286 70.74432 
L 335.441245 68.0832 
L 335.766224 68.615416 
L 336.091204 67.684028 
L 336.416183 69.280696 
L 337.066143 67.284856 
L 337.716102 68.482352 
L 338.041081 68.0832 
L 338.366061 69.812932 
L 338.69104 67.950136 
L 339.01602 69.945976 
L 339.340999 70.877364 
L 339.665979 70.345148 
L 339.990958 71.010428 
L 340.315938 69.812932 
L 340.640917 67.817072 
L 340.965897 70.478212 
L 341.290876 69.812932 
L 341.615856 71.143492 
L 341.940835 69.945976 
L 342.265815 70.345148 
L 342.590794 69.014588 
L 342.915774 68.881524 
L 343.565733 69.679868 
L 343.890713 70.877364 
L 344.215692 70.212084 
L 344.540672 70.345148 
L 344.865651 69.280696 
L 345.190631 69.014588 
L 345.51561 67.550964 
L 346.490549 69.679868 
L 346.815528 70.478212 
L 347.140508 68.0832 
L 347.465487 69.280696 
L 347.790467 69.41376 
L 348.115446 69.945976 
L 348.440426 68.216244 
L 348.765405 69.679868 
L 349.090385 68.615416 
L 349.415364 69.147632 
L 349.740344 68.482352 
L 350.065324 70.07904 
L 350.390303 69.945976 
L 350.715283 68.615416 
L 351.040262 67.817072 
L 351.365242 69.147632 
L 351.690221 68.615416 
L 352.015201 66.353468 
L 352.34018 68.349308 
L 352.66516 68.216244 
L 353.315119 69.280696 
L 353.640098 67.817072 
L 353.965078 70.07904 
L 354.290057 69.945976 
L 354.615037 69.147632 
L 355.264996 70.611256 
L 355.589975 69.679868 
L 355.914955 70.212084 
L 356.239934 71.4096 
L 356.564914 69.945976 
L 356.889894 70.478212 
L 357.214873 68.349308 
L 357.539853 69.945976 
L 357.864832 70.611256 
L 358.189812 69.280696 
L 358.514791 69.546804 
L 358.839771 68.482352 
L 359.16475 68.881524 
L 359.814709 70.212084 
L 360.139689 70.07904 
L 360.464668 68.349308 
L 360.789648 67.41792 
L 361.114627 66.885704 
L 361.439607 67.550964 
L 362.414545 67.950136 
L 362.739525 67.950136 
L 363.064505 66.75264 
L 363.389484 67.950136 
L 363.714464 68.615416 
L 364.039443 67.284856 
L 364.364423 69.147632 
L 365.014382 65.954296 
L 365.339361 66.486532 
L 365.664341 66.75264 
L 365.98932 65.821252 
L 366.3143 67.284856 
L 366.639279 67.950136 
L 366.964259 67.950136 
L 367.289238 67.817072 
L 367.614218 68.74848 
L 367.939197 68.216244 
L 368.264177 69.147632 
L 368.589156 68.74848 
L 368.914136 69.41376 
L 369.239115 70.611256 
L 369.564095 70.212084 
L 369.889075 70.345148 
L 370.214054 70.212084 
L 370.539034 68.349308 
L 370.864013 68.74848 
L 371.188993 68.0832 
L 371.513972 68.216244 
L 371.838952 68.881524 
L 372.163931 69.147632 
L 372.488911 67.284856 
L 372.81389 67.950136 
L 373.13887 67.41792 
L 373.463849 68.349308 
L 374.113808 71.4096 
L 374.438788 71.542644 
L 374.763767 69.014588 
L 375.088747 68.349308 
L 375.413726 68.0832 
L 375.738706 66.353468 
L 376.063686 67.284856 
L 376.388665 67.41792 
L 376.713645 66.75264 
L 377.038624 67.950136 
L 377.363604 67.284856 
L 377.688583 69.945976 
L 378.013563 70.07904 
L 378.338542 69.546804 
L 378.988501 66.75264 
L 379.313481 67.550964 
L 379.63846 67.284856 
L 379.96344 67.284856 
L 380.288419 67.817072 
L 380.613399 68.0832 
L 380.938378 67.151812 
L 381.263358 67.950136 
L 381.588337 67.550964 
L 381.913317 67.550964 
L 382.238296 67.817072 
L 382.563276 67.018748 
L 382.888256 68.881524 
L 383.213235 67.684028 
L 383.538215 67.018748 
L 384.188174 68.74848 
L 384.513153 68.74848 
L 384.838133 68.615416 
L 385.163112 68.881524 
L 385.488092 67.018748 
L 385.813071 67.817072 
L 386.138051 68.216244 
L 386.46303 68.349308 
L 386.78801 69.280696 
L 387.112989 69.280696 
L 387.437969 68.482352 
L 388.087928 65.954296 
L 388.412907 67.151812 
L 388.737887 67.018748 
L 389.062867 65.42208 
L 389.387846 66.75264 
L 389.712826 65.954296 
L 390.037805 65.555144 
L 390.362785 65.555144 
L 390.687764 66.220424 
L 391.012744 67.284856 
L 391.337723 66.353468 
L 391.662703 65.954296 
L 391.987682 67.41792 
L 392.312662 64.889864 
L 392.637641 67.284856 
L 392.962621 67.018748 
L 393.2876 65.954296 
L 393.61258 63.958476 
L 393.937559 65.821252 
L 394.262539 64.224584 
L 394.587518 66.08736 
L 394.912498 65.022928 
L 395.237477 65.954296 
L 395.562457 68.0832 
L 395.887437 67.018748 
L 396.212416 67.41792 
L 396.537396 66.885704 
L 396.862375 67.151812 
L 397.187355 65.821252 
L 397.512334 66.08736 
L 397.837314 65.688188 
L 398.162293 67.950136 
L 398.487273 66.619576 
L 398.487273 66.619576 
" style="fill:none;stroke:#1f77b4;stroke-linecap:square;stroke-width:1.5;"/>
   </g>
   <g id="line2d_13">
    <path clip-path="url(#pe078d61eb3)" d="M 73.832727 279.243073 
L 74.157707 280.041407 
L 74.482686 282.569473 
L 75.132645 277.6464 
L 75.457625 286.827263 
L 75.782604 281.90419 
L 76.107584 280.30752 
L 76.432563 280.706687 
L 76.757543 280.573633 
L 77.082523 194.087238 
L 77.407502 207.658946 
L 77.732482 207.12672 
L 78.057461 194.885572 
L 78.382441 195.15168 
L 78.70742 191.293054 
L 79.0324 189.82944 
L 79.682359 178.120518 
L 80.007338 174.661054 
L 80.332318 168.673534 
L 80.657297 167.076866 
L 80.982277 164.814918 
L 81.307256 161.754626 
L 81.632236 162.286852 
L 81.957215 156.432376 
L 82.282195 152.839878 
L 82.607174 147.91679 
L 82.932154 147.783746 
L 83.257133 150.444866 
L 83.582113 145.787906 
L 83.907093 143.392904 
L 84.232072 144.058184 
L 84.557052 145.25568 
L 85.207011 140.332612 
L 85.53199 139.534268 
L 85.85697 137.538428 
L 86.181949 138.868988 
L 86.831908 133.679812 
L 87.156888 138.735924 
L 88.131826 129.688132 
L 88.456806 129.95424 
L 89.106765 123.035332 
L 89.431744 124.099784 
L 89.756724 123.168376 
L 90.081704 123.700612 
L 90.731663 123.434504 
L 91.056642 125.96256 
L 91.381622 125.96256 
L 91.706601 127.160076 
L 92.031581 126.095624 
L 92.35656 126.228668 
L 92.68154 121.97088 
L 93.006519 122.370052 
L 93.331499 122.236988 
L 94.306437 115.051972 
L 94.631417 114.6528 
L 94.956396 113.854476 
L 95.606355 108.532216 
L 95.931335 109.064452 
L 96.256314 110.66112 
L 96.581294 110.66112 
L 96.906274 110.927228 
L 97.231253 110.261948 
L 97.556233 110.395012 
L 97.881212 112.523916 
L 98.531171 110.528076 
L 98.856151 110.128904 
L 99.50611 108.532216 
L 99.831089 108.66528 
L 100.156069 109.064452 
L 100.481048 107.733892 
L 100.806028 105.604988 
L 101.131007 105.471924 
L 101.455987 104.6736 
L 101.780966 104.407492 
L 102.105946 103.209976 
L 102.430925 103.476084 
L 102.755905 104.00832 
L 103.730844 100.814964 
L 104.055823 101.214136 
L 104.380803 99.35136 
L 104.705782 98.819144 
L 105.030762 99.617468 
L 105.355741 98.952188 
L 105.680721 99.617468 
L 106.0057 102.01248 
L 106.33068 101.480244 
L 106.655659 100.68192 
L 106.980639 100.68192 
L 107.305618 98.153864 
L 107.630598 99.617468 
L 107.955577 99.617468 
L 108.280557 98.553036 
L 108.605536 100.01664 
L 108.930516 99.883576 
L 110.230434 95.35968 
L 110.555414 95.625788 
L 110.880393 95.35968 
L 111.530352 95.758852 
L 112.180311 94.428292 
L 112.505291 94.827464 
L 112.83027 94.295228 
L 113.15525 93.496904 
L 113.805209 94.02912 
L 114.455168 90.968828 
L 114.780147 90.569656 
L 115.105127 90.835784 
L 115.430106 90.436612 
L 116.080066 90.170504 
L 116.405045 90.436612 
L 116.730025 90.436612 
L 117.055004 89.239096 
L 117.379984 88.839924 
L 117.704963 89.106052 
L 118.354922 86.577976 
L 118.679902 86.04576 
L 119.004881 86.178804 
L 119.329861 86.577976 
L 119.65484 85.912696 
L 119.97982 86.178804 
L 120.304799 85.779632 
L 121.279738 88.70688 
L 121.604717 88.440772 
L 122.254676 90.436612 
L 122.904636 90.170504 
L 123.554595 89.239096 
L 123.879574 90.70272 
L 124.204554 90.303548 
L 124.529533 89.37216 
L 124.854513 89.106052 
L 125.179492 88.440772 
L 125.504472 88.440772 
L 125.829451 88.0416 
L 126.154431 87.37632 
L 126.80439 88.573816 
L 127.129369 88.70688 
L 127.779328 86.844084 
L 128.104308 86.977148 
L 128.429287 87.908536 
L 129.079247 85.779632 
L 129.404226 86.444932 
L 129.729206 85.646588 
L 130.054185 85.247416 
L 130.379165 85.247416 
L 131.029124 83.38464 
L 132.004062 81.122692 
L 132.654021 82.453252 
L 133.30398 81.3888 
L 133.62896 81.122692 
L 133.953939 81.521864 
L 134.278919 81.654928 
L 134.928878 80.191304 
L 135.578837 80.989648 
L 136.228796 80.590476 
L 136.553776 79.792132 
L 136.878755 79.792132 
L 137.528714 79.526024 
L 137.853694 79.126852 
L 138.178673 79.526024 
L 139.153612 77.663228 
L 139.478591 78.72768 
L 139.803571 78.461572 
L 140.12855 77.663228 
L 140.45353 78.860744 
L 140.778509 78.594636 
L 141.753448 80.72352 
L 142.078428 79.526024 
L 142.728387 80.05824 
L 143.053366 80.72352 
L 143.703325 78.860744 
L 144.028305 79.259916 
L 144.353284 80.457412 
L 144.678264 80.590476 
L 145.003243 80.05824 
L 145.328223 79.792132 
L 145.653202 78.594636 
L 145.978182 78.594636 
L 146.303161 78.328508 
L 146.628141 79.259916 
L 146.95312 78.195464 
L 147.603079 78.461572 
L 147.928059 79.259916 
L 148.253038 79.259916 
L 148.578018 79.792132 
L 148.902998 79.126852 
L 149.227977 79.39296 
L 149.552957 80.05824 
L 149.877936 79.925196 
L 150.202916 79.526024 
L 150.852875 80.191304 
L 151.177854 79.526024 
L 151.502834 79.659068 
L 151.827813 79.526024 
L 152.152793 79.659068 
L 152.477772 80.05824 
L 152.802752 79.925196 
L 153.127731 79.526024 
L 153.77769 77.39712 
L 154.10267 77.796292 
L 154.427649 78.461572 
L 154.752629 78.0624 
L 155.077609 78.195464 
L 155.402588 78.461572 
L 155.727568 78.328508 
L 156.052547 77.796292 
L 156.702506 76.465732 
L 157.352465 75.534344 
L 157.677445 76.06656 
L 158.327404 75.667388 
L 158.977363 75.933496 
L 159.302342 76.199624 
L 159.627322 76.199624 
L 160.277281 77.131012 
L 160.60226 76.06656 
L 160.92724 76.73184 
L 161.252219 76.332668 
L 161.577199 76.199624 
L 161.902179 76.465732 
L 162.227158 76.332668 
L 162.552138 75.667388 
L 162.877117 75.933496 
L 163.202097 76.465732 
L 163.527076 76.465732 
L 164.177035 76.73184 
L 164.502015 76.199624 
L 165.151974 75.933496 
L 165.801933 75.135172 
L 166.126912 75.135172 
L 166.451892 74.869064 
L 166.776871 73.937656 
L 167.75181 72.74016 
L 168.07679 72.74016 
L 168.726749 71.808772 
L 169.051728 71.4096 
L 170.026667 71.4096 
L 170.351646 71.276536 
L 171.001605 71.542644 
L 171.326585 71.010428 
L 171.976544 70.74432 
L 172.301523 70.877364 
L 172.626503 70.611256 
L 172.951482 71.4096 
L 173.276462 73.006268 
L 173.601441 73.40544 
L 173.926421 74.336828 
L 174.2514 74.736 
L 174.57638 74.869064 
L 174.90136 75.933496 
L 175.226339 75.268216 
L 175.551319 75.135172 
L 175.876298 74.07072 
L 176.201278 74.336828 
L 176.526257 75.534344 
L 176.851237 75.268216 
L 177.176216 74.736 
L 177.501196 75.135172 
L 177.826175 74.203784 
L 178.151155 74.469892 
L 178.476134 75.002108 
L 178.801114 73.671548 
L 179.126093 73.671548 
L 179.451073 73.272376 
L 179.776052 73.937656 
L 180.101032 73.272376 
L 180.426011 74.602936 
L 180.750991 74.869064 
L 181.075971 74.469892 
L 181.40095 74.602936 
L 181.72593 74.07072 
L 182.050909 73.272376 
L 182.375889 73.40544 
L 182.700868 73.937656 
L 183.350827 73.272376 
L 183.675807 74.602936 
L 184.325766 73.937656 
L 184.650745 74.736 
L 184.975725 74.602936 
L 185.300704 75.135172 
L 185.625684 75.268216 
L 185.950663 74.736 
L 186.275643 73.272376 
L 186.600622 74.203784 
L 186.925602 73.272376 
L 187.250581 73.272376 
L 187.575561 72.207924 
L 188.22552 73.006268 
L 188.5505 71.808772 
L 189.200459 70.611256 
L 189.525438 70.478212 
L 190.175397 70.478212 
L 190.500377 70.611256 
L 190.825356 70.07904 
L 191.150336 70.478212 
L 191.475315 70.478212 
L 191.800295 70.212084 
L 192.125274 71.542644 
L 192.450254 70.877364 
L 192.775233 70.877364 
L 193.100213 71.276536 
L 193.425192 70.07904 
L 193.750172 70.07904 
L 194.075152 69.945976 
L 194.400131 69.147632 
L 194.725111 69.41376 
L 195.05009 69.41376 
L 195.37507 69.014588 
L 195.700049 68.881524 
L 196.025029 69.41376 
L 196.350008 68.349308 
L 196.674988 68.615416 
L 196.999967 68.349308 
L 197.324947 68.482352 
L 197.649926 68.0832 
L 197.974906 68.0832 
L 198.949844 68.482352 
L 199.274824 68.216244 
L 199.599803 67.684028 
L 199.924783 67.950136 
L 200.249762 67.817072 
L 200.574742 67.950136 
L 200.899722 67.817072 
L 201.549681 68.615416 
L 201.87466 67.817072 
L 202.19964 68.216244 
L 202.524619 67.950136 
L 202.849599 68.615416 
L 203.174578 68.615416 
L 203.499558 68.482352 
L 203.824537 68.881524 
L 204.149517 69.014588 
L 204.474496 68.482352 
L 204.799476 68.881524 
L 205.124455 68.74848 
L 205.449435 68.881524 
L 206.749353 68.881524 
L 207.074333 68.74848 
L 207.724292 68.74848 
L 208.049271 68.615416 
L 208.374251 68.615416 
L 208.69923 67.950136 
L 209.349189 67.550964 
L 210.324128 67.151812 
L 210.974087 67.41792 
L 212.274005 68.349308 
L 212.598984 68.216244 
L 212.923964 68.349308 
L 213.248943 67.950136 
L 213.573923 67.950136 
L 213.898903 68.0832 
L 214.548862 68.482352 
L 214.873841 68.0832 
L 215.198821 67.950136 
L 215.5238 67.41792 
L 215.84878 67.550964 
L 216.173759 67.41792 
L 216.498739 67.018748 
L 216.823718 66.353468 
L 217.148698 66.220424 
L 217.798657 66.220424 
L 218.448616 65.688188 
L 218.773595 66.08736 
L 219.098575 66.08736 
L 219.748534 66.885704 
L 220.073514 66.75264 
L 220.398493 66.75264 
L 220.723473 66.220424 
L 221.698411 69.41376 
L 222.023391 69.546804 
L 222.34837 70.07904 
L 222.67335 70.07904 
L 222.998329 71.010428 
L 223.323309 70.345148 
L 223.648288 70.345148 
L 223.973268 69.812932 
L 224.298247 71.143492 
L 224.623227 71.542644 
L 224.948206 70.74432 
L 225.273186 70.877364 
L 225.598165 70.74432 
L 225.923145 71.4096 
L 226.248124 71.542644 
L 226.573104 70.611256 
L 226.898084 70.478212 
L 227.548043 71.143492 
L 228.198002 70.877364 
L 228.522981 70.478212 
L 228.847961 71.143492 
L 229.49792 71.4096 
L 229.822899 71.675708 
L 230.147879 71.542644 
L 231.122817 69.014588 
L 231.447797 69.280696 
L 231.772776 69.147632 
L 232.097756 68.615416 
L 232.422735 68.349308 
L 232.747715 68.881524 
L 233.072695 68.482352 
L 233.397674 69.014588 
L 233.722654 68.74848 
L 234.047633 68.216244 
L 234.372613 68.349308 
L 235.347551 69.41376 
L 235.672531 68.74848 
L 235.99751 69.41376 
L 236.647469 68.0832 
L 236.972449 67.950136 
L 237.297428 67.950136 
L 237.622408 67.817072 
L 237.947387 67.41792 
L 238.597346 67.41792 
L 238.922326 67.151812 
L 239.572285 67.817072 
L 239.897265 67.817072 
L 240.872203 67.41792 
L 241.197183 67.684028 
L 241.522162 67.284856 
L 241.847142 67.550964 
L 242.172121 67.151812 
L 242.497101 67.151812 
L 242.82208 66.619576 
L 243.14706 66.353468 
L 243.797019 66.75264 
L 244.121998 66.486532 
L 244.771957 66.75264 
L 245.096937 66.75264 
L 245.421916 67.018748 
L 245.746896 67.018748 
L 246.071876 66.75264 
L 246.396855 66.08736 
L 246.721835 66.220424 
L 247.046814 66.08736 
L 247.371794 65.555144 
L 247.696773 65.821252 
L 248.021753 65.688188 
L 248.671712 66.08736 
L 249.321671 66.353468 
L 249.97163 66.08736 
L 250.296609 65.821252 
L 250.621589 66.08736 
L 250.946568 65.688188 
L 251.271548 65.555144 
L 251.596527 65.555144 
L 252.246486 66.220424 
L 252.571466 65.555144 
L 252.896446 65.555144 
L 253.546405 65.155972 
L 253.871384 65.555144 
L 254.521343 64.889864 
L 254.846323 65.022928 
L 255.171302 64.889864 
L 255.821261 63.958476 
L 256.146241 63.958476 
L 256.7962 64.623756 
L 257.121179 64.357648 
L 257.446159 64.7568 
L 258.421097 64.7568 
L 258.746077 65.022928 
L 259.396036 64.357648 
L 260.045995 64.623756 
L 260.370975 64.889864 
L 260.695954 64.7568 
L 261.020934 64.889864 
L 261.345913 64.7568 
L 261.670893 64.7568 
L 261.995872 64.889864 
L 262.320852 64.7568 
L 262.645831 64.357648 
L 263.62077 63.958476 
L 263.945749 63.958476 
L 264.270729 64.09152 
L 264.595708 64.09152 
L 265.245667 63.825412 
L 265.570647 63.958476 
L 265.895627 63.958476 
L 266.870565 63.293196 
L 267.195545 63.160132 
L 267.520524 63.160132 
L 268.170483 63.42624 
L 268.495463 63.160132 
L 268.820442 63.160132 
L 269.145422 63.293196 
L 269.470401 63.160132 
L 270.12036 63.160132 
L 270.44534 63.027068 
L 271.095299 62.228744 
L 271.745258 61.962636 
L 272.070238 62.09568 
L 272.395217 62.09568 
L 273.370156 61.696508 
L 274.020115 61.696508 
L 274.345094 61.563464 
L 274.670074 61.696508 
L 274.995053 61.696508 
L 275.645012 61.164292 
L 275.969992 61.4304 
L 276.294971 61.164292 
L 276.619951 61.164292 
L 276.94493 60.898184 
L 277.26991 60.898184 
L 277.919869 61.164292 
L 278.244848 61.164292 
L 278.569828 61.031228 
L 278.894808 61.164292 
L 279.544767 60.76512 
L 279.869746 60.632076 
L 280.194726 60.632076 
L 280.844685 60.898184 
L 281.494644 60.898184 
L 281.819623 60.76512 
L 282.469582 60.76512 
L 282.794562 60.632076 
L 283.119541 60.76512 
L 283.444521 60.365948 
L 283.7695 60.499012 
L 284.09448 60.365948 
L 285.069419 59.567624 
L 285.394398 59.035388 
L 285.719378 58.902344 
L 287.019296 58.902344 
L 287.344275 59.035388 
L 287.994234 59.700668 
L 288.319214 59.43456 
L 288.969173 59.43456 
L 289.619132 59.035388 
L 290.269091 59.035388 
L 290.91905 59.700668 
L 291.244029 59.43456 
L 291.569009 60.09984 
L 291.893989 61.4304 
L 292.218968 61.696508 
L 292.543948 61.696508 
L 292.868927 62.09568 
L 293.193907 63.160132 
L 293.843866 64.09152 
L 294.168845 64.7568 
L 294.493825 65.155972 
L 294.818804 64.357648 
L 295.143784 64.7568 
L 295.468763 64.490692 
L 295.793743 65.42208 
L 296.118722 64.889864 
L 296.443702 65.555144 
L 297.093661 64.357648 
L 297.41864 64.889864 
L 297.74362 65.688188 
L 298.0686 64.7568 
L 298.393579 64.224584 
L 298.718559 64.7568 
L 299.043538 64.357648 
L 299.368518 64.490692 
L 299.693497 63.825412 
L 300.018477 63.692368 
L 300.668436 63.293196 
L 300.993415 63.559304 
L 301.318395 63.160132 
L 301.643374 63.42624 
L 301.968354 63.958476 
L 302.293333 63.825412 
L 302.943292 64.09152 
L 303.593251 65.022928 
L 303.918231 64.357648 
L 304.24321 65.022928 
L 304.56819 63.692368 
L 304.89317 64.357648 
L 305.218149 63.692368 
L 305.543129 64.357648 
L 305.868108 63.958476 
L 306.193088 63.958476 
L 306.518067 62.894024 
L 306.843047 63.293196 
L 307.168026 63.42624 
L 307.493006 63.692368 
L 307.817985 63.293196 
L 308.142965 63.160132 
L 308.467944 63.559304 
L 308.792924 63.692368 
L 309.117903 63.293196 
L 309.442883 63.160132 
L 309.767862 62.76096 
L 310.092842 62.76096 
L 310.742801 63.160132 
L 311.39276 62.894024 
L 311.71774 62.894024 
L 312.042719 63.027068 
L 312.692678 63.42624 
L 313.017658 63.293196 
L 313.342637 63.559304 
L 313.667617 63.160132 
L 313.992596 63.027068 
L 314.317576 63.160132 
L 314.642555 62.894024 
L 314.967535 63.160132 
L 315.942473 62.361788 
L 316.267453 62.361788 
L 316.592432 61.962636 
L 316.917412 61.829572 
L 317.242391 61.962636 
L 317.567371 62.228744 
L 317.892351 62.76096 
L 318.21733 62.361788 
L 318.54231 62.494852 
L 318.867289 62.494852 
L 319.192269 62.09568 
L 319.517248 62.494852 
L 319.842228 62.494852 
L 320.167207 62.361788 
L 320.492187 62.627916 
L 320.817166 62.627916 
L 321.142146 62.494852 
L 321.467125 63.027068 
L 321.792105 62.361788 
L 322.117084 61.962636 
L 322.442064 62.09568 
L 323.092023 61.4304 
L 324.066962 62.228744 
L 324.391941 62.09568 
L 324.716921 62.09568 
L 325.0419 61.962636 
L 325.36688 62.09568 
L 325.691859 62.09568 
L 326.016839 61.962636 
L 326.666798 61.962636 
L 326.991777 62.76096 
L 327.316757 62.627916 
L 327.966716 62.228744 
L 328.291695 62.228744 
L 328.616675 62.361788 
L 329.266634 61.829572 
L 329.916593 61.829572 
L 330.241572 62.09568 
L 330.566552 61.696508 
L 330.891532 61.696508 
L 331.216511 61.297356 
L 331.541491 61.297356 
L 331.86647 61.4304 
L 332.19145 61.297356 
L 332.841409 61.563464 
L 333.166388 61.4304 
L 333.816347 61.829572 
L 334.141327 61.696508 
L 334.791286 61.696508 
L 335.116265 61.829572 
L 335.441245 61.563464 
L 335.766224 61.563464 
L 336.091204 61.164292 
L 336.416183 61.031228 
L 336.741163 61.031228 
L 337.066143 60.898184 
L 337.391122 61.031228 
L 337.716102 61.031228 
L 338.041081 60.632076 
L 338.366061 60.499012 
L 339.01602 61.164292 
L 339.665979 60.898184 
L 339.990958 60.898184 
L 340.315938 60.632076 
L 340.640917 60.632076 
L 340.965897 60.898184 
L 341.290876 60.365948 
L 341.615856 60.09984 
L 341.940835 60.632076 
L 342.590794 60.898184 
L 342.915774 61.297356 
L 343.240753 61.297356 
L 343.565733 60.898184 
L 344.215692 61.164292 
L 344.540672 61.563464 
L 344.865651 61.164292 
L 345.190631 61.164292 
L 345.51561 61.031228 
L 346.165569 60.632076 
L 346.815528 60.898184 
L 347.140508 60.632076 
L 347.465487 60.898184 
L 348.115446 60.898184 
L 348.440426 60.76512 
L 348.765405 60.365948 
L 349.090385 60.499012 
L 349.415364 60.499012 
L 349.740344 60.632076 
L 350.065324 60.632076 
L 350.715283 60.232904 
L 351.365242 59.966796 
L 351.690221 60.365948 
L 352.015201 59.966796 
L 352.34018 59.966796 
L 352.990139 59.700668 
L 354.290057 59.700668 
L 354.940016 59.43456 
L 355.264996 59.43456 
L 355.589975 59.700668 
L 355.914955 59.700668 
L 356.239934 59.833732 
L 356.564914 60.232904 
L 356.889894 60.365948 
L 357.539853 59.833732 
L 358.514791 59.833732 
L 358.839771 60.09984 
L 359.48973 59.833732 
L 359.814709 59.833732 
L 360.139689 59.700668 
L 360.464668 59.700668 
L 360.789648 60.09984 
L 361.114627 59.833732 
L 361.439607 59.966796 
L 362.089566 59.700668 
L 362.414545 59.43456 
L 362.739525 59.43456 
L 363.064505 59.301496 
L 363.389484 59.301496 
L 363.714464 59.168452 
L 364.039443 58.902344 
L 364.364423 58.902344 
L 364.689402 59.035388 
L 365.014382 58.902344 
L 365.339361 58.902344 
L 365.664341 58.237064 
L 365.98932 58.503172 
L 366.3143 58.503172 
L 366.639279 58.370108 
L 366.964259 58.503172 
L 367.289238 58.503172 
L 367.614218 58.370108 
L 367.939197 58.503172 
L 368.264177 58.370108 
L 369.239115 58.370108 
L 369.564095 58.237064 
L 369.889075 58.237064 
L 370.214054 58.503172 
L 370.539034 58.370108 
L 371.188993 58.370108 
L 371.513972 58.237064 
L 371.838952 58.370108 
L 372.81389 58.370108 
L 373.13887 58.503172 
L 373.463849 58.237064 
L 373.788829 58.237064 
L 374.763767 57.837892 
L 375.088747 57.837892 
L 375.413726 57.970936 
L 376.063686 57.970936 
L 376.388665 57.837892 
L 376.713645 58.104 
L 377.688583 58.104 
L 378.013563 57.970936 
L 378.338542 58.104 
L 378.663522 58.370108 
L 378.988501 58.370108 
L 379.313481 58.237064 
L 380.938378 58.237064 
L 381.263358 58.104 
L 381.588337 58.237064 
L 381.913317 58.237064 
L 382.238296 57.970936 
L 382.563276 57.970936 
L 382.888256 58.370108 
L 383.213235 58.237064 
L 384.513153 58.237064 
L 384.838133 58.370108 
L 385.163112 58.237064 
L 385.488092 58.237064 
L 385.813071 58.370108 
L 386.138051 58.370108 
L 386.46303 58.237064 
L 386.78801 58.237064 
L 387.112989 58.370108 
L 387.762948 58.370108 
L 388.087928 58.237064 
L 389.062867 58.237064 
L 389.387846 58.104 
L 390.037805 58.104 
L 390.362785 58.237064 
L 390.687764 58.237064 
L 391.337723 58.503172 
L 391.662703 58.370108 
L 391.987682 58.503172 
L 392.312662 58.237064 
L 392.637641 58.237064 
L 392.962621 58.104 
L 393.2876 58.237064 
L 393.937559 58.237064 
L 394.262539 58.370108 
L 395.562457 58.370108 
L 395.887437 58.237064 
L 396.537396 58.503172 
L 396.862375 58.370108 
L 397.187355 58.370108 
L 397.512334 59.168452 
L 398.162293 59.567624 
L 398.487273 60.232904 
L 398.487273 60.232904 
" style="fill:none;stroke:#ff7f0e;stroke-linecap:square;stroke-width:1.5;"/>
   </g>
   <g id="line2d_14">
    <path clip-path="url(#pe078d61eb3)" d="M 73.832727 279.110017 
L 74.482686 261.413567 
L 74.807666 255.426047 
L 75.132645 247.176574 
L 77.407502 225.222334 
L 77.732482 224.424 
L 78.057461 225.621506 
L 78.382441 220.698428 
L 78.70742 220.299266 
L 79.0324 218.303426 
L 79.357379 217.7712 
L 79.682359 214.178682 
L 80.007338 214.577854 
L 80.332318 213.77952 
L 80.657297 210.586184 
L 80.982277 209.78784 
L 81.307256 207.792 
L 81.632236 208.45728 
L 81.957215 207.12672 
L 82.282195 207.392828 
L 82.607174 205.396988 
L 82.932154 207.259774 
L 83.582113 203.534212 
L 83.907093 203.401148 
L 84.557052 198.345026 
L 84.882031 199.409468 
L 85.53199 196.48224 
L 85.85697 197.945854 
L 86.181949 195.417788 
L 87.156888 193.288894 
L 87.481867 194.885572 
L 87.806847 195.417788 
L 88.131826 190.627774 
L 88.781785 193.15584 
L 89.106765 190.893892 
L 89.431744 191.692226 
L 89.756724 187.301374 
L 90.081704 186.636094 
L 90.406683 187.966654 
L 90.731663 185.305534 
L 91.056642 186.50304 
L 91.381622 185.438598 
L 91.706601 185.970824 
L 92.031581 182.378306 
L 92.68154 186.236932 
L 93.006519 184.241092 
L 93.331499 184.241092 
L 93.656478 182.644414 
L 93.981458 182.112188 
L 94.306437 179.318014 
L 94.631417 178.120518 
L 94.956396 178.785788 
L 95.606355 175.060226 
L 95.931335 176.656894 
L 96.256314 173.729656 
L 96.581294 176.124678 
L 97.231253 172.132988 
L 97.556233 169.338814 
L 98.206192 170.669374 
L 98.531171 172.798268 
L 98.856151 170.669374 
L 99.18113 171.86688 
L 99.50611 171.999924 
L 99.831089 170.669374 
L 100.156069 168.673534 
L 100.806028 172.53216 
L 101.131007 171.2016 
L 101.455987 166.943802 
L 101.780966 168.274362 
L 102.105946 167.742146 
L 102.430925 167.609082 
L 102.755905 167.076866 
L 103.080885 165.746306 
L 103.405864 163.21824 
L 103.730844 162.686014 
L 104.055823 162.419906 
L 104.380803 162.819068 
L 104.705782 163.617402 
L 105.030762 159.359624 
L 105.355741 161.2224 
L 105.680721 160.55712 
L 106.0057 158.428216 
L 106.33068 163.484358 
L 106.655659 162.153788 
L 106.980639 159.625732 
L 107.305618 160.024904 
L 107.630598 158.428216 
L 107.955577 158.694344 
L 108.280557 156.432376 
L 108.605536 159.359624 
L 108.930516 159.093496 
L 109.255495 159.492668 
L 109.580475 157.496828 
L 109.905455 156.56544 
L 110.230434 157.762936 
L 110.555414 153.771266 
L 110.880393 156.299332 
L 111.530352 153.372094 
L 111.855332 154.303492 
L 112.180311 154.037374 
L 112.505291 155.101816 
L 112.83027 155.367924 
L 113.15525 150.045694 
L 113.480229 150.311802 
L 113.805209 152.307642 
L 114.130188 152.174598 
L 114.455168 150.045694 
L 114.780147 148.715134 
L 115.105127 150.844038 
L 115.755086 147.118466 
L 116.080066 148.049854 
L 116.405045 148.315962 
L 116.730025 148.981242 
L 117.055004 148.58207 
L 117.379984 149.779586 
L 117.704963 148.981242 
L 118.029943 146.985402 
L 118.354922 146.054014 
L 118.679902 148.715134 
L 119.004881 144.058184 
L 119.329861 145.122626 
L 119.65484 143.792076 
L 119.97982 147.91679 
L 120.304799 145.521788 
L 120.629779 146.985402 
L 120.954758 146.719294 
L 121.279738 144.856508 
L 121.604717 144.723464 
L 121.929697 146.320122 
L 122.254676 143.92512 
L 122.579656 143.792076 
L 122.904636 142.461496 
L 123.229615 145.122626 
L 123.554595 140.997892 
L 123.879574 140.864828 
L 124.204554 141.796216 
L 124.529533 143.392904 
L 124.854513 141.530108 
L 125.179492 142.461496 
L 125.504472 139.800376 
L 125.829451 139.002052 
L 126.47941 142.328452 
L 127.454349 138.735924 
L 127.779328 140.864828 
L 128.104308 140.731784 
L 128.429287 139.26816 
L 128.754267 139.401204 
L 129.079247 137.139256 
L 129.404226 138.469816 
L 129.729206 137.139256 
L 130.054185 140.59872 
L 130.379165 137.405374 
L 130.704144 137.139256 
L 131.029124 135.409524 
L 131.354103 135.94176 
L 131.679083 135.675632 
L 132.004062 137.405374 
L 132.329042 136.473976 
L 132.654021 138.868988 
L 133.62896 133.546748 
L 133.953939 134.478136 
L 134.278919 133.94592 
L 134.603898 136.740084 
L 134.928878 134.078964 
L 135.253857 134.744244 
L 135.578837 136.873148 
L 135.903817 134.6112 
L 136.228796 135.010352 
L 136.553776 133.812856 
L 136.878755 134.6112 
L 137.203735 134.478136 
L 137.528714 133.94592 
L 137.853694 135.808696 
L 138.178673 133.812856 
L 138.503653 133.94592 
L 138.828632 136.207868 
L 139.153612 134.6112 
L 139.478591 134.078964 
L 139.803571 133.147576 
L 140.12855 133.679812 
L 140.45353 134.744244 
L 140.778509 133.546748 
L 141.103489 133.679812 
L 141.428468 131.817036 
L 141.753448 130.885648 
L 142.078428 133.94592 
L 142.403407 129.28896 
L 142.728387 129.555068 
L 143.053366 128.224508 
L 143.378346 129.422024 
L 143.703325 128.62368 
L 144.028305 128.889788 
L 144.353284 129.422024 
L 144.678264 126.62784 
L 145.003243 130.087304 
L 145.328223 130.885648 
L 145.653202 129.688132 
L 145.978182 131.2848 
L 146.303161 130.220368 
L 146.628141 129.821196 
L 146.95312 127.027012 
L 147.2781 130.61952 
L 147.603079 130.353412 
L 147.928059 125.29728 
L 148.578018 127.9584 
L 148.902998 129.95424 
L 149.552957 124.898108 
L 150.202916 128.357572 
L 150.527895 122.63616 
L 150.852875 123.434504 
L 151.177854 123.833656 
L 151.502834 126.361732 
L 151.827813 126.095624 
L 152.152793 125.29728 
L 152.477772 122.503096 
L 152.802752 124.365892 
L 153.127731 120.906428 
L 153.452711 124.498936 
L 153.77769 121.571708 
L 154.10267 121.97088 
L 154.427649 124.099784 
L 154.752629 122.503096 
L 155.077609 123.168376 
L 155.402588 124.232828 
L 155.727568 119.30976 
L 156.052547 122.370052 
L 156.377527 122.370052 
L 156.702506 122.63616 
L 157.027486 122.63616 
L 157.352465 121.837816 
L 157.677445 121.571708 
L 158.002424 124.099784 
L 158.327404 124.099784 
L 158.652383 124.232828 
L 158.977363 120.773364 
L 159.302342 125.031172 
L 159.627322 127.160076 
L 159.952301 124.232828 
L 160.277281 125.164216 
L 160.60226 121.438644 
L 160.92724 121.837816 
L 161.252219 126.095624 
L 161.577199 124.365892 
L 161.902179 121.172536 
L 162.227158 119.97504 
L 162.552138 121.438644 
L 162.877117 125.031172 
L 163.202097 120.906428 
L 163.527076 123.035332 
L 163.852056 122.103924 
L 164.177035 123.700612 
L 164.502015 123.434504 
L 164.826994 120.64032 
L 165.151974 123.30144 
L 165.476953 119.442804 
L 165.801933 122.103924 
L 166.126912 122.63616 
L 166.451892 120.507256 
L 166.776871 122.503096 
L 167.101851 121.837816 
L 167.42683 123.96672 
L 167.75181 121.97088 
L 168.07679 122.370052 
L 168.401769 122.236988 
L 168.726749 123.700612 
L 169.051728 118.511416 
L 169.376708 119.841976 
L 169.701687 125.563388 
L 170.026667 124.232828 
L 170.351646 120.108084 
L 170.676626 121.039492 
L 171.001605 120.906428 
L 171.326585 119.043632 
L 171.651564 122.236988 
L 171.976544 119.841976 
L 172.301523 120.773364 
L 172.626503 122.370052 
L 172.951482 120.773364 
L 173.276462 121.704772 
L 173.601441 121.438644 
L 173.926421 120.906428 
L 174.2514 119.841976 
L 174.57638 122.103924 
L 174.90136 121.571708 
L 175.226339 121.3056 
L 175.551319 118.245308 
L 175.876298 119.841976 
L 176.201278 117.31392 
L 176.851237 119.30976 
L 177.176216 117.047812 
L 177.501196 116.382532 
L 177.826175 118.511416 
L 178.151155 118.777524 
L 178.476134 114.918928 
L 178.801114 117.9792 
L 179.126093 117.580028 
L 179.451073 118.378352 
L 179.776052 117.846136 
L 180.101032 116.382532 
L 180.426011 115.584188 
L 180.750991 117.713072 
L 181.075971 118.511416 
L 181.40095 117.9792 
L 181.72593 117.713072 
L 182.050909 116.515576 
L 182.375889 117.846136 
L 182.700868 117.047812 
L 183.350827 115.051972 
L 183.675807 114.386692 
L 184.000786 118.112244 
L 184.325766 113.854476 
L 184.650745 118.245308 
L 184.975725 116.781704 
L 185.300704 116.116424 
L 185.625684 119.30976 
L 185.950663 116.515576 
L 186.275643 116.249468 
L 186.600622 113.98752 
L 186.925602 114.519756 
L 187.250581 115.31808 
L 187.575561 113.455304 
L 187.900541 115.584188 
L 188.22552 115.31808 
L 188.5505 114.120584 
L 188.875479 117.180856 
L 189.200459 115.051972 
L 189.525438 114.120584 
L 190.175397 116.249468 
L 190.500377 115.584188 
L 190.825356 114.120584 
L 191.150336 113.854476 
L 191.800295 113.854476 
L 192.125274 111.858636 
L 192.450254 115.584188 
L 192.775233 111.592508 
L 193.100213 111.3264 
L 193.425192 111.592508 
L 193.750172 112.523916 
L 194.075152 114.6528 
L 194.400131 114.386692 
L 194.725111 112.923068 
L 195.05009 113.98752 
L 195.37507 111.3264 
L 195.700049 113.32224 
L 196.025029 109.729732 
L 196.350008 111.725572 
L 196.674988 110.395012 
L 196.999967 112.257788 
L 197.324947 113.32224 
L 197.649926 109.99584 
L 197.974906 114.253648 
L 198.299885 112.790024 
L 198.624865 110.261948 
L 198.949844 112.790024 
L 199.274824 112.65696 
L 199.599803 111.459464 
L 199.924783 110.794184 
L 200.249762 113.32224 
L 200.574742 112.523916 
L 200.899722 111.193356 
L 201.224701 112.923068 
L 201.549681 108.399172 
L 201.87466 110.395012 
L 202.19964 113.32224 
L 202.524619 109.197496 
L 202.849599 111.459464 
L 203.174578 109.99584 
L 203.499558 106.935548 
L 203.824537 109.862796 
L 204.149517 107.467784 
L 204.474496 109.862796 
L 204.799476 108.931388 
L 205.124455 110.794184 
L 205.449435 108.798344 
L 205.774414 109.99584 
L 206.099394 108.798344 
L 206.424373 110.794184 
L 206.749353 107.467784 
L 207.074333 109.862796 
L 207.724292 107.600828 
L 208.049271 110.261948 
L 208.374251 109.064452 
L 208.69923 111.99168 
L 209.02421 111.193356 
L 209.349189 109.862796 
L 209.674169 111.725572 
L 209.999148 108.798344 
L 210.324128 108.133064 
L 210.649107 109.99584 
L 210.974087 109.463624 
L 211.299066 111.858636 
L 211.624046 108.266108 
L 211.949025 109.862796 
L 212.274005 105.871096 
L 212.923964 111.592508 
L 213.248943 110.261948 
L 213.573923 107.068612 
L 213.898903 109.729732 
L 214.873841 106.536376 
L 215.198821 109.064452 
L 215.5238 109.064452 
L 215.84878 109.99584 
L 216.173759 107.600828 
L 216.498739 107.33472 
L 217.148698 110.261948 
L 217.473677 108.66528 
L 217.798657 107.733892 
L 218.123636 108.133064 
L 218.448616 110.395012 
L 218.773595 110.128904 
L 219.098575 106.935548 
L 219.423554 107.068612 
L 219.748534 106.802504 
L 220.073514 106.802504 
L 220.398493 104.407492 
L 220.723473 107.733892 
L 221.048452 106.935548 
L 221.373432 108.532216 
L 222.023391 108.266108 
L 222.34837 108.399172 
L 222.67335 109.596668 
L 222.998329 106.802504 
L 223.323309 108.266108 
L 223.648288 105.738052 
L 223.973268 108.798344 
L 224.298247 106.802504 
L 224.623227 106.536376 
L 224.948206 108 
L 225.273186 105.33888 
L 225.598165 106.536376 
L 225.923145 105.205816 
L 226.248124 105.205816 
L 226.573104 105.604988 
L 226.898084 104.939708 
L 227.223063 103.34304 
L 227.548043 106.270268 
L 227.873022 105.33888 
L 228.198002 108.266108 
L 228.522981 105.33888 
L 228.847961 106.403332 
L 229.17294 106.137204 
L 229.49792 104.00832 
L 229.822899 105.33888 
L 230.147879 106.00416 
L 230.472858 105.471924 
L 230.797838 102.145524 
L 231.122817 104.806644 
L 231.447797 105.205816 
L 231.772776 102.810804 
L 232.097756 104.141364 
L 232.422735 103.34304 
L 232.747715 105.604988 
L 233.397674 102.145524 
L 233.722654 102.810804 
L 234.047633 104.274428 
L 234.372613 104.00832 
L 234.697592 101.879416 
L 235.022572 104.141364 
L 235.672531 102.810804 
L 235.99751 103.209976 
L 236.32249 101.746352 
L 236.647469 103.209976 
L 236.972449 107.600828 
L 237.297428 104.141364 
L 237.622408 105.871096 
L 237.947387 106.00416 
L 238.272367 104.141364 
L 238.597346 106.270268 
L 238.922326 105.871096 
L 239.247305 107.201656 
L 239.572285 104.6736 
L 239.897265 106.935548 
L 240.222244 103.609148 
L 240.547224 104.407492 
L 240.872203 102.810804 
L 241.197183 103.076932 
L 241.522162 105.072772 
L 241.847142 106.137204 
L 242.172121 100.948028 
L 242.497101 103.875256 
L 242.82208 102.411632 
L 243.14706 103.476084 
L 243.472039 103.076932 
L 243.797019 100.548856 
L 244.121998 102.411632 
L 244.446978 103.34304 
L 244.771957 103.875256 
L 245.096937 103.209976 
L 245.421916 101.081072 
L 245.746896 103.476084 
L 246.071876 100.814964 
L 246.396855 103.209976 
L 246.721835 104.00832 
L 247.046814 103.076932 
L 247.371794 100.948028 
L 248.021753 106.802504 
L 248.346732 103.609148 
L 248.996691 102.411632 
L 249.321671 105.33888 
L 249.64665 105.604988 
L 249.97163 104.939708 
L 250.296609 103.609148 
L 250.621589 103.209976 
L 250.946568 104.274428 
L 251.271548 100.948028 
L 251.596527 100.948028 
L 251.921507 102.01248 
L 252.246486 104.6736 
L 252.896446 101.214136 
L 253.221425 102.544696 
L 253.546405 102.01248 
L 253.871384 103.476084 
L 254.196364 102.943868 
L 254.521343 103.076932 
L 254.846323 104.6736 
L 255.171302 103.742212 
L 255.496282 101.081072 
L 255.821261 101.480244 
L 256.146241 101.214136 
L 256.47122 103.34304 
L 257.121179 100.814964 
L 257.446159 101.613308 
L 257.771138 99.35136 
L 258.096118 103.875256 
L 258.421097 102.544696 
L 258.746077 103.34304 
L 259.071057 100.01664 
L 259.396036 102.544696 
L 259.721016 100.814964 
L 260.045995 104.540536 
L 260.695954 101.081072 
L 261.020934 102.01248 
L 261.345913 104.274428 
L 261.670893 101.3472 
L 261.995872 103.609148 
L 262.320852 101.746352 
L 262.645831 102.67776 
L 262.970811 102.943868 
L 263.29579 102.145524 
L 263.62077 102.145524 
L 263.945749 100.948028 
L 264.270729 101.480244 
L 264.595708 104.407492 
L 265.245667 99.35136 
L 265.570647 99.218296 
L 265.895627 102.278588 
L 266.220606 101.214136 
L 266.545586 102.278588 
L 266.870565 99.750532 
L 267.195545 102.943868 
L 267.520524 101.081072 
L 267.845504 101.214136 
L 268.170483 102.145524 
L 268.495463 100.948028 
L 268.820442 96.956368 
L 269.470401 101.746352 
L 269.795381 100.948028 
L 270.12036 98.819144 
L 270.44534 104.00832 
L 270.770319 101.214136 
L 271.095299 101.746352 
L 271.420278 103.875256 
L 272.070238 99.617468 
L 272.395217 100.68192 
L 272.720197 100.415812 
L 273.045176 100.68192 
L 273.370156 96.424132 
L 273.695135 99.883576 
L 274.020115 100.415812 
L 274.345094 99.750532 
L 274.670074 99.617468 
L 274.995053 100.948028 
L 275.320033 99.617468 
L 275.645012 98.819144 
L 275.969992 99.35136 
L 276.294971 101.613308 
L 276.619951 98.553036 
L 276.94493 99.484424 
L 277.26991 101.879416 
L 277.594889 99.218296 
L 277.919869 102.278588 
L 278.244848 99.617468 
L 278.569828 100.68192 
L 278.894808 99.750532 
L 279.219787 101.613308 
L 279.544767 102.01248 
L 279.869746 100.548856 
L 280.194726 100.814964 
L 280.519705 97.488584 
L 280.844685 102.01248 
L 281.169664 99.085252 
L 281.494644 100.282748 
L 281.819623 100.548856 
L 282.144603 96.02496 
L 282.794562 101.480244 
L 283.119541 99.218296 
L 283.444521 104.141364 
L 283.7695 99.35136 
L 284.09448 98.952188 
L 284.419459 99.218296 
L 284.744439 97.887756 
L 285.069419 102.943868 
L 285.394398 99.883576 
L 285.719378 99.617468 
L 286.044357 97.887756 
L 286.369337 101.480244 
L 286.694316 101.3472 
L 287.019296 99.085252 
L 287.344275 98.68608 
L 287.669255 99.218296 
L 287.994234 100.948028 
L 288.319214 101.081072 
L 288.644193 97.754692 
L 288.969173 100.01664 
L 289.294152 101.3472 
L 289.619132 96.823304 
L 289.944111 97.887756 
L 290.269091 102.544696 
L 290.59407 103.209976 
L 290.91905 101.879416 
L 291.244029 97.222476 
L 291.569009 97.621648 
L 291.893989 100.01664 
L 292.218968 100.149704 
L 292.543948 96.823304 
L 292.868927 98.819144 
L 293.193907 98.819144 
L 293.518886 100.415812 
L 293.843866 98.553036 
L 294.168845 98.153864 
L 294.493825 100.548856 
L 294.818804 98.286928 
L 295.143784 98.952188 
L 295.468763 98.0208 
L 295.793743 97.887756 
L 296.118722 99.484424 
L 296.443702 94.428292 
L 296.768681 98.68608 
L 297.093661 100.01664 
L 297.41864 99.484424 
L 297.74362 98.153864 
L 298.393579 99.35136 
L 298.718559 95.625788 
L 299.043538 99.750532 
L 299.368518 96.823304 
L 299.693497 96.557196 
L 300.018477 101.613308 
L 300.343456 94.428292 
L 300.668436 98.0208 
L 300.993415 99.218296 
L 301.318395 95.226636 
L 301.643374 100.415812 
L 301.968354 100.282748 
L 302.293333 94.428292 
L 302.618313 99.484424 
L 302.943292 97.887756 
L 303.268272 98.153864 
L 303.593251 96.823304 
L 303.918231 99.883576 
L 304.56819 99.218296 
L 304.89317 98.68608 
L 305.218149 98.819144 
L 305.868108 96.823304 
L 306.193088 97.754692 
L 306.518067 97.887756 
L 306.843047 97.488584 
L 307.168026 99.883576 
L 307.493006 98.419972 
L 307.817985 99.750532 
L 308.142965 99.750532 
L 308.467944 100.149704 
L 308.792924 101.3472 
L 309.117903 98.0208 
L 309.442883 96.291068 
L 309.767862 95.891916 
L 310.092842 96.557196 
L 310.417821 98.0208 
L 310.742801 98.153864 
L 311.39276 100.01664 
L 311.71774 96.02496 
L 312.367699 98.68608 
L 313.017658 97.488584 
L 313.342637 97.222476 
L 313.667617 99.617468 
L 313.992596 97.089412 
L 314.317576 101.081072 
L 314.967535 99.085252 
L 315.292514 98.419972 
L 315.617494 101.214136 
L 315.942473 93.629948 
L 316.267453 97.621648 
L 316.592432 96.424132 
L 316.917412 95.758852 
L 317.242391 100.149704 
L 317.567371 97.621648 
L 317.892351 96.291068 
L 318.21733 97.488584 
L 318.54231 96.69024 
L 318.867289 95.35968 
L 319.192269 96.956368 
L 319.517248 97.621648 
L 319.842228 98.553036 
L 320.167207 99.085252 
L 320.492187 98.68608 
L 320.817166 97.754692 
L 321.142146 100.282748 
L 321.467125 96.557196 
L 321.792105 99.750532 
L 322.117084 93.763012 
L 322.442064 97.754692 
L 322.767043 99.883576 
L 323.092023 96.956368 
L 323.417002 96.956368 
L 323.741982 100.282748 
L 325.36688 96.823304 
L 325.691859 98.419972 
L 326.016839 99.085252 
L 326.341818 97.887756 
L 326.666798 98.419972 
L 326.991777 96.956368 
L 327.316757 97.35552 
L 327.641736 100.415812 
L 327.966716 99.750532 
L 328.291695 100.68192 
L 328.941654 98.952188 
L 329.266634 99.218296 
L 329.591613 96.69024 
L 329.916593 97.089412 
L 330.241572 95.093572 
L 330.566552 97.887756 
L 331.216511 100.948028 
L 331.541491 97.621648 
L 331.86647 100.149704 
L 332.19145 99.750532 
L 332.516429 98.952188 
L 332.841409 95.625788 
L 333.491368 100.68192 
L 333.816347 97.089412 
L 334.141327 99.085252 
L 334.466306 99.484424 
L 334.791286 97.35552 
L 335.116265 97.754692 
L 335.441245 97.621648 
L 336.091204 97.222476 
L 336.416183 97.887756 
L 336.741163 99.35136 
L 337.066143 97.35552 
L 337.391122 96.69024 
L 337.716102 96.424132 
L 338.041081 95.758852 
L 338.366061 98.68608 
L 338.69104 97.089412 
L 339.01602 98.952188 
L 339.340999 95.758852 
L 339.665979 97.488584 
L 339.990958 96.291068 
L 340.315938 97.089412 
L 340.640917 94.295228 
L 340.965897 93.896076 
L 341.290876 98.553036 
L 341.615856 92.831624 
L 341.940835 95.492744 
L 342.265815 101.746352 
L 342.590794 97.089412 
L 342.915774 98.819144 
L 343.565733 95.492744 
L 343.890713 94.428292 
L 344.215692 99.085252 
L 344.540672 95.226636 
L 344.865651 95.093572 
L 345.190631 98.0208 
L 345.51561 96.69024 
L 345.84059 95.891916 
L 346.165569 96.823304 
L 346.490549 97.35552 
L 346.815528 96.823304 
L 347.140508 94.6944 
L 347.790467 97.222476 
L 348.115446 94.6944 
L 348.440426 95.891916 
L 348.765405 96.02496 
L 349.090385 97.754692 
L 349.415364 95.758852 
L 349.740344 95.625788 
L 350.065324 96.956368 
L 350.390303 95.35968 
L 350.715283 92.964668 
L 351.040262 95.35968 
L 351.365242 95.625788 
L 351.690221 97.222476 
L 352.015201 96.956368 
L 352.34018 100.415812 
L 352.66516 98.286928 
L 352.990139 98.819144 
L 353.315119 96.291068 
L 353.640098 96.02496 
L 353.965078 96.557196 
L 354.290057 97.887756 
L 354.615037 94.428292 
L 354.940016 95.891916 
L 355.264996 95.093572 
L 355.589975 97.621648 
L 355.914955 97.754692 
L 356.239934 96.424132 
L 356.564914 95.625788 
L 356.889894 99.750532 
L 357.214873 97.887756 
L 357.539853 94.295228 
L 357.864832 96.158024 
L 358.189812 97.089412 
L 358.514791 98.819144 
L 358.839771 94.561356 
L 359.16475 96.424132 
L 359.48973 92.299388 
L 359.814709 96.557196 
L 360.139689 95.492744 
L 360.464668 95.35968 
L 360.789648 94.428292 
L 361.114627 96.69024 
L 361.439607 97.621648 
L 361.764586 93.36384 
L 362.089566 95.226636 
L 362.414545 95.226636 
L 362.739525 93.097732 
L 363.064505 95.492744 
L 363.389484 93.097732 
L 363.714464 95.758852 
L 364.039443 96.424132 
L 364.364423 94.561356 
L 364.689402 98.819144 
L 365.014382 94.295228 
L 365.339361 94.960508 
L 365.664341 96.158024 
L 365.98932 95.226636 
L 366.3143 95.891916 
L 366.639279 94.960508 
L 366.964259 98.419972 
L 367.289238 94.428292 
L 367.614218 94.162184 
L 367.939197 95.625788 
L 368.264177 95.226636 
L 368.589156 96.158024 
L 368.914136 95.891916 
L 369.564095 92.964668 
L 369.889075 96.291068 
L 370.214054 92.69856 
L 370.539034 92.432452 
L 370.864013 93.896076 
L 371.188993 94.162184 
L 371.513972 96.69024 
L 371.838952 96.557196 
L 372.163931 95.891916 
L 372.488911 95.758852 
L 372.81389 95.891916 
L 373.13887 94.428292 
L 373.463849 96.956368 
L 373.788829 95.226636 
L 374.438788 95.625788 
L 374.763767 94.960508 
L 375.088747 94.561356 
L 375.413726 93.896076 
L 376.063686 95.625788 
L 376.388665 97.488584 
L 376.713645 94.960508 
L 377.038624 94.561356 
L 377.363604 93.629948 
L 377.688583 95.35968 
L 378.338542 93.496904 
L 378.663522 95.758852 
L 378.988501 94.6944 
L 379.313481 95.891916 
L 379.63846 92.432452 
L 379.96344 96.158024 
L 380.288419 96.02496 
L 380.613399 94.428292 
L 380.938378 96.158024 
L 381.263358 92.565496 
L 381.588337 95.093572 
L 381.913317 95.35968 
L 382.238296 94.561356 
L 382.563276 96.02496 
L 383.213235 93.230796 
L 383.538215 94.960508 
L 383.863194 95.492744 
L 384.188174 92.964668 
L 384.513153 97.222476 
L 384.838133 94.827464 
L 385.163112 94.428292 
L 385.488092 95.226636 
L 386.138051 92.69856 
L 386.46303 95.891916 
L 386.78801 91.767172 
L 387.112989 95.35968 
L 387.437969 93.097732 
L 387.762948 95.226636 
L 388.087928 95.226636 
L 388.412907 93.230796 
L 388.737887 92.565496 
L 389.062867 92.299388 
L 389.387846 93.629948 
L 389.712826 96.02496 
L 390.037805 95.891916 
L 390.362785 92.03328 
L 390.687764 93.097732 
L 391.012744 92.166344 
L 391.337723 94.561356 
L 391.662703 94.02912 
L 391.987682 95.226636 
L 392.312662 93.629948 
L 392.637641 95.093572 
L 392.962621 90.170504 
L 393.2876 96.02496 
L 393.61258 93.896076 
L 393.937559 94.295228 
L 394.262539 91.767172 
L 394.912498 96.557196 
L 395.237477 91.767172 
L 395.562457 94.428292 
L 395.887437 91.101892 
L 396.212416 90.70272 
L 396.537396 93.896076 
L 396.862375 92.432452 
L 397.187355 92.565496 
L 397.512334 93.763012 
L 397.837314 93.36384 
L 398.162293 92.166344 
L 398.487273 94.561356 
L 398.487273 94.561356 
" style="fill:none;stroke:#2ca02c;stroke-linecap:square;stroke-width:1.5;"/>
   </g>
   <g id="patch_3">
    <path d="M 57.6 307.584 
L 57.6 41.472 
" style="fill:none;stroke:#000000;stroke-linecap:square;stroke-linejoin:miter;stroke-width:0.8;"/>
   </g>
   <g id="patch_4">
    <path d="M 414.72 307.584 
L 414.72 41.472 
" style="fill:none;stroke:#000000;stroke-linecap:square;stroke-linejoin:miter;stroke-width:0.8;"/>
   </g>
   <g id="patch_5">
    <path d="M 57.6 307.584 
L 414.72 307.584 
" style="fill:none;stroke:#000000;stroke-linecap:square;stroke-linejoin:miter;stroke-width:0.8;"/>
   </g>
   <g id="patch_6">
    <path d="M 57.6 41.472 
L 414.72 41.472 
" style="fill:none;stroke:#000000;stroke-linecap:square;stroke-linejoin:miter;stroke-width:0.8;"/>
   </g>
   <g id="legend_1">
    <g id="patch_7">
     <path d="M 291.009063 302.584 
L 407.72 302.584 
Q 409.72 302.584 409.72 300.584 
L 409.72 257.549625 
Q 409.72 255.549625 407.72 255.549625 
L 291.009063 255.549625 
Q 289.009063 255.549625 289.009063 257.549625 
L 289.009063 300.584 
Q 289.009063 302.584 291.009063 302.584 
z
" style="fill:#ffffff;opacity:0.8;stroke:#cccccc;stroke-linejoin:miter;"/>
    </g>
    <g id="line2d_15">
     <path d="M 293.009063 263.648062 
L 313.009063 263.648062 
" style="fill:none;stroke:#1f77b4;stroke-linecap:square;stroke-width:1.5;"/>
    </g>
    <g id="line2d_16"/>
    <g id="text_14">
     <!-- UCB1 -->
     <defs>
      <path d="M 8.6875 72.90625 
L 18.609375 72.90625 
L 18.609375 28.609375 
Q 18.609375 16.890625 22.84375 11.734375 
Q 27.09375 6.59375 36.625 6.59375 
Q 46.09375 6.59375 50.34375 11.734375 
Q 54.59375 16.890625 54.59375 28.609375 
L 54.59375 72.90625 
L 64.5 72.90625 
L 64.5 27.390625 
Q 64.5 13.140625 57.4375 5.859375 
Q 50.390625 -1.421875 36.625 -1.421875 
Q 22.796875 -1.421875 15.734375 5.859375 
Q 8.6875 13.140625 8.6875 27.390625 
z
" id="DejaVuSans-55"/>
      <path d="M 64.40625 67.28125 
L 64.40625 56.890625 
Q 59.421875 61.53125 53.78125 63.8125 
Q 48.140625 66.109375 41.796875 66.109375 
Q 29.296875 66.109375 22.65625 58.46875 
Q 16.015625 50.828125 16.015625 36.375 
Q 16.015625 21.96875 22.65625 14.328125 
Q 29.296875 6.6875 41.796875 6.6875 
Q 48.140625 6.6875 53.78125 8.984375 
Q 59.421875 11.28125 64.40625 15.921875 
L 64.40625 5.609375 
Q 59.234375 2.09375 53.4375 0.328125 
Q 47.65625 -1.421875 41.21875 -1.421875 
Q 24.65625 -1.421875 15.125 8.703125 
Q 5.609375 18.84375 5.609375 36.375 
Q 5.609375 53.953125 15.125 64.078125 
Q 24.65625 74.21875 41.21875 74.21875 
Q 47.75 74.21875 53.53125 72.484375 
Q 59.328125 70.75 64.40625 67.28125 
z
" id="DejaVuSans-43"/>
      <path d="M 19.671875 34.8125 
L 19.671875 8.109375 
L 35.5 8.109375 
Q 43.453125 8.109375 47.28125 11.40625 
Q 51.125 14.703125 51.125 21.484375 
Q 51.125 28.328125 47.28125 31.5625 
Q 43.453125 34.8125 35.5 34.8125 
z
M 19.671875 64.796875 
L 19.671875 42.828125 
L 34.28125 42.828125 
Q 41.5 42.828125 45.03125 45.53125 
Q 48.578125 48.25 48.578125 53.8125 
Q 48.578125 59.328125 45.03125 62.0625 
Q 41.5 64.796875 34.28125 64.796875 
z
M 9.8125 72.90625 
L 35.015625 72.90625 
Q 46.296875 72.90625 52.390625 68.21875 
Q 58.5 63.53125 58.5 54.890625 
Q 58.5 48.1875 55.375 44.234375 
Q 52.25 40.28125 46.1875 39.3125 
Q 53.46875 37.75 57.5 32.78125 
Q 61.53125 27.828125 61.53125 20.40625 
Q 61.53125 10.640625 54.890625 5.3125 
Q 48.25 0 35.984375 0 
L 9.8125 0 
z
" id="DejaVuSans-42"/>
     </defs>
     <g transform="translate(321.009063 267.148062)scale(0.1 -0.1)">
      <use xlink:href="#DejaVuSans-55"/>
      <use x="73.193359" xlink:href="#DejaVuSans-43"/>
      <use x="143.017578" xlink:href="#DejaVuSans-42"/>
      <use x="211.621094" xlink:href="#DejaVuSans-31"/>
     </g>
    </g>
    <g id="line2d_17">
     <path d="M 293.009063 278.326188 
L 313.009063 278.326188 
" style="fill:none;stroke:#ff7f0e;stroke-linecap:square;stroke-width:1.5;"/>
    </g>
    <g id="line2d_18"/>
    <g id="text_15">
     <!-- UCB2 (=0.5) -->
     <defs>
      <path d="M 41.3125 25.4375 
L 39.15625 36.71875 
Q 36.96875 48.296875 28.265625 48.296875 
Q 21.734375 48.296875 18.75 42.921875 
Q 14.984375 36.1875 14.984375 27.296875 
Q 14.984375 16.546875 18.65625 11.421875 
Q 22.359375 6.203125 28.265625 6.203125 
Q 34.8125 6.203125 38.328125 16.609375 
z
M 46.34375 40.375 
L 51.171875 54.6875 
L 59.1875 54.6875 
L 49.171875 25.046875 
L 51.125 14.359375 
Q 51.5625 11.96875 53.265625 9.96875 
Q 55.28125 7.625 56.84375 7.625 
L 61.140625 7.625 
L 61.140625 0 
L 55.765625 0 
Q 51.171875 0 47.078125 4.109375 
Q 45.0625 6.15625 44.234375 10.453125 
Q 42 5.03125 37.40625 0.78125 
Q 35.25 -1.21875 28.265625 -1.21875 
Q 16.796875 -1.21875 11.234375 6.203125 
Q 5.515625 13.875 5.515625 27.296875 
Q 5.515625 41.65625 11.71875 48.390625 
Q 18.609375 55.90625 28.265625 55.90625 
Q 43.453125 55.90625 46.34375 40.375 
z
" id="DejaVuSans-3b1"/>
      <path d="M 10.59375 45.40625 
L 73.1875 45.40625 
L 73.1875 37.203125 
L 10.59375 37.203125 
z
M 10.59375 25.484375 
L 73.1875 25.484375 
L 73.1875 17.1875 
L 10.59375 17.1875 
z
" id="DejaVuSans-3d"/>
      <path d="M 10.6875 12.40625 
L 21 12.40625 
L 21 0 
L 10.6875 0 
z
" id="DejaVuSans-2e"/>
     </defs>
     <g transform="translate(321.009063 281.826188)scale(0.1 -0.1)">
      <use xlink:href="#DejaVuSans-55"/>
      <use x="73.193359" xlink:href="#DejaVuSans-43"/>
      <use x="143.017578" xlink:href="#DejaVuSans-42"/>
      <use x="211.621094" xlink:href="#DejaVuSans-32"/>
      <use x="275.244141" xlink:href="#DejaVuSans-20"/>
      <use x="307.03125" xlink:href="#DejaVuSans-28"/>
      <use x="346.044922" xlink:href="#DejaVuSans-3b1"/>
      <use x="411.962891" xlink:href="#DejaVuSans-3d"/>
      <use x="495.751953" xlink:href="#DejaVuSans-30"/>
      <use x="559.375" xlink:href="#DejaVuSans-2e"/>
      <use x="591.162109" xlink:href="#DejaVuSans-35"/>
      <use x="654.785156" xlink:href="#DejaVuSans-29"/>
     </g>
    </g>
    <g id="line2d_19">
     <path d="M 293.009063 293.004312 
L 313.009063 293.004312 
" style="fill:none;stroke:#2ca02c;stroke-linecap:square;stroke-width:1.5;"/>
    </g>
    <g id="line2d_20"/>
    <g id="text_16">
     <!-- -greedy (=0.1) -->
     <defs>
      <path d="M 19.28125 29.5 
Q 13.8125 30.671875 10.890625 33.84375 
Q 7.953125 36.96875 7.953125 41.5 
Q 7.953125 48.390625 13.53125 52.25 
Q 19.046875 56.0625 28.609375 56.0625 
Q 32.328125 56.0625 36.46875 55.46875 
Q 40.625 54.890625 45.40625 53.71875 
L 45.40625 45.5625 
Q 40.671875 46.96875 36.765625 47.609375 
Q 32.8125 48.25 29.34375 48.25 
Q 23.53125 48.25 20.171875 46 
Q 16.75 43.75 16.75 40.625 
Q 16.75 37.203125 20.0625 35.015625 
Q 23.34375 32.859375 29 32.859375 
L 36.578125 32.859375 
L 36.578125 25.4375 
L 29.34375 25.4375 
Q 22.65625 25.4375 19.140625 22.953125 
Q 15.328125 20.21875 15.328125 15.921875 
Q 15.328125 11.53125 19.4375 8.796875 
Q 23.578125 6.0625 30.953125 6.0625 
Q 35.5 6.0625 39.65625 6.9375 
Q 43.796875 7.859375 47.265625 9.671875 
L 47.265625 1.3125 
Q 42.875 -0.046875 38.765625 -0.734375 
Q 34.625 -1.421875 30.71875 -1.421875 
Q 19.09375 -1.421875 12.796875 3.03125 
Q 6.5 7.46875 6.5 15.921875 
Q 6.5 21.1875 9.859375 24.75 
Q 13.234375 28.328125 19.28125 29.5 
z
" id="DejaVuSans-3b5"/>
      <path d="M 4.890625 31.390625 
L 31.203125 31.390625 
L 31.203125 23.390625 
L 4.890625 23.390625 
z
" id="DejaVuSans-2d"/>
      <path d="M 45.40625 27.984375 
Q 45.40625 37.75 41.375 43.109375 
Q 37.359375 48.484375 30.078125 48.484375 
Q 22.859375 48.484375 18.828125 43.109375 
Q 14.796875 37.75 14.796875 27.984375 
Q 14.796875 18.265625 18.828125 12.890625 
Q 22.859375 7.515625 30.078125 7.515625 
Q 37.359375 7.515625 41.375 12.890625 
Q 45.40625 18.265625 45.40625 27.984375 
z
M 54.390625 6.78125 
Q 54.390625 -7.171875 48.1875 -13.984375 
Q 42 -20.796875 29.203125 -20.796875 
Q 24.46875 -20.796875 20.265625 -20.09375 
Q 16.0625 -19.390625 12.109375 -17.921875 
L 12.109375 -9.1875 
Q 16.0625 -11.328125 19.921875 -12.34375 
Q 23.78125 -13.375 27.78125 -13.375 
Q 36.625 -13.375 41.015625 -8.765625 
Q 45.40625 -4.15625 45.40625 5.171875 
L 45.40625 9.625 
Q 42.625 4.78125 38.28125 2.390625 
Q 33.9375 0 27.875 0 
Q 17.828125 0 11.671875 7.65625 
Q 5.515625 15.328125 5.515625 27.984375 
Q 5.515625 40.671875 11.671875 48.328125 
Q 17.828125 56 27.875 56 
Q 33.9375 56 38.28125 53.609375 
Q 42.625 51.21875 45.40625 46.390625 
L 45.40625 54.6875 
L 54.390625 54.6875 
z
" id="DejaVuSans-67"/>
      <path d="M 41.109375 46.296875 
Q 39.59375 47.171875 37.8125 47.578125 
Q 36.03125 48 33.890625 48 
Q 26.265625 48 22.1875 43.046875 
Q 18.109375 38.09375 18.109375 28.8125 
L 18.109375 0 
L 9.078125 0 
L 9.078125 54.6875 
L 18.109375 54.6875 
L 18.109375 46.1875 
Q 20.953125 51.171875 25.484375 53.578125 
Q 30.03125 56 36.53125 56 
Q 37.453125 56 38.578125 55.875 
Q 39.703125 55.765625 41.0625 55.515625 
z
" id="DejaVuSans-72"/>
      <path d="M 45.40625 46.390625 
L 45.40625 75.984375 
L 54.390625 75.984375 
L 54.390625 0 
L 45.40625 0 
L 45.40625 8.203125 
Q 42.578125 3.328125 38.25 0.953125 
Q 33.9375 -1.421875 27.875 -1.421875 
Q 17.96875 -1.421875 11.734375 6.484375 
Q 5.515625 14.40625 5.515625 27.296875 
Q 5.515625 40.1875 11.734375 48.09375 
Q 17.96875 56 27.875 56 
Q 33.9375 56 38.25 53.625 
Q 42.578125 51.265625 45.40625 46.390625 
z
M 14.796875 27.296875 
Q 14.796875 17.390625 18.875 11.75 
Q 22.953125 6.109375 30.078125 6.109375 
Q 37.203125 6.109375 41.296875 11.75 
Q 45.40625 17.390625 45.40625 27.296875 
Q 45.40625 37.203125 41.296875 42.84375 
Q 37.203125 48.484375 30.078125 48.484375 
Q 22.953125 48.484375 18.875 42.84375 
Q 14.796875 37.203125 14.796875 27.296875 
z
" id="DejaVuSans-64"/>
      <path d="M 32.171875 -5.078125 
Q 28.375 -14.84375 24.75 -17.8125 
Q 21.140625 -20.796875 15.09375 -20.796875 
L 7.90625 -20.796875 
L 7.90625 -13.28125 
L 13.1875 -13.28125 
Q 16.890625 -13.28125 18.9375 -11.515625 
Q 21 -9.765625 23.484375 -3.21875 
L 25.09375 0.875 
L 2.984375 54.6875 
L 12.5 54.6875 
L 29.59375 11.921875 
L 46.6875 54.6875 
L 56.203125 54.6875 
z
" id="DejaVuSans-79"/>
     </defs>
     <g transform="translate(321.009063 296.504312)scale(0.1 -0.1)">
      <use xlink:href="#DejaVuSans-3b5"/>
      <use x="54.052734" xlink:href="#DejaVuSans-2d"/>
      <use x="90.136719" xlink:href="#DejaVuSans-67"/>
      <use x="153.613281" xlink:href="#DejaVuSans-72"/>
      <use x="194.695312" xlink:href="#DejaVuSans-65"/>
      <use x="256.21875" xlink:href="#DejaVuSans-65"/>
      <use x="317.742188" xlink:href="#DejaVuSans-64"/>
      <use x="381.21875" xlink:href="#DejaVuSans-79"/>
      <use x="440.398438" xlink:href="#DejaVuSans-20"/>
      <use x="472.185547" xlink:href="#DejaVuSans-28"/>
      <use x="511.199219" xlink:href="#DejaVuSans-3b5"/>
      <use x="565.251953" xlink:href="#DejaVuSans-3d"/>
      <use x="649.041016" xlink:href="#DejaVuSans-30"/>
      <use x="712.664062" xlink:href="#DejaVuSans-2e"/>
      <use x="744.451172" xlink:href="#DejaVuSans-31"/>
      <use x="808.074219" xlink:href="#DejaVuSans-29"/>
     </g>
    </g>
   </g>
  </g>
 </g>
 <defs>
  <clipPath id="pe078d61eb3">
   <rect height="266.112" width="357.12" x="57.6" y="41.472"/>
  </clipPath>
 </defs>
</svg>
